<svg version="1.1" xmlns:xlink="http://www.w3.org/1999/xlink" xmlns="http://www.w3.org/2000/svg" width="368" height="34" viewbox="0 0 368 34"><defs><style type="text/css">.c{fill: none; stroke: #888888; stroke-width: 3pt;}.j{fill:#000000;font-family:Dialog,Sans-serif;font-size:12px;}.l{fill:#90d9ff;stroke:#222222;}.r{fill:#d3f0ff;stroke:#222222;}</style></defs><path class="c" d="M0 21h5m25 0h10m26 0h10m65 0h10m65 0h10m25 0h10m27 0h10m65 0h5"/><rect class="l" x="5" y="5" width="25" height="24" rx="7"/><text class="j" x="15" y="21">(</text><rect class="l" x="40" y="5" width="26" height="24" rx="7"/><text class="j" x="50" y="21">*</text><a xlink:href="#integer"><rect class="r" x="76" y="5" width="65" height="24"/><text class="j" x="86" y="21">integer</text></a><a xlink:href="#integer"><rect class="r" x="151" y="5" width="65" height="24"/><text class="j" x="161" y="21">integer</text></a><rect class="l" x="226" y="5" width="25" height="24" rx="7"/><text class="j" x="236" y="21">)</text><rect class="l" x="261" y="5" width="27" height="24" rx="7"/><text class="j" x="271" y="21">»</text><a xlink:href="#integer"><rect class="r" x="298" y="5" width="65" height="24"/><text class="j" x="308" y="21">integer</text></a></svg>