<!--
*0 = '(''*' integer integer')' '»' integer;
-->
<svg version="1.1" xmlns:xlink="http://www.w3.org/1999/xlink" xmlns="http://www.w3.org/2000/svg" width="371" height="35" viewbox="0 0 371 35"><defs><style type="text/css">.c{fill: none; stroke: #888888; stroke-width: 2px;}.j{fill:#000000;font-family:Verdana,Sans-serif;font-size:12px;}.l{fill:#90d9ff;stroke:#222222;}.r{fill:#d3f0ff;stroke:#222222;}</style></defs><path class="c" d="M0 18h5m25 0h10m28 0h10m65 0h10m65 0h10m25 0h10m28 0h10m65 0h5"/><rect class="l" x="5" y="5" width="25" height="25" rx="7"/><text class="j" x="15" y="22">(</text><rect class="l" x="40" y="5" width="28" height="25" rx="7"/><text class="j" x="50" y="22">*</text><a xlink:href="#integer"><rect class="r" x="78" y="5" width="65" height="25"/><text class="j" x="88" y="22">integer</text></a><a xlink:href="#integer"><rect class="r" x="153" y="5" width="65" height="25"/><text class="j" x="163" y="22">integer</text></a><rect class="l" x="228" y="5" width="25" height="25" rx="7"/><text class="j" x="238" y="22">)</text><rect class="l" x="263" y="5" width="28" height="25" rx="7"/><text class="j" x="273" y="22">»</text><a xlink:href="#integer"><rect class="r" x="301" y="5" width="65" height="25"/><text class="j" x="311" y="22">integer</text></a></svg>