<!--
<0 = '(''<' ((integer integer) | (fixed-decimal fixed-decimal))')' '»' boolean;
-->
<svg version="1.1" xmlns:xlink="http://www.w3.org/1999/xlink" xmlns="http://www.w3.org/2000/svg" width="492" height="65" viewbox="0 0 492 65"><defs><style type="text/css">.c{fill: none; stroke: #888888; stroke-width: 2px;}.j{fill:#000000;font-family:Verdana,Sans-serif;font-size:12px;}.l{fill:#90d9ff;stroke:#222222;}.r{fill:#d3f0ff;stroke:#222222;}</style></defs><path class="c" d="M0 18h5m25 0h10m29 0h30m65 0h10m65 0h94m-249 0q5 0 5 5v20q0 5 5 5h5m102 0h10m102 0h5q5 0 5-5v-20q0-5 5-5m5 0h10m25 0h10m28 0h10m71 0h5"/><rect class="l" x="5" y="5" width="25" height="25" rx="7"/><text class="j" x="15" y="22">(</text><rect class="l" x="40" y="5" width="29" height="25" rx="7"/><text class="j" x="50" y="22">&lt;</text><a xlink:href="#integer"><rect class="r" x="99" y="5" width="65" height="25"/><text class="j" x="109" y="22">integer</text></a><a xlink:href="#integer"><rect class="r" x="174" y="5" width="65" height="25"/><text class="j" x="184" y="22">integer</text></a><a xlink:href="#fixed-decimal"><rect class="r" x="99" y="35" width="102" height="25"/><text class="j" x="109" y="52">fixed-decimal</text></a><a xlink:href="#fixed-decimal"><rect class="r" x="211" y="35" width="102" height="25"/><text class="j" x="221" y="52">fixed-decimal</text></a><rect class="l" x="343" y="5" width="25" height="25" rx="7"/><text class="j" x="353" y="22">)</text><rect class="l" x="378" y="5" width="28" height="25" rx="7"/><text class="j" x="388" y="22">»</text><a xlink:href="#boolean"><rect class="r" x="416" y="5" width="71" height="25"/><text class="j" x="426" y="22">boolean</text></a></svg>