<svg version="1.1" xmlns:xlink="http://www.w3.org/1999/xlink" xmlns="http://www.w3.org/2000/svg" width="431" height="65" viewbox="0 0 431 65"><defs><style type="text/css">.c{fill: none; stroke: #888888; stroke-width: 2px;}.i{fill:#000000;font-family:Verdana,Sans-serif;font-size:12px;}.l{fill:#90d9ff;stroke:#222222;}.r{fill:#d3f0ff;stroke:#222222;}</style></defs><path class="c" d="M0 18h25m65 0h10m38 0h10m65 0h94m-297 0q5 0 5 5v20q0 5 5 5h5m102 0h10m38 0h10m102 0h5q5 0 5-5v-20q0-5 5-5m5 0h10m28 0h10m71 0h5"/><a xlink:href="#integer"><rect class="r" x="25" y="5" width="65" height="25"/><text class="i" x="35" y="22">integer</text></a><rect class="l" x="100" y="5" width="38" height="25" rx="7"/><text class="i" x="110" y="22">&lt;=</text><a xlink:href="#integer"><rect class="r" x="148" y="5" width="65" height="25"/><text class="i" x="158" y="22">integer</text></a><a xlink:href="#fixed-decimal"><rect class="r" x="25" y="35" width="102" height="25"/><text class="i" x="35" y="52">fixed-decimal</text></a><rect class="l" x="137" y="35" width="38" height="25" rx="7"/><text class="i" x="147" y="52">&lt;=</text><a xlink:href="#fixed-decimal"><rect class="r" x="185" y="35" width="102" height="25"/><text class="i" x="195" y="52">fixed-decimal</text></a><rect class="l" x="317" y="5" width="28" height="25" rx="7"/><text class="i" x="327" y="22">»</text><a xlink:href="#boolean"><rect class="r" x="355" y="5" width="71" height="25"/><text class="i" x="365" y="22">boolean</text></a></svg>