<svg version="1.1" xmlns:xlink="http://www.w3.org/1999/xlink" xmlns="http://www.w3.org/2000/svg" width="386" height="35" viewbox="0 0 386 35"><defs><style type="text/css">.c{fill: none; stroke: #888888; stroke-width: 2px;}.j{fill:#000000;font-family:Verdana,Sans-serif;font-size:12px;}.l{fill:#90d9ff;stroke:#222222;}.r{fill:#d3f0ff;stroke:#222222;}</style></defs><path class="c" d="M0 18h5m25 0h10m40 0h10m66 0h10m66 0h10m25 0h10m28 0h10m66 0h5"/><rect class="l" x="5" y="5" width="25" height="25" rx="7"/><text class="j" x="15" y="22">(</text><rect class="l" x="40" y="5" width="40" height="25" rx="7"/><text class="j" x="50" y="22">=&gt;</text><a xlink:href="#boolean"><rect class="r" x="90" y="5" width="66" height="25"/><text class="j" x="100" y="22">boolean</text></a><a xlink:href="#boolean"><rect class="r" x="166" y="5" width="66" height="25"/><text class="j" x="176" y="22">boolean</text></a><rect class="l" x="242" y="5" width="25" height="25" rx="7"/><text class="j" x="252" y="22">)</text><rect class="l" x="277" y="5" width="28" height="25" rx="7"/><text class="j" x="287" y="22">»</text><a xlink:href="#boolean"><rect class="r" x="315" y="5" width="66" height="25"/><text class="j" x="325" y="22">boolean</text></a></svg>