<svg version="1.1" xmlns:xlink="http://www.w3.org/1999/xlink" xmlns="http://www.w3.org/2000/svg" width="410" height="65" viewbox="0 0 410 65"><defs><style type="text/css">.c{fill: none; stroke: #888888; stroke-width: 2px;}.i{fill:#000000;font-family:Verdana,Sans-serif;font-size:12px;}.l{fill:#90d9ff;stroke:#222222;}.r{fill:#d3f0ff;stroke:#222222;}</style></defs><path class="c" d="M0 18h25m62 0h10m30 0h10m62 0h92m-281 0q5 0 5 5v20q0 5 5 5h5m98 0h10m30 0h10m98 0h5q5 0 5-5v-20q0-5 5-5m5 0h10m28 0h10m66 0h5"/><a xlink:href="#integer"><rect class="r" x="25" y="5" width="62" height="25"/><text class="i" x="35" y="22">integer</text></a><rect class="l" x="97" y="5" width="30" height="25" rx="7"/><text class="i" x="107" y="22">&gt;</text><a xlink:href="#integer"><rect class="r" x="137" y="5" width="62" height="25"/><text class="i" x="147" y="22">integer</text></a><a xlink:href="#fixed-decimal"><rect class="r" x="25" y="35" width="98" height="25"/><text class="i" x="35" y="52">fixed-decimal</text></a><rect class="l" x="133" y="35" width="30" height="25" rx="7"/><text class="i" x="143" y="52">&gt;</text><a xlink:href="#fixed-decimal"><rect class="r" x="173" y="35" width="98" height="25"/><text class="i" x="183" y="52">fixed-decimal</text></a><rect class="l" x="301" y="5" width="28" height="25" rx="7"/><text class="i" x="311" y="22">»</text><a xlink:href="#boolean"><rect class="r" x="339" y="5" width="66" height="25"/><text class="i" x="349" y="22">boolean</text></a></svg>