<svg version="1.1" xmlns:xlink="http://www.w3.org/1999/xlink" xmlns="http://www.w3.org/2000/svg" width="500" height="63" viewbox="0 0 500 63"><defs><style type="text/css">.c{fill: none; stroke: #888888; stroke-width: 3pt;}.j{fill:#000000;font-family:Dialog,Sans-serif;font-size:12px;}.l{fill:#90d9ff;stroke:#222222;}.r{fill:#d3f0ff;stroke:#222222;}</style></defs><path class="c" d="M0 21h5m25 0h10m40 0h30m65 0h10m65 0h92m-247 0q5 0 5 5v19q0 5 5 5h5m101 0h10m101 0h5q5 0 5-5v-19q0-5 5-5m5 0h10m25 0h10m27 0h10m71 0h5"/><rect class="l" x="5" y="5" width="25" height="24" rx="7"/><text class="j" x="15" y="21">(</text><rect class="l" x="40" y="5" width="40" height="24" rx="7"/><text class="j" x="50" y="21">&gt;=</text><a xlink:href="#integer"><rect class="r" x="110" y="5" width="65" height="24"/><text class="j" x="120" y="21">integer</text></a><a xlink:href="#integer"><rect class="r" x="185" y="5" width="65" height="24"/><text class="j" x="195" y="21">integer</text></a><a xlink:href="#fixed-decimal"><rect class="r" x="110" y="34" width="101" height="24"/><text class="j" x="120" y="50">fixed-decimal</text></a><a xlink:href="#fixed-decimal"><rect class="r" x="221" y="34" width="101" height="24"/><text class="j" x="231" y="50">fixed-decimal</text></a><rect class="l" x="352" y="5" width="25" height="24" rx="7"/><text class="j" x="362" y="21">)</text><rect class="l" x="387" y="5" width="27" height="24" rx="7"/><text class="j" x="397" y="21">»</text><a xlink:href="#boolean"><rect class="r" x="424" y="5" width="71" height="24"/><text class="j" x="434" y="21">boolean</text></a></svg>