<svg version="1.1" xmlns:xlink="http://www.w3.org/1999/xlink" xmlns="http://www.w3.org/2000/svg" width="430" height="63" viewbox="0 0 430 63"><defs><style type="text/css">.c{fill: none; stroke: #888888; stroke-width: 3pt;}.i{fill:#000000;font-family:Dialog,Sans-serif;font-size:12px;}.l{fill:#90d9ff;stroke:#222222;}.r{fill:#d3f0ff;stroke:#222222;}</style></defs><path class="c" d="M0 21h25m65 0h10m40 0h10m65 0h92m-297 0q5 0 5 5v19q0 5 5 5h5m101 0h10m40 0h10m101 0h5q5 0 5-5v-19q0-5 5-5m5 0h10m27 0h10m71 0h5"/><a xlink:href="#integer"><rect class="r" x="25" y="5" width="65" height="24"/><text class="i" x="35" y="21">integer</text></a><rect class="l" x="100" y="5" width="40" height="24" rx="7"/><text class="i" x="110" y="21">&gt;=</text><a xlink:href="#integer"><rect class="r" x="150" y="5" width="65" height="24"/><text class="i" x="160" y="21">integer</text></a><a xlink:href="#fixed-decimal"><rect class="r" x="25" y="34" width="101" height="24"/><text class="i" x="35" y="50">fixed-decimal</text></a><rect class="l" x="136" y="34" width="40" height="24" rx="7"/><text class="i" x="146" y="50">&gt;=</text><a xlink:href="#fixed-decimal"><rect class="r" x="186" y="34" width="101" height="24"/><text class="i" x="196" y="50">fixed-decimal</text></a><rect class="l" x="317" y="5" width="27" height="24" rx="7"/><text class="i" x="327" y="21">»</text><a xlink:href="#boolean"><rect class="r" x="354" y="5" width="71" height="24"/><text class="i" x="364" y="21">boolean</text></a></svg>