<svg version="1.1" xmlns:xlink="http://www.w3.org/1999/xlink" xmlns="http://www.w3.org/2000/svg" width="490" height="65" viewbox="0 0 490 65"><defs><style type="text/css">.c{fill: none; stroke: #888888; stroke-width: 2px;}.j{fill:#000000;font-family:Verdana,Sans-serif;font-size:12px;}.l{fill:#90d9ff;stroke:#222222;}.r{fill:#d3f0ff;stroke:#222222;}</style></defs><path class="c" d="M0 18h5m25 0h10m40 0h30m62 0h10m62 0h92m-241 0q5 0 5 5v20q0 5 5 5h5m98 0h10m98 0h5q5 0 5-5v-20q0-5 5-5m5 0h10m25 0h10m28 0h10m66 0h5"/><rect class="l" x="5" y="5" width="25" height="25" rx="7"/><text class="j" x="15" y="22">(</text><rect class="l" x="40" y="5" width="40" height="25" rx="7"/><text class="j" x="50" y="22">&gt;=</text><a xlink:href="#integer"><rect class="r" x="110" y="5" width="62" height="25"/><text class="j" x="120" y="22">integer</text></a><a xlink:href="#integer"><rect class="r" x="182" y="5" width="62" height="25"/><text class="j" x="192" y="22">integer</text></a><a xlink:href="#fixed-decimal"><rect class="r" x="110" y="35" width="98" height="25"/><text class="j" x="120" y="52">fixed-decimal</text></a><a xlink:href="#fixed-decimal"><rect class="r" x="218" y="35" width="98" height="25"/><text class="j" x="228" y="52">fixed-decimal</text></a><rect class="l" x="346" y="5" width="25" height="25" rx="7"/><text class="j" x="356" y="22">)</text><rect class="l" x="381" y="5" width="28" height="25" rx="7"/><text class="j" x="391" y="22">»</text><a xlink:href="#boolean"><rect class="r" x="419" y="5" width="66" height="25"/><text class="j" x="429" y="22">boolean</text></a></svg>