<svg version="1.1" xmlns:xlink="http://www.w3.org/1999/xlink" xmlns="http://www.w3.org/2000/svg" width="385" height="35" viewbox="0 0 385 35"><defs><style type="text/css">.c{fill:none;stroke:#222222;}.j{fill:#000000;font-family:Verdana,Sans-serif;font-size:12px;}.l{fill:#90d9ff;stroke:#222222;}.r{fill:#d3f0ff;stroke:#222222;}</style></defs><path class="c" d="M0 22h5m25 0h10m43 0h10m102 0h10m25 0h10m28 0h10m102 0h5"/><rect class="l" x="5" y="5" width="25" height="25" rx="7"/><text class="j" x="15" y="22">(</text><rect class="l" x="40" y="5" width="43" height="25" rx="7"/><text class="j" x="50" y="22">abs</text><a xlink:href="#fixed-decimal"><rect class="r" x="93" y="5" width="102" height="25"/><text class="j" x="103" y="22">fixed-decimal</text></a><rect class="l" x="205" y="5" width="25" height="25" rx="7"/><text class="j" x="215" y="22">)</text><rect class="l" x="240" y="5" width="28" height="25" rx="7"/><text class="j" x="250" y="22">»</text><a xlink:href="#fixed-decimal"><rect class="r" x="278" y="5" width="102" height="25"/><text class="j" x="288" y="22">fixed-decimal</text></a></svg>