<svg version="1.1" xmlns:xlink="http://www.w3.org/1999/xlink" xmlns="http://www.w3.org/2000/svg" width="374" height="35" viewbox="0 0 374 35"><defs><style type="text/css">.c{fill: none; stroke: #888888; stroke-width: 2px;}.j{fill:#000000;font-family:Verdana,Sans-serif;font-size:12px;}.l{fill:#90d9ff;stroke:#222222;}.r{fill:#d3f0ff;stroke:#222222;}</style></defs><path class="c" d="M0 18h5m40 0h10m25 0h10m98 0h10m25 0h10m28 0h10m98 0h5"/><rect class="l" x="5" y="5" width="40" height="25" rx="7"/><text class="j" x="15" y="22">abs</text><rect class="l" x="55" y="5" width="25" height="25" rx="7"/><text class="j" x="65" y="22">(</text><a xlink:href="#fixed-decimal"><rect class="r" x="90" y="5" width="98" height="25"/><text class="j" x="100" y="22">fixed-decimal</text></a><rect class="l" x="198" y="5" width="25" height="25" rx="7"/><text class="j" x="208" y="22">)</text><rect class="l" x="233" y="5" width="28" height="25" rx="7"/><text class="j" x="243" y="22">»</text><a xlink:href="#fixed-decimal"><rect class="r" x="271" y="5" width="98" height="25"/><text class="j" x="281" y="22">fixed-decimal</text></a></svg>