<svg version="1.1" xmlns:xlink="http://www.w3.org/1999/xlink" xmlns="http://www.w3.org/2000/svg" width="382" height="34" viewbox="0 0 382 34"><defs><style type="text/css">.c{fill: none; stroke: #888888; stroke-width: 3pt;}.j{fill:#000000;font-family:Dialog,Sans-serif;font-size:12px;}.l{fill:#90d9ff;stroke:#222222;}.r{fill:#d3f0ff;stroke:#222222;}</style></defs><path class="c" d="M0 21h5m25 0h10m43 0h10m101 0h10m25 0h10m27 0h10m101 0h5"/><rect class="l" x="5" y="5" width="25" height="24" rx="7"/><text class="j" x="15" y="21">(</text><rect class="l" x="40" y="5" width="43" height="24" rx="7"/><text class="j" x="50" y="21">abs</text><a xlink:href="#fixed-decimal"><rect class="r" x="93" y="5" width="101" height="24"/><text class="j" x="103" y="21">fixed-decimal</text></a><rect class="l" x="204" y="5" width="25" height="24" rx="7"/><text class="j" x="214" y="21">)</text><rect class="l" x="239" y="5" width="27" height="24" rx="7"/><text class="j" x="249" y="21">»</text><a xlink:href="#fixed-decimal"><rect class="r" x="276" y="5" width="101" height="24"/><text class="j" x="286" y="21">fixed-decimal</text></a></svg>