<svg version="1.1" xmlns:xlink="http://www.w3.org/1999/xlink" xmlns="http://www.w3.org/2000/svg" width="751" height="95" viewbox="0 0 751 95"><defs><style type="text/css">.c{fill: none; stroke: #888888; stroke-width: 2px;}.i{fill:#000000;font-family:Verdana,Sans-serif;font-size:12px;}.l{fill:#90d9ff;stroke:#222222;}.r{fill:#d3f0ff;stroke:#222222;}</style></defs><path class="c" d="M0 33h25m111 0h10m24 0h10m146 0h20m-336 0q5 0 5 5v20q0 5 5 5h5m98 0h10m25 0h10m62 0h10m25 0h66q5 0 5-5v-20q0-5 5-5m5 0h50m-5 0q-5 0-5-5v-17q0-5 5-5h230q5 0 5 5v17q0 5-5 5m-225 0h20m24 0h10m146 0h20m-215 0q5 0 5 5v20q0 5 5 5h5m25 0h10m62 0h10m25 0h53q5 0 5-5v-20q0-5 5-5m5 0h40m-295 0q5 0 5 5v38q0 5 5 5h270q5 0 5-5v-38q0-5 5-5m5 0h10m28 0h10m42 0h5"/><a xlink:href="#instance:target"><rect class="r" x="25" y="20" width="111" height="25"/><text class="i" x="35" y="37">instance:target</text></a><rect class="l" x="146" y="20" width="24" height="25" rx="7"/><text class="i" x="156" y="37">.</text><a xlink:href="#symbol:instance-field"><rect class="r" x="180" y="20" width="146" height="25"/><text class="i" x="190" y="37">symbol:instance-field</text></a><a xlink:href="#vector:target"><rect class="r" x="25" y="50" width="98" height="25"/><text class="i" x="35" y="67">vector:target</text></a><rect class="l" x="133" y="50" width="25" height="25" rx="7"/><text class="i" x="143" y="67">[</text><a xlink:href="#integer"><rect class="r" x="168" y="50" width="62" height="25"/><text class="i" x="178" y="67">integer</text></a><rect class="l" x="240" y="50" width="25" height="25" rx="7"/><text class="i" x="250" y="67">]</text><rect class="l" x="416" y="20" width="24" height="25" rx="7"/><text class="i" x="426" y="37">.</text><a xlink:href="#symbol:instance-field"><rect class="r" x="450" y="20" width="146" height="25"/><text class="i" x="460" y="37">symbol:instance-field</text></a><rect class="l" x="416" y="50" width="25" height="25" rx="7"/><text class="i" x="426" y="67">[</text><a xlink:href="#integer"><rect class="r" x="451" y="50" width="62" height="25"/><text class="i" x="461" y="67">integer</text></a><rect class="l" x="523" y="50" width="25" height="25" rx="7"/><text class="i" x="533" y="67">]</text><rect class="l" x="666" y="20" width="28" height="25" rx="7"/><text class="i" x="676" y="37">»</text><a xlink:href="#any"><rect class="r" x="704" y="20" width="42" height="25"/><text class="i" x="714" y="37">any</text></a></svg>