<svg version="1.1" xmlns:xlink="http://www.w3.org/1999/xlink" xmlns="http://www.w3.org/2000/svg" width="314" height="34" viewbox="0 0 314 34"><defs><style type="text/css">.c{fill: none; stroke: #888888; stroke-width: 2px;}.i{fill:#000000;font-family:Dialog,Sans-serif;font-size:12px;}.l{fill:#90d9ff;stroke:#222222;}.r{fill:#d3f0ff;stroke:#222222;}</style></defs><path class="c" d="M0 17h5m59 0h10m25 0h10m65 0h10m25 0h10m27 0h10m53 0h5"/><a xlink:href="#vector"><rect class="r" x="5" y="5" width="59" height="24"/><text class="i" x="15" y="21">vector</text></a><rect class="l" x="74" y="5" width="25" height="24" rx="7"/><text class="i" x="84" y="21">[</text><a xlink:href="#integer"><rect class="r" x="109" y="5" width="65" height="24"/><text class="i" x="119" y="21">integer</text></a><rect class="l" x="184" y="5" width="25" height="24" rx="7"/><text class="i" x="194" y="21">]</text><rect class="l" x="219" y="5" width="27" height="24" rx="7"/><text class="i" x="229" y="21">»</text><a xlink:href="#value"><rect class="r" x="256" y="5" width="53" height="24"/><text class="i" x="266" y="21">value</text></a></svg>