<svg version="1.1" xmlns:xlink="http://www.w3.org/1999/xlink" xmlns="http://www.w3.org/2000/svg" width="772" height="95" viewbox="0 0 772 95"><defs><style type="text/css">.c{fill: none; stroke: #888888; stroke-width: 2px;}.i{fill:#000000;font-family:Verdana,Sans-serif;font-size:12px;}.l{fill:#90d9ff;stroke:#222222;}.r{fill:#d3f0ff;stroke:#222222;}</style></defs><path class="c" d="M0 33h25m117 0h10m24 0h10m153 0h20m-349 0q5 0 5 5v20q0 5 5 5h5m103 0h10m25 0h10m65 0h10m25 0h71q5 0 5-5v-20q0-5 5-5m5 0h50m-5 0q-5 0-5-5v-17q0-5 5-5h237q5 0 5 5v17q0 5-5 5m-232 0h20m24 0h10m153 0h20m-222 0q5 0 5 5v20q0 5 5 5h5m25 0h10m65 0h10m25 0h57q5 0 5-5v-20q0-5 5-5m5 0h40m-302 0q5 0 5 5v38q0 5 5 5h277q5 0 5-5v-38q0-5 5-5m5 0h10m28 0h10m43 0h5"/><a xlink:href="#instance:target"><rect class="r" x="25" y="20" width="117" height="25"/><text class="i" x="35" y="37">instance:target</text></a><rect class="l" x="152" y="20" width="24" height="25" rx="7"/><text class="i" x="162" y="37">.</text><a xlink:href="#symbol:instance-field"><rect class="r" x="186" y="20" width="153" height="25"/><text class="i" x="196" y="37">symbol:instance-field</text></a><a xlink:href="#vector:target"><rect class="r" x="25" y="50" width="103" height="25"/><text class="i" x="35" y="67">vector:target</text></a><rect class="l" x="138" y="50" width="25" height="25" rx="7"/><text class="i" x="148" y="67">[</text><a xlink:href="#integer"><rect class="r" x="173" y="50" width="65" height="25"/><text class="i" x="183" y="67">integer</text></a><rect class="l" x="248" y="50" width="25" height="25" rx="7"/><text class="i" x="258" y="67">]</text><rect class="l" x="429" y="20" width="24" height="25" rx="7"/><text class="i" x="439" y="37">.</text><a xlink:href="#symbol:instance-field"><rect class="r" x="463" y="20" width="153" height="25"/><text class="i" x="473" y="37">symbol:instance-field</text></a><rect class="l" x="429" y="50" width="25" height="25" rx="7"/><text class="i" x="439" y="67">[</text><a xlink:href="#integer"><rect class="r" x="464" y="50" width="65" height="25"/><text class="i" x="474" y="67">integer</text></a><rect class="l" x="539" y="50" width="25" height="25" rx="7"/><text class="i" x="549" y="67">]</text><rect class="l" x="686" y="20" width="28" height="25" rx="7"/><text class="i" x="696" y="37">»</text><a xlink:href="#any"><rect class="r" x="724" y="20" width="43" height="25"/><text class="i" x="734" y="37">any</text></a></svg>