<svg version="1.1" xmlns:xlink="http://www.w3.org/1999/xlink" xmlns="http://www.w3.org/2000/svg" width="316" height="35" viewbox="0 0 316 35"><defs><style type="text/css">.c{fill: none; stroke: #888888; stroke-width: 2px;}.i{fill:#000000;font-family:Verdana,Sans-serif;font-size:12px;}.l{fill:#90d9ff;stroke:#222222;}.r{fill:#d3f0ff;stroke:#222222;}</style></defs><path class="c" d="M0 18h5m59 0h10m25 0h10m65 0h10m25 0h10m28 0h10m54 0h5"/><a xlink:href="#vector"><rect class="r" x="5" y="5" width="59" height="25"/><text class="i" x="15" y="22">vector</text></a><rect class="l" x="74" y="5" width="25" height="25" rx="7"/><text class="i" x="84" y="22">[</text><a xlink:href="#integer"><rect class="r" x="109" y="5" width="65" height="25"/><text class="i" x="119" y="22">integer</text></a><rect class="l" x="184" y="5" width="25" height="25" rx="7"/><text class="i" x="194" y="22">]</text><rect class="l" x="219" y="5" width="28" height="25" rx="7"/><text class="i" x="229" y="22">»</text><a xlink:href="#value"><rect class="r" x="257" y="5" width="54" height="25"/><text class="i" x="267" y="22">value</text></a></svg>