<svg version="1.1" xmlns:xlink="http://www.w3.org/1999/xlink" xmlns="http://www.w3.org/2000/svg" width="766" height="93" viewbox="0 0 766 93"><defs><style type="text/css">.c{fill: none; stroke: #888888; stroke-width: 3pt;}.i{fill:#000000;font-family:Dialog,Sans-serif;font-size:12px;}.l{fill:#90d9ff;stroke:#222222;}.r{fill:#d3f0ff;stroke:#222222;}</style></defs><path class="c" d="M0 36h25m117 0h10m24 0h10m151 0h20m-347 0q5 0 5 5v19q0 5 5 5h5m102 0h10m25 0h10m65 0h10m25 0h70q5 0 5-5v-19q0-5 5-5m5 0h50m-5 0q-5 0-5-5v-16q0-5 5-5h235q5 0 5 5v16q0 5-5 5m-230 0h20m24 0h10m151 0h20m-220 0q5 0 5 5v19q0 5 5 5h5m25 0h10m65 0h10m25 0h55q5 0 5-5v-19q0-5 5-5m5 0h40m-300 0q5 0 5 5v37q0 5 5 5h275q5 0 5-5v-37q0-5 5-5m5 0h10m27 0h10m42 0h5"/><a xlink:href="#instance:target"><rect class="r" x="25" y="20" width="117" height="24"/><text class="i" x="35" y="36">instance:target</text></a><rect class="l" x="152" y="20" width="24" height="24" rx="7"/><text class="i" x="162" y="36">.</text><a xlink:href="#symbol:instance-field"><rect class="r" x="186" y="20" width="151" height="24"/><text class="i" x="196" y="36">symbol:instance-field</text></a><a xlink:href="#vector:target"><rect class="r" x="25" y="49" width="102" height="24"/><text class="i" x="35" y="65">vector:target</text></a><rect class="l" x="137" y="49" width="25" height="24" rx="7"/><text class="i" x="147" y="65">[</text><a xlink:href="#integer"><rect class="r" x="172" y="49" width="65" height="24"/><text class="i" x="182" y="65">integer</text></a><rect class="l" x="247" y="49" width="25" height="24" rx="7"/><text class="i" x="257" y="65">]</text><rect class="l" x="427" y="20" width="24" height="24" rx="7"/><text class="i" x="437" y="36">.</text><a xlink:href="#symbol:instance-field"><rect class="r" x="461" y="20" width="151" height="24"/><text class="i" x="471" y="36">symbol:instance-field</text></a><rect class="l" x="427" y="49" width="25" height="24" rx="7"/><text class="i" x="437" y="65">[</text><a xlink:href="#integer"><rect class="r" x="462" y="49" width="65" height="24"/><text class="i" x="472" y="65">integer</text></a><rect class="l" x="537" y="49" width="25" height="24" rx="7"/><text class="i" x="547" y="65">]</text><rect class="l" x="682" y="20" width="27" height="24" rx="7"/><text class="i" x="692" y="36">»</text><a xlink:href="#any"><rect class="r" x="719" y="20" width="42" height="24"/><text class="i" x="729" y="36">any</text></a></svg>