<svg version="1.1" xmlns:xlink="http://www.w3.org/1999/xlink" xmlns="http://www.w3.org/2000/svg" width="445" height="50" viewbox="0 0 445 50"><defs><style type="text/css">.c{fill: none; stroke: #888888; stroke-width: 2px;}.j{fill:#000000;font-family:Verdana,Sans-serif;font-size:12px;}.l{fill:#90d9ff;stroke:#222222;}.r{fill:#d3f0ff;stroke:#222222;}</style></defs><path class="c" d="M0 33h5m25 0h10m44 0h10m71 0h30m-5 0q-5 0-5-5v-17q0-5 5-5h81q5 0 5 5v17q0 5-5 5m-5 0h30m25 0h10m28 0h10m71 0h5"/><rect class="l" x="5" y="20" width="25" height="25" rx="7"/><text class="j" x="15" y="37">(</text><rect class="l" x="40" y="20" width="44" height="25" rx="7"/><text class="j" x="50" y="37">and</text><a xlink:href="#boolean"><rect class="r" x="94" y="20" width="71" height="25"/><text class="j" x="104" y="37">boolean</text></a><a xlink:href="#boolean"><rect class="r" x="195" y="20" width="71" height="25"/><text class="j" x="205" y="37">boolean</text></a><rect class="l" x="296" y="20" width="25" height="25" rx="7"/><text class="j" x="306" y="37">)</text><rect class="l" x="331" y="20" width="28" height="25" rx="7"/><text class="j" x="341" y="37">»</text><a xlink:href="#boolean"><rect class="r" x="369" y="20" width="71" height="25"/><text class="j" x="379" y="37">boolean</text></a></svg>