<svg version="1.1" xmlns:xlink="http://www.w3.org/1999/xlink" xmlns="http://www.w3.org/2000/svg" width="428" height="50" viewbox="0 0 428 50"><defs><style type="text/css">.c{fill: none; stroke: #888888; stroke-width: 2px;}.j{fill:#000000;font-family:Verdana,Sans-serif;font-size:12px;}.l{fill:#90d9ff;stroke:#222222;}.r{fill:#d3f0ff;stroke:#222222;}</style></defs><path class="c" d="M0 33h5m25 0h10m42 0h10m66 0h30m-5 0q-5 0-5-5v-17q0-5 5-5h76q5 0 5 5v17q0 5-5 5m-5 0h30m25 0h10m28 0h10m66 0h5"/><rect class="l" x="5" y="20" width="25" height="25" rx="7"/><text class="j" x="15" y="37">(</text><rect class="l" x="40" y="20" width="42" height="25" rx="7"/><text class="j" x="50" y="37">and</text><a xlink:href="#boolean"><rect class="r" x="92" y="20" width="66" height="25"/><text class="j" x="102" y="37">boolean</text></a><a xlink:href="#boolean"><rect class="r" x="188" y="20" width="66" height="25"/><text class="j" x="198" y="37">boolean</text></a><rect class="l" x="284" y="20" width="25" height="25" rx="7"/><text class="j" x="294" y="37">)</text><rect class="l" x="319" y="20" width="28" height="25" rx="7"/><text class="j" x="329" y="37">»</text><a xlink:href="#boolean"><rect class="r" x="357" y="20" width="66" height="25"/><text class="j" x="367" y="37">boolean</text></a></svg>