<svg version="1.1" xmlns:xlink="http://www.w3.org/1999/xlink" xmlns="http://www.w3.org/2000/svg" width="409" height="65" viewbox="0 0 409 65"><defs><style type="text/css">.c{fill:none;stroke:#222222;}.i{fill:#000000;font-family:Verdana,Sans-serif;font-size:12px;}.l{fill:#90d9ff;stroke:#222222;}.r{fill:#d3f0ff;stroke:#222222;}</style></defs><path class="c" d="M0 37h5m71 0h10m38 0h50m-5 0q-5 0-5-5v-17q0-5 5-5h81q5 0 5 5v17q0 5-5 5m-5 0h40m-146 0q5 0 5 5v8q0 5 5 5h121q5 0 5-5v-8q0-5 5-5m5 0h10m28 0h10m71 0h5"/><a xlink:href="#boolean"><rect class="r" x="5" y="20" width="71" height="25"/><text class="i" x="15" y="37">boolean</text></a><rect class="l" x="86" y="20" width="38" height="25" rx="7"/><text class="i" x="96" y="37">&amp;&amp;</text><a xlink:href="#boolean"><rect class="r" x="174" y="20" width="71" height="25"/><text class="i" x="184" y="37">boolean</text></a><rect class="l" x="295" y="20" width="28" height="25" rx="7"/><text class="i" x="305" y="37">»</text><a xlink:href="#boolean"><rect class="r" x="333" y="20" width="71" height="25"/><text class="i" x="343" y="37">boolean</text></a></svg>