<svg version="1.1" xmlns:xlink="http://www.w3.org/1999/xlink" xmlns="http://www.w3.org/2000/svg" width="651" height="63" viewbox="0 0 651 63"><defs><style type="text/css">.c{fill: none; stroke: #888888; stroke-width: 2px;}.j{fill:#000000;font-family:Dialog,Sans-serif;font-size:12px;}.l{fill:#90d9ff;stroke:#222222;}.r{fill:#d3f0ff;stroke:#222222;}</style></defs><path class="c" d="M0 17h5m25 0h10m48 0h10m25 0h10m63 0h30m40 0h39m-94 0q5 0 5 5v19q0 5 5 5h5m59 0h5q5 0 5-5v-19q0-5 5-5m5 0h10m25 0h10m143 0h10m25 0h10m27 0h10m71 0h5"/><rect class="l" x="5" y="5" width="25" height="24" rx="7"/><text class="j" x="15" y="21">(</text><rect class="l" x="40" y="5" width="48" height="24" rx="7"/><text class="j" x="50" y="21">any?</text><rect class="l" x="98" y="5" width="25" height="24" rx="7"/><text class="j" x="108" y="21">[</text><a xlink:href="#symbol"><rect class="r" x="133" y="5" width="63" height="24"/><text class="j" x="143" y="21">symbol</text></a><a xlink:href="#set"><rect class="r" x="226" y="5" width="40" height="24"/><text class="j" x="236" y="21">set</text></a><a xlink:href="#vector"><rect class="r" x="226" y="34" width="59" height="24"/><text class="j" x="236" y="50">vector</text></a><rect class="l" x="315" y="5" width="25" height="24" rx="7"/><text class="j" x="325" y="21">]</text><a xlink:href="#boolean-expression"><rect class="r" x="350" y="5" width="143" height="24"/><text class="j" x="360" y="21">boolean-expression</text></a><rect class="l" x="503" y="5" width="25" height="24" rx="7"/><text class="j" x="513" y="21">)</text><rect class="l" x="538" y="5" width="27" height="24" rx="7"/><text class="j" x="548" y="21">»</text><a xlink:href="#boolean"><rect class="r" x="575" y="5" width="71" height="24"/><text class="j" x="585" y="21">boolean</text></a></svg>