<svg version="1.1" xmlns:xlink="http://www.w3.org/1999/xlink" xmlns="http://www.w3.org/2000/svg" width="628" height="65" viewbox="0 0 628 65"><defs><style type="text/css">.c{fill: none; stroke: #888888; stroke-width: 2px;}.j{fill:#000000;font-family:Verdana,Sans-serif;font-size:12px;}.l{fill:#90d9ff;stroke:#222222;}.r{fill:#d3f0ff;stroke:#222222;}</style></defs><path class="c" d="M0 18h5m50 0h10m25 0h10m64 0h10m31 0h30m40 0h39m-94 0q5 0 5 5v20q0 5 5 5h5m59 0h5q5 0 5-5v-20q0-5 5-5m5 0h10m25 0h10m145 0h10m28 0h10m71 0h5"/><rect class="l" x="5" y="5" width="50" height="25" rx="7"/><text class="j" x="15" y="22">any?</text><rect class="l" x="65" y="5" width="25" height="25" rx="7"/><text class="j" x="75" y="22">(</text><a xlink:href="#symbol"><rect class="r" x="100" y="5" width="64" height="25"/><text class="j" x="110" y="22">symbol</text></a><rect class="l" x="174" y="5" width="31" height="25" rx="7"/><text class="j" x="184" y="22">in</text><a xlink:href="#set"><rect class="r" x="235" y="5" width="40" height="25"/><text class="j" x="245" y="22">set</text></a><a xlink:href="#vector"><rect class="r" x="235" y="35" width="59" height="25"/><text class="j" x="245" y="52">vector</text></a><rect class="l" x="324" y="5" width="25" height="25" rx="7"/><text class="j" x="334" y="22">)</text><a xlink:href="#boolean-expression"><rect class="r" x="359" y="5" width="145" height="25"/><text class="j" x="369" y="22">boolean-expression</text></a><rect class="l" x="514" y="5" width="28" height="25" rx="7"/><text class="j" x="524" y="22">»</text><a xlink:href="#boolean"><rect class="r" x="552" y="5" width="71" height="25"/><text class="j" x="562" y="22">boolean</text></a></svg>