<svg version="1.1" xmlns:xlink="http://www.w3.org/1999/xlink" xmlns="http://www.w3.org/2000/svg" width="423" height="63" viewbox="0 0 423 63"><defs><style type="text/css">.c{fill: none; stroke: #888888; stroke-width: 2px;}.i{fill:#000000;font-family:Dialog,Sans-serif;font-size:12px;}.l{fill:#90d9ff;stroke:#222222;}.r{fill:#d3f0ff;stroke:#222222;}</style></defs><path class="c" d="M0 17h5m40 0h10m24 0h10m63 0h10m25 0h30m40 0h39m-94 0q5 0 5 5v19q0 5 5 5h5m59 0h5q5 0 5-5v-19q0-5 5-5m5 0h10m25 0h10m27 0h10m40 0h5"/><a xlink:href="#set"><rect class="r" x="5" y="5" width="40" height="24"/><text class="i" x="15" y="21">set</text></a><rect class="l" x="55" y="5" width="24" height="24" rx="7"/><text class="i" x="65" y="21">.</text><rect class="l" x="89" y="5" width="63" height="24" rx="7"/><text class="i" x="99" y="21">concat</text><rect class="l" x="162" y="5" width="25" height="24" rx="7"/><text class="i" x="172" y="21">(</text><a xlink:href="#set"><rect class="r" x="217" y="5" width="40" height="24"/><text class="i" x="227" y="21">set</text></a><a xlink:href="#vector"><rect class="r" x="217" y="34" width="59" height="24"/><text class="i" x="227" y="50">vector</text></a><rect class="l" x="306" y="5" width="25" height="24" rx="7"/><text class="i" x="316" y="21">)</text><rect class="l" x="341" y="5" width="27" height="24" rx="7"/><text class="i" x="351" y="21">»</text><a xlink:href="#set"><rect class="r" x="378" y="5" width="40" height="24"/><text class="i" x="388" y="21">set</text></a></svg>