<svg version="1.1" xmlns:xlink="http://www.w3.org/1999/xlink" xmlns="http://www.w3.org/2000/svg" width="422" height="65" viewbox="0 0 422 65"><defs><style type="text/css">.c{fill:none;stroke:#222222;}.i{fill:#000000;font-family:Verdana,Sans-serif;font-size:12px;}.l{fill:#90d9ff;stroke:#222222;}.r{fill:#d3f0ff;stroke:#222222;}</style></defs><path class="c" d="M0 22h5m40 0h10m24 0h10m61 0h10m25 0h30m40 0h39m-94 0q5 0 5 5v20q0 5 5 5h5m59 0h5q5 0 5-5v-20q0-5 5-5m5 0h10m25 0h10m28 0h10m40 0h5"/><a xlink:href="#set"><rect class="r" x="5" y="5" width="40" height="25"/><text class="i" x="15" y="22">set</text></a><rect class="l" x="55" y="5" width="24" height="25" rx="7"/><text class="i" x="65" y="22">.</text><rect class="l" x="89" y="5" width="61" height="25" rx="7"/><text class="i" x="99" y="22">concat</text><rect class="l" x="160" y="5" width="25" height="25" rx="7"/><text class="i" x="170" y="22">(</text><a xlink:href="#set"><rect class="r" x="215" y="5" width="40" height="25"/><text class="i" x="225" y="22">set</text></a><a xlink:href="#vector"><rect class="r" x="215" y="35" width="59" height="25"/><text class="i" x="225" y="52">vector</text></a><rect class="l" x="304" y="5" width="25" height="25" rx="7"/><text class="i" x="314" y="22">)</text><rect class="l" x="339" y="5" width="28" height="25" rx="7"/><text class="i" x="349" y="22">»</text><a xlink:href="#set"><rect class="r" x="377" y="5" width="40" height="25"/><text class="i" x="387" y="22">set</text></a></svg>