<!--
concat0 = ( vector '.' 'concat' '('  vector ')' '»' vector )
-->
<svg version="1.1" xmlns:xlink="http://www.w3.org/1999/xlink" xmlns="http://www.w3.org/2000/svg" width="420" height="35" viewbox="0 0 420 35"><defs><style type="text/css">.c{fill: none; stroke: #888888; stroke-width: 2px;}.i{fill:#000000;font-family:Verdana,Sans-serif;font-size:12px;}.l{fill:#90d9ff;stroke:#222222;}.r{fill:#d3f0ff;stroke:#222222;}</style></defs><path class="c" d="M0 18h5m59 0h10m24 0h10m61 0h10m25 0h10m59 0h10m25 0h10m28 0h10m59 0h5"/><a xlink:href="#vector"><rect class="r" x="5" y="5" width="59" height="25"/><text class="i" x="15" y="22">vector</text></a><rect class="l" x="74" y="5" width="24" height="25" rx="7"/><text class="i" x="84" y="22">.</text><rect class="l" x="108" y="5" width="61" height="25" rx="7"/><text class="i" x="118" y="22">concat</text><rect class="l" x="179" y="5" width="25" height="25" rx="7"/><text class="i" x="189" y="22">(</text><a xlink:href="#vector"><rect class="r" x="214" y="5" width="59" height="25"/><text class="i" x="224" y="22">vector</text></a><rect class="l" x="283" y="5" width="25" height="25" rx="7"/><text class="i" x="293" y="22">)</text><rect class="l" x="318" y="5" width="28" height="25" rx="7"/><text class="i" x="328" y="22">»</text><a xlink:href="#vector"><rect class="r" x="356" y="5" width="59" height="25"/><text class="i" x="366" y="22">vector</text></a></svg>