<svg version="1.1" xmlns:xlink="http://www.w3.org/1999/xlink" xmlns="http://www.w3.org/2000/svg" width="421" height="34" viewbox="0 0 421 34"><defs><style type="text/css">.c{fill: none; stroke: #888888; stroke-width: 2px;}.i{fill:#000000;font-family:Dialog,Sans-serif;font-size:12px;}.l{fill:#90d9ff;stroke:#222222;}.r{fill:#d3f0ff;stroke:#222222;}</style></defs><path class="c" d="M0 17h5m59 0h10m24 0h10m63 0h10m25 0h10m59 0h10m25 0h10m27 0h10m59 0h5"/><a xlink:href="#vector"><rect class="r" x="5" y="5" width="59" height="24"/><text class="i" x="15" y="21">vector</text></a><rect class="l" x="74" y="5" width="24" height="24" rx="7"/><text class="i" x="84" y="21">.</text><rect class="l" x="108" y="5" width="63" height="24" rx="7"/><text class="i" x="118" y="21">concat</text><rect class="l" x="181" y="5" width="25" height="24" rx="7"/><text class="i" x="191" y="21">(</text><a xlink:href="#vector"><rect class="r" x="216" y="5" width="59" height="24"/><text class="i" x="226" y="21">vector</text></a><rect class="l" x="285" y="5" width="25" height="24" rx="7"/><text class="i" x="295" y="21">)</text><rect class="l" x="320" y="5" width="27" height="24" rx="7"/><text class="i" x="330" y="21">»</text><a xlink:href="#vector"><rect class="r" x="357" y="5" width="59" height="24"/><text class="i" x="367" y="21">vector</text></a></svg>