<svg version="1.1" xmlns:xlink="http://www.w3.org/1999/xlink" xmlns="http://www.w3.org/2000/svg" width="412" height="35" viewbox="0 0 412 35"><defs><style type="text/css">.c{fill: none; stroke: #888888; stroke-width: 2px;}.i{fill:#000000;font-family:Verdana,Sans-serif;font-size:12px;}.l{fill:#90d9ff;stroke:#222222;}.r{fill:#d3f0ff;stroke:#222222;}</style></defs><path class="c" d="M0 18h5m57 0h10m24 0h10m59 0h10m25 0h10m57 0h10m25 0h10m28 0h10m57 0h5"/><a xlink:href="#vector"><rect class="r" x="5" y="5" width="57" height="25"/><text class="i" x="15" y="22">vector</text></a><rect class="l" x="72" y="5" width="24" height="25" rx="7"/><text class="i" x="82" y="22">.</text><rect class="l" x="106" y="5" width="59" height="25" rx="7"/><text class="i" x="116" y="22">concat</text><rect class="l" x="175" y="5" width="25" height="25" rx="7"/><text class="i" x="185" y="22">(</text><a xlink:href="#vector"><rect class="r" x="210" y="5" width="57" height="25"/><text class="i" x="220" y="22">vector</text></a><rect class="l" x="277" y="5" width="25" height="25" rx="7"/><text class="i" x="287" y="22">)</text><rect class="l" x="312" y="5" width="28" height="25" rx="7"/><text class="i" x="322" y="22">»</text><a xlink:href="#vector"><rect class="r" x="350" y="5" width="57" height="25"/><text class="i" x="360" y="22">vector</text></a></svg>