<svg version="1.1" xmlns:xlink="http://www.w3.org/1999/xlink" xmlns="http://www.w3.org/2000/svg" width="387" height="34" viewbox="0 0 387 34"><defs><style type="text/css">.c{fill: none; stroke: #888888; stroke-width: 2px;}.j{fill:#000000;font-family:Dialog,Sans-serif;font-size:12px;}.l{fill:#90d9ff;stroke:#222222;}.r{fill:#d3f0ff;stroke:#222222;}</style></defs><path class="c" d="M0 17h5m25 0h10m63 0h10m59 0h10m59 0h10m25 0h10m27 0h10m59 0h5"/><rect class="l" x="5" y="5" width="25" height="24" rx="7"/><text class="j" x="15" y="21">(</text><rect class="l" x="40" y="5" width="63" height="24" rx="7"/><text class="j" x="50" y="21">concat</text><a xlink:href="#vector"><rect class="r" x="113" y="5" width="59" height="24"/><text class="j" x="123" y="21">vector</text></a><a xlink:href="#vector"><rect class="r" x="182" y="5" width="59" height="24"/><text class="j" x="192" y="21">vector</text></a><rect class="l" x="251" y="5" width="25" height="24" rx="7"/><text class="j" x="261" y="21">)</text><rect class="l" x="286" y="5" width="27" height="24" rx="7"/><text class="j" x="296" y="21">»</text><a xlink:href="#vector"><rect class="r" x="323" y="5" width="59" height="24"/><text class="j" x="333" y="21">vector</text></a></svg>