<svg version="1.1" xmlns:xlink="http://www.w3.org/1999/xlink" xmlns="http://www.w3.org/2000/svg" width="386" height="35" viewbox="0 0 386 35"><defs><style type="text/css">.c{fill: none; stroke: #888888; stroke-width: 2px;}.j{fill:#000000;font-family:Verdana,Sans-serif;font-size:12px;}.l{fill:#90d9ff;stroke:#222222;}.r{fill:#d3f0ff;stroke:#222222;}</style></defs><path class="c" d="M0 18h5m25 0h10m61 0h10m59 0h10m59 0h10m25 0h10m28 0h10m59 0h5"/><rect class="l" x="5" y="5" width="25" height="25" rx="7"/><text class="j" x="15" y="22">(</text><rect class="l" x="40" y="5" width="61" height="25" rx="7"/><text class="j" x="50" y="22">concat</text><a xlink:href="#vector"><rect class="r" x="111" y="5" width="59" height="25"/><text class="j" x="121" y="22">vector</text></a><a xlink:href="#vector"><rect class="r" x="180" y="5" width="59" height="25"/><text class="j" x="190" y="22">vector</text></a><rect class="l" x="249" y="5" width="25" height="25" rx="7"/><text class="j" x="259" y="22">)</text><rect class="l" x="284" y="5" width="28" height="25" rx="7"/><text class="j" x="294" y="22">»</text><a xlink:href="#vector"><rect class="r" x="322" y="5" width="59" height="25"/><text class="j" x="332" y="22">vector</text></a></svg>