<svg version="1.1" xmlns:xlink="http://www.w3.org/1999/xlink" xmlns="http://www.w3.org/2000/svg" width="378" height="35" viewbox="0 0 378 35"><defs><style type="text/css">.c{fill: none; stroke: #888888; stroke-width: 2px;}.j{fill:#000000;font-family:Verdana,Sans-serif;font-size:12px;}.l{fill:#90d9ff;stroke:#222222;}.r{fill:#d3f0ff;stroke:#222222;}</style></defs><path class="c" d="M0 18h5m25 0h10m59 0h10m57 0h10m57 0h10m25 0h10m28 0h10m57 0h5"/><rect class="l" x="5" y="5" width="25" height="25" rx="7"/><text class="j" x="15" y="22">(</text><rect class="l" x="40" y="5" width="59" height="25" rx="7"/><text class="j" x="50" y="22">concat</text><a xlink:href="#vector"><rect class="r" x="109" y="5" width="57" height="25"/><text class="j" x="119" y="22">vector</text></a><a xlink:href="#vector"><rect class="r" x="176" y="5" width="57" height="25"/><text class="j" x="186" y="22">vector</text></a><rect class="l" x="243" y="5" width="25" height="25" rx="7"/><text class="j" x="253" y="22">)</text><rect class="l" x="278" y="5" width="28" height="25" rx="7"/><text class="j" x="288" y="22">»</text><a xlink:href="#vector"><rect class="r" x="316" y="5" width="57" height="25"/><text class="j" x="326" y="22">vector</text></a></svg>