<!--
cond0 = '(''cond' boolean any-expression { boolean any-expression } any-expression')' '»' any;
-->
<svg version="1.1" xmlns:xlink="http://www.w3.org/1999/xlink" xmlns="http://www.w3.org/2000/svg" width="844" height="65" viewbox="0 0 844 65"><defs><style type="text/css">.c{fill: none; stroke: #888888; stroke-width: 2px;}.j{fill:#000000;font-family:Verdana,Sans-serif;font-size:12px;}.l{fill:#90d9ff;stroke:#222222;}.r{fill:#d3f0ff;stroke:#222222;}</style></defs><path class="c" d="M0 33h5m25 0h10m50 0h10m71 0h10m117 0h50m-5 0q-5 0-5-5v-17q0-5 5-5h208q5 0 5 5v17q0 5-5 5m-132 0h10m117 0h40m-273 0q5 0 5 5v8q0 5 5 5h248q5 0 5-5v-8q0-5 5-5m5 0h10m117 0h10m25 0h10m28 0h10m43 0h5"/><rect class="l" x="5" y="20" width="25" height="25" rx="7"/><text class="j" x="15" y="37">(</text><rect class="l" x="40" y="20" width="50" height="25" rx="7"/><text class="j" x="50" y="37">cond</text><a xlink:href="#boolean"><rect class="r" x="100" y="20" width="71" height="25"/><text class="j" x="110" y="37">boolean</text></a><a xlink:href="#any-expression"><rect class="r" x="181" y="20" width="117" height="25"/><text class="j" x="191" y="37">any-expression</text></a><a xlink:href="#boolean"><rect class="r" x="348" y="20" width="71" height="25"/><text class="j" x="358" y="37">boolean</text></a><a xlink:href="#any-expression"><rect class="r" x="429" y="20" width="117" height="25"/><text class="j" x="439" y="37">any-expression</text></a><a xlink:href="#any-expression"><rect class="r" x="596" y="20" width="117" height="25"/><text class="j" x="606" y="37">any-expression</text></a><rect class="l" x="723" y="20" width="25" height="25" rx="7"/><text class="j" x="733" y="37">)</text><rect class="l" x="758" y="20" width="28" height="25" rx="7"/><text class="j" x="768" y="37">»</text><a xlink:href="#any"><rect class="r" x="796" y="20" width="43" height="25"/><text class="j" x="806" y="37">any</text></a></svg>