<svg version="1.1" xmlns:xlink="http://www.w3.org/1999/xlink" xmlns="http://www.w3.org/2000/svg" width="438" height="63" viewbox="0 0 438 63"><defs><style type="text/css">.c{fill: none; stroke: #888888; stroke-width: 2px;}.i{fill:#000000;font-family:Dialog,Sans-serif;font-size:12px;}.l{fill:#90d9ff;stroke:#222222;}.r{fill:#d3f0ff;stroke:#222222;}</style></defs><path class="c" d="M0 46h5m59 0h10m24 0h10m46 0h10m25 0h30m-5 0q-5 0-5-5v-19q0-5 5-5h19m24 0h20q5 0 5 5v19q0 5-5 5m-5 0h30m25 0h10m27 0h10m59 0h5"/><a xlink:href="#vector"><rect class="r" x="5" y="34" width="59" height="24"/><text class="i" x="15" y="50">vector</text></a><rect class="l" x="74" y="34" width="24" height="24" rx="7"/><text class="i" x="84" y="50">.</text><rect class="l" x="108" y="34" width="46" height="24" rx="7"/><text class="i" x="118" y="50">conj</text><rect class="l" x="164" y="34" width="25" height="24" rx="7"/><text class="i" x="174" y="50">(</text><rect class="l" x="233" y="5" width="24" height="24" rx="7"/><text class="i" x="243" y="21">,</text><a xlink:href="#value"><rect class="r" x="219" y="34" width="53" height="24"/><text class="i" x="229" y="50">value</text></a><rect class="l" x="302" y="34" width="25" height="24" rx="7"/><text class="i" x="312" y="50">)</text><rect class="l" x="337" y="34" width="27" height="24" rx="7"/><text class="i" x="347" y="50">»</text><a xlink:href="#vector"><rect class="r" x="374" y="34" width="59" height="24"/><text class="i" x="384" y="50">vector</text></a></svg>