<svg version="1.1" xmlns:xlink="http://www.w3.org/1999/xlink" xmlns="http://www.w3.org/2000/svg" width="433" height="65" viewbox="0 0 433 65"><defs><style type="text/css">.c{fill: none; stroke: #888888; stroke-width: 2px;}.i{fill:#000000;font-family:Verdana,Sans-serif;font-size:12px;}.l{fill:#90d9ff;stroke:#222222;}.r{fill:#d3f0ff;stroke:#222222;}</style></defs><path class="c" d="M0 48h5m57 0h10m24 0h10m45 0h10m25 0h30m-5 0q-5 0-5-5v-20q0-5 5-5h19m24 0h19q5 0 5 5v20q0 5-5 5m-5 0h30m25 0h10m28 0h10m57 0h5"/><a xlink:href="#vector"><rect class="r" x="5" y="35" width="57" height="25"/><text class="i" x="15" y="52">vector</text></a><rect class="l" x="72" y="35" width="24" height="25" rx="7"/><text class="i" x="82" y="52">.</text><rect class="l" x="106" y="35" width="45" height="25" rx="7"/><text class="i" x="116" y="52">conj</text><rect class="l" x="161" y="35" width="25" height="25" rx="7"/><text class="i" x="171" y="52">(</text><rect class="l" x="230" y="5" width="24" height="25" rx="7"/><text class="i" x="240" y="22">,</text><a xlink:href="#value"><rect class="r" x="216" y="35" width="52" height="25"/><text class="i" x="226" y="52">value</text></a><rect class="l" x="298" y="35" width="25" height="25" rx="7"/><text class="i" x="308" y="52">)</text><rect class="l" x="333" y="35" width="28" height="25" rx="7"/><text class="i" x="343" y="52">»</text><a xlink:href="#vector"><rect class="r" x="371" y="35" width="57" height="25"/><text class="i" x="381" y="52">vector</text></a></svg>