<svg version="1.1" xmlns:xlink="http://www.w3.org/1999/xlink" xmlns="http://www.w3.org/2000/svg" width="440" height="65" viewbox="0 0 440 65"><defs><style type="text/css">.c{fill: none; stroke: #888888; stroke-width: 2px;}.i{fill:#000000;font-family:Verdana,Sans-serif;font-size:12px;}.l{fill:#90d9ff;stroke:#222222;}.r{fill:#d3f0ff;stroke:#222222;}</style></defs><path class="c" d="M0 48h5m59 0h10m24 0h10m46 0h10m25 0h30m-5 0q-5 0-5-5v-20q0-5 5-5h20m24 0h20q5 0 5 5v20q0 5-5 5m-5 0h30m25 0h10m28 0h10m59 0h5"/><a xlink:href="#vector"><rect class="r" x="5" y="35" width="59" height="25"/><text class="i" x="15" y="52">vector</text></a><rect class="l" x="74" y="35" width="24" height="25" rx="7"/><text class="i" x="84" y="52">.</text><rect class="l" x="108" y="35" width="46" height="25" rx="7"/><text class="i" x="118" y="52">conj</text><rect class="l" x="164" y="35" width="25" height="25" rx="7"/><text class="i" x="174" y="52">(</text><rect class="l" x="234" y="5" width="24" height="25" rx="7"/><text class="i" x="244" y="22">,</text><a xlink:href="#value"><rect class="r" x="219" y="35" width="54" height="25"/><text class="i" x="229" y="52">value</text></a><rect class="l" x="303" y="35" width="25" height="25" rx="7"/><text class="i" x="313" y="52">)</text><rect class="l" x="338" y="35" width="28" height="25" rx="7"/><text class="i" x="348" y="52">»</text><a xlink:href="#vector"><rect class="r" x="376" y="35" width="59" height="25"/><text class="i" x="386" y="52">vector</text></a></svg>