<svg version="1.1" xmlns:xlink="http://www.w3.org/1999/xlink" xmlns="http://www.w3.org/2000/svg" width="366" height="49" viewbox="0 0 366 49"><defs><style type="text/css">.c{fill: none; stroke: #888888; stroke-width: 3pt;}.j{fill:#000000;font-family:Dialog,Sans-serif;font-size:12px;}.l{fill:#90d9ff;stroke:#222222;}.r{fill:#d3f0ff;stroke:#222222;}</style></defs><path class="c" d="M0 36h5m25 0h10m46 0h10m40 0h30m-5 0q-5 0-5-5v-16q0-5 5-5h63q5 0 5 5v16q0 5-5 5m-5 0h30m25 0h10m27 0h10m40 0h5"/><rect class="l" x="5" y="20" width="25" height="24" rx="7"/><text class="j" x="15" y="36">(</text><rect class="l" x="40" y="20" width="46" height="24" rx="7"/><text class="j" x="50" y="36">conj</text><a xlink:href="#set"><rect class="r" x="96" y="20" width="40" height="24"/><text class="j" x="106" y="36">set</text></a><a xlink:href="#value"><rect class="r" x="166" y="20" width="53" height="24"/><text class="j" x="176" y="36">value</text></a><rect class="l" x="249" y="20" width="25" height="24" rx="7"/><text class="j" x="259" y="36">)</text><rect class="l" x="284" y="20" width="27" height="24" rx="7"/><text class="j" x="294" y="36">»</text><a xlink:href="#set"><rect class="r" x="321" y="20" width="40" height="24"/><text class="j" x="331" y="36">set</text></a></svg>