<!--
conj0 = '(''conj' set value {value}')' '»' set;
-->
<svg version="1.1" xmlns:xlink="http://www.w3.org/1999/xlink" xmlns="http://www.w3.org/2000/svg" width="368" height="50" viewbox="0 0 368 50"><defs><style type="text/css">.c{fill: none; stroke: #888888; stroke-width: 2px;}.j{fill:#000000;font-family:Verdana,Sans-serif;font-size:12px;}.l{fill:#90d9ff;stroke:#222222;}.r{fill:#d3f0ff;stroke:#222222;}</style></defs><path class="c" d="M0 33h5m25 0h10m46 0h10m40 0h30m-5 0q-5 0-5-5v-17q0-5 5-5h64q5 0 5 5v17q0 5-5 5m-5 0h30m25 0h10m28 0h10m40 0h5"/><rect class="l" x="5" y="20" width="25" height="25" rx="7"/><text class="j" x="15" y="37">(</text><rect class="l" x="40" y="20" width="46" height="25" rx="7"/><text class="j" x="50" y="37">conj</text><a xlink:href="#set"><rect class="r" x="96" y="20" width="40" height="25"/><text class="j" x="106" y="37">set</text></a><a xlink:href="#value"><rect class="r" x="166" y="20" width="54" height="25"/><text class="j" x="176" y="37">value</text></a><rect class="l" x="250" y="20" width="25" height="25" rx="7"/><text class="j" x="260" y="37">)</text><rect class="l" x="285" y="20" width="28" height="25" rx="7"/><text class="j" x="295" y="37">»</text><a xlink:href="#set"><rect class="r" x="323" y="20" width="40" height="25"/><text class="j" x="333" y="37">set</text></a></svg>