<svg version="1.1" xmlns:xlink="http://www.w3.org/1999/xlink" xmlns="http://www.w3.org/2000/svg" width="400" height="63" viewbox="0 0 400 63"><defs><style type="text/css">.c{fill: none; stroke: #888888; stroke-width: 2px;}.i{fill:#000000;font-family:Dialog,Sans-serif;font-size:12px;}.l{fill:#90d9ff;stroke:#222222;}.r{fill:#d3f0ff;stroke:#222222;}</style></defs><path class="c" d="M0 46h5m40 0h10m24 0h10m46 0h10m25 0h30m-5 0q-5 0-5-5v-19q0-5 5-5h19m24 0h20q5 0 5 5v19q0 5-5 5m-5 0h30m25 0h10m27 0h10m40 0h5"/><a xlink:href="#set"><rect class="r" x="5" y="34" width="40" height="24"/><text class="i" x="15" y="50">set</text></a><rect class="l" x="55" y="34" width="24" height="24" rx="7"/><text class="i" x="65" y="50">.</text><rect class="l" x="89" y="34" width="46" height="24" rx="7"/><text class="i" x="99" y="50">conj</text><rect class="l" x="145" y="34" width="25" height="24" rx="7"/><text class="i" x="155" y="50">(</text><rect class="l" x="214" y="5" width="24" height="24" rx="7"/><text class="i" x="224" y="21">,</text><a xlink:href="#value"><rect class="r" x="200" y="34" width="53" height="24"/><text class="i" x="210" y="50">value</text></a><rect class="l" x="283" y="34" width="25" height="24" rx="7"/><text class="i" x="293" y="50">)</text><rect class="l" x="318" y="34" width="27" height="24" rx="7"/><text class="i" x="328" y="50">»</text><a xlink:href="#set"><rect class="r" x="355" y="34" width="40" height="24"/><text class="i" x="365" y="50">set</text></a></svg>