<svg version="1.1" xmlns:xlink="http://www.w3.org/1999/xlink" xmlns="http://www.w3.org/2000/svg" width="415" height="35" viewbox="0 0 415 35"><defs><style type="text/css">.c{fill: none; stroke: #888888; stroke-width: 2px;}.i{fill:#000000;font-family:Verdana,Sans-serif;font-size:12px;}.l{fill:#90d9ff;stroke:#222222;}.r{fill:#d3f0ff;stroke:#222222;}</style></defs><path class="c" d="M0 18h5m38 0h10m24 0h10m77 0h10m25 0h10m52 0h10m25 0h10m28 0h10m66 0h5"/><a xlink:href="#set"><rect class="r" x="5" y="5" width="38" height="25"/><text class="i" x="15" y="22">set</text></a><rect class="l" x="53" y="5" width="24" height="25" rx="7"/><text class="i" x="63" y="22">.</text><rect class="l" x="87" y="5" width="77" height="25" rx="7"/><text class="i" x="97" y="22">contains?</text><rect class="l" x="174" y="5" width="25" height="25" rx="7"/><text class="i" x="184" y="22">(</text><a xlink:href="#value"><rect class="r" x="209" y="5" width="52" height="25"/><text class="i" x="219" y="22">value</text></a><rect class="l" x="271" y="5" width="25" height="25" rx="7"/><text class="i" x="281" y="22">)</text><rect class="l" x="306" y="5" width="28" height="25" rx="7"/><text class="i" x="316" y="22">»</text><a xlink:href="#boolean"><rect class="r" x="344" y="5" width="66" height="25"/><text class="i" x="354" y="22">boolean</text></a></svg>