<svg version="1.1" xmlns:xlink="http://www.w3.org/1999/xlink" xmlns="http://www.w3.org/2000/svg" width="425" height="34" viewbox="0 0 425 34"><defs><style type="text/css">.c{fill: none; stroke: #888888; stroke-width: 2px;}.i{fill:#000000;font-family:Dialog,Sans-serif;font-size:12px;}.l{fill:#90d9ff;stroke:#222222;}.r{fill:#d3f0ff;stroke:#222222;}</style></defs><path class="c" d="M0 17h5m40 0h10m24 0h10m80 0h10m25 0h10m53 0h10m25 0h10m27 0h10m71 0h5"/><a xlink:href="#set"><rect class="r" x="5" y="5" width="40" height="24"/><text class="i" x="15" y="21">set</text></a><rect class="l" x="55" y="5" width="24" height="24" rx="7"/><text class="i" x="65" y="21">.</text><rect class="l" x="89" y="5" width="80" height="24" rx="7"/><text class="i" x="99" y="21">contains?</text><rect class="l" x="179" y="5" width="25" height="24" rx="7"/><text class="i" x="189" y="21">(</text><a xlink:href="#value"><rect class="r" x="214" y="5" width="53" height="24"/><text class="i" x="224" y="21">value</text></a><rect class="l" x="277" y="5" width="25" height="24" rx="7"/><text class="i" x="287" y="21">)</text><rect class="l" x="312" y="5" width="27" height="24" rx="7"/><text class="i" x="322" y="21">»</text><a xlink:href="#boolean"><rect class="r" x="349" y="5" width="71" height="24"/><text class="i" x="359" y="21">boolean</text></a></svg>