<svg version="1.1" xmlns:xlink="http://www.w3.org/1999/xlink" xmlns="http://www.w3.org/2000/svg" width="391" height="34" viewbox="0 0 391 34"><defs><style type="text/css">.c{fill: none; stroke: #888888; stroke-width: 3pt;}.j{fill:#000000;font-family:Dialog,Sans-serif;font-size:12px;}.l{fill:#90d9ff;stroke:#222222;}.r{fill:#d3f0ff;stroke:#222222;}</style></defs><path class="c" d="M0 21h5m25 0h10m80 0h10m40 0h10m53 0h10m25 0h10m27 0h10m71 0h5"/><rect class="l" x="5" y="5" width="25" height="24" rx="7"/><text class="j" x="15" y="21">(</text><rect class="l" x="40" y="5" width="80" height="24" rx="7"/><text class="j" x="50" y="21">contains?</text><a xlink:href="#set"><rect class="r" x="130" y="5" width="40" height="24"/><text class="j" x="140" y="21">set</text></a><a xlink:href="#value"><rect class="r" x="180" y="5" width="53" height="24"/><text class="j" x="190" y="21">value</text></a><rect class="l" x="243" y="5" width="25" height="24" rx="7"/><text class="j" x="253" y="21">)</text><rect class="l" x="278" y="5" width="27" height="24" rx="7"/><text class="j" x="288" y="21">»</text><a xlink:href="#boolean"><rect class="r" x="315" y="5" width="71" height="24"/><text class="j" x="325" y="21">boolean</text></a></svg>