<svg version="1.1" xmlns:xlink="http://www.w3.org/1999/xlink" xmlns="http://www.w3.org/2000/svg" width="331" height="63" viewbox="0 0 331 63"><defs><style type="text/css">.c{fill: none; stroke: #888888; stroke-width: 3pt;}.i{fill:#000000;font-family:Dialog,Sans-serif;font-size:12px;}.l{fill:#90d9ff;stroke:#222222;}.r{fill:#d3f0ff;stroke:#222222;}</style></defs><path class="c" d="M0 21h25m40 0h39m-94 0q5 0 5 5v19q0 5 5 5h5m59 0h5q5 0 5-5v-19q0-5 5-5m5 0h10m24 0h10m66 0h10m27 0h10m65 0h5"/><a xlink:href="#set"><rect class="r" x="25" y="5" width="40" height="24"/><text class="i" x="35" y="21">set</text></a><a xlink:href="#vector"><rect class="r" x="25" y="34" width="59" height="24"/><text class="i" x="35" y="50">vector</text></a><rect class="l" x="114" y="5" width="24" height="24" rx="7"/><text class="i" x="124" y="21">.</text><rect class="l" x="148" y="5" width="66" height="24" rx="7"/><text class="i" x="158" y="21">count()</text><rect class="l" x="224" y="5" width="27" height="24" rx="7"/><text class="i" x="234" y="21">»</text><a xlink:href="#integer"><rect class="r" x="261" y="5" width="65" height="24"/><text class="i" x="271" y="21">integer</text></a></svg>