<svg version="1.1" xmlns:xlink="http://www.w3.org/1999/xlink" xmlns="http://www.w3.org/2000/svg" width="310" height="34" viewbox="0 0 310 34"><defs><style type="text/css">.c{fill: none; stroke: #888888; stroke-width: 3pt;}.j{fill:#000000;font-family:Dialog,Sans-serif;font-size:12px;}.l{fill:#90d9ff;stroke:#222222;}.r{fill:#d3f0ff;stroke:#222222;}</style></defs><path class="c" d="M0 21h5m25 0h10m43 0h10m65 0h10m25 0h10m27 0h10m65 0h5"/><rect class="l" x="5" y="5" width="25" height="24" rx="7"/><text class="j" x="15" y="21">(</text><rect class="l" x="40" y="5" width="43" height="24" rx="7"/><text class="j" x="50" y="21">dec</text><a xlink:href="#integer"><rect class="r" x="93" y="5" width="65" height="24"/><text class="j" x="103" y="21">integer</text></a><rect class="l" x="168" y="5" width="25" height="24" rx="7"/><text class="j" x="178" y="21">)</text><rect class="l" x="203" y="5" width="27" height="24" rx="7"/><text class="j" x="213" y="21">»</text><a xlink:href="#integer"><rect class="r" x="240" y="5" width="65" height="24"/><text class="j" x="250" y="21">integer</text></a></svg>