<svg version="1.1" xmlns:xlink="http://www.w3.org/1999/xlink" xmlns="http://www.w3.org/2000/svg" width="374" height="35" viewbox="0 0 374 35"><defs><style type="text/css">.c{fill: none; stroke: #888888; stroke-width: 2px;}.i{fill:#000000;font-family:Verdana,Sans-serif;font-size:12px;}.l{fill:#90d9ff;stroke:#222222;}.r{fill:#d3f0ff;stroke:#222222;}</style></defs><path class="c" d="M0 18h5m38 0h10m24 0h10m78 0h10m25 0h10m38 0h10m25 0h10m28 0h10m38 0h5"/><a xlink:href="#set"><rect class="r" x="5" y="5" width="38" height="25"/><text class="i" x="15" y="22">set</text></a><rect class="l" x="53" y="5" width="24" height="25" rx="7"/><text class="i" x="63" y="22">.</text><rect class="l" x="87" y="5" width="78" height="25" rx="7"/><text class="i" x="97" y="22">difference</text><rect class="l" x="175" y="5" width="25" height="25" rx="7"/><text class="i" x="185" y="22">(</text><a xlink:href="#set"><rect class="r" x="210" y="5" width="38" height="25"/><text class="i" x="220" y="22">set</text></a><rect class="l" x="258" y="5" width="25" height="25" rx="7"/><text class="i" x="268" y="22">)</text><rect class="l" x="293" y="5" width="28" height="25" rx="7"/><text class="i" x="303" y="22">»</text><a xlink:href="#set"><rect class="r" x="331" y="5" width="38" height="25"/><text class="i" x="341" y="22">set</text></a></svg>