<!--
difference0 = ( set '.' 'difference' '(' set ')' '»' set )
-->
<svg version="1.1" xmlns:xlink="http://www.w3.org/1999/xlink" xmlns="http://www.w3.org/2000/svg" width="384" height="35" viewbox="0 0 384 35"><defs><style type="text/css">.c{fill: none; stroke: #888888; stroke-width: 2px;}.i{fill:#000000;font-family:Verdana,Sans-serif;font-size:12px;}.l{fill:#90d9ff;stroke:#222222;}.r{fill:#d3f0ff;stroke:#222222;}</style></defs><path class="c" d="M0 18h5m40 0h10m24 0h10m82 0h10m25 0h10m40 0h10m25 0h10m28 0h10m40 0h5"/><a xlink:href="#set"><rect class="r" x="5" y="5" width="40" height="25"/><text class="i" x="15" y="22">set</text></a><rect class="l" x="55" y="5" width="24" height="25" rx="7"/><text class="i" x="65" y="22">.</text><rect class="l" x="89" y="5" width="82" height="25" rx="7"/><text class="i" x="99" y="22">difference</text><rect class="l" x="181" y="5" width="25" height="25" rx="7"/><text class="i" x="191" y="22">(</text><a xlink:href="#set"><rect class="r" x="216" y="5" width="40" height="25"/><text class="i" x="226" y="22">set</text></a><rect class="l" x="266" y="5" width="25" height="25" rx="7"/><text class="i" x="276" y="22">)</text><rect class="l" x="301" y="5" width="28" height="25" rx="7"/><text class="i" x="311" y="22">»</text><a xlink:href="#set"><rect class="r" x="339" y="5" width="40" height="25"/><text class="i" x="349" y="22">set</text></a></svg>