<svg version="1.1" xmlns:xlink="http://www.w3.org/1999/xlink" xmlns="http://www.w3.org/2000/svg" width="384" height="34" viewbox="0 0 384 34"><defs><style type="text/css">.c{fill: none; stroke: #888888; stroke-width: 2px;}.i{fill:#000000;font-family:Dialog,Sans-serif;font-size:12px;}.l{fill:#90d9ff;stroke:#222222;}.r{fill:#d3f0ff;stroke:#222222;}</style></defs><path class="c" d="M0 17h5m40 0h10m24 0h10m83 0h10m25 0h10m40 0h10m25 0h10m27 0h10m40 0h5"/><a xlink:href="#set"><rect class="r" x="5" y="5" width="40" height="24"/><text class="i" x="15" y="21">set</text></a><rect class="l" x="55" y="5" width="24" height="24" rx="7"/><text class="i" x="65" y="21">.</text><rect class="l" x="89" y="5" width="83" height="24" rx="7"/><text class="i" x="99" y="21">difference</text><rect class="l" x="182" y="5" width="25" height="24" rx="7"/><text class="i" x="192" y="21">(</text><a xlink:href="#set"><rect class="r" x="217" y="5" width="40" height="24"/><text class="i" x="227" y="21">set</text></a><rect class="l" x="267" y="5" width="25" height="24" rx="7"/><text class="i" x="277" y="21">)</text><rect class="l" x="302" y="5" width="27" height="24" rx="7"/><text class="i" x="312" y="21">»</text><a xlink:href="#set"><rect class="r" x="339" y="5" width="40" height="24"/><text class="i" x="349" y="21">set</text></a></svg>