<!--
difference0 = '(''difference' set set')' '»' set;
-->
<svg version="1.1" xmlns:xlink="http://www.w3.org/1999/xlink" xmlns="http://www.w3.org/2000/svg" width="350" height="35" viewbox="0 0 350 35"><defs><style type="text/css">.c{fill: none; stroke: #888888; stroke-width: 2px;}.j{fill:#000000;font-family:Verdana,Sans-serif;font-size:12px;}.l{fill:#90d9ff;stroke:#222222;}.r{fill:#d3f0ff;stroke:#222222;}</style></defs><path class="c" d="M0 18h5m25 0h10m82 0h10m40 0h10m40 0h10m25 0h10m28 0h10m40 0h5"/><rect class="l" x="5" y="5" width="25" height="25" rx="7"/><text class="j" x="15" y="22">(</text><rect class="l" x="40" y="5" width="82" height="25" rx="7"/><text class="j" x="50" y="22">difference</text><a xlink:href="#set"><rect class="r" x="132" y="5" width="40" height="25"/><text class="j" x="142" y="22">set</text></a><a xlink:href="#set"><rect class="r" x="182" y="5" width="40" height="25"/><text class="j" x="192" y="22">set</text></a><rect class="l" x="232" y="5" width="25" height="25" rx="7"/><text class="j" x="242" y="22">)</text><rect class="l" x="267" y="5" width="28" height="25" rx="7"/><text class="j" x="277" y="22">»</text><a xlink:href="#set"><rect class="r" x="305" y="5" width="40" height="25"/><text class="j" x="315" y="22">set</text></a></svg>