<svg version="1.1" xmlns:xlink="http://www.w3.org/1999/xlink" xmlns="http://www.w3.org/2000/svg" width="350" height="34" viewbox="0 0 350 34"><defs><style type="text/css">.c{fill: none; stroke: #888888; stroke-width: 2px;}.j{fill:#000000;font-family:Dialog,Sans-serif;font-size:12px;}.l{fill:#90d9ff;stroke:#222222;}.r{fill:#d3f0ff;stroke:#222222;}</style></defs><path class="c" d="M0 17h5m25 0h10m83 0h10m40 0h10m40 0h10m25 0h10m27 0h10m40 0h5"/><rect class="l" x="5" y="5" width="25" height="24" rx="7"/><text class="j" x="15" y="21">(</text><rect class="l" x="40" y="5" width="83" height="24" rx="7"/><text class="j" x="50" y="21">difference</text><a xlink:href="#set"><rect class="r" x="133" y="5" width="40" height="24"/><text class="j" x="143" y="21">set</text></a><a xlink:href="#set"><rect class="r" x="183" y="5" width="40" height="24"/><text class="j" x="193" y="21">set</text></a><rect class="l" x="233" y="5" width="25" height="24" rx="7"/><text class="j" x="243" y="21">)</text><rect class="l" x="268" y="5" width="27" height="24" rx="7"/><text class="j" x="278" y="21">»</text><a xlink:href="#set"><rect class="r" x="305" y="5" width="40" height="24"/><text class="j" x="315" y="21">set</text></a></svg>