<!--
div1 = '(''div' fixed-decimal integer')' '»' fixed-decimal;
-->
<svg version="1.1" xmlns:xlink="http://www.w3.org/1999/xlink" xmlns="http://www.w3.org/2000/svg" width="455" height="35" viewbox="0 0 455 35"><defs><style type="text/css">.c{fill: none; stroke: #888888; stroke-width: 2px;}.j{fill:#000000;font-family:Verdana,Sans-serif;font-size:12px;}.l{fill:#90d9ff;stroke:#222222;}.r{fill:#d3f0ff;stroke:#222222;}</style></defs><path class="c" d="M0 18h5m25 0h10m38 0h10m102 0h10m65 0h10m25 0h10m28 0h10m102 0h5"/><rect class="l" x="5" y="5" width="25" height="25" rx="7"/><text class="j" x="15" y="22">(</text><rect class="l" x="40" y="5" width="38" height="25" rx="7"/><text class="j" x="50" y="22">div</text><a xlink:href="#fixed-decimal"><rect class="r" x="88" y="5" width="102" height="25"/><text class="j" x="98" y="22">fixed-decimal</text></a><a xlink:href="#integer"><rect class="r" x="200" y="5" width="65" height="25"/><text class="j" x="210" y="22">integer</text></a><rect class="l" x="275" y="5" width="25" height="25" rx="7"/><text class="j" x="285" y="22">)</text><rect class="l" x="310" y="5" width="28" height="25" rx="7"/><text class="j" x="320" y="22">»</text><a xlink:href="#fixed-decimal"><rect class="r" x="348" y="5" width="102" height="25"/><text class="j" x="358" y="22">fixed-decimal</text></a></svg>