<svg version="1.1" xmlns:xlink="http://www.w3.org/1999/xlink" xmlns="http://www.w3.org/2000/svg" width="379" height="34" viewbox="0 0 379 34"><defs><style type="text/css">.c{fill: none; stroke: #888888; stroke-width: 2px;}.j{fill:#000000;font-family:Dialog,Sans-serif;font-size:12px;}.l{fill:#90d9ff;stroke:#222222;}.r{fill:#d3f0ff;stroke:#222222;}</style></defs><path class="c" d="M0 17h5m25 0h10m37 0h10m65 0h10m65 0h10m25 0h10m27 0h10m65 0h5"/><rect class="l" x="5" y="5" width="25" height="24" rx="7"/><text class="j" x="15" y="21">(</text><rect class="l" x="40" y="5" width="37" height="24" rx="7"/><text class="j" x="50" y="21">div</text><a xlink:href="#integer"><rect class="r" x="87" y="5" width="65" height="24"/><text class="j" x="97" y="21">integer</text></a><a xlink:href="#integer"><rect class="r" x="162" y="5" width="65" height="24"/><text class="j" x="172" y="21">integer</text></a><rect class="l" x="237" y="5" width="25" height="24" rx="7"/><text class="j" x="247" y="21">)</text><rect class="l" x="272" y="5" width="27" height="24" rx="7"/><text class="j" x="282" y="21">»</text><a xlink:href="#integer"><rect class="r" x="309" y="5" width="65" height="24"/><text class="j" x="319" y="21">integer</text></a></svg>