<svg version="1.1" xmlns:xlink="http://www.w3.org/1999/xlink" xmlns="http://www.w3.org/2000/svg" width="451" height="34" viewbox="0 0 451 34"><defs><style type="text/css">.c{fill: none; stroke: #888888; stroke-width: 3pt;}.j{fill:#000000;font-family:Dialog,Sans-serif;font-size:12px;}.l{fill:#90d9ff;stroke:#222222;}.r{fill:#d3f0ff;stroke:#222222;}</style></defs><path class="c" d="M0 21h5m25 0h10m37 0h10m101 0h10m65 0h10m25 0h10m27 0h10m101 0h5"/><rect class="l" x="5" y="5" width="25" height="24" rx="7"/><text class="j" x="15" y="21">(</text><rect class="l" x="40" y="5" width="37" height="24" rx="7"/><text class="j" x="50" y="21">div</text><a xlink:href="#fixed-decimal"><rect class="r" x="87" y="5" width="101" height="24"/><text class="j" x="97" y="21">fixed-decimal</text></a><a xlink:href="#integer"><rect class="r" x="198" y="5" width="65" height="24"/><text class="j" x="208" y="21">integer</text></a><rect class="l" x="273" y="5" width="25" height="24" rx="7"/><text class="j" x="283" y="21">)</text><rect class="l" x="308" y="5" width="27" height="24" rx="7"/><text class="j" x="318" y="21">»</text><a xlink:href="#fixed-decimal"><rect class="r" x="345" y="5" width="101" height="24"/><text class="j" x="355" y="21">fixed-decimal</text></a></svg>