<svg version="1.1" xmlns:xlink="http://www.w3.org/1999/xlink" xmlns="http://www.w3.org/2000/svg" width="458" height="65" viewbox="0 0 458 65"><defs><style type="text/css">.c{fill: none; stroke: #888888; stroke-width: 2px;}.j{fill:#000000;font-family:Verdana,Sans-serif;font-size:12px;}.l{fill:#90d9ff;stroke:#222222;}.r{fill:#d3f0ff;stroke:#222222;}</style></defs><path class="c" d="M0 48h5m66 0h10m25 0h10m52 0h10m24 0h30m-5 0q-5 0-5-5v-20q0-5 5-5h19m24 0h19q5 0 5 5v20q0 5-5 5m-5 0h30m25 0h10m28 0h10m66 0h5"/><rect class="l" x="5" y="35" width="66" height="25" rx="7"/><text class="j" x="15" y="52">equalTo</text><rect class="l" x="81" y="35" width="25" height="25" rx="7"/><text class="j" x="91" y="52">(</text><a xlink:href="#value"><rect class="r" x="116" y="35" width="52" height="25"/><text class="j" x="126" y="52">value</text></a><rect class="l" x="178" y="35" width="24" height="25" rx="7"/><text class="j" x="188" y="52">,</text><rect class="l" x="246" y="5" width="24" height="25" rx="7"/><text class="j" x="256" y="22">,</text><a xlink:href="#value"><rect class="r" x="232" y="35" width="52" height="25"/><text class="j" x="242" y="52">value</text></a><rect class="l" x="314" y="35" width="25" height="25" rx="7"/><text class="j" x="324" y="52">)</text><rect class="l" x="349" y="35" width="28" height="25" rx="7"/><text class="j" x="359" y="52">»</text><a xlink:href="#boolean"><rect class="r" x="387" y="35" width="66" height="25"/><text class="j" x="397" y="52">boolean</text></a></svg>