<svg version="1.1" xmlns:xlink="http://www.w3.org/1999/xlink" xmlns="http://www.w3.org/2000/svg" width="471" height="65" viewbox="0 0 471 65"><defs><style type="text/css">.c{fill: none; stroke: #888888; stroke-width: 2px;}.j{fill:#000000;font-family:Verdana,Sans-serif;font-size:12px;}.l{fill:#90d9ff;stroke:#222222;}.r{fill:#d3f0ff;stroke:#222222;}</style></defs><path class="c" d="M0 48h5m70 0h10m25 0h10m54 0h10m24 0h30m-5 0q-5 0-5-5v-20q0-5 5-5h20m24 0h20q5 0 5 5v20q0 5-5 5m-5 0h30m25 0h10m28 0h10m71 0h5"/><rect class="l" x="5" y="35" width="70" height="25" rx="7"/><text class="j" x="15" y="52">equalTo</text><rect class="l" x="85" y="35" width="25" height="25" rx="7"/><text class="j" x="95" y="52">(</text><a xlink:href="#value"><rect class="r" x="120" y="35" width="54" height="25"/><text class="j" x="130" y="52">value</text></a><rect class="l" x="184" y="35" width="24" height="25" rx="7"/><text class="j" x="194" y="52">,</text><rect class="l" x="253" y="5" width="24" height="25" rx="7"/><text class="j" x="263" y="22">,</text><a xlink:href="#value"><rect class="r" x="238" y="35" width="54" height="25"/><text class="j" x="248" y="52">value</text></a><rect class="l" x="322" y="35" width="25" height="25" rx="7"/><text class="j" x="332" y="52">)</text><rect class="l" x="357" y="35" width="28" height="25" rx="7"/><text class="j" x="367" y="52">»</text><a xlink:href="#boolean"><rect class="r" x="395" y="35" width="71" height="25"/><text class="j" x="405" y="52">boolean</text></a></svg>