<svg version="1.1" xmlns:xlink="http://www.w3.org/1999/xlink" xmlns="http://www.w3.org/2000/svg" width="307" height="35" viewbox="0 0 307 35"><defs><style type="text/css">.c{fill: none; stroke: #888888; stroke-width: 2px;}.j{fill:#000000;font-family:Verdana,Sans-serif;font-size:12px;}.l{fill:#90d9ff;stroke:#222222;}.r{fill:#d3f0ff;stroke:#222222;}</style></defs><path class="c" d="M0 18h5m49 0h10m25 0h10m54 0h10m25 0h10m28 0h10m66 0h5"/><rect class="l" x="5" y="5" width="49" height="25" rx="7"/><text class="j" x="15" y="22">error</text><rect class="l" x="64" y="5" width="25" height="25" rx="7"/><text class="j" x="74" y="22">(</text><a xlink:href="#string"><rect class="r" x="99" y="5" width="54" height="25"/><text class="j" x="109" y="22">string</text></a><rect class="l" x="163" y="5" width="25" height="25" rx="7"/><text class="j" x="173" y="22">)</text><rect class="l" x="198" y="5" width="28" height="25" rx="7"/><text class="j" x="208" y="22">»</text><a xlink:href="#nothing"><rect class="r" x="236" y="5" width="66" height="25"/><text class="j" x="246" y="22">nothing</text></a></svg>