<svg version="1.1" xmlns:xlink="http://www.w3.org/1999/xlink" xmlns="http://www.w3.org/2000/svg" width="312" height="34" viewbox="0 0 312 34"><defs><style type="text/css">.c{fill: none; stroke: #888888; stroke-width: 3pt;}.j{fill:#000000;font-family:Dialog,Sans-serif;font-size:12px;}.l{fill:#90d9ff;stroke:#222222;}.r{fill:#d3f0ff;stroke:#222222;}</style></defs><path class="c" d="M0 21h5m25 0h10m51 0h10m56 0h10m25 0h10m27 0h10m68 0h5"/><rect class="l" x="5" y="5" width="25" height="24" rx="7"/><text class="j" x="15" y="21">(</text><rect class="l" x="40" y="5" width="51" height="24" rx="7"/><text class="j" x="50" y="21">error</text><a xlink:href="#string"><rect class="r" x="101" y="5" width="56" height="24"/><text class="j" x="111" y="21">string</text></a><rect class="l" x="167" y="5" width="25" height="24" rx="7"/><text class="j" x="177" y="21">)</text><rect class="l" x="202" y="5" width="27" height="24" rx="7"/><text class="j" x="212" y="21">»</text><a xlink:href="#nothing"><rect class="r" x="239" y="5" width="68" height="24"/><text class="j" x="249" y="21">nothing</text></a></svg>