<!--
error0 = ( 'error' '(' string ')' '»' nothing )
-->
<svg version="1.1" xmlns:xlink="http://www.w3.org/1999/xlink" xmlns="http://www.w3.org/2000/svg" width="313" height="35" viewbox="0 0 313 35"><defs><style type="text/css">.c{fill: none; stroke: #888888; stroke-width: 2px;}.j{fill:#000000;font-family:Verdana,Sans-serif;font-size:12px;}.l{fill:#90d9ff;stroke:#222222;}.r{fill:#d3f0ff;stroke:#222222;}</style></defs><path class="c" d="M0 18h5m51 0h10m25 0h10m56 0h10m25 0h10m28 0h10m68 0h5"/><rect class="l" x="5" y="5" width="51" height="25" rx="7"/><text class="j" x="15" y="22">error</text><rect class="l" x="66" y="5" width="25" height="25" rx="7"/><text class="j" x="76" y="22">(</text><a xlink:href="#string"><rect class="r" x="101" y="5" width="56" height="25"/><text class="j" x="111" y="22">string</text></a><rect class="l" x="167" y="5" width="25" height="25" rx="7"/><text class="j" x="177" y="22">)</text><rect class="l" x="202" y="5" width="28" height="25" rx="7"/><text class="j" x="212" y="22">»</text><a xlink:href="#nothing"><rect class="r" x="240" y="5" width="68" height="25"/><text class="j" x="250" y="22">nothing</text></a></svg>