<svg version="1.1" xmlns:xlink="http://www.w3.org/1999/xlink" xmlns="http://www.w3.org/2000/svg" width="662" height="63" viewbox="0 0 662 63"><defs><style type="text/css">.c{fill: none; stroke: #888888; stroke-width: 2px;}.j{fill:#000000;font-family:Dialog,Sans-serif;font-size:12px;}.l{fill:#90d9ff;stroke:#222222;}.r{fill:#d3f0ff;stroke:#222222;}</style></defs><path class="c" d="M0 17h5m25 0h10m59 0h10m25 0h10m63 0h30m40 0h39m-94 0q5 0 5 5v19q0 5 5 5h5m59 0h5q5 0 5-5v-19q0-5 5-5m5 0h10m25 0h10m143 0h10m25 0h10m27 0h10m71 0h5"/><rect class="l" x="5" y="5" width="25" height="24" rx="7"/><text class="j" x="15" y="21">(</text><rect class="l" x="40" y="5" width="59" height="24" rx="7"/><text class="j" x="50" y="21">every?</text><rect class="l" x="109" y="5" width="25" height="24" rx="7"/><text class="j" x="119" y="21">[</text><a xlink:href="#symbol"><rect class="r" x="144" y="5" width="63" height="24"/><text class="j" x="154" y="21">symbol</text></a><a xlink:href="#set"><rect class="r" x="237" y="5" width="40" height="24"/><text class="j" x="247" y="21">set</text></a><a xlink:href="#vector"><rect class="r" x="237" y="34" width="59" height="24"/><text class="j" x="247" y="50">vector</text></a><rect class="l" x="326" y="5" width="25" height="24" rx="7"/><text class="j" x="336" y="21">]</text><a xlink:href="#boolean-expression"><rect class="r" x="361" y="5" width="143" height="24"/><text class="j" x="371" y="21">boolean-expression</text></a><rect class="l" x="514" y="5" width="25" height="24" rx="7"/><text class="j" x="524" y="21">)</text><rect class="l" x="549" y="5" width="27" height="24" rx="7"/><text class="j" x="559" y="21">»</text><a xlink:href="#boolean"><rect class="r" x="586" y="5" width="71" height="24"/><text class="j" x="596" y="21">boolean</text></a></svg>