<svg version="1.1" xmlns:xlink="http://www.w3.org/1999/xlink" xmlns="http://www.w3.org/2000/svg" width="669" height="65" viewbox="0 0 669 65"><defs><style type="text/css">.c{fill: none; stroke: #888888; stroke-width: 2px;}.j{fill:#000000;font-family:Verdana,Sans-serif;font-size:12px;}.l{fill:#90d9ff;stroke:#222222;}.r{fill:#d3f0ff;stroke:#222222;}</style></defs><path class="c" d="M0 18h5m25 0h10m62 0h10m25 0h10m64 0h30m40 0h39m-94 0q5 0 5 5v20q0 5 5 5h5m59 0h5q5 0 5-5v-20q0-5 5-5m5 0h10m25 0h10m145 0h10m25 0h10m28 0h10m71 0h5"/><rect class="l" x="5" y="5" width="25" height="25" rx="7"/><text class="j" x="15" y="22">(</text><rect class="l" x="40" y="5" width="62" height="25" rx="7"/><text class="j" x="50" y="22">every?</text><rect class="l" x="112" y="5" width="25" height="25" rx="7"/><text class="j" x="122" y="22">[</text><a xlink:href="#symbol"><rect class="r" x="147" y="5" width="64" height="25"/><text class="j" x="157" y="22">symbol</text></a><a xlink:href="#set"><rect class="r" x="241" y="5" width="40" height="25"/><text class="j" x="251" y="22">set</text></a><a xlink:href="#vector"><rect class="r" x="241" y="35" width="59" height="25"/><text class="j" x="251" y="52">vector</text></a><rect class="l" x="330" y="5" width="25" height="25" rx="7"/><text class="j" x="340" y="22">]</text><a xlink:href="#boolean-expression"><rect class="r" x="365" y="5" width="145" height="25"/><text class="j" x="375" y="22">boolean-expression</text></a><rect class="l" x="520" y="5" width="25" height="25" rx="7"/><text class="j" x="530" y="22">)</text><rect class="l" x="555" y="5" width="28" height="25" rx="7"/><text class="j" x="565" y="22">»</text><a xlink:href="#boolean"><rect class="r" x="593" y="5" width="71" height="25"/><text class="j" x="603" y="22">boolean</text></a></svg>