<svg version="1.1" xmlns:xlink="http://www.w3.org/1999/xlink" xmlns="http://www.w3.org/2000/svg" width="618" height="65" viewbox="0 0 618 65"><defs><style type="text/css">.c{fill: none; stroke: #888888; stroke-width: 2px;}.j{fill:#000000;font-family:Verdana,Sans-serif;font-size:12px;}.l{fill:#90d9ff;stroke:#222222;}.r{fill:#d3f0ff;stroke:#222222;}</style></defs><path class="c" d="M0 18h5m60 0h10m25 0h10m62 0h10m31 0h30m38 0h39m-92 0q5 0 5 5v20q0 5 5 5h5m57 0h5q5 0 5-5v-20q0-5 5-5m5 0h10m25 0h10m134 0h10m28 0h10m66 0h5"/><rect class="l" x="5" y="5" width="60" height="25" rx="7"/><text class="j" x="15" y="22">every?</text><rect class="l" x="75" y="5" width="25" height="25" rx="7"/><text class="j" x="85" y="22">(</text><a xlink:href="#symbol"><rect class="r" x="110" y="5" width="62" height="25"/><text class="j" x="120" y="22">symbol</text></a><rect class="l" x="182" y="5" width="31" height="25" rx="7"/><text class="j" x="192" y="22">in</text><a xlink:href="#set"><rect class="r" x="243" y="5" width="38" height="25"/><text class="j" x="253" y="22">set</text></a><a xlink:href="#vector"><rect class="r" x="243" y="35" width="57" height="25"/><text class="j" x="253" y="52">vector</text></a><rect class="l" x="330" y="5" width="25" height="25" rx="7"/><text class="j" x="340" y="22">)</text><a xlink:href="#boolean-expression"><rect class="r" x="365" y="5" width="134" height="25"/><text class="j" x="375" y="22">boolean-expression</text></a><rect class="l" x="509" y="5" width="28" height="25" rx="7"/><text class="j" x="519" y="22">»</text><a xlink:href="#boolean"><rect class="r" x="547" y="5" width="66" height="25"/><text class="j" x="557" y="22">boolean</text></a></svg>