<svg version="1.1" xmlns:xlink="http://www.w3.org/1999/xlink" xmlns="http://www.w3.org/2000/svg" width="423" height="34" viewbox="0 0 423 34"><defs><style type="text/css">.c{fill: none; stroke: #888888; stroke-width: 3pt;}.j{fill:#000000;font-family:Dialog,Sans-serif;font-size:12px;}.l{fill:#90d9ff;stroke:#222222;}.r{fill:#d3f0ff;stroke:#222222;}</style></defs><path class="c" d="M0 21h5m47 0h10m25 0h10m65 0h10m24 0h10m65 0h10m25 0h10m27 0h10m65 0h5"/><rect class="l" x="5" y="5" width="47" height="24" rx="7"/><text class="j" x="15" y="21">expt</text><rect class="l" x="62" y="5" width="25" height="24" rx="7"/><text class="j" x="72" y="21">(</text><a xlink:href="#integer"><rect class="r" x="97" y="5" width="65" height="24"/><text class="j" x="107" y="21">integer</text></a><rect class="l" x="172" y="5" width="24" height="24" rx="7"/><text class="j" x="182" y="21">,</text><a xlink:href="#integer"><rect class="r" x="206" y="5" width="65" height="24"/><text class="j" x="216" y="21">integer</text></a><rect class="l" x="281" y="5" width="25" height="24" rx="7"/><text class="j" x="291" y="21">)</text><rect class="l" x="316" y="5" width="27" height="24" rx="7"/><text class="j" x="326" y="21">»</text><a xlink:href="#integer"><rect class="r" x="353" y="5" width="65" height="24"/><text class="j" x="363" y="21">integer</text></a></svg>