<svg version="1.1" xmlns:xlink="http://www.w3.org/1999/xlink" xmlns="http://www.w3.org/2000/svg" width="414" height="35" viewbox="0 0 414 35"><defs><style type="text/css">.c{fill: none; stroke: #888888; stroke-width: 2px;}.j{fill:#000000;font-family:Verdana,Sans-serif;font-size:12px;}.l{fill:#90d9ff;stroke:#222222;}.r{fill:#d3f0ff;stroke:#222222;}</style></defs><path class="c" d="M0 18h5m46 0h10m25 0h10m62 0h10m24 0h10m62 0h10m25 0h10m28 0h10m62 0h5"/><rect class="l" x="5" y="5" width="46" height="25" rx="7"/><text class="j" x="15" y="22">expt</text><rect class="l" x="61" y="5" width="25" height="25" rx="7"/><text class="j" x="71" y="22">(</text><a xlink:href="#integer"><rect class="r" x="96" y="5" width="62" height="25"/><text class="j" x="106" y="22">integer</text></a><rect class="l" x="168" y="5" width="24" height="25" rx="7"/><text class="j" x="178" y="22">,</text><a xlink:href="#integer"><rect class="r" x="202" y="5" width="62" height="25"/><text class="j" x="212" y="22">integer</text></a><rect class="l" x="274" y="5" width="25" height="25" rx="7"/><text class="j" x="284" y="22">)</text><rect class="l" x="309" y="5" width="28" height="25" rx="7"/><text class="j" x="319" y="22">»</text><a xlink:href="#integer"><rect class="r" x="347" y="5" width="62" height="25"/><text class="j" x="357" y="22">integer</text></a></svg>