<svg version="1.1" xmlns:xlink="http://www.w3.org/1999/xlink" xmlns="http://www.w3.org/2000/svg" width="391" height="35" viewbox="0 0 391 35"><defs><style type="text/css">.c{fill: none; stroke: #888888; stroke-width: 2px;}.j{fill:#000000;font-family:Verdana,Sans-serif;font-size:12px;}.l{fill:#90d9ff;stroke:#222222;}.r{fill:#d3f0ff;stroke:#222222;}</style></defs><path class="c" d="M0 18h5m25 0h10m48 0h10m65 0h10m65 0h10m25 0h10m28 0h10m65 0h5"/><rect class="l" x="5" y="5" width="25" height="25" rx="7"/><text class="j" x="15" y="22">(</text><rect class="l" x="40" y="5" width="48" height="25" rx="7"/><text class="j" x="50" y="22">expt</text><a xlink:href="#integer"><rect class="r" x="98" y="5" width="65" height="25"/><text class="j" x="108" y="22">integer</text></a><a xlink:href="#integer"><rect class="r" x="173" y="5" width="65" height="25"/><text class="j" x="183" y="22">integer</text></a><rect class="l" x="248" y="5" width="25" height="25" rx="7"/><text class="j" x="258" y="22">)</text><rect class="l" x="283" y="5" width="28" height="25" rx="7"/><text class="j" x="293" y="22">»</text><a xlink:href="#integer"><rect class="r" x="321" y="5" width="65" height="25"/><text class="j" x="331" y="22">integer</text></a></svg>