<svg version="1.1" xmlns:xlink="http://www.w3.org/1999/xlink" xmlns="http://www.w3.org/2000/svg" width="616" height="34" viewbox="0 0 616 34"><defs><style type="text/css">.c{fill: none; stroke: #888888; stroke-width: 3pt;}.j{fill:#000000;font-family:Dialog,Sans-serif;font-size:12px;}.l{fill:#90d9ff;stroke:#222222;}.r{fill:#d3f0ff;stroke:#222222;}</style></defs><path class="c" d="M0 21h5m25 0h10m48 0h10m25 0h10m118 0h10m40 0h10m25 0h10m143 0h10m25 0h10m27 0h10m40 0h5"/><rect class="l" x="5" y="5" width="25" height="24" rx="7"/><text class="j" x="15" y="21">(</text><rect class="l" x="40" y="5" width="48" height="24" rx="7"/><text class="j" x="50" y="21">filter</text><rect class="l" x="98" y="5" width="25" height="24" rx="7"/><text class="j" x="108" y="21">[</text><a xlink:href="#symbol:element"><rect class="r" x="133" y="5" width="118" height="24"/><text class="j" x="143" y="21">symbol:element</text></a><a xlink:href="#set"><rect class="r" x="261" y="5" width="40" height="24"/><text class="j" x="271" y="21">set</text></a><rect class="l" x="311" y="5" width="25" height="24" rx="7"/><text class="j" x="321" y="21">]</text><a xlink:href="#boolean-expression"><rect class="r" x="346" y="5" width="143" height="24"/><text class="j" x="356" y="21">boolean-expression</text></a><rect class="l" x="499" y="5" width="25" height="24" rx="7"/><text class="j" x="509" y="21">)</text><rect class="l" x="534" y="5" width="27" height="24" rx="7"/><text class="j" x="544" y="21">»</text><a xlink:href="#set"><rect class="r" x="571" y="5" width="40" height="24"/><text class="j" x="581" y="21">set</text></a></svg>