<svg version="1.1" xmlns:xlink="http://www.w3.org/1999/xlink" xmlns="http://www.w3.org/2000/svg" width="621" height="35" viewbox="0 0 621 35"><defs><style type="text/css">.c{fill: none; stroke: #888888; stroke-width: 2px;}.j{fill:#000000;font-family:Verdana,Sans-serif;font-size:12px;}.l{fill:#90d9ff;stroke:#222222;}.r{fill:#d3f0ff;stroke:#222222;}</style></defs><path class="c" d="M0 18h5m25 0h10m48 0h10m25 0h10m120 0h10m40 0h10m25 0h10m145 0h10m25 0h10m28 0h10m40 0h5"/><rect class="l" x="5" y="5" width="25" height="25" rx="7"/><text class="j" x="15" y="22">(</text><rect class="l" x="40" y="5" width="48" height="25" rx="7"/><text class="j" x="50" y="22">filter</text><rect class="l" x="98" y="5" width="25" height="25" rx="7"/><text class="j" x="108" y="22">[</text><a xlink:href="#symbol:element"><rect class="r" x="133" y="5" width="120" height="25"/><text class="j" x="143" y="22">symbol:element</text></a><a xlink:href="#set"><rect class="r" x="263" y="5" width="40" height="25"/><text class="j" x="273" y="22">set</text></a><rect class="l" x="313" y="5" width="25" height="25" rx="7"/><text class="j" x="323" y="22">]</text><a xlink:href="#boolean-expression"><rect class="r" x="348" y="5" width="145" height="25"/><text class="j" x="358" y="22">boolean-expression</text></a><rect class="l" x="503" y="5" width="25" height="25" rx="7"/><text class="j" x="513" y="22">)</text><rect class="l" x="538" y="5" width="28" height="25" rx="7"/><text class="j" x="548" y="22">»</text><a xlink:href="#set"><rect class="r" x="576" y="5" width="40" height="25"/><text class="j" x="586" y="22">set</text></a></svg>