<svg version="1.1" xmlns:xlink="http://www.w3.org/1999/xlink" xmlns="http://www.w3.org/2000/svg" width="518" height="35" viewbox="0 0 518 35"><defs><style type="text/css">.c{fill: none; stroke: #888888; stroke-width: 2px;}.j{fill:#000000;font-family:Verdana,Sans-serif;font-size:12px;}.l{fill:#90d9ff;stroke:#222222;}.r{fill:#d3f0ff;stroke:#222222;}</style></defs><path class="c" d="M0 18h5m47 0h10m25 0h10m62 0h10m31 0h10m38 0h10m25 0h10m134 0h10m28 0h10m38 0h5"/><rect class="l" x="5" y="5" width="47" height="25" rx="7"/><text class="j" x="15" y="22">filter</text><rect class="l" x="62" y="5" width="25" height="25" rx="7"/><text class="j" x="72" y="22">(</text><a xlink:href="#symbol"><rect class="r" x="97" y="5" width="62" height="25"/><text class="j" x="107" y="22">symbol</text></a><rect class="l" x="169" y="5" width="31" height="25" rx="7"/><text class="j" x="179" y="22">in</text><a xlink:href="#set"><rect class="r" x="210" y="5" width="38" height="25"/><text class="j" x="220" y="22">set</text></a><rect class="l" x="258" y="5" width="25" height="25" rx="7"/><text class="j" x="268" y="22">)</text><a xlink:href="#boolean-expression"><rect class="r" x="293" y="5" width="134" height="25"/><text class="j" x="303" y="22">boolean-expression</text></a><rect class="l" x="437" y="5" width="28" height="25" rx="7"/><text class="j" x="447" y="22">»</text><a xlink:href="#set"><rect class="r" x="475" y="5" width="38" height="25"/><text class="j" x="485" y="22">set</text></a></svg>