<svg version="1.1" xmlns:xlink="http://www.w3.org/1999/xlink" xmlns="http://www.w3.org/2000/svg" width="601" height="35" viewbox="0 0 601 35"><defs><style type="text/css">.c{fill: none; stroke: #888888; stroke-width: 2px;}.j{fill:#000000;font-family:Verdana,Sans-serif;font-size:12px;}.l{fill:#90d9ff;stroke:#222222;}.r{fill:#d3f0ff;stroke:#222222;}</style></defs><path class="c" d="M0 18h5m25 0h10m47 0h10m25 0h10m116 0h10m38 0h10m25 0h10m134 0h10m25 0h10m28 0h10m38 0h5"/><rect class="l" x="5" y="5" width="25" height="25" rx="7"/><text class="j" x="15" y="22">(</text><rect class="l" x="40" y="5" width="47" height="25" rx="7"/><text class="j" x="50" y="22">filter</text><rect class="l" x="97" y="5" width="25" height="25" rx="7"/><text class="j" x="107" y="22">[</text><a xlink:href="#symbol:element"><rect class="r" x="132" y="5" width="116" height="25"/><text class="j" x="142" y="22">symbol:element</text></a><a xlink:href="#set"><rect class="r" x="258" y="5" width="38" height="25"/><text class="j" x="268" y="22">set</text></a><rect class="l" x="306" y="5" width="25" height="25" rx="7"/><text class="j" x="316" y="22">]</text><a xlink:href="#boolean-expression"><rect class="r" x="341" y="5" width="134" height="25"/><text class="j" x="351" y="22">boolean-expression</text></a><rect class="l" x="485" y="5" width="25" height="25" rx="7"/><text class="j" x="495" y="22">)</text><rect class="l" x="520" y="5" width="28" height="25" rx="7"/><text class="j" x="530" y="22">»</text><a xlink:href="#set"><rect class="r" x="558" y="5" width="38" height="25"/><text class="j" x="568" y="22">set</text></a></svg>