<svg version="1.1" xmlns:xlink="http://www.w3.org/1999/xlink" xmlns="http://www.w3.org/2000/svg" width="574" height="35" viewbox="0 0 574 35"><defs><style type="text/css">.c{fill:none;stroke:#222222;}.j{fill:#000000;font-family:Verdana,Sans-serif;font-size:12px;}.l{fill:#90d9ff;stroke:#222222;}.r{fill:#d3f0ff;stroke:#222222;}</style></defs><path class="c" d="M0 22h5m48 0h10m25 0h10m64 0h10m31 0h10m59 0h10m25 0h10m145 0h10m28 0h10m59 0h5"/><rect class="l" x="5" y="5" width="48" height="25" rx="7"/><text class="j" x="15" y="22">filter</text><rect class="l" x="63" y="5" width="25" height="25" rx="7"/><text class="j" x="73" y="22">(</text><a xlink:href="#symbol"><rect class="r" x="98" y="5" width="64" height="25"/><text class="j" x="108" y="22">symbol</text></a><rect class="l" x="172" y="5" width="31" height="25" rx="7"/><text class="j" x="182" y="22">in</text><a xlink:href="#vector"><rect class="r" x="213" y="5" width="59" height="25"/><text class="j" x="223" y="22">vector</text></a><rect class="l" x="282" y="5" width="25" height="25" rx="7"/><text class="j" x="292" y="22">)</text><a xlink:href="#boolean-expression"><rect class="r" x="317" y="5" width="145" height="25"/><text class="j" x="327" y="22">boolean-expression</text></a><rect class="l" x="472" y="5" width="28" height="25" rx="7"/><text class="j" x="482" y="22">»</text><a xlink:href="#vector"><rect class="r" x="510" y="5" width="59" height="25"/><text class="j" x="520" y="22">vector</text></a></svg>