<!--
filter0 = ( 'filter' '(' symbol 'in' set ')' boolean-expression '»' set )
-->
<svg version="1.1" xmlns:xlink="http://www.w3.org/1999/xlink" xmlns="http://www.w3.org/2000/svg" width="536" height="35" viewbox="0 0 536 35"><defs><style type="text/css">.c{fill: none; stroke: #888888; stroke-width: 2px;}.j{fill:#000000;font-family:Verdana,Sans-serif;font-size:12px;}.l{fill:#90d9ff;stroke:#222222;}.r{fill:#d3f0ff;stroke:#222222;}</style></defs><path class="c" d="M0 18h5m48 0h10m25 0h10m64 0h10m31 0h10m40 0h10m25 0h10m145 0h10m28 0h10m40 0h5"/><rect class="l" x="5" y="5" width="48" height="25" rx="7"/><text class="j" x="15" y="22">filter</text><rect class="l" x="63" y="5" width="25" height="25" rx="7"/><text class="j" x="73" y="22">(</text><a xlink:href="#symbol"><rect class="r" x="98" y="5" width="64" height="25"/><text class="j" x="108" y="22">symbol</text></a><rect class="l" x="172" y="5" width="31" height="25" rx="7"/><text class="j" x="182" y="22">in</text><a xlink:href="#set"><rect class="r" x="213" y="5" width="40" height="25"/><text class="j" x="223" y="22">set</text></a><rect class="l" x="263" y="5" width="25" height="25" rx="7"/><text class="j" x="273" y="22">)</text><a xlink:href="#boolean-expression"><rect class="r" x="298" y="5" width="145" height="25"/><text class="j" x="308" y="22">boolean-expression</text></a><rect class="l" x="453" y="5" width="28" height="25" rx="7"/><text class="j" x="463" y="22">»</text><a xlink:href="#set"><rect class="r" x="491" y="5" width="40" height="25"/><text class="j" x="501" y="22">set</text></a></svg>