<svg version="1.1" xmlns:xlink="http://www.w3.org/1999/xlink" xmlns="http://www.w3.org/2000/svg" width="532" height="34" viewbox="0 0 532 34"><defs><style type="text/css">.c{fill: none; stroke: #888888; stroke-width: 2px;}.j{fill:#000000;font-family:Dialog,Sans-serif;font-size:12px;}.l{fill:#90d9ff;stroke:#222222;}.r{fill:#d3f0ff;stroke:#222222;}</style></defs><path class="c" d="M0 17h5m48 0h10m25 0h10m63 0h10m31 0h10m40 0h10m25 0h10m143 0h10m27 0h10m40 0h5"/><rect class="l" x="5" y="5" width="48" height="24" rx="7"/><text class="j" x="15" y="21">filter</text><rect class="l" x="63" y="5" width="25" height="24" rx="7"/><text class="j" x="73" y="21">(</text><a xlink:href="#symbol"><rect class="r" x="98" y="5" width="63" height="24"/><text class="j" x="108" y="21">symbol</text></a><rect class="l" x="171" y="5" width="31" height="24" rx="7"/><text class="j" x="181" y="21">in</text><a xlink:href="#set"><rect class="r" x="212" y="5" width="40" height="24"/><text class="j" x="222" y="21">set</text></a><rect class="l" x="262" y="5" width="25" height="24" rx="7"/><text class="j" x="272" y="21">)</text><a xlink:href="#boolean-expression"><rect class="r" x="297" y="5" width="143" height="24"/><text class="j" x="307" y="21">boolean-expression</text></a><rect class="l" x="450" y="5" width="27" height="24" rx="7"/><text class="j" x="460" y="21">»</text><a xlink:href="#set"><rect class="r" x="487" y="5" width="40" height="24"/><text class="j" x="497" y="21">set</text></a></svg>