<svg version="1.1" xmlns:xlink="http://www.w3.org/1999/xlink" xmlns="http://www.w3.org/2000/svg" width="639" height="35" viewbox="0 0 639 35"><defs><style type="text/css">.c{fill: none; stroke: #888888; stroke-width: 2px;}.j{fill:#000000;font-family:Verdana,Sans-serif;font-size:12px;}.l{fill:#90d9ff;stroke:#222222;}.r{fill:#d3f0ff;stroke:#222222;}</style></defs><path class="c" d="M0 18h5m25 0h10m47 0h10m25 0h10m116 0h10m57 0h10m25 0h10m134 0h10m25 0h10m28 0h10m57 0h5"/><rect class="l" x="5" y="5" width="25" height="25" rx="7"/><text class="j" x="15" y="22">(</text><rect class="l" x="40" y="5" width="47" height="25" rx="7"/><text class="j" x="50" y="22">filter</text><rect class="l" x="97" y="5" width="25" height="25" rx="7"/><text class="j" x="107" y="22">[</text><a xlink:href="#symbol:element"><rect class="r" x="132" y="5" width="116" height="25"/><text class="j" x="142" y="22">symbol:element</text></a><a xlink:href="#vector"><rect class="r" x="258" y="5" width="57" height="25"/><text class="j" x="268" y="22">vector</text></a><rect class="l" x="325" y="5" width="25" height="25" rx="7"/><text class="j" x="335" y="22">]</text><a xlink:href="#boolean-expression"><rect class="r" x="360" y="5" width="134" height="25"/><text class="j" x="370" y="22">boolean-expression</text></a><rect class="l" x="504" y="5" width="25" height="25" rx="7"/><text class="j" x="514" y="22">)</text><rect class="l" x="539" y="5" width="28" height="25" rx="7"/><text class="j" x="549" y="22">»</text><a xlink:href="#vector"><rect class="r" x="577" y="5" width="57" height="25"/><text class="j" x="587" y="22">vector</text></a></svg>