<!--
first1 = '(''first' set')' '»' value;
-->
<svg version="1.1" xmlns:xlink="http://www.w3.org/1999/xlink" xmlns="http://www.w3.org/2000/svg" width="276" height="35" viewbox="0 0 276 35"><defs><style type="text/css">.c{fill: none; stroke: #888888; stroke-width: 2px;}.j{fill:#000000;font-family:Verdana,Sans-serif;font-size:12px;}.l{fill:#90d9ff;stroke:#222222;}.r{fill:#d3f0ff;stroke:#222222;}</style></defs><path class="c" d="M0 18h5m25 0h10m44 0h10m40 0h10m25 0h10m28 0h10m54 0h5"/><rect class="l" x="5" y="5" width="25" height="25" rx="7"/><text class="j" x="15" y="22">(</text><rect class="l" x="40" y="5" width="44" height="25" rx="7"/><text class="j" x="50" y="22">first</text><a xlink:href="#set"><rect class="r" x="94" y="5" width="40" height="25"/><text class="j" x="104" y="22">set</text></a><rect class="l" x="144" y="5" width="25" height="25" rx="7"/><text class="j" x="154" y="22">)</text><rect class="l" x="179" y="5" width="28" height="25" rx="7"/><text class="j" x="189" y="22">»</text><a xlink:href="#value"><rect class="r" x="217" y="5" width="54" height="25"/><text class="j" x="227" y="22">value</text></a></svg>