<svg version="1.1" xmlns:xlink="http://www.w3.org/1999/xlink" xmlns="http://www.w3.org/2000/svg" width="293" height="34" viewbox="0 0 293 34"><defs><style type="text/css">.c{fill: none; stroke: #888888; stroke-width: 2px;}.j{fill:#000000;font-family:Dialog,Sans-serif;font-size:12px;}.l{fill:#90d9ff;stroke:#222222;}.r{fill:#d3f0ff;stroke:#222222;}</style></defs><path class="c" d="M0 17h5m25 0h10m44 0h10m59 0h10m25 0h10m27 0h10m53 0h5"/><rect class="l" x="5" y="5" width="25" height="24" rx="7"/><text class="j" x="15" y="21">(</text><rect class="l" x="40" y="5" width="44" height="24" rx="7"/><text class="j" x="50" y="21">first</text><a xlink:href="#vector"><rect class="r" x="94" y="5" width="59" height="24"/><text class="j" x="104" y="21">vector</text></a><rect class="l" x="163" y="5" width="25" height="24" rx="7"/><text class="j" x="173" y="21">)</text><rect class="l" x="198" y="5" width="27" height="24" rx="7"/><text class="j" x="208" y="21">»</text><a xlink:href="#value"><rect class="r" x="235" y="5" width="53" height="24"/><text class="j" x="245" y="21">value</text></a></svg>