<svg version="1.1" xmlns:xlink="http://www.w3.org/1999/xlink" xmlns="http://www.w3.org/2000/svg" width="295" height="35" viewbox="0 0 295 35"><defs><style type="text/css">.c{fill:none;stroke:#222222;}.j{fill:#000000;font-family:Verdana,Sans-serif;font-size:12px;}.l{fill:#90d9ff;stroke:#222222;}.r{fill:#d3f0ff;stroke:#222222;}</style></defs><path class="c" d="M0 22h5m25 0h10m44 0h10m59 0h10m25 0h10m28 0h10m54 0h5"/><rect class="l" x="5" y="5" width="25" height="25" rx="7"/><text class="j" x="15" y="22">(</text><rect class="l" x="40" y="5" width="44" height="25" rx="7"/><text class="j" x="50" y="22">first</text><a xlink:href="#vector"><rect class="r" x="94" y="5" width="59" height="25"/><text class="j" x="104" y="22">vector</text></a><rect class="l" x="163" y="5" width="25" height="25" rx="7"/><text class="j" x="173" y="22">)</text><rect class="l" x="198" y="5" width="28" height="25" rx="7"/><text class="j" x="208" y="22">»</text><a xlink:href="#value"><rect class="r" x="236" y="5" width="54" height="25"/><text class="j" x="246" y="22">value</text></a></svg>