<svg version="1.1" xmlns:xlink="http://www.w3.org/1999/xlink" xmlns="http://www.w3.org/2000/svg" width="463" height="34" viewbox="0 0 463 34"><defs><style type="text/css">.c{fill: none; stroke: #888888; stroke-width: 2px;}.j{fill:#000000;font-family:Dialog,Sans-serif;font-size:12px;}.l{fill:#90d9ff;stroke:#222222;}.r{fill:#d3f0ff;stroke:#222222;}</style></defs><path class="c" d="M0 17h5m25 0h10m41 0h10m74 0h10m159 0h10m25 0h10m27 0h10m42 0h5"/><rect class="l" x="5" y="5" width="25" height="24" rx="7"/><text class="j" x="15" y="21">(</text><rect class="l" x="40" y="5" width="41" height="24" rx="7"/><text class="j" x="50" y="21">get</text><a xlink:href="#instance"><rect class="r" x="91" y="5" width="74" height="24"/><text class="j" x="101" y="21">instance</text></a><a xlink:href="#keyword:instance-field"><rect class="r" x="175" y="5" width="159" height="24"/><text class="j" x="185" y="21">keyword:instance-field</text></a><rect class="l" x="344" y="5" width="25" height="24" rx="7"/><text class="j" x="354" y="21">)</text><rect class="l" x="379" y="5" width="27" height="24" rx="7"/><text class="j" x="389" y="21">»</text><a xlink:href="#any"><rect class="r" x="416" y="5" width="42" height="24"/><text class="j" x="426" y="21">any</text></a></svg>