<svg version="1.1" xmlns:xlink="http://www.w3.org/1999/xlink" xmlns="http://www.w3.org/2000/svg" width="960" height="93" viewbox="0 0 960 93"><defs><style type="text/css">.c{fill: none; stroke: #888888; stroke-width: 3pt;}.j{fill:#000000;font-family:Dialog,Sans-serif;font-size:12px;}.l{fill:#90d9ff;stroke:#222222;}.r{fill:#d3f0ff;stroke:#222222;}</style></defs><path class="c" d="M0 36h5m25 0h10m56 0h30m117 0h20m-152 0q5 0 5 5v19q0 5 5 5h5m102 0h20q5 0 5-5v-19q0-5 5-5m5 0h10m25 0h30m65 0h114m-194 0q5 0 5 5v19q0 5 5 5h5m159 0h5q5 0 5-5v-19q0-5 5-5m5 0h50m-5 0q-5 0-5-5v-16q0-5 5-5h209q5 0 5 5v16q0 5-5 5m-204 0h20m65 0h114m-194 0q5 0 5 5v19q0 5 5 5h5m159 0h5q5 0 5-5v-19q0-5 5-5m5 0h40m-274 0q5 0 5 5v37q0 5 5 5h249q5 0 5-5v-37q0-5 5-5m5 0h10m25 0h10m25 0h10m27 0h10m42 0h5"/><rect class="l" x="5" y="20" width="25" height="24" rx="7"/><text class="j" x="15" y="36">(</text><rect class="l" x="40" y="20" width="56" height="24" rx="7"/><text class="j" x="50" y="36">get-in</text><a xlink:href="#instance:target"><rect class="r" x="126" y="20" width="117" height="24"/><text class="j" x="136" y="36">instance:target</text></a><a xlink:href="#vector:target"><rect class="r" x="126" y="49" width="102" height="24"/><text class="j" x="136" y="65">vector:target</text></a><rect class="l" x="273" y="20" width="25" height="24" rx="7"/><text class="j" x="283" y="36">[</text><a xlink:href="#integer"><rect class="r" x="328" y="20" width="65" height="24"/><text class="j" x="338" y="36">integer</text></a><a xlink:href="#keyword:instance-field"><rect class="r" x="328" y="49" width="159" height="24"/><text class="j" x="338" y="65">keyword:instance-field</text></a><a xlink:href="#integer"><rect class="r" x="577" y="20" width="65" height="24"/><text class="j" x="587" y="36">integer</text></a><a xlink:href="#keyword:instance-field"><rect class="r" x="577" y="49" width="159" height="24"/><text class="j" x="587" y="65">keyword:instance-field</text></a><rect class="l" x="806" y="20" width="25" height="24" rx="7"/><text class="j" x="816" y="36">]</text><rect class="l" x="841" y="20" width="25" height="24" rx="7"/><text class="j" x="851" y="36">)</text><rect class="l" x="876" y="20" width="27" height="24" rx="7"/><text class="j" x="886" y="36">»</text><a xlink:href="#any"><rect class="r" x="913" y="20" width="42" height="24"/><text class="j" x="923" y="36">any</text></a></svg>