<svg version="1.1" xmlns:xlink="http://www.w3.org/1999/xlink" xmlns="http://www.w3.org/2000/svg" width="468" height="35" viewbox="0 0 468 35"><defs><style type="text/css">.c{fill: none; stroke: #888888; stroke-width: 2px;}.j{fill:#000000;font-family:Verdana,Sans-serif;font-size:12px;}.l{fill:#90d9ff;stroke:#222222;}.r{fill:#d3f0ff;stroke:#222222;}</style></defs><path class="c" d="M0 18h5m25 0h10m41 0h10m73 0h10m163 0h10m25 0h10m28 0h10m43 0h5"/><rect class="l" x="5" y="5" width="25" height="25" rx="7"/><text class="j" x="15" y="22">(</text><rect class="l" x="40" y="5" width="41" height="25" rx="7"/><text class="j" x="50" y="22">get</text><a xlink:href="#instance"><rect class="r" x="91" y="5" width="73" height="25"/><text class="j" x="101" y="22">instance</text></a><a xlink:href="#keyword:instance-field"><rect class="r" x="174" y="5" width="163" height="25"/><text class="j" x="184" y="22">keyword:instance-field</text></a><rect class="l" x="347" y="5" width="25" height="25" rx="7"/><text class="j" x="357" y="22">)</text><rect class="l" x="382" y="5" width="28" height="25" rx="7"/><text class="j" x="392" y="22">»</text><a xlink:href="#any"><rect class="r" x="420" y="5" width="43" height="25"/><text class="j" x="430" y="22">any</text></a></svg>