<svg version="1.1" xmlns:xlink="http://www.w3.org/1999/xlink" xmlns="http://www.w3.org/2000/svg" width="358" height="35" viewbox="0 0 358 35"><defs><style type="text/css">.c{fill: none; stroke: #888888; stroke-width: 2px;}.j{fill:#000000;font-family:Verdana,Sans-serif;font-size:12px;}.l{fill:#90d9ff;stroke:#222222;}.r{fill:#d3f0ff;stroke:#222222;}</style></defs><path class="c" d="M0 18h5m25 0h10m39 0h10m57 0h10m62 0h10m25 0h10m28 0h10m52 0h5"/><rect class="l" x="5" y="5" width="25" height="25" rx="7"/><text class="j" x="15" y="22">(</text><rect class="l" x="40" y="5" width="39" height="25" rx="7"/><text class="j" x="50" y="22">get</text><a xlink:href="#vector"><rect class="r" x="89" y="5" width="57" height="25"/><text class="j" x="99" y="22">vector</text></a><a xlink:href="#integer"><rect class="r" x="156" y="5" width="62" height="25"/><text class="j" x="166" y="22">integer</text></a><rect class="l" x="228" y="5" width="25" height="25" rx="7"/><text class="j" x="238" y="22">)</text><rect class="l" x="263" y="5" width="28" height="25" rx="7"/><text class="j" x="273" y="22">»</text><a xlink:href="#value"><rect class="r" x="301" y="5" width="52" height="25"/><text class="j" x="311" y="22">value</text></a></svg>