<!--
get-in0 = '(''get-in' (instance:target | vector:target) '[' (integer | keyword:instance-field) {(integer | keyword:instance-field)} ']'')' '»' any;
-->
<svg version="1.1" xmlns:xlink="http://www.w3.org/1999/xlink" xmlns="http://www.w3.org/2000/svg" width="971" height="95" viewbox="0 0 971 95"><defs><style type="text/css">.c{fill: none; stroke: #888888; stroke-width: 2px;}.j{fill:#000000;font-family:Verdana,Sans-serif;font-size:12px;}.l{fill:#90d9ff;stroke:#222222;}.r{fill:#d3f0ff;stroke:#222222;}</style></defs><path class="c" d="M0 33h5m25 0h10m57 0h30m117 0h20m-152 0q5 0 5 5v20q0 5 5 5h5m103 0h19q5 0 5-5v-20q0-5 5-5m5 0h10m25 0h30m65 0h118m-198 0q5 0 5 5v20q0 5 5 5h5m163 0h5q5 0 5-5v-20q0-5 5-5m5 0h50m-5 0q-5 0-5-5v-17q0-5 5-5h213q5 0 5 5v17q0 5-5 5m-208 0h20m65 0h118m-198 0q5 0 5 5v20q0 5 5 5h5m163 0h5q5 0 5-5v-20q0-5 5-5m5 0h40m-278 0q5 0 5 5v38q0 5 5 5h253q5 0 5-5v-38q0-5 5-5m5 0h10m25 0h10m25 0h10m28 0h10m43 0h5"/><rect class="l" x="5" y="20" width="25" height="25" rx="7"/><text class="j" x="15" y="37">(</text><rect class="l" x="40" y="20" width="57" height="25" rx="7"/><text class="j" x="50" y="37">get-in</text><a xlink:href="#instance:target"><rect class="r" x="127" y="20" width="117" height="25"/><text class="j" x="137" y="37">instance:target</text></a><a xlink:href="#vector:target"><rect class="r" x="127" y="50" width="103" height="25"/><text class="j" x="137" y="67">vector:target</text></a><rect class="l" x="274" y="20" width="25" height="25" rx="7"/><text class="j" x="284" y="37">[</text><a xlink:href="#integer"><rect class="r" x="329" y="20" width="65" height="25"/><text class="j" x="339" y="37">integer</text></a><a xlink:href="#keyword:instance-field"><rect class="r" x="329" y="50" width="163" height="25"/><text class="j" x="339" y="67">keyword:instance-field</text></a><a xlink:href="#integer"><rect class="r" x="582" y="20" width="65" height="25"/><text class="j" x="592" y="37">integer</text></a><a xlink:href="#keyword:instance-field"><rect class="r" x="582" y="50" width="163" height="25"/><text class="j" x="592" y="67">keyword:instance-field</text></a><rect class="l" x="815" y="20" width="25" height="25" rx="7"/><text class="j" x="825" y="37">]</text><rect class="l" x="850" y="20" width="25" height="25" rx="7"/><text class="j" x="860" y="37">)</text><rect class="l" x="885" y="20" width="28" height="25" rx="7"/><text class="j" x="895" y="37">»</text><a xlink:href="#any"><rect class="r" x="923" y="20" width="43" height="25"/><text class="j" x="933" y="37">any</text></a></svg>