<svg version="1.1" xmlns:xlink="http://www.w3.org/1999/xlink" xmlns="http://www.w3.org/2000/svg" width="944" height="95" viewbox="0 0 944 95"><defs><style type="text/css">.c{fill: none; stroke: #888888; stroke-width: 2px;}.j{fill:#000000;font-family:Verdana,Sans-serif;font-size:12px;}.l{fill:#90d9ff;stroke:#222222;}.r{fill:#d3f0ff;stroke:#222222;}</style></defs><path class="c" d="M0 33h5m25 0h10m55 0h30m111 0h20m-146 0q5 0 5 5v20q0 5 5 5h5m98 0h18q5 0 5-5v-20q0-5 5-5m5 0h10m25 0h30m62 0h112m-189 0q5 0 5 5v20q0 5 5 5h5m154 0h5q5 0 5-5v-20q0-5 5-5m5 0h50m-5 0q-5 0-5-5v-17q0-5 5-5h204q5 0 5 5v17q0 5-5 5m-199 0h20m62 0h112m-189 0q5 0 5 5v20q0 5 5 5h5m154 0h5q5 0 5-5v-20q0-5 5-5m5 0h40m-269 0q5 0 5 5v38q0 5 5 5h244q5 0 5-5v-38q0-5 5-5m5 0h10m25 0h10m25 0h10m28 0h10m42 0h5"/><rect class="l" x="5" y="20" width="25" height="25" rx="7"/><text class="j" x="15" y="37">(</text><rect class="l" x="40" y="20" width="55" height="25" rx="7"/><text class="j" x="50" y="37">get-in</text><a xlink:href="#instance:target"><rect class="r" x="125" y="20" width="111" height="25"/><text class="j" x="135" y="37">instance:target</text></a><a xlink:href="#vector:target"><rect class="r" x="125" y="50" width="98" height="25"/><text class="j" x="135" y="67">vector:target</text></a><rect class="l" x="266" y="20" width="25" height="25" rx="7"/><text class="j" x="276" y="37">[</text><a xlink:href="#integer"><rect class="r" x="321" y="20" width="62" height="25"/><text class="j" x="331" y="37">integer</text></a><a xlink:href="#keyword:instance-field"><rect class="r" x="321" y="50" width="154" height="25"/><text class="j" x="331" y="67">keyword:instance-field</text></a><a xlink:href="#integer"><rect class="r" x="565" y="20" width="62" height="25"/><text class="j" x="575" y="37">integer</text></a><a xlink:href="#keyword:instance-field"><rect class="r" x="565" y="50" width="154" height="25"/><text class="j" x="575" y="67">keyword:instance-field</text></a><rect class="l" x="789" y="20" width="25" height="25" rx="7"/><text class="j" x="799" y="37">]</text><rect class="l" x="824" y="20" width="25" height="25" rx="7"/><text class="j" x="834" y="37">)</text><rect class="l" x="859" y="20" width="28" height="25" rx="7"/><text class="j" x="869" y="37">»</text><a xlink:href="#any"><rect class="r" x="897" y="20" width="42" height="25"/><text class="j" x="907" y="37">any</text></a></svg>