<svg version="1.1" xmlns:xlink="http://www.w3.org/1999/xlink" xmlns="http://www.w3.org/2000/svg" width="365" height="34" viewbox="0 0 365 34"><defs><style type="text/css">.c{fill: none; stroke: #888888; stroke-width: 2px;}.j{fill:#000000;font-family:Dialog,Sans-serif;font-size:12px;}.l{fill:#90d9ff;stroke:#222222;}.r{fill:#d3f0ff;stroke:#222222;}</style></defs><path class="c" d="M0 17h5m25 0h10m41 0h10m59 0h10m65 0h10m25 0h10m27 0h10m53 0h5"/><rect class="l" x="5" y="5" width="25" height="24" rx="7"/><text class="j" x="15" y="21">(</text><rect class="l" x="40" y="5" width="41" height="24" rx="7"/><text class="j" x="50" y="21">get</text><a xlink:href="#vector"><rect class="r" x="91" y="5" width="59" height="24"/><text class="j" x="101" y="21">vector</text></a><a xlink:href="#integer"><rect class="r" x="160" y="5" width="65" height="24"/><text class="j" x="170" y="21">integer</text></a><rect class="l" x="235" y="5" width="25" height="24" rx="7"/><text class="j" x="245" y="21">)</text><rect class="l" x="270" y="5" width="27" height="24" rx="7"/><text class="j" x="280" y="21">»</text><a xlink:href="#value"><rect class="r" x="307" y="5" width="53" height="24"/><text class="j" x="317" y="21">value</text></a></svg>