<!--
if0 = '(''if' boolean any-expression any-expression')' '»' any;
-->
<svg version="1.1" xmlns:xlink="http://www.w3.org/1999/xlink" xmlns="http://www.w3.org/2000/svg" width="533" height="35" viewbox="0 0 533 35"><defs><style type="text/css">.c{fill: none; stroke: #888888; stroke-width: 2px;}.j{fill:#000000;font-family:Verdana,Sans-serif;font-size:12px;}.l{fill:#90d9ff;stroke:#222222;}.r{fill:#d3f0ff;stroke:#222222;}</style></defs><path class="c" d="M0 18h5m25 0h10m27 0h10m71 0h10m117 0h10m117 0h10m25 0h10m28 0h10m43 0h5"/><rect class="l" x="5" y="5" width="25" height="25" rx="7"/><text class="j" x="15" y="22">(</text><rect class="l" x="40" y="5" width="27" height="25" rx="7"/><text class="j" x="50" y="22">if</text><a xlink:href="#boolean"><rect class="r" x="77" y="5" width="71" height="25"/><text class="j" x="87" y="22">boolean</text></a><a xlink:href="#any-expression"><rect class="r" x="158" y="5" width="117" height="25"/><text class="j" x="168" y="22">any-expression</text></a><a xlink:href="#any-expression"><rect class="r" x="285" y="5" width="117" height="25"/><text class="j" x="295" y="22">any-expression</text></a><rect class="l" x="412" y="5" width="25" height="25" rx="7"/><text class="j" x="422" y="22">)</text><rect class="l" x="447" y="5" width="28" height="25" rx="7"/><text class="j" x="457" y="22">»</text><a xlink:href="#any"><rect class="r" x="485" y="5" width="43" height="25"/><text class="j" x="495" y="22">any</text></a></svg>