<svg version="1.1" xmlns:xlink="http://www.w3.org/1999/xlink" xmlns="http://www.w3.org/2000/svg" width="589" height="35" viewbox="0 0 589 35"><defs><style type="text/css">.c{fill:none;stroke:#222222;}.j{fill:#000000;font-family:Verdana,Sans-serif;font-size:12px;}.l{fill:#90d9ff;stroke:#222222;}.r{fill:#d3f0ff;stroke:#222222;}</style></defs><path class="c" d="M0 22h5m27 0h10m25 0h10m71 0h10m25 0h10m117 0h10m46 0h10m117 0h10m28 0h10m43 0h5"/><rect class="l" x="5" y="5" width="27" height="25" rx="7"/><text class="j" x="15" y="22">if</text><rect class="l" x="42" y="5" width="25" height="25" rx="7"/><text class="j" x="52" y="22">(</text><a xlink:href="#boolean"><rect class="r" x="77" y="5" width="71" height="25"/><text class="j" x="87" y="22">boolean</text></a><rect class="l" x="158" y="5" width="25" height="25" rx="7"/><text class="j" x="168" y="22">)</text><a xlink:href="#any-expression"><rect class="r" x="193" y="5" width="117" height="25"/><text class="j" x="203" y="22">any-expression</text></a><rect class="l" x="320" y="5" width="46" height="25" rx="7"/><text class="j" x="330" y="22">else</text><a xlink:href="#any-expression"><rect class="r" x="376" y="5" width="117" height="25"/><text class="j" x="386" y="22">any-expression</text></a><rect class="l" x="503" y="5" width="28" height="25" rx="7"/><text class="j" x="513" y="22">»</text><a xlink:href="#any"><rect class="r" x="541" y="5" width="43" height="25"/><text class="j" x="551" y="22">any</text></a></svg>