<svg version="1.1" xmlns:xlink="http://www.w3.org/1999/xlink" xmlns="http://www.w3.org/2000/svg" width="525" height="34" viewbox="0 0 525 34"><defs><style type="text/css">.c{fill: none; stroke: #888888; stroke-width: 2px;}.j{fill:#000000;font-family:Dialog,Sans-serif;font-size:12px;}.l{fill:#90d9ff;stroke:#222222;}.r{fill:#d3f0ff;stroke:#222222;}</style></defs><path class="c" d="M0 17h5m25 0h10m27 0h10m71 0h10m114 0h10m114 0h10m25 0h10m27 0h10m42 0h5"/><rect class="l" x="5" y="5" width="25" height="24" rx="7"/><text class="j" x="15" y="21">(</text><rect class="l" x="40" y="5" width="27" height="24" rx="7"/><text class="j" x="50" y="21">if</text><a xlink:href="#boolean"><rect class="r" x="77" y="5" width="71" height="24"/><text class="j" x="87" y="21">boolean</text></a><a xlink:href="#any-expression"><rect class="r" x="158" y="5" width="114" height="24"/><text class="j" x="168" y="21">any-expression</text></a><a xlink:href="#any-expression"><rect class="r" x="282" y="5" width="114" height="24"/><text class="j" x="292" y="21">any-expression</text></a><rect class="l" x="406" y="5" width="25" height="24" rx="7"/><text class="j" x="416" y="21">)</text><rect class="l" x="441" y="5" width="27" height="24" rx="7"/><text class="j" x="451" y="21">»</text><a xlink:href="#any"><rect class="r" x="478" y="5" width="42" height="24"/><text class="j" x="488" y="21">any</text></a></svg>