<svg version="1.1" xmlns:xlink="http://www.w3.org/1999/xlink" xmlns="http://www.w3.org/2000/svg" width="729" height="35" viewbox="0 0 729 35"><defs><style type="text/css">.c{fill:none;stroke:#222222;}.j{fill:#000000;font-family:Verdana,Sans-serif;font-size:12px;}.l{fill:#90d9ff;stroke:#222222;}.r{fill:#d3f0ff;stroke:#222222;}</style></defs><path class="c" d="M0 22h5m82 0h10m25 0h10m64 0h10m29 0h10m43 0h10m25 0h10m117 0h10m46 0h10m117 0h10m28 0h10m43 0h5"/><rect class="l" x="5" y="5" width="82" height="25" rx="7"/><text class="j" x="15" y="22">ifValueLet</text><rect class="l" x="97" y="5" width="25" height="25" rx="7"/><text class="j" x="107" y="22">(</text><a xlink:href="#symbol"><rect class="r" x="132" y="5" width="64" height="25"/><text class="j" x="142" y="22">symbol</text></a><rect class="l" x="206" y="5" width="29" height="25" rx="7"/><text class="j" x="216" y="22">=</text><a xlink:href="#any"><rect class="r" x="245" y="5" width="43" height="25"/><text class="j" x="255" y="22">any</text></a><rect class="l" x="298" y="5" width="25" height="25" rx="7"/><text class="j" x="308" y="22">)</text><a xlink:href="#any-expression"><rect class="r" x="333" y="5" width="117" height="25"/><text class="j" x="343" y="22">any-expression</text></a><rect class="l" x="460" y="5" width="46" height="25" rx="7"/><text class="j" x="470" y="22">else</text><a xlink:href="#any-expression"><rect class="r" x="516" y="5" width="117" height="25"/><text class="j" x="526" y="22">any-expression</text></a><rect class="l" x="643" y="5" width="28" height="25" rx="7"/><text class="j" x="653" y="22">»</text><a xlink:href="#any"><rect class="r" x="681" y="5" width="43" height="25"/><text class="j" x="691" y="22">any</text></a></svg>