<svg version="1.1" xmlns:xlink="http://www.w3.org/1999/xlink" xmlns="http://www.w3.org/2000/svg" width="565" height="35" viewbox="0 0 565 35"><defs><style type="text/css">.c{fill:none;stroke:#222222;}.j{fill:#000000;font-family:Verdana,Sans-serif;font-size:12px;}.l{fill:#90d9ff;stroke:#222222;}.r{fill:#d3f0ff;stroke:#222222;}</style></defs><path class="c" d="M0 22h5m25 0h10m66 0h10m64 0h10m117 0h10m117 0h10m25 0h10m28 0h10m43 0h5"/><rect class="l" x="5" y="5" width="25" height="25" rx="7"/><text class="j" x="15" y="22">(</text><rect class="l" x="40" y="5" width="66" height="25" rx="7"/><text class="j" x="50" y="22">if-value</text><a xlink:href="#symbol"><rect class="r" x="116" y="5" width="64" height="25"/><text class="j" x="126" y="22">symbol</text></a><a xlink:href="#any-expression"><rect class="r" x="190" y="5" width="117" height="25"/><text class="j" x="200" y="22">any-expression</text></a><a xlink:href="#any-expression"><rect class="r" x="317" y="5" width="117" height="25"/><text class="j" x="327" y="22">any-expression</text></a><rect class="l" x="444" y="5" width="25" height="25" rx="7"/><text class="j" x="454" y="22">)</text><rect class="l" x="479" y="5" width="28" height="25" rx="7"/><text class="j" x="489" y="22">»</text><a xlink:href="#any"><rect class="r" x="517" y="5" width="43" height="25"/><text class="j" x="527" y="22">any</text></a></svg>