<!--
if-value-let0 = '(''if-value-let' '[' symbol any:binding ']' any-expression any-expression')' '»' any;
-->
<svg version="1.1" xmlns:xlink="http://www.w3.org/1999/xlink" xmlns="http://www.w3.org/2000/svg" width="760" height="35" viewbox="0 0 760 35"><defs><style type="text/css">.c{fill: none; stroke: #888888; stroke-width: 2px;}.j{fill:#000000;font-family:Verdana,Sans-serif;font-size:12px;}.l{fill:#90d9ff;stroke:#222222;}.r{fill:#d3f0ff;stroke:#222222;}</style></defs><path class="c" d="M0 18h5m25 0h10m87 0h10m25 0h10m64 0h10m94 0h10m25 0h10m117 0h10m117 0h10m25 0h10m28 0h10m43 0h5"/><rect class="l" x="5" y="5" width="25" height="25" rx="7"/><text class="j" x="15" y="22">(</text><rect class="l" x="40" y="5" width="87" height="25" rx="7"/><text class="j" x="50" y="22">if-value-let</text><rect class="l" x="137" y="5" width="25" height="25" rx="7"/><text class="j" x="147" y="22">[</text><a xlink:href="#symbol"><rect class="r" x="172" y="5" width="64" height="25"/><text class="j" x="182" y="22">symbol</text></a><a xlink:href="#any:binding"><rect class="r" x="246" y="5" width="94" height="25"/><text class="j" x="256" y="22">any:binding</text></a><rect class="l" x="350" y="5" width="25" height="25" rx="7"/><text class="j" x="360" y="22">]</text><a xlink:href="#any-expression"><rect class="r" x="385" y="5" width="117" height="25"/><text class="j" x="395" y="22">any-expression</text></a><a xlink:href="#any-expression"><rect class="r" x="512" y="5" width="117" height="25"/><text class="j" x="522" y="22">any-expression</text></a><rect class="l" x="639" y="5" width="25" height="25" rx="7"/><text class="j" x="649" y="22">)</text><rect class="l" x="674" y="5" width="28" height="25" rx="7"/><text class="j" x="684" y="22">»</text><a xlink:href="#any"><rect class="r" x="712" y="5" width="43" height="25"/><text class="j" x="722" y="22">any</text></a></svg>