<svg version="1.1" xmlns:xlink="http://www.w3.org/1999/xlink" xmlns="http://www.w3.org/2000/svg" width="746" height="34" viewbox="0 0 746 34"><defs><style type="text/css">.c{fill: none; stroke: #888888; stroke-width: 2px;}.j{fill:#000000;font-family:Dialog,Sans-serif;font-size:12px;}.l{fill:#90d9ff;stroke:#222222;}.r{fill:#d3f0ff;stroke:#222222;}</style></defs><path class="c" d="M0 17h5m25 0h10m84 0h10m25 0h10m63 0h10m92 0h10m25 0h10m114 0h10m114 0h10m25 0h10m27 0h10m42 0h5"/><rect class="l" x="5" y="5" width="25" height="24" rx="7"/><text class="j" x="15" y="21">(</text><rect class="l" x="40" y="5" width="84" height="24" rx="7"/><text class="j" x="50" y="21">if-value-let</text><rect class="l" x="134" y="5" width="25" height="24" rx="7"/><text class="j" x="144" y="21">[</text><a xlink:href="#symbol"><rect class="r" x="169" y="5" width="63" height="24"/><text class="j" x="179" y="21">symbol</text></a><a xlink:href="#any:binding"><rect class="r" x="242" y="5" width="92" height="24"/><text class="j" x="252" y="21">any:binding</text></a><rect class="l" x="344" y="5" width="25" height="24" rx="7"/><text class="j" x="354" y="21">]</text><a xlink:href="#any-expression"><rect class="r" x="379" y="5" width="114" height="24"/><text class="j" x="389" y="21">any-expression</text></a><a xlink:href="#any-expression"><rect class="r" x="503" y="5" width="114" height="24"/><text class="j" x="513" y="21">any-expression</text></a><rect class="l" x="627" y="5" width="25" height="24" rx="7"/><text class="j" x="637" y="21">)</text><rect class="l" x="662" y="5" width="27" height="24" rx="7"/><text class="j" x="672" y="21">»</text><a xlink:href="#any"><rect class="r" x="699" y="5" width="42" height="24"/><text class="j" x="709" y="21">any</text></a></svg>