<svg version="1.1" xmlns:xlink="http://www.w3.org/1999/xlink" xmlns="http://www.w3.org/2000/svg" width="709" height="35" viewbox="0 0 709 35"><defs><style type="text/css">.c{fill:none;stroke:#222222;}.j{fill:#000000;font-family:Verdana,Sans-serif;font-size:12px;}.l{fill:#90d9ff;stroke:#222222;}.r{fill:#d3f0ff;stroke:#222222;}</style></defs><path class="c" d="M0 22h5m25 0h10m87 0h10m25 0h10m64 0h10m43 0h10m25 0h10m117 0h10m117 0h10m25 0h10m28 0h10m43 0h5"/><rect class="l" x="5" y="5" width="25" height="25" rx="7"/><text class="j" x="15" y="22">(</text><rect class="l" x="40" y="5" width="87" height="25" rx="7"/><text class="j" x="50" y="22">if-value-let</text><rect class="l" x="137" y="5" width="25" height="25" rx="7"/><text class="j" x="147" y="22">[</text><a xlink:href="#symbol"><rect class="r" x="172" y="5" width="64" height="25"/><text class="j" x="182" y="22">symbol</text></a><a xlink:href="#any"><rect class="r" x="246" y="5" width="43" height="25"/><text class="j" x="256" y="22">any</text></a><rect class="l" x="299" y="5" width="25" height="25" rx="7"/><text class="j" x="309" y="22">]</text><a xlink:href="#any-expression"><rect class="r" x="334" y="5" width="117" height="25"/><text class="j" x="344" y="22">any-expression</text></a><a xlink:href="#any-expression"><rect class="r" x="461" y="5" width="117" height="25"/><text class="j" x="471" y="22">any-expression</text></a><rect class="l" x="588" y="5" width="25" height="25" rx="7"/><text class="j" x="598" y="22">)</text><rect class="l" x="623" y="5" width="28" height="25" rx="7"/><text class="j" x="633" y="22">»</text><a xlink:href="#any"><rect class="r" x="661" y="5" width="43" height="25"/><text class="j" x="671" y="22">any</text></a></svg>