<svg version="1.1" xmlns:xlink="http://www.w3.org/1999/xlink" xmlns="http://www.w3.org/2000/svg" width="595" height="35" viewbox="0 0 595 35"><defs><style type="text/css">.c{fill: none; stroke: #888888; stroke-width: 2px;}.j{fill:#000000;font-family:Verdana,Sans-serif;font-size:12px;}.l{fill:#90d9ff;stroke:#222222;}.r{fill:#d3f0ff;stroke:#222222;}</style></defs><path class="c" d="M0 18h5m60 0h10m25 0h10m62 0h10m25 0h10m110 0h10m43 0h10m110 0h10m28 0h10m42 0h5"/><rect class="l" x="5" y="5" width="60" height="25" rx="7"/><text class="j" x="15" y="22">ifValue</text><rect class="l" x="75" y="5" width="25" height="25" rx="7"/><text class="j" x="85" y="22">(</text><a xlink:href="#symbol"><rect class="r" x="110" y="5" width="62" height="25"/><text class="j" x="120" y="22">symbol</text></a><rect class="l" x="182" y="5" width="25" height="25" rx="7"/><text class="j" x="192" y="22">)</text><a xlink:href="#any-expression"><rect class="r" x="217" y="5" width="110" height="25"/><text class="j" x="227" y="22">any-expression</text></a><rect class="l" x="337" y="5" width="43" height="25" rx="7"/><text class="j" x="347" y="22">else</text><a xlink:href="#any-expression"><rect class="r" x="390" y="5" width="110" height="25"/><text class="j" x="400" y="22">any-expression</text></a><rect class="l" x="510" y="5" width="28" height="25" rx="7"/><text class="j" x="520" y="22">»</text><a xlink:href="#any"><rect class="r" x="548" y="5" width="42" height="25"/><text class="j" x="558" y="22">any</text></a></svg>