<svg version="1.1" xmlns:xlink="http://www.w3.org/1999/xlink" xmlns="http://www.w3.org/2000/svg" width="617" height="35" viewbox="0 0 617 35"><defs><style type="text/css">.c{fill: none; stroke: #888888; stroke-width: 2px;}.j{fill:#000000;font-family:Verdana,Sans-serif;font-size:12px;}.l{fill:#90d9ff;stroke:#222222;}.r{fill:#d3f0ff;stroke:#222222;}</style></defs><path class="c" d="M0 18h5m62 0h10m25 0h10m64 0h10m25 0h10m117 0h10m46 0h10m117 0h10m28 0h10m43 0h5"/><rect class="l" x="5" y="5" width="62" height="25" rx="7"/><text class="j" x="15" y="22">ifValue</text><rect class="l" x="77" y="5" width="25" height="25" rx="7"/><text class="j" x="87" y="22">(</text><a xlink:href="#symbol"><rect class="r" x="112" y="5" width="64" height="25"/><text class="j" x="122" y="22">symbol</text></a><rect class="l" x="186" y="5" width="25" height="25" rx="7"/><text class="j" x="196" y="22">)</text><a xlink:href="#any-expression"><rect class="r" x="221" y="5" width="117" height="25"/><text class="j" x="231" y="22">any-expression</text></a><rect class="l" x="348" y="5" width="46" height="25" rx="7"/><text class="j" x="358" y="22">else</text><a xlink:href="#any-expression"><rect class="r" x="404" y="5" width="117" height="25"/><text class="j" x="414" y="22">any-expression</text></a><rect class="l" x="531" y="5" width="28" height="25" rx="7"/><text class="j" x="541" y="22">»</text><a xlink:href="#any"><rect class="r" x="569" y="5" width="43" height="25"/><text class="j" x="579" y="22">any</text></a></svg>