<!--
ifValueLet0 = ( 'ifValueLet' '(' symbol '=' any:binding ')'  any-expression 'else' any-expression '»' any )
-->
<svg version="1.1" xmlns:xlink="http://www.w3.org/1999/xlink" xmlns="http://www.w3.org/2000/svg" width="780" height="35" viewbox="0 0 780 35"><defs><style type="text/css">.c{fill: none; stroke: #888888; stroke-width: 2px;}.j{fill:#000000;font-family:Verdana,Sans-serif;font-size:12px;}.l{fill:#90d9ff;stroke:#222222;}.r{fill:#d3f0ff;stroke:#222222;}</style></defs><path class="c" d="M0 18h5m82 0h10m25 0h10m64 0h10m29 0h10m94 0h10m25 0h10m117 0h10m46 0h10m117 0h10m28 0h10m43 0h5"/><rect class="l" x="5" y="5" width="82" height="25" rx="7"/><text class="j" x="15" y="22">ifValueLet</text><rect class="l" x="97" y="5" width="25" height="25" rx="7"/><text class="j" x="107" y="22">(</text><a xlink:href="#symbol"><rect class="r" x="132" y="5" width="64" height="25"/><text class="j" x="142" y="22">symbol</text></a><rect class="l" x="206" y="5" width="29" height="25" rx="7"/><text class="j" x="216" y="22">=</text><a xlink:href="#any:binding"><rect class="r" x="245" y="5" width="94" height="25"/><text class="j" x="255" y="22">any:binding</text></a><rect class="l" x="349" y="5" width="25" height="25" rx="7"/><text class="j" x="359" y="22">)</text><a xlink:href="#any-expression"><rect class="r" x="384" y="5" width="117" height="25"/><text class="j" x="394" y="22">any-expression</text></a><rect class="l" x="511" y="5" width="46" height="25" rx="7"/><text class="j" x="521" y="22">else</text><a xlink:href="#any-expression"><rect class="r" x="567" y="5" width="117" height="25"/><text class="j" x="577" y="22">any-expression</text></a><rect class="l" x="694" y="5" width="28" height="25" rx="7"/><text class="j" x="704" y="22">»</text><a xlink:href="#any"><rect class="r" x="732" y="5" width="43" height="25"/><text class="j" x="742" y="22">any</text></a></svg>