<svg version="1.1" xmlns:xlink="http://www.w3.org/1999/xlink" xmlns="http://www.w3.org/2000/svg" width="436" height="65" viewbox="0 0 436 65"><defs><style type="text/css">.c{fill: none; stroke: #888888; stroke-width: 2px;}.i{fill:#000000;font-family:Verdana,Sans-serif;font-size:12px;}.l{fill:#90d9ff;stroke:#222222;}.r{fill:#d3f0ff;stroke:#222222;}</style></defs><path class="c" d="M0 48h5m40 0h10m24 0h10m94 0h10m25 0h30m-5 0q-5 0-5-5v-20q0-5 5-5h13m24 0h13q5 0 5 5v20q0 5-5 5m-5 0h30m25 0h10m28 0h10m40 0h5"/><a xlink:href="#set"><rect class="r" x="5" y="35" width="40" height="25"/><text class="i" x="15" y="52">set</text></a><rect class="l" x="55" y="35" width="24" height="25" rx="7"/><text class="i" x="65" y="52">.</text><rect class="l" x="89" y="35" width="94" height="25" rx="7"/><text class="i" x="99" y="52">intersection</text><rect class="l" x="193" y="35" width="25" height="25" rx="7"/><text class="i" x="203" y="52">(</text><rect class="l" x="256" y="5" width="24" height="25" rx="7"/><text class="i" x="266" y="22">,</text><a xlink:href="#set"><rect class="r" x="248" y="35" width="40" height="25"/><text class="i" x="258" y="52">set</text></a><rect class="l" x="318" y="35" width="25" height="25" rx="7"/><text class="i" x="328" y="52">)</text><rect class="l" x="353" y="35" width="28" height="25" rx="7"/><text class="i" x="363" y="52">»</text><a xlink:href="#set"><rect class="r" x="391" y="35" width="40" height="25"/><text class="i" x="401" y="52">set</text></a></svg>