<svg version="1.1" xmlns:xlink="http://www.w3.org/1999/xlink" xmlns="http://www.w3.org/2000/svg" width="789" height="64" viewbox="0 0 789 64"><defs><style type="text/css">.c{fill: none; stroke: #888888; stroke-width: 3pt;}.j{fill:#000000;font-family:Dialog,Sans-serif;font-size:12px;}.l{fill:#90d9ff;stroke:#222222;}.r{fill:#d3f0ff;stroke:#222222;}</style></defs><path class="c" d="M0 36h5m28 0h10m63 0h10m30 0h10m53 0h10m24 0h50m-5 0q-5 0-5-5v-16q0-5 5-5h210q5 0 5 5v16q0 5-5 5m-142 0h10m30 0h10m53 0h10m24 0h40m-275 0q5 0 5 5v8q0 5 5 5h250q5 0 5-5v-8q0-5 5-5m5 0h10m114 0h10m28 0h10m27 0h10m42 0h5"/><rect class="l" x="5" y="20" width="28" height="24" rx="7"/><text class="j" x="15" y="36">{</text><a xlink:href="#symbol"><rect class="r" x="43" y="20" width="63" height="24"/><text class="j" x="53" y="36">symbol</text></a><rect class="l" x="116" y="20" width="30" height="24" rx="7"/><text class="j" x="126" y="36">=</text><a xlink:href="#value"><rect class="r" x="156" y="20" width="53" height="24"/><text class="j" x="166" y="36">value</text></a><rect class="l" x="219" y="20" width="24" height="24" rx="7"/><text class="j" x="229" y="36">;</text><a xlink:href="#symbol"><rect class="r" x="293" y="20" width="63" height="24"/><text class="j" x="303" y="36">symbol</text></a><rect class="l" x="366" y="20" width="30" height="24" rx="7"/><text class="j" x="376" y="36">=</text><a xlink:href="#value"><rect class="r" x="406" y="20" width="53" height="24"/><text class="j" x="416" y="36">value</text></a><rect class="l" x="469" y="20" width="24" height="24" rx="7"/><text class="j" x="479" y="36">;</text><a xlink:href="#any-expression"><rect class="r" x="543" y="20" width="114" height="24"/><text class="j" x="553" y="36">any-expression</text></a><rect class="l" x="667" y="20" width="28" height="24" rx="7"/><text class="j" x="677" y="36">}</text><rect class="l" x="705" y="20" width="27" height="24" rx="7"/><text class="j" x="715" y="36">»</text><a xlink:href="#any"><rect class="r" x="742" y="20" width="42" height="24"/><text class="j" x="752" y="36">any</text></a></svg>