<svg version="1.1" xmlns:xlink="http://www.w3.org/1999/xlink" xmlns="http://www.w3.org/2000/svg" width="784" height="65" viewbox="0 0 784 65"><defs><style type="text/css">.c{fill: none; stroke: #888888; stroke-width: 2px;}.j{fill:#000000;font-family:Verdana,Sans-serif;font-size:12px;}.l{fill:#90d9ff;stroke:#222222;}.r{fill:#d3f0ff;stroke:#222222;}</style></defs><path class="c" d="M0 33h5m28 0h10m62 0h10m30 0h10m52 0h10m25 0h50m-5 0q-5 0-5-5v-17q0-5 5-5h209q5 0 5 5v17q0 5-5 5m-142 0h10m30 0h10m52 0h10m25 0h40m-274 0q5 0 5 5v8q0 5 5 5h249q5 0 5-5v-8q0-5 5-5m5 0h10m110 0h10m28 0h10m28 0h10m42 0h5"/><rect class="l" x="5" y="20" width="28" height="25" rx="7"/><text class="j" x="15" y="37">{</text><a xlink:href="#symbol"><rect class="r" x="43" y="20" width="62" height="25"/><text class="j" x="53" y="37">symbol</text></a><rect class="l" x="115" y="20" width="30" height="25" rx="7"/><text class="j" x="125" y="37">=</text><a xlink:href="#value"><rect class="r" x="155" y="20" width="52" height="25"/><text class="j" x="165" y="37">value</text></a><rect class="l" x="217" y="20" width="25" height="25" rx="7"/><text class="j" x="227" y="37">;</text><a xlink:href="#symbol"><rect class="r" x="292" y="20" width="62" height="25"/><text class="j" x="302" y="37">symbol</text></a><rect class="l" x="364" y="20" width="30" height="25" rx="7"/><text class="j" x="374" y="37">=</text><a xlink:href="#value"><rect class="r" x="404" y="20" width="52" height="25"/><text class="j" x="414" y="37">value</text></a><rect class="l" x="466" y="20" width="25" height="25" rx="7"/><text class="j" x="476" y="37">;</text><a xlink:href="#any-expression"><rect class="r" x="541" y="20" width="110" height="25"/><text class="j" x="551" y="37">any-expression</text></a><rect class="l" x="661" y="20" width="28" height="25" rx="7"/><text class="j" x="671" y="37">}</text><rect class="l" x="699" y="20" width="28" height="25" rx="7"/><text class="j" x="709" y="37">»</text><a xlink:href="#any"><rect class="r" x="737" y="20" width="42" height="25"/><text class="j" x="747" y="37">any</text></a></svg>