<svg version="1.1" xmlns:xlink="http://www.w3.org/1999/xlink" xmlns="http://www.w3.org/2000/svg" width="751" height="64" viewbox="0 0 751 64"><defs><style type="text/css">.c{fill: none; stroke: #888888; stroke-width: 3pt;}.j{fill:#000000;font-family:Dialog,Sans-serif;font-size:12px;}.l{fill:#90d9ff;stroke:#222222;}.r{fill:#d3f0ff;stroke:#222222;}</style></defs><path class="c" d="M0 36h5m25 0h10m36 0h10m25 0h10m63 0h10m53 0h50m-5 0q-5 0-5-5v-16q0-5 5-5h136q5 0 5 5v16q0 5-5 5m-68 0h10m53 0h40m-201 0q5 0 5 5v8q0 5 5 5h176q5 0 5-5v-8q0-5 5-5m5 0h10m25 0h10m114 0h10m25 0h10m27 0h10m42 0h5"/><rect class="l" x="5" y="20" width="25" height="24" rx="7"/><text class="j" x="15" y="36">(</text><rect class="l" x="40" y="20" width="36" height="24" rx="7"/><text class="j" x="50" y="36">let</text><rect class="l" x="86" y="20" width="25" height="24" rx="7"/><text class="j" x="96" y="36">[</text><a xlink:href="#symbol"><rect class="r" x="121" y="20" width="63" height="24"/><text class="j" x="131" y="36">symbol</text></a><a xlink:href="#value"><rect class="r" x="194" y="20" width="53" height="24"/><text class="j" x="204" y="36">value</text></a><a xlink:href="#symbol"><rect class="r" x="297" y="20" width="63" height="24"/><text class="j" x="307" y="36">symbol</text></a><a xlink:href="#value"><rect class="r" x="370" y="20" width="53" height="24"/><text class="j" x="380" y="36">value</text></a><rect class="l" x="473" y="20" width="25" height="24" rx="7"/><text class="j" x="483" y="36">]</text><a xlink:href="#any-expression"><rect class="r" x="508" y="20" width="114" height="24"/><text class="j" x="518" y="36">any-expression</text></a><rect class="l" x="632" y="20" width="25" height="24" rx="7"/><text class="j" x="642" y="36">)</text><rect class="l" x="667" y="20" width="27" height="24" rx="7"/><text class="j" x="677" y="36">»</text><a xlink:href="#any"><rect class="r" x="704" y="20" width="42" height="24"/><text class="j" x="714" y="36">any</text></a></svg>