<svg version="1.1" xmlns:xlink="http://www.w3.org/1999/xlink" xmlns="http://www.w3.org/2000/svg" width="760" height="65" viewbox="0 0 760 65"><defs><style type="text/css">.c{fill:none;stroke:#222222;}.j{fill:#000000;font-family:Verdana,Sans-serif;font-size:12px;}.l{fill:#90d9ff;stroke:#222222;}.r{fill:#d3f0ff;stroke:#222222;}</style></defs><path class="c" d="M0 37h5m25 0h10m36 0h10m25 0h10m64 0h10m54 0h50m-5 0q-5 0-5-5v-17q0-5 5-5h138q5 0 5 5v17q0 5-5 5m-69 0h10m54 0h40m-203 0q5 0 5 5v8q0 5 5 5h178q5 0 5-5v-8q0-5 5-5m5 0h10m25 0h10m117 0h10m25 0h10m28 0h10m43 0h5"/><rect class="l" x="5" y="20" width="25" height="25" rx="7"/><text class="j" x="15" y="37">(</text><rect class="l" x="40" y="20" width="36" height="25" rx="7"/><text class="j" x="50" y="37">let</text><rect class="l" x="86" y="20" width="25" height="25" rx="7"/><text class="j" x="96" y="37">[</text><a xlink:href="#symbol"><rect class="r" x="121" y="20" width="64" height="25"/><text class="j" x="131" y="37">symbol</text></a><a xlink:href="#value"><rect class="r" x="195" y="20" width="54" height="25"/><text class="j" x="205" y="37">value</text></a><a xlink:href="#symbol"><rect class="r" x="299" y="20" width="64" height="25"/><text class="j" x="309" y="37">symbol</text></a><a xlink:href="#value"><rect class="r" x="373" y="20" width="54" height="25"/><text class="j" x="383" y="37">value</text></a><rect class="l" x="477" y="20" width="25" height="25" rx="7"/><text class="j" x="487" y="37">]</text><a xlink:href="#any-expression"><rect class="r" x="512" y="20" width="117" height="25"/><text class="j" x="522" y="37">any-expression</text></a><rect class="l" x="639" y="20" width="25" height="25" rx="7"/><text class="j" x="649" y="37">)</text><rect class="l" x="674" y="20" width="28" height="25" rx="7"/><text class="j" x="684" y="37">»</text><a xlink:href="#any"><rect class="r" x="712" y="20" width="43" height="25"/><text class="j" x="722" y="37">any</text></a></svg>