<svg version="1.1" xmlns:xlink="http://www.w3.org/1999/xlink" xmlns="http://www.w3.org/2000/svg" width="798" height="65" viewbox="0 0 798 65"><defs><style type="text/css">.c{fill: none; stroke: #888888; stroke-width: 2px;}.j{fill:#000000;font-family:Verdana,Sans-serif;font-size:12px;}.l{fill:#90d9ff;stroke:#222222;}.r{fill:#d3f0ff;stroke:#222222;}</style></defs><path class="c" d="M0 33h5m28 0h10m64 0h10m29 0h10m54 0h10m25 0h50m-5 0q-5 0-5-5v-17q0-5 5-5h212q5 0 5 5v17q0 5-5 5m-143 0h10m29 0h10m54 0h10m25 0h40m-277 0q5 0 5 5v8q0 5 5 5h252q5 0 5-5v-8q0-5 5-5m5 0h10m117 0h10m28 0h10m28 0h10m43 0h5"/><rect class="l" x="5" y="20" width="28" height="25" rx="7"/><text class="j" x="15" y="37">{</text><a xlink:href="#symbol"><rect class="r" x="43" y="20" width="64" height="25"/><text class="j" x="53" y="37">symbol</text></a><rect class="l" x="117" y="20" width="29" height="25" rx="7"/><text class="j" x="127" y="37">=</text><a xlink:href="#value"><rect class="r" x="156" y="20" width="54" height="25"/><text class="j" x="166" y="37">value</text></a><rect class="l" x="220" y="20" width="25" height="25" rx="7"/><text class="j" x="230" y="37">;</text><a xlink:href="#symbol"><rect class="r" x="295" y="20" width="64" height="25"/><text class="j" x="305" y="37">symbol</text></a><rect class="l" x="369" y="20" width="29" height="25" rx="7"/><text class="j" x="379" y="37">=</text><a xlink:href="#value"><rect class="r" x="408" y="20" width="54" height="25"/><text class="j" x="418" y="37">value</text></a><rect class="l" x="472" y="20" width="25" height="25" rx="7"/><text class="j" x="482" y="37">;</text><a xlink:href="#any-expression"><rect class="r" x="547" y="20" width="117" height="25"/><text class="j" x="557" y="37">any-expression</text></a><rect class="l" x="674" y="20" width="28" height="25" rx="7"/><text class="j" x="684" y="37">}</text><rect class="l" x="712" y="20" width="28" height="25" rx="7"/><text class="j" x="722" y="37">»</text><a xlink:href="#any"><rect class="r" x="750" y="20" width="43" height="25"/><text class="j" x="760" y="37">any</text></a></svg>