<svg version="1.1" xmlns:xlink="http://www.w3.org/1999/xlink" xmlns="http://www.w3.org/2000/svg" width="743" height="65" viewbox="0 0 743 65"><defs><style type="text/css">.c{fill: none; stroke: #888888; stroke-width: 2px;}.j{fill:#000000;font-family:Verdana,Sans-serif;font-size:12px;}.l{fill:#90d9ff;stroke:#222222;}.r{fill:#d3f0ff;stroke:#222222;}</style></defs><path class="c" d="M0 33h5m25 0h10m35 0h10m25 0h10m62 0h10m52 0h50m-5 0q-5 0-5-5v-17q0-5 5-5h134q5 0 5 5v17q0 5-5 5m-67 0h10m52 0h40m-199 0q5 0 5 5v8q0 5 5 5h174q5 0 5-5v-8q0-5 5-5m5 0h10m25 0h10m110 0h10m25 0h10m28 0h10m42 0h5"/><rect class="l" x="5" y="20" width="25" height="25" rx="7"/><text class="j" x="15" y="37">(</text><rect class="l" x="40" y="20" width="35" height="25" rx="7"/><text class="j" x="50" y="37">let</text><rect class="l" x="85" y="20" width="25" height="25" rx="7"/><text class="j" x="95" y="37">[</text><a xlink:href="#symbol"><rect class="r" x="120" y="20" width="62" height="25"/><text class="j" x="130" y="37">symbol</text></a><a xlink:href="#value"><rect class="r" x="192" y="20" width="52" height="25"/><text class="j" x="202" y="37">value</text></a><a xlink:href="#symbol"><rect class="r" x="294" y="20" width="62" height="25"/><text class="j" x="304" y="37">symbol</text></a><a xlink:href="#value"><rect class="r" x="366" y="20" width="52" height="25"/><text class="j" x="376" y="37">value</text></a><rect class="l" x="468" y="20" width="25" height="25" rx="7"/><text class="j" x="478" y="37">]</text><a xlink:href="#any-expression"><rect class="r" x="503" y="20" width="110" height="25"/><text class="j" x="513" y="37">any-expression</text></a><rect class="l" x="623" y="20" width="25" height="25" rx="7"/><text class="j" x="633" y="37">)</text><rect class="l" x="658" y="20" width="28" height="25" rx="7"/><text class="j" x="668" y="37">»</text><a xlink:href="#any"><rect class="r" x="696" y="20" width="42" height="25"/><text class="j" x="706" y="37">any</text></a></svg>