<svg version="1.1" xmlns:xlink="http://www.w3.org/1999/xlink" xmlns="http://www.w3.org/2000/svg" width="557" height="35" viewbox="0 0 557 35"><defs><style type="text/css">.c{fill: none; stroke: #888888; stroke-width: 2px;}.j{fill:#000000;font-family:Verdana,Sans-serif;font-size:12px;}.l{fill:#90d9ff;stroke:#222222;}.r{fill:#d3f0ff;stroke:#222222;}</style></defs><path class="c" d="M0 18h5m46 0h10m25 0h10m116 0h10m31 0h10m38 0h10m25 0h10m120 0h10m28 0h10m38 0h5"/><rect class="l" x="5" y="5" width="46" height="25" rx="7"/><text class="j" x="15" y="22">map</text><rect class="l" x="61" y="5" width="25" height="25" rx="7"/><text class="j" x="71" y="22">(</text><a xlink:href="#symbol:element"><rect class="r" x="96" y="5" width="116" height="25"/><text class="j" x="106" y="22">symbol:element</text></a><rect class="l" x="222" y="5" width="31" height="25" rx="7"/><text class="j" x="232" y="22">in</text><a xlink:href="#set"><rect class="r" x="263" y="5" width="38" height="25"/><text class="j" x="273" y="22">set</text></a><rect class="l" x="311" y="5" width="25" height="25" rx="7"/><text class="j" x="321" y="22">)</text><a xlink:href="#value-expression"><rect class="r" x="346" y="5" width="120" height="25"/><text class="j" x="356" y="22">value-expression</text></a><rect class="l" x="476" y="5" width="28" height="25" rx="7"/><text class="j" x="486" y="22">»</text><a xlink:href="#set"><rect class="r" x="514" y="5" width="38" height="25"/><text class="j" x="524" y="22">set</text></a></svg>