<svg version="1.1" xmlns:xlink="http://www.w3.org/1999/xlink" xmlns="http://www.w3.org/2000/svg" width="586" height="35" viewbox="0 0 586 35"><defs><style type="text/css">.c{fill: none; stroke: #888888; stroke-width: 2px;}.j{fill:#000000;font-family:Verdana,Sans-serif;font-size:12px;}.l{fill:#90d9ff;stroke:#222222;}.r{fill:#d3f0ff;stroke:#222222;}</style></defs><path class="c" d="M0 18h5m25 0h10m46 0h10m25 0h10m116 0h10m38 0h10m25 0h10m120 0h10m25 0h10m28 0h10m38 0h5"/><rect class="l" x="5" y="5" width="25" height="25" rx="7"/><text class="j" x="15" y="22">(</text><rect class="l" x="40" y="5" width="46" height="25" rx="7"/><text class="j" x="50" y="22">map</text><rect class="l" x="96" y="5" width="25" height="25" rx="7"/><text class="j" x="106" y="22">[</text><a xlink:href="#symbol:element"><rect class="r" x="131" y="5" width="116" height="25"/><text class="j" x="141" y="22">symbol:element</text></a><a xlink:href="#set"><rect class="r" x="257" y="5" width="38" height="25"/><text class="j" x="267" y="22">set</text></a><rect class="l" x="305" y="5" width="25" height="25" rx="7"/><text class="j" x="315" y="22">]</text><a xlink:href="#value-expression"><rect class="r" x="340" y="5" width="120" height="25"/><text class="j" x="350" y="22">value-expression</text></a><rect class="l" x="470" y="5" width="25" height="25" rx="7"/><text class="j" x="480" y="22">)</text><rect class="l" x="505" y="5" width="28" height="25" rx="7"/><text class="j" x="515" y="22">»</text><a xlink:href="#set"><rect class="r" x="543" y="5" width="38" height="25"/><text class="j" x="553" y="22">set</text></a></svg>