<svg version="1.1" xmlns:xlink="http://www.w3.org/1999/xlink" xmlns="http://www.w3.org/2000/svg" width="606" height="34" viewbox="0 0 606 34"><defs><style type="text/css">.c{fill: none; stroke: #888888; stroke-width: 3pt;}.j{fill:#000000;font-family:Dialog,Sans-serif;font-size:12px;}.l{fill:#90d9ff;stroke:#222222;}.r{fill:#d3f0ff;stroke:#222222;}</style></defs><path class="c" d="M0 21h5m47 0h10m25 0h10m118 0h10m31 0h10m59 0h10m25 0h10m125 0h10m27 0h10m59 0h5"/><rect class="l" x="5" y="5" width="47" height="24" rx="7"/><text class="j" x="15" y="21">map</text><rect class="l" x="62" y="5" width="25" height="24" rx="7"/><text class="j" x="72" y="21">(</text><a xlink:href="#symbol:element"><rect class="r" x="97" y="5" width="118" height="24"/><text class="j" x="107" y="21">symbol:element</text></a><rect class="l" x="225" y="5" width="31" height="24" rx="7"/><text class="j" x="235" y="21">in</text><a xlink:href="#vector"><rect class="r" x="266" y="5" width="59" height="24"/><text class="j" x="276" y="21">vector</text></a><rect class="l" x="335" y="5" width="25" height="24" rx="7"/><text class="j" x="345" y="21">)</text><a xlink:href="#value-expression"><rect class="r" x="370" y="5" width="125" height="24"/><text class="j" x="380" y="21">value-expression</text></a><rect class="l" x="505" y="5" width="27" height="24" rx="7"/><text class="j" x="515" y="21">»</text><a xlink:href="#vector"><rect class="r" x="542" y="5" width="59" height="24"/><text class="j" x="552" y="21">vector</text></a></svg>