<svg version="1.1" xmlns:xlink="http://www.w3.org/1999/xlink" xmlns="http://www.w3.org/2000/svg" width="595" height="35" viewbox="0 0 595 35"><defs><style type="text/css">.c{fill: none; stroke: #888888; stroke-width: 2px;}.j{fill:#000000;font-family:Verdana,Sans-serif;font-size:12px;}.l{fill:#90d9ff;stroke:#222222;}.r{fill:#d3f0ff;stroke:#222222;}</style></defs><path class="c" d="M0 18h5m46 0h10m25 0h10m116 0h10m31 0h10m57 0h10m25 0h10m120 0h10m28 0h10m57 0h5"/><rect class="l" x="5" y="5" width="46" height="25" rx="7"/><text class="j" x="15" y="22">map</text><rect class="l" x="61" y="5" width="25" height="25" rx="7"/><text class="j" x="71" y="22">(</text><a xlink:href="#symbol:element"><rect class="r" x="96" y="5" width="116" height="25"/><text class="j" x="106" y="22">symbol:element</text></a><rect class="l" x="222" y="5" width="31" height="25" rx="7"/><text class="j" x="232" y="22">in</text><a xlink:href="#vector"><rect class="r" x="263" y="5" width="57" height="25"/><text class="j" x="273" y="22">vector</text></a><rect class="l" x="330" y="5" width="25" height="25" rx="7"/><text class="j" x="340" y="22">)</text><a xlink:href="#value-expression"><rect class="r" x="365" y="5" width="120" height="25"/><text class="j" x="375" y="22">value-expression</text></a><rect class="l" x="495" y="5" width="28" height="25" rx="7"/><text class="j" x="505" y="22">»</text><a xlink:href="#vector"><rect class="r" x="533" y="5" width="57" height="25"/><text class="j" x="543" y="22">vector</text></a></svg>