<svg version="1.1" xmlns:xlink="http://www.w3.org/1999/xlink" xmlns="http://www.w3.org/2000/svg" width="635" height="34" viewbox="0 0 635 34"><defs><style type="text/css">.c{fill: none; stroke: #888888; stroke-width: 2px;}.j{fill:#000000;font-family:Dialog,Sans-serif;font-size:12px;}.l{fill:#90d9ff;stroke:#222222;}.r{fill:#d3f0ff;stroke:#222222;}</style></defs><path class="c" d="M0 17h5m25 0h10m47 0h10m25 0h10m118 0h10m59 0h10m25 0h10m125 0h10m25 0h10m27 0h10m59 0h5"/><rect class="l" x="5" y="5" width="25" height="24" rx="7"/><text class="j" x="15" y="21">(</text><rect class="l" x="40" y="5" width="47" height="24" rx="7"/><text class="j" x="50" y="21">map</text><rect class="l" x="97" y="5" width="25" height="24" rx="7"/><text class="j" x="107" y="21">[</text><a xlink:href="#symbol:element"><rect class="r" x="132" y="5" width="118" height="24"/><text class="j" x="142" y="21">symbol:element</text></a><a xlink:href="#vector"><rect class="r" x="260" y="5" width="59" height="24"/><text class="j" x="270" y="21">vector</text></a><rect class="l" x="329" y="5" width="25" height="24" rx="7"/><text class="j" x="339" y="21">]</text><a xlink:href="#value-expression"><rect class="r" x="364" y="5" width="125" height="24"/><text class="j" x="374" y="21">value-expression</text></a><rect class="l" x="499" y="5" width="25" height="24" rx="7"/><text class="j" x="509" y="21">)</text><rect class="l" x="534" y="5" width="27" height="24" rx="7"/><text class="j" x="544" y="21">»</text><a xlink:href="#vector"><rect class="r" x="571" y="5" width="59" height="24"/><text class="j" x="581" y="21">vector</text></a></svg>