<!--
map0 = ( 'map' '(' symbol:element 'in' set ')' value-expression '»' set )
-->
<svg version="1.1" xmlns:xlink="http://www.w3.org/1999/xlink" xmlns="http://www.w3.org/2000/svg" width="574" height="35" viewbox="0 0 574 35"><defs><style type="text/css">.c{fill: none; stroke: #888888; stroke-width: 2px;}.j{fill:#000000;font-family:Verdana,Sans-serif;font-size:12px;}.l{fill:#90d9ff;stroke:#222222;}.r{fill:#d3f0ff;stroke:#222222;}</style></defs><path class="c" d="M0 18h5m47 0h10m25 0h10m120 0h10m31 0h10m40 0h10m25 0h10m128 0h10m28 0h10m40 0h5"/><rect class="l" x="5" y="5" width="47" height="25" rx="7"/><text class="j" x="15" y="22">map</text><rect class="l" x="62" y="5" width="25" height="25" rx="7"/><text class="j" x="72" y="22">(</text><a xlink:href="#symbol:element"><rect class="r" x="97" y="5" width="120" height="25"/><text class="j" x="107" y="22">symbol:element</text></a><rect class="l" x="227" y="5" width="31" height="25" rx="7"/><text class="j" x="237" y="22">in</text><a xlink:href="#set"><rect class="r" x="268" y="5" width="40" height="25"/><text class="j" x="278" y="22">set</text></a><rect class="l" x="318" y="5" width="25" height="25" rx="7"/><text class="j" x="328" y="22">)</text><a xlink:href="#value-expression"><rect class="r" x="353" y="5" width="128" height="25"/><text class="j" x="363" y="22">value-expression</text></a><rect class="l" x="491" y="5" width="28" height="25" rx="7"/><text class="j" x="501" y="22">»</text><a xlink:href="#set"><rect class="r" x="529" y="5" width="40" height="25"/><text class="j" x="539" y="22">set</text></a></svg>