<svg version="1.1" xmlns:xlink="http://www.w3.org/1999/xlink" xmlns="http://www.w3.org/2000/svg" width="507" height="50" viewbox="0 0 507 50"><defs><style type="text/css">.c{fill: none; stroke: #888888; stroke-width: 2px;}.j{fill:#000000;font-family:Verdana,Sans-serif;font-size:12px;}.l{fill:#90d9ff;stroke:#222222;}.r{fill:#d3f0ff;stroke:#222222;}</style></defs><path class="c" d="M0 33h5m25 0h10m25 0h10m98 0h30m-5 0q-5 0-5-5v-17q0-5 5-5h108q5 0 5 5v17q0 5-5 5m-5 0h30m25 0h10m28 0h10m98 0h5"/><rect class="l" x="5" y="20" width="25" height="25" rx="7"/><text class="j" x="15" y="37">(</text><rect class="l" x="40" y="20" width="25" height="25" rx="7"/><text class="j" x="50" y="37">-</text><a xlink:href="#fixed-decimal"><rect class="r" x="75" y="20" width="98" height="25"/><text class="j" x="85" y="37">fixed-decimal</text></a><a xlink:href="#fixed-decimal"><rect class="r" x="203" y="20" width="98" height="25"/><text class="j" x="213" y="37">fixed-decimal</text></a><rect class="l" x="331" y="20" width="25" height="25" rx="7"/><text class="j" x="341" y="37">)</text><rect class="l" x="366" y="20" width="28" height="25" rx="7"/><text class="j" x="376" y="37">»</text><a xlink:href="#fixed-decimal"><rect class="r" x="404" y="20" width="98" height="25"/><text class="j" x="414" y="37">fixed-decimal</text></a></svg>