<svg version="1.1" xmlns:xlink="http://www.w3.org/1999/xlink" xmlns="http://www.w3.org/2000/svg" width="321" height="35" viewbox="0 0 321 35"><defs><style type="text/css">.c{fill:none;stroke:#222222;}.j{fill:#000000;font-family:Verdana,Sans-serif;font-size:12px;}.l{fill:#90d9ff;stroke:#222222;}.r{fill:#d3f0ff;stroke:#222222;}</style></defs><path class="c" d="M0 22h5m25 0h10m41 0h10m71 0h10m25 0h10m28 0h10m71 0h5"/><rect class="l" x="5" y="5" width="25" height="25" rx="7"/><text class="j" x="15" y="22">(</text><rect class="l" x="40" y="5" width="41" height="25" rx="7"/><text class="j" x="50" y="22">not</text><a xlink:href="#boolean"><rect class="r" x="91" y="5" width="71" height="25"/><text class="j" x="101" y="22">boolean</text></a><rect class="l" x="172" y="5" width="25" height="25" rx="7"/><text class="j" x="182" y="22">)</text><rect class="l" x="207" y="5" width="28" height="25" rx="7"/><text class="j" x="217" y="22">»</text><a xlink:href="#boolean"><rect class="r" x="245" y="5" width="71" height="25"/><text class="j" x="255" y="22">boolean</text></a></svg>