<svg version="1.1" xmlns:xlink="http://www.w3.org/1999/xlink" xmlns="http://www.w3.org/2000/svg" width="408" height="50" viewbox="0 0 408 50"><defs><style type="text/css">.c{fill: none; stroke: #888888; stroke-width: 2px;}.j{fill:#000000;font-family:Verdana,Sans-serif;font-size:12px;}.l{fill:#90d9ff;stroke:#222222;}.r{fill:#d3f0ff;stroke:#222222;}</style></defs><path class="c" d="M0 33h5m25 0h10m50 0h10m52 0h30m-5 0q-5 0-5-5v-17q0-5 5-5h62q5 0 5 5v17q0 5-5 5m-5 0h30m25 0h10m28 0h10m66 0h5"/><rect class="l" x="5" y="20" width="25" height="25" rx="7"/><text class="j" x="15" y="37">(</text><rect class="l" x="40" y="20" width="50" height="25" rx="7"/><text class="j" x="50" y="37">not=</text><a xlink:href="#value"><rect class="r" x="100" y="20" width="52" height="25"/><text class="j" x="110" y="37">value</text></a><a xlink:href="#value"><rect class="r" x="182" y="20" width="52" height="25"/><text class="j" x="192" y="37">value</text></a><rect class="l" x="264" y="20" width="25" height="25" rx="7"/><text class="j" x="274" y="37">)</text><rect class="l" x="299" y="20" width="28" height="25" rx="7"/><text class="j" x="309" y="37">»</text><a xlink:href="#boolean"><rect class="r" x="337" y="20" width="66" height="25"/><text class="j" x="347" y="37">boolean</text></a></svg>