<svg version="1.1" xmlns:xlink="http://www.w3.org/1999/xlink" xmlns="http://www.w3.org/2000/svg" width="492" height="65" viewbox="0 0 492 65"><defs><style type="text/css">.c{fill: none; stroke: #888888; stroke-width: 2px;}.j{fill:#000000;font-family:Verdana,Sans-serif;font-size:12px;}.l{fill:#90d9ff;stroke:#222222;}.r{fill:#d3f0ff;stroke:#222222;}</style></defs><path class="c" d="M0 48h5m91 0h10m25 0h10m54 0h10m24 0h30m-5 0q-5 0-5-5v-20q0-5 5-5h20m24 0h20q5 0 5 5v20q0 5-5 5m-5 0h30m25 0h10m28 0h10m71 0h5"/><rect class="l" x="5" y="35" width="91" height="25" rx="7"/><text class="j" x="15" y="52">notEqualTo</text><rect class="l" x="106" y="35" width="25" height="25" rx="7"/><text class="j" x="116" y="52">(</text><a xlink:href="#value"><rect class="r" x="141" y="35" width="54" height="25"/><text class="j" x="151" y="52">value</text></a><rect class="l" x="205" y="35" width="24" height="25" rx="7"/><text class="j" x="215" y="52">,</text><rect class="l" x="274" y="5" width="24" height="25" rx="7"/><text class="j" x="284" y="22">,</text><a xlink:href="#value"><rect class="r" x="259" y="35" width="54" height="25"/><text class="j" x="269" y="52">value</text></a><rect class="l" x="343" y="35" width="25" height="25" rx="7"/><text class="j" x="353" y="52">)</text><rect class="l" x="378" y="35" width="28" height="25" rx="7"/><text class="j" x="388" y="52">»</text><a xlink:href="#boolean"><rect class="r" x="416" y="35" width="71" height="25"/><text class="j" x="426" y="52">boolean</text></a></svg>