<svg version="1.1" xmlns:xlink="http://www.w3.org/1999/xlink" xmlns="http://www.w3.org/2000/svg" width="479" height="65" viewbox="0 0 479 65"><defs><style type="text/css">.c{fill: none; stroke: #888888; stroke-width: 2px;}.j{fill:#000000;font-family:Verdana,Sans-serif;font-size:12px;}.l{fill:#90d9ff;stroke:#222222;}.r{fill:#d3f0ff;stroke:#222222;}</style></defs><path class="c" d="M0 48h5m87 0h10m25 0h10m52 0h10m24 0h30m-5 0q-5 0-5-5v-20q0-5 5-5h19m24 0h19q5 0 5 5v20q0 5-5 5m-5 0h30m25 0h10m28 0h10m66 0h5"/><rect class="l" x="5" y="35" width="87" height="25" rx="7"/><text class="j" x="15" y="52">notEqualTo</text><rect class="l" x="102" y="35" width="25" height="25" rx="7"/><text class="j" x="112" y="52">(</text><a xlink:href="#value"><rect class="r" x="137" y="35" width="52" height="25"/><text class="j" x="147" y="52">value</text></a><rect class="l" x="199" y="35" width="24" height="25" rx="7"/><text class="j" x="209" y="52">,</text><rect class="l" x="267" y="5" width="24" height="25" rx="7"/><text class="j" x="277" y="22">,</text><a xlink:href="#value"><rect class="r" x="253" y="35" width="52" height="25"/><text class="j" x="263" y="52">value</text></a><rect class="l" x="335" y="35" width="25" height="25" rx="7"/><text class="j" x="345" y="52">)</text><rect class="l" x="370" y="35" width="28" height="25" rx="7"/><text class="j" x="380" y="52">»</text><a xlink:href="#boolean"><rect class="r" x="408" y="35" width="66" height="25"/><text class="j" x="418" y="52">boolean</text></a></svg>