<svg version="1.1" xmlns:xlink="http://www.w3.org/1999/xlink" xmlns="http://www.w3.org/2000/svg" width="489" height="63" viewbox="0 0 489 63"><defs><style type="text/css">.c{fill: none; stroke: #888888; stroke-width: 3pt;}.j{fill:#000000;font-family:Dialog,Sans-serif;font-size:12px;}.l{fill:#90d9ff;stroke:#222222;}.r{fill:#d3f0ff;stroke:#222222;}</style></defs><path class="c" d="M0 50h5m91 0h10m25 0h10m53 0h10m24 0h30m-5 0q-5 0-5-5v-19q0-5 5-5h19m24 0h20q5 0 5 5v19q0 5-5 5m-5 0h30m25 0h10m27 0h10m71 0h5"/><rect class="l" x="5" y="34" width="91" height="24" rx="7"/><text class="j" x="15" y="50">notEqualTo</text><rect class="l" x="106" y="34" width="25" height="24" rx="7"/><text class="j" x="116" y="50">(</text><a xlink:href="#value"><rect class="r" x="141" y="34" width="53" height="24"/><text class="j" x="151" y="50">value</text></a><rect class="l" x="204" y="34" width="24" height="24" rx="7"/><text class="j" x="214" y="50">,</text><rect class="l" x="272" y="5" width="24" height="24" rx="7"/><text class="j" x="282" y="21">,</text><a xlink:href="#value"><rect class="r" x="258" y="34" width="53" height="24"/><text class="j" x="268" y="50">value</text></a><rect class="l" x="341" y="34" width="25" height="24" rx="7"/><text class="j" x="351" y="50">)</text><rect class="l" x="376" y="34" width="27" height="24" rx="7"/><text class="j" x="386" y="50">»</text><a xlink:href="#boolean"><rect class="r" x="413" y="34" width="71" height="24"/><text class="j" x="423" y="50">boolean</text></a></svg>