<svg version="1.1" xmlns:xlink="http://www.w3.org/1999/xlink" xmlns="http://www.w3.org/2000/svg" width="433" height="49" viewbox="0 0 433 49"><defs><style type="text/css">.c{fill: none; stroke: #888888; stroke-width: 3pt;}.j{fill:#000000;font-family:Dialog,Sans-serif;font-size:12px;}.l{fill:#90d9ff;stroke:#222222;}.r{fill:#d3f0ff;stroke:#222222;}</style></defs><path class="c" d="M0 36h5m25 0h10m33 0h10m71 0h30m-5 0q-5 0-5-5v-16q0-5 5-5h81q5 0 5 5v16q0 5-5 5m-5 0h30m25 0h10m27 0h10m71 0h5"/><rect class="l" x="5" y="20" width="25" height="24" rx="7"/><text class="j" x="15" y="36">(</text><rect class="l" x="40" y="20" width="33" height="24" rx="7"/><text class="j" x="50" y="36">or</text><a xlink:href="#boolean"><rect class="r" x="83" y="20" width="71" height="24"/><text class="j" x="93" y="36">boolean</text></a><a xlink:href="#boolean"><rect class="r" x="184" y="20" width="71" height="24"/><text class="j" x="194" y="36">boolean</text></a><rect class="l" x="285" y="20" width="25" height="24" rx="7"/><text class="j" x="295" y="36">)</text><rect class="l" x="320" y="20" width="27" height="24" rx="7"/><text class="j" x="330" y="36">»</text><a xlink:href="#boolean"><rect class="r" x="357" y="20" width="71" height="24"/><text class="j" x="367" y="36">boolean</text></a></svg>