<svg version="1.1" xmlns:xlink="http://www.w3.org/1999/xlink" xmlns="http://www.w3.org/2000/svg" width="412" height="50" viewbox="0 0 412 50"><defs><style type="text/css">.c{fill: none; stroke: #888888; stroke-width: 2px;}.j{fill:#000000;font-family:Verdana,Sans-serif;font-size:12px;}.l{fill:#90d9ff;stroke:#222222;}.r{fill:#d3f0ff;stroke:#222222;}</style></defs><path class="c" d="M0 33h5m25 0h10m29 0h10m65 0h30m-5 0q-5 0-5-5v-17q0-5 5-5h75q5 0 5 5v17q0 5-5 5m-5 0h30m25 0h10m28 0h10m65 0h5"/><rect class="l" x="5" y="20" width="25" height="25" rx="7"/><text class="j" x="15" y="37">(</text><rect class="l" x="40" y="20" width="29" height="25" rx="7"/><text class="j" x="50" y="37">+</text><a xlink:href="#integer"><rect class="r" x="79" y="20" width="65" height="25"/><text class="j" x="89" y="37">integer</text></a><a xlink:href="#integer"><rect class="r" x="174" y="20" width="65" height="25"/><text class="j" x="184" y="37">integer</text></a><rect class="l" x="269" y="20" width="25" height="25" rx="7"/><text class="j" x="279" y="37">)</text><rect class="l" x="304" y="20" width="28" height="25" rx="7"/><text class="j" x="314" y="37">»</text><a xlink:href="#integer"><rect class="r" x="342" y="20" width="65" height="25"/><text class="j" x="352" y="37">integer</text></a></svg>