<svg version="1.1" xmlns:xlink="http://www.w3.org/1999/xlink" xmlns="http://www.w3.org/2000/svg" width="523" height="50" viewbox="0 0 523 50"><defs><style type="text/css">.c{fill:none;stroke:#222222;}.j{fill:#000000;font-family:Verdana,Sans-serif;font-size:12px;}.l{fill:#90d9ff;stroke:#222222;}.r{fill:#d3f0ff;stroke:#222222;}</style></defs><path class="c" d="M0 37h5m25 0h10m29 0h10m102 0h30m-5 0q-5 0-5-5v-17q0-5 5-5h112q5 0 5 5v17q0 5-5 5m-5 0h30m25 0h10m28 0h10m102 0h5"/><rect class="l" x="5" y="20" width="25" height="25" rx="7"/><text class="j" x="15" y="37">(</text><rect class="l" x="40" y="20" width="29" height="25" rx="7"/><text class="j" x="50" y="37">+</text><a xlink:href="#fixed-decimal"><rect class="r" x="79" y="20" width="102" height="25"/><text class="j" x="89" y="37">fixed-decimal</text></a><a xlink:href="#fixed-decimal"><rect class="r" x="211" y="20" width="102" height="25"/><text class="j" x="221" y="37">fixed-decimal</text></a><rect class="l" x="343" y="20" width="25" height="25" rx="7"/><text class="j" x="353" y="37">)</text><rect class="l" x="378" y="20" width="28" height="25" rx="7"/><text class="j" x="388" y="37">»</text><a xlink:href="#fixed-decimal"><rect class="r" x="416" y="20" width="102" height="25"/><text class="j" x="426" y="37">fixed-decimal</text></a></svg>