<svg version="1.1" xmlns:xlink="http://www.w3.org/1999/xlink" xmlns="http://www.w3.org/2000/svg" width="412" height="49" viewbox="0 0 412 49"><defs><style type="text/css">.c{fill: none; stroke: #888888; stroke-width: 2px;}.j{fill:#000000;font-family:Dialog,Sans-serif;font-size:12px;}.l{fill:#90d9ff;stroke:#222222;}.r{fill:#d3f0ff;stroke:#222222;}</style></defs><path class="c" d="M0 32h5m25 0h10m30 0h10m65 0h30m-5 0q-5 0-5-5v-16q0-5 5-5h75q5 0 5 5v16q0 5-5 5m-5 0h30m25 0h10m27 0h10m65 0h5"/><rect class="l" x="5" y="20" width="25" height="24" rx="7"/><text class="j" x="15" y="36">(</text><rect class="l" x="40" y="20" width="30" height="24" rx="7"/><text class="j" x="50" y="36">+</text><a xlink:href="#integer"><rect class="r" x="80" y="20" width="65" height="24"/><text class="j" x="90" y="36">integer</text></a><a xlink:href="#integer"><rect class="r" x="175" y="20" width="65" height="24"/><text class="j" x="185" y="36">integer</text></a><rect class="l" x="270" y="20" width="25" height="24" rx="7"/><text class="j" x="280" y="36">)</text><rect class="l" x="305" y="20" width="27" height="24" rx="7"/><text class="j" x="315" y="36">»</text><a xlink:href="#integer"><rect class="r" x="342" y="20" width="65" height="24"/><text class="j" x="352" y="36">integer</text></a></svg>