<svg version="1.1" xmlns:xlink="http://www.w3.org/1999/xlink" xmlns="http://www.w3.org/2000/svg" width="745" height="49" viewbox="0 0 745 49"><defs><style type="text/css">.c{fill: none; stroke: #888888; stroke-width: 2px;}.j{fill:#000000;font-family:Dialog,Sans-serif;font-size:12px;}.l{fill:#90d9ff;stroke:#222222;}.r{fill:#d3f0ff;stroke:#222222;}</style></defs><path class="c" d="M0 17h5m57 0h10m25 0h30m99 0h10m24 0h20m-168 0q5 0 5 5v8q0 5 5 5h143q5 0 5-5v-8q0-5 5-5m5 0h10m93 0h30m24 0h10m132 0h20m-201 0q5 0 5 5v8q0 5 5 5h176q5 0 5-5v-8q0-5 5-5m5 0h10m25 0h10m27 0h10m59 0h5"/><rect class="l" x="5" y="5" width="57" height="24" rx="7"/><text class="j" x="15" y="21">range</text><rect class="l" x="72" y="5" width="25" height="24" rx="7"/><text class="j" x="82" y="21">(</text><a xlink:href="#integer:start"><rect class="r" x="127" y="5" width="99" height="24"/><text class="j" x="137" y="21">integer:start</text></a><rect class="l" x="236" y="5" width="24" height="24" rx="7"/><text class="j" x="246" y="21">,</text><a xlink:href="#integer:end"><rect class="r" x="290" y="5" width="93" height="24"/><text class="j" x="300" y="21">integer:end</text></a><rect class="l" x="413" y="5" width="24" height="24" rx="7"/><text class="j" x="423" y="21">,</text><a xlink:href="#integer:increment"><rect class="r" x="447" y="5" width="132" height="24"/><text class="j" x="457" y="21">integer:increment</text></a><rect class="l" x="609" y="5" width="25" height="24" rx="7"/><text class="j" x="619" y="21">)</text><rect class="l" x="644" y="5" width="27" height="24" rx="7"/><text class="j" x="654" y="21">»</text><a xlink:href="#vector"><rect class="r" x="681" y="5" width="59" height="24"/><text class="j" x="691" y="21">vector</text></a></svg>