<svg version="1.1" xmlns:xlink="http://www.w3.org/1999/xlink" xmlns="http://www.w3.org/2000/svg" width="748" height="50" viewbox="0 0 748 50"><defs><style type="text/css">.c{fill: none; stroke: #888888; stroke-width: 2px;}.j{fill:#000000;font-family:Verdana,Sans-serif;font-size:12px;}.l{fill:#90d9ff;stroke:#222222;}.r{fill:#d3f0ff;stroke:#222222;}</style></defs><path class="c" d="M0 18h5m57 0h10m25 0h30m100 0h10m24 0h20m-169 0q5 0 5 5v8q0 5 5 5h144q5 0 5-5v-8q0-5 5-5m5 0h10m94 0h30m24 0h10m132 0h20m-201 0q5 0 5 5v8q0 5 5 5h176q5 0 5-5v-8q0-5 5-5m5 0h10m25 0h10m28 0h10m59 0h5"/><rect class="l" x="5" y="5" width="57" height="25" rx="7"/><text class="j" x="15" y="22">range</text><rect class="l" x="72" y="5" width="25" height="25" rx="7"/><text class="j" x="82" y="22">(</text><a xlink:href="#integer:start"><rect class="r" x="127" y="5" width="100" height="25"/><text class="j" x="137" y="22">integer:start</text></a><rect class="l" x="237" y="5" width="24" height="25" rx="7"/><text class="j" x="247" y="22">,</text><a xlink:href="#integer:end"><rect class="r" x="291" y="5" width="94" height="25"/><text class="j" x="301" y="22">integer:end</text></a><rect class="l" x="415" y="5" width="24" height="25" rx="7"/><text class="j" x="425" y="22">,</text><a xlink:href="#integer:increment"><rect class="r" x="449" y="5" width="132" height="25"/><text class="j" x="459" y="22">integer:increment</text></a><rect class="l" x="611" y="5" width="25" height="25" rx="7"/><text class="j" x="621" y="22">)</text><rect class="l" x="646" y="5" width="28" height="25" rx="7"/><text class="j" x="656" y="22">»</text><a xlink:href="#vector"><rect class="r" x="684" y="5" width="59" height="25"/><text class="j" x="694" y="22">vector</text></a></svg>