<svg version="1.1" xmlns:xlink="http://www.w3.org/1999/xlink" xmlns="http://www.w3.org/2000/svg" width="661" height="50" viewbox="0 0 661 50"><defs><style type="text/css">.c{fill: none; stroke: #888888; stroke-width: 2px;}.j{fill:#000000;font-family:Verdana,Sans-serif;font-size:12px;}.l{fill:#90d9ff;stroke:#222222;}.r{fill:#d3f0ff;stroke:#222222;}</style></defs><path class="c" d="M0 18h5m25 0h10m54 0h30m95 0h20m-130 0q5 0 5 5v8q0 5 5 5h105q5 0 5-5v-8q0-5 5-5m5 0h10m89 0h30m128 0h20m-163 0q5 0 5 5v8q0 5 5 5h138q5 0 5-5v-8q0-5 5-5m5 0h10m25 0h10m28 0h10m57 0h5"/><rect class="l" x="5" y="5" width="25" height="25" rx="7"/><text class="j" x="15" y="22">(</text><rect class="l" x="40" y="5" width="54" height="25" rx="7"/><text class="j" x="50" y="22">range</text><a xlink:href="#integer:start"><rect class="r" x="124" y="5" width="95" height="25"/><text class="j" x="134" y="22">integer:start</text></a><a xlink:href="#integer:end"><rect class="r" x="249" y="5" width="89" height="25"/><text class="j" x="259" y="22">integer:end</text></a><a xlink:href="#integer:increment"><rect class="r" x="368" y="5" width="128" height="25"/><text class="j" x="378" y="22">integer:increment</text></a><rect class="l" x="526" y="5" width="25" height="25" rx="7"/><text class="j" x="536" y="22">)</text><rect class="l" x="561" y="5" width="28" height="25" rx="7"/><text class="j" x="571" y="22">»</text><a xlink:href="#vector"><rect class="r" x="599" y="5" width="57" height="25"/><text class="j" x="609" y="22">vector</text></a></svg>