<svg version="1.1" xmlns:xlink="http://www.w3.org/1999/xlink" xmlns="http://www.w3.org/2000/svg" width="992" height="34" viewbox="0 0 992 34"><defs><style type="text/css">.c{fill: none; stroke: #888888; stroke-width: 3pt;}.j{fill:#000000;font-family:Dialog,Sans-serif;font-size:12px;}.l{fill:#90d9ff;stroke:#222222;}.r{fill:#d3f0ff;stroke:#222222;}</style></defs><path class="c" d="M0 21h5m64 0h10m25 0h10m145 0h10m30 0h10m158 0h10m24 0h10m118 0h10m31 0h10m59 0h10m25 0h10m114 0h10m27 0h10m42 0h5"/><rect class="l" x="5" y="5" width="64" height="24" rx="7"/><text class="j" x="15" y="21">reduce</text><rect class="l" x="79" y="5" width="25" height="24" rx="7"/><text class="j" x="89" y="21">(</text><a xlink:href="#symbol:accumulator"><rect class="r" x="114" y="5" width="145" height="24"/><text class="j" x="124" y="21">symbol:accumulator</text></a><rect class="l" x="269" y="5" width="30" height="24" rx="7"/><text class="j" x="279" y="21">=</text><a xlink:href="#value:accumulator-init"><rect class="r" x="309" y="5" width="158" height="24"/><text class="j" x="319" y="21">value:accumulator-init</text></a><rect class="l" x="477" y="5" width="24" height="24" rx="7"/><text class="j" x="487" y="21">;</text><a xlink:href="#symbol:element"><rect class="r" x="511" y="5" width="118" height="24"/><text class="j" x="521" y="21">symbol:element</text></a><rect class="l" x="639" y="5" width="31" height="24" rx="7"/><text class="j" x="649" y="21">in</text><a xlink:href="#vector"><rect class="r" x="680" y="5" width="59" height="24"/><text class="j" x="690" y="21">vector</text></a><rect class="l" x="749" y="5" width="25" height="24" rx="7"/><text class="j" x="759" y="21">)</text><a xlink:href="#any-expression"><rect class="r" x="784" y="5" width="114" height="24"/><text class="j" x="794" y="21">any-expression</text></a><rect class="l" x="908" y="5" width="27" height="24" rx="7"/><text class="j" x="918" y="21">»</text><a xlink:href="#any"><rect class="r" x="945" y="5" width="42" height="24"/><text class="j" x="955" y="21">any</text></a></svg>