<svg version="1.1" xmlns:xlink="http://www.w3.org/1999/xlink" xmlns="http://www.w3.org/2000/svg" width="999" height="35" viewbox="0 0 999 35"><defs><style type="text/css">.c{fill: none; stroke: #888888; stroke-width: 2px;}.j{fill:#000000;font-family:Verdana,Sans-serif;font-size:12px;}.l{fill:#90d9ff;stroke:#222222;}.r{fill:#d3f0ff;stroke:#222222;}</style></defs><path class="c" d="M0 18h5m25 0h10m60 0h10m25 0h10m141 0h10m155 0h10m25 0h10m25 0h10m116 0h10m57 0h10m25 0h10m110 0h10m25 0h10m28 0h10m42 0h5"/><rect class="l" x="5" y="5" width="25" height="25" rx="7"/><text class="j" x="15" y="22">(</text><rect class="l" x="40" y="5" width="60" height="25" rx="7"/><text class="j" x="50" y="22">reduce</text><rect class="l" x="110" y="5" width="25" height="25" rx="7"/><text class="j" x="120" y="22">[</text><a xlink:href="#symbol:accumulator"><rect class="r" x="145" y="5" width="141" height="25"/><text class="j" x="155" y="22">symbol:accumulator</text></a><a xlink:href="#value:accumulator-init"><rect class="r" x="296" y="5" width="155" height="25"/><text class="j" x="306" y="22">value:accumulator-init</text></a><rect class="l" x="461" y="5" width="25" height="25" rx="7"/><text class="j" x="471" y="22">]</text><rect class="l" x="496" y="5" width="25" height="25" rx="7"/><text class="j" x="506" y="22">[</text><a xlink:href="#symbol:element"><rect class="r" x="531" y="5" width="116" height="25"/><text class="j" x="541" y="22">symbol:element</text></a><a xlink:href="#vector"><rect class="r" x="657" y="5" width="57" height="25"/><text class="j" x="667" y="22">vector</text></a><rect class="l" x="724" y="5" width="25" height="25" rx="7"/><text class="j" x="734" y="22">]</text><a xlink:href="#any-expression"><rect class="r" x="759" y="5" width="110" height="25"/><text class="j" x="769" y="22">any-expression</text></a><rect class="l" x="879" y="5" width="25" height="25" rx="7"/><text class="j" x="889" y="22">)</text><rect class="l" x="914" y="5" width="28" height="25" rx="7"/><text class="j" x="924" y="22">»</text><a xlink:href="#any"><rect class="r" x="952" y="5" width="42" height="25"/><text class="j" x="962" y="22">any</text></a></svg>