<svg version="1.1" xmlns:xlink="http://www.w3.org/1999/xlink" xmlns="http://www.w3.org/2000/svg" width="975" height="35" viewbox="0 0 975 35"><defs><style type="text/css">.c{fill: none; stroke: #888888; stroke-width: 2px;}.j{fill:#000000;font-family:Verdana,Sans-serif;font-size:12px;}.l{fill:#90d9ff;stroke:#222222;}.r{fill:#d3f0ff;stroke:#222222;}</style></defs><path class="c" d="M0 18h5m60 0h10m25 0h10m141 0h10m30 0h10m155 0h10m25 0h10m116 0h10m31 0h10m57 0h10m25 0h10m110 0h10m28 0h10m42 0h5"/><rect class="l" x="5" y="5" width="60" height="25" rx="7"/><text class="j" x="15" y="22">reduce</text><rect class="l" x="75" y="5" width="25" height="25" rx="7"/><text class="j" x="85" y="22">(</text><a xlink:href="#symbol:accumulator"><rect class="r" x="110" y="5" width="141" height="25"/><text class="j" x="120" y="22">symbol:accumulator</text></a><rect class="l" x="261" y="5" width="30" height="25" rx="7"/><text class="j" x="271" y="22">=</text><a xlink:href="#value:accumulator-init"><rect class="r" x="301" y="5" width="155" height="25"/><text class="j" x="311" y="22">value:accumulator-init</text></a><rect class="l" x="466" y="5" width="25" height="25" rx="7"/><text class="j" x="476" y="22">;</text><a xlink:href="#symbol:element"><rect class="r" x="501" y="5" width="116" height="25"/><text class="j" x="511" y="22">symbol:element</text></a><rect class="l" x="627" y="5" width="31" height="25" rx="7"/><text class="j" x="637" y="22">in</text><a xlink:href="#vector"><rect class="r" x="668" y="5" width="57" height="25"/><text class="j" x="678" y="22">vector</text></a><rect class="l" x="735" y="5" width="25" height="25" rx="7"/><text class="j" x="745" y="22">)</text><a xlink:href="#any-expression"><rect class="r" x="770" y="5" width="110" height="25"/><text class="j" x="780" y="22">any-expression</text></a><rect class="l" x="890" y="5" width="28" height="25" rx="7"/><text class="j" x="900" y="22">»</text><a xlink:href="#any"><rect class="r" x="928" y="5" width="42" height="25"/><text class="j" x="938" y="22">any</text></a></svg>