<svg version="1.1" xmlns:xlink="http://www.w3.org/1999/xlink" xmlns="http://www.w3.org/2000/svg" width="1039" height="65" viewbox="0 0 1039 65"><defs><style type="text/css">.c{fill:none;stroke:#222222;}.j{fill:#000000;font-family:Verdana,Sans-serif;font-size:12px;}.l{fill:#90d9ff;stroke:#222222;}.r{fill:#d3f0ff;stroke:#222222;}</style></defs><path class="c" d="M0 22h5m63 0h10m25 0h10m145 0h10m29 0h10m159 0h10m25 0h10m120 0h10m31 0h30m40 0h39m-94 0q5 0 5 5v20q0 5 5 5h5m59 0h5q5 0 5-5v-20q0-5 5-5m5 0h10m25 0h10m117 0h10m28 0h10m43 0h5"/><rect class="l" x="5" y="5" width="63" height="25" rx="7"/><text class="j" x="15" y="22">reduce</text><rect class="l" x="78" y="5" width="25" height="25" rx="7"/><text class="j" x="88" y="22">(</text><a xlink:href="#symbol:accumulator"><rect class="r" x="113" y="5" width="145" height="25"/><text class="j" x="123" y="22">symbol:accumulator</text></a><rect class="l" x="268" y="5" width="29" height="25" rx="7"/><text class="j" x="278" y="22">=</text><a xlink:href="#value:accumulator-init"><rect class="r" x="307" y="5" width="159" height="25"/><text class="j" x="317" y="22">value:accumulator-init</text></a><rect class="l" x="476" y="5" width="25" height="25" rx="7"/><text class="j" x="486" y="22">;</text><a xlink:href="#symbol:element"><rect class="r" x="511" y="5" width="120" height="25"/><text class="j" x="521" y="22">symbol:element</text></a><rect class="l" x="641" y="5" width="31" height="25" rx="7"/><text class="j" x="651" y="22">in</text><a xlink:href="#set"><rect class="r" x="702" y="5" width="40" height="25"/><text class="j" x="712" y="22">set</text></a><a xlink:href="#vector"><rect class="r" x="702" y="35" width="59" height="25"/><text class="j" x="712" y="52">vector</text></a><rect class="l" x="791" y="5" width="25" height="25" rx="7"/><text class="j" x="801" y="22">)</text><a xlink:href="#any-expression"><rect class="r" x="826" y="5" width="117" height="25"/><text class="j" x="836" y="22">any-expression</text></a><rect class="l" x="953" y="5" width="28" height="25" rx="7"/><text class="j" x="963" y="22">»</text><a xlink:href="#any"><rect class="r" x="991" y="5" width="43" height="25"/><text class="j" x="1001" y="22">any</text></a></svg>