<svg version="1.1" xmlns:xlink="http://www.w3.org/1999/xlink" xmlns="http://www.w3.org/2000/svg" width="1017" height="34" viewbox="0 0 1017 34"><defs><style type="text/css">.c{fill: none; stroke: #888888; stroke-width: 3pt;}.j{fill:#000000;font-family:Dialog,Sans-serif;font-size:12px;}.l{fill:#90d9ff;stroke:#222222;}.r{fill:#d3f0ff;stroke:#222222;}</style></defs><path class="c" d="M0 21h5m25 0h10m64 0h10m25 0h10m145 0h10m158 0h10m25 0h10m25 0h10m118 0h10m59 0h10m25 0h10m114 0h10m25 0h10m27 0h10m42 0h5"/><rect class="l" x="5" y="5" width="25" height="24" rx="7"/><text class="j" x="15" y="21">(</text><rect class="l" x="40" y="5" width="64" height="24" rx="7"/><text class="j" x="50" y="21">reduce</text><rect class="l" x="114" y="5" width="25" height="24" rx="7"/><text class="j" x="124" y="21">[</text><a xlink:href="#symbol:accumulator"><rect class="r" x="149" y="5" width="145" height="24"/><text class="j" x="159" y="21">symbol:accumulator</text></a><a xlink:href="#value:accumulator-init"><rect class="r" x="304" y="5" width="158" height="24"/><text class="j" x="314" y="21">value:accumulator-init</text></a><rect class="l" x="472" y="5" width="25" height="24" rx="7"/><text class="j" x="482" y="21">]</text><rect class="l" x="507" y="5" width="25" height="24" rx="7"/><text class="j" x="517" y="21">[</text><a xlink:href="#symbol:element"><rect class="r" x="542" y="5" width="118" height="24"/><text class="j" x="552" y="21">symbol:element</text></a><a xlink:href="#vector"><rect class="r" x="670" y="5" width="59" height="24"/><text class="j" x="680" y="21">vector</text></a><rect class="l" x="739" y="5" width="25" height="24" rx="7"/><text class="j" x="749" y="21">]</text><a xlink:href="#any-expression"><rect class="r" x="774" y="5" width="114" height="24"/><text class="j" x="784" y="21">any-expression</text></a><rect class="l" x="898" y="5" width="25" height="24" rx="7"/><text class="j" x="908" y="21">)</text><rect class="l" x="933" y="5" width="27" height="24" rx="7"/><text class="j" x="943" y="21">»</text><a xlink:href="#any"><rect class="r" x="970" y="5" width="42" height="24"/><text class="j" x="980" y="21">any</text></a></svg>