<svg version="1.1" xmlns:xlink="http://www.w3.org/1999/xlink" xmlns="http://www.w3.org/2000/svg" width="1064" height="65" viewbox="0 0 1064 65"><defs><style type="text/css">.c{fill:none;stroke:#222222;}.j{fill:#000000;font-family:Verdana,Sans-serif;font-size:12px;}.l{fill:#90d9ff;stroke:#222222;}.r{fill:#d3f0ff;stroke:#222222;}</style></defs><path class="c" d="M0 22h5m25 0h10m63 0h10m25 0h10m145 0h10m159 0h10m25 0h10m25 0h10m120 0h30m40 0h39m-94 0q5 0 5 5v20q0 5 5 5h5m59 0h5q5 0 5-5v-20q0-5 5-5m5 0h10m25 0h10m117 0h10m25 0h10m28 0h10m43 0h5"/><rect class="l" x="5" y="5" width="25" height="25" rx="7"/><text class="j" x="15" y="22">(</text><rect class="l" x="40" y="5" width="63" height="25" rx="7"/><text class="j" x="50" y="22">reduce</text><rect class="l" x="113" y="5" width="25" height="25" rx="7"/><text class="j" x="123" y="22">[</text><a xlink:href="#symbol:accumulator"><rect class="r" x="148" y="5" width="145" height="25"/><text class="j" x="158" y="22">symbol:accumulator</text></a><a xlink:href="#value:accumulator-init"><rect class="r" x="303" y="5" width="159" height="25"/><text class="j" x="313" y="22">value:accumulator-init</text></a><rect class="l" x="472" y="5" width="25" height="25" rx="7"/><text class="j" x="482" y="22">]</text><rect class="l" x="507" y="5" width="25" height="25" rx="7"/><text class="j" x="517" y="22">[</text><a xlink:href="#symbol:element"><rect class="r" x="542" y="5" width="120" height="25"/><text class="j" x="552" y="22">symbol:element</text></a><a xlink:href="#set"><rect class="r" x="692" y="5" width="40" height="25"/><text class="j" x="702" y="22">set</text></a><a xlink:href="#vector"><rect class="r" x="692" y="35" width="59" height="25"/><text class="j" x="702" y="52">vector</text></a><rect class="l" x="781" y="5" width="25" height="25" rx="7"/><text class="j" x="791" y="22">]</text><a xlink:href="#any-expression"><rect class="r" x="816" y="5" width="117" height="25"/><text class="j" x="826" y="22">any-expression</text></a><rect class="l" x="943" y="5" width="25" height="25" rx="7"/><text class="j" x="953" y="22">)</text><rect class="l" x="978" y="5" width="28" height="25" rx="7"/><text class="j" x="988" y="22">»</text><a xlink:href="#any"><rect class="r" x="1016" y="5" width="43" height="25"/><text class="j" x="1026" y="22">any</text></a></svg>