<svg version="1.1" xmlns:xlink="http://www.w3.org/1999/xlink" xmlns="http://www.w3.org/2000/svg" width="1024" height="35" viewbox="0 0 1024 35"><defs><style type="text/css">.c{fill: none; stroke: #888888; stroke-width: 2px;}.j{fill:#000000;font-family:Verdana,Sans-serif;font-size:12px;}.l{fill:#90d9ff;stroke:#222222;}.r{fill:#d3f0ff;stroke:#222222;}</style></defs><path class="c" d="M0 18h5m25 0h10m63 0h10m25 0h10m145 0h10m159 0h10m25 0h10m25 0h10m120 0h10m59 0h10m25 0h10m117 0h10m25 0h10m28 0h10m43 0h5"/><rect class="l" x="5" y="5" width="25" height="25" rx="7"/><text class="j" x="15" y="22">(</text><rect class="l" x="40" y="5" width="63" height="25" rx="7"/><text class="j" x="50" y="22">reduce</text><rect class="l" x="113" y="5" width="25" height="25" rx="7"/><text class="j" x="123" y="22">[</text><a xlink:href="#symbol:accumulator"><rect class="r" x="148" y="5" width="145" height="25"/><text class="j" x="158" y="22">symbol:accumulator</text></a><a xlink:href="#value:accumulator-init"><rect class="r" x="303" y="5" width="159" height="25"/><text class="j" x="313" y="22">value:accumulator-init</text></a><rect class="l" x="472" y="5" width="25" height="25" rx="7"/><text class="j" x="482" y="22">]</text><rect class="l" x="507" y="5" width="25" height="25" rx="7"/><text class="j" x="517" y="22">[</text><a xlink:href="#symbol:element"><rect class="r" x="542" y="5" width="120" height="25"/><text class="j" x="552" y="22">symbol:element</text></a><a xlink:href="#vector"><rect class="r" x="672" y="5" width="59" height="25"/><text class="j" x="682" y="22">vector</text></a><rect class="l" x="741" y="5" width="25" height="25" rx="7"/><text class="j" x="751" y="22">]</text><a xlink:href="#any-expression"><rect class="r" x="776" y="5" width="117" height="25"/><text class="j" x="786" y="22">any-expression</text></a><rect class="l" x="903" y="5" width="25" height="25" rx="7"/><text class="j" x="913" y="22">)</text><rect class="l" x="938" y="5" width="28" height="25" rx="7"/><text class="j" x="948" y="22">»</text><a xlink:href="#any"><rect class="r" x="976" y="5" width="43" height="25"/><text class="j" x="986" y="22">any</text></a></svg>