<svg version="1.1" xmlns:xlink="http://www.w3.org/1999/xlink" xmlns="http://www.w3.org/2000/svg" width="507" height="35" viewbox="0 0 507 35"><defs><style type="text/css">.c{fill: none; stroke: #888888; stroke-width: 2px;}.i{fill:#000000;font-family:Verdana,Sans-serif;font-size:12px;}.l{fill:#90d9ff;stroke:#222222;}.r{fill:#d3f0ff;stroke:#222222;}</style></defs><path class="c" d="M0 18h5m70 0h10m24 0h10m81 0h10m25 0h10m108 0h10m25 0h10m28 0h10m66 0h5"/><a xlink:href="#instance"><rect class="r" x="5" y="5" width="70" height="25"/><text class="i" x="15" y="22">instance</text></a><rect class="l" x="85" y="5" width="24" height="25" rx="7"/><text class="i" x="95" y="22">.</text><rect class="l" x="119" y="5" width="81" height="25" rx="7"/><text class="i" x="129" y="22">refinesTo?</text><rect class="l" x="210" y="5" width="25" height="25" rx="7"/><text class="i" x="220" y="22">(</text><a xlink:href="#symbol:spec-id"><rect class="r" x="245" y="5" width="108" height="25"/><text class="i" x="255" y="22">symbol:spec-id</text></a><rect class="l" x="363" y="5" width="25" height="25" rx="7"/><text class="i" x="373" y="22">)</text><rect class="l" x="398" y="5" width="28" height="25" rx="7"/><text class="i" x="408" y="22">»</text><a xlink:href="#boolean"><rect class="r" x="436" y="5" width="66" height="25"/><text class="i" x="446" y="22">boolean</text></a></svg>