<!--
refine-to0 = '(''refine-to' instance keyword:spec-id')' '»' instance;
-->
<svg version="1.1" xmlns:xlink="http://www.w3.org/1999/xlink" xmlns="http://www.w3.org/2000/svg" width="492" height="35" viewbox="0 0 492 35"><defs><style type="text/css">.c{fill: none; stroke: #888888; stroke-width: 2px;}.j{fill:#000000;font-family:Verdana,Sans-serif;font-size:12px;}.l{fill:#90d9ff;stroke:#222222;}.r{fill:#d3f0ff;stroke:#222222;}</style></defs><path class="c" d="M0 18h5m25 0h10m74 0h10m73 0h10m124 0h10m25 0h10m28 0h10m73 0h5"/><rect class="l" x="5" y="5" width="25" height="25" rx="7"/><text class="j" x="15" y="22">(</text><rect class="l" x="40" y="5" width="74" height="25" rx="7"/><text class="j" x="50" y="22">refine-to</text><a xlink:href="#instance"><rect class="r" x="124" y="5" width="73" height="25"/><text class="j" x="134" y="22">instance</text></a><a xlink:href="#keyword:spec-id"><rect class="r" x="207" y="5" width="124" height="25"/><text class="j" x="217" y="22">keyword:spec-id</text></a><rect class="l" x="341" y="5" width="25" height="25" rx="7"/><text class="j" x="351" y="22">)</text><rect class="l" x="376" y="5" width="28" height="25" rx="7"/><text class="j" x="386" y="22">»</text><a xlink:href="#instance"><rect class="r" x="414" y="5" width="73" height="25"/><text class="j" x="424" y="22">instance</text></a></svg>