<svg version="1.1" xmlns:xlink="http://www.w3.org/1999/xlink" xmlns="http://www.w3.org/2000/svg" width="522" height="34" viewbox="0 0 522 34"><defs><style type="text/css">.c{fill: none; stroke: #888888; stroke-width: 3pt;}.i{fill:#000000;font-family:Dialog,Sans-serif;font-size:12px;}.l{fill:#90d9ff;stroke:#222222;}.r{fill:#d3f0ff;stroke:#222222;}</style></defs><path class="c" d="M0 21h5m74 0h10m24 0h10m84 0h10m25 0h10m112 0h10m25 0h10m27 0h10m71 0h5"/><a xlink:href="#instance"><rect class="r" x="5" y="5" width="74" height="24"/><text class="i" x="15" y="21">instance</text></a><rect class="l" x="89" y="5" width="24" height="24" rx="7"/><text class="i" x="99" y="21">.</text><rect class="l" x="123" y="5" width="84" height="24" rx="7"/><text class="i" x="133" y="21">refinesTo?</text><rect class="l" x="217" y="5" width="25" height="24" rx="7"/><text class="i" x="227" y="21">(</text><a xlink:href="#symbol:spec-id"><rect class="r" x="252" y="5" width="112" height="24"/><text class="i" x="262" y="21">symbol:spec-id</text></a><rect class="l" x="374" y="5" width="25" height="24" rx="7"/><text class="i" x="384" y="21">)</text><rect class="l" x="409" y="5" width="27" height="24" rx="7"/><text class="i" x="419" y="21">»</text><a xlink:href="#boolean"><rect class="r" x="446" y="5" width="71" height="24"/><text class="i" x="456" y="21">boolean</text></a></svg>