<svg version="1.1" xmlns:xlink="http://www.w3.org/1999/xlink" xmlns="http://www.w3.org/2000/svg" width="488" height="34" viewbox="0 0 488 34"><defs><style type="text/css">.c{fill: none; stroke: #888888; stroke-width: 3pt;}.j{fill:#000000;font-family:Dialog,Sans-serif;font-size:12px;}.l{fill:#90d9ff;stroke:#222222;}.r{fill:#d3f0ff;stroke:#222222;}</style></defs><path class="c" d="M0 21h5m25 0h10m73 0h10m74 0h10m120 0h10m25 0h10m27 0h10m74 0h5"/><rect class="l" x="5" y="5" width="25" height="24" rx="7"/><text class="j" x="15" y="21">(</text><rect class="l" x="40" y="5" width="73" height="24" rx="7"/><text class="j" x="50" y="21">refine-to</text><a xlink:href="#instance"><rect class="r" x="123" y="5" width="74" height="24"/><text class="j" x="133" y="21">instance</text></a><a xlink:href="#keyword:spec-id"><rect class="r" x="207" y="5" width="120" height="24"/><text class="j" x="217" y="21">keyword:spec-id</text></a><rect class="l" x="337" y="5" width="25" height="24" rx="7"/><text class="j" x="347" y="21">)</text><rect class="l" x="372" y="5" width="27" height="24" rx="7"/><text class="j" x="382" y="21">»</text><a xlink:href="#instance"><rect class="r" x="409" y="5" width="74" height="24"/><text class="j" x="419" y="21">instance</text></a></svg>