<!--
refineTo0 = ( instance '.' 'refineTo' '(' symbol:spec-id ')' '»' instance )
-->
<svg version="1.1" xmlns:xlink="http://www.w3.org/1999/xlink" xmlns="http://www.w3.org/2000/svg" width="513" height="35" viewbox="0 0 513 35"><defs><style type="text/css">.c{fill: none; stroke: #888888; stroke-width: 2px;}.i{fill:#000000;font-family:Verdana,Sans-serif;font-size:12px;}.l{fill:#90d9ff;stroke:#222222;}.r{fill:#d3f0ff;stroke:#222222;}</style></defs><path class="c" d="M0 18h5m73 0h10m24 0h10m71 0h10m25 0h10m114 0h10m25 0h10m28 0h10m73 0h5"/><a xlink:href="#instance"><rect class="r" x="5" y="5" width="73" height="25"/><text class="i" x="15" y="22">instance</text></a><rect class="l" x="88" y="5" width="24" height="25" rx="7"/><text class="i" x="98" y="22">.</text><rect class="l" x="122" y="5" width="71" height="25" rx="7"/><text class="i" x="132" y="22">refineTo</text><rect class="l" x="203" y="5" width="25" height="25" rx="7"/><text class="i" x="213" y="22">(</text><a xlink:href="#symbol:spec-id"><rect class="r" x="238" y="5" width="114" height="25"/><text class="i" x="248" y="22">symbol:spec-id</text></a><rect class="l" x="362" y="5" width="25" height="25" rx="7"/><text class="i" x="372" y="22">)</text><rect class="l" x="397" y="5" width="28" height="25" rx="7"/><text class="i" x="407" y="22">»</text><a xlink:href="#instance"><rect class="r" x="435" y="5" width="73" height="25"/><text class="i" x="445" y="22">instance</text></a></svg>