<!--
refines-to?0 = '(''refines-to?' instance keyword:spec-id')' '»' boolean;
-->
<svg version="1.1" xmlns:xlink="http://www.w3.org/1999/xlink" xmlns="http://www.w3.org/2000/svg" width="504" height="35" viewbox="0 0 504 35"><defs><style type="text/css">.c{fill: none; stroke: #888888; stroke-width: 2px;}.j{fill:#000000;font-family:Verdana,Sans-serif;font-size:12px;}.l{fill:#90d9ff;stroke:#222222;}.r{fill:#d3f0ff;stroke:#222222;}</style></defs><path class="c" d="M0 18h5m25 0h10m88 0h10m73 0h10m124 0h10m25 0h10m28 0h10m71 0h5"/><rect class="l" x="5" y="5" width="25" height="25" rx="7"/><text class="j" x="15" y="22">(</text><rect class="l" x="40" y="5" width="88" height="25" rx="7"/><text class="j" x="50" y="22">refines-to?</text><a xlink:href="#instance"><rect class="r" x="138" y="5" width="73" height="25"/><text class="j" x="148" y="22">instance</text></a><a xlink:href="#keyword:spec-id"><rect class="r" x="221" y="5" width="124" height="25"/><text class="j" x="231" y="22">keyword:spec-id</text></a><rect class="l" x="355" y="5" width="25" height="25" rx="7"/><text class="j" x="365" y="22">)</text><rect class="l" x="390" y="5" width="28" height="25" rx="7"/><text class="j" x="400" y="22">»</text><a xlink:href="#boolean"><rect class="r" x="428" y="5" width="71" height="25"/><text class="j" x="438" y="22">boolean</text></a></svg>