<svg version="1.1" xmlns:xlink="http://www.w3.org/1999/xlink" xmlns="http://www.w3.org/2000/svg" width="484" height="35" viewbox="0 0 484 35"><defs><style type="text/css">.c{fill: none; stroke: #888888; stroke-width: 2px;}.j{fill:#000000;font-family:Verdana,Sans-serif;font-size:12px;}.l{fill:#90d9ff;stroke:#222222;}.r{fill:#d3f0ff;stroke:#222222;}</style></defs><path class="c" d="M0 18h5m25 0h10m84 0h10m70 0h10m116 0h10m25 0h10m28 0h10m66 0h5"/><rect class="l" x="5" y="5" width="25" height="25" rx="7"/><text class="j" x="15" y="22">(</text><rect class="l" x="40" y="5" width="84" height="25" rx="7"/><text class="j" x="50" y="22">refines-to?</text><a xlink:href="#instance"><rect class="r" x="134" y="5" width="70" height="25"/><text class="j" x="144" y="22">instance</text></a><a xlink:href="#keyword:spec-id"><rect class="r" x="214" y="5" width="116" height="25"/><text class="j" x="224" y="22">keyword:spec-id</text></a><rect class="l" x="340" y="5" width="25" height="25" rx="7"/><text class="j" x="350" y="22">)</text><rect class="l" x="375" y="5" width="28" height="25" rx="7"/><text class="j" x="385" y="22">»</text><a xlink:href="#boolean"><rect class="r" x="413" y="5" width="66" height="25"/><text class="j" x="423" y="22">boolean</text></a></svg>