<svg version="1.1" xmlns:xlink="http://www.w3.org/1999/xlink" xmlns="http://www.w3.org/2000/svg" width="554" height="63" viewbox="0 0 554 63"><defs><style type="text/css">.c{fill: none; stroke: #888888; stroke-width: 3pt;}.j{fill:#000000;font-family:Dialog,Sans-serif;font-size:12px;}.l{fill:#90d9ff;stroke:#222222;}.r{fill:#d3f0ff;stroke:#222222;}</style></defs><path class="c" d="M0 21h5m66 0h10m25 0h10m101 0h10m24 0h10m65 0h10m25 0h10m27 0h30m101 0h20m-136 0q5 0 5 5v19q0 5 5 5h5m65 0h41q5 0 5-5v-19q0-5 5-5m5 0h5"/><rect class="l" x="5" y="5" width="66" height="24" rx="7"/><text class="j" x="15" y="21">rescale</text><rect class="l" x="81" y="5" width="25" height="24" rx="7"/><text class="j" x="91" y="21">(</text><a xlink:href="#fixed-decimal"><rect class="r" x="116" y="5" width="101" height="24"/><text class="j" x="126" y="21">fixed-decimal</text></a><rect class="l" x="227" y="5" width="24" height="24" rx="7"/><text class="j" x="237" y="21">,</text><a xlink:href="#integer"><rect class="r" x="261" y="5" width="65" height="24"/><text class="j" x="271" y="21">integer</text></a><rect class="l" x="336" y="5" width="25" height="24" rx="7"/><text class="j" x="346" y="21">)</text><rect class="l" x="371" y="5" width="27" height="24" rx="7"/><text class="j" x="381" y="21">»</text><a xlink:href="#fixed-decimal"><rect class="r" x="428" y="5" width="101" height="24"/><text class="j" x="438" y="21">fixed-decimal</text></a><a xlink:href="#integer"><rect class="r" x="428" y="34" width="65" height="24"/><text class="j" x="438" y="50">integer</text></a></svg>