<svg version="1.1" xmlns:xlink="http://www.w3.org/1999/xlink" xmlns="http://www.w3.org/2000/svg" width="591" height="65" viewbox="0 0 591 65"><defs><style type="text/css">.c{fill:none;stroke:#222222;}.j{fill:#000000;font-family:Verdana,Sans-serif;font-size:12px;}.l{fill:#90d9ff;stroke:#222222;}.r{fill:#d3f0ff;stroke:#222222;}</style></defs><path class="c" d="M0 22h5m25 0h10m65 0h10m102 0h10m134 0h10m25 0h10m28 0h30m102 0h20m-137 0q5 0 5 5v20q0 5 5 5h5m65 0h42q5 0 5-5v-20q0-5 5-5m5 0h5"/><rect class="l" x="5" y="5" width="25" height="25" rx="7"/><text class="j" x="15" y="22">(</text><rect class="l" x="40" y="5" width="65" height="25" rx="7"/><text class="j" x="50" y="22">rescale</text><a xlink:href="#fixed-decimal"><rect class="r" x="115" y="5" width="102" height="25"/><text class="j" x="125" y="22">fixed-decimal</text></a><a xlink:href="#integer:new-scale"><rect class="r" x="227" y="5" width="134" height="25"/><text class="j" x="237" y="22">integer:new-scale</text></a><rect class="l" x="371" y="5" width="25" height="25" rx="7"/><text class="j" x="381" y="22">)</text><rect class="l" x="406" y="5" width="28" height="25" rx="7"/><text class="j" x="416" y="22">»</text><a xlink:href="#fixed-decimal"><rect class="r" x="464" y="5" width="102" height="25"/><text class="j" x="474" y="22">fixed-decimal</text></a><a xlink:href="#integer"><rect class="r" x="464" y="35" width="65" height="25"/><text class="j" x="474" y="52">integer</text></a></svg>