<svg version="1.1" xmlns:xlink="http://www.w3.org/1999/xlink" xmlns="http://www.w3.org/2000/svg" width="586" height="63" viewbox="0 0 586 63"><defs><style type="text/css">.c{fill: none; stroke: #888888; stroke-width: 3pt;}.j{fill:#000000;font-family:Dialog,Sans-serif;font-size:12px;}.l{fill:#90d9ff;stroke:#222222;}.r{fill:#d3f0ff;stroke:#222222;}</style></defs><path class="c" d="M0 21h5m25 0h10m66 0h10m101 0h10m131 0h10m25 0h10m27 0h30m101 0h20m-136 0q5 0 5 5v19q0 5 5 5h5m65 0h41q5 0 5-5v-19q0-5 5-5m5 0h5"/><rect class="l" x="5" y="5" width="25" height="24" rx="7"/><text class="j" x="15" y="21">(</text><rect class="l" x="40" y="5" width="66" height="24" rx="7"/><text class="j" x="50" y="21">rescale</text><a xlink:href="#fixed-decimal"><rect class="r" x="116" y="5" width="101" height="24"/><text class="j" x="126" y="21">fixed-decimal</text></a><a xlink:href="#integer:new-scale"><rect class="r" x="227" y="5" width="131" height="24"/><text class="j" x="237" y="21">integer:new-scale</text></a><rect class="l" x="368" y="5" width="25" height="24" rx="7"/><text class="j" x="378" y="21">)</text><rect class="l" x="403" y="5" width="27" height="24" rx="7"/><text class="j" x="413" y="21">»</text><a xlink:href="#fixed-decimal"><rect class="r" x="460" y="5" width="101" height="24"/><text class="j" x="470" y="21">fixed-decimal</text></a><a xlink:href="#integer"><rect class="r" x="460" y="34" width="65" height="24"/><text class="j" x="470" y="50">integer</text></a></svg>