<svg version="1.1" xmlns:xlink="http://www.w3.org/1999/xlink" xmlns="http://www.w3.org/2000/svg" width="541" height="65" viewbox="0 0 541 65"><defs><style type="text/css">.c{fill: none; stroke: #888888; stroke-width: 2px;}.j{fill:#000000;font-family:Verdana,Sans-serif;font-size:12px;}.l{fill:#90d9ff;stroke:#222222;}.r{fill:#d3f0ff;stroke:#222222;}</style></defs><path class="c" d="M0 18h5m61 0h10m25 0h10m98 0h10m24 0h10m62 0h10m25 0h10m28 0h30m98 0h20m-133 0q5 0 5 5v20q0 5 5 5h5m62 0h41q5 0 5-5v-20q0-5 5-5m5 0h5"/><rect class="l" x="5" y="5" width="61" height="25" rx="7"/><text class="j" x="15" y="22">rescale</text><rect class="l" x="76" y="5" width="25" height="25" rx="7"/><text class="j" x="86" y="22">(</text><a xlink:href="#fixed-decimal"><rect class="r" x="111" y="5" width="98" height="25"/><text class="j" x="121" y="22">fixed-decimal</text></a><rect class="l" x="219" y="5" width="24" height="25" rx="7"/><text class="j" x="229" y="22">,</text><a xlink:href="#integer"><rect class="r" x="253" y="5" width="62" height="25"/><text class="j" x="263" y="22">integer</text></a><rect class="l" x="325" y="5" width="25" height="25" rx="7"/><text class="j" x="335" y="22">)</text><rect class="l" x="360" y="5" width="28" height="25" rx="7"/><text class="j" x="370" y="22">»</text><a xlink:href="#fixed-decimal"><rect class="r" x="418" y="5" width="98" height="25"/><text class="j" x="428" y="22">fixed-decimal</text></a><a xlink:href="#integer"><rect class="r" x="418" y="35" width="62" height="25"/><text class="j" x="428" y="52">integer</text></a></svg>