<svg version="1.1" xmlns:xlink="http://www.w3.org/1999/xlink" xmlns="http://www.w3.org/2000/svg" width="746" height="63" viewbox="0 0 746 63"><defs><style type="text/css">.c{fill: none; stroke: #888888; stroke-width: 3pt;}.j{fill:#000000;font-family:Dialog,Sans-serif;font-size:12px;}.l{fill:#90d9ff;stroke:#222222;}.r{fill:#d3f0ff;stroke:#222222;}</style></defs><path class="c" d="M0 21h5m59 0h10m25 0h10m118 0h10m31 0h30m40 0h39m-94 0q5 0 5 5v19q0 5 5 5h5m59 0h5q5 0 5-5v-19q0-5 5-5m5 0h10m25 0h30m137 0h56m-208 0q5 0 5 5v19q0 5 5 5h5m173 0h5q5 0 5-5v-19q0-5 5-5m5 0h10m27 0h10m59 0h5"/><rect class="l" x="5" y="5" width="59" height="24" rx="7"/><text class="j" x="15" y="21">sortBy</text><rect class="l" x="74" y="5" width="25" height="24" rx="7"/><text class="j" x="84" y="21">(</text><a xlink:href="#symbol:element"><rect class="r" x="109" y="5" width="118" height="24"/><text class="j" x="119" y="21">symbol:element</text></a><rect class="l" x="237" y="5" width="31" height="24" rx="7"/><text class="j" x="247" y="21">in</text><a xlink:href="#set"><rect class="r" x="298" y="5" width="40" height="24"/><text class="j" x="308" y="21">set</text></a><a xlink:href="#vector"><rect class="r" x="298" y="34" width="59" height="24"/><text class="j" x="308" y="50">vector</text></a><rect class="l" x="387" y="5" width="25" height="24" rx="7"/><text class="j" x="397" y="21">)</text><a xlink:href="#integer-expression"><rect class="r" x="442" y="5" width="137" height="24"/><text class="j" x="452" y="21">integer-expression</text></a><a xlink:href="#fixed-decimal-expression"><rect class="r" x="442" y="34" width="173" height="24"/><text class="j" x="452" y="50">fixed-decimal-expression</text></a><rect class="l" x="645" y="5" width="27" height="24" rx="7"/><text class="j" x="655" y="21">»</text><a xlink:href="#vector"><rect class="r" x="682" y="5" width="59" height="24"/><text class="j" x="692" y="21">vector</text></a></svg>