<svg version="1.1" xmlns:xlink="http://www.w3.org/1999/xlink" xmlns="http://www.w3.org/2000/svg" width="753" height="65" viewbox="0 0 753 65"><defs><style type="text/css">.c{fill:none;stroke:#222222;}.j{fill:#000000;font-family:Verdana,Sans-serif;font-size:12px;}.l{fill:#90d9ff;stroke:#222222;}.r{fill:#d3f0ff;stroke:#222222;}</style></defs><path class="c" d="M0 22h5m60 0h10m25 0h10m120 0h10m31 0h30m40 0h39m-94 0q5 0 5 5v20q0 5 5 5h5m59 0h5q5 0 5-5v-20q0-5 5-5m5 0h10m25 0h30m139 0h57m-211 0q5 0 5 5v20q0 5 5 5h5m176 0h5q5 0 5-5v-20q0-5 5-5m5 0h10m28 0h10m59 0h5"/><rect class="l" x="5" y="5" width="60" height="25" rx="7"/><text class="j" x="15" y="22">sortBy</text><rect class="l" x="75" y="5" width="25" height="25" rx="7"/><text class="j" x="85" y="22">(</text><a xlink:href="#symbol:element"><rect class="r" x="110" y="5" width="120" height="25"/><text class="j" x="120" y="22">symbol:element</text></a><rect class="l" x="240" y="5" width="31" height="25" rx="7"/><text class="j" x="250" y="22">in</text><a xlink:href="#set"><rect class="r" x="301" y="5" width="40" height="25"/><text class="j" x="311" y="22">set</text></a><a xlink:href="#vector"><rect class="r" x="301" y="35" width="59" height="25"/><text class="j" x="311" y="52">vector</text></a><rect class="l" x="390" y="5" width="25" height="25" rx="7"/><text class="j" x="400" y="22">)</text><a xlink:href="#integer-expression"><rect class="r" x="445" y="5" width="139" height="25"/><text class="j" x="455" y="22">integer-expression</text></a><a xlink:href="#fixed-decimal-expression"><rect class="r" x="445" y="35" width="176" height="25"/><text class="j" x="455" y="52">fixed-decimal-expression</text></a><rect class="l" x="651" y="5" width="28" height="25" rx="7"/><text class="j" x="661" y="22">»</text><a xlink:href="#vector"><rect class="r" x="689" y="5" width="59" height="25"/><text class="j" x="699" y="22">vector</text></a></svg>