<svg version="1.1" xmlns:xlink="http://www.w3.org/1999/xlink" xmlns="http://www.w3.org/2000/svg" width="766" height="65" viewbox="0 0 766 65"><defs><style type="text/css">.c{fill: none; stroke: #888888; stroke-width: 2px;}.j{fill:#000000;font-family:Verdana,Sans-serif;font-size:12px;}.l{fill:#90d9ff;stroke:#222222;}.r{fill:#d3f0ff;stroke:#222222;}</style></defs><path class="c" d="M0 18h5m25 0h10m62 0h10m25 0h10m116 0h30m38 0h39m-92 0q5 0 5 5v20q0 5 5 5h5m57 0h5q5 0 5-5v-20q0-5 5-5m5 0h10m25 0h30m130 0h56m-201 0q5 0 5 5v20q0 5 5 5h5m166 0h5q5 0 5-5v-20q0-5 5-5m5 0h10m25 0h10m28 0h10m57 0h5"/><rect class="l" x="5" y="5" width="25" height="25" rx="7"/><text class="j" x="15" y="22">(</text><rect class="l" x="40" y="5" width="62" height="25" rx="7"/><text class="j" x="50" y="22">sort-by</text><rect class="l" x="112" y="5" width="25" height="25" rx="7"/><text class="j" x="122" y="22">[</text><a xlink:href="#symbol:element"><rect class="r" x="147" y="5" width="116" height="25"/><text class="j" x="157" y="22">symbol:element</text></a><a xlink:href="#set"><rect class="r" x="293" y="5" width="38" height="25"/><text class="j" x="303" y="22">set</text></a><a xlink:href="#vector"><rect class="r" x="293" y="35" width="57" height="25"/><text class="j" x="303" y="52">vector</text></a><rect class="l" x="380" y="5" width="25" height="25" rx="7"/><text class="j" x="390" y="22">]</text><a xlink:href="#integer-expression"><rect class="r" x="435" y="5" width="130" height="25"/><text class="j" x="445" y="22">integer-expression</text></a><a xlink:href="#fixed-decimal-expression"><rect class="r" x="435" y="35" width="166" height="25"/><text class="j" x="445" y="52">fixed-decimal-expression</text></a><rect class="l" x="631" y="5" width="25" height="25" rx="7"/><text class="j" x="641" y="22">)</text><rect class="l" x="666" y="5" width="28" height="25" rx="7"/><text class="j" x="676" y="22">»</text><a xlink:href="#vector"><rect class="r" x="704" y="5" width="57" height="25"/><text class="j" x="714" y="22">vector</text></a></svg>