<svg version="1.1" xmlns:xlink="http://www.w3.org/1999/xlink" xmlns="http://www.w3.org/2000/svg" width="335" height="65" viewbox="0 0 335 65"><defs><style type="text/css">.c{fill: none; stroke: #888888; stroke-width: 2px;}.j{fill:#000000;font-family:Verdana,Sans-serif;font-size:12px;}.l{fill:#90d9ff;stroke:#222222;}.r{fill:#d3f0ff;stroke:#222222;}</style></defs><path class="c" d="M0 18h5m25 0h10m43 0h30m38 0h39m-92 0q5 0 5 5v20q0 5 5 5h5m57 0h5q5 0 5-5v-20q0-5 5-5m5 0h10m25 0h10m28 0h10m57 0h5"/><rect class="l" x="5" y="5" width="25" height="25" rx="7"/><text class="j" x="15" y="22">(</text><rect class="l" x="40" y="5" width="43" height="25" rx="7"/><text class="j" x="50" y="22">sort</text><a xlink:href="#set"><rect class="r" x="113" y="5" width="38" height="25"/><text class="j" x="123" y="22">set</text></a><a xlink:href="#vector"><rect class="r" x="113" y="35" width="57" height="25"/><text class="j" x="123" y="52">vector</text></a><rect class="l" x="200" y="5" width="25" height="25" rx="7"/><text class="j" x="210" y="22">)</text><rect class="l" x="235" y="5" width="28" height="25" rx="7"/><text class="j" x="245" y="22">»</text><a xlink:href="#vector"><rect class="r" x="273" y="5" width="57" height="25"/><text class="j" x="283" y="22">vector</text></a></svg>