<svg version="1.1" xmlns:xlink="http://www.w3.org/1999/xlink" xmlns="http://www.w3.org/2000/svg" width="309" height="65" viewbox="0 0 309 65"><defs><style type="text/css">.c{fill: none; stroke: #888888; stroke-width: 2px;}.i{fill:#000000;font-family:Verdana,Sans-serif;font-size:12px;}.l{fill:#90d9ff;stroke:#222222;}.r{fill:#d3f0ff;stroke:#222222;}</style></defs><path class="c" d="M0 18h25m38 0h39m-92 0q5 0 5 5v20q0 5 5 5h5m57 0h5q5 0 5-5v-20q0-5 5-5m5 0h10m24 0h10m53 0h10m28 0h10m57 0h5"/><a xlink:href="#set"><rect class="r" x="25" y="5" width="38" height="25"/><text class="i" x="35" y="22">set</text></a><a xlink:href="#vector"><rect class="r" x="25" y="35" width="57" height="25"/><text class="i" x="35" y="52">vector</text></a><rect class="l" x="112" y="5" width="24" height="25" rx="7"/><text class="i" x="122" y="22">.</text><rect class="l" x="146" y="5" width="53" height="25" rx="7"/><text class="i" x="156" y="22">sort()</text><rect class="l" x="209" y="5" width="28" height="25" rx="7"/><text class="i" x="219" y="22">»</text><a xlink:href="#vector"><rect class="r" x="247" y="5" width="57" height="25"/><text class="i" x="257" y="22">vector</text></a></svg>