<svg version="1.1" xmlns:xlink="http://www.w3.org/1999/xlink" xmlns="http://www.w3.org/2000/svg" width="779" height="63" viewbox="0 0 779 63"><defs><style type="text/css">.c{fill: none; stroke: #888888; stroke-width: 3pt;}.j{fill:#000000;font-family:Dialog,Sans-serif;font-size:12px;}.l{fill:#90d9ff;stroke:#222222;}.r{fill:#d3f0ff;stroke:#222222;}</style></defs><path class="c" d="M0 21h5m25 0h10m63 0h10m25 0h10m118 0h30m40 0h39m-94 0q5 0 5 5v19q0 5 5 5h5m59 0h5q5 0 5-5v-19q0-5 5-5m5 0h10m25 0h30m137 0h56m-208 0q5 0 5 5v19q0 5 5 5h5m173 0h5q5 0 5-5v-19q0-5 5-5m5 0h10m25 0h10m27 0h10m59 0h5"/><rect class="l" x="5" y="5" width="25" height="24" rx="7"/><text class="j" x="15" y="21">(</text><rect class="l" x="40" y="5" width="63" height="24" rx="7"/><text class="j" x="50" y="21">sort-by</text><rect class="l" x="113" y="5" width="25" height="24" rx="7"/><text class="j" x="123" y="21">[</text><a xlink:href="#symbol:element"><rect class="r" x="148" y="5" width="118" height="24"/><text class="j" x="158" y="21">symbol:element</text></a><a xlink:href="#set"><rect class="r" x="296" y="5" width="40" height="24"/><text class="j" x="306" y="21">set</text></a><a xlink:href="#vector"><rect class="r" x="296" y="34" width="59" height="24"/><text class="j" x="306" y="50">vector</text></a><rect class="l" x="385" y="5" width="25" height="24" rx="7"/><text class="j" x="395" y="21">]</text><a xlink:href="#integer-expression"><rect class="r" x="440" y="5" width="137" height="24"/><text class="j" x="450" y="21">integer-expression</text></a><a xlink:href="#fixed-decimal-expression"><rect class="r" x="440" y="34" width="173" height="24"/><text class="j" x="450" y="50">fixed-decimal-expression</text></a><rect class="l" x="643" y="5" width="25" height="24" rx="7"/><text class="j" x="653" y="21">)</text><rect class="l" x="678" y="5" width="27" height="24" rx="7"/><text class="j" x="688" y="21">»</text><a xlink:href="#vector"><rect class="r" x="715" y="5" width="59" height="24"/><text class="j" x="725" y="21">vector</text></a></svg>