<svg version="1.1" xmlns:xlink="http://www.w3.org/1999/xlink" xmlns="http://www.w3.org/2000/svg" width="314" height="63" viewbox="0 0 314 63"><defs><style type="text/css">.c{fill: none; stroke: #888888; stroke-width: 2px;}.i{fill:#000000;font-family:Dialog,Sans-serif;font-size:12px;}.l{fill:#90d9ff;stroke:#222222;}.r{fill:#d3f0ff;stroke:#222222;}</style></defs><path class="c" d="M0 17h25m40 0h39m-94 0q5 0 5 5v19q0 5 5 5h5m59 0h5q5 0 5-5v-19q0-5 5-5m5 0h10m24 0h10m55 0h10m27 0h10m59 0h5"/><a xlink:href="#set"><rect class="r" x="25" y="5" width="40" height="24"/><text class="i" x="35" y="21">set</text></a><a xlink:href="#vector"><rect class="r" x="25" y="34" width="59" height="24"/><text class="i" x="35" y="50">vector</text></a><rect class="l" x="114" y="5" width="24" height="24" rx="7"/><text class="i" x="124" y="21">.</text><rect class="l" x="148" y="5" width="55" height="24" rx="7"/><text class="i" x="158" y="21">sort()</text><rect class="l" x="213" y="5" width="27" height="24" rx="7"/><text class="i" x="223" y="21">»</text><a xlink:href="#vector"><rect class="r" x="250" y="5" width="59" height="24"/><text class="i" x="260" y="21">vector</text></a></svg>