<svg version="1.1" xmlns:xlink="http://www.w3.org/1999/xlink" xmlns="http://www.w3.org/2000/svg" width="787" height="65" viewbox="0 0 787 65"><defs><style type="text/css">.c{fill: none; stroke: #888888; stroke-width: 2px;}.j{fill:#000000;font-family:Verdana,Sans-serif;font-size:12px;}.l{fill:#90d9ff;stroke:#222222;}.r{fill:#d3f0ff;stroke:#222222;}</style></defs><path class="c" d="M0 18h5m25 0h10m65 0h10m25 0h10m120 0h30m40 0h39m-94 0q5 0 5 5v20q0 5 5 5h5m59 0h5q5 0 5-5v-20q0-5 5-5m5 0h10m25 0h30m139 0h57m-211 0q5 0 5 5v20q0 5 5 5h5m176 0h5q5 0 5-5v-20q0-5 5-5m5 0h10m25 0h10m28 0h10m59 0h5"/><rect class="l" x="5" y="5" width="25" height="25" rx="7"/><text class="j" x="15" y="22">(</text><rect class="l" x="40" y="5" width="65" height="25" rx="7"/><text class="j" x="50" y="22">sort-by</text><rect class="l" x="115" y="5" width="25" height="25" rx="7"/><text class="j" x="125" y="22">[</text><a xlink:href="#symbol:element"><rect class="r" x="150" y="5" width="120" height="25"/><text class="j" x="160" y="22">symbol:element</text></a><a xlink:href="#set"><rect class="r" x="300" y="5" width="40" height="25"/><text class="j" x="310" y="22">set</text></a><a xlink:href="#vector"><rect class="r" x="300" y="35" width="59" height="25"/><text class="j" x="310" y="52">vector</text></a><rect class="l" x="389" y="5" width="25" height="25" rx="7"/><text class="j" x="399" y="22">]</text><a xlink:href="#integer-expression"><rect class="r" x="444" y="5" width="139" height="25"/><text class="j" x="454" y="22">integer-expression</text></a><a xlink:href="#fixed-decimal-expression"><rect class="r" x="444" y="35" width="176" height="25"/><text class="j" x="454" y="52">fixed-decimal-expression</text></a><rect class="l" x="650" y="5" width="25" height="25" rx="7"/><text class="j" x="660" y="22">)</text><rect class="l" x="685" y="5" width="28" height="25" rx="7"/><text class="j" x="695" y="22">»</text><a xlink:href="#vector"><rect class="r" x="723" y="5" width="59" height="25"/><text class="j" x="733" y="22">vector</text></a></svg>