<!--
sort0 = ( (set | vector) '.' 'sort()' '»' vector )
-->
<svg version="1.1" xmlns:xlink="http://www.w3.org/1999/xlink" xmlns="http://www.w3.org/2000/svg" width="315" height="65" viewbox="0 0 315 65"><defs><style type="text/css">.c{fill: none; stroke: #888888; stroke-width: 2px;}.i{fill:#000000;font-family:Verdana,Sans-serif;font-size:12px;}.l{fill:#90d9ff;stroke:#222222;}.r{fill:#d3f0ff;stroke:#222222;}</style></defs><path class="c" d="M0 18h25m40 0h39m-94 0q5 0 5 5v20q0 5 5 5h5m59 0h5q5 0 5-5v-20q0-5 5-5m5 0h10m24 0h10m55 0h10m28 0h10m59 0h5"/><a xlink:href="#set"><rect class="r" x="25" y="5" width="40" height="25"/><text class="i" x="35" y="22">set</text></a><a xlink:href="#vector"><rect class="r" x="25" y="35" width="59" height="25"/><text class="i" x="35" y="52">vector</text></a><rect class="l" x="114" y="5" width="24" height="25" rx="7"/><text class="i" x="124" y="22">.</text><rect class="l" x="148" y="5" width="55" height="25" rx="7"/><text class="i" x="158" y="22">sort()</text><rect class="l" x="213" y="5" width="28" height="25" rx="7"/><text class="i" x="223" y="22">»</text><a xlink:href="#vector"><rect class="r" x="251" y="5" width="59" height="25"/><text class="i" x="261" y="22">vector</text></a></svg>