<svg version="1.1" xmlns:xlink="http://www.w3.org/1999/xlink" xmlns="http://www.w3.org/2000/svg" width="327" height="65" viewbox="0 0 327 65"><defs><style type="text/css">.c{fill:none;stroke:#222222;}.j{fill:#000000;font-family:Verdana,Sans-serif;font-size:12px;}.l{fill:#90d9ff;stroke:#222222;}.r{fill:#d3f0ff;stroke:#222222;}</style></defs><path class="c" d="M0 52h5m37 0h10m25 0h30m-5 0q-5 0-5-5v-20q0-5 5-5h21m24 0h21q5 0 5 5v20q0 5-5 5m-5 0h30m25 0h10m28 0h10m56 0h5"/><rect class="l" x="5" y="35" width="37" height="25" rx="7"/><text class="j" x="15" y="52">str</text><rect class="l" x="52" y="35" width="25" height="25" rx="7"/><text class="j" x="62" y="52">(</text><rect class="l" x="123" y="5" width="24" height="25" rx="7"/><text class="j" x="133" y="22">,</text><a xlink:href="#string"><rect class="r" x="107" y="35" width="56" height="25"/><text class="j" x="117" y="52">string</text></a><rect class="l" x="193" y="35" width="25" height="25" rx="7"/><text class="j" x="203" y="52">)</text><rect class="l" x="228" y="35" width="28" height="25" rx="7"/><text class="j" x="238" y="52">»</text><a xlink:href="#string"><rect class="r" x="266" y="35" width="56" height="25"/><text class="j" x="276" y="52">string</text></a></svg>