<svg version="1.1" xmlns:xlink="http://www.w3.org/1999/xlink" xmlns="http://www.w3.org/2000/svg" width="420" height="65" viewbox="0 0 420 65"><defs><style type="text/css">.c{fill: none; stroke: #888888; stroke-width: 2px;}.j{fill:#000000;font-family:Verdana,Sans-serif;font-size:12px;}.l{fill:#90d9ff;stroke:#222222;}.r{fill:#d3f0ff;stroke:#222222;}</style></defs><path class="c" d="M0 48h5m36 0h10m25 0h10m54 0h10m24 0h30m-5 0q-5 0-5-5v-20q0-5 5-5h20m24 0h20q5 0 5 5v20q0 5-5 5m-5 0h30m25 0h10m28 0h10m54 0h5"/><rect class="l" x="5" y="35" width="36" height="25" rx="7"/><text class="j" x="15" y="52">str</text><rect class="l" x="51" y="35" width="25" height="25" rx="7"/><text class="j" x="61" y="52">(</text><a xlink:href="#string"><rect class="r" x="86" y="35" width="54" height="25"/><text class="j" x="96" y="52">string</text></a><rect class="l" x="150" y="35" width="24" height="25" rx="7"/><text class="j" x="160" y="52">,</text><rect class="l" x="219" y="5" width="24" height="25" rx="7"/><text class="j" x="229" y="22">,</text><a xlink:href="#string"><rect class="r" x="204" y="35" width="54" height="25"/><text class="j" x="214" y="52">string</text></a><rect class="l" x="288" y="35" width="25" height="25" rx="7"/><text class="j" x="298" y="52">)</text><rect class="l" x="323" y="35" width="28" height="25" rx="7"/><text class="j" x="333" y="52">»</text><a xlink:href="#string"><rect class="r" x="361" y="35" width="54" height="25"/><text class="j" x="371" y="52">string</text></a></svg>