<svg version="1.1" xmlns:xlink="http://www.w3.org/1999/xlink" xmlns="http://www.w3.org/2000/svg" width="369" height="35" viewbox="0 0 369 35"><defs><style type="text/css">.c{fill: none; stroke: #888888; stroke-width: 2px;}.j{fill:#000000;font-family:Verdana,Sans-serif;font-size:12px;}.l{fill:#90d9ff;stroke:#222222;}.r{fill:#d3f0ff;stroke:#222222;}</style></defs><path class="c" d="M0 18h5m25 0h10m70 0h10m40 0h10m40 0h10m25 0h10m28 0h10m71 0h5"/><rect class="l" x="5" y="5" width="25" height="25" rx="7"/><text class="j" x="15" y="22">(</text><rect class="l" x="40" y="5" width="70" height="25" rx="7"/><text class="j" x="50" y="22">subset?</text><a xlink:href="#set"><rect class="r" x="120" y="5" width="40" height="25"/><text class="j" x="130" y="22">set</text></a><a xlink:href="#set"><rect class="r" x="170" y="5" width="40" height="25"/><text class="j" x="180" y="22">set</text></a><rect class="l" x="220" y="5" width="25" height="25" rx="7"/><text class="j" x="230" y="22">)</text><rect class="l" x="255" y="5" width="28" height="25" rx="7"/><text class="j" x="265" y="22">»</text><a xlink:href="#boolean"><rect class="r" x="293" y="5" width="71" height="25"/><text class="j" x="303" y="22">boolean</text></a></svg>