<svg version="1.1" xmlns:xlink="http://www.w3.org/1999/xlink" xmlns="http://www.w3.org/2000/svg" width="401" height="34" viewbox="0 0 401 34"><defs><style type="text/css">.c{fill: none; stroke: #888888; stroke-width: 3pt;}.i{fill:#000000;font-family:Dialog,Sans-serif;font-size:12px;}.l{fill:#90d9ff;stroke:#222222;}.r{fill:#d3f0ff;stroke:#222222;}</style></defs><path class="c" d="M0 21h5m40 0h10m24 0h10m69 0h10m25 0h10m40 0h10m25 0h10m27 0h10m71 0h5"/><a xlink:href="#set"><rect class="r" x="5" y="5" width="40" height="24"/><text class="i" x="15" y="21">set</text></a><rect class="l" x="55" y="5" width="24" height="24" rx="7"/><text class="i" x="65" y="21">.</text><rect class="l" x="89" y="5" width="69" height="24" rx="7"/><text class="i" x="99" y="21">subset?</text><rect class="l" x="168" y="5" width="25" height="24" rx="7"/><text class="i" x="178" y="21">(</text><a xlink:href="#set"><rect class="r" x="203" y="5" width="40" height="24"/><text class="i" x="213" y="21">set</text></a><rect class="l" x="253" y="5" width="25" height="24" rx="7"/><text class="i" x="263" y="21">)</text><rect class="l" x="288" y="5" width="27" height="24" rx="7"/><text class="i" x="298" y="21">»</text><a xlink:href="#boolean"><rect class="r" x="325" y="5" width="71" height="24"/><text class="i" x="335" y="21">boolean</text></a></svg>