<svg version="1.1" xmlns:xlink="http://www.w3.org/1999/xlink" xmlns="http://www.w3.org/2000/svg" width="403" height="35" viewbox="0 0 403 35"><defs><style type="text/css">.c{fill:none;stroke:#222222;}.i{fill:#000000;font-family:Verdana,Sans-serif;font-size:12px;}.l{fill:#90d9ff;stroke:#222222;}.r{fill:#d3f0ff;stroke:#222222;}</style></defs><path class="c" d="M0 22h5m40 0h10m24 0h10m70 0h10m25 0h10m40 0h10m25 0h10m28 0h10m71 0h5"/><a xlink:href="#set"><rect class="r" x="5" y="5" width="40" height="25"/><text class="i" x="15" y="22">set</text></a><rect class="l" x="55" y="5" width="24" height="25" rx="7"/><text class="i" x="65" y="22">.</text><rect class="l" x="89" y="5" width="70" height="25" rx="7"/><text class="i" x="99" y="22">subset?</text><rect class="l" x="169" y="5" width="25" height="25" rx="7"/><text class="i" x="179" y="22">(</text><a xlink:href="#set"><rect class="r" x="204" y="5" width="40" height="25"/><text class="i" x="214" y="22">set</text></a><rect class="l" x="254" y="5" width="25" height="25" rx="7"/><text class="i" x="264" y="22">)</text><rect class="l" x="289" y="5" width="28" height="25" rx="7"/><text class="i" x="299" y="22">»</text><a xlink:href="#boolean"><rect class="r" x="327" y="5" width="71" height="25"/><text class="i" x="337" y="22">boolean</text></a></svg>