<svg version="1.1" xmlns:xlink="http://www.w3.org/1999/xlink" xmlns="http://www.w3.org/2000/svg" width="367" height="34" viewbox="0 0 367 34"><defs><style type="text/css">.c{fill: none; stroke: #888888; stroke-width: 3pt;}.j{fill:#000000;font-family:Dialog,Sans-serif;font-size:12px;}.l{fill:#90d9ff;stroke:#222222;}.r{fill:#d3f0ff;stroke:#222222;}</style></defs><path class="c" d="M0 21h5m25 0h10m69 0h10m40 0h10m40 0h10m25 0h10m27 0h10m71 0h5"/><rect class="l" x="5" y="5" width="25" height="24" rx="7"/><text class="j" x="15" y="21">(</text><rect class="l" x="40" y="5" width="69" height="24" rx="7"/><text class="j" x="50" y="21">subset?</text><a xlink:href="#set"><rect class="r" x="119" y="5" width="40" height="24"/><text class="j" x="129" y="21">set</text></a><a xlink:href="#set"><rect class="r" x="169" y="5" width="40" height="24"/><text class="j" x="179" y="21">set</text></a><rect class="l" x="219" y="5" width="25" height="24" rx="7"/><text class="j" x="229" y="21">)</text><rect class="l" x="254" y="5" width="27" height="24" rx="7"/><text class="j" x="264" y="21">»</text><a xlink:href="#boolean"><rect class="r" x="291" y="5" width="71" height="24"/><text class="j" x="301" y="21">boolean</text></a></svg>