<svg version="1.1" xmlns:xlink="http://www.w3.org/1999/xlink" xmlns="http://www.w3.org/2000/svg" width="396" height="63" viewbox="0 0 396 63"><defs><style type="text/css">.c{fill: none; stroke: #888888; stroke-width: 3pt;}.i{fill:#000000;font-family:Dialog,Sans-serif;font-size:12px;}.l{fill:#90d9ff;stroke:#222222;}.r{fill:#d3f0ff;stroke:#222222;}</style></defs><path class="c" d="M0 50h5m40 0h10m24 0h10m55 0h10m25 0h30m-5 0q-5 0-5-5v-19q0-5 5-5h13m24 0h13q5 0 5 5v19q0 5-5 5m-5 0h30m25 0h10m27 0h10m40 0h5"/><a xlink:href="#set"><rect class="r" x="5" y="34" width="40" height="24"/><text class="i" x="15" y="50">set</text></a><rect class="l" x="55" y="34" width="24" height="24" rx="7"/><text class="i" x="65" y="50">.</text><rect class="l" x="89" y="34" width="55" height="24" rx="7"/><text class="i" x="99" y="50">union</text><rect class="l" x="154" y="34" width="25" height="24" rx="7"/><text class="i" x="164" y="50">(</text><rect class="l" x="217" y="5" width="24" height="24" rx="7"/><text class="i" x="227" y="21">,</text><a xlink:href="#set"><rect class="r" x="209" y="34" width="40" height="24"/><text class="i" x="219" y="50">set</text></a><rect class="l" x="279" y="34" width="25" height="24" rx="7"/><text class="i" x="289" y="50">)</text><rect class="l" x="314" y="34" width="27" height="24" rx="7"/><text class="i" x="324" y="50">»</text><a xlink:href="#set"><rect class="r" x="351" y="34" width="40" height="24"/><text class="i" x="361" y="50">set</text></a></svg>