<svg version="1.1" xmlns:xlink="http://www.w3.org/1999/xlink" xmlns="http://www.w3.org/2000/svg" width="362" height="49" viewbox="0 0 362 49"><defs><style type="text/css">.c{fill: none; stroke: #888888; stroke-width: 3pt;}.j{fill:#000000;font-family:Dialog,Sans-serif;font-size:12px;}.l{fill:#90d9ff;stroke:#222222;}.r{fill:#d3f0ff;stroke:#222222;}</style></defs><path class="c" d="M0 36h5m25 0h10m55 0h10m40 0h30m-5 0q-5 0-5-5v-16q0-5 5-5h50q5 0 5 5v16q0 5-5 5m-5 0h30m25 0h10m27 0h10m40 0h5"/><rect class="l" x="5" y="20" width="25" height="24" rx="7"/><text class="j" x="15" y="36">(</text><rect class="l" x="40" y="20" width="55" height="24" rx="7"/><text class="j" x="50" y="36">union</text><a xlink:href="#set"><rect class="r" x="105" y="20" width="40" height="24"/><text class="j" x="115" y="36">set</text></a><a xlink:href="#set"><rect class="r" x="175" y="20" width="40" height="24"/><text class="j" x="185" y="36">set</text></a><rect class="l" x="245" y="20" width="25" height="24" rx="7"/><text class="j" x="255" y="36">)</text><rect class="l" x="280" y="20" width="27" height="24" rx="7"/><text class="j" x="290" y="36">»</text><a xlink:href="#set"><rect class="r" x="317" y="20" width="40" height="24"/><text class="j" x="327" y="36">set</text></a></svg>