<svg version="1.1" xmlns:xlink="http://www.w3.org/1999/xlink" xmlns="http://www.w3.org/2000/svg" width="356" height="50" viewbox="0 0 356 50"><defs><style type="text/css">.c{fill: none; stroke: #888888; stroke-width: 2px;}.j{fill:#000000;font-family:Verdana,Sans-serif;font-size:12px;}.l{fill:#90d9ff;stroke:#222222;}.r{fill:#d3f0ff;stroke:#222222;}</style></defs><path class="c" d="M0 33h5m25 0h10m54 0h10m38 0h30m-5 0q-5 0-5-5v-17q0-5 5-5h48q5 0 5 5v17q0 5-5 5m-5 0h30m25 0h10m28 0h10m38 0h5"/><rect class="l" x="5" y="20" width="25" height="25" rx="7"/><text class="j" x="15" y="37">(</text><rect class="l" x="40" y="20" width="54" height="25" rx="7"/><text class="j" x="50" y="37">union</text><a xlink:href="#set"><rect class="r" x="104" y="20" width="38" height="25"/><text class="j" x="114" y="37">set</text></a><a xlink:href="#set"><rect class="r" x="172" y="20" width="38" height="25"/><text class="j" x="182" y="37">set</text></a><rect class="l" x="240" y="20" width="25" height="25" rx="7"/><text class="j" x="250" y="37">)</text><rect class="l" x="275" y="20" width="28" height="25" rx="7"/><text class="j" x="285" y="37">»</text><a xlink:href="#set"><rect class="r" x="313" y="20" width="38" height="25"/><text class="j" x="323" y="37">set</text></a></svg>