<svg version="1.1" xmlns:xlink="http://www.w3.org/1999/xlink" xmlns="http://www.w3.org/2000/svg" width="642" height="35" viewbox="0 0 642 35"><defs><style type="text/css">.c{fill: none; stroke: #888888; stroke-width: 2px;}.j{fill:#000000;font-family:Verdana,Sans-serif;font-size:12px;}.l{fill:#90d9ff;stroke:#222222;}.r{fill:#d3f0ff;stroke:#222222;}</style></defs><path class="c" d="M0 18h5m25 0h10m110 0h10m25 0h10m62 0h10m90 0h10m25 0h10m110 0h10m25 0h10m28 0h10m42 0h5"/><rect class="l" x="5" y="5" width="25" height="25" rx="7"/><text class="j" x="15" y="22">(</text><rect class="l" x="40" y="5" width="110" height="25" rx="7"/><text class="j" x="50" y="22">when-value-let</text><rect class="l" x="160" y="5" width="25" height="25" rx="7"/><text class="j" x="170" y="22">[</text><a xlink:href="#symbol"><rect class="r" x="195" y="5" width="62" height="25"/><text class="j" x="205" y="22">symbol</text></a><a xlink:href="#any:binding"><rect class="r" x="267" y="5" width="90" height="25"/><text class="j" x="277" y="22">any:binding</text></a><rect class="l" x="367" y="5" width="25" height="25" rx="7"/><text class="j" x="377" y="22">]</text><a xlink:href="#any-expression"><rect class="r" x="402" y="5" width="110" height="25"/><text class="j" x="412" y="22">any-expression</text></a><rect class="l" x="522" y="5" width="25" height="25" rx="7"/><text class="j" x="532" y="22">)</text><rect class="l" x="557" y="5" width="28" height="25" rx="7"/><text class="j" x="567" y="22">»</text><a xlink:href="#any"><rect class="r" x="595" y="5" width="42" height="25"/><text class="j" x="605" y="22">any</text></a></svg>