<svg version="1.1" xmlns:xlink="http://www.w3.org/1999/xlink" xmlns="http://www.w3.org/2000/svg" width="466" height="35" viewbox="0 0 466 35"><defs><style type="text/css">.c{fill:none;stroke:#222222;}.j{fill:#000000;font-family:Verdana,Sans-serif;font-size:12px;}.l{fill:#90d9ff;stroke:#222222;}.r{fill:#d3f0ff;stroke:#222222;}</style></defs><path class="c" d="M0 22h5m25 0h10m94 0h10m64 0h10m117 0h10m25 0h10m28 0h10m43 0h5"/><rect class="l" x="5" y="5" width="25" height="25" rx="7"/><text class="j" x="15" y="22">(</text><rect class="l" x="40" y="5" width="94" height="25" rx="7"/><text class="j" x="50" y="22">when-value</text><a xlink:href="#symbol"><rect class="r" x="144" y="5" width="64" height="25"/><text class="j" x="154" y="22">symbol</text></a><a xlink:href="#any-expression"><rect class="r" x="218" y="5" width="117" height="25"/><text class="j" x="228" y="22">any-expression</text></a><rect class="l" x="345" y="5" width="25" height="25" rx="7"/><text class="j" x="355" y="22">)</text><rect class="l" x="380" y="5" width="28" height="25" rx="7"/><text class="j" x="390" y="22">»</text><a xlink:href="#any"><rect class="r" x="418" y="5" width="43" height="25"/><text class="j" x="428" y="22">any</text></a></svg>