<svg version="1.1" xmlns:xlink="http://www.w3.org/1999/xlink" xmlns="http://www.w3.org/2000/svg" width="419" height="35" viewbox="0 0 419 35"><defs><style type="text/css">.c{fill: none; stroke: #888888; stroke-width: 2px;}.j{fill:#000000;font-family:Verdana,Sans-serif;font-size:12px;}.l{fill:#90d9ff;stroke:#222222;}.r{fill:#d3f0ff;stroke:#222222;}</style></defs><path class="c" d="M0 18h5m25 0h10m53 0h10m66 0h10m110 0h10m25 0h10m28 0h10m42 0h5"/><rect class="l" x="5" y="5" width="25" height="25" rx="7"/><text class="j" x="15" y="22">(</text><rect class="l" x="40" y="5" width="53" height="25" rx="7"/><text class="j" x="50" y="22">when</text><a xlink:href="#boolean"><rect class="r" x="103" y="5" width="66" height="25"/><text class="j" x="113" y="22">boolean</text></a><a xlink:href="#any-expression"><rect class="r" x="179" y="5" width="110" height="25"/><text class="j" x="189" y="22">any-expression</text></a><rect class="l" x="299" y="5" width="25" height="25" rx="7"/><text class="j" x="309" y="22">)</text><rect class="l" x="334" y="5" width="28" height="25" rx="7"/><text class="j" x="344" y="22">»</text><a xlink:href="#any"><rect class="r" x="372" y="5" width="42" height="25"/><text class="j" x="382" y="22">any</text></a></svg>