<svg version="1.1" xmlns:xlink="http://www.w3.org/1999/xlink" xmlns="http://www.w3.org/2000/svg" width="462" height="35" viewbox="0 0 462 35"><defs><style type="text/css">.c{fill: none; stroke: #888888; stroke-width: 2px;}.j{fill:#000000;font-family:Verdana,Sans-serif;font-size:12px;}.l{fill:#90d9ff;stroke:#222222;}.r{fill:#d3f0ff;stroke:#222222;}</style></defs><path class="c" d="M0 18h5m90 0h10m25 0h10m64 0h10m25 0h10m117 0h10m28 0h10m43 0h5"/><rect class="l" x="5" y="5" width="90" height="25" rx="7"/><text class="j" x="15" y="22">whenValue</text><rect class="l" x="105" y="5" width="25" height="25" rx="7"/><text class="j" x="115" y="22">(</text><a xlink:href="#symbol"><rect class="r" x="140" y="5" width="64" height="25"/><text class="j" x="150" y="22">symbol</text></a><rect class="l" x="214" y="5" width="25" height="25" rx="7"/><text class="j" x="224" y="22">)</text><a xlink:href="#any-expression"><rect class="r" x="249" y="5" width="117" height="25"/><text class="j" x="259" y="22">any-expression</text></a><rect class="l" x="376" y="5" width="28" height="25" rx="7"/><text class="j" x="386" y="22">»</text><a xlink:href="#any"><rect class="r" x="414" y="5" width="43" height="25"/><text class="j" x="424" y="22">any</text></a></svg>