<!--
when-value0 = '(''when-value' symbol any-expression:binding')' '»' any;
-->
<svg version="1.1" xmlns:xlink="http://www.w3.org/1999/xlink" xmlns="http://www.w3.org/2000/svg" width="517" height="35" viewbox="0 0 517 35"><defs><style type="text/css">.c{fill: none; stroke: #888888; stroke-width: 2px;}.j{fill:#000000;font-family:Verdana,Sans-serif;font-size:12px;}.l{fill:#90d9ff;stroke:#222222;}.r{fill:#d3f0ff;stroke:#222222;}</style></defs><path class="c" d="M0 18h5m25 0h10m94 0h10m64 0h10m168 0h10m25 0h10m28 0h10m43 0h5"/><rect class="l" x="5" y="5" width="25" height="25" rx="7"/><text class="j" x="15" y="22">(</text><rect class="l" x="40" y="5" width="94" height="25" rx="7"/><text class="j" x="50" y="22">when-value</text><a xlink:href="#symbol"><rect class="r" x="144" y="5" width="64" height="25"/><text class="j" x="154" y="22">symbol</text></a><a xlink:href="#any-expression:binding"><rect class="r" x="218" y="5" width="168" height="25"/><text class="j" x="228" y="22">any-expression:binding</text></a><rect class="l" x="396" y="5" width="25" height="25" rx="7"/><text class="j" x="406" y="22">)</text><rect class="l" x="431" y="5" width="28" height="25" rx="7"/><text class="j" x="441" y="22">»</text><a xlink:href="#any"><rect class="r" x="469" y="5" width="43" height="25"/><text class="j" x="479" y="22">any</text></a></svg>