<svg version="1.1" xmlns:xlink="http://www.w3.org/1999/xlink" xmlns="http://www.w3.org/2000/svg" width="615" height="34" viewbox="0 0 615 34"><defs><style type="text/css">.c{fill: none; stroke: #888888; stroke-width: 3pt;}.j{fill:#000000;font-family:Dialog,Sans-serif;font-size:12px;}.l{fill:#90d9ff;stroke:#222222;}.r{fill:#d3f0ff;stroke:#222222;}</style></defs><path class="c" d="M0 21h5m107 0h10m25 0h10m63 0h10m30 0h10m92 0h10m25 0h10m114 0h10m27 0h10m42 0h5"/><rect class="l" x="5" y="5" width="107" height="24" rx="7"/><text class="j" x="15" y="21">whenValueLet</text><rect class="l" x="122" y="5" width="25" height="24" rx="7"/><text class="j" x="132" y="21">(</text><a xlink:href="#symbol"><rect class="r" x="157" y="5" width="63" height="24"/><text class="j" x="167" y="21">symbol</text></a><rect class="l" x="230" y="5" width="30" height="24" rx="7"/><text class="j" x="240" y="21">=</text><a xlink:href="#any:binding"><rect class="r" x="270" y="5" width="92" height="24"/><text class="j" x="280" y="21">any:binding</text></a><rect class="l" x="372" y="5" width="25" height="24" rx="7"/><text class="j" x="382" y="21">)</text><a xlink:href="#any-expression"><rect class="r" x="407" y="5" width="114" height="24"/><text class="j" x="417" y="21">any-expression</text></a><rect class="l" x="531" y="5" width="27" height="24" rx="7"/><text class="j" x="541" y="21">»</text><a xlink:href="#any"><rect class="r" x="568" y="5" width="42" height="24"/><text class="j" x="578" y="21">any</text></a></svg>