<svg version="1.1" xmlns:xlink="http://www.w3.org/1999/xlink" xmlns="http://www.w3.org/2000/svg" width="648" height="34" viewbox="0 0 648 34"><defs><style type="text/css">.c{fill: none; stroke: #888888; stroke-width: 2px;}.j{fill:#000000;font-family:Dialog,Sans-serif;font-size:12px;}.l{fill:#90d9ff;stroke:#222222;}.r{fill:#d3f0ff;stroke:#222222;}</style></defs><path class="c" d="M0 17h5m25 0h10m110 0h10m25 0h10m63 0h10m92 0h10m25 0h10m114 0h10m25 0h10m27 0h10m42 0h5"/><rect class="l" x="5" y="5" width="25" height="24" rx="7"/><text class="j" x="15" y="21">(</text><rect class="l" x="40" y="5" width="110" height="24" rx="7"/><text class="j" x="50" y="21">when-value-let</text><rect class="l" x="160" y="5" width="25" height="24" rx="7"/><text class="j" x="170" y="21">[</text><a xlink:href="#symbol"><rect class="r" x="195" y="5" width="63" height="24"/><text class="j" x="205" y="21">symbol</text></a><a xlink:href="#any:binding"><rect class="r" x="268" y="5" width="92" height="24"/><text class="j" x="278" y="21">any:binding</text></a><rect class="l" x="370" y="5" width="25" height="24" rx="7"/><text class="j" x="380" y="21">]</text><a xlink:href="#any-expression"><rect class="r" x="405" y="5" width="114" height="24"/><text class="j" x="415" y="21">any-expression</text></a><rect class="l" x="529" y="5" width="25" height="24" rx="7"/><text class="j" x="539" y="21">)</text><rect class="l" x="564" y="5" width="27" height="24" rx="7"/><text class="j" x="574" y="21">»</text><a xlink:href="#any"><rect class="r" x="601" y="5" width="42" height="24"/><text class="j" x="611" y="21">any</text></a></svg>