<svg version="1.1" xmlns:xlink="http://www.w3.org/1999/xlink" xmlns="http://www.w3.org/2000/svg" width="506" height="34" viewbox="0 0 506 34"><defs><style type="text/css">.c{fill: none; stroke: #888888; stroke-width: 2px;}.j{fill:#000000;font-family:Dialog,Sans-serif;font-size:12px;}.l{fill:#90d9ff;stroke:#222222;}.r{fill:#d3f0ff;stroke:#222222;}</style></defs><path class="c" d="M0 17h5m25 0h10m90 0h10m63 0h10m164 0h10m25 0h10m27 0h10m42 0h5"/><rect class="l" x="5" y="5" width="25" height="24" rx="7"/><text class="j" x="15" y="21">(</text><rect class="l" x="40" y="5" width="90" height="24" rx="7"/><text class="j" x="50" y="21">when-value</text><a xlink:href="#symbol"><rect class="r" x="140" y="5" width="63" height="24"/><text class="j" x="150" y="21">symbol</text></a><a xlink:href="#any-expression:binding"><rect class="r" x="213" y="5" width="164" height="24"/><text class="j" x="223" y="21">any-expression:binding</text></a><rect class="l" x="387" y="5" width="25" height="24" rx="7"/><text class="j" x="397" y="21">)</text><rect class="l" x="422" y="5" width="27" height="24" rx="7"/><text class="j" x="432" y="21">»</text><a xlink:href="#any"><rect class="r" x="459" y="5" width="42" height="24"/><text class="j" x="469" y="21">any</text></a></svg>