<svg version="1.1" xmlns:xlink="http://www.w3.org/1999/xlink" xmlns="http://www.w3.org/2000/svg" width="625" height="35" viewbox="0 0 625 35"><defs><style type="text/css">.c{fill: none; stroke: #888888; stroke-width: 2px;}.j{fill:#000000;font-family:Verdana,Sans-serif;font-size:12px;}.l{fill:#90d9ff;stroke:#222222;}.r{fill:#d3f0ff;stroke:#222222;}</style></defs><path class="c" d="M0 18h5m110 0h10m25 0h10m64 0h10m29 0h10m94 0h10m25 0h10m117 0h10m28 0h10m43 0h5"/><rect class="l" x="5" y="5" width="110" height="25" rx="7"/><text class="j" x="15" y="22">whenValueLet</text><rect class="l" x="125" y="5" width="25" height="25" rx="7"/><text class="j" x="135" y="22">(</text><a xlink:href="#symbol"><rect class="r" x="160" y="5" width="64" height="25"/><text class="j" x="170" y="22">symbol</text></a><rect class="l" x="234" y="5" width="29" height="25" rx="7"/><text class="j" x="244" y="22">=</text><a xlink:href="#any:binding"><rect class="r" x="273" y="5" width="94" height="25"/><text class="j" x="283" y="22">any:binding</text></a><rect class="l" x="377" y="5" width="25" height="25" rx="7"/><text class="j" x="387" y="22">)</text><a xlink:href="#any-expression"><rect class="r" x="412" y="5" width="117" height="25"/><text class="j" x="422" y="22">any-expression</text></a><rect class="l" x="539" y="5" width="28" height="25" rx="7"/><text class="j" x="549" y="22">»</text><a xlink:href="#any"><rect class="r" x="577" y="5" width="43" height="25"/><text class="j" x="587" y="22">any</text></a></svg>