<!--
RULE = (('constraint-map:' ('{' {bare-keyword:name  halite-expr} '}')));
-->
<svg version="1.1" xmlns:xlink="http://www.w3.org/1999/xlink" xmlns="http://www.w3.org/2000/svg" width="542" height="65" viewbox="0 0 542 65"><defs><style type="text/css">.c{fill: none; stroke: #888888; stroke-width: 2px;}.j{fill:#000000;font-family:Verdana,Sans-serif;font-size:12px;}.l{fill:#90d9ff;stroke:#222222;}.r{fill:#d3f0ff;stroke:#222222;}</style></defs><path class="c" d="M0 33h5m120 0h10m28 0h50m-5 0q-5 0-5-5v-17q0-5 5-5h256q5 0 5 5v17q0 5-5 5m-103 0h10m88 0h40m-321 0q5 0 5 5v8q0 5 5 5h296q5 0 5-5v-8q0-5 5-5m5 0h10m28 0h5"/><rect class="l" x="5" y="20" width="120" height="25" rx="7"/><text class="j" x="15" y="37">constraint-map:</text><rect class="l" x="135" y="20" width="28" height="25" rx="7"/><text class="j" x="145" y="37">{</text><a xlink:href="#bare-keyword:name"><rect class="r" x="213" y="20" width="148" height="25"/><text class="j" x="223" y="37">bare-keyword:name</text></a><a xlink:href="#halite-expr"><rect class="r" x="371" y="20" width="88" height="25"/><text class="j" x="381" y="37">halite-expr</text></a><rect class="l" x="509" y="20" width="28" height="25" rx="7"/><text class="j" x="519" y="37">}</text></svg>