<svg version="1.1" xmlns:xlink="http://www.w3.org/1999/xlink" xmlns="http://www.w3.org/2000/svg" width="518" height="65" viewbox="0 0 518 65"><defs><style type="text/css">.c{fill: none; stroke: #888888; stroke-width: 2px;}.j{fill:#000000;font-family:Verdana,Sans-serif;font-size:12px;}.l{fill:#90d9ff;stroke:#222222;}.r{fill:#d3f0ff;stroke:#222222;}</style></defs><path class="c" d="M0 33h5m91 0h10m25 0h50m-5 0q-5 0-5-5v-17q0-5 5-5h267q5 0 5 5v17q0 5-5 5m-237 0h10m93 0h10m84 0h10m25 0h40m-332 0q5 0 5 5v8q0 5 5 5h307q5 0 5-5v-8q0-5 5-5m5 0h10m25 0h5"/><rect class="l" x="5" y="20" width="91" height="25" rx="7"/><text class="j" x="15" y="37">constraints:</text><rect class="l" x="106" y="20" width="25" height="25" rx="7"/><text class="j" x="116" y="37">[</text><rect class="l" x="181" y="20" width="25" height="25" rx="7"/><text class="j" x="191" y="37">[</text><a xlink:href="#string:name"><rect class="r" x="216" y="20" width="93" height="25"/><text class="j" x="226" y="37">string:name</text></a><a xlink:href="#halite-expr"><rect class="r" x="319" y="20" width="84" height="25"/><text class="j" x="329" y="37">halite-expr</text></a><rect class="l" x="413" y="20" width="25" height="25" rx="7"/><text class="j" x="423" y="37">]</text><rect class="l" x="488" y="20" width="25" height="25" rx="7"/><text class="j" x="498" y="37">]</text></svg>