<svg version="1.1" xmlns:xlink="http://www.w3.org/1999/xlink" xmlns="http://www.w3.org/2000/svg" width="529" height="65" viewbox="0 0 529 65"><defs><style type="text/css">.c{fill: none; stroke: #888888; stroke-width: 2px;}.j{fill:#000000;font-family:Verdana,Sans-serif;font-size:12px;}.l{fill:#90d9ff;stroke:#222222;}.r{fill:#d3f0ff;stroke:#222222;}</style></defs><path class="c" d="M0 33h5m95 0h10m25 0h50m-5 0q-5 0-5-5v-17q0-5 5-5h274q5 0 5 5v17q0 5-5 5m-244 0h10m96 0h10m88 0h10m25 0h40m-339 0q5 0 5 5v8q0 5 5 5h314q5 0 5-5v-8q0-5 5-5m5 0h10m25 0h5"/><rect class="l" x="5" y="20" width="95" height="25" rx="7"/><text class="j" x="15" y="37">constraints:</text><rect class="l" x="110" y="20" width="25" height="25" rx="7"/><text class="j" x="120" y="37">[</text><rect class="l" x="185" y="20" width="25" height="25" rx="7"/><text class="j" x="195" y="37">[</text><a xlink:href="#string:name"><rect class="r" x="220" y="20" width="96" height="25"/><text class="j" x="230" y="37">string:name</text></a><a xlink:href="#halite-expr"><rect class="r" x="326" y="20" width="88" height="25"/><text class="j" x="336" y="37">halite-expr</text></a><rect class="l" x="424" y="20" width="25" height="25" rx="7"/><text class="j" x="434" y="37">]</text><rect class="l" x="499" y="20" width="25" height="25" rx="7"/><text class="j" x="509" y="37">]</text></svg>