<!--
RULE = (('constraint-set:' ( '#{' { '{' ':name' string ':expr' halite-expr '}' } '}')));
-->
<svg version="1.1" xmlns:xlink="http://www.w3.org/1999/xlink" xmlns="http://www.w3.org/2000/svg" width="662" height="65" viewbox="0 0 662 65"><defs><style type="text/css">.c{fill: none; stroke: #888888; stroke-width: 2px;}.j{fill:#000000;font-family:Verdana,Sans-serif;font-size:12px;}.l{fill:#90d9ff;stroke:#222222;}.r{fill:#d3f0ff;stroke:#222222;}</style></defs><path class="c" d="M0 33h5m113 0h10m38 0h50m-5 0q-5 0-5-5v-17q0-5 5-5h373q5 0 5 5v17q0 5-5 5m-340 0h10m60 0h10m56 0h10m53 0h10m88 0h10m28 0h40m-438 0q5 0 5 5v8q0 5 5 5h413q5 0 5-5v-8q0-5 5-5m5 0h10m28 0h5"/><rect class="l" x="5" y="20" width="113" height="25" rx="7"/><text class="j" x="15" y="37">constraint-set:</text><rect class="l" x="128" y="20" width="38" height="25" rx="7"/><text class="j" x="138" y="37">#{</text><rect class="l" x="216" y="20" width="28" height="25" rx="7"/><text class="j" x="226" y="37">{</text><rect class="l" x="254" y="20" width="60" height="25" rx="7"/><text class="j" x="264" y="37">:name</text><a xlink:href="#string"><rect class="r" x="324" y="20" width="56" height="25"/><text class="j" x="334" y="37">string</text></a><rect class="l" x="390" y="20" width="53" height="25" rx="7"/><text class="j" x="400" y="37">:expr</text><a xlink:href="#halite-expr"><rect class="r" x="453" y="20" width="88" height="25"/><text class="j" x="463" y="37">halite-expr</text></a><rect class="l" x="551" y="20" width="28" height="25" rx="7"/><text class="j" x="561" y="37">}</text><rect class="l" x="629" y="20" width="28" height="25" rx="7"/><text class="j" x="639" y="37">}</text></svg>