<!--
RULE = (('field-map:' ('{' {bare-keyword maybe-type} '}')));
-->
<svg version="1.1" xmlns:xlink="http://www.w3.org/1999/xlink" xmlns="http://www.w3.org/2000/svg" width="472" height="65" viewbox="0 0 472 65"><defs><style type="text/css">.c{fill: none; stroke: #888888; stroke-width: 2px;}.j{fill:#000000;font-family:Verdana,Sans-serif;font-size:12px;}.l{fill:#90d9ff;stroke:#222222;}.r{fill:#d3f0ff;stroke:#222222;}</style></defs><path class="c" d="M0 33h5m83 0h10m28 0h50m-5 0q-5 0-5-5v-17q0-5 5-5h223q5 0 5 5v17q0 5-5 5m-110 0h10m95 0h40m-288 0q5 0 5 5v8q0 5 5 5h263q5 0 5-5v-8q0-5 5-5m5 0h10m28 0h5"/><rect class="l" x="5" y="20" width="83" height="25" rx="7"/><text class="j" x="15" y="37">field-map:</text><rect class="l" x="98" y="20" width="28" height="25" rx="7"/><text class="j" x="108" y="37">{</text><a xlink:href="#bare-keyword"><rect class="r" x="176" y="20" width="108" height="25"/><text class="j" x="186" y="37">bare-keyword</text></a><a xlink:href="#maybe-type"><rect class="r" x="294" y="20" width="95" height="25"/><text class="j" x="304" y="37">maybe-type</text></a><rect class="l" x="439" y="20" width="28" height="25" rx="7"/><text class="j" x="449" y="37">}</text></svg>