<!--
RULE = (('refinement-map:' ( '{' {namespaced-keyword:spec-id '{' ':name' string ':expr' halite-expr [':extrinsic?' boolean] '}' } '}')));
-->
<svg version="1.1" xmlns:xlink="http://www.w3.org/1999/xlink" xmlns="http://www.w3.org/2000/svg" width="1098" height="80" viewbox="0 0 1098 80"><defs><style type="text/css">.c{fill: none; stroke: #888888; stroke-width: 2px;}.j{fill:#000000;font-family:Verdana,Sans-serif;font-size:12px;}.l{fill:#90d9ff;stroke:#222222;}.r{fill:#d3f0ff;stroke:#222222;}</style></defs><path class="c" d="M0 33h5m125 0h10m28 0h50m-5 0q-5 0-5-5v-17q0-5 5-5h807q5 0 5 5v17q0 5-5 5m-593 0h10m28 0h10m60 0h10m56 0h10m53 0h10m88 0h30m84 0h10m71 0h20m-200 0q5 0 5 5v8q0 5 5 5h175q5 0 5-5v-8q0-5 5-5m5 0h10m28 0h40m-872 0q5 0 5 5v23q0 5 5 5h847q5 0 5-5v-23q0-5 5-5m5 0h10m28 0h5"/><rect class="l" x="5" y="20" width="125" height="25" rx="7"/><text class="j" x="15" y="37">refinement-map:</text><rect class="l" x="140" y="20" width="28" height="25" rx="7"/><text class="j" x="150" y="37">{</text><a xlink:href="#namespaced-keyword:spec-id"><rect class="r" x="218" y="20" width="209" height="25"/><text class="j" x="228" y="37">namespaced-keyword:spec-id</text></a><rect class="l" x="437" y="20" width="28" height="25" rx="7"/><text class="j" x="447" y="37">{</text><rect class="l" x="475" y="20" width="60" height="25" rx="7"/><text class="j" x="485" y="37">:name</text><a xlink:href="#string"><rect class="r" x="545" y="20" width="56" height="25"/><text class="j" x="555" y="37">string</text></a><rect class="l" x="611" y="20" width="53" height="25" rx="7"/><text class="j" x="621" y="37">:expr</text><a xlink:href="#halite-expr"><rect class="r" x="674" y="20" width="88" height="25"/><text class="j" x="684" y="37">halite-expr</text></a><rect class="l" x="792" y="20" width="84" height="25" rx="7"/><text class="j" x="802" y="37">:extrinsic?</text><a xlink:href="#boolean"><rect class="r" x="886" y="20" width="71" height="25"/><text class="j" x="896" y="37">boolean</text></a><rect class="l" x="987" y="20" width="28" height="25" rx="7"/><text class="j" x="997" y="37">}</text><rect class="l" x="1065" y="20" width="28" height="25" rx="7"/><text class="j" x="1075" y="37">}</text></svg>