<svg version="1.1" xmlns:xlink="http://www.w3.org/1999/xlink" xmlns="http://www.w3.org/2000/svg" width="1064" height="80" viewbox="0 0 1064 80"><defs><style type="text/css">.c{fill: none; stroke: #888888; stroke-width: 2px;}.j{fill:#000000;font-family:Verdana,Sans-serif;font-size:12px;}.l{fill:#90d9ff;stroke:#222222;}.r{fill:#d3f0ff;stroke:#222222;}</style></defs><path class="c" d="M0 33h5m122 0h10m28 0h50m-5 0q-5 0-5-5v-17q0-5 5-5h776q5 0 5 5v17q0 5-5 5m-576 0h10m28 0h10m59 0h10m54 0h10m51 0h10m84 0h30m81 0h10m66 0h20m-192 0q5 0 5 5v8q0 5 5 5h167q5 0 5-5v-8q0-5 5-5m5 0h10m28 0h40m-841 0q5 0 5 5v23q0 5 5 5h816q5 0 5-5v-23q0-5 5-5m5 0h10m28 0h5"/><rect class="l" x="5" y="20" width="122" height="25" rx="7"/><text class="j" x="15" y="37">refinement-map:</text><rect class="l" x="137" y="20" width="28" height="25" rx="7"/><text class="j" x="147" y="37">{</text><a xlink:href="#namespaced-keyword:spec-id"><rect class="r" x="215" y="20" width="195" height="25"/><text class="j" x="225" y="37">namespaced-keyword:spec-id</text></a><rect class="l" x="420" y="20" width="28" height="25" rx="7"/><text class="j" x="430" y="37">{</text><rect class="l" x="458" y="20" width="59" height="25" rx="7"/><text class="j" x="468" y="37">:name</text><a xlink:href="#string"><rect class="r" x="527" y="20" width="54" height="25"/><text class="j" x="537" y="37">string</text></a><rect class="l" x="591" y="20" width="51" height="25" rx="7"/><text class="j" x="601" y="37">:expr</text><a xlink:href="#halite-expr"><rect class="r" x="652" y="20" width="84" height="25"/><text class="j" x="662" y="37">halite-expr</text></a><rect class="l" x="766" y="20" width="81" height="25" rx="7"/><text class="j" x="776" y="37">:inverted?</text><a xlink:href="#boolean"><rect class="r" x="857" y="20" width="66" height="25"/><text class="j" x="867" y="37">boolean</text></a><rect class="l" x="953" y="20" width="28" height="25" rx="7"/><text class="j" x="963" y="37">}</text><rect class="l" x="1031" y="20" width="28" height="25" rx="7"/><text class="j" x="1041" y="37">}</text></svg>