<svg version="1.1" xmlns:xlink="http://www.w3.org/1999/xlink" xmlns="http://www.w3.org/2000/svg" width="484" height="65" viewbox="0 0 484 65"><defs><style type="text/css">.c{fill: none; stroke: #888888; stroke-width: 2px;}.j{fill:#000000;font-family:Verdana,Sans-serif;font-size:12px;}.l{fill:#90d9ff;stroke:#222222;}.r{fill:#d3f0ff;stroke:#222222;}</style></defs><path class="c" d="M0 33h5m106 0h10m28 0h50m-5 0q-5 0-5-5v-17q0-5 5-5h212q5 0 5 5v17q0 5-5 5m-106 0h10m91 0h40m-277 0q5 0 5 5v8q0 5 5 5h252q5 0 5-5v-8q0-5 5-5m5 0h10m28 0h5"/><rect class="l" x="5" y="20" width="106" height="25" rx="7"/><text class="j" x="15" y="37">spec-var-map:</text><rect class="l" x="121" y="20" width="28" height="25" rx="7"/><text class="j" x="131" y="37">{</text><a xlink:href="#bare-keyword"><rect class="r" x="199" y="20" width="101" height="25"/><text class="j" x="209" y="37">bare-keyword</text></a><a xlink:href="#maybe-type"><rect class="r" x="310" y="20" width="91" height="25"/><text class="j" x="320" y="37">maybe-type</text></a><rect class="l" x="451" y="20" width="28" height="25" rx="7"/><text class="j" x="461" y="37">}</text></svg>