<!--
RULE = (('spec-map:' ('{' {namespaced-keyword:spec-id '{' { (':abstract?' boolean) | (':fields' field-map) |  (':constraints' constraint-set) | (':refines-to' refinement-map) } '}'} '}')));
-->
<svg version="1.1" xmlns:xlink="http://www.w3.org/1999/xlink" xmlns="http://www.w3.org/2000/svg" width="893" height="185" viewbox="0 0 893 185"><defs><style type="text/css">.c{fill: none; stroke: #888888; stroke-width: 2px;}.j{fill:#000000;font-family:Verdana,Sans-serif;font-size:12px;}.l{fill:#90d9ff;stroke:#222222;}.r{fill:#d3f0ff;stroke:#222222;}</style></defs><path class="c" d="M0 48h5m86 0h10m28 0h50m-5 0q-5 0-5-5v-32q0-5 5-5h641q5 0 5 5v32q0 5-5 5m-427 0h10m28 0h50m-5 0q-5 0-5-5v-17q0-5 5-5h266q5 0 5 5v17q0 5-5 5m-261 0h20m84 0h10m71 0h71m-246 25q0 5 5 5h5m58 0h10m78 0h75q5 0 5-5m-236 30q0 5 5 5h5m95 0h10m108 0h8q5 0 5-5m-241-55q5 0 5 5v80q0 5 5 5h5m86 0h10m120 0h5q5 0 5-5v-80q0-5 5-5m5 0h40m-331 0q5 0 5 5v98q0 5 5 5h306q5 0 5-5v-98q0-5 5-5m5 0h10m28 0h40m-706 0q5 0 5 5v113q0 5 5 5h681q5 0 5-5v-113q0-5 5-5m5 0h10m28 0h5"/><rect class="l" x="5" y="35" width="86" height="25" rx="7"/><text class="j" x="15" y="52">spec-map:</text><rect class="l" x="101" y="35" width="28" height="25" rx="7"/><text class="j" x="111" y="52">{</text><a xlink:href="#namespaced-keyword:spec-id"><rect class="r" x="179" y="35" width="209" height="25"/><text class="j" x="189" y="52">namespaced-keyword:spec-id</text></a><rect class="l" x="398" y="35" width="28" height="25" rx="7"/><text class="j" x="408" y="52">{</text><rect class="l" x="496" y="35" width="84" height="25" rx="7"/><text class="j" x="506" y="52">:abstract?</text><a xlink:href="#boolean"><rect class="r" x="590" y="35" width="71" height="25"/><text class="j" x="600" y="52">boolean</text></a><rect class="l" x="496" y="65" width="58" height="25" rx="7"/><text class="j" x="506" y="82">:fields</text><a xlink:href="#field-map"><rect class="r" x="564" y="65" width="78" height="25"/><text class="j" x="574" y="82">field-map</text></a><rect class="l" x="496" y="95" width="95" height="25" rx="7"/><text class="j" x="506" y="112">:constraints</text><a xlink:href="#constraint-set"><rect class="r" x="601" y="95" width="108" height="25"/><text class="j" x="611" y="112">constraint-set</text></a><rect class="l" x="496" y="125" width="86" height="25" rx="7"/><text class="j" x="506" y="142">:refines-to</text><a xlink:href="#refinement-map"><rect class="r" x="592" y="125" width="120" height="25"/><text class="j" x="602" y="142">refinement-map</text></a><rect class="l" x="782" y="35" width="28" height="25" rx="7"/><text class="j" x="792" y="52">}</text><rect class="l" x="860" y="35" width="28" height="25" rx="7"/><text class="j" x="870" y="52">}</text></svg>