<svg version="1.1" xmlns:xlink="http://www.w3.org/1999/xlink" xmlns="http://www.w3.org/2000/svg" width="868" height="185" viewbox="0 0 868 185"><defs><style type="text/css">.c{fill: none; stroke: #888888; stroke-width: 2px;}.j{fill:#000000;font-family:Verdana,Sans-serif;font-size:12px;}.l{fill:#90d9ff;stroke:#222222;}.r{fill:#d3f0ff;stroke:#222222;}</style></defs><path class="c" d="M0 48h5m82 0h10m28 0h50m-5 0q-5 0-5-5v-32q0-5 5-5h620q5 0 5 5v32q0 5-5 5m-420 0h10m28 0h50m-5 0q-5 0-5-5v-17q0-5 5-5h259q5 0 5 5v17q0 5-5 5m-254 0h20m80 0h10m66 0h73m-239 25q0 5 5 5h5m81 0h10m101 0h22q5 0 5-5m-229 30q0 5 5 5h5m91 0h10m86 0h27q5 0 5-5m-234-55q5 0 5 5v80q0 5 5 5h5m82 0h10m117 0h5q5 0 5-5v-80q0-5 5-5m5 0h40m-324 0q5 0 5 5v98q0 5 5 5h299q5 0 5-5v-98q0-5 5-5m5 0h10m28 0h40m-685 0q5 0 5 5v113q0 5 5 5h660q5 0 5-5v-113q0-5 5-5m5 0h10m28 0h5"/><rect class="l" x="5" y="35" width="82" height="25" rx="7"/><text class="j" x="15" y="52">spec-map:</text><rect class="l" x="97" y="35" width="28" height="25" rx="7"/><text class="j" x="107" y="52">{</text><a xlink:href="#namespaced-keyword:spec-id"><rect class="r" x="175" y="35" width="195" height="25"/><text class="j" x="185" y="52">namespaced-keyword:spec-id</text></a><rect class="l" x="380" y="35" width="28" height="25" rx="7"/><text class="j" x="390" y="52">{</text><rect class="l" x="478" y="35" width="80" height="25" rx="7"/><text class="j" x="488" y="52">:abstract?</text><a xlink:href="#boolean"><rect class="r" x="568" y="35" width="66" height="25"/><text class="j" x="578" y="52">boolean</text></a><rect class="l" x="478" y="65" width="81" height="25" rx="7"/><text class="j" x="488" y="82">:spec-vars</text><a xlink:href="#spec-var-map"><rect class="r" x="569" y="65" width="101" height="25"/><text class="j" x="579" y="82">spec-var-map</text></a><rect class="l" x="478" y="95" width="91" height="25" rx="7"/><text class="j" x="488" y="112">:constraints</text><a xlink:href="#constraints"><rect class="r" x="579" y="95" width="86" height="25"/><text class="j" x="589" y="112">constraints</text></a><rect class="l" x="478" y="125" width="82" height="25" rx="7"/><text class="j" x="488" y="142">:refines-to</text><a xlink:href="#refinement-map"><rect class="r" x="570" y="125" width="117" height="25"/><text class="j" x="580" y="142">refinement-map</text></a><rect class="l" x="757" y="35" width="28" height="25" rx="7"/><text class="j" x="767" y="52">}</text><rect class="l" x="835" y="35" width="28" height="25" rx="7"/><text class="j" x="845" y="52">}</text></svg>