<svg version="1.1" xmlns:xlink="http://www.w3.org/1999/xlink" xmlns="http://www.w3.org/2000/svg" width="445" height="815" viewbox="0 0 445 815"><defs><style type="text/css">.c{fill: none; stroke: #888888; stroke-width: 2px;}.j{fill:#000000;font-family:Verdana,Sans-serif;font-size:12px;}.l{fill:#90d9ff;stroke:#222222;}.r{fill:#d3f0ff;stroke:#222222;}</style></defs><path class="c" d="M0 18h25m134 0h30m75 0h28m-113 25q0 5 5 5h5m75 0h13q5 0 5-5m-103 30q0 5 5 5h5m75 0h13q5 0 5-5m-103 30q0 5 5 5h5m75 0h13q5 0 5-5m-103 30q0 5 5 5h5m75 0h13q5 0 5-5m-103 30q0 5 5 5h5m75 0h13q5 0 5-5m-103 30q0 5 5 5h5m75 0h13q5 0 5-5m-103 30q0 5 5 5h5m75 0h13q5 0 5-5m-103 30q0 5 5 5h5m75 0h13q5 0 5-5m-103 30q0 5 5 5h5m83 0h5q5 0 5-5m-103 30q0 5 5 5h5m83 0h5q5 0 5-5m-103 30q0 5 5 5h5m83 0h5q5 0 5-5m-103 30q0 5 5 5h5m83 0h5q5 0 5-5m-103 30q0 5 5 5h5m83 0h5q5 0 5-5m-103 30q0 5 5 5h5m83 0h5q5 0 5-5m-103 30q0 5 5 5h5m83 0h5q5 0 5-5m-103 30q0 5 5 5h5m83 0h5q5 0 5-5m-108-475q5 0 5 5v500q0 5 5 5h5m83 0h5q5 0 5-5v-500q0-5 5-5m5 0h148m-425 535q0 5 5 5h5m108 0h30m64 0h85m-159 25q0 5 5 5h5m56 0h78q5 0 5-5m-149 30q0 5 5 5h5m67 0h67q5 0 5-5m-154-55q5 0 5 5v80q0 5 5 5h5m129 0h5q5 0 5-5v-80q0-5 5-5m5 0h113q5 0 5-5m-415 120q0 5 5 5h5m111 0h30m103 0h106m-219 25q0 5 5 5h5m25 0h10m103 0h10m25 0h21q5 0 5-5m-214-25q5 0 5 5v50q0 5 5 5h5m38 0h10m103 0h10m28 0h5q5 0 5-5v-50q0-5 5-5m5 0h50q5 0 5-5m-420-655q5 0 5 5v740q0 5 5 5h5m96 0h30m106 0h163m-284 0q5 0 5 5v20q0 5 5 5h5m25 0h10m63 0h10m106 0h10m25 0h5q5 0 5-5v-20q0-5 5-5m5 0h5q5 0 5-5v-740q0-5 5-5m5 0h5"/><rect class="l" x="25" y="5" width="134" height="25" rx="7"/><text class="j" x="35" y="22">fixed-decimal-type:</text><rect class="l" x="189" y="5" width="75" height="25" rx="7"/><text class="j" x="199" y="22">Decimal1</text><rect class="l" x="189" y="35" width="75" height="25" rx="7"/><text class="j" x="199" y="52">Decimal2</text><rect class="l" x="189" y="65" width="75" height="25" rx="7"/><text class="j" x="199" y="82">Decimal3</text><rect class="l" x="189" y="95" width="75" height="25" rx="7"/><text class="j" x="199" y="112">Decimal4</text><rect class="l" x="189" y="125" width="75" height="25" rx="7"/><text class="j" x="199" y="142">Decimal5</text><rect class="l" x="189" y="155" width="75" height="25" rx="7"/><text class="j" x="199" y="172">Decimal6</text><rect class="l" x="189" y="185" width="75" height="25" rx="7"/><text class="j" x="199" y="202">Decimal7</text><rect class="l" x="189" y="215" width="75" height="25" rx="7"/><text class="j" x="199" y="232">Decimal8</text><rect class="l" x="189" y="245" width="75" height="25" rx="7"/><text class="j" x="199" y="262">Decimal9</text><rect class="l" x="189" y="275" width="83" height="25" rx="7"/><text class="j" x="199" y="292">Decimal10</text><rect class="l" x="189" y="305" width="83" height="25" rx="7"/><text class="j" x="199" y="322">Decimal11</text><rect class="l" x="189" y="335" width="83" height="25" rx="7"/><text class="j" x="199" y="352">Decimal12</text><rect class="l" x="189" y="365" width="83" height="25" rx="7"/><text class="j" x="199" y="382">Decimal13</text><rect class="l" x="189" y="395" width="83" height="25" rx="7"/><text class="j" x="199" y="412">Decimal14</text><rect class="l" x="189" y="425" width="83" height="25" rx="7"/><text class="j" x="199" y="442">Decimal15</text><rect class="l" x="189" y="455" width="83" height="25" rx="7"/><text class="j" x="199" y="472">Decimal16</text><rect class="l" x="189" y="485" width="83" height="25" rx="7"/><text class="j" x="199" y="502">Decimal17</text><rect class="l" x="189" y="515" width="83" height="25" rx="7"/><text class="j" x="199" y="532">Decimal18</text><rect class="l" x="25" y="545" width="108" height="25" rx="7"/><text class="j" x="35" y="562">primitive-type:</text><rect class="l" x="163" y="545" width="64" height="25" rx="7"/><text class="j" x="173" y="562">Integer</text><rect class="l" x="163" y="575" width="56" height="25" rx="7"/><text class="j" x="173" y="592">String</text><rect class="l" x="163" y="605" width="67" height="25" rx="7"/><text class="j" x="173" y="622">Boolean</text><a xlink:href="#fixed-decimal-type"><rect class="r" x="163" y="635" width="129" height="25"/><text class="j" x="173" y="652">fixed-decimal-type</text></a><rect class="l" x="25" y="665" width="111" height="25" rx="7"/><text class="j" x="35" y="682">collection-type:</text><a xlink:href="#primitive-type"><rect class="r" x="166" y="665" width="103" height="25"/><text class="j" x="176" y="682">primitive-type</text></a><rect class="l" x="166" y="695" width="25" height="25" rx="7"/><text class="j" x="176" y="712">[</text><a xlink:href="#primitive-type"><rect class="r" x="201" y="695" width="103" height="25"/><text class="j" x="211" y="712">primitive-type</text></a><rect class="l" x="314" y="695" width="25" height="25" rx="7"/><text class="j" x="324" y="712">]</text><rect class="l" x="166" y="725" width="38" height="25" rx="7"/><text class="j" x="176" y="742">#{</text><a xlink:href="#primitive-type"><rect class="r" x="214" y="725" width="103" height="25"/><text class="j" x="224" y="742">primitive-type</text></a><rect class="l" x="327" y="725" width="28" height="25" rx="7"/><text class="j" x="337" y="742">}</text><rect class="l" x="25" y="755" width="96" height="25" rx="7"/><text class="j" x="35" y="772">maybe-type:</text><a xlink:href="#collection-type"><rect class="r" x="151" y="755" width="106" height="25"/><text class="j" x="161" y="772">collection-type</text></a><rect class="l" x="151" y="785" width="25" height="25" rx="7"/><text class="j" x="161" y="802">[</text><rect class="l" x="186" y="785" width="63" height="25" rx="7"/><text class="j" x="196" y="802">:Maybe</text><a xlink:href="#collection-type"><rect class="r" x="259" y="785" width="106" height="25"/><text class="j" x="269" y="802">collection-type</text></a><rect class="l" x="375" y="785" width="25" height="25" rx="7"/><text class="j" x="385" y="802">]</text></svg>