<svg version="1.1" xmlns:xlink="http://www.w3.org/1999/xlink" xmlns="http://www.w3.org/2000/svg" width="457" height="815" viewbox="0 0 457 815"><defs><style type="text/css">.c{fill: none; stroke: #888888; stroke-width: 2px;}.j{fill:#000000;font-family:Verdana,Sans-serif;font-size:12px;}.l{fill:#90d9ff;stroke:#222222;}.r{fill:#d3f0ff;stroke:#222222;}</style></defs><path class="c" d="M0 18h25m140 0h30m76 0h28m-114 25q0 5 5 5h5m76 0h13q5 0 5-5m-104 30q0 5 5 5h5m76 0h13q5 0 5-5m-104 30q0 5 5 5h5m76 0h13q5 0 5-5m-104 30q0 5 5 5h5m76 0h13q5 0 5-5m-104 30q0 5 5 5h5m76 0h13q5 0 5-5m-104 30q0 5 5 5h5m76 0h13q5 0 5-5m-104 30q0 5 5 5h5m76 0h13q5 0 5-5m-104 30q0 5 5 5h5m76 0h13q5 0 5-5m-104 30q0 5 5 5h5m84 0h5q5 0 5-5m-104 30q0 5 5 5h5m84 0h5q5 0 5-5m-104 30q0 5 5 5h5m84 0h5q5 0 5-5m-104 30q0 5 5 5h5m84 0h5q5 0 5-5m-104 30q0 5 5 5h5m84 0h5q5 0 5-5m-104 30q0 5 5 5h5m84 0h5q5 0 5-5m-104 30q0 5 5 5h5m84 0h5q5 0 5-5m-104 30q0 5 5 5h5m84 0h5q5 0 5-5m-109-475q5 0 5 5v500q0 5 5 5h5m84 0h5q5 0 5-5v-500q0-5 5-5m5 0h153m-437 535q0 5 5 5h5m111 0h30m67 0h88m-165 25q0 5 5 5h5m57 0h83q5 0 5-5m-155 30q0 5 5 5h5m71 0h69q5 0 5-5m-160-55q5 0 5 5v80q0 5 5 5h5m135 0h5q5 0 5-5v-80q0-5 5-5m5 0h116q5 0 5-5m-427 120q0 5 5 5h5m116 0h30m106 0h106m-222 25q0 5 5 5h5m25 0h10m106 0h10m25 0h21q5 0 5-5m-217-25q5 0 5 5v50q0 5 5 5h5m38 0h10m106 0h10m28 0h5q5 0 5-5v-50q0-5 5-5m5 0h54q5 0 5-5m-432-655q5 0 5 5v740q0 5 5 5h5m100 0h30m111 0h166m-292 0q5 0 5 5v20q0 5 5 5h5m25 0h10m66 0h10m111 0h10m25 0h5q5 0 5-5v-20q0-5 5-5m5 0h5q5 0 5-5v-740q0-5 5-5m5 0h5"/><rect class="l" x="25" y="5" width="140" height="25" rx="7"/><text class="j" x="35" y="22">fixed-decimal-type:</text><rect class="l" x="195" y="5" width="76" height="25" rx="7"/><text class="j" x="205" y="22">Decimal1</text><rect class="l" x="195" y="35" width="76" height="25" rx="7"/><text class="j" x="205" y="52">Decimal2</text><rect class="l" x="195" y="65" width="76" height="25" rx="7"/><text class="j" x="205" y="82">Decimal3</text><rect class="l" x="195" y="95" width="76" height="25" rx="7"/><text class="j" x="205" y="112">Decimal4</text><rect class="l" x="195" y="125" width="76" height="25" rx="7"/><text class="j" x="205" y="142">Decimal5</text><rect class="l" x="195" y="155" width="76" height="25" rx="7"/><text class="j" x="205" y="172">Decimal6</text><rect class="l" x="195" y="185" width="76" height="25" rx="7"/><text class="j" x="205" y="202">Decimal7</text><rect class="l" x="195" y="215" width="76" height="25" rx="7"/><text class="j" x="205" y="232">Decimal8</text><rect class="l" x="195" y="245" width="76" height="25" rx="7"/><text class="j" x="205" y="262">Decimal9</text><rect class="l" x="195" y="275" width="84" height="25" rx="7"/><text class="j" x="205" y="292">Decimal10</text><rect class="l" x="195" y="305" width="84" height="25" rx="7"/><text class="j" x="205" y="322">Decimal11</text><rect class="l" x="195" y="335" width="84" height="25" rx="7"/><text class="j" x="205" y="352">Decimal12</text><rect class="l" x="195" y="365" width="84" height="25" rx="7"/><text class="j" x="205" y="382">Decimal13</text><rect class="l" x="195" y="395" width="84" height="25" rx="7"/><text class="j" x="205" y="412">Decimal14</text><rect class="l" x="195" y="425" width="84" height="25" rx="7"/><text class="j" x="205" y="442">Decimal15</text><rect class="l" x="195" y="455" width="84" height="25" rx="7"/><text class="j" x="205" y="472">Decimal16</text><rect class="l" x="195" y="485" width="84" height="25" rx="7"/><text class="j" x="205" y="502">Decimal17</text><rect class="l" x="195" y="515" width="84" height="25" rx="7"/><text class="j" x="205" y="532">Decimal18</text><rect class="l" x="25" y="545" width="111" height="25" rx="7"/><text class="j" x="35" y="562">primitive-type:</text><rect class="l" x="166" y="545" width="67" height="25" rx="7"/><text class="j" x="176" y="562">Integer</text><rect class="l" x="166" y="575" width="57" height="25" rx="7"/><text class="j" x="176" y="592">String</text><rect class="l" x="166" y="605" width="71" height="25" rx="7"/><text class="j" x="176" y="622">Boolean</text><a xlink:href="#fixed-decimal-type"><rect class="r" x="166" y="635" width="135" height="25"/><text class="j" x="176" y="652">fixed-decimal-type</text></a><rect class="l" x="25" y="665" width="116" height="25" rx="7"/><text class="j" x="35" y="682">collection-type:</text><a xlink:href="#primitive-type"><rect class="r" x="171" y="665" width="106" height="25"/><text class="j" x="181" y="682">primitive-type</text></a><rect class="l" x="171" y="695" width="25" height="25" rx="7"/><text class="j" x="181" y="712">[</text><a xlink:href="#primitive-type"><rect class="r" x="206" y="695" width="106" height="25"/><text class="j" x="216" y="712">primitive-type</text></a><rect class="l" x="322" y="695" width="25" height="25" rx="7"/><text class="j" x="332" y="712">]</text><rect class="l" x="171" y="725" width="38" height="25" rx="7"/><text class="j" x="181" y="742">#{</text><a xlink:href="#primitive-type"><rect class="r" x="219" y="725" width="106" height="25"/><text class="j" x="229" y="742">primitive-type</text></a><rect class="l" x="335" y="725" width="28" height="25" rx="7"/><text class="j" x="345" y="742">}</text><rect class="l" x="25" y="755" width="100" height="25" rx="7"/><text class="j" x="35" y="772">maybe-type:</text><a xlink:href="#collection-type"><rect class="r" x="155" y="755" width="111" height="25"/><text class="j" x="165" y="772">collection-type</text></a><rect class="l" x="155" y="785" width="25" height="25" rx="7"/><text class="j" x="165" y="802">[</text><rect class="l" x="190" y="785" width="66" height="25" rx="7"/><text class="j" x="200" y="802">:Maybe</text><a xlink:href="#collection-type"><rect class="r" x="266" y="785" width="111" height="25"/><text class="j" x="276" y="802">collection-type</text></a><rect class="l" x="387" y="785" width="25" height="25" rx="7"/><text class="j" x="397" y="802">]</text></svg>