<!--
RULE = (('fixed-decimal-scale:' (0 | 1 | 2 | 3 | 4 | 5 | 6 | 7 | 8 | 9 | 10 | 11 | 12 | 13 | 14 | 15 | 16 | 17 | 18)) |
('fixed-decimal-type:' ('[' :Decimal fixed-decimal-scale ']')) |
('primitive-type:' (:Integer | :String | :Boolean | fixed-decimal-type )) |
('collection-type:' (primitive-type | '[' primitive-type ']' | '#{' primitive-type '}')) |
('maybe-type:' (collection-type | '[' ':Maybe' collection-type ']')));
-->
<svg version="1.1" xmlns:xlink="http://www.w3.org/1999/xlink" xmlns="http://www.w3.org/2000/svg" width="492" height="875" viewbox="0 0 492 875"><defs><style type="text/css">.c{fill: none; stroke: #888888; stroke-width: 2px;}.j{fill:#000000;font-family:Verdana,Sans-serif;font-size:12px;}.l{fill:#90d9ff;stroke:#222222;}.r{fill:#d3f0ff;stroke:#222222;}</style></defs><path class="c" d="M0 18h25m144 0h30m28 0h28m-66 25q0 5 5 5h5m28 0h13q5 0 5-5m-56 30q0 5 5 5h5m28 0h13q5 0 5-5m-56 30q0 5 5 5h5m28 0h13q5 0 5-5m-56 30q0 5 5 5h5m28 0h13q5 0 5-5m-56 30q0 5 5 5h5m28 0h13q5 0 5-5m-56 30q0 5 5 5h5m28 0h13q5 0 5-5m-56 30q0 5 5 5h5m28 0h13q5 0 5-5m-56 30q0 5 5 5h5m28 0h13q5 0 5-5m-56 30q0 5 5 5h5m28 0h13q5 0 5-5m-56 30q0 5 5 5h5m36 0h5q5 0 5-5m-56 30q0 5 5 5h5m36 0h5q5 0 5-5m-56 30q0 5 5 5h5m36 0h5q5 0 5-5m-56 30q0 5 5 5h5m36 0h5q5 0 5-5m-56 30q0 5 5 5h5m36 0h5q5 0 5-5m-56 30q0 5 5 5h5m36 0h5q5 0 5-5m-56 30q0 5 5 5h5m36 0h5q5 0 5-5m-56 30q0 5 5 5h5m36 0h5q5 0 5-5m-61-505q5 0 5 5v530q0 5 5 5h5m36 0h5q5 0 5-5v-530q0-5 5-5m5 0h232m-472 565q0 5 5 5h5m140 0h10m25 0h10m73 0h10m139 0h10m25 0h5q5 0 5-5m-462 30q0 5 5 5h5m111 0h30m72 0h83m-165 25q0 5 5 5h5m62 0h78q5 0 5-5m-155 30q0 5 5 5h5m76 0h64q5 0 5-5m-160-55q5 0 5 5v80q0 5 5 5h5m135 0h5q5 0 5-5v-80q0-5 5-5m5 0h151q5 0 5-5m-462 120q0 5 5 5h5m116 0h30m106 0h106m-222 25q0 5 5 5h5m25 0h10m106 0h10m25 0h21q5 0 5-5m-217-25q5 0 5 5v50q0 5 5 5h5m38 0h10m106 0h10m28 0h5q5 0 5-5v-50q0-5 5-5m5 0h89q5 0 5-5m-467-715q5 0 5 5v800q0 5 5 5h5m100 0h30m111 0h166m-292 0q5 0 5 5v20q0 5 5 5h5m25 0h10m66 0h10m111 0h10m25 0h5q5 0 5-5v-20q0-5 5-5m5 0h40q5 0 5-5v-800q0-5 5-5m5 0h5"/><rect class="l" x="25" y="5" width="144" height="25" rx="7"/><text class="j" x="35" y="22">fixed-decimal-scale:</text><a xlink:href="#0"><rect class="r" x="199" y="5" width="28" height="25"/><text class="j" x="209" y="22">0</text></a><a xlink:href="#1"><rect class="r" x="199" y="35" width="28" height="25"/><text class="j" x="209" y="52">1</text></a><a xlink:href="#2"><rect class="r" x="199" y="65" width="28" height="25"/><text class="j" x="209" y="82">2</text></a><a xlink:href="#3"><rect class="r" x="199" y="95" width="28" height="25"/><text class="j" x="209" y="112">3</text></a><a xlink:href="#4"><rect class="r" x="199" y="125" width="28" height="25"/><text class="j" x="209" y="142">4</text></a><a xlink:href="#5"><rect class="r" x="199" y="155" width="28" height="25"/><text class="j" x="209" y="172">5</text></a><a xlink:href="#6"><rect class="r" x="199" y="185" width="28" height="25"/><text class="j" x="209" y="202">6</text></a><a xlink:href="#7"><rect class="r" x="199" y="215" width="28" height="25"/><text class="j" x="209" y="232">7</text></a><a xlink:href="#8"><rect class="r" x="199" y="245" width="28" height="25"/><text class="j" x="209" y="262">8</text></a><a xlink:href="#9"><rect class="r" x="199" y="275" width="28" height="25"/><text class="j" x="209" y="292">9</text></a><a xlink:href="#10"><rect class="r" x="199" y="305" width="36" height="25"/><text class="j" x="209" y="322">10</text></a><a xlink:href="#11"><rect class="r" x="199" y="335" width="36" height="25"/><text class="j" x="209" y="352">11</text></a><a xlink:href="#12"><rect class="r" x="199" y="365" width="36" height="25"/><text class="j" x="209" y="382">12</text></a><a xlink:href="#13"><rect class="r" x="199" y="395" width="36" height="25"/><text class="j" x="209" y="412">13</text></a><a xlink:href="#14"><rect class="r" x="199" y="425" width="36" height="25"/><text class="j" x="209" y="442">14</text></a><a xlink:href="#15"><rect class="r" x="199" y="455" width="36" height="25"/><text class="j" x="209" y="472">15</text></a><a xlink:href="#16"><rect class="r" x="199" y="485" width="36" height="25"/><text class="j" x="209" y="502">16</text></a><a xlink:href="#17"><rect class="r" x="199" y="515" width="36" height="25"/><text class="j" x="209" y="532">17</text></a><a xlink:href="#18"><rect class="r" x="199" y="545" width="36" height="25"/><text class="j" x="209" y="562">18</text></a><rect class="l" x="25" y="575" width="140" height="25" rx="7"/><text class="j" x="35" y="592">fixed-decimal-type:</text><rect class="l" x="175" y="575" width="25" height="25" rx="7"/><text class="j" x="185" y="592">[</text><a xlink:href="#:Decimal"><rect class="r" x="210" y="575" width="73" height="25"/><text class="j" x="220" y="592">:Decimal</text></a><a xlink:href="#fixed-decimal-scale"><rect class="r" x="293" y="575" width="139" height="25"/><text class="j" x="303" y="592">fixed-decimal-scale</text></a><rect class="l" x="442" y="575" width="25" height="25" rx="7"/><text class="j" x="452" y="592">]</text><rect class="l" x="25" y="605" width="111" height="25" rx="7"/><text class="j" x="35" y="622">primitive-type:</text><a xlink:href="#:Integer"><rect class="r" x="166" y="605" width="72" height="25"/><text class="j" x="176" y="622">:Integer</text></a><a xlink:href="#:String"><rect class="r" x="166" y="635" width="62" height="25"/><text class="j" x="176" y="652">:String</text></a><a xlink:href="#:Boolean"><rect class="r" x="166" y="665" width="76" height="25"/><text class="j" x="176" y="682">:Boolean</text></a><a xlink:href="#fixed-decimal-type"><rect class="r" x="166" y="695" width="135" height="25"/><text class="j" x="176" y="712">fixed-decimal-type</text></a><rect class="l" x="25" y="725" width="116" height="25" rx="7"/><text class="j" x="35" y="742">collection-type:</text><a xlink:href="#primitive-type"><rect class="r" x="171" y="725" width="106" height="25"/><text class="j" x="181" y="742">primitive-type</text></a><rect class="l" x="171" y="755" width="25" height="25" rx="7"/><text class="j" x="181" y="772">[</text><a xlink:href="#primitive-type"><rect class="r" x="206" y="755" width="106" height="25"/><text class="j" x="216" y="772">primitive-type</text></a><rect class="l" x="322" y="755" width="25" height="25" rx="7"/><text class="j" x="332" y="772">]</text><rect class="l" x="171" y="785" width="38" height="25" rx="7"/><text class="j" x="181" y="802">#{</text><a xlink:href="#primitive-type"><rect class="r" x="219" y="785" width="106" height="25"/><text class="j" x="229" y="802">primitive-type</text></a><rect class="l" x="335" y="785" width="28" height="25" rx="7"/><text class="j" x="345" y="802">}</text><rect class="l" x="25" y="815" width="100" height="25" rx="7"/><text class="j" x="35" y="832">maybe-type:</text><a xlink:href="#collection-type"><rect class="r" x="155" y="815" width="111" height="25"/><text class="j" x="165" y="832">collection-type</text></a><rect class="l" x="155" y="845" width="25" height="25" rx="7"/><text class="j" x="165" y="862">[</text><rect class="l" x="190" y="845" width="66" height="25" rx="7"/><text class="j" x="200" y="862">:Maybe</text><a xlink:href="#collection-type"><rect class="r" x="266" y="845" width="111" height="25"/><text class="j" x="276" y="862">collection-type</text></a><rect class="l" x="387" y="845" width="25" height="25" rx="7"/><text class="j" x="397" y="862">]</text></svg>