<svg version="1.1" xmlns:xlink="http://www.w3.org/1999/xlink" xmlns="http://www.w3.org/2000/svg" width="629" height="545" viewbox="0 0 629 545"><defs><style type="text/css">.c{fill:none;stroke:#222222;}.j{fill:#000000;font-family:Verdana,Sans-serif;font-size:12px;}.l{fill:#90d9ff;stroke:#222222;}.r{fill:#d3f0ff;stroke:#222222;}</style></defs><path class="c" d="M0 22h25m25 0h10m71 0h10m28 0h10m71 0h374m-609 25q0 5 5 5h5m54 0h10m34 0h10m54 0h10m28 0h10m71 0h303q5 0 5-5m-599 60q0 5 5 5h5m91 0h10m25 0h10m54 0h10m24 0h30m-5 0q-5 0-5-5v-20q0-5 5-5h20m24 0h20q5 0 5 5v20q0 5-5 5m-5 0h30m25 0h10m28 0h10m71 0h102q5 0 5-5m-599 30q0 5 5 5h5m71 0h10m38 0h10m71 0h10m28 0h10m71 0h265q5 0 5-5m-599 30q0 5 5 5h5m54 0h10m38 0h10m54 0h10m28 0h10m71 0h299q5 0 5-5m-599 60q0 5 5 5h5m70 0h10m25 0h10m54 0h10m24 0h30m-5 0q-5 0-5-5v-20q0-5 5-5h20m24 0h20q5 0 5 5v20q0 5-5 5m-5 0h30m25 0h10m28 0h10m71 0h123q5 0 5-5m-599 30q0 5 5 5h5m71 0h10m38 0h10m71 0h10m28 0h10m71 0h265q5 0 5-5m-599 30q0 5 5 5h5m54 0h10m38 0h10m54 0h10m28 0h10m71 0h299q5 0 5-5m-599 60q0 5 5 5h5m70 0h10m25 0h10m54 0h10m24 0h30m-5 0q-5 0-5-5v-20q0-5 5-5h20m24 0h20q5 0 5 5v20q0 5-5 5m-5 0h30m25 0h10m28 0h10m71 0h123q5 0 5-5m-599 30q0 5 5 5h5m27 0h10m25 0h10m71 0h10m25 0h10m117 0h10m46 0h10m117 0h10m28 0h10m43 0h5q5 0 5-5m-599 30q0 5 5 5h5m54 0h10m34 0h10m54 0h10m28 0h10m71 0h303q5 0 5-5m-599 60q0 5 5 5h5m91 0h10m25 0h10m54 0h10m24 0h30m-5 0q-5 0-5-5v-20q0-5 5-5h20m24 0h20q5 0 5 5v20q0 5-5 5m-5 0h30m25 0h10m28 0h10m71 0h102q5 0 5-5m-599 30q0 5 5 5h5m55 0h10m25 0h10m71 0h10m25 0h10m117 0h10m28 0h10m43 0h160q5 0 5-5m-604-475q5 0 5 5v500q0 5 5 5h5m71 0h10m30 0h10m71 0h10m28 0h10m71 0h273q5 0 5-5v-500q0-5 5-5m5 0h5"/><rect class="l" x="25" y="5" width="25" height="25" rx="7"/><text class="j" x="35" y="22">!</text><a xlink:href="#boolean"><rect class="r" x="60" y="5" width="71" height="25"/><text class="j" x="70" y="22">boolean</text></a><rect class="l" x="141" y="5" width="28" height="25" rx="7"/><text class="j" x="151" y="22">»</text><a xlink:href="#boolean"><rect class="r" x="179" y="5" width="71" height="25"/><text class="j" x="189" y="22">boolean</text></a><a xlink:href="#value"><rect class="r" x="25" y="35" width="54" height="25"/><text class="j" x="35" y="52">value</text></a><rect class="l" x="89" y="35" width="34" height="25" rx="7"/><text class="j" x="99" y="52">!=</text><a xlink:href="#value"><rect class="r" x="133" y="35" width="54" height="25"/><text class="j" x="143" y="52">value</text></a><rect class="l" x="197" y="35" width="28" height="25" rx="7"/><text class="j" x="207" y="52">»</text><a xlink:href="#boolean"><rect class="r" x="235" y="35" width="71" height="25"/><text class="j" x="245" y="52">boolean</text></a><rect class="l" x="25" y="95" width="91" height="25" rx="7"/><text class="j" x="35" y="112">notEqualTo</text><rect class="l" x="126" y="95" width="25" height="25" rx="7"/><text class="j" x="136" y="112">(</text><a xlink:href="#value"><rect class="r" x="161" y="95" width="54" height="25"/><text class="j" x="171" y="112">value</text></a><rect class="l" x="225" y="95" width="24" height="25" rx="7"/><text class="j" x="235" y="112">,</text><rect class="l" x="294" y="65" width="24" height="25" rx="7"/><text class="j" x="304" y="82">,</text><a xlink:href="#value"><rect class="r" x="279" y="95" width="54" height="25"/><text class="j" x="289" y="112">value</text></a><rect class="l" x="363" y="95" width="25" height="25" rx="7"/><text class="j" x="373" y="112">)</text><rect class="l" x="398" y="95" width="28" height="25" rx="7"/><text class="j" x="408" y="112">»</text><a xlink:href="#boolean"><rect class="r" x="436" y="95" width="71" height="25"/><text class="j" x="446" y="112">boolean</text></a><a xlink:href="#boolean"><rect class="r" x="25" y="125" width="71" height="25"/><text class="j" x="35" y="142">boolean</text></a><rect class="l" x="106" y="125" width="38" height="25" rx="7"/><text class="j" x="116" y="142">&amp;&amp;</text><a xlink:href="#boolean"><rect class="r" x="154" y="125" width="71" height="25"/><text class="j" x="164" y="142">boolean</text></a><rect class="l" x="235" y="125" width="28" height="25" rx="7"/><text class="j" x="245" y="142">»</text><a xlink:href="#boolean"><rect class="r" x="273" y="125" width="71" height="25"/><text class="j" x="283" y="142">boolean</text></a><a xlink:href="#value"><rect class="r" x="25" y="155" width="54" height="25"/><text class="j" x="35" y="172">value</text></a><rect class="l" x="89" y="155" width="38" height="25" rx="7"/><text class="j" x="99" y="172">==</text><a xlink:href="#value"><rect class="r" x="137" y="155" width="54" height="25"/><text class="j" x="147" y="172">value</text></a><rect class="l" x="201" y="155" width="28" height="25" rx="7"/><text class="j" x="211" y="172">»</text><a xlink:href="#boolean"><rect class="r" x="239" y="155" width="71" height="25"/><text class="j" x="249" y="172">boolean</text></a><rect class="l" x="25" y="215" width="70" height="25" rx="7"/><text class="j" x="35" y="232">equalTo</text><rect class="l" x="105" y="215" width="25" height="25" rx="7"/><text class="j" x="115" y="232">(</text><a xlink:href="#value"><rect class="r" x="140" y="215" width="54" height="25"/><text class="j" x="150" y="232">value</text></a><rect class="l" x="204" y="215" width="24" height="25" rx="7"/><text class="j" x="214" y="232">,</text><rect class="l" x="273" y="185" width="24" height="25" rx="7"/><text class="j" x="283" y="202">,</text><a xlink:href="#value"><rect class="r" x="258" y="215" width="54" height="25"/><text class="j" x="268" y="232">value</text></a><rect class="l" x="342" y="215" width="25" height="25" rx="7"/><text class="j" x="352" y="232">)</text><rect class="l" x="377" y="215" width="28" height="25" rx="7"/><text class="j" x="387" y="232">»</text><a xlink:href="#boolean"><rect class="r" x="415" y="215" width="71" height="25"/><text class="j" x="425" y="232">boolean</text></a><a xlink:href="#boolean"><rect class="r" x="25" y="245" width="71" height="25"/><text class="j" x="35" y="262">boolean</text></a><rect class="l" x="106" y="245" width="38" height="25" rx="7"/><text class="j" x="116" y="262">=&gt;</text><a xlink:href="#boolean"><rect class="r" x="154" y="245" width="71" height="25"/><text class="j" x="164" y="262">boolean</text></a><rect class="l" x="235" y="245" width="28" height="25" rx="7"/><text class="j" x="245" y="262">»</text><a xlink:href="#boolean"><rect class="r" x="273" y="245" width="71" height="25"/><text class="j" x="283" y="262">boolean</text></a><a xlink:href="#value"><rect class="r" x="25" y="275" width="54" height="25"/><text class="j" x="35" y="292">value</text></a><rect class="l" x="89" y="275" width="38" height="25" rx="7"/><text class="j" x="99" y="292">==</text><a xlink:href="#value"><rect class="r" x="137" y="275" width="54" height="25"/><text class="j" x="147" y="292">value</text></a><rect class="l" x="201" y="275" width="28" height="25" rx="7"/><text class="j" x="211" y="292">»</text><a xlink:href="#boolean"><rect class="r" x="239" y="275" width="71" height="25"/><text class="j" x="249" y="292">boolean</text></a><rect class="l" x="25" y="335" width="70" height="25" rx="7"/><text class="j" x="35" y="352">equalTo</text><rect class="l" x="105" y="335" width="25" height="25" rx="7"/><text class="j" x="115" y="352">(</text><a xlink:href="#value"><rect class="r" x="140" y="335" width="54" height="25"/><text class="j" x="150" y="352">value</text></a><rect class="l" x="204" y="335" width="24" height="25" rx="7"/><text class="j" x="214" y="352">,</text><rect class="l" x="273" y="305" width="24" height="25" rx="7"/><text class="j" x="283" y="322">,</text><a xlink:href="#value"><rect class="r" x="258" y="335" width="54" height="25"/><text class="j" x="268" y="352">value</text></a><rect class="l" x="342" y="335" width="25" height="25" rx="7"/><text class="j" x="352" y="352">)</text><rect class="l" x="377" y="335" width="28" height="25" rx="7"/><text class="j" x="387" y="352">»</text><a xlink:href="#boolean"><rect class="r" x="415" y="335" width="71" height="25"/><text class="j" x="425" y="352">boolean</text></a><rect class="l" x="25" y="365" width="27" height="25" rx="7"/><text class="j" x="35" y="382">if</text><rect class="l" x="62" y="365" width="25" height="25" rx="7"/><text class="j" x="72" y="382">(</text><a xlink:href="#boolean"><rect class="r" x="97" y="365" width="71" height="25"/><text class="j" x="107" y="382">boolean</text></a><rect class="l" x="178" y="365" width="25" height="25" rx="7"/><text class="j" x="188" y="382">)</text><a xlink:href="#any-expression"><rect class="r" x="213" y="365" width="117" height="25"/><text class="j" x="223" y="382">any-expression</text></a><rect class="l" x="340" y="365" width="46" height="25" rx="7"/><text class="j" x="350" y="382">else</text><a xlink:href="#any-expression"><rect class="r" x="396" y="365" width="117" height="25"/><text class="j" x="406" y="382">any-expression</text></a><rect class="l" x="523" y="365" width="28" height="25" rx="7"/><text class="j" x="533" y="382">»</text><a xlink:href="#any"><rect class="r" x="561" y="365" width="43" height="25"/><text class="j" x="571" y="382">any</text></a><a xlink:href="#value"><rect class="r" x="25" y="395" width="54" height="25"/><text class="j" x="35" y="412">value</text></a><rect class="l" x="89" y="395" width="34" height="25" rx="7"/><text class="j" x="99" y="412">!=</text><a xlink:href="#value"><rect class="r" x="133" y="395" width="54" height="25"/><text class="j" x="143" y="412">value</text></a><rect class="l" x="197" y="395" width="28" height="25" rx="7"/><text class="j" x="207" y="412">»</text><a xlink:href="#boolean"><rect class="r" x="235" y="395" width="71" height="25"/><text class="j" x="245" y="412">boolean</text></a><rect class="l" x="25" y="455" width="91" height="25" rx="7"/><text class="j" x="35" y="472">notEqualTo</text><rect class="l" x="126" y="455" width="25" height="25" rx="7"/><text class="j" x="136" y="472">(</text><a xlink:href="#value"><rect class="r" x="161" y="455" width="54" height="25"/><text class="j" x="171" y="472">value</text></a><rect class="l" x="225" y="455" width="24" height="25" rx="7"/><text class="j" x="235" y="472">,</text><rect class="l" x="294" y="425" width="24" height="25" rx="7"/><text class="j" x="304" y="442">,</text><a xlink:href="#value"><rect class="r" x="279" y="455" width="54" height="25"/><text class="j" x="289" y="472">value</text></a><rect class="l" x="363" y="455" width="25" height="25" rx="7"/><text class="j" x="373" y="472">)</text><rect class="l" x="398" y="455" width="28" height="25" rx="7"/><text class="j" x="408" y="472">»</text><a xlink:href="#boolean"><rect class="r" x="436" y="455" width="71" height="25"/><text class="j" x="446" y="472">boolean</text></a><rect class="l" x="25" y="485" width="55" height="25" rx="7"/><text class="j" x="35" y="502">when</text><rect class="l" x="90" y="485" width="25" height="25" rx="7"/><text class="j" x="100" y="502">(</text><a xlink:href="#boolean"><rect class="r" x="125" y="485" width="71" height="25"/><text class="j" x="135" y="502">boolean</text></a><rect class="l" x="206" y="485" width="25" height="25" rx="7"/><text class="j" x="216" y="502">)</text><a xlink:href="#any-expression"><rect class="r" x="241" y="485" width="117" height="25"/><text class="j" x="251" y="502">any-expression</text></a><rect class="l" x="368" y="485" width="28" height="25" rx="7"/><text class="j" x="378" y="502">»</text><a xlink:href="#any"><rect class="r" x="406" y="485" width="43" height="25"/><text class="j" x="416" y="502">any</text></a><a xlink:href="#boolean"><rect class="r" x="25" y="515" width="71" height="25"/><text class="j" x="35" y="532">boolean</text></a><rect class="l" x="106" y="515" width="30" height="25" rx="7"/><text class="j" x="116" y="532">||</text><a xlink:href="#boolean"><rect class="r" x="146" y="515" width="71" height="25"/><text class="j" x="156" y="532">boolean</text></a><rect class="l" x="227" y="515" width="28" height="25" rx="7"/><text class="j" x="237" y="532">»</text><a xlink:href="#boolean"><rect class="r" x="265" y="515" width="71" height="25"/><text class="j" x="275" y="532">boolean</text></a></svg>