<svg version="1.1" xmlns:xlink="http://www.w3.org/1999/xlink" xmlns="http://www.w3.org/2000/svg" width="621" height="353" viewbox="0 0 621 353"><defs><style type="text/css">.c{fill: none; stroke: #888888; stroke-width: 3pt;}.j{fill:#000000;font-family:Dialog,Sans-serif;font-size:12px;}.l{fill:#90d9ff;stroke:#222222;}.r{fill:#d3f0ff;stroke:#222222;}</style></defs><path class="c" d="M0 21h25m25 0h10m71 0h10m27 0h10m71 0h367m-601 24q0 5 5 5h5m53 0h10m35 0h10m53 0h10m27 0h10m71 0h297q5 0 5-5m-591 29q0 5 5 5h5m71 0h10m40 0h10m71 0h10m27 0h10m71 0h256q5 0 5-5m-591 29q0 5 5 5h5m53 0h10m40 0h10m53 0h10m27 0h10m71 0h292q5 0 5-5m-591 29q0 5 5 5h5m71 0h10m40 0h10m71 0h10m27 0h10m71 0h256q5 0 5-5m-591 58q0 5 5 5h5m70 0h10m25 0h10m53 0h10m24 0h30m-5 0q-5 0-5-5v-19q0-5 5-5h19m24 0h20q5 0 5 5v19q0 5-5 5m-5 0h30m25 0h10m27 0h10m71 0h118q5 0 5-5m-591 29q0 5 5 5h5m27 0h10m25 0h10m71 0h10m25 0h10m114 0h10m46 0h10m114 0h10m27 0h10m42 0h5q5 0 5-5m-591 58q0 5 5 5h5m91 0h10m25 0h10m53 0h10m24 0h30m-5 0q-5 0-5-5v-19q0-5 5-5h19m24 0h20q5 0 5 5v19q0 5-5 5m-5 0h30m25 0h10m27 0h10m71 0h97q5 0 5-5m-591 29q0 5 5 5h5m53 0h10m25 0h10m71 0h10m25 0h10m114 0h10m27 0h10m42 0h159q5 0 5-5m-596-285q5 0 5 5v309q0 5 5 5h5m71 0h10m28 0h10m71 0h10m27 0h10m71 0h268q5 0 5-5v-309q0-5 5-5m5 0h5"/><rect class="l" x="25" y="5" width="25" height="24" rx="7"/><text class="j" x="35" y="21">!</text><a xlink:href="#boolean"><rect class="r" x="60" y="5" width="71" height="24"/><text class="j" x="70" y="21">boolean</text></a><rect class="l" x="141" y="5" width="27" height="24" rx="7"/><text class="j" x="151" y="21">»</text><a xlink:href="#boolean"><rect class="r" x="178" y="5" width="71" height="24"/><text class="j" x="188" y="21">boolean</text></a><a xlink:href="#value"><rect class="r" x="25" y="34" width="53" height="24"/><text class="j" x="35" y="50">value</text></a><rect class="l" x="88" y="34" width="35" height="24" rx="7"/><text class="j" x="98" y="50">!=</text><a xlink:href="#value"><rect class="r" x="133" y="34" width="53" height="24"/><text class="j" x="143" y="50">value</text></a><rect class="l" x="196" y="34" width="27" height="24" rx="7"/><text class="j" x="206" y="50">»</text><a xlink:href="#boolean"><rect class="r" x="233" y="34" width="71" height="24"/><text class="j" x="243" y="50">boolean</text></a><a xlink:href="#boolean"><rect class="r" x="25" y="63" width="71" height="24"/><text class="j" x="35" y="79">boolean</text></a><rect class="l" x="106" y="63" width="40" height="24" rx="7"/><text class="j" x="116" y="79">&amp;&amp;</text><a xlink:href="#boolean"><rect class="r" x="156" y="63" width="71" height="24"/><text class="j" x="166" y="79">boolean</text></a><rect class="l" x="237" y="63" width="27" height="24" rx="7"/><text class="j" x="247" y="79">»</text><a xlink:href="#boolean"><rect class="r" x="274" y="63" width="71" height="24"/><text class="j" x="284" y="79">boolean</text></a><a xlink:href="#value"><rect class="r" x="25" y="92" width="53" height="24"/><text class="j" x="35" y="108">value</text></a><rect class="l" x="88" y="92" width="40" height="24" rx="7"/><text class="j" x="98" y="108">==</text><a xlink:href="#value"><rect class="r" x="138" y="92" width="53" height="24"/><text class="j" x="148" y="108">value</text></a><rect class="l" x="201" y="92" width="27" height="24" rx="7"/><text class="j" x="211" y="108">»</text><a xlink:href="#boolean"><rect class="r" x="238" y="92" width="71" height="24"/><text class="j" x="248" y="108">boolean</text></a><a xlink:href="#boolean"><rect class="r" x="25" y="121" width="71" height="24"/><text class="j" x="35" y="137">boolean</text></a><rect class="l" x="106" y="121" width="40" height="24" rx="7"/><text class="j" x="116" y="137">=&gt;</text><a xlink:href="#boolean"><rect class="r" x="156" y="121" width="71" height="24"/><text class="j" x="166" y="137">boolean</text></a><rect class="l" x="237" y="121" width="27" height="24" rx="7"/><text class="j" x="247" y="137">»</text><a xlink:href="#boolean"><rect class="r" x="274" y="121" width="71" height="24"/><text class="j" x="284" y="137">boolean</text></a><rect class="l" x="25" y="179" width="70" height="24" rx="7"/><text class="j" x="35" y="195">equalTo</text><rect class="l" x="105" y="179" width="25" height="24" rx="7"/><text class="j" x="115" y="195">(</text><a xlink:href="#value"><rect class="r" x="140" y="179" width="53" height="24"/><text class="j" x="150" y="195">value</text></a><rect class="l" x="203" y="179" width="24" height="24" rx="7"/><text class="j" x="213" y="195">,</text><rect class="l" x="271" y="150" width="24" height="24" rx="7"/><text class="j" x="281" y="166">,</text><a xlink:href="#value"><rect class="r" x="257" y="179" width="53" height="24"/><text class="j" x="267" y="195">value</text></a><rect class="l" x="340" y="179" width="25" height="24" rx="7"/><text class="j" x="350" y="195">)</text><rect class="l" x="375" y="179" width="27" height="24" rx="7"/><text class="j" x="385" y="195">»</text><a xlink:href="#boolean"><rect class="r" x="412" y="179" width="71" height="24"/><text class="j" x="422" y="195">boolean</text></a><rect class="l" x="25" y="208" width="27" height="24" rx="7"/><text class="j" x="35" y="224">if</text><rect class="l" x="62" y="208" width="25" height="24" rx="7"/><text class="j" x="72" y="224">(</text><a xlink:href="#boolean"><rect class="r" x="97" y="208" width="71" height="24"/><text class="j" x="107" y="224">boolean</text></a><rect class="l" x="178" y="208" width="25" height="24" rx="7"/><text class="j" x="188" y="224">)</text><a xlink:href="#any-expression"><rect class="r" x="213" y="208" width="114" height="24"/><text class="j" x="223" y="224">any-expression</text></a><rect class="l" x="337" y="208" width="46" height="24" rx="7"/><text class="j" x="347" y="224">else</text><a xlink:href="#any-expression"><rect class="r" x="393" y="208" width="114" height="24"/><text class="j" x="403" y="224">any-expression</text></a><rect class="l" x="517" y="208" width="27" height="24" rx="7"/><text class="j" x="527" y="224">»</text><a xlink:href="#any"><rect class="r" x="554" y="208" width="42" height="24"/><text class="j" x="564" y="224">any</text></a><rect class="l" x="25" y="266" width="91" height="24" rx="7"/><text class="j" x="35" y="282">notEqualTo</text><rect class="l" x="126" y="266" width="25" height="24" rx="7"/><text class="j" x="136" y="282">(</text><a xlink:href="#value"><rect class="r" x="161" y="266" width="53" height="24"/><text class="j" x="171" y="282">value</text></a><rect class="l" x="224" y="266" width="24" height="24" rx="7"/><text class="j" x="234" y="282">,</text><rect class="l" x="292" y="237" width="24" height="24" rx="7"/><text class="j" x="302" y="253">,</text><a xlink:href="#value"><rect class="r" x="278" y="266" width="53" height="24"/><text class="j" x="288" y="282">value</text></a><rect class="l" x="361" y="266" width="25" height="24" rx="7"/><text class="j" x="371" y="282">)</text><rect class="l" x="396" y="266" width="27" height="24" rx="7"/><text class="j" x="406" y="282">»</text><a xlink:href="#boolean"><rect class="r" x="433" y="266" width="71" height="24"/><text class="j" x="443" y="282">boolean</text></a><rect class="l" x="25" y="295" width="53" height="24" rx="7"/><text class="j" x="35" y="311">when</text><rect class="l" x="88" y="295" width="25" height="24" rx="7"/><text class="j" x="98" y="311">(</text><a xlink:href="#boolean"><rect class="r" x="123" y="295" width="71" height="24"/><text class="j" x="133" y="311">boolean</text></a><rect class="l" x="204" y="295" width="25" height="24" rx="7"/><text class="j" x="214" y="311">)</text><a xlink:href="#any-expression"><rect class="r" x="239" y="295" width="114" height="24"/><text class="j" x="249" y="311">any-expression</text></a><rect class="l" x="363" y="295" width="27" height="24" rx="7"/><text class="j" x="373" y="311">»</text><a xlink:href="#any"><rect class="r" x="400" y="295" width="42" height="24"/><text class="j" x="410" y="311">any</text></a><a xlink:href="#boolean"><rect class="r" x="25" y="324" width="71" height="24"/><text class="j" x="35" y="340">boolean</text></a><rect class="l" x="106" y="324" width="28" height="24" rx="7"/><text class="j" x="116" y="340">||</text><a xlink:href="#boolean"><rect class="r" x="144" y="324" width="71" height="24"/><text class="j" x="154" y="340">boolean</text></a><rect class="l" x="225" y="324" width="27" height="24" rx="7"/><text class="j" x="235" y="340">»</text><a xlink:href="#boolean"><rect class="r" x="262" y="324" width="71" height="24"/><text class="j" x="272" y="340">boolean</text></a></svg>