<svg version="1.1" xmlns:xlink="http://www.w3.org/1999/xlink" xmlns="http://www.w3.org/2000/svg" width="553" height="305" viewbox="0 0 553 305"><defs><style type="text/css">.c{fill: none; stroke: #888888; stroke-width: 2px;}.j{fill:#000000;font-family:Verdana,Sans-serif;font-size:12px;}.l{fill:#90d9ff;stroke:#222222;}.r{fill:#d3f0ff;stroke:#222222;}</style></defs><path class="c" d="M0 33h25m25 0h10m30 0h10m52 0h30m-5 0q-5 0-5-5v-17q0-5 5-5h62q5 0 5 5v17q0 5-5 5m-5 0h30m25 0h10m28 0h10m66 0h145m-533 25q0 5 5 5h5m25 0h10m40 0h10m66 0h10m66 0h10m25 0h10m28 0h10m66 0h132q5 0 5-5m-523 45q0 5 5 5h5m25 0h10m42 0h10m66 0h30m-5 0q-5 0-5-5v-17q0-5 5-5h76q5 0 5 5v17q0 5-5 5m-5 0h30m25 0h10m28 0h10m66 0h90q5 0 5-5m-523 30q0 5 5 5h5m25 0h10m27 0h10m66 0h10m110 0h10m110 0h10m25 0h10m28 0h10m42 0h5q5 0 5-5m-523 30q0 5 5 5h5m25 0h10m40 0h10m66 0h10m25 0h10m28 0h10m66 0h208q5 0 5-5m-523 45q0 5 5 5h5m25 0h10m50 0h10m52 0h30m-5 0q-5 0-5-5v-17q0-5 5-5h62q5 0 5 5v17q0 5-5 5m-5 0h30m25 0h10m28 0h10m66 0h110q5 0 5-5m-523 45q0 5 5 5h5m25 0h10m32 0h10m66 0h30m-5 0q-5 0-5-5v-17q0-5 5-5h76q5 0 5 5v17q0 5-5 5m-5 0h30m25 0h10m28 0h10m66 0h100q5 0 5-5m-528-220q5 0 5 5v245q0 5 5 5h5m25 0h10m53 0h10m66 0h10m110 0h10m25 0h10m28 0h10m42 0h99q5 0 5-5v-245q0-5 5-5m5 0h5"/><rect class="l" x="25" y="20" width="25" height="25" rx="7"/><text class="j" x="35" y="37">(</text><rect class="l" x="60" y="20" width="30" height="25" rx="7"/><text class="j" x="70" y="37">=</text><a xlink:href="#value"><rect class="r" x="100" y="20" width="52" height="25"/><text class="j" x="110" y="37">value</text></a><a xlink:href="#value"><rect class="r" x="182" y="20" width="52" height="25"/><text class="j" x="192" y="37">value</text></a><rect class="l" x="264" y="20" width="25" height="25" rx="7"/><text class="j" x="274" y="37">)</text><rect class="l" x="299" y="20" width="28" height="25" rx="7"/><text class="j" x="309" y="37">»</text><a xlink:href="#boolean"><rect class="r" x="337" y="20" width="66" height="25"/><text class="j" x="347" y="37">boolean</text></a><rect class="l" x="25" y="50" width="25" height="25" rx="7"/><text class="j" x="35" y="67">(</text><rect class="l" x="60" y="50" width="40" height="25" rx="7"/><text class="j" x="70" y="67">=&gt;</text><a xlink:href="#boolean"><rect class="r" x="110" y="50" width="66" height="25"/><text class="j" x="120" y="67">boolean</text></a><a xlink:href="#boolean"><rect class="r" x="186" y="50" width="66" height="25"/><text class="j" x="196" y="67">boolean</text></a><rect class="l" x="262" y="50" width="25" height="25" rx="7"/><text class="j" x="272" y="67">)</text><rect class="l" x="297" y="50" width="28" height="25" rx="7"/><text class="j" x="307" y="67">»</text><a xlink:href="#boolean"><rect class="r" x="335" y="50" width="66" height="25"/><text class="j" x="345" y="67">boolean</text></a><rect class="l" x="25" y="95" width="25" height="25" rx="7"/><text class="j" x="35" y="112">(</text><rect class="l" x="60" y="95" width="42" height="25" rx="7"/><text class="j" x="70" y="112">and</text><a xlink:href="#boolean"><rect class="r" x="112" y="95" width="66" height="25"/><text class="j" x="122" y="112">boolean</text></a><a xlink:href="#boolean"><rect class="r" x="208" y="95" width="66" height="25"/><text class="j" x="218" y="112">boolean</text></a><rect class="l" x="304" y="95" width="25" height="25" rx="7"/><text class="j" x="314" y="112">)</text><rect class="l" x="339" y="95" width="28" height="25" rx="7"/><text class="j" x="349" y="112">»</text><a xlink:href="#boolean"><rect class="r" x="377" y="95" width="66" height="25"/><text class="j" x="387" y="112">boolean</text></a><rect class="l" x="25" y="125" width="25" height="25" rx="7"/><text class="j" x="35" y="142">(</text><rect class="l" x="60" y="125" width="27" height="25" rx="7"/><text class="j" x="70" y="142">if</text><a xlink:href="#boolean"><rect class="r" x="97" y="125" width="66" height="25"/><text class="j" x="107" y="142">boolean</text></a><a xlink:href="#any-expression"><rect class="r" x="173" y="125" width="110" height="25"/><text class="j" x="183" y="142">any-expression</text></a><a xlink:href="#any-expression"><rect class="r" x="293" y="125" width="110" height="25"/><text class="j" x="303" y="142">any-expression</text></a><rect class="l" x="413" y="125" width="25" height="25" rx="7"/><text class="j" x="423" y="142">)</text><rect class="l" x="448" y="125" width="28" height="25" rx="7"/><text class="j" x="458" y="142">»</text><a xlink:href="#any"><rect class="r" x="486" y="125" width="42" height="25"/><text class="j" x="496" y="142">any</text></a><rect class="l" x="25" y="155" width="25" height="25" rx="7"/><text class="j" x="35" y="172">(</text><rect class="l" x="60" y="155" width="40" height="25" rx="7"/><text class="j" x="70" y="172">not</text><a xlink:href="#boolean"><rect class="r" x="110" y="155" width="66" height="25"/><text class="j" x="120" y="172">boolean</text></a><rect class="l" x="186" y="155" width="25" height="25" rx="7"/><text class="j" x="196" y="172">)</text><rect class="l" x="221" y="155" width="28" height="25" rx="7"/><text class="j" x="231" y="172">»</text><a xlink:href="#boolean"><rect class="r" x="259" y="155" width="66" height="25"/><text class="j" x="269" y="172">boolean</text></a><rect class="l" x="25" y="200" width="25" height="25" rx="7"/><text class="j" x="35" y="217">(</text><rect class="l" x="60" y="200" width="50" height="25" rx="7"/><text class="j" x="70" y="217">not=</text><a xlink:href="#value"><rect class="r" x="120" y="200" width="52" height="25"/><text class="j" x="130" y="217">value</text></a><a xlink:href="#value"><rect class="r" x="202" y="200" width="52" height="25"/><text class="j" x="212" y="217">value</text></a><rect class="l" x="284" y="200" width="25" height="25" rx="7"/><text class="j" x="294" y="217">)</text><rect class="l" x="319" y="200" width="28" height="25" rx="7"/><text class="j" x="329" y="217">»</text><a xlink:href="#boolean"><rect class="r" x="357" y="200" width="66" height="25"/><text class="j" x="367" y="217">boolean</text></a><rect class="l" x="25" y="245" width="25" height="25" rx="7"/><text class="j" x="35" y="262">(</text><rect class="l" x="60" y="245" width="32" height="25" rx="7"/><text class="j" x="70" y="262">or</text><a xlink:href="#boolean"><rect class="r" x="102" y="245" width="66" height="25"/><text class="j" x="112" y="262">boolean</text></a><a xlink:href="#boolean"><rect class="r" x="198" y="245" width="66" height="25"/><text class="j" x="208" y="262">boolean</text></a><rect class="l" x="294" y="245" width="25" height="25" rx="7"/><text class="j" x="304" y="262">)</text><rect class="l" x="329" y="245" width="28" height="25" rx="7"/><text class="j" x="339" y="262">»</text><a xlink:href="#boolean"><rect class="r" x="367" y="245" width="66" height="25"/><text class="j" x="377" y="262">boolean</text></a><rect class="l" x="25" y="275" width="25" height="25" rx="7"/><text class="j" x="35" y="292">(</text><rect class="l" x="60" y="275" width="53" height="25" rx="7"/><text class="j" x="70" y="292">when</text><a xlink:href="#boolean"><rect class="r" x="123" y="275" width="66" height="25"/><text class="j" x="133" y="292">boolean</text></a><a xlink:href="#any-expression"><rect class="r" x="199" y="275" width="110" height="25"/><text class="j" x="209" y="292">any-expression</text></a><rect class="l" x="319" y="275" width="25" height="25" rx="7"/><text class="j" x="329" y="292">)</text><rect class="l" x="354" y="275" width="28" height="25" rx="7"/><text class="j" x="364" y="292">»</text><a xlink:href="#any"><rect class="r" x="392" y="275" width="42" height="25"/><text class="j" x="402" y="292">any</text></a></svg>