<!--
RULE = (('(''='  ( ( value value {value}')' '»' boolean ) ) ) |
('(''=>'  ( ( boolean boolean')' '»' boolean ) ) ) |
('(''and'  ( ( boolean boolean {boolean}')' '»' boolean ) ) ) |
('(''cond'  ( ( boolean any-expression { boolean any-expression } any-expression')' '»' any ) ) ) |
('(''if'  ( ( boolean any-expression any-expression')' '»' any ) ) ) |
('(''not'  ( ( boolean')' '»' boolean ) ) ) |
('(''not='  ( ( value value {value}')' '»' boolean ) ) ) |
('(''or'  ( ( boolean boolean {boolean}')' '»' boolean ) ) ) |
('(''when'  ( ( boolean any-expression')' '»' any ) ) ));
-->
<svg version="1.1" xmlns:xlink="http://www.w3.org/1999/xlink" xmlns="http://www.w3.org/2000/svg" width="884" height="365" viewbox="0 0 884 365"><defs><style type="text/css">.c{fill: none; stroke: #888888; stroke-width: 2px;}.j{fill:#000000;font-family:Verdana,Sans-serif;font-size:12px;}.l{fill:#90d9ff;stroke:#222222;}.r{fill:#d3f0ff;stroke:#222222;}</style></defs><path class="c" d="M0 33h25m25 0h10m29 0h10m54 0h30m-5 0q-5 0-5-5v-17q0-5 5-5h64q5 0 5 5v17q0 5-5 5m-5 0h30m25 0h10m28 0h10m71 0h468m-864 25q0 5 5 5h5m25 0h10m38 0h10m71 0h10m71 0h10m25 0h10m28 0h10m71 0h450q5 0 5-5m-854 45q0 5 5 5h5m25 0h10m44 0h10m71 0h30m-5 0q-5 0-5-5v-17q0-5 5-5h81q5 0 5 5v17q0 5-5 5m-5 0h30m25 0h10m28 0h10m71 0h404q5 0 5-5m-854 45q0 5 5 5h5m25 0h10m50 0h10m71 0h10m117 0h50m-5 0q-5 0-5-5v-17q0-5 5-5h208q5 0 5 5v17q0 5-5 5m-132 0h10m117 0h40m-273 0q5 0 5 5v8q0 5 5 5h248q5 0 5-5v-8q0-5 5-5m5 0h10m117 0h10m25 0h10m28 0h10m43 0h5q5 0 5-5m-854 45q0 5 5 5h5m25 0h10m27 0h10m71 0h10m117 0h10m117 0h10m25 0h10m28 0h10m43 0h316q5 0 5-5m-854 30q0 5 5 5h5m25 0h10m41 0h10m71 0h10m25 0h10m28 0h10m71 0h528q5 0 5-5m-854 45q0 5 5 5h5m25 0h10m50 0h10m54 0h30m-5 0q-5 0-5-5v-17q0-5 5-5h64q5 0 5 5v17q0 5-5 5m-5 0h30m25 0h10m28 0h10m71 0h432q5 0 5-5m-854 45q0 5 5 5h5m25 0h10m33 0h10m71 0h30m-5 0q-5 0-5-5v-17q0-5 5-5h81q5 0 5 5v17q0 5-5 5m-5 0h30m25 0h10m28 0h10m71 0h415q5 0 5-5m-859-280q5 0 5 5v305q0 5 5 5h5m25 0h10m55 0h10m71 0h10m117 0h10m25 0h10m28 0h10m43 0h415q5 0 5-5v-305q0-5 5-5m5 0h5"/><rect class="l" x="25" y="20" width="25" height="25" rx="7"/><text class="j" x="35" y="37">(</text><rect class="l" x="60" y="20" width="29" height="25" rx="7"/><text class="j" x="70" y="37">=</text><a xlink:href="#value"><rect class="r" x="99" y="20" width="54" height="25"/><text class="j" x="109" y="37">value</text></a><a xlink:href="#value"><rect class="r" x="183" y="20" width="54" height="25"/><text class="j" x="193" y="37">value</text></a><rect class="l" x="267" y="20" width="25" height="25" rx="7"/><text class="j" x="277" y="37">)</text><rect class="l" x="302" y="20" width="28" height="25" rx="7"/><text class="j" x="312" y="37">»</text><a xlink:href="#boolean"><rect class="r" x="340" y="20" width="71" height="25"/><text class="j" x="350" y="37">boolean</text></a><rect class="l" x="25" y="50" width="25" height="25" rx="7"/><text class="j" x="35" y="67">(</text><rect class="l" x="60" y="50" width="38" height="25" rx="7"/><text class="j" x="70" y="67">=&gt;</text><a xlink:href="#boolean"><rect class="r" x="108" y="50" width="71" height="25"/><text class="j" x="118" y="67">boolean</text></a><a xlink:href="#boolean"><rect class="r" x="189" y="50" width="71" height="25"/><text class="j" x="199" y="67">boolean</text></a><rect class="l" x="270" y="50" width="25" height="25" rx="7"/><text class="j" x="280" y="67">)</text><rect class="l" x="305" y="50" width="28" height="25" rx="7"/><text class="j" x="315" y="67">»</text><a xlink:href="#boolean"><rect class="r" x="343" y="50" width="71" height="25"/><text class="j" x="353" y="67">boolean</text></a><rect class="l" x="25" y="95" width="25" height="25" rx="7"/><text class="j" x="35" y="112">(</text><rect class="l" x="60" y="95" width="44" height="25" rx="7"/><text class="j" x="70" y="112">and</text><a xlink:href="#boolean"><rect class="r" x="114" y="95" width="71" height="25"/><text class="j" x="124" y="112">boolean</text></a><a xlink:href="#boolean"><rect class="r" x="215" y="95" width="71" height="25"/><text class="j" x="225" y="112">boolean</text></a><rect class="l" x="316" y="95" width="25" height="25" rx="7"/><text class="j" x="326" y="112">)</text><rect class="l" x="351" y="95" width="28" height="25" rx="7"/><text class="j" x="361" y="112">»</text><a xlink:href="#boolean"><rect class="r" x="389" y="95" width="71" height="25"/><text class="j" x="399" y="112">boolean</text></a><rect class="l" x="25" y="140" width="25" height="25" rx="7"/><text class="j" x="35" y="157">(</text><rect class="l" x="60" y="140" width="50" height="25" rx="7"/><text class="j" x="70" y="157">cond</text><a xlink:href="#boolean"><rect class="r" x="120" y="140" width="71" height="25"/><text class="j" x="130" y="157">boolean</text></a><a xlink:href="#any-expression"><rect class="r" x="201" y="140" width="117" height="25"/><text class="j" x="211" y="157">any-expression</text></a><a xlink:href="#boolean"><rect class="r" x="368" y="140" width="71" height="25"/><text class="j" x="378" y="157">boolean</text></a><a xlink:href="#any-expression"><rect class="r" x="449" y="140" width="117" height="25"/><text class="j" x="459" y="157">any-expression</text></a><a xlink:href="#any-expression"><rect class="r" x="616" y="140" width="117" height="25"/><text class="j" x="626" y="157">any-expression</text></a><rect class="l" x="743" y="140" width="25" height="25" rx="7"/><text class="j" x="753" y="157">)</text><rect class="l" x="778" y="140" width="28" height="25" rx="7"/><text class="j" x="788" y="157">»</text><a xlink:href="#any"><rect class="r" x="816" y="140" width="43" height="25"/><text class="j" x="826" y="157">any</text></a><rect class="l" x="25" y="185" width="25" height="25" rx="7"/><text class="j" x="35" y="202">(</text><rect class="l" x="60" y="185" width="27" height="25" rx="7"/><text class="j" x="70" y="202">if</text><a xlink:href="#boolean"><rect class="r" x="97" y="185" width="71" height="25"/><text class="j" x="107" y="202">boolean</text></a><a xlink:href="#any-expression"><rect class="r" x="178" y="185" width="117" height="25"/><text class="j" x="188" y="202">any-expression</text></a><a xlink:href="#any-expression"><rect class="r" x="305" y="185" width="117" height="25"/><text class="j" x="315" y="202">any-expression</text></a><rect class="l" x="432" y="185" width="25" height="25" rx="7"/><text class="j" x="442" y="202">)</text><rect class="l" x="467" y="185" width="28" height="25" rx="7"/><text class="j" x="477" y="202">»</text><a xlink:href="#any"><rect class="r" x="505" y="185" width="43" height="25"/><text class="j" x="515" y="202">any</text></a><rect class="l" x="25" y="215" width="25" height="25" rx="7"/><text class="j" x="35" y="232">(</text><rect class="l" x="60" y="215" width="41" height="25" rx="7"/><text class="j" x="70" y="232">not</text><a xlink:href="#boolean"><rect class="r" x="111" y="215" width="71" height="25"/><text class="j" x="121" y="232">boolean</text></a><rect class="l" x="192" y="215" width="25" height="25" rx="7"/><text class="j" x="202" y="232">)</text><rect class="l" x="227" y="215" width="28" height="25" rx="7"/><text class="j" x="237" y="232">»</text><a xlink:href="#boolean"><rect class="r" x="265" y="215" width="71" height="25"/><text class="j" x="275" y="232">boolean</text></a><rect class="l" x="25" y="260" width="25" height="25" rx="7"/><text class="j" x="35" y="277">(</text><rect class="l" x="60" y="260" width="50" height="25" rx="7"/><text class="j" x="70" y="277">not=</text><a xlink:href="#value"><rect class="r" x="120" y="260" width="54" height="25"/><text class="j" x="130" y="277">value</text></a><a xlink:href="#value"><rect class="r" x="204" y="260" width="54" height="25"/><text class="j" x="214" y="277">value</text></a><rect class="l" x="288" y="260" width="25" height="25" rx="7"/><text class="j" x="298" y="277">)</text><rect class="l" x="323" y="260" width="28" height="25" rx="7"/><text class="j" x="333" y="277">»</text><a xlink:href="#boolean"><rect class="r" x="361" y="260" width="71" height="25"/><text class="j" x="371" y="277">boolean</text></a><rect class="l" x="25" y="305" width="25" height="25" rx="7"/><text class="j" x="35" y="322">(</text><rect class="l" x="60" y="305" width="33" height="25" rx="7"/><text class="j" x="70" y="322">or</text><a xlink:href="#boolean"><rect class="r" x="103" y="305" width="71" height="25"/><text class="j" x="113" y="322">boolean</text></a><a xlink:href="#boolean"><rect class="r" x="204" y="305" width="71" height="25"/><text class="j" x="214" y="322">boolean</text></a><rect class="l" x="305" y="305" width="25" height="25" rx="7"/><text class="j" x="315" y="322">)</text><rect class="l" x="340" y="305" width="28" height="25" rx="7"/><text class="j" x="350" y="322">»</text><a xlink:href="#boolean"><rect class="r" x="378" y="305" width="71" height="25"/><text class="j" x="388" y="322">boolean</text></a><rect class="l" x="25" y="335" width="25" height="25" rx="7"/><text class="j" x="35" y="352">(</text><rect class="l" x="60" y="335" width="55" height="25" rx="7"/><text class="j" x="70" y="352">when</text><a xlink:href="#boolean"><rect class="r" x="125" y="335" width="71" height="25"/><text class="j" x="135" y="352">boolean</text></a><a xlink:href="#any-expression"><rect class="r" x="206" y="335" width="117" height="25"/><text class="j" x="216" y="352">any-expression</text></a><rect class="l" x="333" y="335" width="25" height="25" rx="7"/><text class="j" x="343" y="352">)</text><rect class="l" x="368" y="335" width="28" height="25" rx="7"/><text class="j" x="378" y="352">»</text><a xlink:href="#any"><rect class="r" x="406" y="335" width="43" height="25"/><text class="j" x="416" y="352">any</text></a></svg>