<svg version="1.1" xmlns:xlink="http://www.w3.org/1999/xlink" xmlns="http://www.w3.org/2000/svg" width="573" height="260" viewbox="0 0 573 260"><defs><style type="text/css">.c{fill:none;stroke:#222222;}.j{fill:#000000;font-family:Verdana,Sans-serif;font-size:12px;}.l{fill:#90d9ff;stroke:#222222;}.r{fill:#d3f0ff;stroke:#222222;}</style></defs><path class="c" d="M0 22h25m25 0h10m38 0h10m71 0h10m71 0h10m25 0h10m28 0h10m71 0h154m-553 40q0 5 5 5h5m25 0h10m44 0h10m71 0h30m-5 0q-5 0-5-5v-17q0-5 5-5h81q5 0 5 5v17q0 5-5 5m-5 0h30m25 0h10m28 0h10m71 0h93q5 0 5-5m-543 30q0 5 5 5h5m25 0h10m27 0h10m71 0h10m117 0h10m117 0h10m25 0h10m28 0h10m43 0h5q5 0 5-5m-543 30q0 5 5 5h5m25 0h10m41 0h10m71 0h10m25 0h10m28 0h10m71 0h217q5 0 5-5m-543 45q0 5 5 5h5m25 0h10m50 0h10m54 0h30m-5 0q-5 0-5-5v-17q0-5 5-5h64q5 0 5 5v17q0 5-5 5m-5 0h30m25 0h10m28 0h10m71 0h121q5 0 5-5m-543 45q0 5 5 5h5m25 0h10m33 0h10m71 0h30m-5 0q-5 0-5-5v-17q0-5 5-5h81q5 0 5 5v17q0 5-5 5m-5 0h30m25 0h10m28 0h10m71 0h104q5 0 5-5m-548-190q5 0 5 5v215q0 5 5 5h5m25 0h10m55 0h10m71 0h10m117 0h10m25 0h10m28 0h10m43 0h104q5 0 5-5v-215q0-5 5-5m5 0h5"/><rect class="l" x="25" y="5" width="25" height="25" rx="7"/><text class="j" x="35" y="22">(</text><rect class="l" x="60" y="5" width="38" height="25" rx="7"/><text class="j" x="70" y="22">=&gt;</text><a xlink:href="#boolean"><rect class="r" x="108" y="5" width="71" height="25"/><text class="j" x="118" y="22">boolean</text></a><a xlink:href="#boolean"><rect class="r" x="189" y="5" width="71" height="25"/><text class="j" x="199" y="22">boolean</text></a><rect class="l" x="270" y="5" width="25" height="25" rx="7"/><text class="j" x="280" y="22">)</text><rect class="l" x="305" y="5" width="28" height="25" rx="7"/><text class="j" x="315" y="22">»</text><a xlink:href="#boolean"><rect class="r" x="343" y="5" width="71" height="25"/><text class="j" x="353" y="22">boolean</text></a><rect class="l" x="25" y="50" width="25" height="25" rx="7"/><text class="j" x="35" y="67">(</text><rect class="l" x="60" y="50" width="44" height="25" rx="7"/><text class="j" x="70" y="67">and</text><a xlink:href="#boolean"><rect class="r" x="114" y="50" width="71" height="25"/><text class="j" x="124" y="67">boolean</text></a><a xlink:href="#boolean"><rect class="r" x="215" y="50" width="71" height="25"/><text class="j" x="225" y="67">boolean</text></a><rect class="l" x="316" y="50" width="25" height="25" rx="7"/><text class="j" x="326" y="67">)</text><rect class="l" x="351" y="50" width="28" height="25" rx="7"/><text class="j" x="361" y="67">»</text><a xlink:href="#boolean"><rect class="r" x="389" y="50" width="71" height="25"/><text class="j" x="399" y="67">boolean</text></a><rect class="l" x="25" y="80" width="25" height="25" rx="7"/><text class="j" x="35" y="97">(</text><rect class="l" x="60" y="80" width="27" height="25" rx="7"/><text class="j" x="70" y="97">if</text><a xlink:href="#boolean"><rect class="r" x="97" y="80" width="71" height="25"/><text class="j" x="107" y="97">boolean</text></a><a xlink:href="#any-expression"><rect class="r" x="178" y="80" width="117" height="25"/><text class="j" x="188" y="97">any-expression</text></a><a xlink:href="#any-expression"><rect class="r" x="305" y="80" width="117" height="25"/><text class="j" x="315" y="97">any-expression</text></a><rect class="l" x="432" y="80" width="25" height="25" rx="7"/><text class="j" x="442" y="97">)</text><rect class="l" x="467" y="80" width="28" height="25" rx="7"/><text class="j" x="477" y="97">»</text><a xlink:href="#any"><rect class="r" x="505" y="80" width="43" height="25"/><text class="j" x="515" y="97">any</text></a><rect class="l" x="25" y="110" width="25" height="25" rx="7"/><text class="j" x="35" y="127">(</text><rect class="l" x="60" y="110" width="41" height="25" rx="7"/><text class="j" x="70" y="127">not</text><a xlink:href="#boolean"><rect class="r" x="111" y="110" width="71" height="25"/><text class="j" x="121" y="127">boolean</text></a><rect class="l" x="192" y="110" width="25" height="25" rx="7"/><text class="j" x="202" y="127">)</text><rect class="l" x="227" y="110" width="28" height="25" rx="7"/><text class="j" x="237" y="127">»</text><a xlink:href="#boolean"><rect class="r" x="265" y="110" width="71" height="25"/><text class="j" x="275" y="127">boolean</text></a><rect class="l" x="25" y="155" width="25" height="25" rx="7"/><text class="j" x="35" y="172">(</text><rect class="l" x="60" y="155" width="50" height="25" rx="7"/><text class="j" x="70" y="172">not=</text><a xlink:href="#value"><rect class="r" x="120" y="155" width="54" height="25"/><text class="j" x="130" y="172">value</text></a><a xlink:href="#value"><rect class="r" x="204" y="155" width="54" height="25"/><text class="j" x="214" y="172">value</text></a><rect class="l" x="288" y="155" width="25" height="25" rx="7"/><text class="j" x="298" y="172">)</text><rect class="l" x="323" y="155" width="28" height="25" rx="7"/><text class="j" x="333" y="172">»</text><a xlink:href="#boolean"><rect class="r" x="361" y="155" width="71" height="25"/><text class="j" x="371" y="172">boolean</text></a><rect class="l" x="25" y="200" width="25" height="25" rx="7"/><text class="j" x="35" y="217">(</text><rect class="l" x="60" y="200" width="33" height="25" rx="7"/><text class="j" x="70" y="217">or</text><a xlink:href="#boolean"><rect class="r" x="103" y="200" width="71" height="25"/><text class="j" x="113" y="217">boolean</text></a><a xlink:href="#boolean"><rect class="r" x="204" y="200" width="71" height="25"/><text class="j" x="214" y="217">boolean</text></a><rect class="l" x="305" y="200" width="25" height="25" rx="7"/><text class="j" x="315" y="217">)</text><rect class="l" x="340" y="200" width="28" height="25" rx="7"/><text class="j" x="350" y="217">»</text><a xlink:href="#boolean"><rect class="r" x="378" y="200" width="71" height="25"/><text class="j" x="388" y="217">boolean</text></a><rect class="l" x="25" y="230" width="25" height="25" rx="7"/><text class="j" x="35" y="247">(</text><rect class="l" x="60" y="230" width="55" height="25" rx="7"/><text class="j" x="70" y="247">when</text><a xlink:href="#boolean"><rect class="r" x="125" y="230" width="71" height="25"/><text class="j" x="135" y="247">boolean</text></a><a xlink:href="#any-expression"><rect class="r" x="206" y="230" width="117" height="25"/><text class="j" x="216" y="247">any-expression</text></a><rect class="l" x="333" y="230" width="25" height="25" rx="7"/><text class="j" x="343" y="247">)</text><rect class="l" x="368" y="230" width="28" height="25" rx="7"/><text class="j" x="378" y="247">»</text><a xlink:href="#any"><rect class="r" x="406" y="230" width="43" height="25"/><text class="j" x="416" y="247">any</text></a></svg>