<svg version="1.1" xmlns:xlink="http://www.w3.org/1999/xlink" xmlns="http://www.w3.org/2000/svg" width="573" height="305" viewbox="0 0 573 305"><defs><style type="text/css">.c{fill: none; stroke: #888888; stroke-width: 2px;}.j{fill:#000000;font-family:Verdana,Sans-serif;font-size:12px;}.l{fill:#90d9ff;stroke:#222222;}.r{fill:#d3f0ff;stroke:#222222;}</style></defs><path class="c" d="M0 33h25m25 0h10m29 0h10m54 0h30m-5 0q-5 0-5-5v-17q0-5 5-5h64q5 0 5 5v17q0 5-5 5m-5 0h30m25 0h10m28 0h10m71 0h157m-553 25q0 5 5 5h5m25 0h10m38 0h10m71 0h10m71 0h10m25 0h10m28 0h10m71 0h139q5 0 5-5m-543 45q0 5 5 5h5m25 0h10m44 0h10m71 0h30m-5 0q-5 0-5-5v-17q0-5 5-5h81q5 0 5 5v17q0 5-5 5m-5 0h30m25 0h10m28 0h10m71 0h93q5 0 5-5m-543 30q0 5 5 5h5m25 0h10m27 0h10m71 0h10m117 0h10m117 0h10m25 0h10m28 0h10m43 0h5q5 0 5-5m-543 30q0 5 5 5h5m25 0h10m41 0h10m71 0h10m25 0h10m28 0h10m71 0h217q5 0 5-5m-543 45q0 5 5 5h5m25 0h10m50 0h10m54 0h30m-5 0q-5 0-5-5v-17q0-5 5-5h64q5 0 5 5v17q0 5-5 5m-5 0h30m25 0h10m28 0h10m71 0h121q5 0 5-5m-543 45q0 5 5 5h5m25 0h10m33 0h10m71 0h30m-5 0q-5 0-5-5v-17q0-5 5-5h81q5 0 5 5v17q0 5-5 5m-5 0h30m25 0h10m28 0h10m71 0h104q5 0 5-5m-548-220q5 0 5 5v245q0 5 5 5h5m25 0h10m55 0h10m71 0h10m117 0h10m25 0h10m28 0h10m43 0h104q5 0 5-5v-245q0-5 5-5m5 0h5"/><rect class="l" x="25" y="20" width="25" height="25" rx="7"/><text class="j" x="35" y="37">(</text><rect class="l" x="60" y="20" width="29" height="25" rx="7"/><text class="j" x="70" y="37">=</text><a xlink:href="#value"><rect class="r" x="99" y="20" width="54" height="25"/><text class="j" x="109" y="37">value</text></a><a xlink:href="#value"><rect class="r" x="183" y="20" width="54" height="25"/><text class="j" x="193" y="37">value</text></a><rect class="l" x="267" y="20" width="25" height="25" rx="7"/><text class="j" x="277" y="37">)</text><rect class="l" x="302" y="20" width="28" height="25" rx="7"/><text class="j" x="312" y="37">»</text><a xlink:href="#boolean"><rect class="r" x="340" y="20" width="71" height="25"/><text class="j" x="350" y="37">boolean</text></a><rect class="l" x="25" y="50" width="25" height="25" rx="7"/><text class="j" x="35" y="67">(</text><rect class="l" x="60" y="50" width="38" height="25" rx="7"/><text class="j" x="70" y="67">=&gt;</text><a xlink:href="#boolean"><rect class="r" x="108" y="50" width="71" height="25"/><text class="j" x="118" y="67">boolean</text></a><a xlink:href="#boolean"><rect class="r" x="189" y="50" width="71" height="25"/><text class="j" x="199" y="67">boolean</text></a><rect class="l" x="270" y="50" width="25" height="25" rx="7"/><text class="j" x="280" y="67">)</text><rect class="l" x="305" y="50" width="28" height="25" rx="7"/><text class="j" x="315" y="67">»</text><a xlink:href="#boolean"><rect class="r" x="343" y="50" width="71" height="25"/><text class="j" x="353" y="67">boolean</text></a><rect class="l" x="25" y="95" width="25" height="25" rx="7"/><text class="j" x="35" y="112">(</text><rect class="l" x="60" y="95" width="44" height="25" rx="7"/><text class="j" x="70" y="112">and</text><a xlink:href="#boolean"><rect class="r" x="114" y="95" width="71" height="25"/><text class="j" x="124" y="112">boolean</text></a><a xlink:href="#boolean"><rect class="r" x="215" y="95" width="71" height="25"/><text class="j" x="225" y="112">boolean</text></a><rect class="l" x="316" y="95" width="25" height="25" rx="7"/><text class="j" x="326" y="112">)</text><rect class="l" x="351" y="95" width="28" height="25" rx="7"/><text class="j" x="361" y="112">»</text><a xlink:href="#boolean"><rect class="r" x="389" y="95" width="71" height="25"/><text class="j" x="399" y="112">boolean</text></a><rect class="l" x="25" y="125" width="25" height="25" rx="7"/><text class="j" x="35" y="142">(</text><rect class="l" x="60" y="125" width="27" height="25" rx="7"/><text class="j" x="70" y="142">if</text><a xlink:href="#boolean"><rect class="r" x="97" y="125" width="71" height="25"/><text class="j" x="107" y="142">boolean</text></a><a xlink:href="#any-expression"><rect class="r" x="178" y="125" width="117" height="25"/><text class="j" x="188" y="142">any-expression</text></a><a xlink:href="#any-expression"><rect class="r" x="305" y="125" width="117" height="25"/><text class="j" x="315" y="142">any-expression</text></a><rect class="l" x="432" y="125" width="25" height="25" rx="7"/><text class="j" x="442" y="142">)</text><rect class="l" x="467" y="125" width="28" height="25" rx="7"/><text class="j" x="477" y="142">»</text><a xlink:href="#any"><rect class="r" x="505" y="125" width="43" height="25"/><text class="j" x="515" y="142">any</text></a><rect class="l" x="25" y="155" width="25" height="25" rx="7"/><text class="j" x="35" y="172">(</text><rect class="l" x="60" y="155" width="41" height="25" rx="7"/><text class="j" x="70" y="172">not</text><a xlink:href="#boolean"><rect class="r" x="111" y="155" width="71" height="25"/><text class="j" x="121" y="172">boolean</text></a><rect class="l" x="192" y="155" width="25" height="25" rx="7"/><text class="j" x="202" y="172">)</text><rect class="l" x="227" y="155" width="28" height="25" rx="7"/><text class="j" x="237" y="172">»</text><a xlink:href="#boolean"><rect class="r" x="265" y="155" width="71" height="25"/><text class="j" x="275" y="172">boolean</text></a><rect class="l" x="25" y="200" width="25" height="25" rx="7"/><text class="j" x="35" y="217">(</text><rect class="l" x="60" y="200" width="50" height="25" rx="7"/><text class="j" x="70" y="217">not=</text><a xlink:href="#value"><rect class="r" x="120" y="200" width="54" height="25"/><text class="j" x="130" y="217">value</text></a><a xlink:href="#value"><rect class="r" x="204" y="200" width="54" height="25"/><text class="j" x="214" y="217">value</text></a><rect class="l" x="288" y="200" width="25" height="25" rx="7"/><text class="j" x="298" y="217">)</text><rect class="l" x="323" y="200" width="28" height="25" rx="7"/><text class="j" x="333" y="217">»</text><a xlink:href="#boolean"><rect class="r" x="361" y="200" width="71" height="25"/><text class="j" x="371" y="217">boolean</text></a><rect class="l" x="25" y="245" width="25" height="25" rx="7"/><text class="j" x="35" y="262">(</text><rect class="l" x="60" y="245" width="33" height="25" rx="7"/><text class="j" x="70" y="262">or</text><a xlink:href="#boolean"><rect class="r" x="103" y="245" width="71" height="25"/><text class="j" x="113" y="262">boolean</text></a><a xlink:href="#boolean"><rect class="r" x="204" y="245" width="71" height="25"/><text class="j" x="214" y="262">boolean</text></a><rect class="l" x="305" y="245" width="25" height="25" rx="7"/><text class="j" x="315" y="262">)</text><rect class="l" x="340" y="245" width="28" height="25" rx="7"/><text class="j" x="350" y="262">»</text><a xlink:href="#boolean"><rect class="r" x="378" y="245" width="71" height="25"/><text class="j" x="388" y="262">boolean</text></a><rect class="l" x="25" y="275" width="25" height="25" rx="7"/><text class="j" x="35" y="292">(</text><rect class="l" x="60" y="275" width="55" height="25" rx="7"/><text class="j" x="70" y="292">when</text><a xlink:href="#boolean"><rect class="r" x="125" y="275" width="71" height="25"/><text class="j" x="135" y="292">boolean</text></a><a xlink:href="#any-expression"><rect class="r" x="206" y="275" width="117" height="25"/><text class="j" x="216" y="292">any-expression</text></a><rect class="l" x="333" y="275" width="25" height="25" rx="7"/><text class="j" x="343" y="292">)</text><rect class="l" x="368" y="275" width="28" height="25" rx="7"/><text class="j" x="378" y="292">»</text><a xlink:href="#any"><rect class="r" x="406" y="275" width="43" height="25"/><text class="j" x="416" y="292">any</text></a></svg>