<svg version="1.1" xmlns:xlink="http://www.w3.org/1999/xlink" xmlns="http://www.w3.org/2000/svg" width="702" height="703" viewbox="0 0 702 703"><defs><style type="text/css">.c{fill: none; stroke: #888888; stroke-width: 3pt;}.j{fill:#000000;font-family:Dialog,Sans-serif;font-size:12px;}.l{fill:#90d9ff;stroke:#222222;}.r{fill:#d3f0ff;stroke:#222222;}</style></defs><path class="c" d="M0 21h25m25 0h10m30 0h30m65 0h10m65 0h92m-247 0q5 0 5 5v19q0 5 5 5h5m101 0h10m101 0h5q5 0 5-5v-19q0-5 5-5m5 0h10m25 0h10m27 0h10m71 0h192m-682 53q0 5 5 5h5m25 0h10m40 0h30m65 0h10m65 0h92m-247 0q5 0 5 5v19q0 5 5 5h5m101 0h10m101 0h5q5 0 5-5v-19q0-5 5-5m5 0h10m25 0h10m27 0h10m71 0h167q5 0 5-5m-672 73q0 5 5 5h5m25 0h10m30 0h10m53 0h30m-5 0q-5 0-5-5v-16q0-5 5-5h63q5 0 5 5v16q0 5-5 5m-5 0h30m25 0h10m27 0h10m71 0h273q5 0 5-5m-672 29q0 5 5 5h5m25 0h10m40 0h10m71 0h10m71 0h10m25 0h10m27 0h10m71 0h267q5 0 5-5m-672 29q0 5 5 5h5m25 0h10m30 0h30m65 0h10m65 0h92m-247 0q5 0 5 5v19q0 5 5 5h5m101 0h10m101 0h5q5 0 5-5v-19q0-5 5-5m5 0h10m25 0h10m27 0h10m71 0h177q5 0 5-5m-672 58q0 5 5 5h5m25 0h10m40 0h30m65 0h10m65 0h92m-247 0q5 0 5 5v19q0 5 5 5h5m101 0h10m101 0h5q5 0 5-5v-19q0-5 5-5m5 0h10m25 0h10m27 0h10m71 0h167q5 0 5-5m-672 73q0 5 5 5h5m25 0h10m44 0h10m71 0h30m-5 0q-5 0-5-5v-16q0-5 5-5h81q5 0 5 5v16q0 5-5 5m-5 0h30m25 0h10m27 0h10m71 0h223q5 0 5-5m-672 29q0 5 5 5h5m25 0h10m48 0h10m25 0h10m63 0h30m40 0h39m-94 0q5 0 5 5v19q0 5 5 5h5m59 0h5q5 0 5-5v-19q0-5 5-5m5 0h10m25 0h10m143 0h10m25 0h10m27 0h10m71 0h16q5 0 5-5m-672 58q0 5 5 5h5m25 0h10m80 0h10m40 0h10m53 0h10m25 0h10m27 0h10m71 0h276q5 0 5-5m-672 29q0 5 5 5h5m25 0h10m59 0h10m25 0h10m63 0h30m40 0h39m-94 0q5 0 5 5v19q0 5 5 5h5m59 0h5q5 0 5-5v-19q0-5 5-5m5 0h10m25 0h10m143 0h10m25 0h10m27 0h10m71 0h5q5 0 5-5m-672 58q0 5 5 5h5m25 0h10m41 0h10m71 0h10m25 0h10m27 0h10m71 0h347q5 0 5-5m-672 44q0 5 5 5h5m25 0h10m51 0h10m53 0h30m-5 0q-5 0-5-5v-16q0-5 5-5h63q5 0 5 5v16q0 5-5 5m-5 0h30m25 0h10m27 0h10m71 0h252q5 0 5-5m-672 44q0 5 5 5h5m25 0h10m33 0h10m71 0h30m-5 0q-5 0-5-5v-16q0-5 5-5h81q5 0 5 5v16q0 5-5 5m-5 0h30m25 0h10m27 0h10m71 0h234q5 0 5-5m-672 29q0 5 5 5h5m25 0h10m86 0h10m74 0h10m120 0h10m25 0h10m27 0h10m71 0h169q5 0 5-5m-672 29q0 5 5 5h5m25 0h10m69 0h10m40 0h10m40 0h10m25 0h10m27 0h10m71 0h300q5 0 5-5m-677-635q5 0 5 5v659q0 5 5 5h5m25 0h10m54 0h10m146 0h10m25 0h10m27 0h10m71 0h259q5 0 5-5v-659q0-5 5-5m5 0h5"/><rect class="l" x="25" y="5" width="25" height="24" rx="7"/><text class="j" x="35" y="21">(</text><rect class="l" x="60" y="5" width="30" height="24" rx="7"/><text class="j" x="70" y="21">&lt;</text><a xlink:href="#integer"><rect class="r" x="120" y="5" width="65" height="24"/><text class="j" x="130" y="21">integer</text></a><a xlink:href="#integer"><rect class="r" x="195" y="5" width="65" height="24"/><text class="j" x="205" y="21">integer</text></a><a xlink:href="#fixed-decimal"><rect class="r" x="120" y="34" width="101" height="24"/><text class="j" x="130" y="50">fixed-decimal</text></a><a xlink:href="#fixed-decimal"><rect class="r" x="231" y="34" width="101" height="24"/><text class="j" x="241" y="50">fixed-decimal</text></a><rect class="l" x="362" y="5" width="25" height="24" rx="7"/><text class="j" x="372" y="21">)</text><rect class="l" x="397" y="5" width="27" height="24" rx="7"/><text class="j" x="407" y="21">»</text><a xlink:href="#boolean"><rect class="r" x="434" y="5" width="71" height="24"/><text class="j" x="444" y="21">boolean</text></a><rect class="l" x="25" y="63" width="25" height="24" rx="7"/><text class="j" x="35" y="79">(</text><rect class="l" x="60" y="63" width="40" height="24" rx="7"/><text class="j" x="70" y="79">&lt;=</text><a xlink:href="#integer"><rect class="r" x="130" y="63" width="65" height="24"/><text class="j" x="140" y="79">integer</text></a><a xlink:href="#integer"><rect class="r" x="205" y="63" width="65" height="24"/><text class="j" x="215" y="79">integer</text></a><a xlink:href="#fixed-decimal"><rect class="r" x="130" y="92" width="101" height="24"/><text class="j" x="140" y="108">fixed-decimal</text></a><a xlink:href="#fixed-decimal"><rect class="r" x="241" y="92" width="101" height="24"/><text class="j" x="251" y="108">fixed-decimal</text></a><rect class="l" x="372" y="63" width="25" height="24" rx="7"/><text class="j" x="382" y="79">)</text><rect class="l" x="407" y="63" width="27" height="24" rx="7"/><text class="j" x="417" y="79">»</text><a xlink:href="#boolean"><rect class="r" x="444" y="63" width="71" height="24"/><text class="j" x="454" y="79">boolean</text></a><rect class="l" x="25" y="136" width="25" height="24" rx="7"/><text class="j" x="35" y="152">(</text><rect class="l" x="60" y="136" width="30" height="24" rx="7"/><text class="j" x="70" y="152">=</text><a xlink:href="#value"><rect class="r" x="100" y="136" width="53" height="24"/><text class="j" x="110" y="152">value</text></a><a xlink:href="#value"><rect class="r" x="183" y="136" width="53" height="24"/><text class="j" x="193" y="152">value</text></a><rect class="l" x="266" y="136" width="25" height="24" rx="7"/><text class="j" x="276" y="152">)</text><rect class="l" x="301" y="136" width="27" height="24" rx="7"/><text class="j" x="311" y="152">»</text><a xlink:href="#boolean"><rect class="r" x="338" y="136" width="71" height="24"/><text class="j" x="348" y="152">boolean</text></a><rect class="l" x="25" y="165" width="25" height="24" rx="7"/><text class="j" x="35" y="181">(</text><rect class="l" x="60" y="165" width="40" height="24" rx="7"/><text class="j" x="70" y="181">=&gt;</text><a xlink:href="#boolean"><rect class="r" x="110" y="165" width="71" height="24"/><text class="j" x="120" y="181">boolean</text></a><a xlink:href="#boolean"><rect class="r" x="191" y="165" width="71" height="24"/><text class="j" x="201" y="181">boolean</text></a><rect class="l" x="272" y="165" width="25" height="24" rx="7"/><text class="j" x="282" y="181">)</text><rect class="l" x="307" y="165" width="27" height="24" rx="7"/><text class="j" x="317" y="181">»</text><a xlink:href="#boolean"><rect class="r" x="344" y="165" width="71" height="24"/><text class="j" x="354" y="181">boolean</text></a><rect class="l" x="25" y="194" width="25" height="24" rx="7"/><text class="j" x="35" y="210">(</text><rect class="l" x="60" y="194" width="30" height="24" rx="7"/><text class="j" x="70" y="210">&gt;</text><a xlink:href="#integer"><rect class="r" x="120" y="194" width="65" height="24"/><text class="j" x="130" y="210">integer</text></a><a xlink:href="#integer"><rect class="r" x="195" y="194" width="65" height="24"/><text class="j" x="205" y="210">integer</text></a><a xlink:href="#fixed-decimal"><rect class="r" x="120" y="223" width="101" height="24"/><text class="j" x="130" y="239">fixed-decimal</text></a><a xlink:href="#fixed-decimal"><rect class="r" x="231" y="223" width="101" height="24"/><text class="j" x="241" y="239">fixed-decimal</text></a><rect class="l" x="362" y="194" width="25" height="24" rx="7"/><text class="j" x="372" y="210">)</text><rect class="l" x="397" y="194" width="27" height="24" rx="7"/><text class="j" x="407" y="210">»</text><a xlink:href="#boolean"><rect class="r" x="434" y="194" width="71" height="24"/><text class="j" x="444" y="210">boolean</text></a><rect class="l" x="25" y="252" width="25" height="24" rx="7"/><text class="j" x="35" y="268">(</text><rect class="l" x="60" y="252" width="40" height="24" rx="7"/><text class="j" x="70" y="268">&gt;=</text><a xlink:href="#integer"><rect class="r" x="130" y="252" width="65" height="24"/><text class="j" x="140" y="268">integer</text></a><a xlink:href="#integer"><rect class="r" x="205" y="252" width="65" height="24"/><text class="j" x="215" y="268">integer</text></a><a xlink:href="#fixed-decimal"><rect class="r" x="130" y="281" width="101" height="24"/><text class="j" x="140" y="297">fixed-decimal</text></a><a xlink:href="#fixed-decimal"><rect class="r" x="241" y="281" width="101" height="24"/><text class="j" x="251" y="297">fixed-decimal</text></a><rect class="l" x="372" y="252" width="25" height="24" rx="7"/><text class="j" x="382" y="268">)</text><rect class="l" x="407" y="252" width="27" height="24" rx="7"/><text class="j" x="417" y="268">»</text><a xlink:href="#boolean"><rect class="r" x="444" y="252" width="71" height="24"/><text class="j" x="454" y="268">boolean</text></a><rect class="l" x="25" y="325" width="25" height="24" rx="7"/><text class="j" x="35" y="341">(</text><rect class="l" x="60" y="325" width="44" height="24" rx="7"/><text class="j" x="70" y="341">and</text><a xlink:href="#boolean"><rect class="r" x="114" y="325" width="71" height="24"/><text class="j" x="124" y="341">boolean</text></a><a xlink:href="#boolean"><rect class="r" x="215" y="325" width="71" height="24"/><text class="j" x="225" y="341">boolean</text></a><rect class="l" x="316" y="325" width="25" height="24" rx="7"/><text class="j" x="326" y="341">)</text><rect class="l" x="351" y="325" width="27" height="24" rx="7"/><text class="j" x="361" y="341">»</text><a xlink:href="#boolean"><rect class="r" x="388" y="325" width="71" height="24"/><text class="j" x="398" y="341">boolean</text></a><rect class="l" x="25" y="354" width="25" height="24" rx="7"/><text class="j" x="35" y="370">(</text><rect class="l" x="60" y="354" width="48" height="24" rx="7"/><text class="j" x="70" y="370">any?</text><rect class="l" x="118" y="354" width="25" height="24" rx="7"/><text class="j" x="128" y="370">[</text><a xlink:href="#symbol"><rect class="r" x="153" y="354" width="63" height="24"/><text class="j" x="163" y="370">symbol</text></a><a xlink:href="#set"><rect class="r" x="246" y="354" width="40" height="24"/><text class="j" x="256" y="370">set</text></a><a xlink:href="#vector"><rect class="r" x="246" y="383" width="59" height="24"/><text class="j" x="256" y="399">vector</text></a><rect class="l" x="335" y="354" width="25" height="24" rx="7"/><text class="j" x="345" y="370">]</text><a xlink:href="#boolean-expression"><rect class="r" x="370" y="354" width="143" height="24"/><text class="j" x="380" y="370">boolean-expression</text></a><rect class="l" x="523" y="354" width="25" height="24" rx="7"/><text class="j" x="533" y="370">)</text><rect class="l" x="558" y="354" width="27" height="24" rx="7"/><text class="j" x="568" y="370">»</text><a xlink:href="#boolean"><rect class="r" x="595" y="354" width="71" height="24"/><text class="j" x="605" y="370">boolean</text></a><rect class="l" x="25" y="412" width="25" height="24" rx="7"/><text class="j" x="35" y="428">(</text><rect class="l" x="60" y="412" width="80" height="24" rx="7"/><text class="j" x="70" y="428">contains?</text><a xlink:href="#set"><rect class="r" x="150" y="412" width="40" height="24"/><text class="j" x="160" y="428">set</text></a><a xlink:href="#value"><rect class="r" x="200" y="412" width="53" height="24"/><text class="j" x="210" y="428">value</text></a><rect class="l" x="263" y="412" width="25" height="24" rx="7"/><text class="j" x="273" y="428">)</text><rect class="l" x="298" y="412" width="27" height="24" rx="7"/><text class="j" x="308" y="428">»</text><a xlink:href="#boolean"><rect class="r" x="335" y="412" width="71" height="24"/><text class="j" x="345" y="428">boolean</text></a><rect class="l" x="25" y="441" width="25" height="24" rx="7"/><text class="j" x="35" y="457">(</text><rect class="l" x="60" y="441" width="59" height="24" rx="7"/><text class="j" x="70" y="457">every?</text><rect class="l" x="129" y="441" width="25" height="24" rx="7"/><text class="j" x="139" y="457">[</text><a xlink:href="#symbol"><rect class="r" x="164" y="441" width="63" height="24"/><text class="j" x="174" y="457">symbol</text></a><a xlink:href="#set"><rect class="r" x="257" y="441" width="40" height="24"/><text class="j" x="267" y="457">set</text></a><a xlink:href="#vector"><rect class="r" x="257" y="470" width="59" height="24"/><text class="j" x="267" y="486">vector</text></a><rect class="l" x="346" y="441" width="25" height="24" rx="7"/><text class="j" x="356" y="457">]</text><a xlink:href="#boolean-expression"><rect class="r" x="381" y="441" width="143" height="24"/><text class="j" x="391" y="457">boolean-expression</text></a><rect class="l" x="534" y="441" width="25" height="24" rx="7"/><text class="j" x="544" y="457">)</text><rect class="l" x="569" y="441" width="27" height="24" rx="7"/><text class="j" x="579" y="457">»</text><a xlink:href="#boolean"><rect class="r" x="606" y="441" width="71" height="24"/><text class="j" x="616" y="457">boolean</text></a><rect class="l" x="25" y="499" width="25" height="24" rx="7"/><text class="j" x="35" y="515">(</text><rect class="l" x="60" y="499" width="41" height="24" rx="7"/><text class="j" x="70" y="515">not</text><a xlink:href="#boolean"><rect class="r" x="111" y="499" width="71" height="24"/><text class="j" x="121" y="515">boolean</text></a><rect class="l" x="192" y="499" width="25" height="24" rx="7"/><text class="j" x="202" y="515">)</text><rect class="l" x="227" y="499" width="27" height="24" rx="7"/><text class="j" x="237" y="515">»</text><a xlink:href="#boolean"><rect class="r" x="264" y="499" width="71" height="24"/><text class="j" x="274" y="515">boolean</text></a><rect class="l" x="25" y="543" width="25" height="24" rx="7"/><text class="j" x="35" y="559">(</text><rect class="l" x="60" y="543" width="51" height="24" rx="7"/><text class="j" x="70" y="559">not=</text><a xlink:href="#value"><rect class="r" x="121" y="543" width="53" height="24"/><text class="j" x="131" y="559">value</text></a><a xlink:href="#value"><rect class="r" x="204" y="543" width="53" height="24"/><text class="j" x="214" y="559">value</text></a><rect class="l" x="287" y="543" width="25" height="24" rx="7"/><text class="j" x="297" y="559">)</text><rect class="l" x="322" y="543" width="27" height="24" rx="7"/><text class="j" x="332" y="559">»</text><a xlink:href="#boolean"><rect class="r" x="359" y="543" width="71" height="24"/><text class="j" x="369" y="559">boolean</text></a><rect class="l" x="25" y="587" width="25" height="24" rx="7"/><text class="j" x="35" y="603">(</text><rect class="l" x="60" y="587" width="33" height="24" rx="7"/><text class="j" x="70" y="603">or</text><a xlink:href="#boolean"><rect class="r" x="103" y="587" width="71" height="24"/><text class="j" x="113" y="603">boolean</text></a><a xlink:href="#boolean"><rect class="r" x="204" y="587" width="71" height="24"/><text class="j" x="214" y="603">boolean</text></a><rect class="l" x="305" y="587" width="25" height="24" rx="7"/><text class="j" x="315" y="603">)</text><rect class="l" x="340" y="587" width="27" height="24" rx="7"/><text class="j" x="350" y="603">»</text><a xlink:href="#boolean"><rect class="r" x="377" y="587" width="71" height="24"/><text class="j" x="387" y="603">boolean</text></a><rect class="l" x="25" y="616" width="25" height="24" rx="7"/><text class="j" x="35" y="632">(</text><rect class="l" x="60" y="616" width="86" height="24" rx="7"/><text class="j" x="70" y="632">refines-to?</text><a xlink:href="#instance"><rect class="r" x="156" y="616" width="74" height="24"/><text class="j" x="166" y="632">instance</text></a><a xlink:href="#keyword:spec-id"><rect class="r" x="240" y="616" width="120" height="24"/><text class="j" x="250" y="632">keyword:spec-id</text></a><rect class="l" x="370" y="616" width="25" height="24" rx="7"/><text class="j" x="380" y="632">)</text><rect class="l" x="405" y="616" width="27" height="24" rx="7"/><text class="j" x="415" y="632">»</text><a xlink:href="#boolean"><rect class="r" x="442" y="616" width="71" height="24"/><text class="j" x="452" y="632">boolean</text></a><rect class="l" x="25" y="645" width="25" height="24" rx="7"/><text class="j" x="35" y="661">(</text><rect class="l" x="60" y="645" width="69" height="24" rx="7"/><text class="j" x="70" y="661">subset?</text><a xlink:href="#set"><rect class="r" x="139" y="645" width="40" height="24"/><text class="j" x="149" y="661">set</text></a><a xlink:href="#set"><rect class="r" x="189" y="645" width="40" height="24"/><text class="j" x="199" y="661">set</text></a><rect class="l" x="239" y="645" width="25" height="24" rx="7"/><text class="j" x="249" y="661">)</text><rect class="l" x="274" y="645" width="27" height="24" rx="7"/><text class="j" x="284" y="661">»</text><a xlink:href="#boolean"><rect class="r" x="311" y="645" width="71" height="24"/><text class="j" x="321" y="661">boolean</text></a><rect class="l" x="25" y="674" width="25" height="24" rx="7"/><text class="j" x="35" y="690">(</text><rect class="l" x="60" y="674" width="54" height="24" rx="7"/><text class="j" x="70" y="690">valid?</text><a xlink:href="#instance-expression"><rect class="r" x="124" y="674" width="146" height="24"/><text class="j" x="134" y="690">instance-expression</text></a><rect class="l" x="280" y="674" width="25" height="24" rx="7"/><text class="j" x="290" y="690">)</text><rect class="l" x="315" y="674" width="27" height="24" rx="7"/><text class="j" x="325" y="690">»</text><a xlink:href="#boolean"><rect class="r" x="352" y="674" width="71" height="24"/><text class="j" x="362" y="690">boolean</text></a></svg>