<svg version="1.1" xmlns:xlink="http://www.w3.org/1999/xlink" xmlns="http://www.w3.org/2000/svg" width="629" height="275" viewbox="0 0 629 275"><defs><style type="text/css">.c{fill:none;stroke:#222222;}.j{fill:#000000;font-family:Verdana,Sans-serif;font-size:12px;}.l{fill:#90d9ff;stroke:#222222;}.r{fill:#d3f0ff;stroke:#222222;}</style></defs><path class="c" d="M0 22h25m25 0h10m71 0h10m28 0h10m71 0h374m-609 25q0 5 5 5h5m71 0h10m38 0h10m71 0h10m28 0h10m71 0h265q5 0 5-5m-599 30q0 5 5 5h5m71 0h10m38 0h10m71 0h10m28 0h10m71 0h265q5 0 5-5m-599 30q0 5 5 5h5m27 0h10m25 0h10m71 0h10m25 0h10m117 0h10m46 0h10m117 0h10m28 0h10m43 0h5q5 0 5-5m-599 30q0 5 5 5h5m54 0h10m34 0h10m54 0h10m28 0h10m71 0h303q5 0 5-5m-599 60q0 5 5 5h5m91 0h10m25 0h10m54 0h10m24 0h30m-5 0q-5 0-5-5v-20q0-5 5-5h20m24 0h20q5 0 5 5v20q0 5-5 5m-5 0h30m25 0h10m28 0h10m71 0h102q5 0 5-5m-599 30q0 5 5 5h5m55 0h10m25 0h10m71 0h10m25 0h10m117 0h10m28 0h10m43 0h160q5 0 5-5m-604-205q5 0 5 5v230q0 5 5 5h5m71 0h10m30 0h10m71 0h10m28 0h10m71 0h273q5 0 5-5v-230q0-5 5-5m5 0h5"/><rect class="l" x="25" y="5" width="25" height="25" rx="7"/><text class="j" x="35" y="22">!</text><a xlink:href="#boolean"><rect class="r" x="60" y="5" width="71" height="25"/><text class="j" x="70" y="22">boolean</text></a><rect class="l" x="141" y="5" width="28" height="25" rx="7"/><text class="j" x="151" y="22">»</text><a xlink:href="#boolean"><rect class="r" x="179" y="5" width="71" height="25"/><text class="j" x="189" y="22">boolean</text></a><a xlink:href="#boolean"><rect class="r" x="25" y="35" width="71" height="25"/><text class="j" x="35" y="52">boolean</text></a><rect class="l" x="106" y="35" width="38" height="25" rx="7"/><text class="j" x="116" y="52">&amp;&amp;</text><a xlink:href="#boolean"><rect class="r" x="154" y="35" width="71" height="25"/><text class="j" x="164" y="52">boolean</text></a><rect class="l" x="235" y="35" width="28" height="25" rx="7"/><text class="j" x="245" y="52">»</text><a xlink:href="#boolean"><rect class="r" x="273" y="35" width="71" height="25"/><text class="j" x="283" y="52">boolean</text></a><a xlink:href="#boolean"><rect class="r" x="25" y="65" width="71" height="25"/><text class="j" x="35" y="82">boolean</text></a><rect class="l" x="106" y="65" width="38" height="25" rx="7"/><text class="j" x="116" y="82">=&gt;</text><a xlink:href="#boolean"><rect class="r" x="154" y="65" width="71" height="25"/><text class="j" x="164" y="82">boolean</text></a><rect class="l" x="235" y="65" width="28" height="25" rx="7"/><text class="j" x="245" y="82">»</text><a xlink:href="#boolean"><rect class="r" x="273" y="65" width="71" height="25"/><text class="j" x="283" y="82">boolean</text></a><rect class="l" x="25" y="95" width="27" height="25" rx="7"/><text class="j" x="35" y="112">if</text><rect class="l" x="62" y="95" width="25" height="25" rx="7"/><text class="j" x="72" y="112">(</text><a xlink:href="#boolean"><rect class="r" x="97" y="95" width="71" height="25"/><text class="j" x="107" y="112">boolean</text></a><rect class="l" x="178" y="95" width="25" height="25" rx="7"/><text class="j" x="188" y="112">)</text><a xlink:href="#any-expression"><rect class="r" x="213" y="95" width="117" height="25"/><text class="j" x="223" y="112">any-expression</text></a><rect class="l" x="340" y="95" width="46" height="25" rx="7"/><text class="j" x="350" y="112">else</text><a xlink:href="#any-expression"><rect class="r" x="396" y="95" width="117" height="25"/><text class="j" x="406" y="112">any-expression</text></a><rect class="l" x="523" y="95" width="28" height="25" rx="7"/><text class="j" x="533" y="112">»</text><a xlink:href="#any"><rect class="r" x="561" y="95" width="43" height="25"/><text class="j" x="571" y="112">any</text></a><a xlink:href="#value"><rect class="r" x="25" y="125" width="54" height="25"/><text class="j" x="35" y="142">value</text></a><rect class="l" x="89" y="125" width="34" height="25" rx="7"/><text class="j" x="99" y="142">!=</text><a xlink:href="#value"><rect class="r" x="133" y="125" width="54" height="25"/><text class="j" x="143" y="142">value</text></a><rect class="l" x="197" y="125" width="28" height="25" rx="7"/><text class="j" x="207" y="142">»</text><a xlink:href="#boolean"><rect class="r" x="235" y="125" width="71" height="25"/><text class="j" x="245" y="142">boolean</text></a><rect class="l" x="25" y="185" width="91" height="25" rx="7"/><text class="j" x="35" y="202">notEqualTo</text><rect class="l" x="126" y="185" width="25" height="25" rx="7"/><text class="j" x="136" y="202">(</text><a xlink:href="#value"><rect class="r" x="161" y="185" width="54" height="25"/><text class="j" x="171" y="202">value</text></a><rect class="l" x="225" y="185" width="24" height="25" rx="7"/><text class="j" x="235" y="202">,</text><rect class="l" x="294" y="155" width="24" height="25" rx="7"/><text class="j" x="304" y="172">,</text><a xlink:href="#value"><rect class="r" x="279" y="185" width="54" height="25"/><text class="j" x="289" y="202">value</text></a><rect class="l" x="363" y="185" width="25" height="25" rx="7"/><text class="j" x="373" y="202">)</text><rect class="l" x="398" y="185" width="28" height="25" rx="7"/><text class="j" x="408" y="202">»</text><a xlink:href="#boolean"><rect class="r" x="436" y="185" width="71" height="25"/><text class="j" x="446" y="202">boolean</text></a><rect class="l" x="25" y="215" width="55" height="25" rx="7"/><text class="j" x="35" y="232">when</text><rect class="l" x="90" y="215" width="25" height="25" rx="7"/><text class="j" x="100" y="232">(</text><a xlink:href="#boolean"><rect class="r" x="125" y="215" width="71" height="25"/><text class="j" x="135" y="232">boolean</text></a><rect class="l" x="206" y="215" width="25" height="25" rx="7"/><text class="j" x="216" y="232">)</text><a xlink:href="#any-expression"><rect class="r" x="241" y="215" width="117" height="25"/><text class="j" x="251" y="232">any-expression</text></a><rect class="l" x="368" y="215" width="28" height="25" rx="7"/><text class="j" x="378" y="232">»</text><a xlink:href="#any"><rect class="r" x="406" y="215" width="43" height="25"/><text class="j" x="416" y="232">any</text></a><a xlink:href="#boolean"><rect class="r" x="25" y="245" width="71" height="25"/><text class="j" x="35" y="262">boolean</text></a><rect class="l" x="106" y="245" width="30" height="25" rx="7"/><text class="j" x="116" y="262">||</text><a xlink:href="#boolean"><rect class="r" x="146" y="245" width="71" height="25"/><text class="j" x="156" y="262">boolean</text></a><rect class="l" x="227" y="245" width="28" height="25" rx="7"/><text class="j" x="237" y="262">»</text><a xlink:href="#boolean"><rect class="r" x="265" y="245" width="71" height="25"/><text class="j" x="275" y="262">boolean</text></a></svg>