<svg version="1.1" xmlns:xlink="http://www.w3.org/1999/xlink" xmlns="http://www.w3.org/2000/svg" width="680" height="845" viewbox="0 0 680 845"><defs><style type="text/css">.c{fill:none;stroke:#222222;}.i{fill:#000000;font-family:Verdana,Sans-serif;font-size:12px;}.l{fill:#90d9ff;stroke:#222222;}.r{fill:#d3f0ff;stroke:#222222;}</style></defs><path class="c" d="M0 22h45m65 0h10m29 0h10m65 0h94m-288 0q5 0 5 5v20q0 5 5 5h5m102 0h10m29 0h10m102 0h5q5 0 5-5v-20q0-5 5-5m5 0h10m28 0h10m71 0h238m-660 55q0 5 5 5h25m65 0h10m38 0h10m65 0h94m-297 0q5 0 5 5v20q0 5 5 5h5m102 0h10m38 0h10m102 0h5q5 0 5-5v-20q0-5 5-5m5 0h10m28 0h10m71 0h214q5 0 5-5m-650 60q0 5 5 5h5m54 0h10m38 0h10m54 0h10m28 0h10m71 0h350q5 0 5-5m-650 60q0 5 5 5h5m70 0h10m25 0h10m54 0h10m24 0h30m-5 0q-5 0-5-5v-20q0-5 5-5h20m24 0h20q5 0 5 5v20q0 5-5 5m-5 0h30m25 0h10m28 0h10m71 0h174q5 0 5-5m-650 30q0 5 5 5h5m71 0h10m38 0h10m71 0h10m28 0h10m71 0h316q5 0 5-5m-650 30q0 5 5 5h25m65 0h10m29 0h10m65 0h94m-288 0q5 0 5 5v20q0 5 5 5h5m102 0h10m29 0h10m102 0h5q5 0 5-5v-20q0-5 5-5m5 0h10m28 0h10m71 0h223q5 0 5-5m-650 60q0 5 5 5h25m65 0h10m38 0h10m65 0h94m-297 0q5 0 5 5v20q0 5 5 5h5m102 0h10m38 0h10m102 0h5q5 0 5-5v-20q0-5 5-5m5 0h10m28 0h10m71 0h214q5 0 5-5m-650 75q0 5 5 5h5m71 0h10m38 0h50m-5 0q-5 0-5-5v-17q0-5 5-5h81q5 0 5 5v17q0 5-5 5m-5 0h40m-146 0q5 0 5 5v8q0 5 5 5h121q5 0 5-5v-8q0-5 5-5m5 0h10m28 0h10m71 0h236q5 0 5-5m-650 45q0 5 5 5h5m50 0h10m25 0h10m64 0h10m31 0h30m40 0h39m-94 0q5 0 5 5v20q0 5 5 5h5m59 0h5q5 0 5-5v-20q0-5 5-5m5 0h10m25 0h10m145 0h10m28 0h10m71 0h17q5 0 5-5m-650 60q0 5 5 5h5m40 0h10m24 0h10m80 0h10m25 0h10m54 0h10m25 0h10m28 0h10m71 0h218q5 0 5-5m-650 30q0 5 5 5h5m62 0h10m25 0h10m64 0h10m31 0h30m40 0h39m-94 0q5 0 5 5v20q0 5 5 5h5m59 0h5q5 0 5-5v-20q0-5 5-5m5 0h10m25 0h10m145 0h10m28 0h10m71 0h5q5 0 5-5m-650 60q0 5 5 5h5m25 0h10m71 0h10m28 0h10m71 0h410q5 0 5-5m-650 30q0 5 5 5h5m54 0h10m34 0h10m54 0h10m28 0h10m71 0h354q5 0 5-5m-650 60q0 5 5 5h5m91 0h10m25 0h10m54 0h10m24 0h30m-5 0q-5 0-5-5v-20q0-5 5-5h20m24 0h20q5 0 5 5v20q0 5-5 5m-5 0h30m25 0h10m28 0h10m71 0h153q5 0 5-5m-650 45q0 5 5 5h5m71 0h10m30 0h50m-5 0q-5 0-5-5v-17q0-5 5-5h81q5 0 5 5v17q0 5-5 5m-5 0h40m-146 0q5 0 5 5v8q0 5 5 5h121q5 0 5-5v-8q0-5 5-5m5 0h10m28 0h10m71 0h244q5 0 5-5m-650 45q0 5 5 5h5m73 0h10m24 0h10m85 0h10m25 0h10m114 0h10m25 0h10m28 0h10m71 0h120q5 0 5-5m-650 30q0 5 5 5h5m40 0h10m24 0h10m70 0h10m25 0h10m40 0h10m25 0h10m28 0h10m71 0h242q5 0 5-5m-655-775q5 0 5 5v800q0 5 5 5h5m56 0h10m147 0h10m28 0h10m71 0h303q5 0 5-5v-800q0-5 5-5m5 0h5"/><a xlink:href="#integer"><rect class="r" x="45" y="5" width="65" height="25"/><text class="i" x="55" y="22">integer</text></a><rect class="l" x="120" y="5" width="29" height="25" rx="7"/><text class="i" x="130" y="22">&lt;</text><a xlink:href="#integer"><rect class="r" x="159" y="5" width="65" height="25"/><text class="i" x="169" y="22">integer</text></a><a xlink:href="#fixed-decimal"><rect class="r" x="45" y="35" width="102" height="25"/><text class="i" x="55" y="52">fixed-decimal</text></a><rect class="l" x="157" y="35" width="29" height="25" rx="7"/><text class="i" x="167" y="52">&lt;</text><a xlink:href="#fixed-decimal"><rect class="r" x="196" y="35" width="102" height="25"/><text class="i" x="206" y="52">fixed-decimal</text></a><rect class="l" x="328" y="5" width="28" height="25" rx="7"/><text class="i" x="338" y="22">»</text><a xlink:href="#boolean"><rect class="r" x="366" y="5" width="71" height="25"/><text class="i" x="376" y="22">boolean</text></a><a xlink:href="#integer"><rect class="r" x="45" y="65" width="65" height="25"/><text class="i" x="55" y="82">integer</text></a><rect class="l" x="120" y="65" width="38" height="25" rx="7"/><text class="i" x="130" y="82">&lt;=</text><a xlink:href="#integer"><rect class="r" x="168" y="65" width="65" height="25"/><text class="i" x="178" y="82">integer</text></a><a xlink:href="#fixed-decimal"><rect class="r" x="45" y="95" width="102" height="25"/><text class="i" x="55" y="112">fixed-decimal</text></a><rect class="l" x="157" y="95" width="38" height="25" rx="7"/><text class="i" x="167" y="112">&lt;=</text><a xlink:href="#fixed-decimal"><rect class="r" x="205" y="95" width="102" height="25"/><text class="i" x="215" y="112">fixed-decimal</text></a><rect class="l" x="337" y="65" width="28" height="25" rx="7"/><text class="i" x="347" y="82">»</text><a xlink:href="#boolean"><rect class="r" x="375" y="65" width="71" height="25"/><text class="i" x="385" y="82">boolean</text></a><a xlink:href="#value"><rect class="r" x="25" y="125" width="54" height="25"/><text class="i" x="35" y="142">value</text></a><rect class="l" x="89" y="125" width="38" height="25" rx="7"/><text class="i" x="99" y="142">==</text><a xlink:href="#value"><rect class="r" x="137" y="125" width="54" height="25"/><text class="i" x="147" y="142">value</text></a><rect class="l" x="201" y="125" width="28" height="25" rx="7"/><text class="i" x="211" y="142">»</text><a xlink:href="#boolean"><rect class="r" x="239" y="125" width="71" height="25"/><text class="i" x="249" y="142">boolean</text></a><rect class="l" x="25" y="185" width="70" height="25" rx="7"/><text class="i" x="35" y="202">equalTo</text><rect class="l" x="105" y="185" width="25" height="25" rx="7"/><text class="i" x="115" y="202">(</text><a xlink:href="#value"><rect class="r" x="140" y="185" width="54" height="25"/><text class="i" x="150" y="202">value</text></a><rect class="l" x="204" y="185" width="24" height="25" rx="7"/><text class="i" x="214" y="202">,</text><rect class="l" x="273" y="155" width="24" height="25" rx="7"/><text class="i" x="283" y="172">,</text><a xlink:href="#value"><rect class="r" x="258" y="185" width="54" height="25"/><text class="i" x="268" y="202">value</text></a><rect class="l" x="342" y="185" width="25" height="25" rx="7"/><text class="i" x="352" y="202">)</text><rect class="l" x="377" y="185" width="28" height="25" rx="7"/><text class="i" x="387" y="202">»</text><a xlink:href="#boolean"><rect class="r" x="415" y="185" width="71" height="25"/><text class="i" x="425" y="202">boolean</text></a><a xlink:href="#boolean"><rect class="r" x="25" y="215" width="71" height="25"/><text class="i" x="35" y="232">boolean</text></a><rect class="l" x="106" y="215" width="38" height="25" rx="7"/><text class="i" x="116" y="232">=&gt;</text><a xlink:href="#boolean"><rect class="r" x="154" y="215" width="71" height="25"/><text class="i" x="164" y="232">boolean</text></a><rect class="l" x="235" y="215" width="28" height="25" rx="7"/><text class="i" x="245" y="232">»</text><a xlink:href="#boolean"><rect class="r" x="273" y="215" width="71" height="25"/><text class="i" x="283" y="232">boolean</text></a><a xlink:href="#integer"><rect class="r" x="45" y="245" width="65" height="25"/><text class="i" x="55" y="262">integer</text></a><rect class="l" x="120" y="245" width="29" height="25" rx="7"/><text class="i" x="130" y="262">&gt;</text><a xlink:href="#integer"><rect class="r" x="159" y="245" width="65" height="25"/><text class="i" x="169" y="262">integer</text></a><a xlink:href="#fixed-decimal"><rect class="r" x="45" y="275" width="102" height="25"/><text class="i" x="55" y="292">fixed-decimal</text></a><rect class="l" x="157" y="275" width="29" height="25" rx="7"/><text class="i" x="167" y="292">&gt;</text><a xlink:href="#fixed-decimal"><rect class="r" x="196" y="275" width="102" height="25"/><text class="i" x="206" y="292">fixed-decimal</text></a><rect class="l" x="328" y="245" width="28" height="25" rx="7"/><text class="i" x="338" y="262">»</text><a xlink:href="#boolean"><rect class="r" x="366" y="245" width="71" height="25"/><text class="i" x="376" y="262">boolean</text></a><a xlink:href="#integer"><rect class="r" x="45" y="305" width="65" height="25"/><text class="i" x="55" y="322">integer</text></a><rect class="l" x="120" y="305" width="38" height="25" rx="7"/><text class="i" x="130" y="322">&gt;=</text><a xlink:href="#integer"><rect class="r" x="168" y="305" width="65" height="25"/><text class="i" x="178" y="322">integer</text></a><a xlink:href="#fixed-decimal"><rect class="r" x="45" y="335" width="102" height="25"/><text class="i" x="55" y="352">fixed-decimal</text></a><rect class="l" x="157" y="335" width="38" height="25" rx="7"/><text class="i" x="167" y="352">&gt;=</text><a xlink:href="#fixed-decimal"><rect class="r" x="205" y="335" width="102" height="25"/><text class="i" x="215" y="352">fixed-decimal</text></a><rect class="l" x="337" y="305" width="28" height="25" rx="7"/><text class="i" x="347" y="322">»</text><a xlink:href="#boolean"><rect class="r" x="375" y="305" width="71" height="25"/><text class="i" x="385" y="322">boolean</text></a><a xlink:href="#boolean"><rect class="r" x="25" y="380" width="71" height="25"/><text class="i" x="35" y="397">boolean</text></a><rect class="l" x="106" y="380" width="38" height="25" rx="7"/><text class="i" x="116" y="397">&amp;&amp;</text><a xlink:href="#boolean"><rect class="r" x="194" y="380" width="71" height="25"/><text class="i" x="204" y="397">boolean</text></a><rect class="l" x="315" y="380" width="28" height="25" rx="7"/><text class="i" x="325" y="397">»</text><a xlink:href="#boolean"><rect class="r" x="353" y="380" width="71" height="25"/><text class="i" x="363" y="397">boolean</text></a><rect class="l" x="25" y="425" width="50" height="25" rx="7"/><text class="i" x="35" y="442">any?</text><rect class="l" x="85" y="425" width="25" height="25" rx="7"/><text class="i" x="95" y="442">(</text><a xlink:href="#symbol"><rect class="r" x="120" y="425" width="64" height="25"/><text class="i" x="130" y="442">symbol</text></a><rect class="l" x="194" y="425" width="31" height="25" rx="7"/><text class="i" x="204" y="442">in</text><a xlink:href="#set"><rect class="r" x="255" y="425" width="40" height="25"/><text class="i" x="265" y="442">set</text></a><a xlink:href="#vector"><rect class="r" x="255" y="455" width="59" height="25"/><text class="i" x="265" y="472">vector</text></a><rect class="l" x="344" y="425" width="25" height="25" rx="7"/><text class="i" x="354" y="442">)</text><a xlink:href="#boolean-expression"><rect class="r" x="379" y="425" width="145" height="25"/><text class="i" x="389" y="442">boolean-expression</text></a><rect class="l" x="534" y="425" width="28" height="25" rx="7"/><text class="i" x="544" y="442">»</text><a xlink:href="#boolean"><rect class="r" x="572" y="425" width="71" height="25"/><text class="i" x="582" y="442">boolean</text></a><a xlink:href="#set"><rect class="r" x="25" y="485" width="40" height="25"/><text class="i" x="35" y="502">set</text></a><rect class="l" x="75" y="485" width="24" height="25" rx="7"/><text class="i" x="85" y="502">.</text><rect class="l" x="109" y="485" width="80" height="25" rx="7"/><text class="i" x="119" y="502">contains?</text><rect class="l" x="199" y="485" width="25" height="25" rx="7"/><text class="i" x="209" y="502">(</text><a xlink:href="#value"><rect class="r" x="234" y="485" width="54" height="25"/><text class="i" x="244" y="502">value</text></a><rect class="l" x="298" y="485" width="25" height="25" rx="7"/><text class="i" x="308" y="502">)</text><rect class="l" x="333" y="485" width="28" height="25" rx="7"/><text class="i" x="343" y="502">»</text><a xlink:href="#boolean"><rect class="r" x="371" y="485" width="71" height="25"/><text class="i" x="381" y="502">boolean</text></a><rect class="l" x="25" y="515" width="62" height="25" rx="7"/><text class="i" x="35" y="532">every?</text><rect class="l" x="97" y="515" width="25" height="25" rx="7"/><text class="i" x="107" y="532">(</text><a xlink:href="#symbol"><rect class="r" x="132" y="515" width="64" height="25"/><text class="i" x="142" y="532">symbol</text></a><rect class="l" x="206" y="515" width="31" height="25" rx="7"/><text class="i" x="216" y="532">in</text><a xlink:href="#set"><rect class="r" x="267" y="515" width="40" height="25"/><text class="i" x="277" y="532">set</text></a><a xlink:href="#vector"><rect class="r" x="267" y="545" width="59" height="25"/><text class="i" x="277" y="562">vector</text></a><rect class="l" x="356" y="515" width="25" height="25" rx="7"/><text class="i" x="366" y="532">)</text><a xlink:href="#boolean-expression"><rect class="r" x="391" y="515" width="145" height="25"/><text class="i" x="401" y="532">boolean-expression</text></a><rect class="l" x="546" y="515" width="28" height="25" rx="7"/><text class="i" x="556" y="532">»</text><a xlink:href="#boolean"><rect class="r" x="584" y="515" width="71" height="25"/><text class="i" x="594" y="532">boolean</text></a><rect class="l" x="25" y="575" width="25" height="25" rx="7"/><text class="i" x="35" y="592">!</text><a xlink:href="#boolean"><rect class="r" x="60" y="575" width="71" height="25"/><text class="i" x="70" y="592">boolean</text></a><rect class="l" x="141" y="575" width="28" height="25" rx="7"/><text class="i" x="151" y="592">»</text><a xlink:href="#boolean"><rect class="r" x="179" y="575" width="71" height="25"/><text class="i" x="189" y="592">boolean</text></a><a xlink:href="#value"><rect class="r" x="25" y="605" width="54" height="25"/><text class="i" x="35" y="622">value</text></a><rect class="l" x="89" y="605" width="34" height="25" rx="7"/><text class="i" x="99" y="622">!=</text><a xlink:href="#value"><rect class="r" x="133" y="605" width="54" height="25"/><text class="i" x="143" y="622">value</text></a><rect class="l" x="197" y="605" width="28" height="25" rx="7"/><text class="i" x="207" y="622">»</text><a xlink:href="#boolean"><rect class="r" x="235" y="605" width="71" height="25"/><text class="i" x="245" y="622">boolean</text></a><rect class="l" x="25" y="665" width="91" height="25" rx="7"/><text class="i" x="35" y="682">notEqualTo</text><rect class="l" x="126" y="665" width="25" height="25" rx="7"/><text class="i" x="136" y="682">(</text><a xlink:href="#value"><rect class="r" x="161" y="665" width="54" height="25"/><text class="i" x="171" y="682">value</text></a><rect class="l" x="225" y="665" width="24" height="25" rx="7"/><text class="i" x="235" y="682">,</text><rect class="l" x="294" y="635" width="24" height="25" rx="7"/><text class="i" x="304" y="652">,</text><a xlink:href="#value"><rect class="r" x="279" y="665" width="54" height="25"/><text class="i" x="289" y="682">value</text></a><rect class="l" x="363" y="665" width="25" height="25" rx="7"/><text class="i" x="373" y="682">)</text><rect class="l" x="398" y="665" width="28" height="25" rx="7"/><text class="i" x="408" y="682">»</text><a xlink:href="#boolean"><rect class="r" x="436" y="665" width="71" height="25"/><text class="i" x="446" y="682">boolean</text></a><a xlink:href="#boolean"><rect class="r" x="25" y="710" width="71" height="25"/><text class="i" x="35" y="727">boolean</text></a><rect class="l" x="106" y="710" width="30" height="25" rx="7"/><text class="i" x="116" y="727">||</text><a xlink:href="#boolean"><rect class="r" x="186" y="710" width="71" height="25"/><text class="i" x="196" y="727">boolean</text></a><rect class="l" x="307" y="710" width="28" height="25" rx="7"/><text class="i" x="317" y="727">»</text><a xlink:href="#boolean"><rect class="r" x="345" y="710" width="71" height="25"/><text class="i" x="355" y="727">boolean</text></a><a xlink:href="#instance"><rect class="r" x="25" y="755" width="73" height="25"/><text class="i" x="35" y="772">instance</text></a><rect class="l" x="108" y="755" width="24" height="25" rx="7"/><text class="i" x="118" y="772">.</text><rect class="l" x="142" y="755" width="85" height="25" rx="7"/><text class="i" x="152" y="772">refinesTo?</text><rect class="l" x="237" y="755" width="25" height="25" rx="7"/><text class="i" x="247" y="772">(</text><a xlink:href="#symbol:spec-id"><rect class="r" x="272" y="755" width="114" height="25"/><text class="i" x="282" y="772">symbol:spec-id</text></a><rect class="l" x="396" y="755" width="25" height="25" rx="7"/><text class="i" x="406" y="772">)</text><rect class="l" x="431" y="755" width="28" height="25" rx="7"/><text class="i" x="441" y="772">»</text><a xlink:href="#boolean"><rect class="r" x="469" y="755" width="71" height="25"/><text class="i" x="479" y="772">boolean</text></a><a xlink:href="#set"><rect class="r" x="25" y="785" width="40" height="25"/><text class="i" x="35" y="802">set</text></a><rect class="l" x="75" y="785" width="24" height="25" rx="7"/><text class="i" x="85" y="802">.</text><rect class="l" x="109" y="785" width="70" height="25" rx="7"/><text class="i" x="119" y="802">subset?</text><rect class="l" x="189" y="785" width="25" height="25" rx="7"/><text class="i" x="199" y="802">(</text><a xlink:href="#set"><rect class="r" x="224" y="785" width="40" height="25"/><text class="i" x="234" y="802">set</text></a><rect class="l" x="274" y="785" width="25" height="25" rx="7"/><text class="i" x="284" y="802">)</text><rect class="l" x="309" y="785" width="28" height="25" rx="7"/><text class="i" x="319" y="802">»</text><a xlink:href="#boolean"><rect class="r" x="347" y="785" width="71" height="25"/><text class="i" x="357" y="802">boolean</text></a><rect class="l" x="25" y="815" width="56" height="25" rx="7"/><text class="i" x="35" y="832">valid?</text><a xlink:href="#instance-expression"><rect class="r" x="91" y="815" width="147" height="25"/><text class="i" x="101" y="832">instance-expression</text></a><rect class="l" x="248" y="815" width="28" height="25" rx="7"/><text class="i" x="258" y="832">»</text><a xlink:href="#boolean"><rect class="r" x="286" y="815" width="71" height="25"/><text class="i" x="296" y="832">boolean</text></a></svg>