<!--
RULE = (('(''<'  ( ( ((integer integer) | (fixed-decimal fixed-decimal))')' '»' boolean ) ) ) |
('(''<='  ( ( ((integer integer) | (fixed-decimal fixed-decimal))')' '»' boolean ) ) ) |
('(''='  ( ( value value {value}')' '»' boolean ) ) ) |
('(''=>'  ( ( boolean boolean')' '»' boolean ) ) ) |
('(''>'  ( ( ((integer integer) | (fixed-decimal fixed-decimal))')' '»' boolean ) ) ) |
('(''>='  ( ( ((integer integer) | (fixed-decimal fixed-decimal))')' '»' boolean ) ) ) |
('(''and'  ( ( boolean boolean {boolean}')' '»' boolean ) ) ) |
('(''any?'  ( ( '[' symbol (set | vector) ']' boolean-expression')' '»' boolean ) ) ) |
('(''contains?'  ( ( set value')' '»' boolean ) ) ) |
('(''every?'  ( ( '[' symbol (set | vector) ']' boolean-expression')' '»' boolean ) ) ) |
('(''not'  ( ( boolean')' '»' boolean ) ) ) |
('(''not='  ( ( value value {value}')' '»' boolean ) ) ) |
('(''or'  ( ( boolean boolean {boolean}')' '»' boolean ) ) ) |
('(''refines-to?'  ( ( instance keyword:spec-id')' '»' boolean ) ) ) |
('(''subset?'  ( ( set set')' '»' boolean ) ) ) |
('(''valid?'  ( ( instance-expression')' '»' boolean ) ) ));
-->
<svg version="1.1" xmlns:xlink="http://www.w3.org/1999/xlink" xmlns="http://www.w3.org/2000/svg" width="709" height="725" viewbox="0 0 709 725"><defs><style type="text/css">.c{fill: none; stroke: #888888; stroke-width: 2px;}.j{fill:#000000;font-family:Verdana,Sans-serif;font-size:12px;}.l{fill:#90d9ff;stroke:#222222;}.r{fill:#d3f0ff;stroke:#222222;}</style></defs><path class="c" d="M0 18h25m25 0h10m29 0h30m65 0h10m65 0h94m-249 0q5 0 5 5v20q0 5 5 5h5m102 0h10m102 0h5q5 0 5-5v-20q0-5 5-5m5 0h10m25 0h10m28 0h10m71 0h197m-689 55q0 5 5 5h5m25 0h10m38 0h30m65 0h10m65 0h94m-249 0q5 0 5 5v20q0 5 5 5h5m102 0h10m102 0h5q5 0 5-5v-20q0-5 5-5m5 0h10m25 0h10m28 0h10m71 0h173q5 0 5-5m-679 75q0 5 5 5h5m25 0h10m29 0h10m54 0h30m-5 0q-5 0-5-5v-17q0-5 5-5h64q5 0 5 5v17q0 5-5 5m-5 0h30m25 0h10m28 0h10m71 0h278q5 0 5-5m-679 30q0 5 5 5h5m25 0h10m38 0h10m71 0h10m71 0h10m25 0h10m28 0h10m71 0h275q5 0 5-5m-679 30q0 5 5 5h5m25 0h10m29 0h30m65 0h10m65 0h94m-249 0q5 0 5 5v20q0 5 5 5h5m102 0h10m102 0h5q5 0 5-5v-20q0-5 5-5m5 0h10m25 0h10m28 0h10m71 0h182q5 0 5-5m-679 60q0 5 5 5h5m25 0h10m38 0h30m65 0h10m65 0h94m-249 0q5 0 5 5v20q0 5 5 5h5m102 0h10m102 0h5q5 0 5-5v-20q0-5 5-5m5 0h10m25 0h10m28 0h10m71 0h173q5 0 5-5m-679 75q0 5 5 5h5m25 0h10m44 0h10m71 0h30m-5 0q-5 0-5-5v-17q0-5 5-5h81q5 0 5 5v17q0 5-5 5m-5 0h30m25 0h10m28 0h10m71 0h229q5 0 5-5m-679 30q0 5 5 5h5m25 0h10m50 0h10m25 0h10m64 0h30m40 0h39m-94 0q5 0 5 5v20q0 5 5 5h5m59 0h5q5 0 5-5v-20q0-5 5-5m5 0h10m25 0h10m145 0h10m25 0h10m28 0h10m71 0h17q5 0 5-5m-679 60q0 5 5 5h5m25 0h10m80 0h10m40 0h10m54 0h10m25 0h10m28 0h10m71 0h281q5 0 5-5m-679 30q0 5 5 5h5m25 0h10m62 0h10m25 0h10m64 0h30m40 0h39m-94 0q5 0 5 5v20q0 5 5 5h5m59 0h5q5 0 5-5v-20q0-5 5-5m5 0h10m25 0h10m145 0h10m25 0h10m28 0h10m71 0h5q5 0 5-5m-679 60q0 5 5 5h5m25 0h10m41 0h10m71 0h10m25 0h10m28 0h10m71 0h353q5 0 5-5m-679 45q0 5 5 5h5m25 0h10m50 0h10m54 0h30m-5 0q-5 0-5-5v-17q0-5 5-5h64q5 0 5 5v17q0 5-5 5m-5 0h30m25 0h10m28 0h10m71 0h257q5 0 5-5m-679 45q0 5 5 5h5m25 0h10m33 0h10m71 0h30m-5 0q-5 0-5-5v-17q0-5 5-5h81q5 0 5 5v17q0 5-5 5m-5 0h30m25 0h10m28 0h10m71 0h240q5 0 5-5m-679 30q0 5 5 5h5m25 0h10m88 0h10m73 0h10m124 0h10m25 0h10m28 0h10m71 0h170q5 0 5-5m-679 30q0 5 5 5h5m25 0h10m70 0h10m40 0h10m40 0h10m25 0h10m28 0h10m71 0h305q5 0 5-5m-684-655q5 0 5 5v680q0 5 5 5h5m25 0h10m56 0h10m147 0h10m25 0h10m28 0h10m71 0h262q5 0 5-5v-680q0-5 5-5m5 0h5"/><rect class="l" x="25" y="5" width="25" height="25" rx="7"/><text class="j" x="35" y="22">(</text><rect class="l" x="60" y="5" width="29" height="25" rx="7"/><text class="j" x="70" y="22">&lt;</text><a xlink:href="#integer"><rect class="r" x="119" y="5" width="65" height="25"/><text class="j" x="129" y="22">integer</text></a><a xlink:href="#integer"><rect class="r" x="194" y="5" width="65" height="25"/><text class="j" x="204" y="22">integer</text></a><a xlink:href="#fixed-decimal"><rect class="r" x="119" y="35" width="102" height="25"/><text class="j" x="129" y="52">fixed-decimal</text></a><a xlink:href="#fixed-decimal"><rect class="r" x="231" y="35" width="102" height="25"/><text class="j" x="241" y="52">fixed-decimal</text></a><rect class="l" x="363" y="5" width="25" height="25" rx="7"/><text class="j" x="373" y="22">)</text><rect class="l" x="398" y="5" width="28" height="25" rx="7"/><text class="j" x="408" y="22">»</text><a xlink:href="#boolean"><rect class="r" x="436" y="5" width="71" height="25"/><text class="j" x="446" y="22">boolean</text></a><rect class="l" x="25" y="65" width="25" height="25" rx="7"/><text class="j" x="35" y="82">(</text><rect class="l" x="60" y="65" width="38" height="25" rx="7"/><text class="j" x="70" y="82">&lt;=</text><a xlink:href="#integer"><rect class="r" x="128" y="65" width="65" height="25"/><text class="j" x="138" y="82">integer</text></a><a xlink:href="#integer"><rect class="r" x="203" y="65" width="65" height="25"/><text class="j" x="213" y="82">integer</text></a><a xlink:href="#fixed-decimal"><rect class="r" x="128" y="95" width="102" height="25"/><text class="j" x="138" y="112">fixed-decimal</text></a><a xlink:href="#fixed-decimal"><rect class="r" x="240" y="95" width="102" height="25"/><text class="j" x="250" y="112">fixed-decimal</text></a><rect class="l" x="372" y="65" width="25" height="25" rx="7"/><text class="j" x="382" y="82">)</text><rect class="l" x="407" y="65" width="28" height="25" rx="7"/><text class="j" x="417" y="82">»</text><a xlink:href="#boolean"><rect class="r" x="445" y="65" width="71" height="25"/><text class="j" x="455" y="82">boolean</text></a><rect class="l" x="25" y="140" width="25" height="25" rx="7"/><text class="j" x="35" y="157">(</text><rect class="l" x="60" y="140" width="29" height="25" rx="7"/><text class="j" x="70" y="157">=</text><a xlink:href="#value"><rect class="r" x="99" y="140" width="54" height="25"/><text class="j" x="109" y="157">value</text></a><a xlink:href="#value"><rect class="r" x="183" y="140" width="54" height="25"/><text class="j" x="193" y="157">value</text></a><rect class="l" x="267" y="140" width="25" height="25" rx="7"/><text class="j" x="277" y="157">)</text><rect class="l" x="302" y="140" width="28" height="25" rx="7"/><text class="j" x="312" y="157">»</text><a xlink:href="#boolean"><rect class="r" x="340" y="140" width="71" height="25"/><text class="j" x="350" y="157">boolean</text></a><rect class="l" x="25" y="170" width="25" height="25" rx="7"/><text class="j" x="35" y="187">(</text><rect class="l" x="60" y="170" width="38" height="25" rx="7"/><text class="j" x="70" y="187">=&gt;</text><a xlink:href="#boolean"><rect class="r" x="108" y="170" width="71" height="25"/><text class="j" x="118" y="187">boolean</text></a><a xlink:href="#boolean"><rect class="r" x="189" y="170" width="71" height="25"/><text class="j" x="199" y="187">boolean</text></a><rect class="l" x="270" y="170" width="25" height="25" rx="7"/><text class="j" x="280" y="187">)</text><rect class="l" x="305" y="170" width="28" height="25" rx="7"/><text class="j" x="315" y="187">»</text><a xlink:href="#boolean"><rect class="r" x="343" y="170" width="71" height="25"/><text class="j" x="353" y="187">boolean</text></a><rect class="l" x="25" y="200" width="25" height="25" rx="7"/><text class="j" x="35" y="217">(</text><rect class="l" x="60" y="200" width="29" height="25" rx="7"/><text class="j" x="70" y="217">&gt;</text><a xlink:href="#integer"><rect class="r" x="119" y="200" width="65" height="25"/><text class="j" x="129" y="217">integer</text></a><a xlink:href="#integer"><rect class="r" x="194" y="200" width="65" height="25"/><text class="j" x="204" y="217">integer</text></a><a xlink:href="#fixed-decimal"><rect class="r" x="119" y="230" width="102" height="25"/><text class="j" x="129" y="247">fixed-decimal</text></a><a xlink:href="#fixed-decimal"><rect class="r" x="231" y="230" width="102" height="25"/><text class="j" x="241" y="247">fixed-decimal</text></a><rect class="l" x="363" y="200" width="25" height="25" rx="7"/><text class="j" x="373" y="217">)</text><rect class="l" x="398" y="200" width="28" height="25" rx="7"/><text class="j" x="408" y="217">»</text><a xlink:href="#boolean"><rect class="r" x="436" y="200" width="71" height="25"/><text class="j" x="446" y="217">boolean</text></a><rect class="l" x="25" y="260" width="25" height="25" rx="7"/><text class="j" x="35" y="277">(</text><rect class="l" x="60" y="260" width="38" height="25" rx="7"/><text class="j" x="70" y="277">&gt;=</text><a xlink:href="#integer"><rect class="r" x="128" y="260" width="65" height="25"/><text class="j" x="138" y="277">integer</text></a><a xlink:href="#integer"><rect class="r" x="203" y="260" width="65" height="25"/><text class="j" x="213" y="277">integer</text></a><a xlink:href="#fixed-decimal"><rect class="r" x="128" y="290" width="102" height="25"/><text class="j" x="138" y="307">fixed-decimal</text></a><a xlink:href="#fixed-decimal"><rect class="r" x="240" y="290" width="102" height="25"/><text class="j" x="250" y="307">fixed-decimal</text></a><rect class="l" x="372" y="260" width="25" height="25" rx="7"/><text class="j" x="382" y="277">)</text><rect class="l" x="407" y="260" width="28" height="25" rx="7"/><text class="j" x="417" y="277">»</text><a xlink:href="#boolean"><rect class="r" x="445" y="260" width="71" height="25"/><text class="j" x="455" y="277">boolean</text></a><rect class="l" x="25" y="335" width="25" height="25" rx="7"/><text class="j" x="35" y="352">(</text><rect class="l" x="60" y="335" width="44" height="25" rx="7"/><text class="j" x="70" y="352">and</text><a xlink:href="#boolean"><rect class="r" x="114" y="335" width="71" height="25"/><text class="j" x="124" y="352">boolean</text></a><a xlink:href="#boolean"><rect class="r" x="215" y="335" width="71" height="25"/><text class="j" x="225" y="352">boolean</text></a><rect class="l" x="316" y="335" width="25" height="25" rx="7"/><text class="j" x="326" y="352">)</text><rect class="l" x="351" y="335" width="28" height="25" rx="7"/><text class="j" x="361" y="352">»</text><a xlink:href="#boolean"><rect class="r" x="389" y="335" width="71" height="25"/><text class="j" x="399" y="352">boolean</text></a><rect class="l" x="25" y="365" width="25" height="25" rx="7"/><text class="j" x="35" y="382">(</text><rect class="l" x="60" y="365" width="50" height="25" rx="7"/><text class="j" x="70" y="382">any?</text><rect class="l" x="120" y="365" width="25" height="25" rx="7"/><text class="j" x="130" y="382">[</text><a xlink:href="#symbol"><rect class="r" x="155" y="365" width="64" height="25"/><text class="j" x="165" y="382">symbol</text></a><a xlink:href="#set"><rect class="r" x="249" y="365" width="40" height="25"/><text class="j" x="259" y="382">set</text></a><a xlink:href="#vector"><rect class="r" x="249" y="395" width="59" height="25"/><text class="j" x="259" y="412">vector</text></a><rect class="l" x="338" y="365" width="25" height="25" rx="7"/><text class="j" x="348" y="382">]</text><a xlink:href="#boolean-expression"><rect class="r" x="373" y="365" width="145" height="25"/><text class="j" x="383" y="382">boolean-expression</text></a><rect class="l" x="528" y="365" width="25" height="25" rx="7"/><text class="j" x="538" y="382">)</text><rect class="l" x="563" y="365" width="28" height="25" rx="7"/><text class="j" x="573" y="382">»</text><a xlink:href="#boolean"><rect class="r" x="601" y="365" width="71" height="25"/><text class="j" x="611" y="382">boolean</text></a><rect class="l" x="25" y="425" width="25" height="25" rx="7"/><text class="j" x="35" y="442">(</text><rect class="l" x="60" y="425" width="80" height="25" rx="7"/><text class="j" x="70" y="442">contains?</text><a xlink:href="#set"><rect class="r" x="150" y="425" width="40" height="25"/><text class="j" x="160" y="442">set</text></a><a xlink:href="#value"><rect class="r" x="200" y="425" width="54" height="25"/><text class="j" x="210" y="442">value</text></a><rect class="l" x="264" y="425" width="25" height="25" rx="7"/><text class="j" x="274" y="442">)</text><rect class="l" x="299" y="425" width="28" height="25" rx="7"/><text class="j" x="309" y="442">»</text><a xlink:href="#boolean"><rect class="r" x="337" y="425" width="71" height="25"/><text class="j" x="347" y="442">boolean</text></a><rect class="l" x="25" y="455" width="25" height="25" rx="7"/><text class="j" x="35" y="472">(</text><rect class="l" x="60" y="455" width="62" height="25" rx="7"/><text class="j" x="70" y="472">every?</text><rect class="l" x="132" y="455" width="25" height="25" rx="7"/><text class="j" x="142" y="472">[</text><a xlink:href="#symbol"><rect class="r" x="167" y="455" width="64" height="25"/><text class="j" x="177" y="472">symbol</text></a><a xlink:href="#set"><rect class="r" x="261" y="455" width="40" height="25"/><text class="j" x="271" y="472">set</text></a><a xlink:href="#vector"><rect class="r" x="261" y="485" width="59" height="25"/><text class="j" x="271" y="502">vector</text></a><rect class="l" x="350" y="455" width="25" height="25" rx="7"/><text class="j" x="360" y="472">]</text><a xlink:href="#boolean-expression"><rect class="r" x="385" y="455" width="145" height="25"/><text class="j" x="395" y="472">boolean-expression</text></a><rect class="l" x="540" y="455" width="25" height="25" rx="7"/><text class="j" x="550" y="472">)</text><rect class="l" x="575" y="455" width="28" height="25" rx="7"/><text class="j" x="585" y="472">»</text><a xlink:href="#boolean"><rect class="r" x="613" y="455" width="71" height="25"/><text class="j" x="623" y="472">boolean</text></a><rect class="l" x="25" y="515" width="25" height="25" rx="7"/><text class="j" x="35" y="532">(</text><rect class="l" x="60" y="515" width="41" height="25" rx="7"/><text class="j" x="70" y="532">not</text><a xlink:href="#boolean"><rect class="r" x="111" y="515" width="71" height="25"/><text class="j" x="121" y="532">boolean</text></a><rect class="l" x="192" y="515" width="25" height="25" rx="7"/><text class="j" x="202" y="532">)</text><rect class="l" x="227" y="515" width="28" height="25" rx="7"/><text class="j" x="237" y="532">»</text><a xlink:href="#boolean"><rect class="r" x="265" y="515" width="71" height="25"/><text class="j" x="275" y="532">boolean</text></a><rect class="l" x="25" y="560" width="25" height="25" rx="7"/><text class="j" x="35" y="577">(</text><rect class="l" x="60" y="560" width="50" height="25" rx="7"/><text class="j" x="70" y="577">not=</text><a xlink:href="#value"><rect class="r" x="120" y="560" width="54" height="25"/><text class="j" x="130" y="577">value</text></a><a xlink:href="#value"><rect class="r" x="204" y="560" width="54" height="25"/><text class="j" x="214" y="577">value</text></a><rect class="l" x="288" y="560" width="25" height="25" rx="7"/><text class="j" x="298" y="577">)</text><rect class="l" x="323" y="560" width="28" height="25" rx="7"/><text class="j" x="333" y="577">»</text><a xlink:href="#boolean"><rect class="r" x="361" y="560" width="71" height="25"/><text class="j" x="371" y="577">boolean</text></a><rect class="l" x="25" y="605" width="25" height="25" rx="7"/><text class="j" x="35" y="622">(</text><rect class="l" x="60" y="605" width="33" height="25" rx="7"/><text class="j" x="70" y="622">or</text><a xlink:href="#boolean"><rect class="r" x="103" y="605" width="71" height="25"/><text class="j" x="113" y="622">boolean</text></a><a xlink:href="#boolean"><rect class="r" x="204" y="605" width="71" height="25"/><text class="j" x="214" y="622">boolean</text></a><rect class="l" x="305" y="605" width="25" height="25" rx="7"/><text class="j" x="315" y="622">)</text><rect class="l" x="340" y="605" width="28" height="25" rx="7"/><text class="j" x="350" y="622">»</text><a xlink:href="#boolean"><rect class="r" x="378" y="605" width="71" height="25"/><text class="j" x="388" y="622">boolean</text></a><rect class="l" x="25" y="635" width="25" height="25" rx="7"/><text class="j" x="35" y="652">(</text><rect class="l" x="60" y="635" width="88" height="25" rx="7"/><text class="j" x="70" y="652">refines-to?</text><a xlink:href="#instance"><rect class="r" x="158" y="635" width="73" height="25"/><text class="j" x="168" y="652">instance</text></a><a xlink:href="#keyword:spec-id"><rect class="r" x="241" y="635" width="124" height="25"/><text class="j" x="251" y="652">keyword:spec-id</text></a><rect class="l" x="375" y="635" width="25" height="25" rx="7"/><text class="j" x="385" y="652">)</text><rect class="l" x="410" y="635" width="28" height="25" rx="7"/><text class="j" x="420" y="652">»</text><a xlink:href="#boolean"><rect class="r" x="448" y="635" width="71" height="25"/><text class="j" x="458" y="652">boolean</text></a><rect class="l" x="25" y="665" width="25" height="25" rx="7"/><text class="j" x="35" y="682">(</text><rect class="l" x="60" y="665" width="70" height="25" rx="7"/><text class="j" x="70" y="682">subset?</text><a xlink:href="#set"><rect class="r" x="140" y="665" width="40" height="25"/><text class="j" x="150" y="682">set</text></a><a xlink:href="#set"><rect class="r" x="190" y="665" width="40" height="25"/><text class="j" x="200" y="682">set</text></a><rect class="l" x="240" y="665" width="25" height="25" rx="7"/><text class="j" x="250" y="682">)</text><rect class="l" x="275" y="665" width="28" height="25" rx="7"/><text class="j" x="285" y="682">»</text><a xlink:href="#boolean"><rect class="r" x="313" y="665" width="71" height="25"/><text class="j" x="323" y="682">boolean</text></a><rect class="l" x="25" y="695" width="25" height="25" rx="7"/><text class="j" x="35" y="712">(</text><rect class="l" x="60" y="695" width="56" height="25" rx="7"/><text class="j" x="70" y="712">valid?</text><a xlink:href="#instance-expression"><rect class="r" x="126" y="695" width="147" height="25"/><text class="j" x="136" y="712">instance-expression</text></a><rect class="l" x="283" y="695" width="25" height="25" rx="7"/><text class="j" x="293" y="712">)</text><rect class="l" x="318" y="695" width="28" height="25" rx="7"/><text class="j" x="328" y="712">»</text><a xlink:href="#boolean"><rect class="r" x="356" y="695" width="71" height="25"/><text class="j" x="366" y="712">boolean</text></a></svg>