<svg version="1.1" xmlns:xlink="http://www.w3.org/1999/xlink" xmlns="http://www.w3.org/2000/svg" width="565" height="297" viewbox="0 0 565 297"><defs><style type="text/css">.c{fill: none; stroke: #888888; stroke-width: 3pt;}.j{fill:#000000;font-family:Dialog,Sans-serif;font-size:12px;}.l{fill:#90d9ff;stroke:#222222;}.r{fill:#d3f0ff;stroke:#222222;}</style></defs><path class="c" d="M0 36h25m25 0h10m30 0h10m53 0h30m-5 0q-5 0-5-5v-16q0-5 5-5h63q5 0 5 5v16q0 5-5 5m-5 0h30m25 0h10m27 0h10m71 0h151m-545 24q0 5 5 5h5m25 0h10m40 0h10m71 0h10m71 0h10m25 0h10m27 0h10m71 0h130q5 0 5-5m-535 44q0 5 5 5h5m25 0h10m44 0h10m71 0h30m-5 0q-5 0-5-5v-16q0-5 5-5h81q5 0 5 5v16q0 5-5 5m-5 0h30m25 0h10m27 0h10m71 0h86q5 0 5-5m-535 29q0 5 5 5h5m25 0h10m27 0h10m71 0h10m114 0h10m114 0h10m25 0h10m27 0h10m42 0h5q5 0 5-5m-535 29q0 5 5 5h5m25 0h10m41 0h10m71 0h10m25 0h10m27 0h10m71 0h210q5 0 5-5m-535 44q0 5 5 5h5m25 0h10m51 0h10m53 0h30m-5 0q-5 0-5-5v-16q0-5 5-5h63q5 0 5 5v16q0 5-5 5m-5 0h30m25 0h10m27 0h10m71 0h115q5 0 5-5m-535 44q0 5 5 5h5m25 0h10m33 0h10m71 0h30m-5 0q-5 0-5-5v-16q0-5 5-5h81q5 0 5 5v16q0 5-5 5m-5 0h30m25 0h10m27 0h10m71 0h97q5 0 5-5m-540-214q5 0 5 5v238q0 5 5 5h5m25 0h10m53 0h10m71 0h10m114 0h10m25 0h10m27 0h10m42 0h103q5 0 5-5v-238q0-5 5-5m5 0h5"/><rect class="l" x="25" y="20" width="25" height="24" rx="7"/><text class="j" x="35" y="36">(</text><rect class="l" x="60" y="20" width="30" height="24" rx="7"/><text class="j" x="70" y="36">=</text><a xlink:href="#value"><rect class="r" x="100" y="20" width="53" height="24"/><text class="j" x="110" y="36">value</text></a><a xlink:href="#value"><rect class="r" x="183" y="20" width="53" height="24"/><text class="j" x="193" y="36">value</text></a><rect class="l" x="266" y="20" width="25" height="24" rx="7"/><text class="j" x="276" y="36">)</text><rect class="l" x="301" y="20" width="27" height="24" rx="7"/><text class="j" x="311" y="36">»</text><a xlink:href="#boolean"><rect class="r" x="338" y="20" width="71" height="24"/><text class="j" x="348" y="36">boolean</text></a><rect class="l" x="25" y="49" width="25" height="24" rx="7"/><text class="j" x="35" y="65">(</text><rect class="l" x="60" y="49" width="40" height="24" rx="7"/><text class="j" x="70" y="65">=&gt;</text><a xlink:href="#boolean"><rect class="r" x="110" y="49" width="71" height="24"/><text class="j" x="120" y="65">boolean</text></a><a xlink:href="#boolean"><rect class="r" x="191" y="49" width="71" height="24"/><text class="j" x="201" y="65">boolean</text></a><rect class="l" x="272" y="49" width="25" height="24" rx="7"/><text class="j" x="282" y="65">)</text><rect class="l" x="307" y="49" width="27" height="24" rx="7"/><text class="j" x="317" y="65">»</text><a xlink:href="#boolean"><rect class="r" x="344" y="49" width="71" height="24"/><text class="j" x="354" y="65">boolean</text></a><rect class="l" x="25" y="93" width="25" height="24" rx="7"/><text class="j" x="35" y="109">(</text><rect class="l" x="60" y="93" width="44" height="24" rx="7"/><text class="j" x="70" y="109">and</text><a xlink:href="#boolean"><rect class="r" x="114" y="93" width="71" height="24"/><text class="j" x="124" y="109">boolean</text></a><a xlink:href="#boolean"><rect class="r" x="215" y="93" width="71" height="24"/><text class="j" x="225" y="109">boolean</text></a><rect class="l" x="316" y="93" width="25" height="24" rx="7"/><text class="j" x="326" y="109">)</text><rect class="l" x="351" y="93" width="27" height="24" rx="7"/><text class="j" x="361" y="109">»</text><a xlink:href="#boolean"><rect class="r" x="388" y="93" width="71" height="24"/><text class="j" x="398" y="109">boolean</text></a><rect class="l" x="25" y="122" width="25" height="24" rx="7"/><text class="j" x="35" y="138">(</text><rect class="l" x="60" y="122" width="27" height="24" rx="7"/><text class="j" x="70" y="138">if</text><a xlink:href="#boolean"><rect class="r" x="97" y="122" width="71" height="24"/><text class="j" x="107" y="138">boolean</text></a><a xlink:href="#any-expression"><rect class="r" x="178" y="122" width="114" height="24"/><text class="j" x="188" y="138">any-expression</text></a><a xlink:href="#any-expression"><rect class="r" x="302" y="122" width="114" height="24"/><text class="j" x="312" y="138">any-expression</text></a><rect class="l" x="426" y="122" width="25" height="24" rx="7"/><text class="j" x="436" y="138">)</text><rect class="l" x="461" y="122" width="27" height="24" rx="7"/><text class="j" x="471" y="138">»</text><a xlink:href="#any"><rect class="r" x="498" y="122" width="42" height="24"/><text class="j" x="508" y="138">any</text></a><rect class="l" x="25" y="151" width="25" height="24" rx="7"/><text class="j" x="35" y="167">(</text><rect class="l" x="60" y="151" width="41" height="24" rx="7"/><text class="j" x="70" y="167">not</text><a xlink:href="#boolean"><rect class="r" x="111" y="151" width="71" height="24"/><text class="j" x="121" y="167">boolean</text></a><rect class="l" x="192" y="151" width="25" height="24" rx="7"/><text class="j" x="202" y="167">)</text><rect class="l" x="227" y="151" width="27" height="24" rx="7"/><text class="j" x="237" y="167">»</text><a xlink:href="#boolean"><rect class="r" x="264" y="151" width="71" height="24"/><text class="j" x="274" y="167">boolean</text></a><rect class="l" x="25" y="195" width="25" height="24" rx="7"/><text class="j" x="35" y="211">(</text><rect class="l" x="60" y="195" width="51" height="24" rx="7"/><text class="j" x="70" y="211">not=</text><a xlink:href="#value"><rect class="r" x="121" y="195" width="53" height="24"/><text class="j" x="131" y="211">value</text></a><a xlink:href="#value"><rect class="r" x="204" y="195" width="53" height="24"/><text class="j" x="214" y="211">value</text></a><rect class="l" x="287" y="195" width="25" height="24" rx="7"/><text class="j" x="297" y="211">)</text><rect class="l" x="322" y="195" width="27" height="24" rx="7"/><text class="j" x="332" y="211">»</text><a xlink:href="#boolean"><rect class="r" x="359" y="195" width="71" height="24"/><text class="j" x="369" y="211">boolean</text></a><rect class="l" x="25" y="239" width="25" height="24" rx="7"/><text class="j" x="35" y="255">(</text><rect class="l" x="60" y="239" width="33" height="24" rx="7"/><text class="j" x="70" y="255">or</text><a xlink:href="#boolean"><rect class="r" x="103" y="239" width="71" height="24"/><text class="j" x="113" y="255">boolean</text></a><a xlink:href="#boolean"><rect class="r" x="204" y="239" width="71" height="24"/><text class="j" x="214" y="255">boolean</text></a><rect class="l" x="305" y="239" width="25" height="24" rx="7"/><text class="j" x="315" y="255">)</text><rect class="l" x="340" y="239" width="27" height="24" rx="7"/><text class="j" x="350" y="255">»</text><a xlink:href="#boolean"><rect class="r" x="377" y="239" width="71" height="24"/><text class="j" x="387" y="255">boolean</text></a><rect class="l" x="25" y="268" width="25" height="24" rx="7"/><text class="j" x="35" y="284">(</text><rect class="l" x="60" y="268" width="53" height="24" rx="7"/><text class="j" x="70" y="284">when</text><a xlink:href="#boolean"><rect class="r" x="123" y="268" width="71" height="24"/><text class="j" x="133" y="284">boolean</text></a><a xlink:href="#any-expression"><rect class="r" x="204" y="268" width="114" height="24"/><text class="j" x="214" y="284">any-expression</text></a><rect class="l" x="328" y="268" width="25" height="24" rx="7"/><text class="j" x="338" y="284">)</text><rect class="l" x="363" y="268" width="27" height="24" rx="7"/><text class="j" x="373" y="284">»</text><a xlink:href="#any"><rect class="r" x="400" y="268" width="42" height="24"/><text class="j" x="410" y="284">any</text></a></svg>