<svg version="1.1" xmlns:xlink="http://www.w3.org/1999/xlink" xmlns="http://www.w3.org/2000/svg" width="629" height="365" viewbox="0 0 629 365"><defs><style type="text/css">.c{fill:none;stroke:#222222;}.j{fill:#000000;font-family:Verdana,Sans-serif;font-size:12px;}.l{fill:#90d9ff;stroke:#222222;}.r{fill:#d3f0ff;stroke:#222222;}</style></defs><path class="c" d="M0 22h25m25 0h10m71 0h10m28 0h10m71 0h374m-609 25q0 5 5 5h5m54 0h10m34 0h10m54 0h10m28 0h10m71 0h303q5 0 5-5m-599 60q0 5 5 5h5m91 0h10m25 0h10m54 0h10m24 0h30m-5 0q-5 0-5-5v-20q0-5 5-5h20m24 0h20q5 0 5 5v20q0 5-5 5m-5 0h30m25 0h10m28 0h10m71 0h102q5 0 5-5m-599 30q0 5 5 5h5m71 0h10m38 0h10m71 0h10m28 0h10m71 0h265q5 0 5-5m-599 30q0 5 5 5h5m71 0h10m38 0h10m71 0h10m28 0h10m71 0h265q5 0 5-5m-599 30q0 5 5 5h5m27 0h10m25 0h10m71 0h10m25 0h10m117 0h10m46 0h10m117 0h10m28 0h10m43 0h5q5 0 5-5m-599 30q0 5 5 5h5m54 0h10m34 0h10m54 0h10m28 0h10m71 0h303q5 0 5-5m-599 60q0 5 5 5h5m91 0h10m25 0h10m54 0h10m24 0h30m-5 0q-5 0-5-5v-20q0-5 5-5h20m24 0h20q5 0 5 5v20q0 5-5 5m-5 0h30m25 0h10m28 0h10m71 0h102q5 0 5-5m-599 30q0 5 5 5h5m55 0h10m25 0h10m71 0h10m25 0h10m117 0h10m28 0h10m43 0h160q5 0 5-5m-604-295q5 0 5 5v320q0 5 5 5h5m71 0h10m30 0h10m71 0h10m28 0h10m71 0h273q5 0 5-5v-320q0-5 5-5m5 0h5"/><rect class="l" x="25" y="5" width="25" height="25" rx="7"/><text class="j" x="35" y="22">!</text><a xlink:href="#boolean"><rect class="r" x="60" y="5" width="71" height="25"/><text class="j" x="70" y="22">boolean</text></a><rect class="l" x="141" y="5" width="28" height="25" rx="7"/><text class="j" x="151" y="22">»</text><a xlink:href="#boolean"><rect class="r" x="179" y="5" width="71" height="25"/><text class="j" x="189" y="22">boolean</text></a><a xlink:href="#value"><rect class="r" x="25" y="35" width="54" height="25"/><text class="j" x="35" y="52">value</text></a><rect class="l" x="89" y="35" width="34" height="25" rx="7"/><text class="j" x="99" y="52">!=</text><a xlink:href="#value"><rect class="r" x="133" y="35" width="54" height="25"/><text class="j" x="143" y="52">value</text></a><rect class="l" x="197" y="35" width="28" height="25" rx="7"/><text class="j" x="207" y="52">»</text><a xlink:href="#boolean"><rect class="r" x="235" y="35" width="71" height="25"/><text class="j" x="245" y="52">boolean</text></a><rect class="l" x="25" y="95" width="91" height="25" rx="7"/><text class="j" x="35" y="112">notEqualTo</text><rect class="l" x="126" y="95" width="25" height="25" rx="7"/><text class="j" x="136" y="112">(</text><a xlink:href="#value"><rect class="r" x="161" y="95" width="54" height="25"/><text class="j" x="171" y="112">value</text></a><rect class="l" x="225" y="95" width="24" height="25" rx="7"/><text class="j" x="235" y="112">,</text><rect class="l" x="294" y="65" width="24" height="25" rx="7"/><text class="j" x="304" y="82">,</text><a xlink:href="#value"><rect class="r" x="279" y="95" width="54" height="25"/><text class="j" x="289" y="112">value</text></a><rect class="l" x="363" y="95" width="25" height="25" rx="7"/><text class="j" x="373" y="112">)</text><rect class="l" x="398" y="95" width="28" height="25" rx="7"/><text class="j" x="408" y="112">»</text><a xlink:href="#boolean"><rect class="r" x="436" y="95" width="71" height="25"/><text class="j" x="446" y="112">boolean</text></a><a xlink:href="#boolean"><rect class="r" x="25" y="125" width="71" height="25"/><text class="j" x="35" y="142">boolean</text></a><rect class="l" x="106" y="125" width="38" height="25" rx="7"/><text class="j" x="116" y="142">&amp;&amp;</text><a xlink:href="#boolean"><rect class="r" x="154" y="125" width="71" height="25"/><text class="j" x="164" y="142">boolean</text></a><rect class="l" x="235" y="125" width="28" height="25" rx="7"/><text class="j" x="245" y="142">»</text><a xlink:href="#boolean"><rect class="r" x="273" y="125" width="71" height="25"/><text class="j" x="283" y="142">boolean</text></a><a xlink:href="#boolean"><rect class="r" x="25" y="155" width="71" height="25"/><text class="j" x="35" y="172">boolean</text></a><rect class="l" x="106" y="155" width="38" height="25" rx="7"/><text class="j" x="116" y="172">=&gt;</text><a xlink:href="#boolean"><rect class="r" x="154" y="155" width="71" height="25"/><text class="j" x="164" y="172">boolean</text></a><rect class="l" x="235" y="155" width="28" height="25" rx="7"/><text class="j" x="245" y="172">»</text><a xlink:href="#boolean"><rect class="r" x="273" y="155" width="71" height="25"/><text class="j" x="283" y="172">boolean</text></a><rect class="l" x="25" y="185" width="27" height="25" rx="7"/><text class="j" x="35" y="202">if</text><rect class="l" x="62" y="185" width="25" height="25" rx="7"/><text class="j" x="72" y="202">(</text><a xlink:href="#boolean"><rect class="r" x="97" y="185" width="71" height="25"/><text class="j" x="107" y="202">boolean</text></a><rect class="l" x="178" y="185" width="25" height="25" rx="7"/><text class="j" x="188" y="202">)</text><a xlink:href="#any-expression"><rect class="r" x="213" y="185" width="117" height="25"/><text class="j" x="223" y="202">any-expression</text></a><rect class="l" x="340" y="185" width="46" height="25" rx="7"/><text class="j" x="350" y="202">else</text><a xlink:href="#any-expression"><rect class="r" x="396" y="185" width="117" height="25"/><text class="j" x="406" y="202">any-expression</text></a><rect class="l" x="523" y="185" width="28" height="25" rx="7"/><text class="j" x="533" y="202">»</text><a xlink:href="#any"><rect class="r" x="561" y="185" width="43" height="25"/><text class="j" x="571" y="202">any</text></a><a xlink:href="#value"><rect class="r" x="25" y="215" width="54" height="25"/><text class="j" x="35" y="232">value</text></a><rect class="l" x="89" y="215" width="34" height="25" rx="7"/><text class="j" x="99" y="232">!=</text><a xlink:href="#value"><rect class="r" x="133" y="215" width="54" height="25"/><text class="j" x="143" y="232">value</text></a><rect class="l" x="197" y="215" width="28" height="25" rx="7"/><text class="j" x="207" y="232">»</text><a xlink:href="#boolean"><rect class="r" x="235" y="215" width="71" height="25"/><text class="j" x="245" y="232">boolean</text></a><rect class="l" x="25" y="275" width="91" height="25" rx="7"/><text class="j" x="35" y="292">notEqualTo</text><rect class="l" x="126" y="275" width="25" height="25" rx="7"/><text class="j" x="136" y="292">(</text><a xlink:href="#value"><rect class="r" x="161" y="275" width="54" height="25"/><text class="j" x="171" y="292">value</text></a><rect class="l" x="225" y="275" width="24" height="25" rx="7"/><text class="j" x="235" y="292">,</text><rect class="l" x="294" y="245" width="24" height="25" rx="7"/><text class="j" x="304" y="262">,</text><a xlink:href="#value"><rect class="r" x="279" y="275" width="54" height="25"/><text class="j" x="289" y="292">value</text></a><rect class="l" x="363" y="275" width="25" height="25" rx="7"/><text class="j" x="373" y="292">)</text><rect class="l" x="398" y="275" width="28" height="25" rx="7"/><text class="j" x="408" y="292">»</text><a xlink:href="#boolean"><rect class="r" x="436" y="275" width="71" height="25"/><text class="j" x="446" y="292">boolean</text></a><rect class="l" x="25" y="305" width="55" height="25" rx="7"/><text class="j" x="35" y="322">when</text><rect class="l" x="90" y="305" width="25" height="25" rx="7"/><text class="j" x="100" y="322">(</text><a xlink:href="#boolean"><rect class="r" x="125" y="305" width="71" height="25"/><text class="j" x="135" y="322">boolean</text></a><rect class="l" x="206" y="305" width="25" height="25" rx="7"/><text class="j" x="216" y="322">)</text><a xlink:href="#any-expression"><rect class="r" x="241" y="305" width="117" height="25"/><text class="j" x="251" y="322">any-expression</text></a><rect class="l" x="368" y="305" width="28" height="25" rx="7"/><text class="j" x="378" y="322">»</text><a xlink:href="#any"><rect class="r" x="406" y="305" width="43" height="25"/><text class="j" x="416" y="322">any</text></a><a xlink:href="#boolean"><rect class="r" x="25" y="335" width="71" height="25"/><text class="j" x="35" y="352">boolean</text></a><rect class="l" x="106" y="335" width="30" height="25" rx="7"/><text class="j" x="116" y="352">||</text><a xlink:href="#boolean"><rect class="r" x="146" y="335" width="71" height="25"/><text class="j" x="156" y="352">boolean</text></a><rect class="l" x="227" y="335" width="28" height="25" rx="7"/><text class="j" x="237" y="352">»</text><a xlink:href="#boolean"><rect class="r" x="265" y="335" width="71" height="25"/><text class="j" x="275" y="352">boolean</text></a></svg>