<svg version="1.1" xmlns:xlink="http://www.w3.org/1999/xlink" xmlns="http://www.w3.org/2000/svg" width="673" height="759" viewbox="0 0 673 759"><defs><style type="text/css">.c{fill: none; stroke: #888888; stroke-width: 2px;}.j{fill:#000000;font-family:Dialog,Sans-serif;font-size:12px;}.l{fill:#90d9ff;stroke:#222222;}.r{fill:#d3f0ff;stroke:#222222;}</style></defs><path class="c" d="M0 17h25m25 0h10m71 0h10m27 0h10m71 0h419m-653 24q0 5 5 5h5m53 0h10m35 0h10m53 0h10m27 0h10m71 0h349q5 0 5-5m-643 29q0 5 5 5h5m71 0h10m40 0h10m71 0h10m27 0h10m71 0h308q5 0 5-5m-643 29q0 5 5 5h25m65 0h10m30 0h10m65 0h92m-287 0q5 0 5 5v19q0 5 5 5h5m101 0h10m30 0h10m101 0h5q5 0 5-5v-19q0-5 5-5m5 0h10m27 0h10m71 0h218q5 0 5-5m-643 58q0 5 5 5h25m65 0h10m40 0h10m65 0h92m-297 0q5 0 5 5v19q0 5 5 5h5m101 0h10m40 0h10m101 0h5q5 0 5-5v-19q0-5 5-5m5 0h10m27 0h10m71 0h208q5 0 5-5m-643 58q0 5 5 5h5m53 0h10m40 0h10m53 0h10m27 0h10m71 0h344q5 0 5-5m-643 29q0 5 5 5h5m71 0h10m40 0h10m71 0h10m27 0h10m71 0h308q5 0 5-5m-643 29q0 5 5 5h25m65 0h10m30 0h10m65 0h92m-287 0q5 0 5 5v19q0 5 5 5h5m101 0h10m30 0h10m101 0h5q5 0 5-5v-19q0-5 5-5m5 0h10m27 0h10m71 0h218q5 0 5-5m-643 58q0 5 5 5h25m65 0h10m40 0h10m65 0h92m-297 0q5 0 5 5v19q0 5 5 5h5m101 0h10m40 0h10m101 0h5q5 0 5-5v-19q0-5 5-5m5 0h10m27 0h10m71 0h208q5 0 5-5m-643 58q0 5 5 5h5m48 0h10m25 0h10m63 0h10m31 0h30m40 0h39m-94 0q5 0 5 5v19q0 5 5 5h5m59 0h5q5 0 5-5v-19q0-5 5-5m5 0h10m25 0h10m143 0h10m27 0h10m71 0h16q5 0 5-5m-643 58q0 5 5 5h5m40 0h10m24 0h10m80 0h10m25 0h10m53 0h10m25 0h10m27 0h10m71 0h213q5 0 5-5m-643 58q0 5 5 5h5m70 0h10m25 0h10m53 0h10m24 0h30m-5 0q-5 0-5-5v-19q0-5 5-5h19m24 0h20q5 0 5 5v19q0 5-5 5m-5 0h30m25 0h10m27 0h10m71 0h170q5 0 5-5m-643 29q0 5 5 5h5m59 0h10m25 0h10m63 0h10m31 0h30m40 0h39m-94 0q5 0 5 5v19q0 5 5 5h5m59 0h5q5 0 5-5v-19q0-5 5-5m5 0h10m25 0h10m143 0h10m27 0h10m71 0h5q5 0 5-5m-643 87q0 5 5 5h5m91 0h10m25 0h10m53 0h10m24 0h30m-5 0q-5 0-5-5v-19q0-5 5-5h19m24 0h20q5 0 5 5v19q0 5-5 5m-5 0h30m25 0h10m27 0h10m71 0h149q5 0 5-5m-643 29q0 5 5 5h5m74 0h10m24 0h10m84 0h10m25 0h10m112 0h10m25 0h10m27 0h10m71 0h116q5 0 5-5m-643 29q0 5 5 5h5m40 0h10m24 0h10m69 0h10m25 0h10m40 0h10m25 0h10m27 0h10m71 0h237q5 0 5-5m-643 29q0 5 5 5h5m54 0h10m146 0h10m27 0h10m71 0h300q5 0 5-5m-648-691q5 0 5 5v715q0 5 5 5h5m71 0h10m28 0h10m71 0h10m27 0h10m71 0h320q5 0 5-5v-715q0-5 5-5m5 0h5"/><rect class="l" x="25" y="5" width="25" height="24" rx="7"/><text class="j" x="35" y="21">!</text><a xlink:href="#boolean"><rect class="r" x="60" y="5" width="71" height="24"/><text class="j" x="70" y="21">boolean</text></a><rect class="l" x="141" y="5" width="27" height="24" rx="7"/><text class="j" x="151" y="21">»</text><a xlink:href="#boolean"><rect class="r" x="178" y="5" width="71" height="24"/><text class="j" x="188" y="21">boolean</text></a><a xlink:href="#value"><rect class="r" x="25" y="34" width="53" height="24"/><text class="j" x="35" y="50">value</text></a><rect class="l" x="88" y="34" width="35" height="24" rx="7"/><text class="j" x="98" y="50">!=</text><a xlink:href="#value"><rect class="r" x="133" y="34" width="53" height="24"/><text class="j" x="143" y="50">value</text></a><rect class="l" x="196" y="34" width="27" height="24" rx="7"/><text class="j" x="206" y="50">»</text><a xlink:href="#boolean"><rect class="r" x="233" y="34" width="71" height="24"/><text class="j" x="243" y="50">boolean</text></a><a xlink:href="#boolean"><rect class="r" x="25" y="63" width="71" height="24"/><text class="j" x="35" y="79">boolean</text></a><rect class="l" x="106" y="63" width="40" height="24" rx="7"/><text class="j" x="116" y="79">&amp;&amp;</text><a xlink:href="#boolean"><rect class="r" x="156" y="63" width="71" height="24"/><text class="j" x="166" y="79">boolean</text></a><rect class="l" x="237" y="63" width="27" height="24" rx="7"/><text class="j" x="247" y="79">»</text><a xlink:href="#boolean"><rect class="r" x="274" y="63" width="71" height="24"/><text class="j" x="284" y="79">boolean</text></a><a xlink:href="#integer"><rect class="r" x="45" y="92" width="65" height="24"/><text class="j" x="55" y="108">integer</text></a><rect class="l" x="120" y="92" width="30" height="24" rx="7"/><text class="j" x="130" y="108">&lt;</text><a xlink:href="#integer"><rect class="r" x="160" y="92" width="65" height="24"/><text class="j" x="170" y="108">integer</text></a><a xlink:href="#fixed-decimal"><rect class="r" x="45" y="121" width="101" height="24"/><text class="j" x="55" y="137">fixed-decimal</text></a><rect class="l" x="156" y="121" width="30" height="24" rx="7"/><text class="j" x="166" y="137">&lt;</text><a xlink:href="#fixed-decimal"><rect class="r" x="196" y="121" width="101" height="24"/><text class="j" x="206" y="137">fixed-decimal</text></a><rect class="l" x="327" y="92" width="27" height="24" rx="7"/><text class="j" x="337" y="108">»</text><a xlink:href="#boolean"><rect class="r" x="364" y="92" width="71" height="24"/><text class="j" x="374" y="108">boolean</text></a><a xlink:href="#integer"><rect class="r" x="45" y="150" width="65" height="24"/><text class="j" x="55" y="166">integer</text></a><rect class="l" x="120" y="150" width="40" height="24" rx="7"/><text class="j" x="130" y="166">&lt;=</text><a xlink:href="#integer"><rect class="r" x="170" y="150" width="65" height="24"/><text class="j" x="180" y="166">integer</text></a><a xlink:href="#fixed-decimal"><rect class="r" x="45" y="179" width="101" height="24"/><text class="j" x="55" y="195">fixed-decimal</text></a><rect class="l" x="156" y="179" width="40" height="24" rx="7"/><text class="j" x="166" y="195">&lt;=</text><a xlink:href="#fixed-decimal"><rect class="r" x="206" y="179" width="101" height="24"/><text class="j" x="216" y="195">fixed-decimal</text></a><rect class="l" x="337" y="150" width="27" height="24" rx="7"/><text class="j" x="347" y="166">»</text><a xlink:href="#boolean"><rect class="r" x="374" y="150" width="71" height="24"/><text class="j" x="384" y="166">boolean</text></a><a xlink:href="#value"><rect class="r" x="25" y="208" width="53" height="24"/><text class="j" x="35" y="224">value</text></a><rect class="l" x="88" y="208" width="40" height="24" rx="7"/><text class="j" x="98" y="224">==</text><a xlink:href="#value"><rect class="r" x="138" y="208" width="53" height="24"/><text class="j" x="148" y="224">value</text></a><rect class="l" x="201" y="208" width="27" height="24" rx="7"/><text class="j" x="211" y="224">»</text><a xlink:href="#boolean"><rect class="r" x="238" y="208" width="71" height="24"/><text class="j" x="248" y="224">boolean</text></a><a xlink:href="#boolean"><rect class="r" x="25" y="237" width="71" height="24"/><text class="j" x="35" y="253">boolean</text></a><rect class="l" x="106" y="237" width="40" height="24" rx="7"/><text class="j" x="116" y="253">=&gt;</text><a xlink:href="#boolean"><rect class="r" x="156" y="237" width="71" height="24"/><text class="j" x="166" y="253">boolean</text></a><rect class="l" x="237" y="237" width="27" height="24" rx="7"/><text class="j" x="247" y="253">»</text><a xlink:href="#boolean"><rect class="r" x="274" y="237" width="71" height="24"/><text class="j" x="284" y="253">boolean</text></a><a xlink:href="#integer"><rect class="r" x="45" y="266" width="65" height="24"/><text class="j" x="55" y="282">integer</text></a><rect class="l" x="120" y="266" width="30" height="24" rx="7"/><text class="j" x="130" y="282">&gt;</text><a xlink:href="#integer"><rect class="r" x="160" y="266" width="65" height="24"/><text class="j" x="170" y="282">integer</text></a><a xlink:href="#fixed-decimal"><rect class="r" x="45" y="295" width="101" height="24"/><text class="j" x="55" y="311">fixed-decimal</text></a><rect class="l" x="156" y="295" width="30" height="24" rx="7"/><text class="j" x="166" y="311">&gt;</text><a xlink:href="#fixed-decimal"><rect class="r" x="196" y="295" width="101" height="24"/><text class="j" x="206" y="311">fixed-decimal</text></a><rect class="l" x="327" y="266" width="27" height="24" rx="7"/><text class="j" x="337" y="282">»</text><a xlink:href="#boolean"><rect class="r" x="364" y="266" width="71" height="24"/><text class="j" x="374" y="282">boolean</text></a><a xlink:href="#integer"><rect class="r" x="45" y="324" width="65" height="24"/><text class="j" x="55" y="340">integer</text></a><rect class="l" x="120" y="324" width="40" height="24" rx="7"/><text class="j" x="130" y="340">&gt;=</text><a xlink:href="#integer"><rect class="r" x="170" y="324" width="65" height="24"/><text class="j" x="180" y="340">integer</text></a><a xlink:href="#fixed-decimal"><rect class="r" x="45" y="353" width="101" height="24"/><text class="j" x="55" y="369">fixed-decimal</text></a><rect class="l" x="156" y="353" width="40" height="24" rx="7"/><text class="j" x="166" y="369">&gt;=</text><a xlink:href="#fixed-decimal"><rect class="r" x="206" y="353" width="101" height="24"/><text class="j" x="216" y="369">fixed-decimal</text></a><rect class="l" x="337" y="324" width="27" height="24" rx="7"/><text class="j" x="347" y="340">»</text><a xlink:href="#boolean"><rect class="r" x="374" y="324" width="71" height="24"/><text class="j" x="384" y="340">boolean</text></a><rect class="l" x="25" y="382" width="48" height="24" rx="7"/><text class="j" x="35" y="398">any?</text><rect class="l" x="83" y="382" width="25" height="24" rx="7"/><text class="j" x="93" y="398">(</text><a xlink:href="#symbol"><rect class="r" x="118" y="382" width="63" height="24"/><text class="j" x="128" y="398">symbol</text></a><rect class="l" x="191" y="382" width="31" height="24" rx="7"/><text class="j" x="201" y="398">in</text><a xlink:href="#set"><rect class="r" x="252" y="382" width="40" height="24"/><text class="j" x="262" y="398">set</text></a><a xlink:href="#vector"><rect class="r" x="252" y="411" width="59" height="24"/><text class="j" x="262" y="427">vector</text></a><rect class="l" x="341" y="382" width="25" height="24" rx="7"/><text class="j" x="351" y="398">)</text><a xlink:href="#boolean-expression"><rect class="r" x="376" y="382" width="143" height="24"/><text class="j" x="386" y="398">boolean-expression</text></a><rect class="l" x="529" y="382" width="27" height="24" rx="7"/><text class="j" x="539" y="398">»</text><a xlink:href="#boolean"><rect class="r" x="566" y="382" width="71" height="24"/><text class="j" x="576" y="398">boolean</text></a><a xlink:href="#set"><rect class="r" x="25" y="440" width="40" height="24"/><text class="j" x="35" y="456">set</text></a><rect class="l" x="75" y="440" width="24" height="24" rx="7"/><text class="j" x="85" y="456">.</text><rect class="l" x="109" y="440" width="80" height="24" rx="7"/><text class="j" x="119" y="456">contains?</text><rect class="l" x="199" y="440" width="25" height="24" rx="7"/><text class="j" x="209" y="456">(</text><a xlink:href="#value"><rect class="r" x="234" y="440" width="53" height="24"/><text class="j" x="244" y="456">value</text></a><rect class="l" x="297" y="440" width="25" height="24" rx="7"/><text class="j" x="307" y="456">)</text><rect class="l" x="332" y="440" width="27" height="24" rx="7"/><text class="j" x="342" y="456">»</text><a xlink:href="#boolean"><rect class="r" x="369" y="440" width="71" height="24"/><text class="j" x="379" y="456">boolean</text></a><rect class="l" x="25" y="498" width="70" height="24" rx="7"/><text class="j" x="35" y="514">equalTo</text><rect class="l" x="105" y="498" width="25" height="24" rx="7"/><text class="j" x="115" y="514">(</text><a xlink:href="#value"><rect class="r" x="140" y="498" width="53" height="24"/><text class="j" x="150" y="514">value</text></a><rect class="l" x="203" y="498" width="24" height="24" rx="7"/><text class="j" x="213" y="514">,</text><rect class="l" x="271" y="469" width="24" height="24" rx="7"/><text class="j" x="281" y="485">,</text><a xlink:href="#value"><rect class="r" x="257" y="498" width="53" height="24"/><text class="j" x="267" y="514">value</text></a><rect class="l" x="340" y="498" width="25" height="24" rx="7"/><text class="j" x="350" y="514">)</text><rect class="l" x="375" y="498" width="27" height="24" rx="7"/><text class="j" x="385" y="514">»</text><a xlink:href="#boolean"><rect class="r" x="412" y="498" width="71" height="24"/><text class="j" x="422" y="514">boolean</text></a><rect class="l" x="25" y="527" width="59" height="24" rx="7"/><text class="j" x="35" y="543">every?</text><rect class="l" x="94" y="527" width="25" height="24" rx="7"/><text class="j" x="104" y="543">(</text><a xlink:href="#symbol"><rect class="r" x="129" y="527" width="63" height="24"/><text class="j" x="139" y="543">symbol</text></a><rect class="l" x="202" y="527" width="31" height="24" rx="7"/><text class="j" x="212" y="543">in</text><a xlink:href="#set"><rect class="r" x="263" y="527" width="40" height="24"/><text class="j" x="273" y="543">set</text></a><a xlink:href="#vector"><rect class="r" x="263" y="556" width="59" height="24"/><text class="j" x="273" y="572">vector</text></a><rect class="l" x="352" y="527" width="25" height="24" rx="7"/><text class="j" x="362" y="543">)</text><a xlink:href="#boolean-expression"><rect class="r" x="387" y="527" width="143" height="24"/><text class="j" x="397" y="543">boolean-expression</text></a><rect class="l" x="540" y="527" width="27" height="24" rx="7"/><text class="j" x="550" y="543">»</text><a xlink:href="#boolean"><rect class="r" x="577" y="527" width="71" height="24"/><text class="j" x="587" y="543">boolean</text></a><rect class="l" x="25" y="614" width="91" height="24" rx="7"/><text class="j" x="35" y="630">notEqualTo</text><rect class="l" x="126" y="614" width="25" height="24" rx="7"/><text class="j" x="136" y="630">(</text><a xlink:href="#value"><rect class="r" x="161" y="614" width="53" height="24"/><text class="j" x="171" y="630">value</text></a><rect class="l" x="224" y="614" width="24" height="24" rx="7"/><text class="j" x="234" y="630">,</text><rect class="l" x="292" y="585" width="24" height="24" rx="7"/><text class="j" x="302" y="601">,</text><a xlink:href="#value"><rect class="r" x="278" y="614" width="53" height="24"/><text class="j" x="288" y="630">value</text></a><rect class="l" x="361" y="614" width="25" height="24" rx="7"/><text class="j" x="371" y="630">)</text><rect class="l" x="396" y="614" width="27" height="24" rx="7"/><text class="j" x="406" y="630">»</text><a xlink:href="#boolean"><rect class="r" x="433" y="614" width="71" height="24"/><text class="j" x="443" y="630">boolean</text></a><a xlink:href="#instance"><rect class="r" x="25" y="643" width="74" height="24"/><text class="j" x="35" y="659">instance</text></a><rect class="l" x="109" y="643" width="24" height="24" rx="7"/><text class="j" x="119" y="659">.</text><rect class="l" x="143" y="643" width="84" height="24" rx="7"/><text class="j" x="153" y="659">refinesTo?</text><rect class="l" x="237" y="643" width="25" height="24" rx="7"/><text class="j" x="247" y="659">(</text><a xlink:href="#symbol:spec-id"><rect class="r" x="272" y="643" width="112" height="24"/><text class="j" x="282" y="659">symbol:spec-id</text></a><rect class="l" x="394" y="643" width="25" height="24" rx="7"/><text class="j" x="404" y="659">)</text><rect class="l" x="429" y="643" width="27" height="24" rx="7"/><text class="j" x="439" y="659">»</text><a xlink:href="#boolean"><rect class="r" x="466" y="643" width="71" height="24"/><text class="j" x="476" y="659">boolean</text></a><a xlink:href="#set"><rect class="r" x="25" y="672" width="40" height="24"/><text class="j" x="35" y="688">set</text></a><rect class="l" x="75" y="672" width="24" height="24" rx="7"/><text class="j" x="85" y="688">.</text><rect class="l" x="109" y="672" width="69" height="24" rx="7"/><text class="j" x="119" y="688">subset?</text><rect class="l" x="188" y="672" width="25" height="24" rx="7"/><text class="j" x="198" y="688">(</text><a xlink:href="#set"><rect class="r" x="223" y="672" width="40" height="24"/><text class="j" x="233" y="688">set</text></a><rect class="l" x="273" y="672" width="25" height="24" rx="7"/><text class="j" x="283" y="688">)</text><rect class="l" x="308" y="672" width="27" height="24" rx="7"/><text class="j" x="318" y="688">»</text><a xlink:href="#boolean"><rect class="r" x="345" y="672" width="71" height="24"/><text class="j" x="355" y="688">boolean</text></a><rect class="l" x="25" y="701" width="54" height="24" rx="7"/><text class="j" x="35" y="717">valid?</text><a xlink:href="#instance-expression"><rect class="r" x="89" y="701" width="146" height="24"/><text class="j" x="99" y="717">instance-expression</text></a><rect class="l" x="245" y="701" width="27" height="24" rx="7"/><text class="j" x="255" y="717">»</text><a xlink:href="#boolean"><rect class="r" x="282" y="701" width="71" height="24"/><text class="j" x="292" y="717">boolean</text></a><a xlink:href="#boolean"><rect class="r" x="25" y="730" width="71" height="24"/><text class="j" x="35" y="746">boolean</text></a><rect class="l" x="106" y="730" width="28" height="24" rx="7"/><text class="j" x="116" y="746">||</text><a xlink:href="#boolean"><rect class="r" x="144" y="730" width="71" height="24"/><text class="j" x="154" y="746">boolean</text></a><rect class="l" x="225" y="730" width="27" height="24" rx="7"/><text class="j" x="235" y="746">»</text><a xlink:href="#boolean"><rect class="r" x="262" y="730" width="71" height="24"/><text class="j" x="272" y="746">boolean</text></a></svg>