<svg version="1.1" xmlns:xlink="http://www.w3.org/1999/xlink" xmlns="http://www.w3.org/2000/svg" width="606" height="365" viewbox="0 0 606 365"><defs><style type="text/css">.c{fill: none; stroke: #888888; stroke-width: 2px;}.j{fill:#000000;font-family:Verdana,Sans-serif;font-size:12px;}.l{fill:#90d9ff;stroke:#222222;}.r{fill:#d3f0ff;stroke:#222222;}</style></defs><path class="c" d="M0 18h25m25 0h10m66 0h10m28 0h10m66 0h361m-586 25q0 5 5 5h5m52 0h10m35 0h10m52 0h10m28 0h10m66 0h288q5 0 5-5m-576 30q0 5 5 5h5m66 0h10m38 0h10m66 0h10m28 0h10m66 0h257q5 0 5-5m-576 30q0 5 5 5h5m52 0h10m40 0h10m52 0h10m28 0h10m66 0h283q5 0 5-5m-576 30q0 5 5 5h5m66 0h10m40 0h10m66 0h10m28 0h10m66 0h255q5 0 5-5m-576 60q0 5 5 5h5m66 0h10m25 0h10m52 0h10m24 0h30m-5 0q-5 0-5-5v-20q0-5 5-5h19m24 0h19q5 0 5 5v20q0 5-5 5m-5 0h30m25 0h10m28 0h10m66 0h113q5 0 5-5m-576 30q0 5 5 5h5m27 0h10m25 0h10m66 0h10m25 0h10m110 0h10m43 0h10m110 0h10m28 0h10m42 0h5q5 0 5-5m-576 60q0 5 5 5h5m87 0h10m25 0h10m52 0h10m24 0h30m-5 0q-5 0-5-5v-20q0-5 5-5h19m24 0h19q5 0 5 5v20q0 5-5 5m-5 0h30m25 0h10m28 0h10m66 0h92q5 0 5-5m-576 30q0 5 5 5h5m53 0h10m25 0h10m66 0h10m25 0h10m110 0h10m28 0h10m42 0h152q5 0 5-5m-581-295q5 0 5 5v320q0 5 5 5h5m66 0h10m30 0h10m66 0h10m28 0h10m66 0h265q5 0 5-5v-320q0-5 5-5m5 0h5"/><rect class="l" x="25" y="5" width="25" height="25" rx="7"/><text class="j" x="35" y="22">!</text><a xlink:href="#boolean"><rect class="r" x="60" y="5" width="66" height="25"/><text class="j" x="70" y="22">boolean</text></a><rect class="l" x="136" y="5" width="28" height="25" rx="7"/><text class="j" x="146" y="22">»</text><a xlink:href="#boolean"><rect class="r" x="174" y="5" width="66" height="25"/><text class="j" x="184" y="22">boolean</text></a><a xlink:href="#value"><rect class="r" x="25" y="35" width="52" height="25"/><text class="j" x="35" y="52">value</text></a><rect class="l" x="87" y="35" width="35" height="25" rx="7"/><text class="j" x="97" y="52">!=</text><a xlink:href="#value"><rect class="r" x="132" y="35" width="52" height="25"/><text class="j" x="142" y="52">value</text></a><rect class="l" x="194" y="35" width="28" height="25" rx="7"/><text class="j" x="204" y="52">»</text><a xlink:href="#boolean"><rect class="r" x="232" y="35" width="66" height="25"/><text class="j" x="242" y="52">boolean</text></a><a xlink:href="#boolean"><rect class="r" x="25" y="65" width="66" height="25"/><text class="j" x="35" y="82">boolean</text></a><rect class="l" x="101" y="65" width="38" height="25" rx="7"/><text class="j" x="111" y="82">&amp;&amp;</text><a xlink:href="#boolean"><rect class="r" x="149" y="65" width="66" height="25"/><text class="j" x="159" y="82">boolean</text></a><rect class="l" x="225" y="65" width="28" height="25" rx="7"/><text class="j" x="235" y="82">»</text><a xlink:href="#boolean"><rect class="r" x="263" y="65" width="66" height="25"/><text class="j" x="273" y="82">boolean</text></a><a xlink:href="#value"><rect class="r" x="25" y="95" width="52" height="25"/><text class="j" x="35" y="112">value</text></a><rect class="l" x="87" y="95" width="40" height="25" rx="7"/><text class="j" x="97" y="112">==</text><a xlink:href="#value"><rect class="r" x="137" y="95" width="52" height="25"/><text class="j" x="147" y="112">value</text></a><rect class="l" x="199" y="95" width="28" height="25" rx="7"/><text class="j" x="209" y="112">»</text><a xlink:href="#boolean"><rect class="r" x="237" y="95" width="66" height="25"/><text class="j" x="247" y="112">boolean</text></a><a xlink:href="#boolean"><rect class="r" x="25" y="125" width="66" height="25"/><text class="j" x="35" y="142">boolean</text></a><rect class="l" x="101" y="125" width="40" height="25" rx="7"/><text class="j" x="111" y="142">=&gt;</text><a xlink:href="#boolean"><rect class="r" x="151" y="125" width="66" height="25"/><text class="j" x="161" y="142">boolean</text></a><rect class="l" x="227" y="125" width="28" height="25" rx="7"/><text class="j" x="237" y="142">»</text><a xlink:href="#boolean"><rect class="r" x="265" y="125" width="66" height="25"/><text class="j" x="275" y="142">boolean</text></a><rect class="l" x="25" y="185" width="66" height="25" rx="7"/><text class="j" x="35" y="202">equalTo</text><rect class="l" x="101" y="185" width="25" height="25" rx="7"/><text class="j" x="111" y="202">(</text><a xlink:href="#value"><rect class="r" x="136" y="185" width="52" height="25"/><text class="j" x="146" y="202">value</text></a><rect class="l" x="198" y="185" width="24" height="25" rx="7"/><text class="j" x="208" y="202">,</text><rect class="l" x="266" y="155" width="24" height="25" rx="7"/><text class="j" x="276" y="172">,</text><a xlink:href="#value"><rect class="r" x="252" y="185" width="52" height="25"/><text class="j" x="262" y="202">value</text></a><rect class="l" x="334" y="185" width="25" height="25" rx="7"/><text class="j" x="344" y="202">)</text><rect class="l" x="369" y="185" width="28" height="25" rx="7"/><text class="j" x="379" y="202">»</text><a xlink:href="#boolean"><rect class="r" x="407" y="185" width="66" height="25"/><text class="j" x="417" y="202">boolean</text></a><rect class="l" x="25" y="215" width="27" height="25" rx="7"/><text class="j" x="35" y="232">if</text><rect class="l" x="62" y="215" width="25" height="25" rx="7"/><text class="j" x="72" y="232">(</text><a xlink:href="#boolean"><rect class="r" x="97" y="215" width="66" height="25"/><text class="j" x="107" y="232">boolean</text></a><rect class="l" x="173" y="215" width="25" height="25" rx="7"/><text class="j" x="183" y="232">)</text><a xlink:href="#any-expression"><rect class="r" x="208" y="215" width="110" height="25"/><text class="j" x="218" y="232">any-expression</text></a><rect class="l" x="328" y="215" width="43" height="25" rx="7"/><text class="j" x="338" y="232">else</text><a xlink:href="#any-expression"><rect class="r" x="381" y="215" width="110" height="25"/><text class="j" x="391" y="232">any-expression</text></a><rect class="l" x="501" y="215" width="28" height="25" rx="7"/><text class="j" x="511" y="232">»</text><a xlink:href="#any"><rect class="r" x="539" y="215" width="42" height="25"/><text class="j" x="549" y="232">any</text></a><rect class="l" x="25" y="275" width="87" height="25" rx="7"/><text class="j" x="35" y="292">notEqualTo</text><rect class="l" x="122" y="275" width="25" height="25" rx="7"/><text class="j" x="132" y="292">(</text><a xlink:href="#value"><rect class="r" x="157" y="275" width="52" height="25"/><text class="j" x="167" y="292">value</text></a><rect class="l" x="219" y="275" width="24" height="25" rx="7"/><text class="j" x="229" y="292">,</text><rect class="l" x="287" y="245" width="24" height="25" rx="7"/><text class="j" x="297" y="262">,</text><a xlink:href="#value"><rect class="r" x="273" y="275" width="52" height="25"/><text class="j" x="283" y="292">value</text></a><rect class="l" x="355" y="275" width="25" height="25" rx="7"/><text class="j" x="365" y="292">)</text><rect class="l" x="390" y="275" width="28" height="25" rx="7"/><text class="j" x="400" y="292">»</text><a xlink:href="#boolean"><rect class="r" x="428" y="275" width="66" height="25"/><text class="j" x="438" y="292">boolean</text></a><rect class="l" x="25" y="305" width="53" height="25" rx="7"/><text class="j" x="35" y="322">when</text><rect class="l" x="88" y="305" width="25" height="25" rx="7"/><text class="j" x="98" y="322">(</text><a xlink:href="#boolean"><rect class="r" x="123" y="305" width="66" height="25"/><text class="j" x="133" y="322">boolean</text></a><rect class="l" x="199" y="305" width="25" height="25" rx="7"/><text class="j" x="209" y="322">)</text><a xlink:href="#any-expression"><rect class="r" x="234" y="305" width="110" height="25"/><text class="j" x="244" y="322">any-expression</text></a><rect class="l" x="354" y="305" width="28" height="25" rx="7"/><text class="j" x="364" y="322">»</text><a xlink:href="#any"><rect class="r" x="392" y="305" width="42" height="25"/><text class="j" x="402" y="322">any</text></a><a xlink:href="#boolean"><rect class="r" x="25" y="335" width="66" height="25"/><text class="j" x="35" y="352">boolean</text></a><rect class="l" x="101" y="335" width="30" height="25" rx="7"/><text class="j" x="111" y="352">||</text><a xlink:href="#boolean"><rect class="r" x="141" y="335" width="66" height="25"/><text class="j" x="151" y="352">boolean</text></a><rect class="l" x="217" y="335" width="28" height="25" rx="7"/><text class="j" x="227" y="352">»</text><a xlink:href="#boolean"><rect class="r" x="255" y="335" width="66" height="25"/><text class="j" x="265" y="352">boolean</text></a></svg>