<!--
RULE = ( ( ( '!' boolean '»' boolean ) )  |
 ( ( value '!=' value '»' boolean ) )  |
 ( ( boolean '&&' boolean '»' boolean ) )  |
 ( ( ((integer '<'  integer) | (fixed-decimal '<' fixed-decimal)) '»' boolean ) )  |
 ( ( ((integer '<=' integer) | (fixed-decimal '<=' fixed-decimal)) '»' boolean ) )  |
 ( ( value '==' value '»' boolean ) )  |
 ( ( boolean '=>' boolean '»' boolean ) )  |
 ( ( ((integer '>'  integer) | (fixed-decimal '>' fixed-decimal)) '»' boolean ) )  |
 ( ( ((integer '>='  integer) | (fixed-decimal '>=' fixed-decimal)) '»' boolean ) )  |
 ( ( 'any?' '(' symbol 'in' (set | vector) ')' boolean-expression '»' boolean ) )  |
 ( ( set '.' 'contains?' '(' value ')' '»' boolean ) )  |
 ( ( 'equalTo' '(' value ',' value {',' value} ')' '»' boolean ) )  |
 ( ( 'every?' '(' symbol 'in' (set | vector) ')' boolean-expression '»' boolean ) )  |
 ( ( 'notEqualTo' '(' value ',' value {',' value} ')' '»' boolean ) )  |
 ( ( instance '.' 'refinesTo?' '(' symbol:spec-id ')' '»' boolean ) )  |
 ( ( set '.' 'subset?' '(' set ')' '»' boolean ) )  |
 ( ( 'valid?' instance-expression '»' boolean ) )  |
 ( ( boolean '||' boolean '»' boolean ) ) );
-->
<svg version="1.1" xmlns:xlink="http://www.w3.org/1999/xlink" xmlns="http://www.w3.org/2000/svg" width="680" height="785" viewbox="0 0 680 785"><defs><style type="text/css">.c{fill: none; stroke: #888888; stroke-width: 2px;}.j{fill:#000000;font-family:Verdana,Sans-serif;font-size:12px;}.l{fill:#90d9ff;stroke:#222222;}.r{fill:#d3f0ff;stroke:#222222;}</style></defs><path class="c" d="M0 18h25m25 0h10m71 0h10m28 0h10m71 0h425m-660 25q0 5 5 5h5m54 0h10m34 0h10m54 0h10m28 0h10m71 0h354q5 0 5-5m-650 30q0 5 5 5h5m71 0h10m38 0h10m71 0h10m28 0h10m71 0h316q5 0 5-5m-650 30q0 5 5 5h25m65 0h10m29 0h10m65 0h94m-288 0q5 0 5 5v20q0 5 5 5h5m102 0h10m29 0h10m102 0h5q5 0 5-5v-20q0-5 5-5m5 0h10m28 0h10m71 0h223q5 0 5-5m-650 60q0 5 5 5h25m65 0h10m38 0h10m65 0h94m-297 0q5 0 5 5v20q0 5 5 5h5m102 0h10m38 0h10m102 0h5q5 0 5-5v-20q0-5 5-5m5 0h10m28 0h10m71 0h214q5 0 5-5m-650 60q0 5 5 5h5m54 0h10m38 0h10m54 0h10m28 0h10m71 0h350q5 0 5-5m-650 30q0 5 5 5h5m71 0h10m38 0h10m71 0h10m28 0h10m71 0h316q5 0 5-5m-650 30q0 5 5 5h25m65 0h10m29 0h10m65 0h94m-288 0q5 0 5 5v20q0 5 5 5h5m102 0h10m29 0h10m102 0h5q5 0 5-5v-20q0-5 5-5m5 0h10m28 0h10m71 0h223q5 0 5-5m-650 60q0 5 5 5h25m65 0h10m38 0h10m65 0h94m-297 0q5 0 5 5v20q0 5 5 5h5m102 0h10m38 0h10m102 0h5q5 0 5-5v-20q0-5 5-5m5 0h10m28 0h10m71 0h214q5 0 5-5m-650 60q0 5 5 5h5m50 0h10m25 0h10m64 0h10m31 0h30m40 0h39m-94 0q5 0 5 5v20q0 5 5 5h5m59 0h5q5 0 5-5v-20q0-5 5-5m5 0h10m25 0h10m145 0h10m28 0h10m71 0h17q5 0 5-5m-650 60q0 5 5 5h5m40 0h10m24 0h10m80 0h10m25 0h10m54 0h10m25 0h10m28 0h10m71 0h218q5 0 5-5m-650 60q0 5 5 5h5m70 0h10m25 0h10m54 0h10m24 0h30m-5 0q-5 0-5-5v-20q0-5 5-5h20m24 0h20q5 0 5 5v20q0 5-5 5m-5 0h30m25 0h10m28 0h10m71 0h174q5 0 5-5m-650 30q0 5 5 5h5m62 0h10m25 0h10m64 0h10m31 0h30m40 0h39m-94 0q5 0 5 5v20q0 5 5 5h5m59 0h5q5 0 5-5v-20q0-5 5-5m5 0h10m25 0h10m145 0h10m28 0h10m71 0h5q5 0 5-5m-650 90q0 5 5 5h5m91 0h10m25 0h10m54 0h10m24 0h30m-5 0q-5 0-5-5v-20q0-5 5-5h20m24 0h20q5 0 5 5v20q0 5-5 5m-5 0h30m25 0h10m28 0h10m71 0h153q5 0 5-5m-650 30q0 5 5 5h5m73 0h10m24 0h10m85 0h10m25 0h10m114 0h10m25 0h10m28 0h10m71 0h120q5 0 5-5m-650 30q0 5 5 5h5m40 0h10m24 0h10m70 0h10m25 0h10m40 0h10m25 0h10m28 0h10m71 0h242q5 0 5-5m-650 30q0 5 5 5h5m56 0h10m147 0h10m28 0h10m71 0h303q5 0 5-5m-655-715q5 0 5 5v740q0 5 5 5h5m71 0h10m30 0h10m71 0h10m28 0h10m71 0h324q5 0 5-5v-740q0-5 5-5m5 0h5"/><rect class="l" x="25" y="5" width="25" height="25" rx="7"/><text class="j" x="35" y="22">!</text><a xlink:href="#boolean"><rect class="r" x="60" y="5" width="71" height="25"/><text class="j" x="70" y="22">boolean</text></a><rect class="l" x="141" y="5" width="28" height="25" rx="7"/><text class="j" x="151" y="22">»</text><a xlink:href="#boolean"><rect class="r" x="179" y="5" width="71" height="25"/><text class="j" x="189" y="22">boolean</text></a><a xlink:href="#value"><rect class="r" x="25" y="35" width="54" height="25"/><text class="j" x="35" y="52">value</text></a><rect class="l" x="89" y="35" width="34" height="25" rx="7"/><text class="j" x="99" y="52">!=</text><a xlink:href="#value"><rect class="r" x="133" y="35" width="54" height="25"/><text class="j" x="143" y="52">value</text></a><rect class="l" x="197" y="35" width="28" height="25" rx="7"/><text class="j" x="207" y="52">»</text><a xlink:href="#boolean"><rect class="r" x="235" y="35" width="71" height="25"/><text class="j" x="245" y="52">boolean</text></a><a xlink:href="#boolean"><rect class="r" x="25" y="65" width="71" height="25"/><text class="j" x="35" y="82">boolean</text></a><rect class="l" x="106" y="65" width="38" height="25" rx="7"/><text class="j" x="116" y="82">&amp;&amp;</text><a xlink:href="#boolean"><rect class="r" x="154" y="65" width="71" height="25"/><text class="j" x="164" y="82">boolean</text></a><rect class="l" x="235" y="65" width="28" height="25" rx="7"/><text class="j" x="245" y="82">»</text><a xlink:href="#boolean"><rect class="r" x="273" y="65" width="71" height="25"/><text class="j" x="283" y="82">boolean</text></a><a xlink:href="#integer"><rect class="r" x="45" y="95" width="65" height="25"/><text class="j" x="55" y="112">integer</text></a><rect class="l" x="120" y="95" width="29" height="25" rx="7"/><text class="j" x="130" y="112">&lt;</text><a xlink:href="#integer"><rect class="r" x="159" y="95" width="65" height="25"/><text class="j" x="169" y="112">integer</text></a><a xlink:href="#fixed-decimal"><rect class="r" x="45" y="125" width="102" height="25"/><text class="j" x="55" y="142">fixed-decimal</text></a><rect class="l" x="157" y="125" width="29" height="25" rx="7"/><text class="j" x="167" y="142">&lt;</text><a xlink:href="#fixed-decimal"><rect class="r" x="196" y="125" width="102" height="25"/><text class="j" x="206" y="142">fixed-decimal</text></a><rect class="l" x="328" y="95" width="28" height="25" rx="7"/><text class="j" x="338" y="112">»</text><a xlink:href="#boolean"><rect class="r" x="366" y="95" width="71" height="25"/><text class="j" x="376" y="112">boolean</text></a><a xlink:href="#integer"><rect class="r" x="45" y="155" width="65" height="25"/><text class="j" x="55" y="172">integer</text></a><rect class="l" x="120" y="155" width="38" height="25" rx="7"/><text class="j" x="130" y="172">&lt;=</text><a xlink:href="#integer"><rect class="r" x="168" y="155" width="65" height="25"/><text class="j" x="178" y="172">integer</text></a><a xlink:href="#fixed-decimal"><rect class="r" x="45" y="185" width="102" height="25"/><text class="j" x="55" y="202">fixed-decimal</text></a><rect class="l" x="157" y="185" width="38" height="25" rx="7"/><text class="j" x="167" y="202">&lt;=</text><a xlink:href="#fixed-decimal"><rect class="r" x="205" y="185" width="102" height="25"/><text class="j" x="215" y="202">fixed-decimal</text></a><rect class="l" x="337" y="155" width="28" height="25" rx="7"/><text class="j" x="347" y="172">»</text><a xlink:href="#boolean"><rect class="r" x="375" y="155" width="71" height="25"/><text class="j" x="385" y="172">boolean</text></a><a xlink:href="#value"><rect class="r" x="25" y="215" width="54" height="25"/><text class="j" x="35" y="232">value</text></a><rect class="l" x="89" y="215" width="38" height="25" rx="7"/><text class="j" x="99" y="232">==</text><a xlink:href="#value"><rect class="r" x="137" y="215" width="54" height="25"/><text class="j" x="147" y="232">value</text></a><rect class="l" x="201" y="215" width="28" height="25" rx="7"/><text class="j" x="211" y="232">»</text><a xlink:href="#boolean"><rect class="r" x="239" y="215" width="71" height="25"/><text class="j" x="249" y="232">boolean</text></a><a xlink:href="#boolean"><rect class="r" x="25" y="245" width="71" height="25"/><text class="j" x="35" y="262">boolean</text></a><rect class="l" x="106" y="245" width="38" height="25" rx="7"/><text class="j" x="116" y="262">=&gt;</text><a xlink:href="#boolean"><rect class="r" x="154" y="245" width="71" height="25"/><text class="j" x="164" y="262">boolean</text></a><rect class="l" x="235" y="245" width="28" height="25" rx="7"/><text class="j" x="245" y="262">»</text><a xlink:href="#boolean"><rect class="r" x="273" y="245" width="71" height="25"/><text class="j" x="283" y="262">boolean</text></a><a xlink:href="#integer"><rect class="r" x="45" y="275" width="65" height="25"/><text class="j" x="55" y="292">integer</text></a><rect class="l" x="120" y="275" width="29" height="25" rx="7"/><text class="j" x="130" y="292">&gt;</text><a xlink:href="#integer"><rect class="r" x="159" y="275" width="65" height="25"/><text class="j" x="169" y="292">integer</text></a><a xlink:href="#fixed-decimal"><rect class="r" x="45" y="305" width="102" height="25"/><text class="j" x="55" y="322">fixed-decimal</text></a><rect class="l" x="157" y="305" width="29" height="25" rx="7"/><text class="j" x="167" y="322">&gt;</text><a xlink:href="#fixed-decimal"><rect class="r" x="196" y="305" width="102" height="25"/><text class="j" x="206" y="322">fixed-decimal</text></a><rect class="l" x="328" y="275" width="28" height="25" rx="7"/><text class="j" x="338" y="292">»</text><a xlink:href="#boolean"><rect class="r" x="366" y="275" width="71" height="25"/><text class="j" x="376" y="292">boolean</text></a><a xlink:href="#integer"><rect class="r" x="45" y="335" width="65" height="25"/><text class="j" x="55" y="352">integer</text></a><rect class="l" x="120" y="335" width="38" height="25" rx="7"/><text class="j" x="130" y="352">&gt;=</text><a xlink:href="#integer"><rect class="r" x="168" y="335" width="65" height="25"/><text class="j" x="178" y="352">integer</text></a><a xlink:href="#fixed-decimal"><rect class="r" x="45" y="365" width="102" height="25"/><text class="j" x="55" y="382">fixed-decimal</text></a><rect class="l" x="157" y="365" width="38" height="25" rx="7"/><text class="j" x="167" y="382">&gt;=</text><a xlink:href="#fixed-decimal"><rect class="r" x="205" y="365" width="102" height="25"/><text class="j" x="215" y="382">fixed-decimal</text></a><rect class="l" x="337" y="335" width="28" height="25" rx="7"/><text class="j" x="347" y="352">»</text><a xlink:href="#boolean"><rect class="r" x="375" y="335" width="71" height="25"/><text class="j" x="385" y="352">boolean</text></a><rect class="l" x="25" y="395" width="50" height="25" rx="7"/><text class="j" x="35" y="412">any?</text><rect class="l" x="85" y="395" width="25" height="25" rx="7"/><text class="j" x="95" y="412">(</text><a xlink:href="#symbol"><rect class="r" x="120" y="395" width="64" height="25"/><text class="j" x="130" y="412">symbol</text></a><rect class="l" x="194" y="395" width="31" height="25" rx="7"/><text class="j" x="204" y="412">in</text><a xlink:href="#set"><rect class="r" x="255" y="395" width="40" height="25"/><text class="j" x="265" y="412">set</text></a><a xlink:href="#vector"><rect class="r" x="255" y="425" width="59" height="25"/><text class="j" x="265" y="442">vector</text></a><rect class="l" x="344" y="395" width="25" height="25" rx="7"/><text class="j" x="354" y="412">)</text><a xlink:href="#boolean-expression"><rect class="r" x="379" y="395" width="145" height="25"/><text class="j" x="389" y="412">boolean-expression</text></a><rect class="l" x="534" y="395" width="28" height="25" rx="7"/><text class="j" x="544" y="412">»</text><a xlink:href="#boolean"><rect class="r" x="572" y="395" width="71" height="25"/><text class="j" x="582" y="412">boolean</text></a><a xlink:href="#set"><rect class="r" x="25" y="455" width="40" height="25"/><text class="j" x="35" y="472">set</text></a><rect class="l" x="75" y="455" width="24" height="25" rx="7"/><text class="j" x="85" y="472">.</text><rect class="l" x="109" y="455" width="80" height="25" rx="7"/><text class="j" x="119" y="472">contains?</text><rect class="l" x="199" y="455" width="25" height="25" rx="7"/><text class="j" x="209" y="472">(</text><a xlink:href="#value"><rect class="r" x="234" y="455" width="54" height="25"/><text class="j" x="244" y="472">value</text></a><rect class="l" x="298" y="455" width="25" height="25" rx="7"/><text class="j" x="308" y="472">)</text><rect class="l" x="333" y="455" width="28" height="25" rx="7"/><text class="j" x="343" y="472">»</text><a xlink:href="#boolean"><rect class="r" x="371" y="455" width="71" height="25"/><text class="j" x="381" y="472">boolean</text></a><rect class="l" x="25" y="515" width="70" height="25" rx="7"/><text class="j" x="35" y="532">equalTo</text><rect class="l" x="105" y="515" width="25" height="25" rx="7"/><text class="j" x="115" y="532">(</text><a xlink:href="#value"><rect class="r" x="140" y="515" width="54" height="25"/><text class="j" x="150" y="532">value</text></a><rect class="l" x="204" y="515" width="24" height="25" rx="7"/><text class="j" x="214" y="532">,</text><rect class="l" x="273" y="485" width="24" height="25" rx="7"/><text class="j" x="283" y="502">,</text><a xlink:href="#value"><rect class="r" x="258" y="515" width="54" height="25"/><text class="j" x="268" y="532">value</text></a><rect class="l" x="342" y="515" width="25" height="25" rx="7"/><text class="j" x="352" y="532">)</text><rect class="l" x="377" y="515" width="28" height="25" rx="7"/><text class="j" x="387" y="532">»</text><a xlink:href="#boolean"><rect class="r" x="415" y="515" width="71" height="25"/><text class="j" x="425" y="532">boolean</text></a><rect class="l" x="25" y="545" width="62" height="25" rx="7"/><text class="j" x="35" y="562">every?</text><rect class="l" x="97" y="545" width="25" height="25" rx="7"/><text class="j" x="107" y="562">(</text><a xlink:href="#symbol"><rect class="r" x="132" y="545" width="64" height="25"/><text class="j" x="142" y="562">symbol</text></a><rect class="l" x="206" y="545" width="31" height="25" rx="7"/><text class="j" x="216" y="562">in</text><a xlink:href="#set"><rect class="r" x="267" y="545" width="40" height="25"/><text class="j" x="277" y="562">set</text></a><a xlink:href="#vector"><rect class="r" x="267" y="575" width="59" height="25"/><text class="j" x="277" y="592">vector</text></a><rect class="l" x="356" y="545" width="25" height="25" rx="7"/><text class="j" x="366" y="562">)</text><a xlink:href="#boolean-expression"><rect class="r" x="391" y="545" width="145" height="25"/><text class="j" x="401" y="562">boolean-expression</text></a><rect class="l" x="546" y="545" width="28" height="25" rx="7"/><text class="j" x="556" y="562">»</text><a xlink:href="#boolean"><rect class="r" x="584" y="545" width="71" height="25"/><text class="j" x="594" y="562">boolean</text></a><rect class="l" x="25" y="635" width="91" height="25" rx="7"/><text class="j" x="35" y="652">notEqualTo</text><rect class="l" x="126" y="635" width="25" height="25" rx="7"/><text class="j" x="136" y="652">(</text><a xlink:href="#value"><rect class="r" x="161" y="635" width="54" height="25"/><text class="j" x="171" y="652">value</text></a><rect class="l" x="225" y="635" width="24" height="25" rx="7"/><text class="j" x="235" y="652">,</text><rect class="l" x="294" y="605" width="24" height="25" rx="7"/><text class="j" x="304" y="622">,</text><a xlink:href="#value"><rect class="r" x="279" y="635" width="54" height="25"/><text class="j" x="289" y="652">value</text></a><rect class="l" x="363" y="635" width="25" height="25" rx="7"/><text class="j" x="373" y="652">)</text><rect class="l" x="398" y="635" width="28" height="25" rx="7"/><text class="j" x="408" y="652">»</text><a xlink:href="#boolean"><rect class="r" x="436" y="635" width="71" height="25"/><text class="j" x="446" y="652">boolean</text></a><a xlink:href="#instance"><rect class="r" x="25" y="665" width="73" height="25"/><text class="j" x="35" y="682">instance</text></a><rect class="l" x="108" y="665" width="24" height="25" rx="7"/><text class="j" x="118" y="682">.</text><rect class="l" x="142" y="665" width="85" height="25" rx="7"/><text class="j" x="152" y="682">refinesTo?</text><rect class="l" x="237" y="665" width="25" height="25" rx="7"/><text class="j" x="247" y="682">(</text><a xlink:href="#symbol:spec-id"><rect class="r" x="272" y="665" width="114" height="25"/><text class="j" x="282" y="682">symbol:spec-id</text></a><rect class="l" x="396" y="665" width="25" height="25" rx="7"/><text class="j" x="406" y="682">)</text><rect class="l" x="431" y="665" width="28" height="25" rx="7"/><text class="j" x="441" y="682">»</text><a xlink:href="#boolean"><rect class="r" x="469" y="665" width="71" height="25"/><text class="j" x="479" y="682">boolean</text></a><a xlink:href="#set"><rect class="r" x="25" y="695" width="40" height="25"/><text class="j" x="35" y="712">set</text></a><rect class="l" x="75" y="695" width="24" height="25" rx="7"/><text class="j" x="85" y="712">.</text><rect class="l" x="109" y="695" width="70" height="25" rx="7"/><text class="j" x="119" y="712">subset?</text><rect class="l" x="189" y="695" width="25" height="25" rx="7"/><text class="j" x="199" y="712">(</text><a xlink:href="#set"><rect class="r" x="224" y="695" width="40" height="25"/><text class="j" x="234" y="712">set</text></a><rect class="l" x="274" y="695" width="25" height="25" rx="7"/><text class="j" x="284" y="712">)</text><rect class="l" x="309" y="695" width="28" height="25" rx="7"/><text class="j" x="319" y="712">»</text><a xlink:href="#boolean"><rect class="r" x="347" y="695" width="71" height="25"/><text class="j" x="357" y="712">boolean</text></a><rect class="l" x="25" y="725" width="56" height="25" rx="7"/><text class="j" x="35" y="742">valid?</text><a xlink:href="#instance-expression"><rect class="r" x="91" y="725" width="147" height="25"/><text class="j" x="101" y="742">instance-expression</text></a><rect class="l" x="248" y="725" width="28" height="25" rx="7"/><text class="j" x="258" y="742">»</text><a xlink:href="#boolean"><rect class="r" x="286" y="725" width="71" height="25"/><text class="j" x="296" y="742">boolean</text></a><a xlink:href="#boolean"><rect class="r" x="25" y="755" width="71" height="25"/><text class="j" x="35" y="772">boolean</text></a><rect class="l" x="106" y="755" width="30" height="25" rx="7"/><text class="j" x="116" y="772">||</text><a xlink:href="#boolean"><rect class="r" x="146" y="755" width="71" height="25"/><text class="j" x="156" y="772">boolean</text></a><rect class="l" x="227" y="755" width="28" height="25" rx="7"/><text class="j" x="237" y="772">»</text><a xlink:href="#boolean"><rect class="r" x="265" y="755" width="71" height="25"/><text class="j" x="275" y="772">boolean</text></a></svg>