<svg version="1.1" xmlns:xlink="http://www.w3.org/1999/xlink" xmlns="http://www.w3.org/2000/svg" width="687" height="725" viewbox="0 0 687 725"><defs><style type="text/css">.c{fill: none; stroke: #888888; stroke-width: 2px;}.j{fill:#000000;font-family:Verdana,Sans-serif;font-size:12px;}.l{fill:#90d9ff;stroke:#222222;}.r{fill:#d3f0ff;stroke:#222222;}</style></defs><path class="c" d="M0 18h25m25 0h10m30 0h30m62 0h10m62 0h92m-241 0q5 0 5 5v20q0 5 5 5h5m98 0h10m98 0h5q5 0 5-5v-20q0-5 5-5m5 0h10m25 0h10m28 0h10m66 0h187m-667 55q0 5 5 5h5m25 0h10m40 0h30m62 0h10m62 0h92m-241 0q5 0 5 5v20q0 5 5 5h5m98 0h10m98 0h5q5 0 5-5v-20q0-5 5-5m5 0h10m25 0h10m28 0h10m66 0h162q5 0 5-5m-657 75q0 5 5 5h5m25 0h10m30 0h10m52 0h30m-5 0q-5 0-5-5v-17q0-5 5-5h62q5 0 5 5v17q0 5-5 5m-5 0h30m25 0h10m28 0h10m66 0h264q5 0 5-5m-657 30q0 5 5 5h5m25 0h10m40 0h10m66 0h10m66 0h10m25 0h10m28 0h10m66 0h266q5 0 5-5m-657 30q0 5 5 5h5m25 0h10m30 0h30m62 0h10m62 0h92m-241 0q5 0 5 5v20q0 5 5 5h5m98 0h10m98 0h5q5 0 5-5v-20q0-5 5-5m5 0h10m25 0h10m28 0h10m66 0h172q5 0 5-5m-657 60q0 5 5 5h5m25 0h10m40 0h30m62 0h10m62 0h92m-241 0q5 0 5 5v20q0 5 5 5h5m98 0h10m98 0h5q5 0 5-5v-20q0-5 5-5m5 0h10m25 0h10m28 0h10m66 0h162q5 0 5-5m-657 75q0 5 5 5h5m25 0h10m42 0h10m66 0h30m-5 0q-5 0-5-5v-17q0-5 5-5h76q5 0 5 5v17q0 5-5 5m-5 0h30m25 0h10m28 0h10m66 0h224q5 0 5-5m-657 30q0 5 5 5h5m25 0h10m49 0h10m25 0h10m62 0h30m38 0h39m-92 0q5 0 5 5v20q0 5 5 5h5m57 0h5q5 0 5-5v-20q0-5 5-5m5 0h10m25 0h10m134 0h10m25 0h10m28 0h10m66 0h16q5 0 5-5m-657 60q0 5 5 5h5m25 0h10m77 0h10m38 0h10m52 0h10m25 0h10m28 0h10m66 0h271q5 0 5-5m-657 30q0 5 5 5h5m25 0h10m60 0h10m25 0h10m62 0h30m38 0h39m-92 0q5 0 5 5v20q0 5 5 5h5m57 0h5q5 0 5-5v-20q0-5 5-5m5 0h10m25 0h10m134 0h10m25 0h10m28 0h10m66 0h5q5 0 5-5m-657 60q0 5 5 5h5m25 0h10m40 0h10m66 0h10m25 0h10m28 0h10m66 0h342q5 0 5-5m-657 45q0 5 5 5h5m25 0h10m50 0h10m52 0h30m-5 0q-5 0-5-5v-17q0-5 5-5h62q5 0 5 5v17q0 5-5 5m-5 0h30m25 0h10m28 0h10m66 0h244q5 0 5-5m-657 45q0 5 5 5h5m25 0h10m32 0h10m66 0h30m-5 0q-5 0-5-5v-17q0-5 5-5h76q5 0 5 5v17q0 5-5 5m-5 0h30m25 0h10m28 0h10m66 0h234q5 0 5-5m-657 30q0 5 5 5h5m25 0h10m84 0h10m70 0h10m116 0h10m25 0h10m28 0h10m66 0h168q5 0 5-5m-657 30q0 5 5 5h5m25 0h10m66 0h10m38 0h10m38 0h10m25 0h10m28 0h10m66 0h296q5 0 5-5m-662-655q5 0 5 5v680q0 5 5 5h5m25 0h10m54 0h10m138 0h10m25 0h10m28 0h10m66 0h256q5 0 5-5v-680q0-5 5-5m5 0h5"/><rect class="l" x="25" y="5" width="25" height="25" rx="7"/><text class="j" x="35" y="22">(</text><rect class="l" x="60" y="5" width="30" height="25" rx="7"/><text class="j" x="70" y="22">&lt;</text><a xlink:href="#integer"><rect class="r" x="120" y="5" width="62" height="25"/><text class="j" x="130" y="22">integer</text></a><a xlink:href="#integer"><rect class="r" x="192" y="5" width="62" height="25"/><text class="j" x="202" y="22">integer</text></a><a xlink:href="#fixed-decimal"><rect class="r" x="120" y="35" width="98" height="25"/><text class="j" x="130" y="52">fixed-decimal</text></a><a xlink:href="#fixed-decimal"><rect class="r" x="228" y="35" width="98" height="25"/><text class="j" x="238" y="52">fixed-decimal</text></a><rect class="l" x="356" y="5" width="25" height="25" rx="7"/><text class="j" x="366" y="22">)</text><rect class="l" x="391" y="5" width="28" height="25" rx="7"/><text class="j" x="401" y="22">»</text><a xlink:href="#boolean"><rect class="r" x="429" y="5" width="66" height="25"/><text class="j" x="439" y="22">boolean</text></a><rect class="l" x="25" y="65" width="25" height="25" rx="7"/><text class="j" x="35" y="82">(</text><rect class="l" x="60" y="65" width="40" height="25" rx="7"/><text class="j" x="70" y="82">&lt;=</text><a xlink:href="#integer"><rect class="r" x="130" y="65" width="62" height="25"/><text class="j" x="140" y="82">integer</text></a><a xlink:href="#integer"><rect class="r" x="202" y="65" width="62" height="25"/><text class="j" x="212" y="82">integer</text></a><a xlink:href="#fixed-decimal"><rect class="r" x="130" y="95" width="98" height="25"/><text class="j" x="140" y="112">fixed-decimal</text></a><a xlink:href="#fixed-decimal"><rect class="r" x="238" y="95" width="98" height="25"/><text class="j" x="248" y="112">fixed-decimal</text></a><rect class="l" x="366" y="65" width="25" height="25" rx="7"/><text class="j" x="376" y="82">)</text><rect class="l" x="401" y="65" width="28" height="25" rx="7"/><text class="j" x="411" y="82">»</text><a xlink:href="#boolean"><rect class="r" x="439" y="65" width="66" height="25"/><text class="j" x="449" y="82">boolean</text></a><rect class="l" x="25" y="140" width="25" height="25" rx="7"/><text class="j" x="35" y="157">(</text><rect class="l" x="60" y="140" width="30" height="25" rx="7"/><text class="j" x="70" y="157">=</text><a xlink:href="#value"><rect class="r" x="100" y="140" width="52" height="25"/><text class="j" x="110" y="157">value</text></a><a xlink:href="#value"><rect class="r" x="182" y="140" width="52" height="25"/><text class="j" x="192" y="157">value</text></a><rect class="l" x="264" y="140" width="25" height="25" rx="7"/><text class="j" x="274" y="157">)</text><rect class="l" x="299" y="140" width="28" height="25" rx="7"/><text class="j" x="309" y="157">»</text><a xlink:href="#boolean"><rect class="r" x="337" y="140" width="66" height="25"/><text class="j" x="347" y="157">boolean</text></a><rect class="l" x="25" y="170" width="25" height="25" rx="7"/><text class="j" x="35" y="187">(</text><rect class="l" x="60" y="170" width="40" height="25" rx="7"/><text class="j" x="70" y="187">=&gt;</text><a xlink:href="#boolean"><rect class="r" x="110" y="170" width="66" height="25"/><text class="j" x="120" y="187">boolean</text></a><a xlink:href="#boolean"><rect class="r" x="186" y="170" width="66" height="25"/><text class="j" x="196" y="187">boolean</text></a><rect class="l" x="262" y="170" width="25" height="25" rx="7"/><text class="j" x="272" y="187">)</text><rect class="l" x="297" y="170" width="28" height="25" rx="7"/><text class="j" x="307" y="187">»</text><a xlink:href="#boolean"><rect class="r" x="335" y="170" width="66" height="25"/><text class="j" x="345" y="187">boolean</text></a><rect class="l" x="25" y="200" width="25" height="25" rx="7"/><text class="j" x="35" y="217">(</text><rect class="l" x="60" y="200" width="30" height="25" rx="7"/><text class="j" x="70" y="217">&gt;</text><a xlink:href="#integer"><rect class="r" x="120" y="200" width="62" height="25"/><text class="j" x="130" y="217">integer</text></a><a xlink:href="#integer"><rect class="r" x="192" y="200" width="62" height="25"/><text class="j" x="202" y="217">integer</text></a><a xlink:href="#fixed-decimal"><rect class="r" x="120" y="230" width="98" height="25"/><text class="j" x="130" y="247">fixed-decimal</text></a><a xlink:href="#fixed-decimal"><rect class="r" x="228" y="230" width="98" height="25"/><text class="j" x="238" y="247">fixed-decimal</text></a><rect class="l" x="356" y="200" width="25" height="25" rx="7"/><text class="j" x="366" y="217">)</text><rect class="l" x="391" y="200" width="28" height="25" rx="7"/><text class="j" x="401" y="217">»</text><a xlink:href="#boolean"><rect class="r" x="429" y="200" width="66" height="25"/><text class="j" x="439" y="217">boolean</text></a><rect class="l" x="25" y="260" width="25" height="25" rx="7"/><text class="j" x="35" y="277">(</text><rect class="l" x="60" y="260" width="40" height="25" rx="7"/><text class="j" x="70" y="277">&gt;=</text><a xlink:href="#integer"><rect class="r" x="130" y="260" width="62" height="25"/><text class="j" x="140" y="277">integer</text></a><a xlink:href="#integer"><rect class="r" x="202" y="260" width="62" height="25"/><text class="j" x="212" y="277">integer</text></a><a xlink:href="#fixed-decimal"><rect class="r" x="130" y="290" width="98" height="25"/><text class="j" x="140" y="307">fixed-decimal</text></a><a xlink:href="#fixed-decimal"><rect class="r" x="238" y="290" width="98" height="25"/><text class="j" x="248" y="307">fixed-decimal</text></a><rect class="l" x="366" y="260" width="25" height="25" rx="7"/><text class="j" x="376" y="277">)</text><rect class="l" x="401" y="260" width="28" height="25" rx="7"/><text class="j" x="411" y="277">»</text><a xlink:href="#boolean"><rect class="r" x="439" y="260" width="66" height="25"/><text class="j" x="449" y="277">boolean</text></a><rect class="l" x="25" y="335" width="25" height="25" rx="7"/><text class="j" x="35" y="352">(</text><rect class="l" x="60" y="335" width="42" height="25" rx="7"/><text class="j" x="70" y="352">and</text><a xlink:href="#boolean"><rect class="r" x="112" y="335" width="66" height="25"/><text class="j" x="122" y="352">boolean</text></a><a xlink:href="#boolean"><rect class="r" x="208" y="335" width="66" height="25"/><text class="j" x="218" y="352">boolean</text></a><rect class="l" x="304" y="335" width="25" height="25" rx="7"/><text class="j" x="314" y="352">)</text><rect class="l" x="339" y="335" width="28" height="25" rx="7"/><text class="j" x="349" y="352">»</text><a xlink:href="#boolean"><rect class="r" x="377" y="335" width="66" height="25"/><text class="j" x="387" y="352">boolean</text></a><rect class="l" x="25" y="365" width="25" height="25" rx="7"/><text class="j" x="35" y="382">(</text><rect class="l" x="60" y="365" width="49" height="25" rx="7"/><text class="j" x="70" y="382">any?</text><rect class="l" x="119" y="365" width="25" height="25" rx="7"/><text class="j" x="129" y="382">[</text><a xlink:href="#symbol"><rect class="r" x="154" y="365" width="62" height="25"/><text class="j" x="164" y="382">symbol</text></a><a xlink:href="#set"><rect class="r" x="246" y="365" width="38" height="25"/><text class="j" x="256" y="382">set</text></a><a xlink:href="#vector"><rect class="r" x="246" y="395" width="57" height="25"/><text class="j" x="256" y="412">vector</text></a><rect class="l" x="333" y="365" width="25" height="25" rx="7"/><text class="j" x="343" y="382">]</text><a xlink:href="#boolean-expression"><rect class="r" x="368" y="365" width="134" height="25"/><text class="j" x="378" y="382">boolean-expression</text></a><rect class="l" x="512" y="365" width="25" height="25" rx="7"/><text class="j" x="522" y="382">)</text><rect class="l" x="547" y="365" width="28" height="25" rx="7"/><text class="j" x="557" y="382">»</text><a xlink:href="#boolean"><rect class="r" x="585" y="365" width="66" height="25"/><text class="j" x="595" y="382">boolean</text></a><rect class="l" x="25" y="425" width="25" height="25" rx="7"/><text class="j" x="35" y="442">(</text><rect class="l" x="60" y="425" width="77" height="25" rx="7"/><text class="j" x="70" y="442">contains?</text><a xlink:href="#set"><rect class="r" x="147" y="425" width="38" height="25"/><text class="j" x="157" y="442">set</text></a><a xlink:href="#value"><rect class="r" x="195" y="425" width="52" height="25"/><text class="j" x="205" y="442">value</text></a><rect class="l" x="257" y="425" width="25" height="25" rx="7"/><text class="j" x="267" y="442">)</text><rect class="l" x="292" y="425" width="28" height="25" rx="7"/><text class="j" x="302" y="442">»</text><a xlink:href="#boolean"><rect class="r" x="330" y="425" width="66" height="25"/><text class="j" x="340" y="442">boolean</text></a><rect class="l" x="25" y="455" width="25" height="25" rx="7"/><text class="j" x="35" y="472">(</text><rect class="l" x="60" y="455" width="60" height="25" rx="7"/><text class="j" x="70" y="472">every?</text><rect class="l" x="130" y="455" width="25" height="25" rx="7"/><text class="j" x="140" y="472">[</text><a xlink:href="#symbol"><rect class="r" x="165" y="455" width="62" height="25"/><text class="j" x="175" y="472">symbol</text></a><a xlink:href="#set"><rect class="r" x="257" y="455" width="38" height="25"/><text class="j" x="267" y="472">set</text></a><a xlink:href="#vector"><rect class="r" x="257" y="485" width="57" height="25"/><text class="j" x="267" y="502">vector</text></a><rect class="l" x="344" y="455" width="25" height="25" rx="7"/><text class="j" x="354" y="472">]</text><a xlink:href="#boolean-expression"><rect class="r" x="379" y="455" width="134" height="25"/><text class="j" x="389" y="472">boolean-expression</text></a><rect class="l" x="523" y="455" width="25" height="25" rx="7"/><text class="j" x="533" y="472">)</text><rect class="l" x="558" y="455" width="28" height="25" rx="7"/><text class="j" x="568" y="472">»</text><a xlink:href="#boolean"><rect class="r" x="596" y="455" width="66" height="25"/><text class="j" x="606" y="472">boolean</text></a><rect class="l" x="25" y="515" width="25" height="25" rx="7"/><text class="j" x="35" y="532">(</text><rect class="l" x="60" y="515" width="40" height="25" rx="7"/><text class="j" x="70" y="532">not</text><a xlink:href="#boolean"><rect class="r" x="110" y="515" width="66" height="25"/><text class="j" x="120" y="532">boolean</text></a><rect class="l" x="186" y="515" width="25" height="25" rx="7"/><text class="j" x="196" y="532">)</text><rect class="l" x="221" y="515" width="28" height="25" rx="7"/><text class="j" x="231" y="532">»</text><a xlink:href="#boolean"><rect class="r" x="259" y="515" width="66" height="25"/><text class="j" x="269" y="532">boolean</text></a><rect class="l" x="25" y="560" width="25" height="25" rx="7"/><text class="j" x="35" y="577">(</text><rect class="l" x="60" y="560" width="50" height="25" rx="7"/><text class="j" x="70" y="577">not=</text><a xlink:href="#value"><rect class="r" x="120" y="560" width="52" height="25"/><text class="j" x="130" y="577">value</text></a><a xlink:href="#value"><rect class="r" x="202" y="560" width="52" height="25"/><text class="j" x="212" y="577">value</text></a><rect class="l" x="284" y="560" width="25" height="25" rx="7"/><text class="j" x="294" y="577">)</text><rect class="l" x="319" y="560" width="28" height="25" rx="7"/><text class="j" x="329" y="577">»</text><a xlink:href="#boolean"><rect class="r" x="357" y="560" width="66" height="25"/><text class="j" x="367" y="577">boolean</text></a><rect class="l" x="25" y="605" width="25" height="25" rx="7"/><text class="j" x="35" y="622">(</text><rect class="l" x="60" y="605" width="32" height="25" rx="7"/><text class="j" x="70" y="622">or</text><a xlink:href="#boolean"><rect class="r" x="102" y="605" width="66" height="25"/><text class="j" x="112" y="622">boolean</text></a><a xlink:href="#boolean"><rect class="r" x="198" y="605" width="66" height="25"/><text class="j" x="208" y="622">boolean</text></a><rect class="l" x="294" y="605" width="25" height="25" rx="7"/><text class="j" x="304" y="622">)</text><rect class="l" x="329" y="605" width="28" height="25" rx="7"/><text class="j" x="339" y="622">»</text><a xlink:href="#boolean"><rect class="r" x="367" y="605" width="66" height="25"/><text class="j" x="377" y="622">boolean</text></a><rect class="l" x="25" y="635" width="25" height="25" rx="7"/><text class="j" x="35" y="652">(</text><rect class="l" x="60" y="635" width="84" height="25" rx="7"/><text class="j" x="70" y="652">refines-to?</text><a xlink:href="#instance"><rect class="r" x="154" y="635" width="70" height="25"/><text class="j" x="164" y="652">instance</text></a><a xlink:href="#keyword:spec-id"><rect class="r" x="234" y="635" width="116" height="25"/><text class="j" x="244" y="652">keyword:spec-id</text></a><rect class="l" x="360" y="635" width="25" height="25" rx="7"/><text class="j" x="370" y="652">)</text><rect class="l" x="395" y="635" width="28" height="25" rx="7"/><text class="j" x="405" y="652">»</text><a xlink:href="#boolean"><rect class="r" x="433" y="635" width="66" height="25"/><text class="j" x="443" y="652">boolean</text></a><rect class="l" x="25" y="665" width="25" height="25" rx="7"/><text class="j" x="35" y="682">(</text><rect class="l" x="60" y="665" width="66" height="25" rx="7"/><text class="j" x="70" y="682">subset?</text><a xlink:href="#set"><rect class="r" x="136" y="665" width="38" height="25"/><text class="j" x="146" y="682">set</text></a><a xlink:href="#set"><rect class="r" x="184" y="665" width="38" height="25"/><text class="j" x="194" y="682">set</text></a><rect class="l" x="232" y="665" width="25" height="25" rx="7"/><text class="j" x="242" y="682">)</text><rect class="l" x="267" y="665" width="28" height="25" rx="7"/><text class="j" x="277" y="682">»</text><a xlink:href="#boolean"><rect class="r" x="305" y="665" width="66" height="25"/><text class="j" x="315" y="682">boolean</text></a><rect class="l" x="25" y="695" width="25" height="25" rx="7"/><text class="j" x="35" y="712">(</text><rect class="l" x="60" y="695" width="54" height="25" rx="7"/><text class="j" x="70" y="712">valid?</text><a xlink:href="#instance-expression"><rect class="r" x="124" y="695" width="138" height="25"/><text class="j" x="134" y="712">instance-expression</text></a><rect class="l" x="272" y="695" width="25" height="25" rx="7"/><text class="j" x="282" y="712">)</text><rect class="l" x="307" y="695" width="28" height="25" rx="7"/><text class="j" x="317" y="712">»</text><a xlink:href="#boolean"><rect class="r" x="345" y="695" width="66" height="25"/><text class="j" x="355" y="712">boolean</text></a></svg>