<svg version="1.1" xmlns:xlink="http://www.w3.org/1999/xlink" xmlns="http://www.w3.org/2000/svg" width="658" height="785" viewbox="0 0 658 785"><defs><style type="text/css">.c{fill: none; stroke: #888888; stroke-width: 2px;}.j{fill:#000000;font-family:Verdana,Sans-serif;font-size:12px;}.l{fill:#90d9ff;stroke:#222222;}.r{fill:#d3f0ff;stroke:#222222;}</style></defs><path class="c" d="M0 18h25m25 0h10m66 0h10m28 0h10m66 0h413m-638 25q0 5 5 5h5m52 0h10m35 0h10m52 0h10m28 0h10m66 0h340q5 0 5-5m-628 30q0 5 5 5h5m66 0h10m38 0h10m66 0h10m28 0h10m66 0h309q5 0 5-5m-628 30q0 5 5 5h25m62 0h10m30 0h10m62 0h92m-281 0q5 0 5 5v20q0 5 5 5h5m98 0h10m30 0h10m98 0h5q5 0 5-5v-20q0-5 5-5m5 0h10m28 0h10m66 0h213q5 0 5-5m-628 60q0 5 5 5h25m62 0h10m40 0h10m62 0h92m-291 0q5 0 5 5v20q0 5 5 5h5m98 0h10m40 0h10m98 0h5q5 0 5-5v-20q0-5 5-5m5 0h10m28 0h10m66 0h203q5 0 5-5m-628 60q0 5 5 5h5m52 0h10m40 0h10m52 0h10m28 0h10m66 0h335q5 0 5-5m-628 30q0 5 5 5h5m66 0h10m40 0h10m66 0h10m28 0h10m66 0h307q5 0 5-5m-628 30q0 5 5 5h25m62 0h10m30 0h10m62 0h92m-281 0q5 0 5 5v20q0 5 5 5h5m98 0h10m30 0h10m98 0h5q5 0 5-5v-20q0-5 5-5m5 0h10m28 0h10m66 0h213q5 0 5-5m-628 60q0 5 5 5h25m62 0h10m40 0h10m62 0h92m-291 0q5 0 5 5v20q0 5 5 5h5m98 0h10m40 0h10m98 0h5q5 0 5-5v-20q0-5 5-5m5 0h10m28 0h10m66 0h203q5 0 5-5m-628 60q0 5 5 5h5m49 0h10m25 0h10m62 0h10m31 0h30m38 0h39m-92 0q5 0 5 5v20q0 5 5 5h5m57 0h5q5 0 5-5v-20q0-5 5-5m5 0h10m25 0h10m134 0h10m28 0h10m66 0h16q5 0 5-5m-628 60q0 5 5 5h5m38 0h10m24 0h10m77 0h10m25 0h10m52 0h10m25 0h10m28 0h10m66 0h208q5 0 5-5m-628 60q0 5 5 5h5m66 0h10m25 0h10m52 0h10m24 0h30m-5 0q-5 0-5-5v-20q0-5 5-5h19m24 0h19q5 0 5 5v20q0 5-5 5m-5 0h30m25 0h10m28 0h10m66 0h165q5 0 5-5m-628 30q0 5 5 5h5m60 0h10m25 0h10m62 0h10m31 0h30m38 0h39m-92 0q5 0 5 5v20q0 5 5 5h5m57 0h5q5 0 5-5v-20q0-5 5-5m5 0h10m25 0h10m134 0h10m28 0h10m66 0h5q5 0 5-5m-628 90q0 5 5 5h5m87 0h10m25 0h10m52 0h10m24 0h30m-5 0q-5 0-5-5v-20q0-5 5-5h19m24 0h19q5 0 5 5v20q0 5-5 5m-5 0h30m25 0h10m28 0h10m66 0h144q5 0 5-5m-628 30q0 5 5 5h5m70 0h10m24 0h10m81 0h10m25 0h10m108 0h10m25 0h10m28 0h10m66 0h116q5 0 5-5m-628 30q0 5 5 5h5m38 0h10m24 0h10m66 0h10m25 0h10m38 0h10m25 0h10m28 0h10m66 0h233q5 0 5-5m-628 30q0 5 5 5h5m54 0h10m138 0h10m28 0h10m66 0h297q5 0 5-5m-633-715q5 0 5 5v740q0 5 5 5h5m66 0h10m30 0h10m66 0h10m28 0h10m66 0h317q5 0 5-5v-740q0-5 5-5m5 0h5"/><rect class="l" x="25" y="5" width="25" height="25" rx="7"/><text class="j" x="35" y="22">!</text><a xlink:href="#boolean"><rect class="r" x="60" y="5" width="66" height="25"/><text class="j" x="70" y="22">boolean</text></a><rect class="l" x="136" y="5" width="28" height="25" rx="7"/><text class="j" x="146" y="22">»</text><a xlink:href="#boolean"><rect class="r" x="174" y="5" width="66" height="25"/><text class="j" x="184" y="22">boolean</text></a><a xlink:href="#value"><rect class="r" x="25" y="35" width="52" height="25"/><text class="j" x="35" y="52">value</text></a><rect class="l" x="87" y="35" width="35" height="25" rx="7"/><text class="j" x="97" y="52">!=</text><a xlink:href="#value"><rect class="r" x="132" y="35" width="52" height="25"/><text class="j" x="142" y="52">value</text></a><rect class="l" x="194" y="35" width="28" height="25" rx="7"/><text class="j" x="204" y="52">»</text><a xlink:href="#boolean"><rect class="r" x="232" y="35" width="66" height="25"/><text class="j" x="242" y="52">boolean</text></a><a xlink:href="#boolean"><rect class="r" x="25" y="65" width="66" height="25"/><text class="j" x="35" y="82">boolean</text></a><rect class="l" x="101" y="65" width="38" height="25" rx="7"/><text class="j" x="111" y="82">&amp;&amp;</text><a xlink:href="#boolean"><rect class="r" x="149" y="65" width="66" height="25"/><text class="j" x="159" y="82">boolean</text></a><rect class="l" x="225" y="65" width="28" height="25" rx="7"/><text class="j" x="235" y="82">»</text><a xlink:href="#boolean"><rect class="r" x="263" y="65" width="66" height="25"/><text class="j" x="273" y="82">boolean</text></a><a xlink:href="#integer"><rect class="r" x="45" y="95" width="62" height="25"/><text class="j" x="55" y="112">integer</text></a><rect class="l" x="117" y="95" width="30" height="25" rx="7"/><text class="j" x="127" y="112">&lt;</text><a xlink:href="#integer"><rect class="r" x="157" y="95" width="62" height="25"/><text class="j" x="167" y="112">integer</text></a><a xlink:href="#fixed-decimal"><rect class="r" x="45" y="125" width="98" height="25"/><text class="j" x="55" y="142">fixed-decimal</text></a><rect class="l" x="153" y="125" width="30" height="25" rx="7"/><text class="j" x="163" y="142">&lt;</text><a xlink:href="#fixed-decimal"><rect class="r" x="193" y="125" width="98" height="25"/><text class="j" x="203" y="142">fixed-decimal</text></a><rect class="l" x="321" y="95" width="28" height="25" rx="7"/><text class="j" x="331" y="112">»</text><a xlink:href="#boolean"><rect class="r" x="359" y="95" width="66" height="25"/><text class="j" x="369" y="112">boolean</text></a><a xlink:href="#integer"><rect class="r" x="45" y="155" width="62" height="25"/><text class="j" x="55" y="172">integer</text></a><rect class="l" x="117" y="155" width="40" height="25" rx="7"/><text class="j" x="127" y="172">&lt;=</text><a xlink:href="#integer"><rect class="r" x="167" y="155" width="62" height="25"/><text class="j" x="177" y="172">integer</text></a><a xlink:href="#fixed-decimal"><rect class="r" x="45" y="185" width="98" height="25"/><text class="j" x="55" y="202">fixed-decimal</text></a><rect class="l" x="153" y="185" width="40" height="25" rx="7"/><text class="j" x="163" y="202">&lt;=</text><a xlink:href="#fixed-decimal"><rect class="r" x="203" y="185" width="98" height="25"/><text class="j" x="213" y="202">fixed-decimal</text></a><rect class="l" x="331" y="155" width="28" height="25" rx="7"/><text class="j" x="341" y="172">»</text><a xlink:href="#boolean"><rect class="r" x="369" y="155" width="66" height="25"/><text class="j" x="379" y="172">boolean</text></a><a xlink:href="#value"><rect class="r" x="25" y="215" width="52" height="25"/><text class="j" x="35" y="232">value</text></a><rect class="l" x="87" y="215" width="40" height="25" rx="7"/><text class="j" x="97" y="232">==</text><a xlink:href="#value"><rect class="r" x="137" y="215" width="52" height="25"/><text class="j" x="147" y="232">value</text></a><rect class="l" x="199" y="215" width="28" height="25" rx="7"/><text class="j" x="209" y="232">»</text><a xlink:href="#boolean"><rect class="r" x="237" y="215" width="66" height="25"/><text class="j" x="247" y="232">boolean</text></a><a xlink:href="#boolean"><rect class="r" x="25" y="245" width="66" height="25"/><text class="j" x="35" y="262">boolean</text></a><rect class="l" x="101" y="245" width="40" height="25" rx="7"/><text class="j" x="111" y="262">=&gt;</text><a xlink:href="#boolean"><rect class="r" x="151" y="245" width="66" height="25"/><text class="j" x="161" y="262">boolean</text></a><rect class="l" x="227" y="245" width="28" height="25" rx="7"/><text class="j" x="237" y="262">»</text><a xlink:href="#boolean"><rect class="r" x="265" y="245" width="66" height="25"/><text class="j" x="275" y="262">boolean</text></a><a xlink:href="#integer"><rect class="r" x="45" y="275" width="62" height="25"/><text class="j" x="55" y="292">integer</text></a><rect class="l" x="117" y="275" width="30" height="25" rx="7"/><text class="j" x="127" y="292">&gt;</text><a xlink:href="#integer"><rect class="r" x="157" y="275" width="62" height="25"/><text class="j" x="167" y="292">integer</text></a><a xlink:href="#fixed-decimal"><rect class="r" x="45" y="305" width="98" height="25"/><text class="j" x="55" y="322">fixed-decimal</text></a><rect class="l" x="153" y="305" width="30" height="25" rx="7"/><text class="j" x="163" y="322">&gt;</text><a xlink:href="#fixed-decimal"><rect class="r" x="193" y="305" width="98" height="25"/><text class="j" x="203" y="322">fixed-decimal</text></a><rect class="l" x="321" y="275" width="28" height="25" rx="7"/><text class="j" x="331" y="292">»</text><a xlink:href="#boolean"><rect class="r" x="359" y="275" width="66" height="25"/><text class="j" x="369" y="292">boolean</text></a><a xlink:href="#integer"><rect class="r" x="45" y="335" width="62" height="25"/><text class="j" x="55" y="352">integer</text></a><rect class="l" x="117" y="335" width="40" height="25" rx="7"/><text class="j" x="127" y="352">&gt;=</text><a xlink:href="#integer"><rect class="r" x="167" y="335" width="62" height="25"/><text class="j" x="177" y="352">integer</text></a><a xlink:href="#fixed-decimal"><rect class="r" x="45" y="365" width="98" height="25"/><text class="j" x="55" y="382">fixed-decimal</text></a><rect class="l" x="153" y="365" width="40" height="25" rx="7"/><text class="j" x="163" y="382">&gt;=</text><a xlink:href="#fixed-decimal"><rect class="r" x="203" y="365" width="98" height="25"/><text class="j" x="213" y="382">fixed-decimal</text></a><rect class="l" x="331" y="335" width="28" height="25" rx="7"/><text class="j" x="341" y="352">»</text><a xlink:href="#boolean"><rect class="r" x="369" y="335" width="66" height="25"/><text class="j" x="379" y="352">boolean</text></a><rect class="l" x="25" y="395" width="49" height="25" rx="7"/><text class="j" x="35" y="412">any?</text><rect class="l" x="84" y="395" width="25" height="25" rx="7"/><text class="j" x="94" y="412">(</text><a xlink:href="#symbol"><rect class="r" x="119" y="395" width="62" height="25"/><text class="j" x="129" y="412">symbol</text></a><rect class="l" x="191" y="395" width="31" height="25" rx="7"/><text class="j" x="201" y="412">in</text><a xlink:href="#set"><rect class="r" x="252" y="395" width="38" height="25"/><text class="j" x="262" y="412">set</text></a><a xlink:href="#vector"><rect class="r" x="252" y="425" width="57" height="25"/><text class="j" x="262" y="442">vector</text></a><rect class="l" x="339" y="395" width="25" height="25" rx="7"/><text class="j" x="349" y="412">)</text><a xlink:href="#boolean-expression"><rect class="r" x="374" y="395" width="134" height="25"/><text class="j" x="384" y="412">boolean-expression</text></a><rect class="l" x="518" y="395" width="28" height="25" rx="7"/><text class="j" x="528" y="412">»</text><a xlink:href="#boolean"><rect class="r" x="556" y="395" width="66" height="25"/><text class="j" x="566" y="412">boolean</text></a><a xlink:href="#set"><rect class="r" x="25" y="455" width="38" height="25"/><text class="j" x="35" y="472">set</text></a><rect class="l" x="73" y="455" width="24" height="25" rx="7"/><text class="j" x="83" y="472">.</text><rect class="l" x="107" y="455" width="77" height="25" rx="7"/><text class="j" x="117" y="472">contains?</text><rect class="l" x="194" y="455" width="25" height="25" rx="7"/><text class="j" x="204" y="472">(</text><a xlink:href="#value"><rect class="r" x="229" y="455" width="52" height="25"/><text class="j" x="239" y="472">value</text></a><rect class="l" x="291" y="455" width="25" height="25" rx="7"/><text class="j" x="301" y="472">)</text><rect class="l" x="326" y="455" width="28" height="25" rx="7"/><text class="j" x="336" y="472">»</text><a xlink:href="#boolean"><rect class="r" x="364" y="455" width="66" height="25"/><text class="j" x="374" y="472">boolean</text></a><rect class="l" x="25" y="515" width="66" height="25" rx="7"/><text class="j" x="35" y="532">equalTo</text><rect class="l" x="101" y="515" width="25" height="25" rx="7"/><text class="j" x="111" y="532">(</text><a xlink:href="#value"><rect class="r" x="136" y="515" width="52" height="25"/><text class="j" x="146" y="532">value</text></a><rect class="l" x="198" y="515" width="24" height="25" rx="7"/><text class="j" x="208" y="532">,</text><rect class="l" x="266" y="485" width="24" height="25" rx="7"/><text class="j" x="276" y="502">,</text><a xlink:href="#value"><rect class="r" x="252" y="515" width="52" height="25"/><text class="j" x="262" y="532">value</text></a><rect class="l" x="334" y="515" width="25" height="25" rx="7"/><text class="j" x="344" y="532">)</text><rect class="l" x="369" y="515" width="28" height="25" rx="7"/><text class="j" x="379" y="532">»</text><a xlink:href="#boolean"><rect class="r" x="407" y="515" width="66" height="25"/><text class="j" x="417" y="532">boolean</text></a><rect class="l" x="25" y="545" width="60" height="25" rx="7"/><text class="j" x="35" y="562">every?</text><rect class="l" x="95" y="545" width="25" height="25" rx="7"/><text class="j" x="105" y="562">(</text><a xlink:href="#symbol"><rect class="r" x="130" y="545" width="62" height="25"/><text class="j" x="140" y="562">symbol</text></a><rect class="l" x="202" y="545" width="31" height="25" rx="7"/><text class="j" x="212" y="562">in</text><a xlink:href="#set"><rect class="r" x="263" y="545" width="38" height="25"/><text class="j" x="273" y="562">set</text></a><a xlink:href="#vector"><rect class="r" x="263" y="575" width="57" height="25"/><text class="j" x="273" y="592">vector</text></a><rect class="l" x="350" y="545" width="25" height="25" rx="7"/><text class="j" x="360" y="562">)</text><a xlink:href="#boolean-expression"><rect class="r" x="385" y="545" width="134" height="25"/><text class="j" x="395" y="562">boolean-expression</text></a><rect class="l" x="529" y="545" width="28" height="25" rx="7"/><text class="j" x="539" y="562">»</text><a xlink:href="#boolean"><rect class="r" x="567" y="545" width="66" height="25"/><text class="j" x="577" y="562">boolean</text></a><rect class="l" x="25" y="635" width="87" height="25" rx="7"/><text class="j" x="35" y="652">notEqualTo</text><rect class="l" x="122" y="635" width="25" height="25" rx="7"/><text class="j" x="132" y="652">(</text><a xlink:href="#value"><rect class="r" x="157" y="635" width="52" height="25"/><text class="j" x="167" y="652">value</text></a><rect class="l" x="219" y="635" width="24" height="25" rx="7"/><text class="j" x="229" y="652">,</text><rect class="l" x="287" y="605" width="24" height="25" rx="7"/><text class="j" x="297" y="622">,</text><a xlink:href="#value"><rect class="r" x="273" y="635" width="52" height="25"/><text class="j" x="283" y="652">value</text></a><rect class="l" x="355" y="635" width="25" height="25" rx="7"/><text class="j" x="365" y="652">)</text><rect class="l" x="390" y="635" width="28" height="25" rx="7"/><text class="j" x="400" y="652">»</text><a xlink:href="#boolean"><rect class="r" x="428" y="635" width="66" height="25"/><text class="j" x="438" y="652">boolean</text></a><a xlink:href="#instance"><rect class="r" x="25" y="665" width="70" height="25"/><text class="j" x="35" y="682">instance</text></a><rect class="l" x="105" y="665" width="24" height="25" rx="7"/><text class="j" x="115" y="682">.</text><rect class="l" x="139" y="665" width="81" height="25" rx="7"/><text class="j" x="149" y="682">refinesTo?</text><rect class="l" x="230" y="665" width="25" height="25" rx="7"/><text class="j" x="240" y="682">(</text><a xlink:href="#symbol:spec-id"><rect class="r" x="265" y="665" width="108" height="25"/><text class="j" x="275" y="682">symbol:spec-id</text></a><rect class="l" x="383" y="665" width="25" height="25" rx="7"/><text class="j" x="393" y="682">)</text><rect class="l" x="418" y="665" width="28" height="25" rx="7"/><text class="j" x="428" y="682">»</text><a xlink:href="#boolean"><rect class="r" x="456" y="665" width="66" height="25"/><text class="j" x="466" y="682">boolean</text></a><a xlink:href="#set"><rect class="r" x="25" y="695" width="38" height="25"/><text class="j" x="35" y="712">set</text></a><rect class="l" x="73" y="695" width="24" height="25" rx="7"/><text class="j" x="83" y="712">.</text><rect class="l" x="107" y="695" width="66" height="25" rx="7"/><text class="j" x="117" y="712">subset?</text><rect class="l" x="183" y="695" width="25" height="25" rx="7"/><text class="j" x="193" y="712">(</text><a xlink:href="#set"><rect class="r" x="218" y="695" width="38" height="25"/><text class="j" x="228" y="712">set</text></a><rect class="l" x="266" y="695" width="25" height="25" rx="7"/><text class="j" x="276" y="712">)</text><rect class="l" x="301" y="695" width="28" height="25" rx="7"/><text class="j" x="311" y="712">»</text><a xlink:href="#boolean"><rect class="r" x="339" y="695" width="66" height="25"/><text class="j" x="349" y="712">boolean</text></a><rect class="l" x="25" y="725" width="54" height="25" rx="7"/><text class="j" x="35" y="742">valid?</text><a xlink:href="#instance-expression"><rect class="r" x="89" y="725" width="138" height="25"/><text class="j" x="99" y="742">instance-expression</text></a><rect class="l" x="237" y="725" width="28" height="25" rx="7"/><text class="j" x="247" y="742">»</text><a xlink:href="#boolean"><rect class="r" x="275" y="725" width="66" height="25"/><text class="j" x="285" y="742">boolean</text></a><a xlink:href="#boolean"><rect class="r" x="25" y="755" width="66" height="25"/><text class="j" x="35" y="772">boolean</text></a><rect class="l" x="101" y="755" width="30" height="25" rx="7"/><text class="j" x="111" y="772">||</text><a xlink:href="#boolean"><rect class="r" x="141" y="755" width="66" height="25"/><text class="j" x="151" y="772">boolean</text></a><rect class="l" x="217" y="755" width="28" height="25" rx="7"/><text class="j" x="227" y="772">»</text><a xlink:href="#boolean"><rect class="r" x="255" y="755" width="66" height="25"/><text class="j" x="265" y="772">boolean</text></a></svg>