<svg version="1.1" xmlns:xlink="http://www.w3.org/1999/xlink" xmlns="http://www.w3.org/2000/svg" width="629" height="335" viewbox="0 0 629 335"><defs><style type="text/css">.c{fill:none;stroke:#222222;}.i{fill:#000000;font-family:Verdana,Sans-serif;font-size:12px;}.l{fill:#90d9ff;stroke:#222222;}.r{fill:#d3f0ff;stroke:#222222;}</style></defs><path class="c" d="M0 22h25m71 0h10m38 0h10m71 0h10m28 0h10m71 0h280m-609 40q0 5 5 5h5m71 0h10m38 0h50m-5 0q-5 0-5-5v-17q0-5 5-5h81q5 0 5 5v17q0 5-5 5m-5 0h40m-146 0q5 0 5 5v8q0 5 5 5h121q5 0 5-5v-8q0-5 5-5m5 0h10m28 0h10m71 0h185q5 0 5-5m-599 45q0 5 5 5h5m27 0h10m25 0h10m71 0h10m25 0h10m117 0h10m46 0h10m117 0h10m28 0h10m43 0h5q5 0 5-5m-599 30q0 5 5 5h5m25 0h10m71 0h10m28 0h10m71 0h359q5 0 5-5m-599 30q0 5 5 5h5m54 0h10m34 0h10m54 0h10m28 0h10m71 0h303q5 0 5-5m-599 60q0 5 5 5h5m91 0h10m25 0h10m54 0h10m24 0h30m-5 0q-5 0-5-5v-20q0-5 5-5h20m24 0h20q5 0 5 5v20q0 5-5 5m-5 0h30m25 0h10m28 0h10m71 0h102q5 0 5-5m-599 45q0 5 5 5h5m71 0h10m30 0h50m-5 0q-5 0-5-5v-17q0-5 5-5h81q5 0 5 5v17q0 5-5 5m-5 0h40m-146 0q5 0 5 5v8q0 5 5 5h121q5 0 5-5v-8q0-5 5-5m5 0h10m28 0h10m71 0h193q5 0 5-5m-604-250q5 0 5 5v290q0 5 5 5h5m55 0h10m25 0h10m71 0h10m25 0h10m117 0h10m28 0h10m43 0h160q5 0 5-5v-290q0-5 5-5m5 0h5"/><a xlink:href="#boolean"><rect class="r" x="25" y="5" width="71" height="25"/><text class="i" x="35" y="22">boolean</text></a><rect class="l" x="106" y="5" width="38" height="25" rx="7"/><text class="i" x="116" y="22">=&gt;</text><a xlink:href="#boolean"><rect class="r" x="154" y="5" width="71" height="25"/><text class="i" x="164" y="22">boolean</text></a><rect class="l" x="235" y="5" width="28" height="25" rx="7"/><text class="i" x="245" y="22">»</text><a xlink:href="#boolean"><rect class="r" x="273" y="5" width="71" height="25"/><text class="i" x="283" y="22">boolean</text></a><a xlink:href="#boolean"><rect class="r" x="25" y="50" width="71" height="25"/><text class="i" x="35" y="67">boolean</text></a><rect class="l" x="106" y="50" width="38" height="25" rx="7"/><text class="i" x="116" y="67">&amp;&amp;</text><a xlink:href="#boolean"><rect class="r" x="194" y="50" width="71" height="25"/><text class="i" x="204" y="67">boolean</text></a><rect class="l" x="315" y="50" width="28" height="25" rx="7"/><text class="i" x="325" y="67">»</text><a xlink:href="#boolean"><rect class="r" x="353" y="50" width="71" height="25"/><text class="i" x="363" y="67">boolean</text></a><rect class="l" x="25" y="95" width="27" height="25" rx="7"/><text class="i" x="35" y="112">if</text><rect class="l" x="62" y="95" width="25" height="25" rx="7"/><text class="i" x="72" y="112">(</text><a xlink:href="#boolean"><rect class="r" x="97" y="95" width="71" height="25"/><text class="i" x="107" y="112">boolean</text></a><rect class="l" x="178" y="95" width="25" height="25" rx="7"/><text class="i" x="188" y="112">)</text><a xlink:href="#any-expression"><rect class="r" x="213" y="95" width="117" height="25"/><text class="i" x="223" y="112">any-expression</text></a><rect class="l" x="340" y="95" width="46" height="25" rx="7"/><text class="i" x="350" y="112">else</text><a xlink:href="#any-expression"><rect class="r" x="396" y="95" width="117" height="25"/><text class="i" x="406" y="112">any-expression</text></a><rect class="l" x="523" y="95" width="28" height="25" rx="7"/><text class="i" x="533" y="112">»</text><a xlink:href="#any"><rect class="r" x="561" y="95" width="43" height="25"/><text class="i" x="571" y="112">any</text></a><rect class="l" x="25" y="125" width="25" height="25" rx="7"/><text class="i" x="35" y="142">!</text><a xlink:href="#boolean"><rect class="r" x="60" y="125" width="71" height="25"/><text class="i" x="70" y="142">boolean</text></a><rect class="l" x="141" y="125" width="28" height="25" rx="7"/><text class="i" x="151" y="142">»</text><a xlink:href="#boolean"><rect class="r" x="179" y="125" width="71" height="25"/><text class="i" x="189" y="142">boolean</text></a><a xlink:href="#value"><rect class="r" x="25" y="155" width="54" height="25"/><text class="i" x="35" y="172">value</text></a><rect class="l" x="89" y="155" width="34" height="25" rx="7"/><text class="i" x="99" y="172">!=</text><a xlink:href="#value"><rect class="r" x="133" y="155" width="54" height="25"/><text class="i" x="143" y="172">value</text></a><rect class="l" x="197" y="155" width="28" height="25" rx="7"/><text class="i" x="207" y="172">»</text><a xlink:href="#boolean"><rect class="r" x="235" y="155" width="71" height="25"/><text class="i" x="245" y="172">boolean</text></a><rect class="l" x="25" y="215" width="91" height="25" rx="7"/><text class="i" x="35" y="232">notEqualTo</text><rect class="l" x="126" y="215" width="25" height="25" rx="7"/><text class="i" x="136" y="232">(</text><a xlink:href="#value"><rect class="r" x="161" y="215" width="54" height="25"/><text class="i" x="171" y="232">value</text></a><rect class="l" x="225" y="215" width="24" height="25" rx="7"/><text class="i" x="235" y="232">,</text><rect class="l" x="294" y="185" width="24" height="25" rx="7"/><text class="i" x="304" y="202">,</text><a xlink:href="#value"><rect class="r" x="279" y="215" width="54" height="25"/><text class="i" x="289" y="232">value</text></a><rect class="l" x="363" y="215" width="25" height="25" rx="7"/><text class="i" x="373" y="232">)</text><rect class="l" x="398" y="215" width="28" height="25" rx="7"/><text class="i" x="408" y="232">»</text><a xlink:href="#boolean"><rect class="r" x="436" y="215" width="71" height="25"/><text class="i" x="446" y="232">boolean</text></a><a xlink:href="#boolean"><rect class="r" x="25" y="260" width="71" height="25"/><text class="i" x="35" y="277">boolean</text></a><rect class="l" x="106" y="260" width="30" height="25" rx="7"/><text class="i" x="116" y="277">||</text><a xlink:href="#boolean"><rect class="r" x="186" y="260" width="71" height="25"/><text class="i" x="196" y="277">boolean</text></a><rect class="l" x="307" y="260" width="28" height="25" rx="7"/><text class="i" x="317" y="277">»</text><a xlink:href="#boolean"><rect class="r" x="345" y="260" width="71" height="25"/><text class="i" x="355" y="277">boolean</text></a><rect class="l" x="25" y="305" width="55" height="25" rx="7"/><text class="i" x="35" y="322">when</text><rect class="l" x="90" y="305" width="25" height="25" rx="7"/><text class="i" x="100" y="322">(</text><a xlink:href="#boolean"><rect class="r" x="125" y="305" width="71" height="25"/><text class="i" x="135" y="322">boolean</text></a><rect class="l" x="206" y="305" width="25" height="25" rx="7"/><text class="i" x="216" y="322">)</text><a xlink:href="#any-expression"><rect class="r" x="241" y="305" width="117" height="25"/><text class="i" x="251" y="322">any-expression</text></a><rect class="l" x="368" y="305" width="28" height="25" rx="7"/><text class="i" x="378" y="322">»</text><a xlink:href="#any"><rect class="r" x="406" y="305" width="43" height="25"/><text class="i" x="416" y="322">any</text></a></svg>