<svg version="1.1" xmlns:xlink="http://www.w3.org/1999/xlink" xmlns="http://www.w3.org/2000/svg" width="786" height="179" viewbox="0 0 786 179"><defs><style type="text/css">.c{fill: none; stroke: #888888; stroke-width: 2px;}.j{fill:#000000;font-family:Dialog,Sans-serif;font-size:12px;}.l{fill:#90d9ff;stroke:#222222;}.r{fill:#d3f0ff;stroke:#222222;}</style></defs><path class="c" d="M0 17h25m25 0h10m27 0h10m71 0h10m114 0h10m114 0h10m25 0h10m27 0h10m42 0h241m-766 24q0 5 5 5h5m25 0h10m64 0h10m63 0h10m114 0h10m114 0h10m25 0h10m27 0h10m42 0h197q5 0 5-5m-756 29q0 5 5 5h5m25 0h10m84 0h10m25 0h10m63 0h10m92 0h10m25 0h10m114 0h10m114 0h10m25 0h10m27 0h10m42 0h5q5 0 5-5m-756 29q0 5 5 5h5m25 0h10m53 0h10m71 0h10m114 0h10m25 0h10m27 0h10m42 0h324q5 0 5-5m-756 29q0 5 5 5h5m25 0h10m90 0h10m63 0h10m164 0h10m25 0h10m27 0h10m42 0h245q5 0 5-5m-761-111q5 0 5 5v135q0 5 5 5h5m25 0h10m110 0h10m25 0h10m63 0h10m92 0h10m25 0h10m114 0h10m25 0h10m27 0h10m42 0h103q5 0 5-5v-135q0-5 5-5m5 0h5"/><rect class="l" x="25" y="5" width="25" height="24" rx="7"/><text class="j" x="35" y="21">(</text><rect class="l" x="60" y="5" width="27" height="24" rx="7"/><text class="j" x="70" y="21">if</text><a xlink:href="#boolean"><rect class="r" x="97" y="5" width="71" height="24"/><text class="j" x="107" y="21">boolean</text></a><a xlink:href="#any-expression"><rect class="r" x="178" y="5" width="114" height="24"/><text class="j" x="188" y="21">any-expression</text></a><a xlink:href="#any-expression"><rect class="r" x="302" y="5" width="114" height="24"/><text class="j" x="312" y="21">any-expression</text></a><rect class="l" x="426" y="5" width="25" height="24" rx="7"/><text class="j" x="436" y="21">)</text><rect class="l" x="461" y="5" width="27" height="24" rx="7"/><text class="j" x="471" y="21">»</text><a xlink:href="#any"><rect class="r" x="498" y="5" width="42" height="24"/><text class="j" x="508" y="21">any</text></a><rect class="l" x="25" y="34" width="25" height="24" rx="7"/><text class="j" x="35" y="50">(</text><rect class="l" x="60" y="34" width="64" height="24" rx="7"/><text class="j" x="70" y="50">if-value</text><a xlink:href="#symbol"><rect class="r" x="134" y="34" width="63" height="24"/><text class="j" x="144" y="50">symbol</text></a><a xlink:href="#any-expression"><rect class="r" x="207" y="34" width="114" height="24"/><text class="j" x="217" y="50">any-expression</text></a><a xlink:href="#any-expression"><rect class="r" x="331" y="34" width="114" height="24"/><text class="j" x="341" y="50">any-expression</text></a><rect class="l" x="455" y="34" width="25" height="24" rx="7"/><text class="j" x="465" y="50">)</text><rect class="l" x="490" y="34" width="27" height="24" rx="7"/><text class="j" x="500" y="50">»</text><a xlink:href="#any"><rect class="r" x="527" y="34" width="42" height="24"/><text class="j" x="537" y="50">any</text></a><rect class="l" x="25" y="63" width="25" height="24" rx="7"/><text class="j" x="35" y="79">(</text><rect class="l" x="60" y="63" width="84" height="24" rx="7"/><text class="j" x="70" y="79">if-value-let</text><rect class="l" x="154" y="63" width="25" height="24" rx="7"/><text class="j" x="164" y="79">[</text><a xlink:href="#symbol"><rect class="r" x="189" y="63" width="63" height="24"/><text class="j" x="199" y="79">symbol</text></a><a xlink:href="#any:binding"><rect class="r" x="262" y="63" width="92" height="24"/><text class="j" x="272" y="79">any:binding</text></a><rect class="l" x="364" y="63" width="25" height="24" rx="7"/><text class="j" x="374" y="79">]</text><a xlink:href="#any-expression"><rect class="r" x="399" y="63" width="114" height="24"/><text class="j" x="409" y="79">any-expression</text></a><a xlink:href="#any-expression"><rect class="r" x="523" y="63" width="114" height="24"/><text class="j" x="533" y="79">any-expression</text></a><rect class="l" x="647" y="63" width="25" height="24" rx="7"/><text class="j" x="657" y="79">)</text><rect class="l" x="682" y="63" width="27" height="24" rx="7"/><text class="j" x="692" y="79">»</text><a xlink:href="#any"><rect class="r" x="719" y="63" width="42" height="24"/><text class="j" x="729" y="79">any</text></a><rect class="l" x="25" y="92" width="25" height="24" rx="7"/><text class="j" x="35" y="108">(</text><rect class="l" x="60" y="92" width="53" height="24" rx="7"/><text class="j" x="70" y="108">when</text><a xlink:href="#boolean"><rect class="r" x="123" y="92" width="71" height="24"/><text class="j" x="133" y="108">boolean</text></a><a xlink:href="#any-expression"><rect class="r" x="204" y="92" width="114" height="24"/><text class="j" x="214" y="108">any-expression</text></a><rect class="l" x="328" y="92" width="25" height="24" rx="7"/><text class="j" x="338" y="108">)</text><rect class="l" x="363" y="92" width="27" height="24" rx="7"/><text class="j" x="373" y="108">»</text><a xlink:href="#any"><rect class="r" x="400" y="92" width="42" height="24"/><text class="j" x="410" y="108">any</text></a><rect class="l" x="25" y="121" width="25" height="24" rx="7"/><text class="j" x="35" y="137">(</text><rect class="l" x="60" y="121" width="90" height="24" rx="7"/><text class="j" x="70" y="137">when-value</text><a xlink:href="#symbol"><rect class="r" x="160" y="121" width="63" height="24"/><text class="j" x="170" y="137">symbol</text></a><a xlink:href="#any-expression:binding"><rect class="r" x="233" y="121" width="164" height="24"/><text class="j" x="243" y="137">any-expression:binding</text></a><rect class="l" x="407" y="121" width="25" height="24" rx="7"/><text class="j" x="417" y="137">)</text><rect class="l" x="442" y="121" width="27" height="24" rx="7"/><text class="j" x="452" y="137">»</text><a xlink:href="#any"><rect class="r" x="479" y="121" width="42" height="24"/><text class="j" x="489" y="137">any</text></a><rect class="l" x="25" y="150" width="25" height="24" rx="7"/><text class="j" x="35" y="166">(</text><rect class="l" x="60" y="150" width="110" height="24" rx="7"/><text class="j" x="70" y="166">when-value-let</text><rect class="l" x="180" y="150" width="25" height="24" rx="7"/><text class="j" x="190" y="166">[</text><a xlink:href="#symbol"><rect class="r" x="215" y="150" width="63" height="24"/><text class="j" x="225" y="166">symbol</text></a><a xlink:href="#any:binding"><rect class="r" x="288" y="150" width="92" height="24"/><text class="j" x="298" y="166">any:binding</text></a><rect class="l" x="390" y="150" width="25" height="24" rx="7"/><text class="j" x="400" y="166">]</text><a xlink:href="#any-expression"><rect class="r" x="425" y="150" width="114" height="24"/><text class="j" x="435" y="166">any-expression</text></a><rect class="l" x="549" y="150" width="25" height="24" rx="7"/><text class="j" x="559" y="166">)</text><rect class="l" x="584" y="150" width="27" height="24" rx="7"/><text class="j" x="594" y="166">»</text><a xlink:href="#any"><rect class="r" x="621" y="150" width="42" height="24"/><text class="j" x="631" y="166">any</text></a></svg>