<svg version="1.1" xmlns:xlink="http://www.w3.org/1999/xlink" xmlns="http://www.w3.org/2000/svg" width="809" height="179" viewbox="0 0 809 179"><defs><style type="text/css">.c{fill: none; stroke: #888888; stroke-width: 2px;}.j{fill:#000000;font-family:Dialog,Sans-serif;font-size:12px;}.l{fill:#90d9ff;stroke:#222222;}.r{fill:#d3f0ff;stroke:#222222;}</style></defs><path class="c" d="M0 17h25m27 0h10m25 0h10m71 0h10m25 0h10m114 0h10m46 0h10m114 0h10m27 0h10m42 0h208m-789 24q0 5 5 5h5m62 0h10m25 0h10m63 0h10m25 0h10m114 0h10m46 0h10m114 0h10m27 0h10m42 0h166q5 0 5-5m-779 29q0 5 5 5h5m81 0h10m25 0h10m63 0h10m30 0h10m92 0h10m25 0h10m114 0h10m46 0h10m114 0h10m27 0h10m42 0h5q5 0 5-5m-779 29q0 5 5 5h5m53 0h10m25 0h10m71 0h10m25 0h10m114 0h10m27 0h10m42 0h347q5 0 5-5m-779 29q0 5 5 5h5m88 0h10m25 0h10m63 0h10m25 0h10m114 0h10m27 0h10m42 0h320q5 0 5-5m-784-111q5 0 5 5v135q0 5 5 5h5m107 0h10m25 0h10m63 0h10m30 0h10m92 0h10m25 0h10m114 0h10m27 0h10m42 0h159q5 0 5-5v-135q0-5 5-5m5 0h5"/><rect class="l" x="25" y="5" width="27" height="24" rx="7"/><text class="j" x="35" y="21">if</text><rect class="l" x="62" y="5" width="25" height="24" rx="7"/><text class="j" x="72" y="21">(</text><a xlink:href="#boolean"><rect class="r" x="97" y="5" width="71" height="24"/><text class="j" x="107" y="21">boolean</text></a><rect class="l" x="178" y="5" width="25" height="24" rx="7"/><text class="j" x="188" y="21">)</text><a xlink:href="#any-expression"><rect class="r" x="213" y="5" width="114" height="24"/><text class="j" x="223" y="21">any-expression</text></a><rect class="l" x="337" y="5" width="46" height="24" rx="7"/><text class="j" x="347" y="21">else</text><a xlink:href="#any-expression"><rect class="r" x="393" y="5" width="114" height="24"/><text class="j" x="403" y="21">any-expression</text></a><rect class="l" x="517" y="5" width="27" height="24" rx="7"/><text class="j" x="527" y="21">»</text><a xlink:href="#any"><rect class="r" x="554" y="5" width="42" height="24"/><text class="j" x="564" y="21">any</text></a><rect class="l" x="25" y="34" width="62" height="24" rx="7"/><text class="j" x="35" y="50">ifValue</text><rect class="l" x="97" y="34" width="25" height="24" rx="7"/><text class="j" x="107" y="50">(</text><a xlink:href="#symbol"><rect class="r" x="132" y="34" width="63" height="24"/><text class="j" x="142" y="50">symbol</text></a><rect class="l" x="205" y="34" width="25" height="24" rx="7"/><text class="j" x="215" y="50">)</text><a xlink:href="#any-expression"><rect class="r" x="240" y="34" width="114" height="24"/><text class="j" x="250" y="50">any-expression</text></a><rect class="l" x="364" y="34" width="46" height="24" rx="7"/><text class="j" x="374" y="50">else</text><a xlink:href="#any-expression"><rect class="r" x="420" y="34" width="114" height="24"/><text class="j" x="430" y="50">any-expression</text></a><rect class="l" x="544" y="34" width="27" height="24" rx="7"/><text class="j" x="554" y="50">»</text><a xlink:href="#any"><rect class="r" x="581" y="34" width="42" height="24"/><text class="j" x="591" y="50">any</text></a><rect class="l" x="25" y="63" width="81" height="24" rx="7"/><text class="j" x="35" y="79">ifValueLet</text><rect class="l" x="116" y="63" width="25" height="24" rx="7"/><text class="j" x="126" y="79">(</text><a xlink:href="#symbol"><rect class="r" x="151" y="63" width="63" height="24"/><text class="j" x="161" y="79">symbol</text></a><rect class="l" x="224" y="63" width="30" height="24" rx="7"/><text class="j" x="234" y="79">=</text><a xlink:href="#any:binding"><rect class="r" x="264" y="63" width="92" height="24"/><text class="j" x="274" y="79">any:binding</text></a><rect class="l" x="366" y="63" width="25" height="24" rx="7"/><text class="j" x="376" y="79">)</text><a xlink:href="#any-expression"><rect class="r" x="401" y="63" width="114" height="24"/><text class="j" x="411" y="79">any-expression</text></a><rect class="l" x="525" y="63" width="46" height="24" rx="7"/><text class="j" x="535" y="79">else</text><a xlink:href="#any-expression"><rect class="r" x="581" y="63" width="114" height="24"/><text class="j" x="591" y="79">any-expression</text></a><rect class="l" x="705" y="63" width="27" height="24" rx="7"/><text class="j" x="715" y="79">»</text><a xlink:href="#any"><rect class="r" x="742" y="63" width="42" height="24"/><text class="j" x="752" y="79">any</text></a><rect class="l" x="25" y="92" width="53" height="24" rx="7"/><text class="j" x="35" y="108">when</text><rect class="l" x="88" y="92" width="25" height="24" rx="7"/><text class="j" x="98" y="108">(</text><a xlink:href="#boolean"><rect class="r" x="123" y="92" width="71" height="24"/><text class="j" x="133" y="108">boolean</text></a><rect class="l" x="204" y="92" width="25" height="24" rx="7"/><text class="j" x="214" y="108">)</text><a xlink:href="#any-expression"><rect class="r" x="239" y="92" width="114" height="24"/><text class="j" x="249" y="108">any-expression</text></a><rect class="l" x="363" y="92" width="27" height="24" rx="7"/><text class="j" x="373" y="108">»</text><a xlink:href="#any"><rect class="r" x="400" y="92" width="42" height="24"/><text class="j" x="410" y="108">any</text></a><rect class="l" x="25" y="121" width="88" height="24" rx="7"/><text class="j" x="35" y="137">whenValue</text><rect class="l" x="123" y="121" width="25" height="24" rx="7"/><text class="j" x="133" y="137">(</text><a xlink:href="#symbol"><rect class="r" x="158" y="121" width="63" height="24"/><text class="j" x="168" y="137">symbol</text></a><rect class="l" x="231" y="121" width="25" height="24" rx="7"/><text class="j" x="241" y="137">)</text><a xlink:href="#any-expression"><rect class="r" x="266" y="121" width="114" height="24"/><text class="j" x="276" y="137">any-expression</text></a><rect class="l" x="390" y="121" width="27" height="24" rx="7"/><text class="j" x="400" y="137">»</text><a xlink:href="#any"><rect class="r" x="427" y="121" width="42" height="24"/><text class="j" x="437" y="137">any</text></a><rect class="l" x="25" y="150" width="107" height="24" rx="7"/><text class="j" x="35" y="166">whenValueLet</text><rect class="l" x="142" y="150" width="25" height="24" rx="7"/><text class="j" x="152" y="166">(</text><a xlink:href="#symbol"><rect class="r" x="177" y="150" width="63" height="24"/><text class="j" x="187" y="166">symbol</text></a><rect class="l" x="250" y="150" width="30" height="24" rx="7"/><text class="j" x="260" y="166">=</text><a xlink:href="#any:binding"><rect class="r" x="290" y="150" width="92" height="24"/><text class="j" x="300" y="166">any:binding</text></a><rect class="l" x="392" y="150" width="25" height="24" rx="7"/><text class="j" x="402" y="166">)</text><a xlink:href="#any-expression"><rect class="r" x="427" y="150" width="114" height="24"/><text class="j" x="437" y="166">any-expression</text></a><rect class="l" x="551" y="150" width="27" height="24" rx="7"/><text class="j" x="561" y="166">»</text><a xlink:href="#any"><rect class="r" x="588" y="150" width="42" height="24"/><text class="j" x="598" y="166">any</text></a></svg>