<svg version="1.1" xmlns:xlink="http://www.w3.org/1999/xlink" xmlns="http://www.w3.org/2000/svg" width="800" height="185" viewbox="0 0 800 185"><defs><style type="text/css">.c{fill:none;stroke:#222222;}.j{fill:#000000;font-family:Verdana,Sans-serif;font-size:12px;}.l{fill:#90d9ff;stroke:#222222;}.r{fill:#d3f0ff;stroke:#222222;}</style></defs><path class="c" d="M0 22h25m25 0h10m27 0h10m71 0h10m117 0h10m117 0h10m25 0h10m28 0h10m43 0h247m-780 25q0 5 5 5h5m25 0h10m66 0h10m64 0h10m117 0h10m117 0h10m25 0h10m28 0h10m43 0h200q5 0 5-5m-770 30q0 5 5 5h5m25 0h10m87 0h10m25 0h10m64 0h10m94 0h10m25 0h10m117 0h10m117 0h10m25 0h10m28 0h10m43 0h5q5 0 5-5m-770 30q0 5 5 5h5m25 0h10m55 0h10m71 0h10m117 0h10m25 0h10m28 0h10m43 0h331q5 0 5-5m-770 30q0 5 5 5h5m25 0h10m94 0h10m64 0h10m168 0h10m25 0h10m28 0h10m43 0h248q5 0 5-5m-775-115q5 0 5 5v140q0 5 5 5h5m25 0h10m115 0h10m25 0h10m64 0h10m94 0h10m25 0h10m117 0h10m25 0h10m28 0h10m43 0h104q5 0 5-5v-140q0-5 5-5m5 0h5"/><rect class="l" x="25" y="5" width="25" height="25" rx="7"/><text class="j" x="35" y="22">(</text><rect class="l" x="60" y="5" width="27" height="25" rx="7"/><text class="j" x="70" y="22">if</text><a xlink:href="#boolean"><rect class="r" x="97" y="5" width="71" height="25"/><text class="j" x="107" y="22">boolean</text></a><a xlink:href="#any-expression"><rect class="r" x="178" y="5" width="117" height="25"/><text class="j" x="188" y="22">any-expression</text></a><a xlink:href="#any-expression"><rect class="r" x="305" y="5" width="117" height="25"/><text class="j" x="315" y="22">any-expression</text></a><rect class="l" x="432" y="5" width="25" height="25" rx="7"/><text class="j" x="442" y="22">)</text><rect class="l" x="467" y="5" width="28" height="25" rx="7"/><text class="j" x="477" y="22">»</text><a xlink:href="#any"><rect class="r" x="505" y="5" width="43" height="25"/><text class="j" x="515" y="22">any</text></a><rect class="l" x="25" y="35" width="25" height="25" rx="7"/><text class="j" x="35" y="52">(</text><rect class="l" x="60" y="35" width="66" height="25" rx="7"/><text class="j" x="70" y="52">if-value</text><a xlink:href="#symbol"><rect class="r" x="136" y="35" width="64" height="25"/><text class="j" x="146" y="52">symbol</text></a><a xlink:href="#any-expression"><rect class="r" x="210" y="35" width="117" height="25"/><text class="j" x="220" y="52">any-expression</text></a><a xlink:href="#any-expression"><rect class="r" x="337" y="35" width="117" height="25"/><text class="j" x="347" y="52">any-expression</text></a><rect class="l" x="464" y="35" width="25" height="25" rx="7"/><text class="j" x="474" y="52">)</text><rect class="l" x="499" y="35" width="28" height="25" rx="7"/><text class="j" x="509" y="52">»</text><a xlink:href="#any"><rect class="r" x="537" y="35" width="43" height="25"/><text class="j" x="547" y="52">any</text></a><rect class="l" x="25" y="65" width="25" height="25" rx="7"/><text class="j" x="35" y="82">(</text><rect class="l" x="60" y="65" width="87" height="25" rx="7"/><text class="j" x="70" y="82">if-value-let</text><rect class="l" x="157" y="65" width="25" height="25" rx="7"/><text class="j" x="167" y="82">[</text><a xlink:href="#symbol"><rect class="r" x="192" y="65" width="64" height="25"/><text class="j" x="202" y="82">symbol</text></a><a xlink:href="#any:binding"><rect class="r" x="266" y="65" width="94" height="25"/><text class="j" x="276" y="82">any:binding</text></a><rect class="l" x="370" y="65" width="25" height="25" rx="7"/><text class="j" x="380" y="82">]</text><a xlink:href="#any-expression"><rect class="r" x="405" y="65" width="117" height="25"/><text class="j" x="415" y="82">any-expression</text></a><a xlink:href="#any-expression"><rect class="r" x="532" y="65" width="117" height="25"/><text class="j" x="542" y="82">any-expression</text></a><rect class="l" x="659" y="65" width="25" height="25" rx="7"/><text class="j" x="669" y="82">)</text><rect class="l" x="694" y="65" width="28" height="25" rx="7"/><text class="j" x="704" y="82">»</text><a xlink:href="#any"><rect class="r" x="732" y="65" width="43" height="25"/><text class="j" x="742" y="82">any</text></a><rect class="l" x="25" y="95" width="25" height="25" rx="7"/><text class="j" x="35" y="112">(</text><rect class="l" x="60" y="95" width="55" height="25" rx="7"/><text class="j" x="70" y="112">when</text><a xlink:href="#boolean"><rect class="r" x="125" y="95" width="71" height="25"/><text class="j" x="135" y="112">boolean</text></a><a xlink:href="#any-expression"><rect class="r" x="206" y="95" width="117" height="25"/><text class="j" x="216" y="112">any-expression</text></a><rect class="l" x="333" y="95" width="25" height="25" rx="7"/><text class="j" x="343" y="112">)</text><rect class="l" x="368" y="95" width="28" height="25" rx="7"/><text class="j" x="378" y="112">»</text><a xlink:href="#any"><rect class="r" x="406" y="95" width="43" height="25"/><text class="j" x="416" y="112">any</text></a><rect class="l" x="25" y="125" width="25" height="25" rx="7"/><text class="j" x="35" y="142">(</text><rect class="l" x="60" y="125" width="94" height="25" rx="7"/><text class="j" x="70" y="142">when-value</text><a xlink:href="#symbol"><rect class="r" x="164" y="125" width="64" height="25"/><text class="j" x="174" y="142">symbol</text></a><a xlink:href="#any-expression:binding"><rect class="r" x="238" y="125" width="168" height="25"/><text class="j" x="248" y="142">any-expression:binding</text></a><rect class="l" x="416" y="125" width="25" height="25" rx="7"/><text class="j" x="426" y="142">)</text><rect class="l" x="451" y="125" width="28" height="25" rx="7"/><text class="j" x="461" y="142">»</text><a xlink:href="#any"><rect class="r" x="489" y="125" width="43" height="25"/><text class="j" x="499" y="142">any</text></a><rect class="l" x="25" y="155" width="25" height="25" rx="7"/><text class="j" x="35" y="172">(</text><rect class="l" x="60" y="155" width="115" height="25" rx="7"/><text class="j" x="70" y="172">when-value-let</text><rect class="l" x="185" y="155" width="25" height="25" rx="7"/><text class="j" x="195" y="172">[</text><a xlink:href="#symbol"><rect class="r" x="220" y="155" width="64" height="25"/><text class="j" x="230" y="172">symbol</text></a><a xlink:href="#any:binding"><rect class="r" x="294" y="155" width="94" height="25"/><text class="j" x="304" y="172">any:binding</text></a><rect class="l" x="398" y="155" width="25" height="25" rx="7"/><text class="j" x="408" y="172">]</text><a xlink:href="#any-expression"><rect class="r" x="433" y="155" width="117" height="25"/><text class="j" x="443" y="172">any-expression</text></a><rect class="l" x="560" y="155" width="25" height="25" rx="7"/><text class="j" x="570" y="172">)</text><rect class="l" x="595" y="155" width="28" height="25" rx="7"/><text class="j" x="605" y="172">»</text><a xlink:href="#any"><rect class="r" x="633" y="155" width="43" height="25"/><text class="j" x="643" y="172">any</text></a></svg>