<svg version="1.1" xmlns:xlink="http://www.w3.org/1999/xlink" xmlns="http://www.w3.org/2000/svg" width="820" height="185" viewbox="0 0 820 185"><defs><style type="text/css">.c{fill:none;stroke:#222222;}.j{fill:#000000;font-family:Verdana,Sans-serif;font-size:12px;}.l{fill:#90d9ff;stroke:#222222;}.r{fill:#d3f0ff;stroke:#222222;}</style></defs><path class="c" d="M0 22h25m27 0h10m25 0h10m71 0h10m25 0h10m117 0h10m46 0h10m117 0h10m28 0h10m43 0h211m-800 25q0 5 5 5h5m62 0h10m25 0h10m64 0h10m25 0h10m117 0h10m46 0h10m117 0h10m28 0h10m43 0h168q5 0 5-5m-790 30q0 5 5 5h5m82 0h10m25 0h10m64 0h10m29 0h10m94 0h10m25 0h10m117 0h10m46 0h10m117 0h10m28 0h10m43 0h5q5 0 5-5m-790 30q0 5 5 5h5m55 0h10m25 0h10m71 0h10m25 0h10m117 0h10m28 0h10m43 0h351q5 0 5-5m-790 30q0 5 5 5h5m90 0h10m25 0h10m64 0h10m25 0h10m117 0h10m28 0h10m43 0h323q5 0 5-5m-795-115q5 0 5 5v140q0 5 5 5h5m110 0h10m25 0h10m64 0h10m29 0h10m94 0h10m25 0h10m117 0h10m28 0h10m43 0h160q5 0 5-5v-140q0-5 5-5m5 0h5"/><rect class="l" x="25" y="5" width="27" height="25" rx="7"/><text class="j" x="35" y="22">if</text><rect class="l" x="62" y="5" width="25" height="25" rx="7"/><text class="j" x="72" y="22">(</text><a xlink:href="#boolean"><rect class="r" x="97" y="5" width="71" height="25"/><text class="j" x="107" y="22">boolean</text></a><rect class="l" x="178" y="5" width="25" height="25" rx="7"/><text class="j" x="188" y="22">)</text><a xlink:href="#any-expression"><rect class="r" x="213" y="5" width="117" height="25"/><text class="j" x="223" y="22">any-expression</text></a><rect class="l" x="340" y="5" width="46" height="25" rx="7"/><text class="j" x="350" y="22">else</text><a xlink:href="#any-expression"><rect class="r" x="396" y="5" width="117" height="25"/><text class="j" x="406" y="22">any-expression</text></a><rect class="l" x="523" y="5" width="28" height="25" rx="7"/><text class="j" x="533" y="22">»</text><a xlink:href="#any"><rect class="r" x="561" y="5" width="43" height="25"/><text class="j" x="571" y="22">any</text></a><rect class="l" x="25" y="35" width="62" height="25" rx="7"/><text class="j" x="35" y="52">ifValue</text><rect class="l" x="97" y="35" width="25" height="25" rx="7"/><text class="j" x="107" y="52">(</text><a xlink:href="#symbol"><rect class="r" x="132" y="35" width="64" height="25"/><text class="j" x="142" y="52">symbol</text></a><rect class="l" x="206" y="35" width="25" height="25" rx="7"/><text class="j" x="216" y="52">)</text><a xlink:href="#any-expression"><rect class="r" x="241" y="35" width="117" height="25"/><text class="j" x="251" y="52">any-expression</text></a><rect class="l" x="368" y="35" width="46" height="25" rx="7"/><text class="j" x="378" y="52">else</text><a xlink:href="#any-expression"><rect class="r" x="424" y="35" width="117" height="25"/><text class="j" x="434" y="52">any-expression</text></a><rect class="l" x="551" y="35" width="28" height="25" rx="7"/><text class="j" x="561" y="52">»</text><a xlink:href="#any"><rect class="r" x="589" y="35" width="43" height="25"/><text class="j" x="599" y="52">any</text></a><rect class="l" x="25" y="65" width="82" height="25" rx="7"/><text class="j" x="35" y="82">ifValueLet</text><rect class="l" x="117" y="65" width="25" height="25" rx="7"/><text class="j" x="127" y="82">(</text><a xlink:href="#symbol"><rect class="r" x="152" y="65" width="64" height="25"/><text class="j" x="162" y="82">symbol</text></a><rect class="l" x="226" y="65" width="29" height="25" rx="7"/><text class="j" x="236" y="82">=</text><a xlink:href="#any:binding"><rect class="r" x="265" y="65" width="94" height="25"/><text class="j" x="275" y="82">any:binding</text></a><rect class="l" x="369" y="65" width="25" height="25" rx="7"/><text class="j" x="379" y="82">)</text><a xlink:href="#any-expression"><rect class="r" x="404" y="65" width="117" height="25"/><text class="j" x="414" y="82">any-expression</text></a><rect class="l" x="531" y="65" width="46" height="25" rx="7"/><text class="j" x="541" y="82">else</text><a xlink:href="#any-expression"><rect class="r" x="587" y="65" width="117" height="25"/><text class="j" x="597" y="82">any-expression</text></a><rect class="l" x="714" y="65" width="28" height="25" rx="7"/><text class="j" x="724" y="82">»</text><a xlink:href="#any"><rect class="r" x="752" y="65" width="43" height="25"/><text class="j" x="762" y="82">any</text></a><rect class="l" x="25" y="95" width="55" height="25" rx="7"/><text class="j" x="35" y="112">when</text><rect class="l" x="90" y="95" width="25" height="25" rx="7"/><text class="j" x="100" y="112">(</text><a xlink:href="#boolean"><rect class="r" x="125" y="95" width="71" height="25"/><text class="j" x="135" y="112">boolean</text></a><rect class="l" x="206" y="95" width="25" height="25" rx="7"/><text class="j" x="216" y="112">)</text><a xlink:href="#any-expression"><rect class="r" x="241" y="95" width="117" height="25"/><text class="j" x="251" y="112">any-expression</text></a><rect class="l" x="368" y="95" width="28" height="25" rx="7"/><text class="j" x="378" y="112">»</text><a xlink:href="#any"><rect class="r" x="406" y="95" width="43" height="25"/><text class="j" x="416" y="112">any</text></a><rect class="l" x="25" y="125" width="90" height="25" rx="7"/><text class="j" x="35" y="142">whenValue</text><rect class="l" x="125" y="125" width="25" height="25" rx="7"/><text class="j" x="135" y="142">(</text><a xlink:href="#symbol"><rect class="r" x="160" y="125" width="64" height="25"/><text class="j" x="170" y="142">symbol</text></a><rect class="l" x="234" y="125" width="25" height="25" rx="7"/><text class="j" x="244" y="142">)</text><a xlink:href="#any-expression"><rect class="r" x="269" y="125" width="117" height="25"/><text class="j" x="279" y="142">any-expression</text></a><rect class="l" x="396" y="125" width="28" height="25" rx="7"/><text class="j" x="406" y="142">»</text><a xlink:href="#any"><rect class="r" x="434" y="125" width="43" height="25"/><text class="j" x="444" y="142">any</text></a><rect class="l" x="25" y="155" width="110" height="25" rx="7"/><text class="j" x="35" y="172">whenValueLet</text><rect class="l" x="145" y="155" width="25" height="25" rx="7"/><text class="j" x="155" y="172">(</text><a xlink:href="#symbol"><rect class="r" x="180" y="155" width="64" height="25"/><text class="j" x="190" y="172">symbol</text></a><rect class="l" x="254" y="155" width="29" height="25" rx="7"/><text class="j" x="264" y="172">=</text><a xlink:href="#any:binding"><rect class="r" x="293" y="155" width="94" height="25"/><text class="j" x="303" y="172">any:binding</text></a><rect class="l" x="397" y="155" width="25" height="25" rx="7"/><text class="j" x="407" y="172">)</text><a xlink:href="#any-expression"><rect class="r" x="432" y="155" width="117" height="25"/><text class="j" x="442" y="172">any-expression</text></a><rect class="l" x="559" y="155" width="28" height="25" rx="7"/><text class="j" x="569" y="172">»</text><a xlink:href="#any"><rect class="r" x="597" y="155" width="43" height="25"/><text class="j" x="607" y="172">any</text></a></svg>