<!--
RULE = (('(''cond'  ( ( boolean any-expression { boolean any-expression } any-expression')' '»' any ) ) ) |
('(''if'  ( ( boolean any-expression any-expression')' '»' any ) ) ) |
('(''if-value'  ( ( symbol any-expression any-expression')' '»' any ) ) ) |
('(''if-value-let'  ( ( '[' symbol any:binding ']' any-expression any-expression')' '»' any ) ) ) |
('(''when'  ( ( boolean any-expression')' '»' any ) ) ) |
('(''when-value'  ( ( symbol any-expression:binding')' '»' any ) ) ) |
('(''when-value-let'  ( ( '[' symbol any:binding']' any-expression')' '»' any ) ) ));
-->
<svg version="1.1" xmlns:xlink="http://www.w3.org/1999/xlink" xmlns="http://www.w3.org/2000/svg" width="884" height="245" viewbox="0 0 884 245"><defs><style type="text/css">.c{fill: none; stroke: #888888; stroke-width: 2px;}.j{fill:#000000;font-family:Verdana,Sans-serif;font-size:12px;}.l{fill:#90d9ff;stroke:#222222;}.r{fill:#d3f0ff;stroke:#222222;}</style></defs><path class="c" d="M0 33h25m25 0h10m50 0h10m71 0h10m117 0h50m-5 0q-5 0-5-5v-17q0-5 5-5h208q5 0 5 5v17q0 5-5 5m-132 0h10m117 0h40m-273 0q5 0 5 5v8q0 5 5 5h248q5 0 5-5v-8q0-5 5-5m5 0h10m117 0h10m25 0h10m28 0h10m43 0h20m-864 40q0 5 5 5h5m25 0h10m27 0h10m71 0h10m117 0h10m117 0h10m25 0h10m28 0h10m43 0h316q5 0 5-5m-854 30q0 5 5 5h5m25 0h10m66 0h10m64 0h10m117 0h10m117 0h10m25 0h10m28 0h10m43 0h284q5 0 5-5m-854 30q0 5 5 5h5m25 0h10m87 0h10m25 0h10m64 0h10m94 0h10m25 0h10m117 0h10m117 0h10m25 0h10m28 0h10m43 0h89q5 0 5-5m-854 30q0 5 5 5h5m25 0h10m55 0h10m71 0h10m117 0h10m25 0h10m28 0h10m43 0h415q5 0 5-5m-854 30q0 5 5 5h5m25 0h10m94 0h10m64 0h10m168 0h10m25 0h10m28 0h10m43 0h332q5 0 5-5m-859-160q5 0 5 5v185q0 5 5 5h5m25 0h10m115 0h10m25 0h10m64 0h10m94 0h10m25 0h10m117 0h10m25 0h10m28 0h10m43 0h188q5 0 5-5v-185q0-5 5-5m5 0h5"/><rect class="l" x="25" y="20" width="25" height="25" rx="7"/><text class="j" x="35" y="37">(</text><rect class="l" x="60" y="20" width="50" height="25" rx="7"/><text class="j" x="70" y="37">cond</text><a xlink:href="#boolean"><rect class="r" x="120" y="20" width="71" height="25"/><text class="j" x="130" y="37">boolean</text></a><a xlink:href="#any-expression"><rect class="r" x="201" y="20" width="117" height="25"/><text class="j" x="211" y="37">any-expression</text></a><a xlink:href="#boolean"><rect class="r" x="368" y="20" width="71" height="25"/><text class="j" x="378" y="37">boolean</text></a><a xlink:href="#any-expression"><rect class="r" x="449" y="20" width="117" height="25"/><text class="j" x="459" y="37">any-expression</text></a><a xlink:href="#any-expression"><rect class="r" x="616" y="20" width="117" height="25"/><text class="j" x="626" y="37">any-expression</text></a><rect class="l" x="743" y="20" width="25" height="25" rx="7"/><text class="j" x="753" y="37">)</text><rect class="l" x="778" y="20" width="28" height="25" rx="7"/><text class="j" x="788" y="37">»</text><a xlink:href="#any"><rect class="r" x="816" y="20" width="43" height="25"/><text class="j" x="826" y="37">any</text></a><rect class="l" x="25" y="65" width="25" height="25" rx="7"/><text class="j" x="35" y="82">(</text><rect class="l" x="60" y="65" width="27" height="25" rx="7"/><text class="j" x="70" y="82">if</text><a xlink:href="#boolean"><rect class="r" x="97" y="65" width="71" height="25"/><text class="j" x="107" y="82">boolean</text></a><a xlink:href="#any-expression"><rect class="r" x="178" y="65" width="117" height="25"/><text class="j" x="188" y="82">any-expression</text></a><a xlink:href="#any-expression"><rect class="r" x="305" y="65" width="117" height="25"/><text class="j" x="315" y="82">any-expression</text></a><rect class="l" x="432" y="65" width="25" height="25" rx="7"/><text class="j" x="442" y="82">)</text><rect class="l" x="467" y="65" width="28" height="25" rx="7"/><text class="j" x="477" y="82">»</text><a xlink:href="#any"><rect class="r" x="505" y="65" width="43" height="25"/><text class="j" x="515" y="82">any</text></a><rect class="l" x="25" y="95" width="25" height="25" rx="7"/><text class="j" x="35" y="112">(</text><rect class="l" x="60" y="95" width="66" height="25" rx="7"/><text class="j" x="70" y="112">if-value</text><a xlink:href="#symbol"><rect class="r" x="136" y="95" width="64" height="25"/><text class="j" x="146" y="112">symbol</text></a><a xlink:href="#any-expression"><rect class="r" x="210" y="95" width="117" height="25"/><text class="j" x="220" y="112">any-expression</text></a><a xlink:href="#any-expression"><rect class="r" x="337" y="95" width="117" height="25"/><text class="j" x="347" y="112">any-expression</text></a><rect class="l" x="464" y="95" width="25" height="25" rx="7"/><text class="j" x="474" y="112">)</text><rect class="l" x="499" y="95" width="28" height="25" rx="7"/><text class="j" x="509" y="112">»</text><a xlink:href="#any"><rect class="r" x="537" y="95" width="43" height="25"/><text class="j" x="547" y="112">any</text></a><rect class="l" x="25" y="125" width="25" height="25" rx="7"/><text class="j" x="35" y="142">(</text><rect class="l" x="60" y="125" width="87" height="25" rx="7"/><text class="j" x="70" y="142">if-value-let</text><rect class="l" x="157" y="125" width="25" height="25" rx="7"/><text class="j" x="167" y="142">[</text><a xlink:href="#symbol"><rect class="r" x="192" y="125" width="64" height="25"/><text class="j" x="202" y="142">symbol</text></a><a xlink:href="#any:binding"><rect class="r" x="266" y="125" width="94" height="25"/><text class="j" x="276" y="142">any:binding</text></a><rect class="l" x="370" y="125" width="25" height="25" rx="7"/><text class="j" x="380" y="142">]</text><a xlink:href="#any-expression"><rect class="r" x="405" y="125" width="117" height="25"/><text class="j" x="415" y="142">any-expression</text></a><a xlink:href="#any-expression"><rect class="r" x="532" y="125" width="117" height="25"/><text class="j" x="542" y="142">any-expression</text></a><rect class="l" x="659" y="125" width="25" height="25" rx="7"/><text class="j" x="669" y="142">)</text><rect class="l" x="694" y="125" width="28" height="25" rx="7"/><text class="j" x="704" y="142">»</text><a xlink:href="#any"><rect class="r" x="732" y="125" width="43" height="25"/><text class="j" x="742" y="142">any</text></a><rect class="l" x="25" y="155" width="25" height="25" rx="7"/><text class="j" x="35" y="172">(</text><rect class="l" x="60" y="155" width="55" height="25" rx="7"/><text class="j" x="70" y="172">when</text><a xlink:href="#boolean"><rect class="r" x="125" y="155" width="71" height="25"/><text class="j" x="135" y="172">boolean</text></a><a xlink:href="#any-expression"><rect class="r" x="206" y="155" width="117" height="25"/><text class="j" x="216" y="172">any-expression</text></a><rect class="l" x="333" y="155" width="25" height="25" rx="7"/><text class="j" x="343" y="172">)</text><rect class="l" x="368" y="155" width="28" height="25" rx="7"/><text class="j" x="378" y="172">»</text><a xlink:href="#any"><rect class="r" x="406" y="155" width="43" height="25"/><text class="j" x="416" y="172">any</text></a><rect class="l" x="25" y="185" width="25" height="25" rx="7"/><text class="j" x="35" y="202">(</text><rect class="l" x="60" y="185" width="94" height="25" rx="7"/><text class="j" x="70" y="202">when-value</text><a xlink:href="#symbol"><rect class="r" x="164" y="185" width="64" height="25"/><text class="j" x="174" y="202">symbol</text></a><a xlink:href="#any-expression:binding"><rect class="r" x="238" y="185" width="168" height="25"/><text class="j" x="248" y="202">any-expression:binding</text></a><rect class="l" x="416" y="185" width="25" height="25" rx="7"/><text class="j" x="426" y="202">)</text><rect class="l" x="451" y="185" width="28" height="25" rx="7"/><text class="j" x="461" y="202">»</text><a xlink:href="#any"><rect class="r" x="489" y="185" width="43" height="25"/><text class="j" x="499" y="202">any</text></a><rect class="l" x="25" y="215" width="25" height="25" rx="7"/><text class="j" x="35" y="232">(</text><rect class="l" x="60" y="215" width="115" height="25" rx="7"/><text class="j" x="70" y="232">when-value-let</text><rect class="l" x="185" y="215" width="25" height="25" rx="7"/><text class="j" x="195" y="232">[</text><a xlink:href="#symbol"><rect class="r" x="220" y="215" width="64" height="25"/><text class="j" x="230" y="232">symbol</text></a><a xlink:href="#any:binding"><rect class="r" x="294" y="215" width="94" height="25"/><text class="j" x="304" y="232">any:binding</text></a><rect class="l" x="398" y="215" width="25" height="25" rx="7"/><text class="j" x="408" y="232">]</text><a xlink:href="#any-expression"><rect class="r" x="433" y="215" width="117" height="25"/><text class="j" x="443" y="232">any-expression</text></a><rect class="l" x="560" y="215" width="25" height="25" rx="7"/><text class="j" x="570" y="232">)</text><rect class="l" x="595" y="215" width="28" height="25" rx="7"/><text class="j" x="605" y="232">»</text><a xlink:href="#any"><rect class="r" x="633" y="215" width="43" height="25"/><text class="j" x="643" y="232">any</text></a></svg>