<!--
RULE = ( ( ( 'if' '(' boolean ')' any-expression 'else' any-expression '»' any ) )  |
 ( ( 'if' '(' boolean ')' any-expression 'else' any-expression '»' any ) )  |
 ( ( 'ifValue' '(' symbol ')' any-expression 'else' any-expression '»' any ) )  |
 ( ( 'ifValueLet' '(' symbol '=' any:binding ')'  any-expression 'else' any-expression '»' any ) )  |
 ( ( 'when' '(' boolean ')' any-expression '»' any ) )  |
 ( ( 'whenValue' '(' symbol ')' any-expression '»' any ) )  |
 ( ( 'whenValueLet' '(' symbol '=' any:binding ')' any-expression '»' any ) ) );
-->
<svg version="1.1" xmlns:xlink="http://www.w3.org/1999/xlink" xmlns="http://www.w3.org/2000/svg" width="820" height="215" viewbox="0 0 820 215"><defs><style type="text/css">.c{fill: none; stroke: #888888; stroke-width: 2px;}.j{fill:#000000;font-family:Verdana,Sans-serif;font-size:12px;}.l{fill:#90d9ff;stroke:#222222;}.r{fill:#d3f0ff;stroke:#222222;}</style></defs><path class="c" d="M0 18h25m27 0h10m25 0h10m71 0h10m25 0h10m117 0h10m46 0h10m117 0h10m28 0h10m43 0h211m-800 25q0 5 5 5h5m27 0h10m25 0h10m71 0h10m25 0h10m117 0h10m46 0h10m117 0h10m28 0h10m43 0h196q5 0 5-5m-790 30q0 5 5 5h5m62 0h10m25 0h10m64 0h10m25 0h10m117 0h10m46 0h10m117 0h10m28 0h10m43 0h168q5 0 5-5m-790 30q0 5 5 5h5m82 0h10m25 0h10m64 0h10m29 0h10m94 0h10m25 0h10m117 0h10m46 0h10m117 0h10m28 0h10m43 0h5q5 0 5-5m-790 30q0 5 5 5h5m55 0h10m25 0h10m71 0h10m25 0h10m117 0h10m28 0h10m43 0h351q5 0 5-5m-790 30q0 5 5 5h5m90 0h10m25 0h10m64 0h10m25 0h10m117 0h10m28 0h10m43 0h323q5 0 5-5m-795-145q5 0 5 5v170q0 5 5 5h5m110 0h10m25 0h10m64 0h10m29 0h10m94 0h10m25 0h10m117 0h10m28 0h10m43 0h160q5 0 5-5v-170q0-5 5-5m5 0h5"/><rect class="l" x="25" y="5" width="27" height="25" rx="7"/><text class="j" x="35" y="22">if</text><rect class="l" x="62" y="5" width="25" height="25" rx="7"/><text class="j" x="72" y="22">(</text><a xlink:href="#boolean"><rect class="r" x="97" y="5" width="71" height="25"/><text class="j" x="107" y="22">boolean</text></a><rect class="l" x="178" y="5" width="25" height="25" rx="7"/><text class="j" x="188" y="22">)</text><a xlink:href="#any-expression"><rect class="r" x="213" y="5" width="117" height="25"/><text class="j" x="223" y="22">any-expression</text></a><rect class="l" x="340" y="5" width="46" height="25" rx="7"/><text class="j" x="350" y="22">else</text><a xlink:href="#any-expression"><rect class="r" x="396" y="5" width="117" height="25"/><text class="j" x="406" y="22">any-expression</text></a><rect class="l" x="523" y="5" width="28" height="25" rx="7"/><text class="j" x="533" y="22">»</text><a xlink:href="#any"><rect class="r" x="561" y="5" width="43" height="25"/><text class="j" x="571" y="22">any</text></a><rect class="l" x="25" y="35" width="27" height="25" rx="7"/><text class="j" x="35" y="52">if</text><rect class="l" x="62" y="35" width="25" height="25" rx="7"/><text class="j" x="72" y="52">(</text><a xlink:href="#boolean"><rect class="r" x="97" y="35" width="71" height="25"/><text class="j" x="107" y="52">boolean</text></a><rect class="l" x="178" y="35" width="25" height="25" rx="7"/><text class="j" x="188" y="52">)</text><a xlink:href="#any-expression"><rect class="r" x="213" y="35" width="117" height="25"/><text class="j" x="223" y="52">any-expression</text></a><rect class="l" x="340" y="35" width="46" height="25" rx="7"/><text class="j" x="350" y="52">else</text><a xlink:href="#any-expression"><rect class="r" x="396" y="35" width="117" height="25"/><text class="j" x="406" y="52">any-expression</text></a><rect class="l" x="523" y="35" width="28" height="25" rx="7"/><text class="j" x="533" y="52">»</text><a xlink:href="#any"><rect class="r" x="561" y="35" width="43" height="25"/><text class="j" x="571" y="52">any</text></a><rect class="l" x="25" y="65" width="62" height="25" rx="7"/><text class="j" x="35" y="82">ifValue</text><rect class="l" x="97" y="65" width="25" height="25" rx="7"/><text class="j" x="107" y="82">(</text><a xlink:href="#symbol"><rect class="r" x="132" y="65" width="64" height="25"/><text class="j" x="142" y="82">symbol</text></a><rect class="l" x="206" y="65" width="25" height="25" rx="7"/><text class="j" x="216" y="82">)</text><a xlink:href="#any-expression"><rect class="r" x="241" y="65" width="117" height="25"/><text class="j" x="251" y="82">any-expression</text></a><rect class="l" x="368" y="65" width="46" height="25" rx="7"/><text class="j" x="378" y="82">else</text><a xlink:href="#any-expression"><rect class="r" x="424" y="65" width="117" height="25"/><text class="j" x="434" y="82">any-expression</text></a><rect class="l" x="551" y="65" width="28" height="25" rx="7"/><text class="j" x="561" y="82">»</text><a xlink:href="#any"><rect class="r" x="589" y="65" width="43" height="25"/><text class="j" x="599" y="82">any</text></a><rect class="l" x="25" y="95" width="82" height="25" rx="7"/><text class="j" x="35" y="112">ifValueLet</text><rect class="l" x="117" y="95" width="25" height="25" rx="7"/><text class="j" x="127" y="112">(</text><a xlink:href="#symbol"><rect class="r" x="152" y="95" width="64" height="25"/><text class="j" x="162" y="112">symbol</text></a><rect class="l" x="226" y="95" width="29" height="25" rx="7"/><text class="j" x="236" y="112">=</text><a xlink:href="#any:binding"><rect class="r" x="265" y="95" width="94" height="25"/><text class="j" x="275" y="112">any:binding</text></a><rect class="l" x="369" y="95" width="25" height="25" rx="7"/><text class="j" x="379" y="112">)</text><a xlink:href="#any-expression"><rect class="r" x="404" y="95" width="117" height="25"/><text class="j" x="414" y="112">any-expression</text></a><rect class="l" x="531" y="95" width="46" height="25" rx="7"/><text class="j" x="541" y="112">else</text><a xlink:href="#any-expression"><rect class="r" x="587" y="95" width="117" height="25"/><text class="j" x="597" y="112">any-expression</text></a><rect class="l" x="714" y="95" width="28" height="25" rx="7"/><text class="j" x="724" y="112">»</text><a xlink:href="#any"><rect class="r" x="752" y="95" width="43" height="25"/><text class="j" x="762" y="112">any</text></a><rect class="l" x="25" y="125" width="55" height="25" rx="7"/><text class="j" x="35" y="142">when</text><rect class="l" x="90" y="125" width="25" height="25" rx="7"/><text class="j" x="100" y="142">(</text><a xlink:href="#boolean"><rect class="r" x="125" y="125" width="71" height="25"/><text class="j" x="135" y="142">boolean</text></a><rect class="l" x="206" y="125" width="25" height="25" rx="7"/><text class="j" x="216" y="142">)</text><a xlink:href="#any-expression"><rect class="r" x="241" y="125" width="117" height="25"/><text class="j" x="251" y="142">any-expression</text></a><rect class="l" x="368" y="125" width="28" height="25" rx="7"/><text class="j" x="378" y="142">»</text><a xlink:href="#any"><rect class="r" x="406" y="125" width="43" height="25"/><text class="j" x="416" y="142">any</text></a><rect class="l" x="25" y="155" width="90" height="25" rx="7"/><text class="j" x="35" y="172">whenValue</text><rect class="l" x="125" y="155" width="25" height="25" rx="7"/><text class="j" x="135" y="172">(</text><a xlink:href="#symbol"><rect class="r" x="160" y="155" width="64" height="25"/><text class="j" x="170" y="172">symbol</text></a><rect class="l" x="234" y="155" width="25" height="25" rx="7"/><text class="j" x="244" y="172">)</text><a xlink:href="#any-expression"><rect class="r" x="269" y="155" width="117" height="25"/><text class="j" x="279" y="172">any-expression</text></a><rect class="l" x="396" y="155" width="28" height="25" rx="7"/><text class="j" x="406" y="172">»</text><a xlink:href="#any"><rect class="r" x="434" y="155" width="43" height="25"/><text class="j" x="444" y="172">any</text></a><rect class="l" x="25" y="185" width="110" height="25" rx="7"/><text class="j" x="35" y="202">whenValueLet</text><rect class="l" x="145" y="185" width="25" height="25" rx="7"/><text class="j" x="155" y="202">(</text><a xlink:href="#symbol"><rect class="r" x="180" y="185" width="64" height="25"/><text class="j" x="190" y="202">symbol</text></a><rect class="l" x="254" y="185" width="29" height="25" rx="7"/><text class="j" x="264" y="202">=</text><a xlink:href="#any:binding"><rect class="r" x="293" y="185" width="94" height="25"/><text class="j" x="303" y="202">any:binding</text></a><rect class="l" x="397" y="185" width="25" height="25" rx="7"/><text class="j" x="407" y="202">)</text><a xlink:href="#any-expression"><rect class="r" x="432" y="185" width="117" height="25"/><text class="j" x="442" y="202">any-expression</text></a><rect class="l" x="559" y="185" width="28" height="25" rx="7"/><text class="j" x="569" y="202">»</text><a xlink:href="#any"><rect class="r" x="597" y="185" width="43" height="25"/><text class="j" x="607" y="202">any</text></a></svg>