<svg version="1.1" xmlns:xlink="http://www.w3.org/1999/xlink" xmlns="http://www.w3.org/2000/svg" width="626" height="413" viewbox="0 0 626 413"><defs><style type="text/css">.c{fill: none; stroke: #888888; stroke-width: 2px;}.j{fill:#000000;font-family:Dialog,Sans-serif;font-size:12px;}.l{fill:#90d9ff;stroke:#222222;}.r{fill:#d3f0ff;stroke:#222222;}</style></defs><path class="c" d="M0 17h25m25 0h10m26 0h30m65 0h10m65 0h10m25 0h10m27 0h10m65 0h92m-394 0q5 0 5 5v19q0 5 5 5h5m101 0h10m65 0h10m25 0h10m27 0h10m101 0h5q5 0 5-5v-19q0-5 5-5m5 0h126m-606 68q0 5 5 5h5m25 0h10m30 0h30m65 0h30m-5 0q-5 0-5-5v-16q0-5 5-5h75q5 0 5 5v16q0 5-5 5m-5 0h30m25 0h10m27 0h10m65 0h128m-470 0q5 0 5 5v34q0 5 5 5h5m101 0h30m-5 0q-5 0-5-5v-16q0-5 5-5h111q5 0 5 5v16q0 5-5 5m-5 0h30m25 0h10m27 0h10m101 0h5q5 0 5-5v-34q0-5 5-5m5 0h31q5 0 5-5m-596 88q0 5 5 5h5m25 0h10m24 0h30m65 0h30m-5 0q-5 0-5-5v-16q0-5 5-5h75q5 0 5 5v16q0 5-5 5m-5 0h30m25 0h10m27 0h10m65 0h128m-470 0q5 0 5 5v34q0 5 5 5h5m101 0h30m-5 0q-5 0-5-5v-16q0-5 5-5h111q5 0 5 5v16q0 5-5 5m-5 0h30m25 0h10m27 0h10m101 0h5q5 0 5-5v-34q0-5 5-5m5 0h37q5 0 5-5m-596 73q0 5 5 5h5m25 0h10m43 0h30m65 0h10m25 0h10m27 0h10m65 0h92m-319 0q5 0 5 5v19q0 5 5 5h5m101 0h10m25 0h10m27 0h10m101 0h5q5 0 5-5v-19q0-5 5-5m5 0h169q5 0 5-5m-596 58q0 5 5 5h5m25 0h10m37 0h30m65 0h10m65 0h10m25 0h10m27 0h10m65 0h92m-394 0q5 0 5 5v19q0 5 5 5h5m101 0h10m65 0h10m25 0h10m27 0h10m101 0h5q5 0 5-5v-19q0-5 5-5m5 0h100q5 0 5-5m-601-287q5 0 5 5v340q0 5 5 5h5m25 0h10m66 0h10m101 0h10m131 0h10m25 0h10m27 0h30m101 0h20m-136 0q5 0 5 5v19q0 5 5 5h5m65 0h41q5 0 5-5v-19q0-5 5-5m5 0h5q5 0 5-5v-340q0-5 5-5m5 0h5"/><rect class="l" x="25" y="5" width="25" height="24" rx="7"/><text class="j" x="35" y="21">(</text><rect class="l" x="60" y="5" width="26" height="24" rx="7"/><text class="j" x="70" y="21">*</text><a xlink:href="#integer"><rect class="r" x="116" y="5" width="65" height="24"/><text class="j" x="126" y="21">integer</text></a><a xlink:href="#integer"><rect class="r" x="191" y="5" width="65" height="24"/><text class="j" x="201" y="21">integer</text></a><rect class="l" x="266" y="5" width="25" height="24" rx="7"/><text class="j" x="276" y="21">)</text><rect class="l" x="301" y="5" width="27" height="24" rx="7"/><text class="j" x="311" y="21">»</text><a xlink:href="#integer"><rect class="r" x="338" y="5" width="65" height="24"/><text class="j" x="348" y="21">integer</text></a><a xlink:href="#fixed-decimal"><rect class="r" x="116" y="34" width="101" height="24"/><text class="j" x="126" y="50">fixed-decimal</text></a><a xlink:href="#integer"><rect class="r" x="227" y="34" width="65" height="24"/><text class="j" x="237" y="50">integer</text></a><rect class="l" x="302" y="34" width="25" height="24" rx="7"/><text class="j" x="312" y="50">)</text><rect class="l" x="337" y="34" width="27" height="24" rx="7"/><text class="j" x="347" y="50">»</text><a xlink:href="#fixed-decimal"><rect class="r" x="374" y="34" width="101" height="24"/><text class="j" x="384" y="50">fixed-decimal</text></a><rect class="l" x="25" y="78" width="25" height="24" rx="7"/><text class="j" x="35" y="94">(</text><rect class="l" x="60" y="78" width="30" height="24" rx="7"/><text class="j" x="70" y="94">+</text><a xlink:href="#integer"><rect class="r" x="120" y="78" width="65" height="24"/><text class="j" x="130" y="94">integer</text></a><a xlink:href="#integer"><rect class="r" x="215" y="78" width="65" height="24"/><text class="j" x="225" y="94">integer</text></a><rect class="l" x="310" y="78" width="25" height="24" rx="7"/><text class="j" x="320" y="94">)</text><rect class="l" x="345" y="78" width="27" height="24" rx="7"/><text class="j" x="355" y="94">»</text><a xlink:href="#integer"><rect class="r" x="382" y="78" width="65" height="24"/><text class="j" x="392" y="94">integer</text></a><a xlink:href="#fixed-decimal"><rect class="r" x="120" y="122" width="101" height="24"/><text class="j" x="130" y="138">fixed-decimal</text></a><a xlink:href="#fixed-decimal"><rect class="r" x="251" y="122" width="101" height="24"/><text class="j" x="261" y="138">fixed-decimal</text></a><rect class="l" x="382" y="122" width="25" height="24" rx="7"/><text class="j" x="392" y="138">)</text><rect class="l" x="417" y="122" width="27" height="24" rx="7"/><text class="j" x="427" y="138">»</text><a xlink:href="#fixed-decimal"><rect class="r" x="454" y="122" width="101" height="24"/><text class="j" x="464" y="138">fixed-decimal</text></a><rect class="l" x="25" y="166" width="25" height="24" rx="7"/><text class="j" x="35" y="182">(</text><rect class="l" x="60" y="166" width="24" height="24" rx="7"/><text class="j" x="70" y="182">-</text><a xlink:href="#integer"><rect class="r" x="114" y="166" width="65" height="24"/><text class="j" x="124" y="182">integer</text></a><a xlink:href="#integer"><rect class="r" x="209" y="166" width="65" height="24"/><text class="j" x="219" y="182">integer</text></a><rect class="l" x="304" y="166" width="25" height="24" rx="7"/><text class="j" x="314" y="182">)</text><rect class="l" x="339" y="166" width="27" height="24" rx="7"/><text class="j" x="349" y="182">»</text><a xlink:href="#integer"><rect class="r" x="376" y="166" width="65" height="24"/><text class="j" x="386" y="182">integer</text></a><a xlink:href="#fixed-decimal"><rect class="r" x="114" y="210" width="101" height="24"/><text class="j" x="124" y="226">fixed-decimal</text></a><a xlink:href="#fixed-decimal"><rect class="r" x="245" y="210" width="101" height="24"/><text class="j" x="255" y="226">fixed-decimal</text></a><rect class="l" x="376" y="210" width="25" height="24" rx="7"/><text class="j" x="386" y="226">)</text><rect class="l" x="411" y="210" width="27" height="24" rx="7"/><text class="j" x="421" y="226">»</text><a xlink:href="#fixed-decimal"><rect class="r" x="448" y="210" width="101" height="24"/><text class="j" x="458" y="226">fixed-decimal</text></a><rect class="l" x="25" y="239" width="25" height="24" rx="7"/><text class="j" x="35" y="255">(</text><rect class="l" x="60" y="239" width="43" height="24" rx="7"/><text class="j" x="70" y="255">abs</text><a xlink:href="#integer"><rect class="r" x="133" y="239" width="65" height="24"/><text class="j" x="143" y="255">integer</text></a><rect class="l" x="208" y="239" width="25" height="24" rx="7"/><text class="j" x="218" y="255">)</text><rect class="l" x="243" y="239" width="27" height="24" rx="7"/><text class="j" x="253" y="255">»</text><a xlink:href="#integer"><rect class="r" x="280" y="239" width="65" height="24"/><text class="j" x="290" y="255">integer</text></a><a xlink:href="#fixed-decimal"><rect class="r" x="133" y="268" width="101" height="24"/><text class="j" x="143" y="284">fixed-decimal</text></a><rect class="l" x="244" y="268" width="25" height="24" rx="7"/><text class="j" x="254" y="284">)</text><rect class="l" x="279" y="268" width="27" height="24" rx="7"/><text class="j" x="289" y="284">»</text><a xlink:href="#fixed-decimal"><rect class="r" x="316" y="268" width="101" height="24"/><text class="j" x="326" y="284">fixed-decimal</text></a><rect class="l" x="25" y="297" width="25" height="24" rx="7"/><text class="j" x="35" y="313">(</text><rect class="l" x="60" y="297" width="37" height="24" rx="7"/><text class="j" x="70" y="313">div</text><a xlink:href="#integer"><rect class="r" x="127" y="297" width="65" height="24"/><text class="j" x="137" y="313">integer</text></a><a xlink:href="#integer"><rect class="r" x="202" y="297" width="65" height="24"/><text class="j" x="212" y="313">integer</text></a><rect class="l" x="277" y="297" width="25" height="24" rx="7"/><text class="j" x="287" y="313">)</text><rect class="l" x="312" y="297" width="27" height="24" rx="7"/><text class="j" x="322" y="313">»</text><a xlink:href="#integer"><rect class="r" x="349" y="297" width="65" height="24"/><text class="j" x="359" y="313">integer</text></a><a xlink:href="#fixed-decimal"><rect class="r" x="127" y="326" width="101" height="24"/><text class="j" x="137" y="342">fixed-decimal</text></a><a xlink:href="#integer"><rect class="r" x="238" y="326" width="65" height="24"/><text class="j" x="248" y="342">integer</text></a><rect class="l" x="313" y="326" width="25" height="24" rx="7"/><text class="j" x="323" y="342">)</text><rect class="l" x="348" y="326" width="27" height="24" rx="7"/><text class="j" x="358" y="342">»</text><a xlink:href="#fixed-decimal"><rect class="r" x="385" y="326" width="101" height="24"/><text class="j" x="395" y="342">fixed-decimal</text></a><rect class="l" x="25" y="355" width="25" height="24" rx="7"/><text class="j" x="35" y="371">(</text><rect class="l" x="60" y="355" width="66" height="24" rx="7"/><text class="j" x="70" y="371">rescale</text><a xlink:href="#fixed-decimal"><rect class="r" x="136" y="355" width="101" height="24"/><text class="j" x="146" y="371">fixed-decimal</text></a><a xlink:href="#integer:new-scale"><rect class="r" x="247" y="355" width="131" height="24"/><text class="j" x="257" y="371">integer:new-scale</text></a><rect class="l" x="388" y="355" width="25" height="24" rx="7"/><text class="j" x="398" y="371">)</text><rect class="l" x="423" y="355" width="27" height="24" rx="7"/><text class="j" x="433" y="371">»</text><a xlink:href="#fixed-decimal"><rect class="r" x="480" y="355" width="101" height="24"/><text class="j" x="490" y="371">fixed-decimal</text></a><a xlink:href="#integer"><rect class="r" x="480" y="384" width="65" height="24"/><text class="j" x="490" y="400">integer</text></a></svg>