<svg version="1.1" xmlns:xlink="http://www.w3.org/1999/xlink" xmlns="http://www.w3.org/2000/svg" width="631" height="755" viewbox="0 0 631 755"><defs><style type="text/css">.c{fill: none; stroke: #888888; stroke-width: 2px;}.j{fill:#000000;font-family:Verdana,Sans-serif;font-size:12px;}.l{fill:#90d9ff;stroke:#222222;}.r{fill:#d3f0ff;stroke:#222222;}</style></defs><path class="c" d="M0 18h25m25 0h10m28 0h30m65 0h10m65 0h10m25 0h10m28 0h10m65 0h94m-397 0q5 0 5 5v20q0 5 5 5h5m102 0h10m65 0h10m25 0h10m28 0h10m102 0h5q5 0 5-5v-20q0-5 5-5m5 0h126m-611 70q0 5 5 5h5m25 0h10m29 0h30m65 0h30m-5 0q-5 0-5-5v-17q0-5 5-5h75q5 0 5 5v17q0 5-5 5m-5 0h30m25 0h10m28 0h10m65 0h131m-474 0q5 0 5 5v35q0 5 5 5h5m102 0h30m-5 0q-5 0-5-5v-17q0-5 5-5h112q5 0 5 5v17q0 5-5 5m-5 0h30m25 0h10m28 0h10m102 0h5q5 0 5-5v-35q0-5 5-5m5 0h33q5 0 5-5m-601 90q0 5 5 5h5m25 0h10m25 0h30m65 0h30m-5 0q-5 0-5-5v-17q0-5 5-5h75q5 0 5 5v17q0 5-5 5m-5 0h30m25 0h10m28 0h10m65 0h131m-474 0q5 0 5 5v35q0 5 5 5h5m102 0h30m-5 0q-5 0-5-5v-17q0-5 5-5h112q5 0 5 5v17q0 5-5 5m-5 0h30m25 0h10m28 0h10m102 0h5q5 0 5-5v-35q0-5 5-5m5 0h37q5 0 5-5m-601 75q0 5 5 5h5m25 0h10m29 0h30m65 0h10m65 0h94m-249 0q5 0 5 5v20q0 5 5 5h5m102 0h10m102 0h5q5 0 5-5v-20q0-5 5-5m5 0h10m25 0h10m28 0h10m71 0h104q5 0 5-5m-601 60q0 5 5 5h5m25 0h10m38 0h30m65 0h10m65 0h94m-249 0q5 0 5 5v20q0 5 5 5h5m102 0h10m102 0h5q5 0 5-5v-20q0-5 5-5m5 0h10m25 0h10m28 0h10m71 0h95q5 0 5-5m-601 75q0 5 5 5h5m25 0h10m29 0h10m54 0h30m-5 0q-5 0-5-5v-17q0-5 5-5h64q5 0 5 5v17q0 5-5 5m-5 0h30m25 0h10m28 0h10m71 0h200q5 0 5-5m-601 30q0 5 5 5h5m25 0h10m29 0h30m65 0h10m65 0h94m-249 0q5 0 5 5v20q0 5 5 5h5m102 0h10m102 0h5q5 0 5-5v-20q0-5 5-5m5 0h10m25 0h10m28 0h10m71 0h104q5 0 5-5m-601 60q0 5 5 5h5m25 0h10m38 0h30m65 0h10m65 0h94m-249 0q5 0 5 5v20q0 5 5 5h5m102 0h10m102 0h5q5 0 5-5v-20q0-5 5-5m5 0h10m25 0h10m28 0h10m71 0h95q5 0 5-5m-601 60q0 5 5 5h5m25 0h10m43 0h30m65 0h10m25 0h10m28 0h10m65 0h94m-322 0q5 0 5 5v20q0 5 5 5h5m102 0h10m25 0h10m28 0h10m102 0h5q5 0 5-5v-20q0-5 5-5m5 0h171q5 0 5-5m-601 60q0 5 5 5h5m25 0h10m38 0h30m65 0h10m65 0h10m25 0h10m28 0h10m65 0h94m-397 0q5 0 5 5v20q0 5 5 5h5m102 0h10m65 0h10m25 0h10m28 0h10m102 0h5q5 0 5-5v-20q0-5 5-5m5 0h101q5 0 5-5m-601 75q0 5 5 5h5m25 0h10m50 0h10m54 0h30m-5 0q-5 0-5-5v-17q0-5 5-5h64q5 0 5 5v17q0 5-5 5m-5 0h30m25 0h10m28 0h10m71 0h179q5 0 5-5m-606-655q5 0 5 5v680q0 5 5 5h5m25 0h10m65 0h10m102 0h10m134 0h10m25 0h10m28 0h30m102 0h20m-137 0q5 0 5 5v20q0 5 5 5h5m65 0h42q5 0 5-5v-20q0-5 5-5m5 0h5q5 0 5-5v-680q0-5 5-5m5 0h5"/><rect class="l" x="25" y="5" width="25" height="25" rx="7"/><text class="j" x="35" y="22">(</text><rect class="l" x="60" y="5" width="28" height="25" rx="7"/><text class="j" x="70" y="22">*</text><a xlink:href="#integer"><rect class="r" x="118" y="5" width="65" height="25"/><text class="j" x="128" y="22">integer</text></a><a xlink:href="#integer"><rect class="r" x="193" y="5" width="65" height="25"/><text class="j" x="203" y="22">integer</text></a><rect class="l" x="268" y="5" width="25" height="25" rx="7"/><text class="j" x="278" y="22">)</text><rect class="l" x="303" y="5" width="28" height="25" rx="7"/><text class="j" x="313" y="22">»</text><a xlink:href="#integer"><rect class="r" x="341" y="5" width="65" height="25"/><text class="j" x="351" y="22">integer</text></a><a xlink:href="#fixed-decimal"><rect class="r" x="118" y="35" width="102" height="25"/><text class="j" x="128" y="52">fixed-decimal</text></a><a xlink:href="#integer"><rect class="r" x="230" y="35" width="65" height="25"/><text class="j" x="240" y="52">integer</text></a><rect class="l" x="305" y="35" width="25" height="25" rx="7"/><text class="j" x="315" y="52">)</text><rect class="l" x="340" y="35" width="28" height="25" rx="7"/><text class="j" x="350" y="52">»</text><a xlink:href="#fixed-decimal"><rect class="r" x="378" y="35" width="102" height="25"/><text class="j" x="388" y="52">fixed-decimal</text></a><rect class="l" x="25" y="80" width="25" height="25" rx="7"/><text class="j" x="35" y="97">(</text><rect class="l" x="60" y="80" width="29" height="25" rx="7"/><text class="j" x="70" y="97">+</text><a xlink:href="#integer"><rect class="r" x="119" y="80" width="65" height="25"/><text class="j" x="129" y="97">integer</text></a><a xlink:href="#integer"><rect class="r" x="214" y="80" width="65" height="25"/><text class="j" x="224" y="97">integer</text></a><rect class="l" x="309" y="80" width="25" height="25" rx="7"/><text class="j" x="319" y="97">)</text><rect class="l" x="344" y="80" width="28" height="25" rx="7"/><text class="j" x="354" y="97">»</text><a xlink:href="#integer"><rect class="r" x="382" y="80" width="65" height="25"/><text class="j" x="392" y="97">integer</text></a><a xlink:href="#fixed-decimal"><rect class="r" x="119" y="125" width="102" height="25"/><text class="j" x="129" y="142">fixed-decimal</text></a><a xlink:href="#fixed-decimal"><rect class="r" x="251" y="125" width="102" height="25"/><text class="j" x="261" y="142">fixed-decimal</text></a><rect class="l" x="383" y="125" width="25" height="25" rx="7"/><text class="j" x="393" y="142">)</text><rect class="l" x="418" y="125" width="28" height="25" rx="7"/><text class="j" x="428" y="142">»</text><a xlink:href="#fixed-decimal"><rect class="r" x="456" y="125" width="102" height="25"/><text class="j" x="466" y="142">fixed-decimal</text></a><rect class="l" x="25" y="170" width="25" height="25" rx="7"/><text class="j" x="35" y="187">(</text><rect class="l" x="60" y="170" width="25" height="25" rx="7"/><text class="j" x="70" y="187">-</text><a xlink:href="#integer"><rect class="r" x="115" y="170" width="65" height="25"/><text class="j" x="125" y="187">integer</text></a><a xlink:href="#integer"><rect class="r" x="210" y="170" width="65" height="25"/><text class="j" x="220" y="187">integer</text></a><rect class="l" x="305" y="170" width="25" height="25" rx="7"/><text class="j" x="315" y="187">)</text><rect class="l" x="340" y="170" width="28" height="25" rx="7"/><text class="j" x="350" y="187">»</text><a xlink:href="#integer"><rect class="r" x="378" y="170" width="65" height="25"/><text class="j" x="388" y="187">integer</text></a><a xlink:href="#fixed-decimal"><rect class="r" x="115" y="215" width="102" height="25"/><text class="j" x="125" y="232">fixed-decimal</text></a><a xlink:href="#fixed-decimal"><rect class="r" x="247" y="215" width="102" height="25"/><text class="j" x="257" y="232">fixed-decimal</text></a><rect class="l" x="379" y="215" width="25" height="25" rx="7"/><text class="j" x="389" y="232">)</text><rect class="l" x="414" y="215" width="28" height="25" rx="7"/><text class="j" x="424" y="232">»</text><a xlink:href="#fixed-decimal"><rect class="r" x="452" y="215" width="102" height="25"/><text class="j" x="462" y="232">fixed-decimal</text></a><rect class="l" x="25" y="245" width="25" height="25" rx="7"/><text class="j" x="35" y="262">(</text><rect class="l" x="60" y="245" width="29" height="25" rx="7"/><text class="j" x="70" y="262">&lt;</text><a xlink:href="#integer"><rect class="r" x="119" y="245" width="65" height="25"/><text class="j" x="129" y="262">integer</text></a><a xlink:href="#integer"><rect class="r" x="194" y="245" width="65" height="25"/><text class="j" x="204" y="262">integer</text></a><a xlink:href="#fixed-decimal"><rect class="r" x="119" y="275" width="102" height="25"/><text class="j" x="129" y="292">fixed-decimal</text></a><a xlink:href="#fixed-decimal"><rect class="r" x="231" y="275" width="102" height="25"/><text class="j" x="241" y="292">fixed-decimal</text></a><rect class="l" x="363" y="245" width="25" height="25" rx="7"/><text class="j" x="373" y="262">)</text><rect class="l" x="398" y="245" width="28" height="25" rx="7"/><text class="j" x="408" y="262">»</text><a xlink:href="#boolean"><rect class="r" x="436" y="245" width="71" height="25"/><text class="j" x="446" y="262">boolean</text></a><rect class="l" x="25" y="305" width="25" height="25" rx="7"/><text class="j" x="35" y="322">(</text><rect class="l" x="60" y="305" width="38" height="25" rx="7"/><text class="j" x="70" y="322">&lt;=</text><a xlink:href="#integer"><rect class="r" x="128" y="305" width="65" height="25"/><text class="j" x="138" y="322">integer</text></a><a xlink:href="#integer"><rect class="r" x="203" y="305" width="65" height="25"/><text class="j" x="213" y="322">integer</text></a><a xlink:href="#fixed-decimal"><rect class="r" x="128" y="335" width="102" height="25"/><text class="j" x="138" y="352">fixed-decimal</text></a><a xlink:href="#fixed-decimal"><rect class="r" x="240" y="335" width="102" height="25"/><text class="j" x="250" y="352">fixed-decimal</text></a><rect class="l" x="372" y="305" width="25" height="25" rx="7"/><text class="j" x="382" y="322">)</text><rect class="l" x="407" y="305" width="28" height="25" rx="7"/><text class="j" x="417" y="322">»</text><a xlink:href="#boolean"><rect class="r" x="445" y="305" width="71" height="25"/><text class="j" x="455" y="322">boolean</text></a><rect class="l" x="25" y="380" width="25" height="25" rx="7"/><text class="j" x="35" y="397">(</text><rect class="l" x="60" y="380" width="29" height="25" rx="7"/><text class="j" x="70" y="397">=</text><a xlink:href="#value"><rect class="r" x="99" y="380" width="54" height="25"/><text class="j" x="109" y="397">value</text></a><a xlink:href="#value"><rect class="r" x="183" y="380" width="54" height="25"/><text class="j" x="193" y="397">value</text></a><rect class="l" x="267" y="380" width="25" height="25" rx="7"/><text class="j" x="277" y="397">)</text><rect class="l" x="302" y="380" width="28" height="25" rx="7"/><text class="j" x="312" y="397">»</text><a xlink:href="#boolean"><rect class="r" x="340" y="380" width="71" height="25"/><text class="j" x="350" y="397">boolean</text></a><rect class="l" x="25" y="410" width="25" height="25" rx="7"/><text class="j" x="35" y="427">(</text><rect class="l" x="60" y="410" width="29" height="25" rx="7"/><text class="j" x="70" y="427">&gt;</text><a xlink:href="#integer"><rect class="r" x="119" y="410" width="65" height="25"/><text class="j" x="129" y="427">integer</text></a><a xlink:href="#integer"><rect class="r" x="194" y="410" width="65" height="25"/><text class="j" x="204" y="427">integer</text></a><a xlink:href="#fixed-decimal"><rect class="r" x="119" y="440" width="102" height="25"/><text class="j" x="129" y="457">fixed-decimal</text></a><a xlink:href="#fixed-decimal"><rect class="r" x="231" y="440" width="102" height="25"/><text class="j" x="241" y="457">fixed-decimal</text></a><rect class="l" x="363" y="410" width="25" height="25" rx="7"/><text class="j" x="373" y="427">)</text><rect class="l" x="398" y="410" width="28" height="25" rx="7"/><text class="j" x="408" y="427">»</text><a xlink:href="#boolean"><rect class="r" x="436" y="410" width="71" height="25"/><text class="j" x="446" y="427">boolean</text></a><rect class="l" x="25" y="470" width="25" height="25" rx="7"/><text class="j" x="35" y="487">(</text><rect class="l" x="60" y="470" width="38" height="25" rx="7"/><text class="j" x="70" y="487">&gt;=</text><a xlink:href="#integer"><rect class="r" x="128" y="470" width="65" height="25"/><text class="j" x="138" y="487">integer</text></a><a xlink:href="#integer"><rect class="r" x="203" y="470" width="65" height="25"/><text class="j" x="213" y="487">integer</text></a><a xlink:href="#fixed-decimal"><rect class="r" x="128" y="500" width="102" height="25"/><text class="j" x="138" y="517">fixed-decimal</text></a><a xlink:href="#fixed-decimal"><rect class="r" x="240" y="500" width="102" height="25"/><text class="j" x="250" y="517">fixed-decimal</text></a><rect class="l" x="372" y="470" width="25" height="25" rx="7"/><text class="j" x="382" y="487">)</text><rect class="l" x="407" y="470" width="28" height="25" rx="7"/><text class="j" x="417" y="487">»</text><a xlink:href="#boolean"><rect class="r" x="445" y="470" width="71" height="25"/><text class="j" x="455" y="487">boolean</text></a><rect class="l" x="25" y="530" width="25" height="25" rx="7"/><text class="j" x="35" y="547">(</text><rect class="l" x="60" y="530" width="43" height="25" rx="7"/><text class="j" x="70" y="547">abs</text><a xlink:href="#integer"><rect class="r" x="133" y="530" width="65" height="25"/><text class="j" x="143" y="547">integer</text></a><rect class="l" x="208" y="530" width="25" height="25" rx="7"/><text class="j" x="218" y="547">)</text><rect class="l" x="243" y="530" width="28" height="25" rx="7"/><text class="j" x="253" y="547">»</text><a xlink:href="#integer"><rect class="r" x="281" y="530" width="65" height="25"/><text class="j" x="291" y="547">integer</text></a><a xlink:href="#fixed-decimal"><rect class="r" x="133" y="560" width="102" height="25"/><text class="j" x="143" y="577">fixed-decimal</text></a><rect class="l" x="245" y="560" width="25" height="25" rx="7"/><text class="j" x="255" y="577">)</text><rect class="l" x="280" y="560" width="28" height="25" rx="7"/><text class="j" x="290" y="577">»</text><a xlink:href="#fixed-decimal"><rect class="r" x="318" y="560" width="102" height="25"/><text class="j" x="328" y="577">fixed-decimal</text></a><rect class="l" x="25" y="590" width="25" height="25" rx="7"/><text class="j" x="35" y="607">(</text><rect class="l" x="60" y="590" width="38" height="25" rx="7"/><text class="j" x="70" y="607">div</text><a xlink:href="#integer"><rect class="r" x="128" y="590" width="65" height="25"/><text class="j" x="138" y="607">integer</text></a><a xlink:href="#integer"><rect class="r" x="203" y="590" width="65" height="25"/><text class="j" x="213" y="607">integer</text></a><rect class="l" x="278" y="590" width="25" height="25" rx="7"/><text class="j" x="288" y="607">)</text><rect class="l" x="313" y="590" width="28" height="25" rx="7"/><text class="j" x="323" y="607">»</text><a xlink:href="#integer"><rect class="r" x="351" y="590" width="65" height="25"/><text class="j" x="361" y="607">integer</text></a><a xlink:href="#fixed-decimal"><rect class="r" x="128" y="620" width="102" height="25"/><text class="j" x="138" y="637">fixed-decimal</text></a><a xlink:href="#integer"><rect class="r" x="240" y="620" width="65" height="25"/><text class="j" x="250" y="637">integer</text></a><rect class="l" x="315" y="620" width="25" height="25" rx="7"/><text class="j" x="325" y="637">)</text><rect class="l" x="350" y="620" width="28" height="25" rx="7"/><text class="j" x="360" y="637">»</text><a xlink:href="#fixed-decimal"><rect class="r" x="388" y="620" width="102" height="25"/><text class="j" x="398" y="637">fixed-decimal</text></a><rect class="l" x="25" y="665" width="25" height="25" rx="7"/><text class="j" x="35" y="682">(</text><rect class="l" x="60" y="665" width="50" height="25" rx="7"/><text class="j" x="70" y="682">not=</text><a xlink:href="#value"><rect class="r" x="120" y="665" width="54" height="25"/><text class="j" x="130" y="682">value</text></a><a xlink:href="#value"><rect class="r" x="204" y="665" width="54" height="25"/><text class="j" x="214" y="682">value</text></a><rect class="l" x="288" y="665" width="25" height="25" rx="7"/><text class="j" x="298" y="682">)</text><rect class="l" x="323" y="665" width="28" height="25" rx="7"/><text class="j" x="333" y="682">»</text><a xlink:href="#boolean"><rect class="r" x="361" y="665" width="71" height="25"/><text class="j" x="371" y="682">boolean</text></a><rect class="l" x="25" y="695" width="25" height="25" rx="7"/><text class="j" x="35" y="712">(</text><rect class="l" x="60" y="695" width="65" height="25" rx="7"/><text class="j" x="70" y="712">rescale</text><a xlink:href="#fixed-decimal"><rect class="r" x="135" y="695" width="102" height="25"/><text class="j" x="145" y="712">fixed-decimal</text></a><a xlink:href="#integer:new-scale"><rect class="r" x="247" y="695" width="134" height="25"/><text class="j" x="257" y="712">integer:new-scale</text></a><rect class="l" x="391" y="695" width="25" height="25" rx="7"/><text class="j" x="401" y="712">)</text><rect class="l" x="426" y="695" width="28" height="25" rx="7"/><text class="j" x="436" y="712">»</text><a xlink:href="#fixed-decimal"><rect class="r" x="484" y="695" width="102" height="25"/><text class="j" x="494" y="712">fixed-decimal</text></a><a xlink:href="#integer"><rect class="r" x="484" y="725" width="65" height="25"/><text class="j" x="494" y="742">integer</text></a></svg>