<svg version="1.1" xmlns:xlink="http://www.w3.org/1999/xlink" xmlns="http://www.w3.org/2000/svg" width="594" height="759" viewbox="0 0 594 759"><defs><style type="text/css">.c{fill: none; stroke: #888888; stroke-width: 2px;}.i{fill:#000000;font-family:Dialog,Sans-serif;font-size:12px;}.l{fill:#90d9ff;stroke:#222222;}.r{fill:#d3f0ff;stroke:#222222;}</style></defs><path class="c" d="M0 17h25m53 0h10m35 0h10m53 0h10m27 0h10m71 0h285m-574 24q0 5 5 5h5m65 0h10m26 0h10m65 0h10m27 0h10m65 0h261q5 0 5-5m-564 29q0 5 5 5h5m101 0h10m26 0h10m65 0h10m27 0h10m101 0h189q5 0 5-5m-564 29q0 5 5 5h5m65 0h10m30 0h10m65 0h10m27 0h10m65 0h257q5 0 5-5m-564 29q0 5 5 5h5m101 0h10m30 0h10m101 0h10m27 0h10m101 0h149q5 0 5-5m-564 29q0 5 5 5h5m65 0h10m24 0h10m65 0h10m27 0h10m65 0h263q5 0 5-5m-564 29q0 5 5 5h5m101 0h10m24 0h10m101 0h10m27 0h10m101 0h155q5 0 5-5m-564 29q0 5 5 5h5m65 0h10m24 0h10m65 0h10m27 0h10m65 0h263q5 0 5-5m-564 29q0 5 5 5h5m101 0h10m24 0h10m65 0h10m27 0h10m101 0h191q5 0 5-5m-564 29q0 5 5 5h25m65 0h10m30 0h10m65 0h92m-287 0q5 0 5 5v19q0 5 5 5h5m101 0h10m30 0h10m101 0h5q5 0 5-5v-19q0-5 5-5m5 0h10m27 0h10m71 0h139q5 0 5-5m-564 58q0 5 5 5h25m65 0h10m40 0h10m65 0h92m-297 0q5 0 5 5v19q0 5 5 5h5m101 0h10m40 0h10m101 0h5q5 0 5-5v-19q0-5 5-5m5 0h10m27 0h10m71 0h129q5 0 5-5m-564 58q0 5 5 5h5m53 0h10m40 0h10m53 0h10m27 0h10m71 0h265q5 0 5-5m-564 29q0 5 5 5h25m65 0h10m30 0h10m65 0h92m-287 0q5 0 5 5v19q0 5 5 5h5m101 0h10m30 0h10m101 0h5q5 0 5-5v-19q0-5 5-5m5 0h10m27 0h10m71 0h139q5 0 5-5m-564 58q0 5 5 5h25m65 0h10m40 0h10m65 0h92m-297 0q5 0 5 5v19q0 5 5 5h5m101 0h10m40 0h10m101 0h5q5 0 5-5v-19q0-5 5-5m5 0h10m27 0h10m71 0h129q5 0 5-5m-564 58q0 5 5 5h5m43 0h10m25 0h10m65 0h10m25 0h10m27 0h10m65 0h249q5 0 5-5m-564 29q0 5 5 5h5m43 0h10m25 0h10m101 0h10m25 0h10m27 0h10m101 0h177q5 0 5-5m-564 58q0 5 5 5h5m70 0h10m25 0h10m53 0h10m24 0h30m-5 0q-5 0-5-5v-19q0-5 5-5h19m24 0h20q5 0 5 5v19q0 5-5 5m-5 0h30m25 0h10m27 0h10m71 0h91q5 0 5-5m-564 58q0 5 5 5h5m91 0h10m25 0h10m53 0h10m24 0h30m-5 0q-5 0-5-5v-19q0-5 5-5h19m24 0h20q5 0 5 5v19q0 5-5 5m-5 0h30m25 0h10m27 0h10m71 0h70q5 0 5-5m-569-662q5 0 5 5v686q0 5 5 5h5m66 0h10m25 0h10m101 0h10m24 0h10m65 0h10m25 0h10m27 0h30m101 0h20m-136 0q5 0 5 5v19q0 5 5 5h5m65 0h41q5 0 5-5v-19q0-5 5-5m5 0h5q5 0 5-5v-686q0-5 5-5m5 0h5"/><a xlink:href="#value"><rect class="r" x="25" y="5" width="53" height="24"/><text class="i" x="35" y="21">value</text></a><rect class="l" x="88" y="5" width="35" height="24" rx="7"/><text class="i" x="98" y="21">!=</text><a xlink:href="#value"><rect class="r" x="133" y="5" width="53" height="24"/><text class="i" x="143" y="21">value</text></a><rect class="l" x="196" y="5" width="27" height="24" rx="7"/><text class="i" x="206" y="21">»</text><a xlink:href="#boolean"><rect class="r" x="233" y="5" width="71" height="24"/><text class="i" x="243" y="21">boolean</text></a><a xlink:href="#integer"><rect class="r" x="25" y="34" width="65" height="24"/><text class="i" x="35" y="50">integer</text></a><rect class="l" x="100" y="34" width="26" height="24" rx="7"/><text class="i" x="110" y="50">*</text><a xlink:href="#integer"><rect class="r" x="136" y="34" width="65" height="24"/><text class="i" x="146" y="50">integer</text></a><rect class="l" x="211" y="34" width="27" height="24" rx="7"/><text class="i" x="221" y="50">»</text><a xlink:href="#integer"><rect class="r" x="248" y="34" width="65" height="24"/><text class="i" x="258" y="50">integer</text></a><a xlink:href="#fixed-decimal"><rect class="r" x="25" y="63" width="101" height="24"/><text class="i" x="35" y="79">fixed-decimal</text></a><rect class="l" x="136" y="63" width="26" height="24" rx="7"/><text class="i" x="146" y="79">*</text><a xlink:href="#integer"><rect class="r" x="172" y="63" width="65" height="24"/><text class="i" x="182" y="79">integer</text></a><rect class="l" x="247" y="63" width="27" height="24" rx="7"/><text class="i" x="257" y="79">»</text><a xlink:href="#fixed-decimal"><rect class="r" x="284" y="63" width="101" height="24"/><text class="i" x="294" y="79">fixed-decimal</text></a><a xlink:href="#integer"><rect class="r" x="25" y="92" width="65" height="24"/><text class="i" x="35" y="108">integer</text></a><rect class="l" x="100" y="92" width="30" height="24" rx="7"/><text class="i" x="110" y="108">+</text><a xlink:href="#integer"><rect class="r" x="140" y="92" width="65" height="24"/><text class="i" x="150" y="108">integer</text></a><rect class="l" x="215" y="92" width="27" height="24" rx="7"/><text class="i" x="225" y="108">»</text><a xlink:href="#integer"><rect class="r" x="252" y="92" width="65" height="24"/><text class="i" x="262" y="108">integer</text></a><a xlink:href="#fixed-decimal"><rect class="r" x="25" y="121" width="101" height="24"/><text class="i" x="35" y="137">fixed-decimal</text></a><rect class="l" x="136" y="121" width="30" height="24" rx="7"/><text class="i" x="146" y="137">+</text><a xlink:href="#fixed-decimal"><rect class="r" x="176" y="121" width="101" height="24"/><text class="i" x="186" y="137">fixed-decimal</text></a><rect class="l" x="287" y="121" width="27" height="24" rx="7"/><text class="i" x="297" y="137">»</text><a xlink:href="#fixed-decimal"><rect class="r" x="324" y="121" width="101" height="24"/><text class="i" x="334" y="137">fixed-decimal</text></a><a xlink:href="#integer"><rect class="r" x="25" y="150" width="65" height="24"/><text class="i" x="35" y="166">integer</text></a><rect class="l" x="100" y="150" width="24" height="24" rx="7"/><text class="i" x="110" y="166">-</text><a xlink:href="#integer"><rect class="r" x="134" y="150" width="65" height="24"/><text class="i" x="144" y="166">integer</text></a><rect class="l" x="209" y="150" width="27" height="24" rx="7"/><text class="i" x="219" y="166">»</text><a xlink:href="#integer"><rect class="r" x="246" y="150" width="65" height="24"/><text class="i" x="256" y="166">integer</text></a><a xlink:href="#fixed-decimal"><rect class="r" x="25" y="179" width="101" height="24"/><text class="i" x="35" y="195">fixed-decimal</text></a><rect class="l" x="136" y="179" width="24" height="24" rx="7"/><text class="i" x="146" y="195">-</text><a xlink:href="#fixed-decimal"><rect class="r" x="170" y="179" width="101" height="24"/><text class="i" x="180" y="195">fixed-decimal</text></a><rect class="l" x="281" y="179" width="27" height="24" rx="7"/><text class="i" x="291" y="195">»</text><a xlink:href="#fixed-decimal"><rect class="r" x="318" y="179" width="101" height="24"/><text class="i" x="328" y="195">fixed-decimal</text></a><a xlink:href="#integer"><rect class="r" x="25" y="208" width="65" height="24"/><text class="i" x="35" y="224">integer</text></a><rect class="l" x="100" y="208" width="24" height="24" rx="7"/><text class="i" x="110" y="224">/</text><a xlink:href="#integer"><rect class="r" x="134" y="208" width="65" height="24"/><text class="i" x="144" y="224">integer</text></a><rect class="l" x="209" y="208" width="27" height="24" rx="7"/><text class="i" x="219" y="224">»</text><a xlink:href="#integer"><rect class="r" x="246" y="208" width="65" height="24"/><text class="i" x="256" y="224">integer</text></a><a xlink:href="#fixed-decimal"><rect class="r" x="25" y="237" width="101" height="24"/><text class="i" x="35" y="253">fixed-decimal</text></a><rect class="l" x="136" y="237" width="24" height="24" rx="7"/><text class="i" x="146" y="253">/</text><a xlink:href="#integer"><rect class="r" x="170" y="237" width="65" height="24"/><text class="i" x="180" y="253">integer</text></a><rect class="l" x="245" y="237" width="27" height="24" rx="7"/><text class="i" x="255" y="253">»</text><a xlink:href="#fixed-decimal"><rect class="r" x="282" y="237" width="101" height="24"/><text class="i" x="292" y="253">fixed-decimal</text></a><a xlink:href="#integer"><rect class="r" x="45" y="266" width="65" height="24"/><text class="i" x="55" y="282">integer</text></a><rect class="l" x="120" y="266" width="30" height="24" rx="7"/><text class="i" x="130" y="282">&lt;</text><a xlink:href="#integer"><rect class="r" x="160" y="266" width="65" height="24"/><text class="i" x="170" y="282">integer</text></a><a xlink:href="#fixed-decimal"><rect class="r" x="45" y="295" width="101" height="24"/><text class="i" x="55" y="311">fixed-decimal</text></a><rect class="l" x="156" y="295" width="30" height="24" rx="7"/><text class="i" x="166" y="311">&lt;</text><a xlink:href="#fixed-decimal"><rect class="r" x="196" y="295" width="101" height="24"/><text class="i" x="206" y="311">fixed-decimal</text></a><rect class="l" x="327" y="266" width="27" height="24" rx="7"/><text class="i" x="337" y="282">»</text><a xlink:href="#boolean"><rect class="r" x="364" y="266" width="71" height="24"/><text class="i" x="374" y="282">boolean</text></a><a xlink:href="#integer"><rect class="r" x="45" y="324" width="65" height="24"/><text class="i" x="55" y="340">integer</text></a><rect class="l" x="120" y="324" width="40" height="24" rx="7"/><text class="i" x="130" y="340">&lt;=</text><a xlink:href="#integer"><rect class="r" x="170" y="324" width="65" height="24"/><text class="i" x="180" y="340">integer</text></a><a xlink:href="#fixed-decimal"><rect class="r" x="45" y="353" width="101" height="24"/><text class="i" x="55" y="369">fixed-decimal</text></a><rect class="l" x="156" y="353" width="40" height="24" rx="7"/><text class="i" x="166" y="369">&lt;=</text><a xlink:href="#fixed-decimal"><rect class="r" x="206" y="353" width="101" height="24"/><text class="i" x="216" y="369">fixed-decimal</text></a><rect class="l" x="337" y="324" width="27" height="24" rx="7"/><text class="i" x="347" y="340">»</text><a xlink:href="#boolean"><rect class="r" x="374" y="324" width="71" height="24"/><text class="i" x="384" y="340">boolean</text></a><a xlink:href="#value"><rect class="r" x="25" y="382" width="53" height="24"/><text class="i" x="35" y="398">value</text></a><rect class="l" x="88" y="382" width="40" height="24" rx="7"/><text class="i" x="98" y="398">==</text><a xlink:href="#value"><rect class="r" x="138" y="382" width="53" height="24"/><text class="i" x="148" y="398">value</text></a><rect class="l" x="201" y="382" width="27" height="24" rx="7"/><text class="i" x="211" y="398">»</text><a xlink:href="#boolean"><rect class="r" x="238" y="382" width="71" height="24"/><text class="i" x="248" y="398">boolean</text></a><a xlink:href="#integer"><rect class="r" x="45" y="411" width="65" height="24"/><text class="i" x="55" y="427">integer</text></a><rect class="l" x="120" y="411" width="30" height="24" rx="7"/><text class="i" x="130" y="427">&gt;</text><a xlink:href="#integer"><rect class="r" x="160" y="411" width="65" height="24"/><text class="i" x="170" y="427">integer</text></a><a xlink:href="#fixed-decimal"><rect class="r" x="45" y="440" width="101" height="24"/><text class="i" x="55" y="456">fixed-decimal</text></a><rect class="l" x="156" y="440" width="30" height="24" rx="7"/><text class="i" x="166" y="456">&gt;</text><a xlink:href="#fixed-decimal"><rect class="r" x="196" y="440" width="101" height="24"/><text class="i" x="206" y="456">fixed-decimal</text></a><rect class="l" x="327" y="411" width="27" height="24" rx="7"/><text class="i" x="337" y="427">»</text><a xlink:href="#boolean"><rect class="r" x="364" y="411" width="71" height="24"/><text class="i" x="374" y="427">boolean</text></a><a xlink:href="#integer"><rect class="r" x="45" y="469" width="65" height="24"/><text class="i" x="55" y="485">integer</text></a><rect class="l" x="120" y="469" width="40" height="24" rx="7"/><text class="i" x="130" y="485">&gt;=</text><a xlink:href="#integer"><rect class="r" x="170" y="469" width="65" height="24"/><text class="i" x="180" y="485">integer</text></a><a xlink:href="#fixed-decimal"><rect class="r" x="45" y="498" width="101" height="24"/><text class="i" x="55" y="514">fixed-decimal</text></a><rect class="l" x="156" y="498" width="40" height="24" rx="7"/><text class="i" x="166" y="514">&gt;=</text><a xlink:href="#fixed-decimal"><rect class="r" x="206" y="498" width="101" height="24"/><text class="i" x="216" y="514">fixed-decimal</text></a><rect class="l" x="337" y="469" width="27" height="24" rx="7"/><text class="i" x="347" y="485">»</text><a xlink:href="#boolean"><rect class="r" x="374" y="469" width="71" height="24"/><text class="i" x="384" y="485">boolean</text></a><rect class="l" x="25" y="527" width="43" height="24" rx="7"/><text class="i" x="35" y="543">abs</text><rect class="l" x="78" y="527" width="25" height="24" rx="7"/><text class="i" x="88" y="543">(</text><a xlink:href="#integer"><rect class="r" x="113" y="527" width="65" height="24"/><text class="i" x="123" y="543">integer</text></a><rect class="l" x="188" y="527" width="25" height="24" rx="7"/><text class="i" x="198" y="543">)</text><rect class="l" x="223" y="527" width="27" height="24" rx="7"/><text class="i" x="233" y="543">»</text><a xlink:href="#integer"><rect class="r" x="260" y="527" width="65" height="24"/><text class="i" x="270" y="543">integer</text></a><rect class="l" x="25" y="556" width="43" height="24" rx="7"/><text class="i" x="35" y="572">abs</text><rect class="l" x="78" y="556" width="25" height="24" rx="7"/><text class="i" x="88" y="572">(</text><a xlink:href="#fixed-decimal"><rect class="r" x="113" y="556" width="101" height="24"/><text class="i" x="123" y="572">fixed-decimal</text></a><rect class="l" x="224" y="556" width="25" height="24" rx="7"/><text class="i" x="234" y="572">)</text><rect class="l" x="259" y="556" width="27" height="24" rx="7"/><text class="i" x="269" y="572">»</text><a xlink:href="#fixed-decimal"><rect class="r" x="296" y="556" width="101" height="24"/><text class="i" x="306" y="572">fixed-decimal</text></a><rect class="l" x="25" y="614" width="70" height="24" rx="7"/><text class="i" x="35" y="630">equalTo</text><rect class="l" x="105" y="614" width="25" height="24" rx="7"/><text class="i" x="115" y="630">(</text><a xlink:href="#value"><rect class="r" x="140" y="614" width="53" height="24"/><text class="i" x="150" y="630">value</text></a><rect class="l" x="203" y="614" width="24" height="24" rx="7"/><text class="i" x="213" y="630">,</text><rect class="l" x="271" y="585" width="24" height="24" rx="7"/><text class="i" x="281" y="601">,</text><a xlink:href="#value"><rect class="r" x="257" y="614" width="53" height="24"/><text class="i" x="267" y="630">value</text></a><rect class="l" x="340" y="614" width="25" height="24" rx="7"/><text class="i" x="350" y="630">)</text><rect class="l" x="375" y="614" width="27" height="24" rx="7"/><text class="i" x="385" y="630">»</text><a xlink:href="#boolean"><rect class="r" x="412" y="614" width="71" height="24"/><text class="i" x="422" y="630">boolean</text></a><rect class="l" x="25" y="672" width="91" height="24" rx="7"/><text class="i" x="35" y="688">notEqualTo</text><rect class="l" x="126" y="672" width="25" height="24" rx="7"/><text class="i" x="136" y="688">(</text><a xlink:href="#value"><rect class="r" x="161" y="672" width="53" height="24"/><text class="i" x="171" y="688">value</text></a><rect class="l" x="224" y="672" width="24" height="24" rx="7"/><text class="i" x="234" y="688">,</text><rect class="l" x="292" y="643" width="24" height="24" rx="7"/><text class="i" x="302" y="659">,</text><a xlink:href="#value"><rect class="r" x="278" y="672" width="53" height="24"/><text class="i" x="288" y="688">value</text></a><rect class="l" x="361" y="672" width="25" height="24" rx="7"/><text class="i" x="371" y="688">)</text><rect class="l" x="396" y="672" width="27" height="24" rx="7"/><text class="i" x="406" y="688">»</text><a xlink:href="#boolean"><rect class="r" x="433" y="672" width="71" height="24"/><text class="i" x="443" y="688">boolean</text></a><rect class="l" x="25" y="701" width="66" height="24" rx="7"/><text class="i" x="35" y="717">rescale</text><rect class="l" x="101" y="701" width="25" height="24" rx="7"/><text class="i" x="111" y="717">(</text><a xlink:href="#fixed-decimal"><rect class="r" x="136" y="701" width="101" height="24"/><text class="i" x="146" y="717">fixed-decimal</text></a><rect class="l" x="247" y="701" width="24" height="24" rx="7"/><text class="i" x="257" y="717">,</text><a xlink:href="#integer"><rect class="r" x="281" y="701" width="65" height="24"/><text class="i" x="291" y="717">integer</text></a><rect class="l" x="356" y="701" width="25" height="24" rx="7"/><text class="i" x="366" y="717">)</text><rect class="l" x="391" y="701" width="27" height="24" rx="7"/><text class="i" x="401" y="717">»</text><a xlink:href="#fixed-decimal"><rect class="r" x="448" y="701" width="101" height="24"/><text class="i" x="458" y="717">fixed-decimal</text></a><a xlink:href="#integer"><rect class="r" x="448" y="730" width="65" height="24"/><text class="i" x="458" y="746">integer</text></a></svg>