<!--
RULE = (('(''*'  ( ( integer integer')' '»' integer ) |
( fixed-decimal integer')' '»' fixed-decimal ) ) ) |
('(''+'  ( ( integer integer {integer}')' '»' integer ) |
( fixed-decimal fixed-decimal {fixed-decimal}')' '»' fixed-decimal ) ) ) |
('(''-'  ( ( integer integer {integer}')' '»' integer ) |
( fixed-decimal fixed-decimal {fixed-decimal}')' '»' fixed-decimal ) ) ) |
('(''abs'  ( ( integer')' '»' integer ) |
( fixed-decimal')' '»' fixed-decimal ) ) ) |
('(''div'  ( ( integer integer')' '»' integer ) |
( fixed-decimal integer')' '»' fixed-decimal ) ) ) |
('(''rescale'  ( ( fixed-decimal integer:new-scale')' '»' (fixed-decimal | integer) ) ) ));
-->
<svg version="1.1" xmlns:xlink="http://www.w3.org/1999/xlink" xmlns="http://www.w3.org/2000/svg" width="631" height="425" viewbox="0 0 631 425"><defs><style type="text/css">.c{fill: none; stroke: #888888; stroke-width: 2px;}.j{fill:#000000;font-family:Verdana,Sans-serif;font-size:12px;}.l{fill:#90d9ff;stroke:#222222;}.r{fill:#d3f0ff;stroke:#222222;}</style></defs><path class="c" d="M0 18h25m25 0h10m28 0h30m65 0h10m65 0h10m25 0h10m28 0h10m65 0h94m-397 0q5 0 5 5v20q0 5 5 5h5m102 0h10m65 0h10m25 0h10m28 0h10m102 0h5q5 0 5-5v-20q0-5 5-5m5 0h126m-611 70q0 5 5 5h5m25 0h10m29 0h30m65 0h30m-5 0q-5 0-5-5v-17q0-5 5-5h75q5 0 5 5v17q0 5-5 5m-5 0h30m25 0h10m28 0h10m65 0h131m-474 0q5 0 5 5v35q0 5 5 5h5m102 0h30m-5 0q-5 0-5-5v-17q0-5 5-5h112q5 0 5 5v17q0 5-5 5m-5 0h30m25 0h10m28 0h10m102 0h5q5 0 5-5v-35q0-5 5-5m5 0h33q5 0 5-5m-601 90q0 5 5 5h5m25 0h10m25 0h30m65 0h30m-5 0q-5 0-5-5v-17q0-5 5-5h75q5 0 5 5v17q0 5-5 5m-5 0h30m25 0h10m28 0h10m65 0h131m-474 0q5 0 5 5v35q0 5 5 5h5m102 0h30m-5 0q-5 0-5-5v-17q0-5 5-5h112q5 0 5 5v17q0 5-5 5m-5 0h30m25 0h10m28 0h10m102 0h5q5 0 5-5v-35q0-5 5-5m5 0h37q5 0 5-5m-601 75q0 5 5 5h5m25 0h10m43 0h30m65 0h10m25 0h10m28 0h10m65 0h94m-322 0q5 0 5 5v20q0 5 5 5h5m102 0h10m25 0h10m28 0h10m102 0h5q5 0 5-5v-20q0-5 5-5m5 0h171q5 0 5-5m-601 60q0 5 5 5h5m25 0h10m38 0h30m65 0h10m65 0h10m25 0h10m28 0h10m65 0h94m-397 0q5 0 5 5v20q0 5 5 5h5m102 0h10m65 0h10m25 0h10m28 0h10m102 0h5q5 0 5-5v-20q0-5 5-5m5 0h101q5 0 5-5m-606-295q5 0 5 5v350q0 5 5 5h5m25 0h10m65 0h10m102 0h10m134 0h10m25 0h10m28 0h30m102 0h20m-137 0q5 0 5 5v20q0 5 5 5h5m65 0h42q5 0 5-5v-20q0-5 5-5m5 0h5q5 0 5-5v-350q0-5 5-5m5 0h5"/><rect class="l" x="25" y="5" width="25" height="25" rx="7"/><text class="j" x="35" y="22">(</text><rect class="l" x="60" y="5" width="28" height="25" rx="7"/><text class="j" x="70" y="22">*</text><a xlink:href="#integer"><rect class="r" x="118" y="5" width="65" height="25"/><text class="j" x="128" y="22">integer</text></a><a xlink:href="#integer"><rect class="r" x="193" y="5" width="65" height="25"/><text class="j" x="203" y="22">integer</text></a><rect class="l" x="268" y="5" width="25" height="25" rx="7"/><text class="j" x="278" y="22">)</text><rect class="l" x="303" y="5" width="28" height="25" rx="7"/><text class="j" x="313" y="22">»</text><a xlink:href="#integer"><rect class="r" x="341" y="5" width="65" height="25"/><text class="j" x="351" y="22">integer</text></a><a xlink:href="#fixed-decimal"><rect class="r" x="118" y="35" width="102" height="25"/><text class="j" x="128" y="52">fixed-decimal</text></a><a xlink:href="#integer"><rect class="r" x="230" y="35" width="65" height="25"/><text class="j" x="240" y="52">integer</text></a><rect class="l" x="305" y="35" width="25" height="25" rx="7"/><text class="j" x="315" y="52">)</text><rect class="l" x="340" y="35" width="28" height="25" rx="7"/><text class="j" x="350" y="52">»</text><a xlink:href="#fixed-decimal"><rect class="r" x="378" y="35" width="102" height="25"/><text class="j" x="388" y="52">fixed-decimal</text></a><rect class="l" x="25" y="80" width="25" height="25" rx="7"/><text class="j" x="35" y="97">(</text><rect class="l" x="60" y="80" width="29" height="25" rx="7"/><text class="j" x="70" y="97">+</text><a xlink:href="#integer"><rect class="r" x="119" y="80" width="65" height="25"/><text class="j" x="129" y="97">integer</text></a><a xlink:href="#integer"><rect class="r" x="214" y="80" width="65" height="25"/><text class="j" x="224" y="97">integer</text></a><rect class="l" x="309" y="80" width="25" height="25" rx="7"/><text class="j" x="319" y="97">)</text><rect class="l" x="344" y="80" width="28" height="25" rx="7"/><text class="j" x="354" y="97">»</text><a xlink:href="#integer"><rect class="r" x="382" y="80" width="65" height="25"/><text class="j" x="392" y="97">integer</text></a><a xlink:href="#fixed-decimal"><rect class="r" x="119" y="125" width="102" height="25"/><text class="j" x="129" y="142">fixed-decimal</text></a><a xlink:href="#fixed-decimal"><rect class="r" x="251" y="125" width="102" height="25"/><text class="j" x="261" y="142">fixed-decimal</text></a><rect class="l" x="383" y="125" width="25" height="25" rx="7"/><text class="j" x="393" y="142">)</text><rect class="l" x="418" y="125" width="28" height="25" rx="7"/><text class="j" x="428" y="142">»</text><a xlink:href="#fixed-decimal"><rect class="r" x="456" y="125" width="102" height="25"/><text class="j" x="466" y="142">fixed-decimal</text></a><rect class="l" x="25" y="170" width="25" height="25" rx="7"/><text class="j" x="35" y="187">(</text><rect class="l" x="60" y="170" width="25" height="25" rx="7"/><text class="j" x="70" y="187">-</text><a xlink:href="#integer"><rect class="r" x="115" y="170" width="65" height="25"/><text class="j" x="125" y="187">integer</text></a><a xlink:href="#integer"><rect class="r" x="210" y="170" width="65" height="25"/><text class="j" x="220" y="187">integer</text></a><rect class="l" x="305" y="170" width="25" height="25" rx="7"/><text class="j" x="315" y="187">)</text><rect class="l" x="340" y="170" width="28" height="25" rx="7"/><text class="j" x="350" y="187">»</text><a xlink:href="#integer"><rect class="r" x="378" y="170" width="65" height="25"/><text class="j" x="388" y="187">integer</text></a><a xlink:href="#fixed-decimal"><rect class="r" x="115" y="215" width="102" height="25"/><text class="j" x="125" y="232">fixed-decimal</text></a><a xlink:href="#fixed-decimal"><rect class="r" x="247" y="215" width="102" height="25"/><text class="j" x="257" y="232">fixed-decimal</text></a><rect class="l" x="379" y="215" width="25" height="25" rx="7"/><text class="j" x="389" y="232">)</text><rect class="l" x="414" y="215" width="28" height="25" rx="7"/><text class="j" x="424" y="232">»</text><a xlink:href="#fixed-decimal"><rect class="r" x="452" y="215" width="102" height="25"/><text class="j" x="462" y="232">fixed-decimal</text></a><rect class="l" x="25" y="245" width="25" height="25" rx="7"/><text class="j" x="35" y="262">(</text><rect class="l" x="60" y="245" width="43" height="25" rx="7"/><text class="j" x="70" y="262">abs</text><a xlink:href="#integer"><rect class="r" x="133" y="245" width="65" height="25"/><text class="j" x="143" y="262">integer</text></a><rect class="l" x="208" y="245" width="25" height="25" rx="7"/><text class="j" x="218" y="262">)</text><rect class="l" x="243" y="245" width="28" height="25" rx="7"/><text class="j" x="253" y="262">»</text><a xlink:href="#integer"><rect class="r" x="281" y="245" width="65" height="25"/><text class="j" x="291" y="262">integer</text></a><a xlink:href="#fixed-decimal"><rect class="r" x="133" y="275" width="102" height="25"/><text class="j" x="143" y="292">fixed-decimal</text></a><rect class="l" x="245" y="275" width="25" height="25" rx="7"/><text class="j" x="255" y="292">)</text><rect class="l" x="280" y="275" width="28" height="25" rx="7"/><text class="j" x="290" y="292">»</text><a xlink:href="#fixed-decimal"><rect class="r" x="318" y="275" width="102" height="25"/><text class="j" x="328" y="292">fixed-decimal</text></a><rect class="l" x="25" y="305" width="25" height="25" rx="7"/><text class="j" x="35" y="322">(</text><rect class="l" x="60" y="305" width="38" height="25" rx="7"/><text class="j" x="70" y="322">div</text><a xlink:href="#integer"><rect class="r" x="128" y="305" width="65" height="25"/><text class="j" x="138" y="322">integer</text></a><a xlink:href="#integer"><rect class="r" x="203" y="305" width="65" height="25"/><text class="j" x="213" y="322">integer</text></a><rect class="l" x="278" y="305" width="25" height="25" rx="7"/><text class="j" x="288" y="322">)</text><rect class="l" x="313" y="305" width="28" height="25" rx="7"/><text class="j" x="323" y="322">»</text><a xlink:href="#integer"><rect class="r" x="351" y="305" width="65" height="25"/><text class="j" x="361" y="322">integer</text></a><a xlink:href="#fixed-decimal"><rect class="r" x="128" y="335" width="102" height="25"/><text class="j" x="138" y="352">fixed-decimal</text></a><a xlink:href="#integer"><rect class="r" x="240" y="335" width="65" height="25"/><text class="j" x="250" y="352">integer</text></a><rect class="l" x="315" y="335" width="25" height="25" rx="7"/><text class="j" x="325" y="352">)</text><rect class="l" x="350" y="335" width="28" height="25" rx="7"/><text class="j" x="360" y="352">»</text><a xlink:href="#fixed-decimal"><rect class="r" x="388" y="335" width="102" height="25"/><text class="j" x="398" y="352">fixed-decimal</text></a><rect class="l" x="25" y="365" width="25" height="25" rx="7"/><text class="j" x="35" y="382">(</text><rect class="l" x="60" y="365" width="65" height="25" rx="7"/><text class="j" x="70" y="382">rescale</text><a xlink:href="#fixed-decimal"><rect class="r" x="135" y="365" width="102" height="25"/><text class="j" x="145" y="382">fixed-decimal</text></a><a xlink:href="#integer:new-scale"><rect class="r" x="247" y="365" width="134" height="25"/><text class="j" x="257" y="382">integer:new-scale</text></a><rect class="l" x="391" y="365" width="25" height="25" rx="7"/><text class="j" x="401" y="382">)</text><rect class="l" x="426" y="365" width="28" height="25" rx="7"/><text class="j" x="436" y="382">»</text><a xlink:href="#fixed-decimal"><rect class="r" x="484" y="365" width="102" height="25"/><text class="j" x="494" y="382">fixed-decimal</text></a><a xlink:href="#integer"><rect class="r" x="484" y="395" width="65" height="25"/><text class="j" x="494" y="412">integer</text></a></svg>