<svg version="1.1" xmlns:xlink="http://www.w3.org/1999/xlink" xmlns="http://www.w3.org/2000/svg" width="596" height="365" viewbox="0 0 596 365"><defs><style type="text/css">.c{fill: none; stroke: #888888; stroke-width: 2px;}.i{fill:#000000;font-family:Verdana,Sans-serif;font-size:12px;}.l{fill:#90d9ff;stroke:#222222;}.r{fill:#d3f0ff;stroke:#222222;}</style></defs><path class="c" d="M0 18h25m65 0h10m28 0h10m65 0h10m28 0h10m65 0h275m-576 25q0 5 5 5h5m102 0h10m28 0h10m65 0h10m28 0h10m102 0h186q5 0 5-5m-566 30q0 5 5 5h5m65 0h10m29 0h10m65 0h10m28 0h10m65 0h259q5 0 5-5m-566 30q0 5 5 5h5m102 0h10m29 0h10m102 0h10m28 0h10m102 0h148q5 0 5-5m-566 30q0 5 5 5h5m65 0h10m25 0h10m65 0h10m28 0h10m65 0h263q5 0 5-5m-566 30q0 5 5 5h5m102 0h10m25 0h10m102 0h10m28 0h10m102 0h152q5 0 5-5m-566 30q0 5 5 5h5m65 0h10m25 0h10m65 0h10m28 0h10m65 0h263q5 0 5-5m-566 30q0 5 5 5h5m102 0h10m25 0h10m65 0h10m28 0h10m102 0h189q5 0 5-5m-566 30q0 5 5 5h5m43 0h10m25 0h10m65 0h10m25 0h10m28 0h10m65 0h250q5 0 5-5m-566 30q0 5 5 5h5m43 0h10m25 0h10m102 0h10m25 0h10m28 0h10m102 0h176q5 0 5-5m-571-265q5 0 5 5v290q0 5 5 5h5m65 0h10m25 0h10m102 0h10m24 0h10m65 0h10m25 0h10m28 0h30m102 0h20m-137 0q5 0 5 5v20q0 5 5 5h5m65 0h42q5 0 5-5v-20q0-5 5-5m5 0h5q5 0 5-5v-290q0-5 5-5m5 0h5"/><a xlink:href="#integer"><rect class="r" x="25" y="5" width="65" height="25"/><text class="i" x="35" y="22">integer</text></a><rect class="l" x="100" y="5" width="28" height="25" rx="7"/><text class="i" x="110" y="22">*</text><a xlink:href="#integer"><rect class="r" x="138" y="5" width="65" height="25"/><text class="i" x="148" y="22">integer</text></a><rect class="l" x="213" y="5" width="28" height="25" rx="7"/><text class="i" x="223" y="22">»</text><a xlink:href="#integer"><rect class="r" x="251" y="5" width="65" height="25"/><text class="i" x="261" y="22">integer</text></a><a xlink:href="#fixed-decimal"><rect class="r" x="25" y="35" width="102" height="25"/><text class="i" x="35" y="52">fixed-decimal</text></a><rect class="l" x="137" y="35" width="28" height="25" rx="7"/><text class="i" x="147" y="52">*</text><a xlink:href="#integer"><rect class="r" x="175" y="35" width="65" height="25"/><text class="i" x="185" y="52">integer</text></a><rect class="l" x="250" y="35" width="28" height="25" rx="7"/><text class="i" x="260" y="52">»</text><a xlink:href="#fixed-decimal"><rect class="r" x="288" y="35" width="102" height="25"/><text class="i" x="298" y="52">fixed-decimal</text></a><a xlink:href="#integer"><rect class="r" x="25" y="65" width="65" height="25"/><text class="i" x="35" y="82">integer</text></a><rect class="l" x="100" y="65" width="29" height="25" rx="7"/><text class="i" x="110" y="82">+</text><a xlink:href="#integer"><rect class="r" x="139" y="65" width="65" height="25"/><text class="i" x="149" y="82">integer</text></a><rect class="l" x="214" y="65" width="28" height="25" rx="7"/><text class="i" x="224" y="82">»</text><a xlink:href="#integer"><rect class="r" x="252" y="65" width="65" height="25"/><text class="i" x="262" y="82">integer</text></a><a xlink:href="#fixed-decimal"><rect class="r" x="25" y="95" width="102" height="25"/><text class="i" x="35" y="112">fixed-decimal</text></a><rect class="l" x="137" y="95" width="29" height="25" rx="7"/><text class="i" x="147" y="112">+</text><a xlink:href="#fixed-decimal"><rect class="r" x="176" y="95" width="102" height="25"/><text class="i" x="186" y="112">fixed-decimal</text></a><rect class="l" x="288" y="95" width="28" height="25" rx="7"/><text class="i" x="298" y="112">»</text><a xlink:href="#fixed-decimal"><rect class="r" x="326" y="95" width="102" height="25"/><text class="i" x="336" y="112">fixed-decimal</text></a><a xlink:href="#integer"><rect class="r" x="25" y="125" width="65" height="25"/><text class="i" x="35" y="142">integer</text></a><rect class="l" x="100" y="125" width="25" height="25" rx="7"/><text class="i" x="110" y="142">-</text><a xlink:href="#integer"><rect class="r" x="135" y="125" width="65" height="25"/><text class="i" x="145" y="142">integer</text></a><rect class="l" x="210" y="125" width="28" height="25" rx="7"/><text class="i" x="220" y="142">»</text><a xlink:href="#integer"><rect class="r" x="248" y="125" width="65" height="25"/><text class="i" x="258" y="142">integer</text></a><a xlink:href="#fixed-decimal"><rect class="r" x="25" y="155" width="102" height="25"/><text class="i" x="35" y="172">fixed-decimal</text></a><rect class="l" x="137" y="155" width="25" height="25" rx="7"/><text class="i" x="147" y="172">-</text><a xlink:href="#fixed-decimal"><rect class="r" x="172" y="155" width="102" height="25"/><text class="i" x="182" y="172">fixed-decimal</text></a><rect class="l" x="284" y="155" width="28" height="25" rx="7"/><text class="i" x="294" y="172">»</text><a xlink:href="#fixed-decimal"><rect class="r" x="322" y="155" width="102" height="25"/><text class="i" x="332" y="172">fixed-decimal</text></a><a xlink:href="#integer"><rect class="r" x="25" y="185" width="65" height="25"/><text class="i" x="35" y="202">integer</text></a><rect class="l" x="100" y="185" width="25" height="25" rx="7"/><text class="i" x="110" y="202">/</text><a xlink:href="#integer"><rect class="r" x="135" y="185" width="65" height="25"/><text class="i" x="145" y="202">integer</text></a><rect class="l" x="210" y="185" width="28" height="25" rx="7"/><text class="i" x="220" y="202">»</text><a xlink:href="#integer"><rect class="r" x="248" y="185" width="65" height="25"/><text class="i" x="258" y="202">integer</text></a><a xlink:href="#fixed-decimal"><rect class="r" x="25" y="215" width="102" height="25"/><text class="i" x="35" y="232">fixed-decimal</text></a><rect class="l" x="137" y="215" width="25" height="25" rx="7"/><text class="i" x="147" y="232">/</text><a xlink:href="#integer"><rect class="r" x="172" y="215" width="65" height="25"/><text class="i" x="182" y="232">integer</text></a><rect class="l" x="247" y="215" width="28" height="25" rx="7"/><text class="i" x="257" y="232">»</text><a xlink:href="#fixed-decimal"><rect class="r" x="285" y="215" width="102" height="25"/><text class="i" x="295" y="232">fixed-decimal</text></a><rect class="l" x="25" y="245" width="43" height="25" rx="7"/><text class="i" x="35" y="262">abs</text><rect class="l" x="78" y="245" width="25" height="25" rx="7"/><text class="i" x="88" y="262">(</text><a xlink:href="#integer"><rect class="r" x="113" y="245" width="65" height="25"/><text class="i" x="123" y="262">integer</text></a><rect class="l" x="188" y="245" width="25" height="25" rx="7"/><text class="i" x="198" y="262">)</text><rect class="l" x="223" y="245" width="28" height="25" rx="7"/><text class="i" x="233" y="262">»</text><a xlink:href="#integer"><rect class="r" x="261" y="245" width="65" height="25"/><text class="i" x="271" y="262">integer</text></a><rect class="l" x="25" y="275" width="43" height="25" rx="7"/><text class="i" x="35" y="292">abs</text><rect class="l" x="78" y="275" width="25" height="25" rx="7"/><text class="i" x="88" y="292">(</text><a xlink:href="#fixed-decimal"><rect class="r" x="113" y="275" width="102" height="25"/><text class="i" x="123" y="292">fixed-decimal</text></a><rect class="l" x="225" y="275" width="25" height="25" rx="7"/><text class="i" x="235" y="292">)</text><rect class="l" x="260" y="275" width="28" height="25" rx="7"/><text class="i" x="270" y="292">»</text><a xlink:href="#fixed-decimal"><rect class="r" x="298" y="275" width="102" height="25"/><text class="i" x="308" y="292">fixed-decimal</text></a><rect class="l" x="25" y="305" width="65" height="25" rx="7"/><text class="i" x="35" y="322">rescale</text><rect class="l" x="100" y="305" width="25" height="25" rx="7"/><text class="i" x="110" y="322">(</text><a xlink:href="#fixed-decimal"><rect class="r" x="135" y="305" width="102" height="25"/><text class="i" x="145" y="322">fixed-decimal</text></a><rect class="l" x="247" y="305" width="24" height="25" rx="7"/><text class="i" x="257" y="322">,</text><a xlink:href="#integer"><rect class="r" x="281" y="305" width="65" height="25"/><text class="i" x="291" y="322">integer</text></a><rect class="l" x="356" y="305" width="25" height="25" rx="7"/><text class="i" x="366" y="322">)</text><rect class="l" x="391" y="305" width="28" height="25" rx="7"/><text class="i" x="401" y="322">»</text><a xlink:href="#fixed-decimal"><rect class="r" x="449" y="305" width="102" height="25"/><text class="i" x="459" y="322">fixed-decimal</text></a><a xlink:href="#integer"><rect class="r" x="449" y="335" width="65" height="25"/><text class="i" x="459" y="352">integer</text></a></svg>