<svg version="1.1" xmlns:xlink="http://www.w3.org/1999/xlink" xmlns="http://www.w3.org/2000/svg" width="594" height="353" viewbox="0 0 594 353"><defs><style type="text/css">.c{fill: none; stroke: #888888; stroke-width: 3pt;}.i{fill:#000000;font-family:Dialog,Sans-serif;font-size:12px;}.l{fill:#90d9ff;stroke:#222222;}.r{fill:#d3f0ff;stroke:#222222;}</style></defs><path class="c" d="M0 21h25m65 0h10m26 0h10m65 0h10m27 0h10m65 0h276m-574 24q0 5 5 5h5m101 0h10m26 0h10m65 0h10m27 0h10m101 0h189q5 0 5-5m-564 29q0 5 5 5h5m65 0h10m30 0h10m65 0h10m27 0h10m65 0h257q5 0 5-5m-564 29q0 5 5 5h5m101 0h10m30 0h10m101 0h10m27 0h10m101 0h149q5 0 5-5m-564 29q0 5 5 5h5m65 0h10m24 0h10m65 0h10m27 0h10m65 0h263q5 0 5-5m-564 29q0 5 5 5h5m101 0h10m24 0h10m101 0h10m27 0h10m101 0h155q5 0 5-5m-564 29q0 5 5 5h5m65 0h10m24 0h10m65 0h10m27 0h10m65 0h263q5 0 5-5m-564 29q0 5 5 5h5m101 0h10m24 0h10m65 0h10m27 0h10m101 0h191q5 0 5-5m-564 29q0 5 5 5h5m43 0h10m25 0h10m65 0h10m25 0h10m27 0h10m65 0h249q5 0 5-5m-564 29q0 5 5 5h5m43 0h10m25 0h10m101 0h10m25 0h10m27 0h10m101 0h177q5 0 5-5m-569-256q5 0 5 5v280q0 5 5 5h5m66 0h10m25 0h10m101 0h10m24 0h10m65 0h10m25 0h10m27 0h30m101 0h20m-136 0q5 0 5 5v19q0 5 5 5h5m65 0h41q5 0 5-5v-19q0-5 5-5m5 0h5q5 0 5-5v-280q0-5 5-5m5 0h5"/><a xlink:href="#integer"><rect class="r" x="25" y="5" width="65" height="24"/><text class="i" x="35" y="21">integer</text></a><rect class="l" x="100" y="5" width="26" height="24" rx="7"/><text class="i" x="110" y="21">*</text><a xlink:href="#integer"><rect class="r" x="136" y="5" width="65" height="24"/><text class="i" x="146" y="21">integer</text></a><rect class="l" x="211" y="5" width="27" height="24" rx="7"/><text class="i" x="221" y="21">»</text><a xlink:href="#integer"><rect class="r" x="248" y="5" width="65" height="24"/><text class="i" x="258" y="21">integer</text></a><a xlink:href="#fixed-decimal"><rect class="r" x="25" y="34" width="101" height="24"/><text class="i" x="35" y="50">fixed-decimal</text></a><rect class="l" x="136" y="34" width="26" height="24" rx="7"/><text class="i" x="146" y="50">*</text><a xlink:href="#integer"><rect class="r" x="172" y="34" width="65" height="24"/><text class="i" x="182" y="50">integer</text></a><rect class="l" x="247" y="34" width="27" height="24" rx="7"/><text class="i" x="257" y="50">»</text><a xlink:href="#fixed-decimal"><rect class="r" x="284" y="34" width="101" height="24"/><text class="i" x="294" y="50">fixed-decimal</text></a><a xlink:href="#integer"><rect class="r" x="25" y="63" width="65" height="24"/><text class="i" x="35" y="79">integer</text></a><rect class="l" x="100" y="63" width="30" height="24" rx="7"/><text class="i" x="110" y="79">+</text><a xlink:href="#integer"><rect class="r" x="140" y="63" width="65" height="24"/><text class="i" x="150" y="79">integer</text></a><rect class="l" x="215" y="63" width="27" height="24" rx="7"/><text class="i" x="225" y="79">»</text><a xlink:href="#integer"><rect class="r" x="252" y="63" width="65" height="24"/><text class="i" x="262" y="79">integer</text></a><a xlink:href="#fixed-decimal"><rect class="r" x="25" y="92" width="101" height="24"/><text class="i" x="35" y="108">fixed-decimal</text></a><rect class="l" x="136" y="92" width="30" height="24" rx="7"/><text class="i" x="146" y="108">+</text><a xlink:href="#fixed-decimal"><rect class="r" x="176" y="92" width="101" height="24"/><text class="i" x="186" y="108">fixed-decimal</text></a><rect class="l" x="287" y="92" width="27" height="24" rx="7"/><text class="i" x="297" y="108">»</text><a xlink:href="#fixed-decimal"><rect class="r" x="324" y="92" width="101" height="24"/><text class="i" x="334" y="108">fixed-decimal</text></a><a xlink:href="#integer"><rect class="r" x="25" y="121" width="65" height="24"/><text class="i" x="35" y="137">integer</text></a><rect class="l" x="100" y="121" width="24" height="24" rx="7"/><text class="i" x="110" y="137">-</text><a xlink:href="#integer"><rect class="r" x="134" y="121" width="65" height="24"/><text class="i" x="144" y="137">integer</text></a><rect class="l" x="209" y="121" width="27" height="24" rx="7"/><text class="i" x="219" y="137">»</text><a xlink:href="#integer"><rect class="r" x="246" y="121" width="65" height="24"/><text class="i" x="256" y="137">integer</text></a><a xlink:href="#fixed-decimal"><rect class="r" x="25" y="150" width="101" height="24"/><text class="i" x="35" y="166">fixed-decimal</text></a><rect class="l" x="136" y="150" width="24" height="24" rx="7"/><text class="i" x="146" y="166">-</text><a xlink:href="#fixed-decimal"><rect class="r" x="170" y="150" width="101" height="24"/><text class="i" x="180" y="166">fixed-decimal</text></a><rect class="l" x="281" y="150" width="27" height="24" rx="7"/><text class="i" x="291" y="166">»</text><a xlink:href="#fixed-decimal"><rect class="r" x="318" y="150" width="101" height="24"/><text class="i" x="328" y="166">fixed-decimal</text></a><a xlink:href="#integer"><rect class="r" x="25" y="179" width="65" height="24"/><text class="i" x="35" y="195">integer</text></a><rect class="l" x="100" y="179" width="24" height="24" rx="7"/><text class="i" x="110" y="195">/</text><a xlink:href="#integer"><rect class="r" x="134" y="179" width="65" height="24"/><text class="i" x="144" y="195">integer</text></a><rect class="l" x="209" y="179" width="27" height="24" rx="7"/><text class="i" x="219" y="195">»</text><a xlink:href="#integer"><rect class="r" x="246" y="179" width="65" height="24"/><text class="i" x="256" y="195">integer</text></a><a xlink:href="#fixed-decimal"><rect class="r" x="25" y="208" width="101" height="24"/><text class="i" x="35" y="224">fixed-decimal</text></a><rect class="l" x="136" y="208" width="24" height="24" rx="7"/><text class="i" x="146" y="224">/</text><a xlink:href="#integer"><rect class="r" x="170" y="208" width="65" height="24"/><text class="i" x="180" y="224">integer</text></a><rect class="l" x="245" y="208" width="27" height="24" rx="7"/><text class="i" x="255" y="224">»</text><a xlink:href="#fixed-decimal"><rect class="r" x="282" y="208" width="101" height="24"/><text class="i" x="292" y="224">fixed-decimal</text></a><rect class="l" x="25" y="237" width="43" height="24" rx="7"/><text class="i" x="35" y="253">abs</text><rect class="l" x="78" y="237" width="25" height="24" rx="7"/><text class="i" x="88" y="253">(</text><a xlink:href="#integer"><rect class="r" x="113" y="237" width="65" height="24"/><text class="i" x="123" y="253">integer</text></a><rect class="l" x="188" y="237" width="25" height="24" rx="7"/><text class="i" x="198" y="253">)</text><rect class="l" x="223" y="237" width="27" height="24" rx="7"/><text class="i" x="233" y="253">»</text><a xlink:href="#integer"><rect class="r" x="260" y="237" width="65" height="24"/><text class="i" x="270" y="253">integer</text></a><rect class="l" x="25" y="266" width="43" height="24" rx="7"/><text class="i" x="35" y="282">abs</text><rect class="l" x="78" y="266" width="25" height="24" rx="7"/><text class="i" x="88" y="282">(</text><a xlink:href="#fixed-decimal"><rect class="r" x="113" y="266" width="101" height="24"/><text class="i" x="123" y="282">fixed-decimal</text></a><rect class="l" x="224" y="266" width="25" height="24" rx="7"/><text class="i" x="234" y="282">)</text><rect class="l" x="259" y="266" width="27" height="24" rx="7"/><text class="i" x="269" y="282">»</text><a xlink:href="#fixed-decimal"><rect class="r" x="296" y="266" width="101" height="24"/><text class="i" x="306" y="282">fixed-decimal</text></a><rect class="l" x="25" y="295" width="66" height="24" rx="7"/><text class="i" x="35" y="311">rescale</text><rect class="l" x="101" y="295" width="25" height="24" rx="7"/><text class="i" x="111" y="311">(</text><a xlink:href="#fixed-decimal"><rect class="r" x="136" y="295" width="101" height="24"/><text class="i" x="146" y="311">fixed-decimal</text></a><rect class="l" x="247" y="295" width="24" height="24" rx="7"/><text class="i" x="257" y="311">,</text><a xlink:href="#integer"><rect class="r" x="281" y="295" width="65" height="24"/><text class="i" x="291" y="311">integer</text></a><rect class="l" x="356" y="295" width="25" height="24" rx="7"/><text class="i" x="366" y="311">)</text><rect class="l" x="391" y="295" width="27" height="24" rx="7"/><text class="i" x="401" y="311">»</text><a xlink:href="#fixed-decimal"><rect class="r" x="448" y="295" width="101" height="24"/><text class="i" x="458" y="311">fixed-decimal</text></a><a xlink:href="#integer"><rect class="r" x="448" y="324" width="65" height="24"/><text class="i" x="458" y="340">integer</text></a></svg>