<svg version="1.1" xmlns:xlink="http://www.w3.org/1999/xlink" xmlns="http://www.w3.org/2000/svg" width="596" height="965" viewbox="0 0 596 965"><defs><style type="text/css">.c{fill:none;stroke:#222222;}.i{fill:#000000;font-family:Verdana,Sans-serif;font-size:12px;}.l{fill:#90d9ff;stroke:#222222;}.r{fill:#d3f0ff;stroke:#222222;}</style></defs><path class="c" d="M0 22h25m54 0h10m34 0h10m54 0h10m28 0h10m71 0h285m-576 55q0 5 5 5h5m91 0h10m25 0h10m54 0h10m24 0h30m-5 0q-5 0-5-5v-20q0-5 5-5h20m24 0h20q5 0 5 5v20q0 5-5 5m-5 0h30m25 0h10m28 0h10m71 0h69q5 0 5-5m-566 30q0 5 5 5h5m65 0h10m28 0h10m65 0h10m28 0h10m65 0h260q5 0 5-5m-566 30q0 5 5 5h5m102 0h10m28 0h10m65 0h10m28 0h10m102 0h186q5 0 5-5m-566 30q0 5 5 5h5m65 0h10m29 0h10m65 0h10m28 0h10m65 0h259q5 0 5-5m-566 30q0 5 5 5h5m102 0h10m29 0h10m102 0h10m28 0h10m102 0h148q5 0 5-5m-566 30q0 5 5 5h5m65 0h10m25 0h10m65 0h10m28 0h10m65 0h263q5 0 5-5m-566 30q0 5 5 5h5m102 0h10m25 0h10m102 0h10m28 0h10m102 0h152q5 0 5-5m-566 30q0 5 5 5h5m65 0h10m25 0h10m65 0h10m28 0h10m65 0h263q5 0 5-5m-566 30q0 5 5 5h5m102 0h10m25 0h10m65 0h10m28 0h10m102 0h189q5 0 5-5m-566 30q0 5 5 5h25m65 0h10m29 0h10m65 0h94m-288 0q5 0 5 5v20q0 5 5 5h5m102 0h10m29 0h10m102 0h5q5 0 5-5v-20q0-5 5-5m5 0h10m28 0h10m71 0h139q5 0 5-5m-566 60q0 5 5 5h25m65 0h10m38 0h10m65 0h94m-297 0q5 0 5 5v20q0 5 5 5h5m102 0h10m38 0h10m102 0h5q5 0 5-5v-20q0-5 5-5m5 0h10m28 0h10m71 0h130q5 0 5-5m-566 60q0 5 5 5h5m54 0h10m38 0h10m54 0h10m28 0h10m71 0h266q5 0 5-5m-566 60q0 5 5 5h5m70 0h10m25 0h10m54 0h10m24 0h30m-5 0q-5 0-5-5v-20q0-5 5-5h20m24 0h20q5 0 5 5v20q0 5-5 5m-5 0h30m25 0h10m28 0h10m71 0h90q5 0 5-5m-566 30q0 5 5 5h25m65 0h10m29 0h10m65 0h94m-288 0q5 0 5 5v20q0 5 5 5h5m102 0h10m29 0h10m102 0h5q5 0 5-5v-20q0-5 5-5m5 0h10m28 0h10m71 0h139q5 0 5-5m-566 60q0 5 5 5h25m65 0h10m38 0h10m65 0h94m-297 0q5 0 5 5v20q0 5 5 5h5m102 0h10m38 0h10m102 0h5q5 0 5-5v-20q0-5 5-5m5 0h10m28 0h10m71 0h130q5 0 5-5m-566 60q0 5 5 5h5m43 0h10m25 0h10m65 0h10m25 0h10m28 0h10m65 0h250q5 0 5-5m-566 30q0 5 5 5h5m43 0h10m25 0h10m102 0h10m25 0h10m28 0h10m102 0h176q5 0 5-5m-566 30q0 5 5 5h5m54 0h10m38 0h10m54 0h10m28 0h10m71 0h266q5 0 5-5m-566 60q0 5 5 5h5m70 0h10m25 0h10m54 0h10m24 0h30m-5 0q-5 0-5-5v-20q0-5 5-5h20m24 0h20q5 0 5 5v20q0 5-5 5m-5 0h30m25 0h10m28 0h10m71 0h90q5 0 5-5m-566 30q0 5 5 5h5m54 0h10m34 0h10m54 0h10m28 0h10m71 0h270q5 0 5-5m-566 60q0 5 5 5h5m91 0h10m25 0h10m54 0h10m24 0h30m-5 0q-5 0-5-5v-20q0-5 5-5h20m24 0h20q5 0 5 5v20q0 5-5 5m-5 0h30m25 0h10m28 0h10m71 0h69q5 0 5-5m-571-865q5 0 5 5v890q0 5 5 5h5m65 0h10m25 0h10m102 0h10m24 0h10m65 0h10m25 0h10m28 0h30m102 0h20m-137 0q5 0 5 5v20q0 5 5 5h5m65 0h42q5 0 5-5v-20q0-5 5-5m5 0h5q5 0 5-5v-890q0-5 5-5m5 0h5"/><a xlink:href="#value"><rect class="r" x="25" y="5" width="54" height="25"/><text class="i" x="35" y="22">value</text></a><rect class="l" x="89" y="5" width="34" height="25" rx="7"/><text class="i" x="99" y="22">!=</text><a xlink:href="#value"><rect class="r" x="133" y="5" width="54" height="25"/><text class="i" x="143" y="22">value</text></a><rect class="l" x="197" y="5" width="28" height="25" rx="7"/><text class="i" x="207" y="22">»</text><a xlink:href="#boolean"><rect class="r" x="235" y="5" width="71" height="25"/><text class="i" x="245" y="22">boolean</text></a><rect class="l" x="25" y="65" width="91" height="25" rx="7"/><text class="i" x="35" y="82">notEqualTo</text><rect class="l" x="126" y="65" width="25" height="25" rx="7"/><text class="i" x="136" y="82">(</text><a xlink:href="#value"><rect class="r" x="161" y="65" width="54" height="25"/><text class="i" x="171" y="82">value</text></a><rect class="l" x="225" y="65" width="24" height="25" rx="7"/><text class="i" x="235" y="82">,</text><rect class="l" x="294" y="35" width="24" height="25" rx="7"/><text class="i" x="304" y="52">,</text><a xlink:href="#value"><rect class="r" x="279" y="65" width="54" height="25"/><text class="i" x="289" y="82">value</text></a><rect class="l" x="363" y="65" width="25" height="25" rx="7"/><text class="i" x="373" y="82">)</text><rect class="l" x="398" y="65" width="28" height="25" rx="7"/><text class="i" x="408" y="82">»</text><a xlink:href="#boolean"><rect class="r" x="436" y="65" width="71" height="25"/><text class="i" x="446" y="82">boolean</text></a><a xlink:href="#integer"><rect class="r" x="25" y="95" width="65" height="25"/><text class="i" x="35" y="112">integer</text></a><rect class="l" x="100" y="95" width="28" height="25" rx="7"/><text class="i" x="110" y="112">*</text><a xlink:href="#integer"><rect class="r" x="138" y="95" width="65" height="25"/><text class="i" x="148" y="112">integer</text></a><rect class="l" x="213" y="95" width="28" height="25" rx="7"/><text class="i" x="223" y="112">»</text><a xlink:href="#integer"><rect class="r" x="251" y="95" width="65" height="25"/><text class="i" x="261" y="112">integer</text></a><a xlink:href="#fixed-decimal"><rect class="r" x="25" y="125" width="102" height="25"/><text class="i" x="35" y="142">fixed-decimal</text></a><rect class="l" x="137" y="125" width="28" height="25" rx="7"/><text class="i" x="147" y="142">*</text><a xlink:href="#integer"><rect class="r" x="175" y="125" width="65" height="25"/><text class="i" x="185" y="142">integer</text></a><rect class="l" x="250" y="125" width="28" height="25" rx="7"/><text class="i" x="260" y="142">»</text><a xlink:href="#fixed-decimal"><rect class="r" x="288" y="125" width="102" height="25"/><text class="i" x="298" y="142">fixed-decimal</text></a><a xlink:href="#integer"><rect class="r" x="25" y="155" width="65" height="25"/><text class="i" x="35" y="172">integer</text></a><rect class="l" x="100" y="155" width="29" height="25" rx="7"/><text class="i" x="110" y="172">+</text><a xlink:href="#integer"><rect class="r" x="139" y="155" width="65" height="25"/><text class="i" x="149" y="172">integer</text></a><rect class="l" x="214" y="155" width="28" height="25" rx="7"/><text class="i" x="224" y="172">»</text><a xlink:href="#integer"><rect class="r" x="252" y="155" width="65" height="25"/><text class="i" x="262" y="172">integer</text></a><a xlink:href="#fixed-decimal"><rect class="r" x="25" y="185" width="102" height="25"/><text class="i" x="35" y="202">fixed-decimal</text></a><rect class="l" x="137" y="185" width="29" height="25" rx="7"/><text class="i" x="147" y="202">+</text><a xlink:href="#fixed-decimal"><rect class="r" x="176" y="185" width="102" height="25"/><text class="i" x="186" y="202">fixed-decimal</text></a><rect class="l" x="288" y="185" width="28" height="25" rx="7"/><text class="i" x="298" y="202">»</text><a xlink:href="#fixed-decimal"><rect class="r" x="326" y="185" width="102" height="25"/><text class="i" x="336" y="202">fixed-decimal</text></a><a xlink:href="#integer"><rect class="r" x="25" y="215" width="65" height="25"/><text class="i" x="35" y="232">integer</text></a><rect class="l" x="100" y="215" width="25" height="25" rx="7"/><text class="i" x="110" y="232">-</text><a xlink:href="#integer"><rect class="r" x="135" y="215" width="65" height="25"/><text class="i" x="145" y="232">integer</text></a><rect class="l" x="210" y="215" width="28" height="25" rx="7"/><text class="i" x="220" y="232">»</text><a xlink:href="#integer"><rect class="r" x="248" y="215" width="65" height="25"/><text class="i" x="258" y="232">integer</text></a><a xlink:href="#fixed-decimal"><rect class="r" x="25" y="245" width="102" height="25"/><text class="i" x="35" y="262">fixed-decimal</text></a><rect class="l" x="137" y="245" width="25" height="25" rx="7"/><text class="i" x="147" y="262">-</text><a xlink:href="#fixed-decimal"><rect class="r" x="172" y="245" width="102" height="25"/><text class="i" x="182" y="262">fixed-decimal</text></a><rect class="l" x="284" y="245" width="28" height="25" rx="7"/><text class="i" x="294" y="262">»</text><a xlink:href="#fixed-decimal"><rect class="r" x="322" y="245" width="102" height="25"/><text class="i" x="332" y="262">fixed-decimal</text></a><a xlink:href="#integer"><rect class="r" x="25" y="275" width="65" height="25"/><text class="i" x="35" y="292">integer</text></a><rect class="l" x="100" y="275" width="25" height="25" rx="7"/><text class="i" x="110" y="292">/</text><a xlink:href="#integer"><rect class="r" x="135" y="275" width="65" height="25"/><text class="i" x="145" y="292">integer</text></a><rect class="l" x="210" y="275" width="28" height="25" rx="7"/><text class="i" x="220" y="292">»</text><a xlink:href="#integer"><rect class="r" x="248" y="275" width="65" height="25"/><text class="i" x="258" y="292">integer</text></a><a xlink:href="#fixed-decimal"><rect class="r" x="25" y="305" width="102" height="25"/><text class="i" x="35" y="322">fixed-decimal</text></a><rect class="l" x="137" y="305" width="25" height="25" rx="7"/><text class="i" x="147" y="322">/</text><a xlink:href="#integer"><rect class="r" x="172" y="305" width="65" height="25"/><text class="i" x="182" y="322">integer</text></a><rect class="l" x="247" y="305" width="28" height="25" rx="7"/><text class="i" x="257" y="322">»</text><a xlink:href="#fixed-decimal"><rect class="r" x="285" y="305" width="102" height="25"/><text class="i" x="295" y="322">fixed-decimal</text></a><a xlink:href="#integer"><rect class="r" x="45" y="335" width="65" height="25"/><text class="i" x="55" y="352">integer</text></a><rect class="l" x="120" y="335" width="29" height="25" rx="7"/><text class="i" x="130" y="352">&lt;</text><a xlink:href="#integer"><rect class="r" x="159" y="335" width="65" height="25"/><text class="i" x="169" y="352">integer</text></a><a xlink:href="#fixed-decimal"><rect class="r" x="45" y="365" width="102" height="25"/><text class="i" x="55" y="382">fixed-decimal</text></a><rect class="l" x="157" y="365" width="29" height="25" rx="7"/><text class="i" x="167" y="382">&lt;</text><a xlink:href="#fixed-decimal"><rect class="r" x="196" y="365" width="102" height="25"/><text class="i" x="206" y="382">fixed-decimal</text></a><rect class="l" x="328" y="335" width="28" height="25" rx="7"/><text class="i" x="338" y="352">»</text><a xlink:href="#boolean"><rect class="r" x="366" y="335" width="71" height="25"/><text class="i" x="376" y="352">boolean</text></a><a xlink:href="#integer"><rect class="r" x="45" y="395" width="65" height="25"/><text class="i" x="55" y="412">integer</text></a><rect class="l" x="120" y="395" width="38" height="25" rx="7"/><text class="i" x="130" y="412">&lt;=</text><a xlink:href="#integer"><rect class="r" x="168" y="395" width="65" height="25"/><text class="i" x="178" y="412">integer</text></a><a xlink:href="#fixed-decimal"><rect class="r" x="45" y="425" width="102" height="25"/><text class="i" x="55" y="442">fixed-decimal</text></a><rect class="l" x="157" y="425" width="38" height="25" rx="7"/><text class="i" x="167" y="442">&lt;=</text><a xlink:href="#fixed-decimal"><rect class="r" x="205" y="425" width="102" height="25"/><text class="i" x="215" y="442">fixed-decimal</text></a><rect class="l" x="337" y="395" width="28" height="25" rx="7"/><text class="i" x="347" y="412">»</text><a xlink:href="#boolean"><rect class="r" x="375" y="395" width="71" height="25"/><text class="i" x="385" y="412">boolean</text></a><a xlink:href="#value"><rect class="r" x="25" y="455" width="54" height="25"/><text class="i" x="35" y="472">value</text></a><rect class="l" x="89" y="455" width="38" height="25" rx="7"/><text class="i" x="99" y="472">==</text><a xlink:href="#value"><rect class="r" x="137" y="455" width="54" height="25"/><text class="i" x="147" y="472">value</text></a><rect class="l" x="201" y="455" width="28" height="25" rx="7"/><text class="i" x="211" y="472">»</text><a xlink:href="#boolean"><rect class="r" x="239" y="455" width="71" height="25"/><text class="i" x="249" y="472">boolean</text></a><rect class="l" x="25" y="515" width="70" height="25" rx="7"/><text class="i" x="35" y="532">equalTo</text><rect class="l" x="105" y="515" width="25" height="25" rx="7"/><text class="i" x="115" y="532">(</text><a xlink:href="#value"><rect class="r" x="140" y="515" width="54" height="25"/><text class="i" x="150" y="532">value</text></a><rect class="l" x="204" y="515" width="24" height="25" rx="7"/><text class="i" x="214" y="532">,</text><rect class="l" x="273" y="485" width="24" height="25" rx="7"/><text class="i" x="283" y="502">,</text><a xlink:href="#value"><rect class="r" x="258" y="515" width="54" height="25"/><text class="i" x="268" y="532">value</text></a><rect class="l" x="342" y="515" width="25" height="25" rx="7"/><text class="i" x="352" y="532">)</text><rect class="l" x="377" y="515" width="28" height="25" rx="7"/><text class="i" x="387" y="532">»</text><a xlink:href="#boolean"><rect class="r" x="415" y="515" width="71" height="25"/><text class="i" x="425" y="532">boolean</text></a><a xlink:href="#integer"><rect class="r" x="45" y="545" width="65" height="25"/><text class="i" x="55" y="562">integer</text></a><rect class="l" x="120" y="545" width="29" height="25" rx="7"/><text class="i" x="130" y="562">&gt;</text><a xlink:href="#integer"><rect class="r" x="159" y="545" width="65" height="25"/><text class="i" x="169" y="562">integer</text></a><a xlink:href="#fixed-decimal"><rect class="r" x="45" y="575" width="102" height="25"/><text class="i" x="55" y="592">fixed-decimal</text></a><rect class="l" x="157" y="575" width="29" height="25" rx="7"/><text class="i" x="167" y="592">&gt;</text><a xlink:href="#fixed-decimal"><rect class="r" x="196" y="575" width="102" height="25"/><text class="i" x="206" y="592">fixed-decimal</text></a><rect class="l" x="328" y="545" width="28" height="25" rx="7"/><text class="i" x="338" y="562">»</text><a xlink:href="#boolean"><rect class="r" x="366" y="545" width="71" height="25"/><text class="i" x="376" y="562">boolean</text></a><a xlink:href="#integer"><rect class="r" x="45" y="605" width="65" height="25"/><text class="i" x="55" y="622">integer</text></a><rect class="l" x="120" y="605" width="38" height="25" rx="7"/><text class="i" x="130" y="622">&gt;=</text><a xlink:href="#integer"><rect class="r" x="168" y="605" width="65" height="25"/><text class="i" x="178" y="622">integer</text></a><a xlink:href="#fixed-decimal"><rect class="r" x="45" y="635" width="102" height="25"/><text class="i" x="55" y="652">fixed-decimal</text></a><rect class="l" x="157" y="635" width="38" height="25" rx="7"/><text class="i" x="167" y="652">&gt;=</text><a xlink:href="#fixed-decimal"><rect class="r" x="205" y="635" width="102" height="25"/><text class="i" x="215" y="652">fixed-decimal</text></a><rect class="l" x="337" y="605" width="28" height="25" rx="7"/><text class="i" x="347" y="622">»</text><a xlink:href="#boolean"><rect class="r" x="375" y="605" width="71" height="25"/><text class="i" x="385" y="622">boolean</text></a><rect class="l" x="25" y="665" width="43" height="25" rx="7"/><text class="i" x="35" y="682">abs</text><rect class="l" x="78" y="665" width="25" height="25" rx="7"/><text class="i" x="88" y="682">(</text><a xlink:href="#integer"><rect class="r" x="113" y="665" width="65" height="25"/><text class="i" x="123" y="682">integer</text></a><rect class="l" x="188" y="665" width="25" height="25" rx="7"/><text class="i" x="198" y="682">)</text><rect class="l" x="223" y="665" width="28" height="25" rx="7"/><text class="i" x="233" y="682">»</text><a xlink:href="#integer"><rect class="r" x="261" y="665" width="65" height="25"/><text class="i" x="271" y="682">integer</text></a><rect class="l" x="25" y="695" width="43" height="25" rx="7"/><text class="i" x="35" y="712">abs</text><rect class="l" x="78" y="695" width="25" height="25" rx="7"/><text class="i" x="88" y="712">(</text><a xlink:href="#fixed-decimal"><rect class="r" x="113" y="695" width="102" height="25"/><text class="i" x="123" y="712">fixed-decimal</text></a><rect class="l" x="225" y="695" width="25" height="25" rx="7"/><text class="i" x="235" y="712">)</text><rect class="l" x="260" y="695" width="28" height="25" rx="7"/><text class="i" x="270" y="712">»</text><a xlink:href="#fixed-decimal"><rect class="r" x="298" y="695" width="102" height="25"/><text class="i" x="308" y="712">fixed-decimal</text></a><a xlink:href="#value"><rect class="r" x="25" y="725" width="54" height="25"/><text class="i" x="35" y="742">value</text></a><rect class="l" x="89" y="725" width="38" height="25" rx="7"/><text class="i" x="99" y="742">==</text><a xlink:href="#value"><rect class="r" x="137" y="725" width="54" height="25"/><text class="i" x="147" y="742">value</text></a><rect class="l" x="201" y="725" width="28" height="25" rx="7"/><text class="i" x="211" y="742">»</text><a xlink:href="#boolean"><rect class="r" x="239" y="725" width="71" height="25"/><text class="i" x="249" y="742">boolean</text></a><rect class="l" x="25" y="785" width="70" height="25" rx="7"/><text class="i" x="35" y="802">equalTo</text><rect class="l" x="105" y="785" width="25" height="25" rx="7"/><text class="i" x="115" y="802">(</text><a xlink:href="#value"><rect class="r" x="140" y="785" width="54" height="25"/><text class="i" x="150" y="802">value</text></a><rect class="l" x="204" y="785" width="24" height="25" rx="7"/><text class="i" x="214" y="802">,</text><rect class="l" x="273" y="755" width="24" height="25" rx="7"/><text class="i" x="283" y="772">,</text><a xlink:href="#value"><rect class="r" x="258" y="785" width="54" height="25"/><text class="i" x="268" y="802">value</text></a><rect class="l" x="342" y="785" width="25" height="25" rx="7"/><text class="i" x="352" y="802">)</text><rect class="l" x="377" y="785" width="28" height="25" rx="7"/><text class="i" x="387" y="802">»</text><a xlink:href="#boolean"><rect class="r" x="415" y="785" width="71" height="25"/><text class="i" x="425" y="802">boolean</text></a><a xlink:href="#value"><rect class="r" x="25" y="815" width="54" height="25"/><text class="i" x="35" y="832">value</text></a><rect class="l" x="89" y="815" width="34" height="25" rx="7"/><text class="i" x="99" y="832">!=</text><a xlink:href="#value"><rect class="r" x="133" y="815" width="54" height="25"/><text class="i" x="143" y="832">value</text></a><rect class="l" x="197" y="815" width="28" height="25" rx="7"/><text class="i" x="207" y="832">»</text><a xlink:href="#boolean"><rect class="r" x="235" y="815" width="71" height="25"/><text class="i" x="245" y="832">boolean</text></a><rect class="l" x="25" y="875" width="91" height="25" rx="7"/><text class="i" x="35" y="892">notEqualTo</text><rect class="l" x="126" y="875" width="25" height="25" rx="7"/><text class="i" x="136" y="892">(</text><a xlink:href="#value"><rect class="r" x="161" y="875" width="54" height="25"/><text class="i" x="171" y="892">value</text></a><rect class="l" x="225" y="875" width="24" height="25" rx="7"/><text class="i" x="235" y="892">,</text><rect class="l" x="294" y="845" width="24" height="25" rx="7"/><text class="i" x="304" y="862">,</text><a xlink:href="#value"><rect class="r" x="279" y="875" width="54" height="25"/><text class="i" x="289" y="892">value</text></a><rect class="l" x="363" y="875" width="25" height="25" rx="7"/><text class="i" x="373" y="892">)</text><rect class="l" x="398" y="875" width="28" height="25" rx="7"/><text class="i" x="408" y="892">»</text><a xlink:href="#boolean"><rect class="r" x="436" y="875" width="71" height="25"/><text class="i" x="446" y="892">boolean</text></a><rect class="l" x="25" y="905" width="65" height="25" rx="7"/><text class="i" x="35" y="922">rescale</text><rect class="l" x="100" y="905" width="25" height="25" rx="7"/><text class="i" x="110" y="922">(</text><a xlink:href="#fixed-decimal"><rect class="r" x="135" y="905" width="102" height="25"/><text class="i" x="145" y="922">fixed-decimal</text></a><rect class="l" x="247" y="905" width="24" height="25" rx="7"/><text class="i" x="257" y="922">,</text><a xlink:href="#integer"><rect class="r" x="281" y="905" width="65" height="25"/><text class="i" x="291" y="922">integer</text></a><rect class="l" x="356" y="905" width="25" height="25" rx="7"/><text class="i" x="366" y="922">)</text><rect class="l" x="391" y="905" width="28" height="25" rx="7"/><text class="i" x="401" y="922">»</text><a xlink:href="#fixed-decimal"><rect class="r" x="449" y="905" width="102" height="25"/><text class="i" x="459" y="922">fixed-decimal</text></a><a xlink:href="#integer"><rect class="r" x="449" y="935" width="65" height="25"/><text class="i" x="459" y="952">integer</text></a></svg>