<svg version="1.1" xmlns:xlink="http://www.w3.org/1999/xlink" xmlns="http://www.w3.org/2000/svg" width="611" height="755" viewbox="0 0 611 755"><defs><style type="text/css">.c{fill: none; stroke: #888888; stroke-width: 2px;}.j{fill:#000000;font-family:Verdana,Sans-serif;font-size:12px;}.l{fill:#90d9ff;stroke:#222222;}.r{fill:#d3f0ff;stroke:#222222;}</style></defs><path class="c" d="M0 18h25m25 0h10m28 0h30m62 0h10m62 0h10m25 0h10m28 0h10m62 0h92m-386 0q5 0 5 5v20q0 5 5 5h5m98 0h10m62 0h10m25 0h10m28 0h10m98 0h5q5 0 5-5v-20q0-5 5-5m5 0h117m-591 70q0 5 5 5h5m25 0h10m30 0h30m62 0h30m-5 0q-5 0-5-5v-17q0-5 5-5h72q5 0 5 5v17q0 5-5 5m-5 0h30m25 0h10m28 0h10m62 0h128m-462 0q5 0 5 5v35q0 5 5 5h5m98 0h30m-5 0q-5 0-5-5v-17q0-5 5-5h108q5 0 5 5v17q0 5-5 5m-5 0h30m25 0h10m28 0h10m98 0h5q5 0 5-5v-35q0-5 5-5m5 0h24q5 0 5-5m-581 90q0 5 5 5h5m25 0h10m25 0h30m62 0h30m-5 0q-5 0-5-5v-17q0-5 5-5h72q5 0 5 5v17q0 5-5 5m-5 0h30m25 0h10m28 0h10m62 0h128m-462 0q5 0 5 5v35q0 5 5 5h5m98 0h30m-5 0q-5 0-5-5v-17q0-5 5-5h108q5 0 5 5v17q0 5-5 5m-5 0h30m25 0h10m28 0h10m98 0h5q5 0 5-5v-35q0-5 5-5m5 0h29q5 0 5-5m-581 75q0 5 5 5h5m25 0h10m30 0h30m62 0h10m62 0h92m-241 0q5 0 5 5v20q0 5 5 5h5m98 0h10m98 0h5q5 0 5-5v-20q0-5 5-5m5 0h10m25 0h10m28 0h10m66 0h96q5 0 5-5m-581 60q0 5 5 5h5m25 0h10m40 0h30m62 0h10m62 0h92m-241 0q5 0 5 5v20q0 5 5 5h5m98 0h10m98 0h5q5 0 5-5v-20q0-5 5-5m5 0h10m25 0h10m28 0h10m66 0h86q5 0 5-5m-581 75q0 5 5 5h5m25 0h10m30 0h10m52 0h30m-5 0q-5 0-5-5v-17q0-5 5-5h62q5 0 5 5v17q0 5-5 5m-5 0h30m25 0h10m28 0h10m66 0h188q5 0 5-5m-581 30q0 5 5 5h5m25 0h10m30 0h30m62 0h10m62 0h92m-241 0q5 0 5 5v20q0 5 5 5h5m98 0h10m98 0h5q5 0 5-5v-20q0-5 5-5m5 0h10m25 0h10m28 0h10m66 0h96q5 0 5-5m-581 60q0 5 5 5h5m25 0h10m40 0h30m62 0h10m62 0h92m-241 0q5 0 5 5v20q0 5 5 5h5m98 0h10m98 0h5q5 0 5-5v-20q0-5 5-5m5 0h10m25 0h10m28 0h10m66 0h86q5 0 5-5m-581 60q0 5 5 5h5m25 0h10m40 0h30m62 0h10m25 0h10m28 0h10m62 0h92m-314 0q5 0 5 5v20q0 5 5 5h5m98 0h10m25 0h10m28 0h10m98 0h5q5 0 5-5v-20q0-5 5-5m5 0h162q5 0 5-5m-581 60q0 5 5 5h5m25 0h10m37 0h30m62 0h10m62 0h10m25 0h10m28 0h10m62 0h92m-386 0q5 0 5 5v20q0 5 5 5h5m98 0h10m62 0h10m25 0h10m28 0h10m98 0h5q5 0 5-5v-20q0-5 5-5m5 0h93q5 0 5-5m-581 75q0 5 5 5h5m25 0h10m50 0h10m52 0h30m-5 0q-5 0-5-5v-17q0-5 5-5h62q5 0 5 5v17q0 5-5 5m-5 0h30m25 0h10m28 0h10m66 0h168q5 0 5-5m-586-655q5 0 5 5v680q0 5 5 5h5m25 0h10m61 0h10m98 0h10m126 0h10m25 0h10m28 0h30m98 0h20m-133 0q5 0 5 5v20q0 5 5 5h5m62 0h41q5 0 5-5v-20q0-5 5-5m5 0h5q5 0 5-5v-680q0-5 5-5m5 0h5"/><rect class="l" x="25" y="5" width="25" height="25" rx="7"/><text class="j" x="35" y="22">(</text><rect class="l" x="60" y="5" width="28" height="25" rx="7"/><text class="j" x="70" y="22">*</text><a xlink:href="#integer"><rect class="r" x="118" y="5" width="62" height="25"/><text class="j" x="128" y="22">integer</text></a><a xlink:href="#integer"><rect class="r" x="190" y="5" width="62" height="25"/><text class="j" x="200" y="22">integer</text></a><rect class="l" x="262" y="5" width="25" height="25" rx="7"/><text class="j" x="272" y="22">)</text><rect class="l" x="297" y="5" width="28" height="25" rx="7"/><text class="j" x="307" y="22">»</text><a xlink:href="#integer"><rect class="r" x="335" y="5" width="62" height="25"/><text class="j" x="345" y="22">integer</text></a><a xlink:href="#fixed-decimal"><rect class="r" x="118" y="35" width="98" height="25"/><text class="j" x="128" y="52">fixed-decimal</text></a><a xlink:href="#integer"><rect class="r" x="226" y="35" width="62" height="25"/><text class="j" x="236" y="52">integer</text></a><rect class="l" x="298" y="35" width="25" height="25" rx="7"/><text class="j" x="308" y="52">)</text><rect class="l" x="333" y="35" width="28" height="25" rx="7"/><text class="j" x="343" y="52">»</text><a xlink:href="#fixed-decimal"><rect class="r" x="371" y="35" width="98" height="25"/><text class="j" x="381" y="52">fixed-decimal</text></a><rect class="l" x="25" y="80" width="25" height="25" rx="7"/><text class="j" x="35" y="97">(</text><rect class="l" x="60" y="80" width="30" height="25" rx="7"/><text class="j" x="70" y="97">+</text><a xlink:href="#integer"><rect class="r" x="120" y="80" width="62" height="25"/><text class="j" x="130" y="97">integer</text></a><a xlink:href="#integer"><rect class="r" x="212" y="80" width="62" height="25"/><text class="j" x="222" y="97">integer</text></a><rect class="l" x="304" y="80" width="25" height="25" rx="7"/><text class="j" x="314" y="97">)</text><rect class="l" x="339" y="80" width="28" height="25" rx="7"/><text class="j" x="349" y="97">»</text><a xlink:href="#integer"><rect class="r" x="377" y="80" width="62" height="25"/><text class="j" x="387" y="97">integer</text></a><a xlink:href="#fixed-decimal"><rect class="r" x="120" y="125" width="98" height="25"/><text class="j" x="130" y="142">fixed-decimal</text></a><a xlink:href="#fixed-decimal"><rect class="r" x="248" y="125" width="98" height="25"/><text class="j" x="258" y="142">fixed-decimal</text></a><rect class="l" x="376" y="125" width="25" height="25" rx="7"/><text class="j" x="386" y="142">)</text><rect class="l" x="411" y="125" width="28" height="25" rx="7"/><text class="j" x="421" y="142">»</text><a xlink:href="#fixed-decimal"><rect class="r" x="449" y="125" width="98" height="25"/><text class="j" x="459" y="142">fixed-decimal</text></a><rect class="l" x="25" y="170" width="25" height="25" rx="7"/><text class="j" x="35" y="187">(</text><rect class="l" x="60" y="170" width="25" height="25" rx="7"/><text class="j" x="70" y="187">-</text><a xlink:href="#integer"><rect class="r" x="115" y="170" width="62" height="25"/><text class="j" x="125" y="187">integer</text></a><a xlink:href="#integer"><rect class="r" x="207" y="170" width="62" height="25"/><text class="j" x="217" y="187">integer</text></a><rect class="l" x="299" y="170" width="25" height="25" rx="7"/><text class="j" x="309" y="187">)</text><rect class="l" x="334" y="170" width="28" height="25" rx="7"/><text class="j" x="344" y="187">»</text><a xlink:href="#integer"><rect class="r" x="372" y="170" width="62" height="25"/><text class="j" x="382" y="187">integer</text></a><a xlink:href="#fixed-decimal"><rect class="r" x="115" y="215" width="98" height="25"/><text class="j" x="125" y="232">fixed-decimal</text></a><a xlink:href="#fixed-decimal"><rect class="r" x="243" y="215" width="98" height="25"/><text class="j" x="253" y="232">fixed-decimal</text></a><rect class="l" x="371" y="215" width="25" height="25" rx="7"/><text class="j" x="381" y="232">)</text><rect class="l" x="406" y="215" width="28" height="25" rx="7"/><text class="j" x="416" y="232">»</text><a xlink:href="#fixed-decimal"><rect class="r" x="444" y="215" width="98" height="25"/><text class="j" x="454" y="232">fixed-decimal</text></a><rect class="l" x="25" y="245" width="25" height="25" rx="7"/><text class="j" x="35" y="262">(</text><rect class="l" x="60" y="245" width="30" height="25" rx="7"/><text class="j" x="70" y="262">&lt;</text><a xlink:href="#integer"><rect class="r" x="120" y="245" width="62" height="25"/><text class="j" x="130" y="262">integer</text></a><a xlink:href="#integer"><rect class="r" x="192" y="245" width="62" height="25"/><text class="j" x="202" y="262">integer</text></a><a xlink:href="#fixed-decimal"><rect class="r" x="120" y="275" width="98" height="25"/><text class="j" x="130" y="292">fixed-decimal</text></a><a xlink:href="#fixed-decimal"><rect class="r" x="228" y="275" width="98" height="25"/><text class="j" x="238" y="292">fixed-decimal</text></a><rect class="l" x="356" y="245" width="25" height="25" rx="7"/><text class="j" x="366" y="262">)</text><rect class="l" x="391" y="245" width="28" height="25" rx="7"/><text class="j" x="401" y="262">»</text><a xlink:href="#boolean"><rect class="r" x="429" y="245" width="66" height="25"/><text class="j" x="439" y="262">boolean</text></a><rect class="l" x="25" y="305" width="25" height="25" rx="7"/><text class="j" x="35" y="322">(</text><rect class="l" x="60" y="305" width="40" height="25" rx="7"/><text class="j" x="70" y="322">&lt;=</text><a xlink:href="#integer"><rect class="r" x="130" y="305" width="62" height="25"/><text class="j" x="140" y="322">integer</text></a><a xlink:href="#integer"><rect class="r" x="202" y="305" width="62" height="25"/><text class="j" x="212" y="322">integer</text></a><a xlink:href="#fixed-decimal"><rect class="r" x="130" y="335" width="98" height="25"/><text class="j" x="140" y="352">fixed-decimal</text></a><a xlink:href="#fixed-decimal"><rect class="r" x="238" y="335" width="98" height="25"/><text class="j" x="248" y="352">fixed-decimal</text></a><rect class="l" x="366" y="305" width="25" height="25" rx="7"/><text class="j" x="376" y="322">)</text><rect class="l" x="401" y="305" width="28" height="25" rx="7"/><text class="j" x="411" y="322">»</text><a xlink:href="#boolean"><rect class="r" x="439" y="305" width="66" height="25"/><text class="j" x="449" y="322">boolean</text></a><rect class="l" x="25" y="380" width="25" height="25" rx="7"/><text class="j" x="35" y="397">(</text><rect class="l" x="60" y="380" width="30" height="25" rx="7"/><text class="j" x="70" y="397">=</text><a xlink:href="#value"><rect class="r" x="100" y="380" width="52" height="25"/><text class="j" x="110" y="397">value</text></a><a xlink:href="#value"><rect class="r" x="182" y="380" width="52" height="25"/><text class="j" x="192" y="397">value</text></a><rect class="l" x="264" y="380" width="25" height="25" rx="7"/><text class="j" x="274" y="397">)</text><rect class="l" x="299" y="380" width="28" height="25" rx="7"/><text class="j" x="309" y="397">»</text><a xlink:href="#boolean"><rect class="r" x="337" y="380" width="66" height="25"/><text class="j" x="347" y="397">boolean</text></a><rect class="l" x="25" y="410" width="25" height="25" rx="7"/><text class="j" x="35" y="427">(</text><rect class="l" x="60" y="410" width="30" height="25" rx="7"/><text class="j" x="70" y="427">&gt;</text><a xlink:href="#integer"><rect class="r" x="120" y="410" width="62" height="25"/><text class="j" x="130" y="427">integer</text></a><a xlink:href="#integer"><rect class="r" x="192" y="410" width="62" height="25"/><text class="j" x="202" y="427">integer</text></a><a xlink:href="#fixed-decimal"><rect class="r" x="120" y="440" width="98" height="25"/><text class="j" x="130" y="457">fixed-decimal</text></a><a xlink:href="#fixed-decimal"><rect class="r" x="228" y="440" width="98" height="25"/><text class="j" x="238" y="457">fixed-decimal</text></a><rect class="l" x="356" y="410" width="25" height="25" rx="7"/><text class="j" x="366" y="427">)</text><rect class="l" x="391" y="410" width="28" height="25" rx="7"/><text class="j" x="401" y="427">»</text><a xlink:href="#boolean"><rect class="r" x="429" y="410" width="66" height="25"/><text class="j" x="439" y="427">boolean</text></a><rect class="l" x="25" y="470" width="25" height="25" rx="7"/><text class="j" x="35" y="487">(</text><rect class="l" x="60" y="470" width="40" height="25" rx="7"/><text class="j" x="70" y="487">&gt;=</text><a xlink:href="#integer"><rect class="r" x="130" y="470" width="62" height="25"/><text class="j" x="140" y="487">integer</text></a><a xlink:href="#integer"><rect class="r" x="202" y="470" width="62" height="25"/><text class="j" x="212" y="487">integer</text></a><a xlink:href="#fixed-decimal"><rect class="r" x="130" y="500" width="98" height="25"/><text class="j" x="140" y="517">fixed-decimal</text></a><a xlink:href="#fixed-decimal"><rect class="r" x="238" y="500" width="98" height="25"/><text class="j" x="248" y="517">fixed-decimal</text></a><rect class="l" x="366" y="470" width="25" height="25" rx="7"/><text class="j" x="376" y="487">)</text><rect class="l" x="401" y="470" width="28" height="25" rx="7"/><text class="j" x="411" y="487">»</text><a xlink:href="#boolean"><rect class="r" x="439" y="470" width="66" height="25"/><text class="j" x="449" y="487">boolean</text></a><rect class="l" x="25" y="530" width="25" height="25" rx="7"/><text class="j" x="35" y="547">(</text><rect class="l" x="60" y="530" width="40" height="25" rx="7"/><text class="j" x="70" y="547">abs</text><a xlink:href="#integer"><rect class="r" x="130" y="530" width="62" height="25"/><text class="j" x="140" y="547">integer</text></a><rect class="l" x="202" y="530" width="25" height="25" rx="7"/><text class="j" x="212" y="547">)</text><rect class="l" x="237" y="530" width="28" height="25" rx="7"/><text class="j" x="247" y="547">»</text><a xlink:href="#integer"><rect class="r" x="275" y="530" width="62" height="25"/><text class="j" x="285" y="547">integer</text></a><a xlink:href="#fixed-decimal"><rect class="r" x="130" y="560" width="98" height="25"/><text class="j" x="140" y="577">fixed-decimal</text></a><rect class="l" x="238" y="560" width="25" height="25" rx="7"/><text class="j" x="248" y="577">)</text><rect class="l" x="273" y="560" width="28" height="25" rx="7"/><text class="j" x="283" y="577">»</text><a xlink:href="#fixed-decimal"><rect class="r" x="311" y="560" width="98" height="25"/><text class="j" x="321" y="577">fixed-decimal</text></a><rect class="l" x="25" y="590" width="25" height="25" rx="7"/><text class="j" x="35" y="607">(</text><rect class="l" x="60" y="590" width="37" height="25" rx="7"/><text class="j" x="70" y="607">div</text><a xlink:href="#integer"><rect class="r" x="127" y="590" width="62" height="25"/><text class="j" x="137" y="607">integer</text></a><a xlink:href="#integer"><rect class="r" x="199" y="590" width="62" height="25"/><text class="j" x="209" y="607">integer</text></a><rect class="l" x="271" y="590" width="25" height="25" rx="7"/><text class="j" x="281" y="607">)</text><rect class="l" x="306" y="590" width="28" height="25" rx="7"/><text class="j" x="316" y="607">»</text><a xlink:href="#integer"><rect class="r" x="344" y="590" width="62" height="25"/><text class="j" x="354" y="607">integer</text></a><a xlink:href="#fixed-decimal"><rect class="r" x="127" y="620" width="98" height="25"/><text class="j" x="137" y="637">fixed-decimal</text></a><a xlink:href="#integer"><rect class="r" x="235" y="620" width="62" height="25"/><text class="j" x="245" y="637">integer</text></a><rect class="l" x="307" y="620" width="25" height="25" rx="7"/><text class="j" x="317" y="637">)</text><rect class="l" x="342" y="620" width="28" height="25" rx="7"/><text class="j" x="352" y="637">»</text><a xlink:href="#fixed-decimal"><rect class="r" x="380" y="620" width="98" height="25"/><text class="j" x="390" y="637">fixed-decimal</text></a><rect class="l" x="25" y="665" width="25" height="25" rx="7"/><text class="j" x="35" y="682">(</text><rect class="l" x="60" y="665" width="50" height="25" rx="7"/><text class="j" x="70" y="682">not=</text><a xlink:href="#value"><rect class="r" x="120" y="665" width="52" height="25"/><text class="j" x="130" y="682">value</text></a><a xlink:href="#value"><rect class="r" x="202" y="665" width="52" height="25"/><text class="j" x="212" y="682">value</text></a><rect class="l" x="284" y="665" width="25" height="25" rx="7"/><text class="j" x="294" y="682">)</text><rect class="l" x="319" y="665" width="28" height="25" rx="7"/><text class="j" x="329" y="682">»</text><a xlink:href="#boolean"><rect class="r" x="357" y="665" width="66" height="25"/><text class="j" x="367" y="682">boolean</text></a><rect class="l" x="25" y="695" width="25" height="25" rx="7"/><text class="j" x="35" y="712">(</text><rect class="l" x="60" y="695" width="61" height="25" rx="7"/><text class="j" x="70" y="712">rescale</text><a xlink:href="#fixed-decimal"><rect class="r" x="131" y="695" width="98" height="25"/><text class="j" x="141" y="712">fixed-decimal</text></a><a xlink:href="#integer:new-scale"><rect class="r" x="239" y="695" width="126" height="25"/><text class="j" x="249" y="712">integer:new-scale</text></a><rect class="l" x="375" y="695" width="25" height="25" rx="7"/><text class="j" x="385" y="712">)</text><rect class="l" x="410" y="695" width="28" height="25" rx="7"/><text class="j" x="420" y="712">»</text><a xlink:href="#fixed-decimal"><rect class="r" x="468" y="695" width="98" height="25"/><text class="j" x="478" y="712">fixed-decimal</text></a><a xlink:href="#integer"><rect class="r" x="468" y="725" width="62" height="25"/><text class="j" x="478" y="742">integer</text></a></svg>