<svg version="1.1" xmlns:xlink="http://www.w3.org/1999/xlink" xmlns="http://www.w3.org/2000/svg" width="581" height="785" viewbox="0 0 581 785"><defs><style type="text/css">.c{fill: none; stroke: #888888; stroke-width: 2px;}.i{fill:#000000;font-family:Verdana,Sans-serif;font-size:12px;}.l{fill:#90d9ff;stroke:#222222;}.r{fill:#d3f0ff;stroke:#222222;}</style></defs><path class="c" d="M0 18h25m52 0h10m35 0h10m52 0h10m28 0h10m66 0h278m-561 25q0 5 5 5h5m62 0h10m28 0h10m62 0h10m28 0h10m62 0h254q5 0 5-5m-551 30q0 5 5 5h5m98 0h10m28 0h10m62 0h10m28 0h10m98 0h182q5 0 5-5m-551 30q0 5 5 5h5m62 0h10m30 0h10m62 0h10m28 0h10m62 0h252q5 0 5-5m-551 30q0 5 5 5h5m98 0h10m30 0h10m98 0h10m28 0h10m98 0h144q5 0 5-5m-551 30q0 5 5 5h5m62 0h10m25 0h10m62 0h10m28 0h10m62 0h257q5 0 5-5m-551 30q0 5 5 5h5m98 0h10m25 0h10m98 0h10m28 0h10m98 0h149q5 0 5-5m-551 30q0 5 5 5h5m62 0h10m25 0h10m62 0h10m28 0h10m62 0h257q5 0 5-5m-551 30q0 5 5 5h5m98 0h10m25 0h10m62 0h10m28 0h10m98 0h185q5 0 5-5m-551 30q0 5 5 5h25m62 0h10m30 0h10m62 0h92m-281 0q5 0 5 5v20q0 5 5 5h5m98 0h10m30 0h10m98 0h5q5 0 5-5v-20q0-5 5-5m5 0h10m28 0h10m66 0h136q5 0 5-5m-551 60q0 5 5 5h25m62 0h10m40 0h10m62 0h92m-291 0q5 0 5 5v20q0 5 5 5h5m98 0h10m40 0h10m98 0h5q5 0 5-5v-20q0-5 5-5m5 0h10m28 0h10m66 0h126q5 0 5-5m-551 60q0 5 5 5h5m52 0h10m40 0h10m52 0h10m28 0h10m66 0h258q5 0 5-5m-551 30q0 5 5 5h25m62 0h10m30 0h10m62 0h92m-281 0q5 0 5 5v20q0 5 5 5h5m98 0h10m30 0h10m98 0h5q5 0 5-5v-20q0-5 5-5m5 0h10m28 0h10m66 0h136q5 0 5-5m-551 60q0 5 5 5h25m62 0h10m40 0h10m62 0h92m-291 0q5 0 5 5v20q0 5 5 5h5m98 0h10m40 0h10m98 0h5q5 0 5-5v-20q0-5 5-5m5 0h10m28 0h10m66 0h126q5 0 5-5m-551 60q0 5 5 5h5m40 0h10m25 0h10m62 0h10m25 0h10m28 0h10m62 0h244q5 0 5-5m-551 30q0 5 5 5h5m40 0h10m25 0h10m98 0h10m25 0h10m28 0h10m98 0h172q5 0 5-5m-551 60q0 5 5 5h5m66 0h10m25 0h10m52 0h10m24 0h30m-5 0q-5 0-5-5v-20q0-5 5-5h19m24 0h19q5 0 5 5v20q0 5-5 5m-5 0h30m25 0h10m28 0h10m66 0h88q5 0 5-5m-551 60q0 5 5 5h5m87 0h10m25 0h10m52 0h10m24 0h30m-5 0q-5 0-5-5v-20q0-5 5-5h19m24 0h19q5 0 5 5v20q0 5-5 5m-5 0h30m25 0h10m28 0h10m66 0h67q5 0 5-5m-556-685q5 0 5 5v710q0 5 5 5h5m61 0h10m25 0h10m98 0h10m24 0h10m62 0h10m25 0h10m28 0h30m98 0h20m-133 0q5 0 5 5v20q0 5 5 5h5m62 0h41q5 0 5-5v-20q0-5 5-5m5 0h5q5 0 5-5v-710q0-5 5-5m5 0h5"/><a xlink:href="#value"><rect class="r" x="25" y="5" width="52" height="25"/><text class="i" x="35" y="22">value</text></a><rect class="l" x="87" y="5" width="35" height="25" rx="7"/><text class="i" x="97" y="22">!=</text><a xlink:href="#value"><rect class="r" x="132" y="5" width="52" height="25"/><text class="i" x="142" y="22">value</text></a><rect class="l" x="194" y="5" width="28" height="25" rx="7"/><text class="i" x="204" y="22">»</text><a xlink:href="#boolean"><rect class="r" x="232" y="5" width="66" height="25"/><text class="i" x="242" y="22">boolean</text></a><a xlink:href="#integer"><rect class="r" x="25" y="35" width="62" height="25"/><text class="i" x="35" y="52">integer</text></a><rect class="l" x="97" y="35" width="28" height="25" rx="7"/><text class="i" x="107" y="52">*</text><a xlink:href="#integer"><rect class="r" x="135" y="35" width="62" height="25"/><text class="i" x="145" y="52">integer</text></a><rect class="l" x="207" y="35" width="28" height="25" rx="7"/><text class="i" x="217" y="52">»</text><a xlink:href="#integer"><rect class="r" x="245" y="35" width="62" height="25"/><text class="i" x="255" y="52">integer</text></a><a xlink:href="#fixed-decimal"><rect class="r" x="25" y="65" width="98" height="25"/><text class="i" x="35" y="82">fixed-decimal</text></a><rect class="l" x="133" y="65" width="28" height="25" rx="7"/><text class="i" x="143" y="82">*</text><a xlink:href="#integer"><rect class="r" x="171" y="65" width="62" height="25"/><text class="i" x="181" y="82">integer</text></a><rect class="l" x="243" y="65" width="28" height="25" rx="7"/><text class="i" x="253" y="82">»</text><a xlink:href="#fixed-decimal"><rect class="r" x="281" y="65" width="98" height="25"/><text class="i" x="291" y="82">fixed-decimal</text></a><a xlink:href="#integer"><rect class="r" x="25" y="95" width="62" height="25"/><text class="i" x="35" y="112">integer</text></a><rect class="l" x="97" y="95" width="30" height="25" rx="7"/><text class="i" x="107" y="112">+</text><a xlink:href="#integer"><rect class="r" x="137" y="95" width="62" height="25"/><text class="i" x="147" y="112">integer</text></a><rect class="l" x="209" y="95" width="28" height="25" rx="7"/><text class="i" x="219" y="112">»</text><a xlink:href="#integer"><rect class="r" x="247" y="95" width="62" height="25"/><text class="i" x="257" y="112">integer</text></a><a xlink:href="#fixed-decimal"><rect class="r" x="25" y="125" width="98" height="25"/><text class="i" x="35" y="142">fixed-decimal</text></a><rect class="l" x="133" y="125" width="30" height="25" rx="7"/><text class="i" x="143" y="142">+</text><a xlink:href="#fixed-decimal"><rect class="r" x="173" y="125" width="98" height="25"/><text class="i" x="183" y="142">fixed-decimal</text></a><rect class="l" x="281" y="125" width="28" height="25" rx="7"/><text class="i" x="291" y="142">»</text><a xlink:href="#fixed-decimal"><rect class="r" x="319" y="125" width="98" height="25"/><text class="i" x="329" y="142">fixed-decimal</text></a><a xlink:href="#integer"><rect class="r" x="25" y="155" width="62" height="25"/><text class="i" x="35" y="172">integer</text></a><rect class="l" x="97" y="155" width="25" height="25" rx="7"/><text class="i" x="107" y="172">-</text><a xlink:href="#integer"><rect class="r" x="132" y="155" width="62" height="25"/><text class="i" x="142" y="172">integer</text></a><rect class="l" x="204" y="155" width="28" height="25" rx="7"/><text class="i" x="214" y="172">»</text><a xlink:href="#integer"><rect class="r" x="242" y="155" width="62" height="25"/><text class="i" x="252" y="172">integer</text></a><a xlink:href="#fixed-decimal"><rect class="r" x="25" y="185" width="98" height="25"/><text class="i" x="35" y="202">fixed-decimal</text></a><rect class="l" x="133" y="185" width="25" height="25" rx="7"/><text class="i" x="143" y="202">-</text><a xlink:href="#fixed-decimal"><rect class="r" x="168" y="185" width="98" height="25"/><text class="i" x="178" y="202">fixed-decimal</text></a><rect class="l" x="276" y="185" width="28" height="25" rx="7"/><text class="i" x="286" y="202">»</text><a xlink:href="#fixed-decimal"><rect class="r" x="314" y="185" width="98" height="25"/><text class="i" x="324" y="202">fixed-decimal</text></a><a xlink:href="#integer"><rect class="r" x="25" y="215" width="62" height="25"/><text class="i" x="35" y="232">integer</text></a><rect class="l" x="97" y="215" width="25" height="25" rx="7"/><text class="i" x="107" y="232">/</text><a xlink:href="#integer"><rect class="r" x="132" y="215" width="62" height="25"/><text class="i" x="142" y="232">integer</text></a><rect class="l" x="204" y="215" width="28" height="25" rx="7"/><text class="i" x="214" y="232">»</text><a xlink:href="#integer"><rect class="r" x="242" y="215" width="62" height="25"/><text class="i" x="252" y="232">integer</text></a><a xlink:href="#fixed-decimal"><rect class="r" x="25" y="245" width="98" height="25"/><text class="i" x="35" y="262">fixed-decimal</text></a><rect class="l" x="133" y="245" width="25" height="25" rx="7"/><text class="i" x="143" y="262">/</text><a xlink:href="#integer"><rect class="r" x="168" y="245" width="62" height="25"/><text class="i" x="178" y="262">integer</text></a><rect class="l" x="240" y="245" width="28" height="25" rx="7"/><text class="i" x="250" y="262">»</text><a xlink:href="#fixed-decimal"><rect class="r" x="278" y="245" width="98" height="25"/><text class="i" x="288" y="262">fixed-decimal</text></a><a xlink:href="#integer"><rect class="r" x="45" y="275" width="62" height="25"/><text class="i" x="55" y="292">integer</text></a><rect class="l" x="117" y="275" width="30" height="25" rx="7"/><text class="i" x="127" y="292">&lt;</text><a xlink:href="#integer"><rect class="r" x="157" y="275" width="62" height="25"/><text class="i" x="167" y="292">integer</text></a><a xlink:href="#fixed-decimal"><rect class="r" x="45" y="305" width="98" height="25"/><text class="i" x="55" y="322">fixed-decimal</text></a><rect class="l" x="153" y="305" width="30" height="25" rx="7"/><text class="i" x="163" y="322">&lt;</text><a xlink:href="#fixed-decimal"><rect class="r" x="193" y="305" width="98" height="25"/><text class="i" x="203" y="322">fixed-decimal</text></a><rect class="l" x="321" y="275" width="28" height="25" rx="7"/><text class="i" x="331" y="292">»</text><a xlink:href="#boolean"><rect class="r" x="359" y="275" width="66" height="25"/><text class="i" x="369" y="292">boolean</text></a><a xlink:href="#integer"><rect class="r" x="45" y="335" width="62" height="25"/><text class="i" x="55" y="352">integer</text></a><rect class="l" x="117" y="335" width="40" height="25" rx="7"/><text class="i" x="127" y="352">&lt;=</text><a xlink:href="#integer"><rect class="r" x="167" y="335" width="62" height="25"/><text class="i" x="177" y="352">integer</text></a><a xlink:href="#fixed-decimal"><rect class="r" x="45" y="365" width="98" height="25"/><text class="i" x="55" y="382">fixed-decimal</text></a><rect class="l" x="153" y="365" width="40" height="25" rx="7"/><text class="i" x="163" y="382">&lt;=</text><a xlink:href="#fixed-decimal"><rect class="r" x="203" y="365" width="98" height="25"/><text class="i" x="213" y="382">fixed-decimal</text></a><rect class="l" x="331" y="335" width="28" height="25" rx="7"/><text class="i" x="341" y="352">»</text><a xlink:href="#boolean"><rect class="r" x="369" y="335" width="66" height="25"/><text class="i" x="379" y="352">boolean</text></a><a xlink:href="#value"><rect class="r" x="25" y="395" width="52" height="25"/><text class="i" x="35" y="412">value</text></a><rect class="l" x="87" y="395" width="40" height="25" rx="7"/><text class="i" x="97" y="412">==</text><a xlink:href="#value"><rect class="r" x="137" y="395" width="52" height="25"/><text class="i" x="147" y="412">value</text></a><rect class="l" x="199" y="395" width="28" height="25" rx="7"/><text class="i" x="209" y="412">»</text><a xlink:href="#boolean"><rect class="r" x="237" y="395" width="66" height="25"/><text class="i" x="247" y="412">boolean</text></a><a xlink:href="#integer"><rect class="r" x="45" y="425" width="62" height="25"/><text class="i" x="55" y="442">integer</text></a><rect class="l" x="117" y="425" width="30" height="25" rx="7"/><text class="i" x="127" y="442">&gt;</text><a xlink:href="#integer"><rect class="r" x="157" y="425" width="62" height="25"/><text class="i" x="167" y="442">integer</text></a><a xlink:href="#fixed-decimal"><rect class="r" x="45" y="455" width="98" height="25"/><text class="i" x="55" y="472">fixed-decimal</text></a><rect class="l" x="153" y="455" width="30" height="25" rx="7"/><text class="i" x="163" y="472">&gt;</text><a xlink:href="#fixed-decimal"><rect class="r" x="193" y="455" width="98" height="25"/><text class="i" x="203" y="472">fixed-decimal</text></a><rect class="l" x="321" y="425" width="28" height="25" rx="7"/><text class="i" x="331" y="442">»</text><a xlink:href="#boolean"><rect class="r" x="359" y="425" width="66" height="25"/><text class="i" x="369" y="442">boolean</text></a><a xlink:href="#integer"><rect class="r" x="45" y="485" width="62" height="25"/><text class="i" x="55" y="502">integer</text></a><rect class="l" x="117" y="485" width="40" height="25" rx="7"/><text class="i" x="127" y="502">&gt;=</text><a xlink:href="#integer"><rect class="r" x="167" y="485" width="62" height="25"/><text class="i" x="177" y="502">integer</text></a><a xlink:href="#fixed-decimal"><rect class="r" x="45" y="515" width="98" height="25"/><text class="i" x="55" y="532">fixed-decimal</text></a><rect class="l" x="153" y="515" width="40" height="25" rx="7"/><text class="i" x="163" y="532">&gt;=</text><a xlink:href="#fixed-decimal"><rect class="r" x="203" y="515" width="98" height="25"/><text class="i" x="213" y="532">fixed-decimal</text></a><rect class="l" x="331" y="485" width="28" height="25" rx="7"/><text class="i" x="341" y="502">»</text><a xlink:href="#boolean"><rect class="r" x="369" y="485" width="66" height="25"/><text class="i" x="379" y="502">boolean</text></a><rect class="l" x="25" y="545" width="40" height="25" rx="7"/><text class="i" x="35" y="562">abs</text><rect class="l" x="75" y="545" width="25" height="25" rx="7"/><text class="i" x="85" y="562">(</text><a xlink:href="#integer"><rect class="r" x="110" y="545" width="62" height="25"/><text class="i" x="120" y="562">integer</text></a><rect class="l" x="182" y="545" width="25" height="25" rx="7"/><text class="i" x="192" y="562">)</text><rect class="l" x="217" y="545" width="28" height="25" rx="7"/><text class="i" x="227" y="562">»</text><a xlink:href="#integer"><rect class="r" x="255" y="545" width="62" height="25"/><text class="i" x="265" y="562">integer</text></a><rect class="l" x="25" y="575" width="40" height="25" rx="7"/><text class="i" x="35" y="592">abs</text><rect class="l" x="75" y="575" width="25" height="25" rx="7"/><text class="i" x="85" y="592">(</text><a xlink:href="#fixed-decimal"><rect class="r" x="110" y="575" width="98" height="25"/><text class="i" x="120" y="592">fixed-decimal</text></a><rect class="l" x="218" y="575" width="25" height="25" rx="7"/><text class="i" x="228" y="592">)</text><rect class="l" x="253" y="575" width="28" height="25" rx="7"/><text class="i" x="263" y="592">»</text><a xlink:href="#fixed-decimal"><rect class="r" x="291" y="575" width="98" height="25"/><text class="i" x="301" y="592">fixed-decimal</text></a><rect class="l" x="25" y="635" width="66" height="25" rx="7"/><text class="i" x="35" y="652">equalTo</text><rect class="l" x="101" y="635" width="25" height="25" rx="7"/><text class="i" x="111" y="652">(</text><a xlink:href="#value"><rect class="r" x="136" y="635" width="52" height="25"/><text class="i" x="146" y="652">value</text></a><rect class="l" x="198" y="635" width="24" height="25" rx="7"/><text class="i" x="208" y="652">,</text><rect class="l" x="266" y="605" width="24" height="25" rx="7"/><text class="i" x="276" y="622">,</text><a xlink:href="#value"><rect class="r" x="252" y="635" width="52" height="25"/><text class="i" x="262" y="652">value</text></a><rect class="l" x="334" y="635" width="25" height="25" rx="7"/><text class="i" x="344" y="652">)</text><rect class="l" x="369" y="635" width="28" height="25" rx="7"/><text class="i" x="379" y="652">»</text><a xlink:href="#boolean"><rect class="r" x="407" y="635" width="66" height="25"/><text class="i" x="417" y="652">boolean</text></a><rect class="l" x="25" y="695" width="87" height="25" rx="7"/><text class="i" x="35" y="712">notEqualTo</text><rect class="l" x="122" y="695" width="25" height="25" rx="7"/><text class="i" x="132" y="712">(</text><a xlink:href="#value"><rect class="r" x="157" y="695" width="52" height="25"/><text class="i" x="167" y="712">value</text></a><rect class="l" x="219" y="695" width="24" height="25" rx="7"/><text class="i" x="229" y="712">,</text><rect class="l" x="287" y="665" width="24" height="25" rx="7"/><text class="i" x="297" y="682">,</text><a xlink:href="#value"><rect class="r" x="273" y="695" width="52" height="25"/><text class="i" x="283" y="712">value</text></a><rect class="l" x="355" y="695" width="25" height="25" rx="7"/><text class="i" x="365" y="712">)</text><rect class="l" x="390" y="695" width="28" height="25" rx="7"/><text class="i" x="400" y="712">»</text><a xlink:href="#boolean"><rect class="r" x="428" y="695" width="66" height="25"/><text class="i" x="438" y="712">boolean</text></a><rect class="l" x="25" y="725" width="61" height="25" rx="7"/><text class="i" x="35" y="742">rescale</text><rect class="l" x="96" y="725" width="25" height="25" rx="7"/><text class="i" x="106" y="742">(</text><a xlink:href="#fixed-decimal"><rect class="r" x="131" y="725" width="98" height="25"/><text class="i" x="141" y="742">fixed-decimal</text></a><rect class="l" x="239" y="725" width="24" height="25" rx="7"/><text class="i" x="249" y="742">,</text><a xlink:href="#integer"><rect class="r" x="273" y="725" width="62" height="25"/><text class="i" x="283" y="742">integer</text></a><rect class="l" x="345" y="725" width="25" height="25" rx="7"/><text class="i" x="355" y="742">)</text><rect class="l" x="380" y="725" width="28" height="25" rx="7"/><text class="i" x="390" y="742">»</text><a xlink:href="#fixed-decimal"><rect class="r" x="438" y="725" width="98" height="25"/><text class="i" x="448" y="742">fixed-decimal</text></a><a xlink:href="#integer"><rect class="r" x="438" y="755" width="62" height="25"/><text class="i" x="448" y="772">integer</text></a></svg>