<svg version="1.1" xmlns:xlink="http://www.w3.org/1999/xlink" xmlns="http://www.w3.org/2000/svg" width="596" height="785" viewbox="0 0 596 785"><defs><style type="text/css">.c{fill:none;stroke:#222222;}.i{fill:#000000;font-family:Verdana,Sans-serif;font-size:12px;}.l{fill:#90d9ff;stroke:#222222;}.r{fill:#d3f0ff;stroke:#222222;}</style></defs><path class="c" d="M0 22h25m65 0h10m28 0h10m65 0h10m28 0h10m65 0h275m-576 25q0 5 5 5h5m102 0h10m28 0h10m65 0h10m28 0h10m102 0h186q5 0 5-5m-566 30q0 5 5 5h5m65 0h10m29 0h10m65 0h10m28 0h10m65 0h259q5 0 5-5m-566 30q0 5 5 5h5m102 0h10m29 0h10m102 0h10m28 0h10m102 0h148q5 0 5-5m-566 30q0 5 5 5h5m65 0h10m25 0h10m65 0h10m28 0h10m65 0h263q5 0 5-5m-566 30q0 5 5 5h5m102 0h10m25 0h10m102 0h10m28 0h10m102 0h152q5 0 5-5m-566 30q0 5 5 5h5m65 0h10m25 0h10m65 0h10m28 0h10m65 0h263q5 0 5-5m-566 30q0 5 5 5h5m102 0h10m25 0h10m65 0h10m28 0h10m102 0h189q5 0 5-5m-566 30q0 5 5 5h25m65 0h10m29 0h10m65 0h94m-288 0q5 0 5 5v20q0 5 5 5h5m102 0h10m29 0h10m102 0h5q5 0 5-5v-20q0-5 5-5m5 0h10m28 0h10m71 0h139q5 0 5-5m-566 60q0 5 5 5h25m65 0h10m38 0h10m65 0h94m-297 0q5 0 5 5v20q0 5 5 5h5m102 0h10m38 0h10m102 0h5q5 0 5-5v-20q0-5 5-5m5 0h10m28 0h10m71 0h130q5 0 5-5m-566 60q0 5 5 5h25m65 0h10m29 0h10m65 0h94m-288 0q5 0 5 5v20q0 5 5 5h5m102 0h10m29 0h10m102 0h5q5 0 5-5v-20q0-5 5-5m5 0h10m28 0h10m71 0h139q5 0 5-5m-566 60q0 5 5 5h25m65 0h10m38 0h10m65 0h94m-297 0q5 0 5 5v20q0 5 5 5h5m102 0h10m38 0h10m102 0h5q5 0 5-5v-20q0-5 5-5m5 0h10m28 0h10m71 0h130q5 0 5-5m-566 60q0 5 5 5h5m43 0h10m25 0h10m65 0h10m25 0h10m28 0h10m65 0h250q5 0 5-5m-566 30q0 5 5 5h5m43 0h10m25 0h10m102 0h10m25 0h10m28 0h10m102 0h176q5 0 5-5m-566 30q0 5 5 5h5m54 0h10m38 0h10m54 0h10m28 0h10m71 0h266q5 0 5-5m-566 60q0 5 5 5h5m70 0h10m25 0h10m54 0h10m24 0h30m-5 0q-5 0-5-5v-20q0-5 5-5h20m24 0h20q5 0 5 5v20q0 5-5 5m-5 0h30m25 0h10m28 0h10m71 0h90q5 0 5-5m-566 30q0 5 5 5h5m54 0h10m34 0h10m54 0h10m28 0h10m71 0h270q5 0 5-5m-566 60q0 5 5 5h5m91 0h10m25 0h10m54 0h10m24 0h30m-5 0q-5 0-5-5v-20q0-5 5-5h20m24 0h20q5 0 5 5v20q0 5-5 5m-5 0h30m25 0h10m28 0h10m71 0h69q5 0 5-5m-571-685q5 0 5 5v710q0 5 5 5h5m65 0h10m25 0h10m102 0h10m24 0h10m65 0h10m25 0h10m28 0h30m102 0h20m-137 0q5 0 5 5v20q0 5 5 5h5m65 0h42q5 0 5-5v-20q0-5 5-5m5 0h5q5 0 5-5v-710q0-5 5-5m5 0h5"/><a xlink:href="#integer"><rect class="r" x="25" y="5" width="65" height="25"/><text class="i" x="35" y="22">integer</text></a><rect class="l" x="100" y="5" width="28" height="25" rx="7"/><text class="i" x="110" y="22">*</text><a xlink:href="#integer"><rect class="r" x="138" y="5" width="65" height="25"/><text class="i" x="148" y="22">integer</text></a><rect class="l" x="213" y="5" width="28" height="25" rx="7"/><text class="i" x="223" y="22">»</text><a xlink:href="#integer"><rect class="r" x="251" y="5" width="65" height="25"/><text class="i" x="261" y="22">integer</text></a><a xlink:href="#fixed-decimal"><rect class="r" x="25" y="35" width="102" height="25"/><text class="i" x="35" y="52">fixed-decimal</text></a><rect class="l" x="137" y="35" width="28" height="25" rx="7"/><text class="i" x="147" y="52">*</text><a xlink:href="#integer"><rect class="r" x="175" y="35" width="65" height="25"/><text class="i" x="185" y="52">integer</text></a><rect class="l" x="250" y="35" width="28" height="25" rx="7"/><text class="i" x="260" y="52">»</text><a xlink:href="#fixed-decimal"><rect class="r" x="288" y="35" width="102" height="25"/><text class="i" x="298" y="52">fixed-decimal</text></a><a xlink:href="#integer"><rect class="r" x="25" y="65" width="65" height="25"/><text class="i" x="35" y="82">integer</text></a><rect class="l" x="100" y="65" width="29" height="25" rx="7"/><text class="i" x="110" y="82">+</text><a xlink:href="#integer"><rect class="r" x="139" y="65" width="65" height="25"/><text class="i" x="149" y="82">integer</text></a><rect class="l" x="214" y="65" width="28" height="25" rx="7"/><text class="i" x="224" y="82">»</text><a xlink:href="#integer"><rect class="r" x="252" y="65" width="65" height="25"/><text class="i" x="262" y="82">integer</text></a><a xlink:href="#fixed-decimal"><rect class="r" x="25" y="95" width="102" height="25"/><text class="i" x="35" y="112">fixed-decimal</text></a><rect class="l" x="137" y="95" width="29" height="25" rx="7"/><text class="i" x="147" y="112">+</text><a xlink:href="#fixed-decimal"><rect class="r" x="176" y="95" width="102" height="25"/><text class="i" x="186" y="112">fixed-decimal</text></a><rect class="l" x="288" y="95" width="28" height="25" rx="7"/><text class="i" x="298" y="112">»</text><a xlink:href="#fixed-decimal"><rect class="r" x="326" y="95" width="102" height="25"/><text class="i" x="336" y="112">fixed-decimal</text></a><a xlink:href="#integer"><rect class="r" x="25" y="125" width="65" height="25"/><text class="i" x="35" y="142">integer</text></a><rect class="l" x="100" y="125" width="25" height="25" rx="7"/><text class="i" x="110" y="142">-</text><a xlink:href="#integer"><rect class="r" x="135" y="125" width="65" height="25"/><text class="i" x="145" y="142">integer</text></a><rect class="l" x="210" y="125" width="28" height="25" rx="7"/><text class="i" x="220" y="142">»</text><a xlink:href="#integer"><rect class="r" x="248" y="125" width="65" height="25"/><text class="i" x="258" y="142">integer</text></a><a xlink:href="#fixed-decimal"><rect class="r" x="25" y="155" width="102" height="25"/><text class="i" x="35" y="172">fixed-decimal</text></a><rect class="l" x="137" y="155" width="25" height="25" rx="7"/><text class="i" x="147" y="172">-</text><a xlink:href="#fixed-decimal"><rect class="r" x="172" y="155" width="102" height="25"/><text class="i" x="182" y="172">fixed-decimal</text></a><rect class="l" x="284" y="155" width="28" height="25" rx="7"/><text class="i" x="294" y="172">»</text><a xlink:href="#fixed-decimal"><rect class="r" x="322" y="155" width="102" height="25"/><text class="i" x="332" y="172">fixed-decimal</text></a><a xlink:href="#integer"><rect class="r" x="25" y="185" width="65" height="25"/><text class="i" x="35" y="202">integer</text></a><rect class="l" x="100" y="185" width="25" height="25" rx="7"/><text class="i" x="110" y="202">/</text><a xlink:href="#integer"><rect class="r" x="135" y="185" width="65" height="25"/><text class="i" x="145" y="202">integer</text></a><rect class="l" x="210" y="185" width="28" height="25" rx="7"/><text class="i" x="220" y="202">»</text><a xlink:href="#integer"><rect class="r" x="248" y="185" width="65" height="25"/><text class="i" x="258" y="202">integer</text></a><a xlink:href="#fixed-decimal"><rect class="r" x="25" y="215" width="102" height="25"/><text class="i" x="35" y="232">fixed-decimal</text></a><rect class="l" x="137" y="215" width="25" height="25" rx="7"/><text class="i" x="147" y="232">/</text><a xlink:href="#integer"><rect class="r" x="172" y="215" width="65" height="25"/><text class="i" x="182" y="232">integer</text></a><rect class="l" x="247" y="215" width="28" height="25" rx="7"/><text class="i" x="257" y="232">»</text><a xlink:href="#fixed-decimal"><rect class="r" x="285" y="215" width="102" height="25"/><text class="i" x="295" y="232">fixed-decimal</text></a><a xlink:href="#integer"><rect class="r" x="45" y="245" width="65" height="25"/><text class="i" x="55" y="262">integer</text></a><rect class="l" x="120" y="245" width="29" height="25" rx="7"/><text class="i" x="130" y="262">&lt;</text><a xlink:href="#integer"><rect class="r" x="159" y="245" width="65" height="25"/><text class="i" x="169" y="262">integer</text></a><a xlink:href="#fixed-decimal"><rect class="r" x="45" y="275" width="102" height="25"/><text class="i" x="55" y="292">fixed-decimal</text></a><rect class="l" x="157" y="275" width="29" height="25" rx="7"/><text class="i" x="167" y="292">&lt;</text><a xlink:href="#fixed-decimal"><rect class="r" x="196" y="275" width="102" height="25"/><text class="i" x="206" y="292">fixed-decimal</text></a><rect class="l" x="328" y="245" width="28" height="25" rx="7"/><text class="i" x="338" y="262">»</text><a xlink:href="#boolean"><rect class="r" x="366" y="245" width="71" height="25"/><text class="i" x="376" y="262">boolean</text></a><a xlink:href="#integer"><rect class="r" x="45" y="305" width="65" height="25"/><text class="i" x="55" y="322">integer</text></a><rect class="l" x="120" y="305" width="38" height="25" rx="7"/><text class="i" x="130" y="322">&lt;=</text><a xlink:href="#integer"><rect class="r" x="168" y="305" width="65" height="25"/><text class="i" x="178" y="322">integer</text></a><a xlink:href="#fixed-decimal"><rect class="r" x="45" y="335" width="102" height="25"/><text class="i" x="55" y="352">fixed-decimal</text></a><rect class="l" x="157" y="335" width="38" height="25" rx="7"/><text class="i" x="167" y="352">&lt;=</text><a xlink:href="#fixed-decimal"><rect class="r" x="205" y="335" width="102" height="25"/><text class="i" x="215" y="352">fixed-decimal</text></a><rect class="l" x="337" y="305" width="28" height="25" rx="7"/><text class="i" x="347" y="322">»</text><a xlink:href="#boolean"><rect class="r" x="375" y="305" width="71" height="25"/><text class="i" x="385" y="322">boolean</text></a><a xlink:href="#integer"><rect class="r" x="45" y="365" width="65" height="25"/><text class="i" x="55" y="382">integer</text></a><rect class="l" x="120" y="365" width="29" height="25" rx="7"/><text class="i" x="130" y="382">&gt;</text><a xlink:href="#integer"><rect class="r" x="159" y="365" width="65" height="25"/><text class="i" x="169" y="382">integer</text></a><a xlink:href="#fixed-decimal"><rect class="r" x="45" y="395" width="102" height="25"/><text class="i" x="55" y="412">fixed-decimal</text></a><rect class="l" x="157" y="395" width="29" height="25" rx="7"/><text class="i" x="167" y="412">&gt;</text><a xlink:href="#fixed-decimal"><rect class="r" x="196" y="395" width="102" height="25"/><text class="i" x="206" y="412">fixed-decimal</text></a><rect class="l" x="328" y="365" width="28" height="25" rx="7"/><text class="i" x="338" y="382">»</text><a xlink:href="#boolean"><rect class="r" x="366" y="365" width="71" height="25"/><text class="i" x="376" y="382">boolean</text></a><a xlink:href="#integer"><rect class="r" x="45" y="425" width="65" height="25"/><text class="i" x="55" y="442">integer</text></a><rect class="l" x="120" y="425" width="38" height="25" rx="7"/><text class="i" x="130" y="442">&gt;=</text><a xlink:href="#integer"><rect class="r" x="168" y="425" width="65" height="25"/><text class="i" x="178" y="442">integer</text></a><a xlink:href="#fixed-decimal"><rect class="r" x="45" y="455" width="102" height="25"/><text class="i" x="55" y="472">fixed-decimal</text></a><rect class="l" x="157" y="455" width="38" height="25" rx="7"/><text class="i" x="167" y="472">&gt;=</text><a xlink:href="#fixed-decimal"><rect class="r" x="205" y="455" width="102" height="25"/><text class="i" x="215" y="472">fixed-decimal</text></a><rect class="l" x="337" y="425" width="28" height="25" rx="7"/><text class="i" x="347" y="442">»</text><a xlink:href="#boolean"><rect class="r" x="375" y="425" width="71" height="25"/><text class="i" x="385" y="442">boolean</text></a><rect class="l" x="25" y="485" width="43" height="25" rx="7"/><text class="i" x="35" y="502">abs</text><rect class="l" x="78" y="485" width="25" height="25" rx="7"/><text class="i" x="88" y="502">(</text><a xlink:href="#integer"><rect class="r" x="113" y="485" width="65" height="25"/><text class="i" x="123" y="502">integer</text></a><rect class="l" x="188" y="485" width="25" height="25" rx="7"/><text class="i" x="198" y="502">)</text><rect class="l" x="223" y="485" width="28" height="25" rx="7"/><text class="i" x="233" y="502">»</text><a xlink:href="#integer"><rect class="r" x="261" y="485" width="65" height="25"/><text class="i" x="271" y="502">integer</text></a><rect class="l" x="25" y="515" width="43" height="25" rx="7"/><text class="i" x="35" y="532">abs</text><rect class="l" x="78" y="515" width="25" height="25" rx="7"/><text class="i" x="88" y="532">(</text><a xlink:href="#fixed-decimal"><rect class="r" x="113" y="515" width="102" height="25"/><text class="i" x="123" y="532">fixed-decimal</text></a><rect class="l" x="225" y="515" width="25" height="25" rx="7"/><text class="i" x="235" y="532">)</text><rect class="l" x="260" y="515" width="28" height="25" rx="7"/><text class="i" x="270" y="532">»</text><a xlink:href="#fixed-decimal"><rect class="r" x="298" y="515" width="102" height="25"/><text class="i" x="308" y="532">fixed-decimal</text></a><a xlink:href="#value"><rect class="r" x="25" y="545" width="54" height="25"/><text class="i" x="35" y="562">value</text></a><rect class="l" x="89" y="545" width="38" height="25" rx="7"/><text class="i" x="99" y="562">==</text><a xlink:href="#value"><rect class="r" x="137" y="545" width="54" height="25"/><text class="i" x="147" y="562">value</text></a><rect class="l" x="201" y="545" width="28" height="25" rx="7"/><text class="i" x="211" y="562">»</text><a xlink:href="#boolean"><rect class="r" x="239" y="545" width="71" height="25"/><text class="i" x="249" y="562">boolean</text></a><rect class="l" x="25" y="605" width="70" height="25" rx="7"/><text class="i" x="35" y="622">equalTo</text><rect class="l" x="105" y="605" width="25" height="25" rx="7"/><text class="i" x="115" y="622">(</text><a xlink:href="#value"><rect class="r" x="140" y="605" width="54" height="25"/><text class="i" x="150" y="622">value</text></a><rect class="l" x="204" y="605" width="24" height="25" rx="7"/><text class="i" x="214" y="622">,</text><rect class="l" x="273" y="575" width="24" height="25" rx="7"/><text class="i" x="283" y="592">,</text><a xlink:href="#value"><rect class="r" x="258" y="605" width="54" height="25"/><text class="i" x="268" y="622">value</text></a><rect class="l" x="342" y="605" width="25" height="25" rx="7"/><text class="i" x="352" y="622">)</text><rect class="l" x="377" y="605" width="28" height="25" rx="7"/><text class="i" x="387" y="622">»</text><a xlink:href="#boolean"><rect class="r" x="415" y="605" width="71" height="25"/><text class="i" x="425" y="622">boolean</text></a><a xlink:href="#value"><rect class="r" x="25" y="635" width="54" height="25"/><text class="i" x="35" y="652">value</text></a><rect class="l" x="89" y="635" width="34" height="25" rx="7"/><text class="i" x="99" y="652">!=</text><a xlink:href="#value"><rect class="r" x="133" y="635" width="54" height="25"/><text class="i" x="143" y="652">value</text></a><rect class="l" x="197" y="635" width="28" height="25" rx="7"/><text class="i" x="207" y="652">»</text><a xlink:href="#boolean"><rect class="r" x="235" y="635" width="71" height="25"/><text class="i" x="245" y="652">boolean</text></a><rect class="l" x="25" y="695" width="91" height="25" rx="7"/><text class="i" x="35" y="712">notEqualTo</text><rect class="l" x="126" y="695" width="25" height="25" rx="7"/><text class="i" x="136" y="712">(</text><a xlink:href="#value"><rect class="r" x="161" y="695" width="54" height="25"/><text class="i" x="171" y="712">value</text></a><rect class="l" x="225" y="695" width="24" height="25" rx="7"/><text class="i" x="235" y="712">,</text><rect class="l" x="294" y="665" width="24" height="25" rx="7"/><text class="i" x="304" y="682">,</text><a xlink:href="#value"><rect class="r" x="279" y="695" width="54" height="25"/><text class="i" x="289" y="712">value</text></a><rect class="l" x="363" y="695" width="25" height="25" rx="7"/><text class="i" x="373" y="712">)</text><rect class="l" x="398" y="695" width="28" height="25" rx="7"/><text class="i" x="408" y="712">»</text><a xlink:href="#boolean"><rect class="r" x="436" y="695" width="71" height="25"/><text class="i" x="446" y="712">boolean</text></a><rect class="l" x="25" y="725" width="65" height="25" rx="7"/><text class="i" x="35" y="742">rescale</text><rect class="l" x="100" y="725" width="25" height="25" rx="7"/><text class="i" x="110" y="742">(</text><a xlink:href="#fixed-decimal"><rect class="r" x="135" y="725" width="102" height="25"/><text class="i" x="145" y="742">fixed-decimal</text></a><rect class="l" x="247" y="725" width="24" height="25" rx="7"/><text class="i" x="257" y="742">,</text><a xlink:href="#integer"><rect class="r" x="281" y="725" width="65" height="25"/><text class="i" x="291" y="742">integer</text></a><rect class="l" x="356" y="725" width="25" height="25" rx="7"/><text class="i" x="366" y="742">)</text><rect class="l" x="391" y="725" width="28" height="25" rx="7"/><text class="i" x="401" y="742">»</text><a xlink:href="#fixed-decimal"><rect class="r" x="449" y="725" width="102" height="25"/><text class="i" x="459" y="742">fixed-decimal</text></a><a xlink:href="#integer"><rect class="r" x="449" y="755" width="65" height="25"/><text class="i" x="459" y="772">integer</text></a></svg>