<svg version="1.1" xmlns:xlink="http://www.w3.org/1999/xlink" xmlns="http://www.w3.org/2000/svg" width="984" height="365" viewbox="0 0 984 365"><defs><style type="text/css">.c{fill: none; stroke: #888888; stroke-width: 2px;}.j{fill:#000000;font-family:Verdana,Sans-serif;font-size:12px;}.l{fill:#90d9ff;stroke:#222222;}.r{fill:#d3f0ff;stroke:#222222;}</style></defs><path class="c" d="M0 33h25m25 0h10m30 0h10m52 0h30m-5 0q-5 0-5-5v-17q0-5 5-5h62q5 0 5 5v17q0 5-5 5m-5 0h30m25 0h10m28 0h10m66 0h576m-964 25q0 5 5 5h5m25 0h10m39 0h30m70 0h10m154 0h10m25 0h10m28 0h10m42 0h20m-394 0q5 0 5 5v20q0 5 5 5h5m57 0h10m62 0h10m25 0h10m28 0h10m52 0h100q5 0 5-5v-20q0-5 5-5m5 0h456q5 0 5-5m-954 75q0 5 5 5h5m25 0h10m55 0h30m111 0h20m-146 0q5 0 5 5v20q0 5 5 5h5m98 0h18q5 0 5-5v-20q0-5 5-5m5 0h10m25 0h30m62 0h112m-189 0q5 0 5 5v20q0 5 5 5h5m154 0h5q5 0 5-5v-20q0-5 5-5m5 0h50m-5 0q-5 0-5-5v-17q0-5 5-5h204q5 0 5 5v17q0 5-5 5m-199 0h20m62 0h112m-189 0q5 0 5 5v20q0 5 5 5h5m154 0h5q5 0 5-5v-20q0-5 5-5m5 0h40m-269 0q5 0 5 5v38q0 5 5 5h244q5 0 5-5v-38q0-5 5-5m5 0h10m25 0h10m25 0h10m28 0h10m42 0h5q5 0 5-5m-954 90q0 5 5 5h5m25 0h10m50 0h10m52 0h30m-5 0q-5 0-5-5v-17q0-5 5-5h62q5 0 5 5v17q0 5-5 5m-5 0h30m25 0h10m28 0h10m66 0h541q5 0 5-5m-954 30q0 5 5 5h5m25 0h10m71 0h10m70 0h10m116 0h10m25 0h10m28 0h10m70 0h474q5 0 5-5m-954 30q0 5 5 5h5m25 0h10m84 0h10m70 0h10m116 0h10m25 0h10m28 0h10m66 0h465q5 0 5-5m-954 30q0 5 5 5h5m25 0h10m47 0h10m138 0h10m25 0h10m28 0h10m42 0h584q5 0 5-5m-959-280q5 0 5 5v305q0 5 5 5h5m25 0h10m54 0h10m138 0h10m25 0h10m28 0h10m66 0h553q5 0 5-5v-305q0-5 5-5m5 0h5"/><rect class="l" x="25" y="20" width="25" height="25" rx="7"/><text class="j" x="35" y="37">(</text><rect class="l" x="60" y="20" width="30" height="25" rx="7"/><text class="j" x="70" y="37">=</text><a xlink:href="#value"><rect class="r" x="100" y="20" width="52" height="25"/><text class="j" x="110" y="37">value</text></a><a xlink:href="#value"><rect class="r" x="182" y="20" width="52" height="25"/><text class="j" x="192" y="37">value</text></a><rect class="l" x="264" y="20" width="25" height="25" rx="7"/><text class="j" x="274" y="37">)</text><rect class="l" x="299" y="20" width="28" height="25" rx="7"/><text class="j" x="309" y="37">»</text><a xlink:href="#boolean"><rect class="r" x="337" y="20" width="66" height="25"/><text class="j" x="347" y="37">boolean</text></a><rect class="l" x="25" y="50" width="25" height="25" rx="7"/><text class="j" x="35" y="67">(</text><rect class="l" x="60" y="50" width="39" height="25" rx="7"/><text class="j" x="70" y="67">get</text><a xlink:href="#instance"><rect class="r" x="129" y="50" width="70" height="25"/><text class="j" x="139" y="67">instance</text></a><a xlink:href="#keyword:instance-field"><rect class="r" x="209" y="50" width="154" height="25"/><text class="j" x="219" y="67">keyword:instance-field</text></a><rect class="l" x="373" y="50" width="25" height="25" rx="7"/><text class="j" x="383" y="67">)</text><rect class="l" x="408" y="50" width="28" height="25" rx="7"/><text class="j" x="418" y="67">»</text><a xlink:href="#any"><rect class="r" x="446" y="50" width="42" height="25"/><text class="j" x="456" y="67">any</text></a><a xlink:href="#vector"><rect class="r" x="129" y="80" width="57" height="25"/><text class="j" x="139" y="97">vector</text></a><a xlink:href="#integer"><rect class="r" x="196" y="80" width="62" height="25"/><text class="j" x="206" y="97">integer</text></a><rect class="l" x="268" y="80" width="25" height="25" rx="7"/><text class="j" x="278" y="97">)</text><rect class="l" x="303" y="80" width="28" height="25" rx="7"/><text class="j" x="313" y="97">»</text><a xlink:href="#value"><rect class="r" x="341" y="80" width="52" height="25"/><text class="j" x="351" y="97">value</text></a><rect class="l" x="25" y="125" width="25" height="25" rx="7"/><text class="j" x="35" y="142">(</text><rect class="l" x="60" y="125" width="55" height="25" rx="7"/><text class="j" x="70" y="142">get-in</text><a xlink:href="#instance:target"><rect class="r" x="145" y="125" width="111" height="25"/><text class="j" x="155" y="142">instance:target</text></a><a xlink:href="#vector:target"><rect class="r" x="145" y="155" width="98" height="25"/><text class="j" x="155" y="172">vector:target</text></a><rect class="l" x="286" y="125" width="25" height="25" rx="7"/><text class="j" x="296" y="142">[</text><a xlink:href="#integer"><rect class="r" x="341" y="125" width="62" height="25"/><text class="j" x="351" y="142">integer</text></a><a xlink:href="#keyword:instance-field"><rect class="r" x="341" y="155" width="154" height="25"/><text class="j" x="351" y="172">keyword:instance-field</text></a><a xlink:href="#integer"><rect class="r" x="585" y="125" width="62" height="25"/><text class="j" x="595" y="142">integer</text></a><a xlink:href="#keyword:instance-field"><rect class="r" x="585" y="155" width="154" height="25"/><text class="j" x="595" y="172">keyword:instance-field</text></a><rect class="l" x="809" y="125" width="25" height="25" rx="7"/><text class="j" x="819" y="142">]</text><rect class="l" x="844" y="125" width="25" height="25" rx="7"/><text class="j" x="854" y="142">)</text><rect class="l" x="879" y="125" width="28" height="25" rx="7"/><text class="j" x="889" y="142">»</text><a xlink:href="#any"><rect class="r" x="917" y="125" width="42" height="25"/><text class="j" x="927" y="142">any</text></a><rect class="l" x="25" y="215" width="25" height="25" rx="7"/><text class="j" x="35" y="232">(</text><rect class="l" x="60" y="215" width="50" height="25" rx="7"/><text class="j" x="70" y="232">not=</text><a xlink:href="#value"><rect class="r" x="120" y="215" width="52" height="25"/><text class="j" x="130" y="232">value</text></a><a xlink:href="#value"><rect class="r" x="202" y="215" width="52" height="25"/><text class="j" x="212" y="232">value</text></a><rect class="l" x="284" y="215" width="25" height="25" rx="7"/><text class="j" x="294" y="232">)</text><rect class="l" x="319" y="215" width="28" height="25" rx="7"/><text class="j" x="329" y="232">»</text><a xlink:href="#boolean"><rect class="r" x="357" y="215" width="66" height="25"/><text class="j" x="367" y="232">boolean</text></a><rect class="l" x="25" y="245" width="25" height="25" rx="7"/><text class="j" x="35" y="262">(</text><rect class="l" x="60" y="245" width="71" height="25" rx="7"/><text class="j" x="70" y="262">refine-to</text><a xlink:href="#instance"><rect class="r" x="141" y="245" width="70" height="25"/><text class="j" x="151" y="262">instance</text></a><a xlink:href="#keyword:spec-id"><rect class="r" x="221" y="245" width="116" height="25"/><text class="j" x="231" y="262">keyword:spec-id</text></a><rect class="l" x="347" y="245" width="25" height="25" rx="7"/><text class="j" x="357" y="262">)</text><rect class="l" x="382" y="245" width="28" height="25" rx="7"/><text class="j" x="392" y="262">»</text><a xlink:href="#instance"><rect class="r" x="420" y="245" width="70" height="25"/><text class="j" x="430" y="262">instance</text></a><rect class="l" x="25" y="275" width="25" height="25" rx="7"/><text class="j" x="35" y="292">(</text><rect class="l" x="60" y="275" width="84" height="25" rx="7"/><text class="j" x="70" y="292">refines-to?</text><a xlink:href="#instance"><rect class="r" x="154" y="275" width="70" height="25"/><text class="j" x="164" y="292">instance</text></a><a xlink:href="#keyword:spec-id"><rect class="r" x="234" y="275" width="116" height="25"/><text class="j" x="244" y="292">keyword:spec-id</text></a><rect class="l" x="360" y="275" width="25" height="25" rx="7"/><text class="j" x="370" y="292">)</text><rect class="l" x="395" y="275" width="28" height="25" rx="7"/><text class="j" x="405" y="292">»</text><a xlink:href="#boolean"><rect class="r" x="433" y="275" width="66" height="25"/><text class="j" x="443" y="292">boolean</text></a><rect class="l" x="25" y="305" width="25" height="25" rx="7"/><text class="j" x="35" y="322">(</text><rect class="l" x="60" y="305" width="47" height="25" rx="7"/><text class="j" x="70" y="322">valid</text><a xlink:href="#instance-expression"><rect class="r" x="117" y="305" width="138" height="25"/><text class="j" x="127" y="322">instance-expression</text></a><rect class="l" x="265" y="305" width="25" height="25" rx="7"/><text class="j" x="275" y="322">)</text><rect class="l" x="300" y="305" width="28" height="25" rx="7"/><text class="j" x="310" y="322">»</text><a xlink:href="#any"><rect class="r" x="338" y="305" width="42" height="25"/><text class="j" x="348" y="322">any</text></a><rect class="l" x="25" y="335" width="25" height="25" rx="7"/><text class="j" x="35" y="352">(</text><rect class="l" x="60" y="335" width="54" height="25" rx="7"/><text class="j" x="70" y="352">valid?</text><a xlink:href="#instance-expression"><rect class="r" x="124" y="335" width="138" height="25"/><text class="j" x="134" y="352">instance-expression</text></a><rect class="l" x="272" y="335" width="25" height="25" rx="7"/><text class="j" x="282" y="352">)</text><rect class="l" x="307" y="335" width="28" height="25" rx="7"/><text class="j" x="317" y="352">»</text><a xlink:href="#boolean"><rect class="r" x="345" y="335" width="66" height="25"/><text class="j" x="355" y="352">boolean</text></a></svg>