<svg version="1.1" xmlns:xlink="http://www.w3.org/1999/xlink" xmlns="http://www.w3.org/2000/svg" width="1000" height="151" viewbox="0 0 1000 151"><defs><style type="text/css">.c{fill: none; stroke: #888888; stroke-width: 2px;}.j{fill:#000000;font-family:Dialog,Sans-serif;font-size:12px;}.l{fill:#90d9ff;stroke:#222222;}.r{fill:#d3f0ff;stroke:#222222;}</style></defs><path class="c" d="M0 17h25m25 0h10m41 0h30m74 0h10m159 0h10m25 0h10m27 0h10m42 0h20m-402 0q5 0 5 5v19q0 5 5 5h5m59 0h10m65 0h10m25 0h10m27 0h10m53 0h103q5 0 5-5v-19q0-5 5-5m5 0h477m-985 0q5 0 5 5v63q0 5 5 5h5m25 0h10m56 0h30m117 0h20m-152 0q5 0 5 5v19q0 5 5 5h5m102 0h20q5 0 5-5v-19q0-5 5-5m5 0h10m25 0h30m65 0h114m-194 0q5 0 5 5v19q0 5 5 5h5m159 0h5q5 0 5-5v-19q0-5 5-5m5 0h50m-5 0q-5 0-5-5v-16q0-5 5-5h209q5 0 5 5v16q0 5-5 5m-204 0h20m65 0h114m-194 0q5 0 5 5v19q0 5 5 5h5m159 0h5q5 0 5-5v-19q0-5 5-5m5 0h40m-274 0q5 0 5 5v37q0 5 5 5h249q5 0 5-5v-37q0-5 5-5m5 0h10m25 0h10m25 0h10m27 0h10m42 0h5q5 0 5-5v-63q0-5 5-5m5 0h5"/><rect class="l" x="25" y="5" width="25" height="24" rx="7"/><text class="j" x="35" y="21">(</text><rect class="l" x="60" y="5" width="41" height="24" rx="7"/><text class="j" x="70" y="21">get</text><a xlink:href="#instance"><rect class="r" x="131" y="5" width="74" height="24"/><text class="j" x="141" y="21">instance</text></a><a xlink:href="#keyword:instance-field"><rect class="r" x="215" y="5" width="159" height="24"/><text class="j" x="225" y="21">keyword:instance-field</text></a><rect class="l" x="384" y="5" width="25" height="24" rx="7"/><text class="j" x="394" y="21">)</text><rect class="l" x="419" y="5" width="27" height="24" rx="7"/><text class="j" x="429" y="21">»</text><a xlink:href="#any"><rect class="r" x="456" y="5" width="42" height="24"/><text class="j" x="466" y="21">any</text></a><a xlink:href="#vector"><rect class="r" x="131" y="34" width="59" height="24"/><text class="j" x="141" y="50">vector</text></a><a xlink:href="#integer"><rect class="r" x="200" y="34" width="65" height="24"/><text class="j" x="210" y="50">integer</text></a><rect class="l" x="275" y="34" width="25" height="24" rx="7"/><text class="j" x="285" y="50">)</text><rect class="l" x="310" y="34" width="27" height="24" rx="7"/><text class="j" x="320" y="50">»</text><a xlink:href="#value"><rect class="r" x="347" y="34" width="53" height="24"/><text class="j" x="357" y="50">value</text></a><rect class="l" x="25" y="78" width="25" height="24" rx="7"/><text class="j" x="35" y="94">(</text><rect class="l" x="60" y="78" width="56" height="24" rx="7"/><text class="j" x="70" y="94">get-in</text><a xlink:href="#instance:target"><rect class="r" x="146" y="78" width="117" height="24"/><text class="j" x="156" y="94">instance:target</text></a><a xlink:href="#vector:target"><rect class="r" x="146" y="107" width="102" height="24"/><text class="j" x="156" y="123">vector:target</text></a><rect class="l" x="293" y="78" width="25" height="24" rx="7"/><text class="j" x="303" y="94">[</text><a xlink:href="#integer"><rect class="r" x="348" y="78" width="65" height="24"/><text class="j" x="358" y="94">integer</text></a><a xlink:href="#keyword:instance-field"><rect class="r" x="348" y="107" width="159" height="24"/><text class="j" x="358" y="123">keyword:instance-field</text></a><a xlink:href="#integer"><rect class="r" x="597" y="78" width="65" height="24"/><text class="j" x="607" y="94">integer</text></a><a xlink:href="#keyword:instance-field"><rect class="r" x="597" y="107" width="159" height="24"/><text class="j" x="607" y="123">keyword:instance-field</text></a><rect class="l" x="826" y="78" width="25" height="24" rx="7"/><text class="j" x="836" y="94">]</text><rect class="l" x="861" y="78" width="25" height="24" rx="7"/><text class="j" x="871" y="94">)</text><rect class="l" x="896" y="78" width="27" height="24" rx="7"/><text class="j" x="906" y="94">»</text><a xlink:href="#any"><rect class="r" x="933" y="78" width="42" height="24"/><text class="j" x="943" y="94">any</text></a></svg>