<svg version="1.1" xmlns:xlink="http://www.w3.org/1999/xlink" xmlns="http://www.w3.org/2000/svg" width="984" height="155" viewbox="0 0 984 155"><defs><style type="text/css">.c{fill: none; stroke: #888888; stroke-width: 2px;}.j{fill:#000000;font-family:Verdana,Sans-serif;font-size:12px;}.l{fill:#90d9ff;stroke:#222222;}.r{fill:#d3f0ff;stroke:#222222;}</style></defs><path class="c" d="M0 18h25m25 0h10m39 0h30m70 0h10m154 0h10m25 0h10m28 0h10m42 0h20m-394 0q5 0 5 5v20q0 5 5 5h5m57 0h10m62 0h10m25 0h10m28 0h10m52 0h100q5 0 5-5v-20q0-5 5-5m5 0h471m-969 0q5 0 5 5v65q0 5 5 5h5m25 0h10m55 0h30m111 0h20m-146 0q5 0 5 5v20q0 5 5 5h5m98 0h18q5 0 5-5v-20q0-5 5-5m5 0h10m25 0h30m62 0h112m-189 0q5 0 5 5v20q0 5 5 5h5m154 0h5q5 0 5-5v-20q0-5 5-5m5 0h50m-5 0q-5 0-5-5v-17q0-5 5-5h204q5 0 5 5v17q0 5-5 5m-199 0h20m62 0h112m-189 0q5 0 5 5v20q0 5 5 5h5m154 0h5q5 0 5-5v-20q0-5 5-5m5 0h40m-269 0q5 0 5 5v38q0 5 5 5h244q5 0 5-5v-38q0-5 5-5m5 0h10m25 0h10m25 0h10m28 0h10m42 0h5q5 0 5-5v-65q0-5 5-5m5 0h5"/><rect class="l" x="25" y="5" width="25" height="25" rx="7"/><text class="j" x="35" y="22">(</text><rect class="l" x="60" y="5" width="39" height="25" rx="7"/><text class="j" x="70" y="22">get</text><a xlink:href="#instance"><rect class="r" x="129" y="5" width="70" height="25"/><text class="j" x="139" y="22">instance</text></a><a xlink:href="#keyword:instance-field"><rect class="r" x="209" y="5" width="154" height="25"/><text class="j" x="219" y="22">keyword:instance-field</text></a><rect class="l" x="373" y="5" width="25" height="25" rx="7"/><text class="j" x="383" y="22">)</text><rect class="l" x="408" y="5" width="28" height="25" rx="7"/><text class="j" x="418" y="22">»</text><a xlink:href="#any"><rect class="r" x="446" y="5" width="42" height="25"/><text class="j" x="456" y="22">any</text></a><a xlink:href="#vector"><rect class="r" x="129" y="35" width="57" height="25"/><text class="j" x="139" y="52">vector</text></a><a xlink:href="#integer"><rect class="r" x="196" y="35" width="62" height="25"/><text class="j" x="206" y="52">integer</text></a><rect class="l" x="268" y="35" width="25" height="25" rx="7"/><text class="j" x="278" y="52">)</text><rect class="l" x="303" y="35" width="28" height="25" rx="7"/><text class="j" x="313" y="52">»</text><a xlink:href="#value"><rect class="r" x="341" y="35" width="52" height="25"/><text class="j" x="351" y="52">value</text></a><rect class="l" x="25" y="80" width="25" height="25" rx="7"/><text class="j" x="35" y="97">(</text><rect class="l" x="60" y="80" width="55" height="25" rx="7"/><text class="j" x="70" y="97">get-in</text><a xlink:href="#instance:target"><rect class="r" x="145" y="80" width="111" height="25"/><text class="j" x="155" y="97">instance:target</text></a><a xlink:href="#vector:target"><rect class="r" x="145" y="110" width="98" height="25"/><text class="j" x="155" y="127">vector:target</text></a><rect class="l" x="286" y="80" width="25" height="25" rx="7"/><text class="j" x="296" y="97">[</text><a xlink:href="#integer"><rect class="r" x="341" y="80" width="62" height="25"/><text class="j" x="351" y="97">integer</text></a><a xlink:href="#keyword:instance-field"><rect class="r" x="341" y="110" width="154" height="25"/><text class="j" x="351" y="127">keyword:instance-field</text></a><a xlink:href="#integer"><rect class="r" x="585" y="80" width="62" height="25"/><text class="j" x="595" y="97">integer</text></a><a xlink:href="#keyword:instance-field"><rect class="r" x="585" y="110" width="154" height="25"/><text class="j" x="595" y="127">keyword:instance-field</text></a><rect class="l" x="809" y="80" width="25" height="25" rx="7"/><text class="j" x="819" y="97">]</text><rect class="l" x="844" y="80" width="25" height="25" rx="7"/><text class="j" x="854" y="97">)</text><rect class="l" x="879" y="80" width="28" height="25" rx="7"/><text class="j" x="889" y="97">»</text><a xlink:href="#any"><rect class="r" x="917" y="80" width="42" height="25"/><text class="j" x="927" y="97">any</text></a></svg>