<svg version="1.1" xmlns:xlink="http://www.w3.org/1999/xlink" xmlns="http://www.w3.org/2000/svg" width="1000" height="355" viewbox="0 0 1000 355"><defs><style type="text/css">.c{fill: none; stroke: #888888; stroke-width: 2px;}.j{fill:#000000;font-family:Dialog,Sans-serif;font-size:12px;}.l{fill:#90d9ff;stroke:#222222;}.r{fill:#d3f0ff;stroke:#222222;}</style></defs><path class="c" d="M0 32h25m25 0h10m30 0h10m53 0h30m-5 0q-5 0-5-5v-16q0-5 5-5h63q5 0 5 5v16q0 5-5 5m-5 0h30m25 0h10m27 0h10m71 0h586m-980 24q0 5 5 5h5m25 0h10m41 0h30m74 0h10m159 0h10m25 0h10m27 0h10m42 0h20m-402 0q5 0 5 5v19q0 5 5 5h5m59 0h10m65 0h10m25 0h10m27 0h10m53 0h103q5 0 5-5v-19q0-5 5-5m5 0h462q5 0 5-5m-970 73q0 5 5 5h5m25 0h10m56 0h30m117 0h20m-152 0q5 0 5 5v19q0 5 5 5h5m102 0h20q5 0 5-5v-19q0-5 5-5m5 0h10m25 0h30m65 0h114m-194 0q5 0 5 5v19q0 5 5 5h5m159 0h5q5 0 5-5v-19q0-5 5-5m5 0h50m-5 0q-5 0-5-5v-16q0-5 5-5h209q5 0 5 5v16q0 5-5 5m-204 0h20m65 0h114m-194 0q5 0 5 5v19q0 5 5 5h5m159 0h5q5 0 5-5v-19q0-5 5-5m5 0h40m-274 0q5 0 5 5v37q0 5 5 5h249q5 0 5-5v-37q0-5 5-5m5 0h10m25 0h10m25 0h10m27 0h10m42 0h5q5 0 5-5m-970 88q0 5 5 5h5m25 0h10m51 0h10m53 0h30m-5 0q-5 0-5-5v-16q0-5 5-5h63q5 0 5 5v16q0 5-5 5m-5 0h30m25 0h10m27 0h10m71 0h550q5 0 5-5m-970 29q0 5 5 5h5m25 0h10m73 0h10m74 0h10m120 0h10m25 0h10m27 0h10m74 0h477q5 0 5-5m-970 29q0 5 5 5h5m25 0h10m86 0h10m74 0h10m120 0h10m25 0h10m27 0h10m71 0h467q5 0 5-5m-970 29q0 5 5 5h5m25 0h10m48 0h10m146 0h10m25 0h10m27 0h10m42 0h592q5 0 5-5m-975-272q5 0 5 5v296q0 5 5 5h5m25 0h10m54 0h10m146 0h10m25 0h10m27 0h10m71 0h557q5 0 5-5v-296q0-5 5-5m5 0h5"/><rect class="l" x="25" y="20" width="25" height="24" rx="7"/><text class="j" x="35" y="36">(</text><rect class="l" x="60" y="20" width="30" height="24" rx="7"/><text class="j" x="70" y="36">=</text><a xlink:href="#value"><rect class="r" x="100" y="20" width="53" height="24"/><text class="j" x="110" y="36">value</text></a><a xlink:href="#value"><rect class="r" x="183" y="20" width="53" height="24"/><text class="j" x="193" y="36">value</text></a><rect class="l" x="266" y="20" width="25" height="24" rx="7"/><text class="j" x="276" y="36">)</text><rect class="l" x="301" y="20" width="27" height="24" rx="7"/><text class="j" x="311" y="36">»</text><a xlink:href="#boolean"><rect class="r" x="338" y="20" width="71" height="24"/><text class="j" x="348" y="36">boolean</text></a><rect class="l" x="25" y="49" width="25" height="24" rx="7"/><text class="j" x="35" y="65">(</text><rect class="l" x="60" y="49" width="41" height="24" rx="7"/><text class="j" x="70" y="65">get</text><a xlink:href="#instance"><rect class="r" x="131" y="49" width="74" height="24"/><text class="j" x="141" y="65">instance</text></a><a xlink:href="#keyword:instance-field"><rect class="r" x="215" y="49" width="159" height="24"/><text class="j" x="225" y="65">keyword:instance-field</text></a><rect class="l" x="384" y="49" width="25" height="24" rx="7"/><text class="j" x="394" y="65">)</text><rect class="l" x="419" y="49" width="27" height="24" rx="7"/><text class="j" x="429" y="65">»</text><a xlink:href="#any"><rect class="r" x="456" y="49" width="42" height="24"/><text class="j" x="466" y="65">any</text></a><a xlink:href="#vector"><rect class="r" x="131" y="78" width="59" height="24"/><text class="j" x="141" y="94">vector</text></a><a xlink:href="#integer"><rect class="r" x="200" y="78" width="65" height="24"/><text class="j" x="210" y="94">integer</text></a><rect class="l" x="275" y="78" width="25" height="24" rx="7"/><text class="j" x="285" y="94">)</text><rect class="l" x="310" y="78" width="27" height="24" rx="7"/><text class="j" x="320" y="94">»</text><a xlink:href="#value"><rect class="r" x="347" y="78" width="53" height="24"/><text class="j" x="357" y="94">value</text></a><rect class="l" x="25" y="122" width="25" height="24" rx="7"/><text class="j" x="35" y="138">(</text><rect class="l" x="60" y="122" width="56" height="24" rx="7"/><text class="j" x="70" y="138">get-in</text><a xlink:href="#instance:target"><rect class="r" x="146" y="122" width="117" height="24"/><text class="j" x="156" y="138">instance:target</text></a><a xlink:href="#vector:target"><rect class="r" x="146" y="151" width="102" height="24"/><text class="j" x="156" y="167">vector:target</text></a><rect class="l" x="293" y="122" width="25" height="24" rx="7"/><text class="j" x="303" y="138">[</text><a xlink:href="#integer"><rect class="r" x="348" y="122" width="65" height="24"/><text class="j" x="358" y="138">integer</text></a><a xlink:href="#keyword:instance-field"><rect class="r" x="348" y="151" width="159" height="24"/><text class="j" x="358" y="167">keyword:instance-field</text></a><a xlink:href="#integer"><rect class="r" x="597" y="122" width="65" height="24"/><text class="j" x="607" y="138">integer</text></a><a xlink:href="#keyword:instance-field"><rect class="r" x="597" y="151" width="159" height="24"/><text class="j" x="607" y="167">keyword:instance-field</text></a><rect class="l" x="826" y="122" width="25" height="24" rx="7"/><text class="j" x="836" y="138">]</text><rect class="l" x="861" y="122" width="25" height="24" rx="7"/><text class="j" x="871" y="138">)</text><rect class="l" x="896" y="122" width="27" height="24" rx="7"/><text class="j" x="906" y="138">»</text><a xlink:href="#any"><rect class="r" x="933" y="122" width="42" height="24"/><text class="j" x="943" y="138">any</text></a><rect class="l" x="25" y="210" width="25" height="24" rx="7"/><text class="j" x="35" y="226">(</text><rect class="l" x="60" y="210" width="51" height="24" rx="7"/><text class="j" x="70" y="226">not=</text><a xlink:href="#value"><rect class="r" x="121" y="210" width="53" height="24"/><text class="j" x="131" y="226">value</text></a><a xlink:href="#value"><rect class="r" x="204" y="210" width="53" height="24"/><text class="j" x="214" y="226">value</text></a><rect class="l" x="287" y="210" width="25" height="24" rx="7"/><text class="j" x="297" y="226">)</text><rect class="l" x="322" y="210" width="27" height="24" rx="7"/><text class="j" x="332" y="226">»</text><a xlink:href="#boolean"><rect class="r" x="359" y="210" width="71" height="24"/><text class="j" x="369" y="226">boolean</text></a><rect class="l" x="25" y="239" width="25" height="24" rx="7"/><text class="j" x="35" y="255">(</text><rect class="l" x="60" y="239" width="73" height="24" rx="7"/><text class="j" x="70" y="255">refine-to</text><a xlink:href="#instance"><rect class="r" x="143" y="239" width="74" height="24"/><text class="j" x="153" y="255">instance</text></a><a xlink:href="#keyword:spec-id"><rect class="r" x="227" y="239" width="120" height="24"/><text class="j" x="237" y="255">keyword:spec-id</text></a><rect class="l" x="357" y="239" width="25" height="24" rx="7"/><text class="j" x="367" y="255">)</text><rect class="l" x="392" y="239" width="27" height="24" rx="7"/><text class="j" x="402" y="255">»</text><a xlink:href="#instance"><rect class="r" x="429" y="239" width="74" height="24"/><text class="j" x="439" y="255">instance</text></a><rect class="l" x="25" y="268" width="25" height="24" rx="7"/><text class="j" x="35" y="284">(</text><rect class="l" x="60" y="268" width="86" height="24" rx="7"/><text class="j" x="70" y="284">refines-to?</text><a xlink:href="#instance"><rect class="r" x="156" y="268" width="74" height="24"/><text class="j" x="166" y="284">instance</text></a><a xlink:href="#keyword:spec-id"><rect class="r" x="240" y="268" width="120" height="24"/><text class="j" x="250" y="284">keyword:spec-id</text></a><rect class="l" x="370" y="268" width="25" height="24" rx="7"/><text class="j" x="380" y="284">)</text><rect class="l" x="405" y="268" width="27" height="24" rx="7"/><text class="j" x="415" y="284">»</text><a xlink:href="#boolean"><rect class="r" x="442" y="268" width="71" height="24"/><text class="j" x="452" y="284">boolean</text></a><rect class="l" x="25" y="297" width="25" height="24" rx="7"/><text class="j" x="35" y="313">(</text><rect class="l" x="60" y="297" width="48" height="24" rx="7"/><text class="j" x="70" y="313">valid</text><a xlink:href="#instance-expression"><rect class="r" x="118" y="297" width="146" height="24"/><text class="j" x="128" y="313">instance-expression</text></a><rect class="l" x="274" y="297" width="25" height="24" rx="7"/><text class="j" x="284" y="313">)</text><rect class="l" x="309" y="297" width="27" height="24" rx="7"/><text class="j" x="319" y="313">»</text><a xlink:href="#any"><rect class="r" x="346" y="297" width="42" height="24"/><text class="j" x="356" y="313">any</text></a><rect class="l" x="25" y="326" width="25" height="24" rx="7"/><text class="j" x="35" y="342">(</text><rect class="l" x="60" y="326" width="54" height="24" rx="7"/><text class="j" x="70" y="342">valid?</text><a xlink:href="#instance-expression"><rect class="r" x="124" y="326" width="146" height="24"/><text class="j" x="134" y="342">instance-expression</text></a><rect class="l" x="280" y="326" width="25" height="24" rx="7"/><text class="j" x="290" y="342">)</text><rect class="l" x="315" y="326" width="27" height="24" rx="7"/><text class="j" x="325" y="342">»</text><a xlink:href="#boolean"><rect class="r" x="352" y="326" width="71" height="24"/><text class="j" x="362" y="342">boolean</text></a></svg>