<svg version="1.1" xmlns:xlink="http://www.w3.org/1999/xlink" xmlns="http://www.w3.org/2000/svg" width="768" height="455" viewbox="0 0 768 455"><defs><style type="text/css">.c{fill:none;stroke:#222222;}.i{fill:#000000;font-family:Verdana,Sans-serif;font-size:12px;}.l{fill:#90d9ff;stroke:#222222;}.r{fill:#d3f0ff;stroke:#222222;}</style></defs><path class="c" d="M0 22h25m54 0h10m38 0h10m54 0h10m28 0h10m71 0h453m-748 55q0 5 5 5h5m70 0h10m25 0h10m54 0h10m24 0h30m-5 0q-5 0-5-5v-20q0-5 5-5h20m24 0h20q5 0 5 5v20q0 5-5 5m-5 0h30m25 0h10m28 0h10m71 0h262q5 0 5-5m-738 30q0 5 5 5h5m73 0h10m24 0h10m153 0h10m28 0h10m43 0h362q5 0 5-5m-738 30q0 5 5 5h5m59 0h10m25 0h10m65 0h10m25 0h10m28 0h10m54 0h417q5 0 5-5m-738 45q0 5 5 5h25m73 0h10m24 0h10m153 0h20m-305 0q5 0 5 5v20q0 5 5 5h5m59 0h10m25 0h10m65 0h10m25 0h71q5 0 5-5v-20q0-5 5-5m5 0h50m-5 0q-5 0-5-5v-17q0-5 5-5h237q5 0 5 5v17q0 5-5 5m-232 0h20m24 0h10m153 0h20m-222 0q5 0 5 5v20q0 5 5 5h5m25 0h10m65 0h10m25 0h57q5 0 5-5v-20q0-5 5-5m5 0h40m-302 0q5 0 5 5v38q0 5 5 5h277q5 0 5-5v-38q0-5 5-5m5 0h10m28 0h10m43 0h5q5 0 5-5m-738 75q0 5 5 5h5m54 0h10m34 0h10m54 0h10m28 0h10m71 0h442q5 0 5-5m-738 60q0 5 5 5h5m91 0h10m25 0h10m54 0h10m24 0h30m-5 0q-5 0-5-5v-20q0-5 5-5h20m24 0h20q5 0 5 5v20q0 5-5 5m-5 0h30m25 0h10m28 0h10m71 0h241q5 0 5-5m-738 30q0 5 5 5h5m73 0h10m24 0h10m71 0h10m25 0h10m114 0h10m25 0h10m28 0h10m73 0h220q5 0 5-5m-738 30q0 5 5 5h5m73 0h10m24 0h10m85 0h10m25 0h10m114 0h10m25 0h10m28 0h10m71 0h208q5 0 5-5m-738 30q0 5 5 5h5m49 0h10m147 0h10m28 0h10m43 0h426q5 0 5-5m-743-385q5 0 5 5v410q0 5 5 5h5m56 0h10m147 0h10m28 0h10m71 0h391q5 0 5-5v-410q0-5 5-5m5 0h5"/><a xlink:href="#value"><rect class="r" x="25" y="5" width="54" height="25"/><text class="i" x="35" y="22">value</text></a><rect class="l" x="89" y="5" width="38" height="25" rx="7"/><text class="i" x="99" y="22">==</text><a xlink:href="#value"><rect class="r" x="137" y="5" width="54" height="25"/><text class="i" x="147" y="22">value</text></a><rect class="l" x="201" y="5" width="28" height="25" rx="7"/><text class="i" x="211" y="22">»</text><a xlink:href="#boolean"><rect class="r" x="239" y="5" width="71" height="25"/><text class="i" x="249" y="22">boolean</text></a><rect class="l" x="25" y="65" width="70" height="25" rx="7"/><text class="i" x="35" y="82">equalTo</text><rect class="l" x="105" y="65" width="25" height="25" rx="7"/><text class="i" x="115" y="82">(</text><a xlink:href="#value"><rect class="r" x="140" y="65" width="54" height="25"/><text class="i" x="150" y="82">value</text></a><rect class="l" x="204" y="65" width="24" height="25" rx="7"/><text class="i" x="214" y="82">,</text><rect class="l" x="273" y="35" width="24" height="25" rx="7"/><text class="i" x="283" y="52">,</text><a xlink:href="#value"><rect class="r" x="258" y="65" width="54" height="25"/><text class="i" x="268" y="82">value</text></a><rect class="l" x="342" y="65" width="25" height="25" rx="7"/><text class="i" x="352" y="82">)</text><rect class="l" x="377" y="65" width="28" height="25" rx="7"/><text class="i" x="387" y="82">»</text><a xlink:href="#boolean"><rect class="r" x="415" y="65" width="71" height="25"/><text class="i" x="425" y="82">boolean</text></a><a xlink:href="#instance"><rect class="r" x="25" y="95" width="73" height="25"/><text class="i" x="35" y="112">instance</text></a><rect class="l" x="108" y="95" width="24" height="25" rx="7"/><text class="i" x="118" y="112">.</text><a xlink:href="#symbol:instance-field"><rect class="r" x="142" y="95" width="153" height="25"/><text class="i" x="152" y="112">symbol:instance-field</text></a><rect class="l" x="305" y="95" width="28" height="25" rx="7"/><text class="i" x="315" y="112">»</text><a xlink:href="#any"><rect class="r" x="343" y="95" width="43" height="25"/><text class="i" x="353" y="112">any</text></a><a xlink:href="#vector"><rect class="r" x="25" y="125" width="59" height="25"/><text class="i" x="35" y="142">vector</text></a><rect class="l" x="94" y="125" width="25" height="25" rx="7"/><text class="i" x="104" y="142">[</text><a xlink:href="#integer"><rect class="r" x="129" y="125" width="65" height="25"/><text class="i" x="139" y="142">integer</text></a><rect class="l" x="204" y="125" width="25" height="25" rx="7"/><text class="i" x="214" y="142">]</text><rect class="l" x="239" y="125" width="28" height="25" rx="7"/><text class="i" x="249" y="142">»</text><a xlink:href="#value"><rect class="r" x="277" y="125" width="54" height="25"/><text class="i" x="287" y="142">value</text></a><a xlink:href="#instance"><rect class="r" x="45" y="170" width="73" height="25"/><text class="i" x="55" y="187">instance</text></a><rect class="l" x="128" y="170" width="24" height="25" rx="7"/><text class="i" x="138" y="187">.</text><a xlink:href="#symbol:instance-field"><rect class="r" x="162" y="170" width="153" height="25"/><text class="i" x="172" y="187">symbol:instance-field</text></a><a xlink:href="#vector"><rect class="r" x="45" y="200" width="59" height="25"/><text class="i" x="55" y="217">vector</text></a><rect class="l" x="114" y="200" width="25" height="25" rx="7"/><text class="i" x="124" y="217">[</text><a xlink:href="#integer"><rect class="r" x="149" y="200" width="65" height="25"/><text class="i" x="159" y="217">integer</text></a><rect class="l" x="224" y="200" width="25" height="25" rx="7"/><text class="i" x="234" y="217">]</text><rect class="l" x="405" y="170" width="24" height="25" rx="7"/><text class="i" x="415" y="187">.</text><a xlink:href="#symbol:instance-field"><rect class="r" x="439" y="170" width="153" height="25"/><text class="i" x="449" y="187">symbol:instance-field</text></a><rect class="l" x="405" y="200" width="25" height="25" rx="7"/><text class="i" x="415" y="217">[</text><a xlink:href="#integer"><rect class="r" x="440" y="200" width="65" height="25"/><text class="i" x="450" y="217">integer</text></a><rect class="l" x="515" y="200" width="25" height="25" rx="7"/><text class="i" x="525" y="217">]</text><rect class="l" x="662" y="170" width="28" height="25" rx="7"/><text class="i" x="672" y="187">»</text><a xlink:href="#any"><rect class="r" x="700" y="170" width="43" height="25"/><text class="i" x="710" y="187">any</text></a><a xlink:href="#value"><rect class="r" x="25" y="245" width="54" height="25"/><text class="i" x="35" y="262">value</text></a><rect class="l" x="89" y="245" width="34" height="25" rx="7"/><text class="i" x="99" y="262">!=</text><a xlink:href="#value"><rect class="r" x="133" y="245" width="54" height="25"/><text class="i" x="143" y="262">value</text></a><rect class="l" x="197" y="245" width="28" height="25" rx="7"/><text class="i" x="207" y="262">»</text><a xlink:href="#boolean"><rect class="r" x="235" y="245" width="71" height="25"/><text class="i" x="245" y="262">boolean</text></a><rect class="l" x="25" y="305" width="91" height="25" rx="7"/><text class="i" x="35" y="322">notEqualTo</text><rect class="l" x="126" y="305" width="25" height="25" rx="7"/><text class="i" x="136" y="322">(</text><a xlink:href="#value"><rect class="r" x="161" y="305" width="54" height="25"/><text class="i" x="171" y="322">value</text></a><rect class="l" x="225" y="305" width="24" height="25" rx="7"/><text class="i" x="235" y="322">,</text><rect class="l" x="294" y="275" width="24" height="25" rx="7"/><text class="i" x="304" y="292">,</text><a xlink:href="#value"><rect class="r" x="279" y="305" width="54" height="25"/><text class="i" x="289" y="322">value</text></a><rect class="l" x="363" y="305" width="25" height="25" rx="7"/><text class="i" x="373" y="322">)</text><rect class="l" x="398" y="305" width="28" height="25" rx="7"/><text class="i" x="408" y="322">»</text><a xlink:href="#boolean"><rect class="r" x="436" y="305" width="71" height="25"/><text class="i" x="446" y="322">boolean</text></a><a xlink:href="#instance"><rect class="r" x="25" y="335" width="73" height="25"/><text class="i" x="35" y="352">instance</text></a><rect class="l" x="108" y="335" width="24" height="25" rx="7"/><text class="i" x="118" y="352">.</text><rect class="l" x="142" y="335" width="71" height="25" rx="7"/><text class="i" x="152" y="352">refineTo</text><rect class="l" x="223" y="335" width="25" height="25" rx="7"/><text class="i" x="233" y="352">(</text><a xlink:href="#symbol:spec-id"><rect class="r" x="258" y="335" width="114" height="25"/><text class="i" x="268" y="352">symbol:spec-id</text></a><rect class="l" x="382" y="335" width="25" height="25" rx="7"/><text class="i" x="392" y="352">)</text><rect class="l" x="417" y="335" width="28" height="25" rx="7"/><text class="i" x="427" y="352">»</text><a xlink:href="#instance"><rect class="r" x="455" y="335" width="73" height="25"/><text class="i" x="465" y="352">instance</text></a><a xlink:href="#instance"><rect class="r" x="25" y="365" width="73" height="25"/><text class="i" x="35" y="382">instance</text></a><rect class="l" x="108" y="365" width="24" height="25" rx="7"/><text class="i" x="118" y="382">.</text><rect class="l" x="142" y="365" width="85" height="25" rx="7"/><text class="i" x="152" y="382">refinesTo?</text><rect class="l" x="237" y="365" width="25" height="25" rx="7"/><text class="i" x="247" y="382">(</text><a xlink:href="#symbol:spec-id"><rect class="r" x="272" y="365" width="114" height="25"/><text class="i" x="282" y="382">symbol:spec-id</text></a><rect class="l" x="396" y="365" width="25" height="25" rx="7"/><text class="i" x="406" y="382">)</text><rect class="l" x="431" y="365" width="28" height="25" rx="7"/><text class="i" x="441" y="382">»</text><a xlink:href="#boolean"><rect class="r" x="469" y="365" width="71" height="25"/><text class="i" x="479" y="382">boolean</text></a><rect class="l" x="25" y="395" width="49" height="25" rx="7"/><text class="i" x="35" y="412">valid</text><a xlink:href="#instance-expression"><rect class="r" x="84" y="395" width="147" height="25"/><text class="i" x="94" y="412">instance-expression</text></a><rect class="l" x="241" y="395" width="28" height="25" rx="7"/><text class="i" x="251" y="412">»</text><a xlink:href="#any"><rect class="r" x="279" y="395" width="43" height="25"/><text class="i" x="289" y="412">any</text></a><rect class="l" x="25" y="425" width="56" height="25" rx="7"/><text class="i" x="35" y="442">valid?</text><a xlink:href="#instance-expression"><rect class="r" x="91" y="425" width="147" height="25"/><text class="i" x="101" y="442">instance-expression</text></a><rect class="l" x="248" y="425" width="28" height="25" rx="7"/><text class="i" x="258" y="442">»</text><a xlink:href="#boolean"><rect class="r" x="286" y="425" width="71" height="25"/><text class="i" x="296" y="442">boolean</text></a></svg>