<!--
RULE = ( ( ( (instance '.' symbol:instance-field) '»' any ) |
( (vector '[' integer ']') '»' value ) )  |
 ( ( ( (instance:target '.' symbol:instance-field) | (vector:target '[' integer ']') ){ ( ('.' symbol:instance-field) | ('[' integer ']' ) ) } '»' any ) ) );
-->
<svg version="1.1" xmlns:xlink="http://www.w3.org/1999/xlink" xmlns="http://www.w3.org/2000/svg" width="812" height="155" viewbox="0 0 812 155"><defs><style type="text/css">.c{fill: none; stroke: #888888; stroke-width: 2px;}.i{fill:#000000;font-family:Verdana,Sans-serif;font-size:12px;}.l{fill:#90d9ff;stroke:#222222;}.r{fill:#d3f0ff;stroke:#222222;}</style></defs><path class="c" d="M0 18h25m73 0h10m24 0h10m153 0h10m28 0h10m43 0h421m-792 25q0 5 5 5h5m59 0h10m25 0h10m65 0h10m25 0h10m28 0h10m54 0h461q5 0 5-5m-787-25q5 0 5 5v65q0 5 5 5h25m117 0h10m24 0h10m153 0h20m-349 0q5 0 5 5v20q0 5 5 5h5m103 0h10m25 0h10m65 0h10m25 0h71q5 0 5-5v-20q0-5 5-5m5 0h50m-5 0q-5 0-5-5v-17q0-5 5-5h237q5 0 5 5v17q0 5-5 5m-232 0h20m24 0h10m153 0h20m-222 0q5 0 5 5v20q0 5 5 5h5m25 0h10m65 0h10m25 0h57q5 0 5-5v-20q0-5 5-5m5 0h40m-302 0q5 0 5 5v38q0 5 5 5h277q5 0 5-5v-38q0-5 5-5m5 0h10m28 0h10m43 0h5q5 0 5-5v-65q0-5 5-5m5 0h5"/><a xlink:href="#instance"><rect class="r" x="25" y="5" width="73" height="25"/><text class="i" x="35" y="22">instance</text></a><rect class="l" x="108" y="5" width="24" height="25" rx="7"/><text class="i" x="118" y="22">.</text><a xlink:href="#symbol:instance-field"><rect class="r" x="142" y="5" width="153" height="25"/><text class="i" x="152" y="22">symbol:instance-field</text></a><rect class="l" x="305" y="5" width="28" height="25" rx="7"/><text class="i" x="315" y="22">»</text><a xlink:href="#any"><rect class="r" x="343" y="5" width="43" height="25"/><text class="i" x="353" y="22">any</text></a><a xlink:href="#vector"><rect class="r" x="25" y="35" width="59" height="25"/><text class="i" x="35" y="52">vector</text></a><rect class="l" x="94" y="35" width="25" height="25" rx="7"/><text class="i" x="104" y="52">[</text><a xlink:href="#integer"><rect class="r" x="129" y="35" width="65" height="25"/><text class="i" x="139" y="52">integer</text></a><rect class="l" x="204" y="35" width="25" height="25" rx="7"/><text class="i" x="214" y="52">]</text><rect class="l" x="239" y="35" width="28" height="25" rx="7"/><text class="i" x="249" y="52">»</text><a xlink:href="#value"><rect class="r" x="277" y="35" width="54" height="25"/><text class="i" x="287" y="52">value</text></a><a xlink:href="#instance:target"><rect class="r" x="45" y="80" width="117" height="25"/><text class="i" x="55" y="97">instance:target</text></a><rect class="l" x="172" y="80" width="24" height="25" rx="7"/><text class="i" x="182" y="97">.</text><a xlink:href="#symbol:instance-field"><rect class="r" x="206" y="80" width="153" height="25"/><text class="i" x="216" y="97">symbol:instance-field</text></a><a xlink:href="#vector:target"><rect class="r" x="45" y="110" width="103" height="25"/><text class="i" x="55" y="127">vector:target</text></a><rect class="l" x="158" y="110" width="25" height="25" rx="7"/><text class="i" x="168" y="127">[</text><a xlink:href="#integer"><rect class="r" x="193" y="110" width="65" height="25"/><text class="i" x="203" y="127">integer</text></a><rect class="l" x="268" y="110" width="25" height="25" rx="7"/><text class="i" x="278" y="127">]</text><rect class="l" x="449" y="80" width="24" height="25" rx="7"/><text class="i" x="459" y="97">.</text><a xlink:href="#symbol:instance-field"><rect class="r" x="483" y="80" width="153" height="25"/><text class="i" x="493" y="97">symbol:instance-field</text></a><rect class="l" x="449" y="110" width="25" height="25" rx="7"/><text class="i" x="459" y="127">[</text><a xlink:href="#integer"><rect class="r" x="484" y="110" width="65" height="25"/><text class="i" x="494" y="127">integer</text></a><rect class="l" x="559" y="110" width="25" height="25" rx="7"/><text class="i" x="569" y="127">]</text><rect class="l" x="706" y="80" width="28" height="25" rx="7"/><text class="i" x="716" y="97">»</text><a xlink:href="#any"><rect class="r" x="744" y="80" width="43" height="25"/><text class="i" x="754" y="97">any</text></a></svg>