<svg version="1.1" xmlns:xlink="http://www.w3.org/1999/xlink" xmlns="http://www.w3.org/2000/svg" width="812" height="635" viewbox="0 0 812 635"><defs><style type="text/css">.c{fill:none;stroke:#222222;}.i{fill:#000000;font-family:Verdana,Sans-serif;font-size:12px;}.l{fill:#90d9ff;stroke:#222222;}.r{fill:#d3f0ff;stroke:#222222;}</style></defs><path class="c" d="M0 22h25m54 0h10m34 0h10m54 0h10m28 0h10m71 0h501m-792 55q0 5 5 5h5m91 0h10m25 0h10m54 0h10m24 0h30m-5 0q-5 0-5-5v-20q0-5 5-5h20m24 0h20q5 0 5 5v20q0 5-5 5m-5 0h30m25 0h10m28 0h10m71 0h285q5 0 5-5m-782 30q0 5 5 5h5m54 0h10m38 0h10m54 0h10m28 0h10m71 0h482q5 0 5-5m-782 60q0 5 5 5h5m70 0h10m25 0h10m54 0h10m24 0h30m-5 0q-5 0-5-5v-20q0-5 5-5h20m24 0h20q5 0 5 5v20q0 5-5 5m-5 0h30m25 0h10m28 0h10m71 0h306q5 0 5-5m-782 30q0 5 5 5h5m73 0h10m24 0h10m153 0h10m28 0h10m43 0h406q5 0 5-5m-782 30q0 5 5 5h5m59 0h10m25 0h10m65 0h10m25 0h10m28 0h10m54 0h461q5 0 5-5m-782 45q0 5 5 5h25m117 0h10m24 0h10m153 0h20m-349 0q5 0 5 5v20q0 5 5 5h5m103 0h10m25 0h10m65 0h10m25 0h71q5 0 5-5v-20q0-5 5-5m5 0h50m-5 0q-5 0-5-5v-17q0-5 5-5h237q5 0 5 5v17q0 5-5 5m-232 0h20m24 0h10m153 0h20m-222 0q5 0 5 5v20q0 5 5 5h5m25 0h10m65 0h10m25 0h57q5 0 5-5v-20q0-5 5-5m5 0h40m-302 0q5 0 5 5v38q0 5 5 5h277q5 0 5-5v-38q0-5 5-5m5 0h10m28 0h10m43 0h5q5 0 5-5m-782 75q0 5 5 5h5m54 0h10m38 0h10m54 0h10m28 0h10m71 0h482q5 0 5-5m-782 60q0 5 5 5h5m70 0h10m25 0h10m54 0h10m24 0h30m-5 0q-5 0-5-5v-20q0-5 5-5h20m24 0h20q5 0 5 5v20q0 5-5 5m-5 0h30m25 0h10m28 0h10m71 0h306q5 0 5-5m-782 30q0 5 5 5h5m54 0h10m34 0h10m54 0h10m28 0h10m71 0h486q5 0 5-5m-782 60q0 5 5 5h5m91 0h10m25 0h10m54 0h10m24 0h30m-5 0q-5 0-5-5v-20q0-5 5-5h20m24 0h20q5 0 5 5v20q0 5-5 5m-5 0h30m25 0h10m28 0h10m71 0h285q5 0 5-5m-782 30q0 5 5 5h5m73 0h10m24 0h10m71 0h10m25 0h10m114 0h10m25 0h10m28 0h10m73 0h264q5 0 5-5m-782 30q0 5 5 5h5m73 0h10m24 0h10m85 0h10m25 0h10m114 0h10m25 0h10m28 0h10m71 0h252q5 0 5-5m-782 30q0 5 5 5h5m49 0h10m147 0h10m28 0h10m43 0h470q5 0 5-5m-787-565q5 0 5 5v590q0 5 5 5h5m56 0h10m147 0h10m28 0h10m71 0h435q5 0 5-5v-590q0-5 5-5m5 0h5"/><a xlink:href="#value"><rect class="r" x="25" y="5" width="54" height="25"/><text class="i" x="35" y="22">value</text></a><rect class="l" x="89" y="5" width="34" height="25" rx="7"/><text class="i" x="99" y="22">!=</text><a xlink:href="#value"><rect class="r" x="133" y="5" width="54" height="25"/><text class="i" x="143" y="22">value</text></a><rect class="l" x="197" y="5" width="28" height="25" rx="7"/><text class="i" x="207" y="22">»</text><a xlink:href="#boolean"><rect class="r" x="235" y="5" width="71" height="25"/><text class="i" x="245" y="22">boolean</text></a><rect class="l" x="25" y="65" width="91" height="25" rx="7"/><text class="i" x="35" y="82">notEqualTo</text><rect class="l" x="126" y="65" width="25" height="25" rx="7"/><text class="i" x="136" y="82">(</text><a xlink:href="#value"><rect class="r" x="161" y="65" width="54" height="25"/><text class="i" x="171" y="82">value</text></a><rect class="l" x="225" y="65" width="24" height="25" rx="7"/><text class="i" x="235" y="82">,</text><rect class="l" x="294" y="35" width="24" height="25" rx="7"/><text class="i" x="304" y="52">,</text><a xlink:href="#value"><rect class="r" x="279" y="65" width="54" height="25"/><text class="i" x="289" y="82">value</text></a><rect class="l" x="363" y="65" width="25" height="25" rx="7"/><text class="i" x="373" y="82">)</text><rect class="l" x="398" y="65" width="28" height="25" rx="7"/><text class="i" x="408" y="82">»</text><a xlink:href="#boolean"><rect class="r" x="436" y="65" width="71" height="25"/><text class="i" x="446" y="82">boolean</text></a><a xlink:href="#value"><rect class="r" x="25" y="95" width="54" height="25"/><text class="i" x="35" y="112">value</text></a><rect class="l" x="89" y="95" width="38" height="25" rx="7"/><text class="i" x="99" y="112">==</text><a xlink:href="#value"><rect class="r" x="137" y="95" width="54" height="25"/><text class="i" x="147" y="112">value</text></a><rect class="l" x="201" y="95" width="28" height="25" rx="7"/><text class="i" x="211" y="112">»</text><a xlink:href="#boolean"><rect class="r" x="239" y="95" width="71" height="25"/><text class="i" x="249" y="112">boolean</text></a><rect class="l" x="25" y="155" width="70" height="25" rx="7"/><text class="i" x="35" y="172">equalTo</text><rect class="l" x="105" y="155" width="25" height="25" rx="7"/><text class="i" x="115" y="172">(</text><a xlink:href="#value"><rect class="r" x="140" y="155" width="54" height="25"/><text class="i" x="150" y="172">value</text></a><rect class="l" x="204" y="155" width="24" height="25" rx="7"/><text class="i" x="214" y="172">,</text><rect class="l" x="273" y="125" width="24" height="25" rx="7"/><text class="i" x="283" y="142">,</text><a xlink:href="#value"><rect class="r" x="258" y="155" width="54" height="25"/><text class="i" x="268" y="172">value</text></a><rect class="l" x="342" y="155" width="25" height="25" rx="7"/><text class="i" x="352" y="172">)</text><rect class="l" x="377" y="155" width="28" height="25" rx="7"/><text class="i" x="387" y="172">»</text><a xlink:href="#boolean"><rect class="r" x="415" y="155" width="71" height="25"/><text class="i" x="425" y="172">boolean</text></a><a xlink:href="#instance"><rect class="r" x="25" y="185" width="73" height="25"/><text class="i" x="35" y="202">instance</text></a><rect class="l" x="108" y="185" width="24" height="25" rx="7"/><text class="i" x="118" y="202">.</text><a xlink:href="#symbol:instance-field"><rect class="r" x="142" y="185" width="153" height="25"/><text class="i" x="152" y="202">symbol:instance-field</text></a><rect class="l" x="305" y="185" width="28" height="25" rx="7"/><text class="i" x="315" y="202">»</text><a xlink:href="#any"><rect class="r" x="343" y="185" width="43" height="25"/><text class="i" x="353" y="202">any</text></a><a xlink:href="#vector"><rect class="r" x="25" y="215" width="59" height="25"/><text class="i" x="35" y="232">vector</text></a><rect class="l" x="94" y="215" width="25" height="25" rx="7"/><text class="i" x="104" y="232">[</text><a xlink:href="#integer"><rect class="r" x="129" y="215" width="65" height="25"/><text class="i" x="139" y="232">integer</text></a><rect class="l" x="204" y="215" width="25" height="25" rx="7"/><text class="i" x="214" y="232">]</text><rect class="l" x="239" y="215" width="28" height="25" rx="7"/><text class="i" x="249" y="232">»</text><a xlink:href="#value"><rect class="r" x="277" y="215" width="54" height="25"/><text class="i" x="287" y="232">value</text></a><a xlink:href="#instance:target"><rect class="r" x="45" y="260" width="117" height="25"/><text class="i" x="55" y="277">instance:target</text></a><rect class="l" x="172" y="260" width="24" height="25" rx="7"/><text class="i" x="182" y="277">.</text><a xlink:href="#symbol:instance-field"><rect class="r" x="206" y="260" width="153" height="25"/><text class="i" x="216" y="277">symbol:instance-field</text></a><a xlink:href="#vector:target"><rect class="r" x="45" y="290" width="103" height="25"/><text class="i" x="55" y="307">vector:target</text></a><rect class="l" x="158" y="290" width="25" height="25" rx="7"/><text class="i" x="168" y="307">[</text><a xlink:href="#integer"><rect class="r" x="193" y="290" width="65" height="25"/><text class="i" x="203" y="307">integer</text></a><rect class="l" x="268" y="290" width="25" height="25" rx="7"/><text class="i" x="278" y="307">]</text><rect class="l" x="449" y="260" width="24" height="25" rx="7"/><text class="i" x="459" y="277">.</text><a xlink:href="#symbol:instance-field"><rect class="r" x="483" y="260" width="153" height="25"/><text class="i" x="493" y="277">symbol:instance-field</text></a><rect class="l" x="449" y="290" width="25" height="25" rx="7"/><text class="i" x="459" y="307">[</text><a xlink:href="#integer"><rect class="r" x="484" y="290" width="65" height="25"/><text class="i" x="494" y="307">integer</text></a><rect class="l" x="559" y="290" width="25" height="25" rx="7"/><text class="i" x="569" y="307">]</text><rect class="l" x="706" y="260" width="28" height="25" rx="7"/><text class="i" x="716" y="277">»</text><a xlink:href="#any"><rect class="r" x="744" y="260" width="43" height="25"/><text class="i" x="754" y="277">any</text></a><a xlink:href="#value"><rect class="r" x="25" y="335" width="54" height="25"/><text class="i" x="35" y="352">value</text></a><rect class="l" x="89" y="335" width="38" height="25" rx="7"/><text class="i" x="99" y="352">==</text><a xlink:href="#value"><rect class="r" x="137" y="335" width="54" height="25"/><text class="i" x="147" y="352">value</text></a><rect class="l" x="201" y="335" width="28" height="25" rx="7"/><text class="i" x="211" y="352">»</text><a xlink:href="#boolean"><rect class="r" x="239" y="335" width="71" height="25"/><text class="i" x="249" y="352">boolean</text></a><rect class="l" x="25" y="395" width="70" height="25" rx="7"/><text class="i" x="35" y="412">equalTo</text><rect class="l" x="105" y="395" width="25" height="25" rx="7"/><text class="i" x="115" y="412">(</text><a xlink:href="#value"><rect class="r" x="140" y="395" width="54" height="25"/><text class="i" x="150" y="412">value</text></a><rect class="l" x="204" y="395" width="24" height="25" rx="7"/><text class="i" x="214" y="412">,</text><rect class="l" x="273" y="365" width="24" height="25" rx="7"/><text class="i" x="283" y="382">,</text><a xlink:href="#value"><rect class="r" x="258" y="395" width="54" height="25"/><text class="i" x="268" y="412">value</text></a><rect class="l" x="342" y="395" width="25" height="25" rx="7"/><text class="i" x="352" y="412">)</text><rect class="l" x="377" y="395" width="28" height="25" rx="7"/><text class="i" x="387" y="412">»</text><a xlink:href="#boolean"><rect class="r" x="415" y="395" width="71" height="25"/><text class="i" x="425" y="412">boolean</text></a><a xlink:href="#value"><rect class="r" x="25" y="425" width="54" height="25"/><text class="i" x="35" y="442">value</text></a><rect class="l" x="89" y="425" width="34" height="25" rx="7"/><text class="i" x="99" y="442">!=</text><a xlink:href="#value"><rect class="r" x="133" y="425" width="54" height="25"/><text class="i" x="143" y="442">value</text></a><rect class="l" x="197" y="425" width="28" height="25" rx="7"/><text class="i" x="207" y="442">»</text><a xlink:href="#boolean"><rect class="r" x="235" y="425" width="71" height="25"/><text class="i" x="245" y="442">boolean</text></a><rect class="l" x="25" y="485" width="91" height="25" rx="7"/><text class="i" x="35" y="502">notEqualTo</text><rect class="l" x="126" y="485" width="25" height="25" rx="7"/><text class="i" x="136" y="502">(</text><a xlink:href="#value"><rect class="r" x="161" y="485" width="54" height="25"/><text class="i" x="171" y="502">value</text></a><rect class="l" x="225" y="485" width="24" height="25" rx="7"/><text class="i" x="235" y="502">,</text><rect class="l" x="294" y="455" width="24" height="25" rx="7"/><text class="i" x="304" y="472">,</text><a xlink:href="#value"><rect class="r" x="279" y="485" width="54" height="25"/><text class="i" x="289" y="502">value</text></a><rect class="l" x="363" y="485" width="25" height="25" rx="7"/><text class="i" x="373" y="502">)</text><rect class="l" x="398" y="485" width="28" height="25" rx="7"/><text class="i" x="408" y="502">»</text><a xlink:href="#boolean"><rect class="r" x="436" y="485" width="71" height="25"/><text class="i" x="446" y="502">boolean</text></a><a xlink:href="#instance"><rect class="r" x="25" y="515" width="73" height="25"/><text class="i" x="35" y="532">instance</text></a><rect class="l" x="108" y="515" width="24" height="25" rx="7"/><text class="i" x="118" y="532">.</text><rect class="l" x="142" y="515" width="71" height="25" rx="7"/><text class="i" x="152" y="532">refineTo</text><rect class="l" x="223" y="515" width="25" height="25" rx="7"/><text class="i" x="233" y="532">(</text><a xlink:href="#symbol:spec-id"><rect class="r" x="258" y="515" width="114" height="25"/><text class="i" x="268" y="532">symbol:spec-id</text></a><rect class="l" x="382" y="515" width="25" height="25" rx="7"/><text class="i" x="392" y="532">)</text><rect class="l" x="417" y="515" width="28" height="25" rx="7"/><text class="i" x="427" y="532">»</text><a xlink:href="#instance"><rect class="r" x="455" y="515" width="73" height="25"/><text class="i" x="465" y="532">instance</text></a><a xlink:href="#instance"><rect class="r" x="25" y="545" width="73" height="25"/><text class="i" x="35" y="562">instance</text></a><rect class="l" x="108" y="545" width="24" height="25" rx="7"/><text class="i" x="118" y="562">.</text><rect class="l" x="142" y="545" width="85" height="25" rx="7"/><text class="i" x="152" y="562">refinesTo?</text><rect class="l" x="237" y="545" width="25" height="25" rx="7"/><text class="i" x="247" y="562">(</text><a xlink:href="#symbol:spec-id"><rect class="r" x="272" y="545" width="114" height="25"/><text class="i" x="282" y="562">symbol:spec-id</text></a><rect class="l" x="396" y="545" width="25" height="25" rx="7"/><text class="i" x="406" y="562">)</text><rect class="l" x="431" y="545" width="28" height="25" rx="7"/><text class="i" x="441" y="562">»</text><a xlink:href="#boolean"><rect class="r" x="469" y="545" width="71" height="25"/><text class="i" x="479" y="562">boolean</text></a><rect class="l" x="25" y="575" width="49" height="25" rx="7"/><text class="i" x="35" y="592">valid</text><a xlink:href="#instance-expression"><rect class="r" x="84" y="575" width="147" height="25"/><text class="i" x="94" y="592">instance-expression</text></a><rect class="l" x="241" y="575" width="28" height="25" rx="7"/><text class="i" x="251" y="592">»</text><a xlink:href="#any"><rect class="r" x="279" y="575" width="43" height="25"/><text class="i" x="289" y="592">any</text></a><rect class="l" x="25" y="605" width="56" height="25" rx="7"/><text class="i" x="35" y="622">valid?</text><a xlink:href="#instance-expression"><rect class="r" x="91" y="605" width="147" height="25"/><text class="i" x="101" y="622">instance-expression</text></a><rect class="l" x="248" y="605" width="28" height="25" rx="7"/><text class="i" x="258" y="622">»</text><a xlink:href="#boolean"><rect class="r" x="286" y="605" width="71" height="25"/><text class="i" x="296" y="622">boolean</text></a></svg>