<svg version="1.1" xmlns:xlink="http://www.w3.org/1999/xlink" xmlns="http://www.w3.org/2000/svg" width="512" height="34" viewbox="0 0 512 34"><defs><style type="text/css">.c{fill: none; stroke: #888888; stroke-width: 2px;}.i{fill:#000000;font-family:Dialog,Sans-serif;font-size:12px;}.l{fill:#90d9ff;stroke:#222222;}.r{fill:#d3f0ff;stroke:#222222;}</style></defs><path class="c" d="M0 17h5m74 0h10m24 0h10m71 0h10m25 0h10m112 0h10m25 0h10m27 0h10m74 0h5"/><a xlink:href="#instance"><rect class="r" x="5" y="5" width="74" height="24"/><text class="i" x="15" y="21">instance</text></a><rect class="l" x="89" y="5" width="24" height="24" rx="7"/><text class="i" x="99" y="21">.</text><rect class="l" x="123" y="5" width="71" height="24" rx="7"/><text class="i" x="133" y="21">refineTo</text><rect class="l" x="204" y="5" width="25" height="24" rx="7"/><text class="i" x="214" y="21">(</text><a xlink:href="#symbol:spec-id"><rect class="r" x="239" y="5" width="112" height="24"/><text class="i" x="249" y="21">symbol:spec-id</text></a><rect class="l" x="361" y="5" width="25" height="24" rx="7"/><text class="i" x="371" y="21">)</text><rect class="l" x="396" y="5" width="27" height="24" rx="7"/><text class="i" x="406" y="21">»</text><a xlink:href="#instance"><rect class="r" x="433" y="5" width="74" height="24"/><text class="i" x="443" y="21">instance</text></a></svg>