<svg version="1.1" xmlns:xlink="http://www.w3.org/1999/xlink" xmlns="http://www.w3.org/2000/svg" width="967" height="155" viewbox="0 0 967 155"><defs><style type="text/css">.c{fill:none;stroke:#222222;}.j{fill:#000000;font-family:Verdana,Sans-serif;font-size:12px;}.l{fill:#90d9ff;stroke:#222222;}.r{fill:#d3f0ff;stroke:#222222;}</style></defs><path class="c" d="M0 22h25m25 0h10m41 0h30m73 0h10m163 0h10m25 0h10m28 0h10m43 0h20m-407 0q5 0 5 5v20q0 5 5 5h5m59 0h10m65 0h10m25 0h10m28 0h10m54 0h106q5 0 5-5v-20q0-5 5-5m5 0h439m-952 0q5 0 5 5v65q0 5 5 5h5m25 0h10m57 0h30m73 0h20m-108 0q5 0 5 5v20q0 5 5 5h5m59 0h19q5 0 5-5v-20q0-5 5-5m5 0h10m25 0h30m65 0h118m-198 0q5 0 5 5v20q0 5 5 5h5m163 0h5q5 0 5-5v-20q0-5 5-5m5 0h50m-5 0q-5 0-5-5v-17q0-5 5-5h213q5 0 5 5v17q0 5-5 5m-208 0h20m65 0h118m-198 0q5 0 5 5v20q0 5 5 5h5m163 0h5q5 0 5-5v-20q0-5 5-5m5 0h40m-278 0q5 0 5 5v38q0 5 5 5h253q5 0 5-5v-38q0-5 5-5m5 0h10m25 0h10m25 0h10m28 0h10m43 0h5q5 0 5-5v-65q0-5 5-5m5 0h5"/><rect class="l" x="25" y="5" width="25" height="25" rx="7"/><text class="j" x="35" y="22">(</text><rect class="l" x="60" y="5" width="41" height="25" rx="7"/><text class="j" x="70" y="22">get</text><a xlink:href="#instance"><rect class="r" x="131" y="5" width="73" height="25"/><text class="j" x="141" y="22">instance</text></a><a xlink:href="#keyword:instance-field"><rect class="r" x="214" y="5" width="163" height="25"/><text class="j" x="224" y="22">keyword:instance-field</text></a><rect class="l" x="387" y="5" width="25" height="25" rx="7"/><text class="j" x="397" y="22">)</text><rect class="l" x="422" y="5" width="28" height="25" rx="7"/><text class="j" x="432" y="22">»</text><a xlink:href="#any"><rect class="r" x="460" y="5" width="43" height="25"/><text class="j" x="470" y="22">any</text></a><a xlink:href="#vector"><rect class="r" x="131" y="35" width="59" height="25"/><text class="j" x="141" y="52">vector</text></a><a xlink:href="#integer"><rect class="r" x="200" y="35" width="65" height="25"/><text class="j" x="210" y="52">integer</text></a><rect class="l" x="275" y="35" width="25" height="25" rx="7"/><text class="j" x="285" y="52">)</text><rect class="l" x="310" y="35" width="28" height="25" rx="7"/><text class="j" x="320" y="52">»</text><a xlink:href="#value"><rect class="r" x="348" y="35" width="54" height="25"/><text class="j" x="358" y="52">value</text></a><rect class="l" x="25" y="80" width="25" height="25" rx="7"/><text class="j" x="35" y="97">(</text><rect class="l" x="60" y="80" width="57" height="25" rx="7"/><text class="j" x="70" y="97">get-in</text><a xlink:href="#instance"><rect class="r" x="147" y="80" width="73" height="25"/><text class="j" x="157" y="97">instance</text></a><a xlink:href="#vector"><rect class="r" x="147" y="110" width="59" height="25"/><text class="j" x="157" y="127">vector</text></a><rect class="l" x="250" y="80" width="25" height="25" rx="7"/><text class="j" x="260" y="97">[</text><a xlink:href="#integer"><rect class="r" x="305" y="80" width="65" height="25"/><text class="j" x="315" y="97">integer</text></a><a xlink:href="#keyword:instance-field"><rect class="r" x="305" y="110" width="163" height="25"/><text class="j" x="315" y="127">keyword:instance-field</text></a><a xlink:href="#integer"><rect class="r" x="558" y="80" width="65" height="25"/><text class="j" x="568" y="97">integer</text></a><a xlink:href="#keyword:instance-field"><rect class="r" x="558" y="110" width="163" height="25"/><text class="j" x="568" y="127">keyword:instance-field</text></a><rect class="l" x="791" y="80" width="25" height="25" rx="7"/><text class="j" x="801" y="97">]</text><rect class="l" x="826" y="80" width="25" height="25" rx="7"/><text class="j" x="836" y="97">)</text><rect class="l" x="861" y="80" width="28" height="25" rx="7"/><text class="j" x="871" y="97">»</text><a xlink:href="#any"><rect class="r" x="899" y="80" width="43" height="25"/><text class="j" x="909" y="97">any</text></a></svg>