<svg version="1.1" xmlns:xlink="http://www.w3.org/1999/xlink" xmlns="http://www.w3.org/2000/svg" width="791" height="155" viewbox="0 0 791 155"><defs><style type="text/css">.c{fill: none; stroke: #888888; stroke-width: 2px;}.i{fill:#000000;font-family:Verdana,Sans-serif;font-size:12px;}.l{fill:#90d9ff;stroke:#222222;}.r{fill:#d3f0ff;stroke:#222222;}</style></defs><path class="c" d="M0 18h25m70 0h10m24 0h10m146 0h10m28 0h10m42 0h411m-771 25q0 5 5 5h5m57 0h10m25 0h10m62 0h10m25 0h10m28 0h10m52 0h447q5 0 5-5m-766-25q5 0 5 5v65q0 5 5 5h25m111 0h10m24 0h10m146 0h20m-336 0q5 0 5 5v20q0 5 5 5h5m98 0h10m25 0h10m62 0h10m25 0h66q5 0 5-5v-20q0-5 5-5m5 0h50m-5 0q-5 0-5-5v-17q0-5 5-5h230q5 0 5 5v17q0 5-5 5m-225 0h20m24 0h10m146 0h20m-215 0q5 0 5 5v20q0 5 5 5h5m25 0h10m62 0h10m25 0h53q5 0 5-5v-20q0-5 5-5m5 0h40m-295 0q5 0 5 5v38q0 5 5 5h270q5 0 5-5v-38q0-5 5-5m5 0h10m28 0h10m42 0h5q5 0 5-5v-65q0-5 5-5m5 0h5"/><a xlink:href="#instance"><rect class="r" x="25" y="5" width="70" height="25"/><text class="i" x="35" y="22">instance</text></a><rect class="l" x="105" y="5" width="24" height="25" rx="7"/><text class="i" x="115" y="22">.</text><a xlink:href="#symbol:instance-field"><rect class="r" x="139" y="5" width="146" height="25"/><text class="i" x="149" y="22">symbol:instance-field</text></a><rect class="l" x="295" y="5" width="28" height="25" rx="7"/><text class="i" x="305" y="22">»</text><a xlink:href="#any"><rect class="r" x="333" y="5" width="42" height="25"/><text class="i" x="343" y="22">any</text></a><a xlink:href="#vector"><rect class="r" x="25" y="35" width="57" height="25"/><text class="i" x="35" y="52">vector</text></a><rect class="l" x="92" y="35" width="25" height="25" rx="7"/><text class="i" x="102" y="52">[</text><a xlink:href="#integer"><rect class="r" x="127" y="35" width="62" height="25"/><text class="i" x="137" y="52">integer</text></a><rect class="l" x="199" y="35" width="25" height="25" rx="7"/><text class="i" x="209" y="52">]</text><rect class="l" x="234" y="35" width="28" height="25" rx="7"/><text class="i" x="244" y="52">»</text><a xlink:href="#value"><rect class="r" x="272" y="35" width="52" height="25"/><text class="i" x="282" y="52">value</text></a><a xlink:href="#instance:target"><rect class="r" x="45" y="80" width="111" height="25"/><text class="i" x="55" y="97">instance:target</text></a><rect class="l" x="166" y="80" width="24" height="25" rx="7"/><text class="i" x="176" y="97">.</text><a xlink:href="#symbol:instance-field"><rect class="r" x="200" y="80" width="146" height="25"/><text class="i" x="210" y="97">symbol:instance-field</text></a><a xlink:href="#vector:target"><rect class="r" x="45" y="110" width="98" height="25"/><text class="i" x="55" y="127">vector:target</text></a><rect class="l" x="153" y="110" width="25" height="25" rx="7"/><text class="i" x="163" y="127">[</text><a xlink:href="#integer"><rect class="r" x="188" y="110" width="62" height="25"/><text class="i" x="198" y="127">integer</text></a><rect class="l" x="260" y="110" width="25" height="25" rx="7"/><text class="i" x="270" y="127">]</text><rect class="l" x="436" y="80" width="24" height="25" rx="7"/><text class="i" x="446" y="97">.</text><a xlink:href="#symbol:instance-field"><rect class="r" x="470" y="80" width="146" height="25"/><text class="i" x="480" y="97">symbol:instance-field</text></a><rect class="l" x="436" y="110" width="25" height="25" rx="7"/><text class="i" x="446" y="127">[</text><a xlink:href="#integer"><rect class="r" x="471" y="110" width="62" height="25"/><text class="i" x="481" y="127">integer</text></a><rect class="l" x="543" y="110" width="25" height="25" rx="7"/><text class="i" x="553" y="127">]</text><rect class="l" x="686" y="80" width="28" height="25" rx="7"/><text class="i" x="696" y="97">»</text><a xlink:href="#any"><rect class="r" x="724" y="80" width="42" height="25"/><text class="i" x="734" y="97">any</text></a></svg>