<svg version="1.1" xmlns:xlink="http://www.w3.org/1999/xlink" xmlns="http://www.w3.org/2000/svg" width="806" height="151" viewbox="0 0 806 151"><defs><style type="text/css">.c{fill: none; stroke: #888888; stroke-width: 3pt;}.i{fill:#000000;font-family:Dialog,Sans-serif;font-size:12px;}.l{fill:#90d9ff;stroke:#222222;}.r{fill:#d3f0ff;stroke:#222222;}</style></defs><path class="c" d="M0 21h25m74 0h10m24 0h10m151 0h10m27 0h10m42 0h418m-786 24q0 5 5 5h5m59 0h10m25 0h10m65 0h10m25 0h10m27 0h10m53 0h457q5 0 5-5m-781-24q5 0 5 5v63q0 5 5 5h25m117 0h10m24 0h10m151 0h20m-347 0q5 0 5 5v19q0 5 5 5h5m102 0h10m25 0h10m65 0h10m25 0h70q5 0 5-5v-19q0-5 5-5m5 0h50m-5 0q-5 0-5-5v-16q0-5 5-5h235q5 0 5 5v16q0 5-5 5m-230 0h20m24 0h10m151 0h20m-220 0q5 0 5 5v19q0 5 5 5h5m25 0h10m65 0h10m25 0h55q5 0 5-5v-19q0-5 5-5m5 0h40m-300 0q5 0 5 5v37q0 5 5 5h275q5 0 5-5v-37q0-5 5-5m5 0h10m27 0h10m42 0h5q5 0 5-5v-63q0-5 5-5m5 0h5"/><a xlink:href="#instance"><rect class="r" x="25" y="5" width="74" height="24"/><text class="i" x="35" y="21">instance</text></a><rect class="l" x="109" y="5" width="24" height="24" rx="7"/><text class="i" x="119" y="21">.</text><a xlink:href="#symbol:instance-field"><rect class="r" x="143" y="5" width="151" height="24"/><text class="i" x="153" y="21">symbol:instance-field</text></a><rect class="l" x="304" y="5" width="27" height="24" rx="7"/><text class="i" x="314" y="21">»</text><a xlink:href="#any"><rect class="r" x="341" y="5" width="42" height="24"/><text class="i" x="351" y="21">any</text></a><a xlink:href="#vector"><rect class="r" x="25" y="34" width="59" height="24"/><text class="i" x="35" y="50">vector</text></a><rect class="l" x="94" y="34" width="25" height="24" rx="7"/><text class="i" x="104" y="50">[</text><a xlink:href="#integer"><rect class="r" x="129" y="34" width="65" height="24"/><text class="i" x="139" y="50">integer</text></a><rect class="l" x="204" y="34" width="25" height="24" rx="7"/><text class="i" x="214" y="50">]</text><rect class="l" x="239" y="34" width="27" height="24" rx="7"/><text class="i" x="249" y="50">»</text><a xlink:href="#value"><rect class="r" x="276" y="34" width="53" height="24"/><text class="i" x="286" y="50">value</text></a><a xlink:href="#instance:target"><rect class="r" x="45" y="78" width="117" height="24"/><text class="i" x="55" y="94">instance:target</text></a><rect class="l" x="172" y="78" width="24" height="24" rx="7"/><text class="i" x="182" y="94">.</text><a xlink:href="#symbol:instance-field"><rect class="r" x="206" y="78" width="151" height="24"/><text class="i" x="216" y="94">symbol:instance-field</text></a><a xlink:href="#vector:target"><rect class="r" x="45" y="107" width="102" height="24"/><text class="i" x="55" y="123">vector:target</text></a><rect class="l" x="157" y="107" width="25" height="24" rx="7"/><text class="i" x="167" y="123">[</text><a xlink:href="#integer"><rect class="r" x="192" y="107" width="65" height="24"/><text class="i" x="202" y="123">integer</text></a><rect class="l" x="267" y="107" width="25" height="24" rx="7"/><text class="i" x="277" y="123">]</text><rect class="l" x="447" y="78" width="24" height="24" rx="7"/><text class="i" x="457" y="94">.</text><a xlink:href="#symbol:instance-field"><rect class="r" x="481" y="78" width="151" height="24"/><text class="i" x="491" y="94">symbol:instance-field</text></a><rect class="l" x="447" y="107" width="25" height="24" rx="7"/><text class="i" x="457" y="123">[</text><a xlink:href="#integer"><rect class="r" x="482" y="107" width="65" height="24"/><text class="i" x="492" y="123">integer</text></a><rect class="l" x="557" y="107" width="25" height="24" rx="7"/><text class="i" x="567" y="123">]</text><rect class="l" x="702" y="78" width="27" height="24" rx="7"/><text class="i" x="712" y="94">»</text><a xlink:href="#any"><rect class="r" x="739" y="78" width="42" height="24"/><text class="i" x="749" y="94">any</text></a></svg>