<svg version="1.1" xmlns:xlink="http://www.w3.org/1999/xlink" xmlns="http://www.w3.org/2000/svg" width="475" height="35" viewbox="0 0 475 35"><defs><style type="text/css">.c{fill: none; stroke: #888888; stroke-width: 2px;}.j{fill:#000000;font-family:Verdana,Sans-serif;font-size:12px;}.l{fill:#90d9ff;stroke:#222222;}.r{fill:#d3f0ff;stroke:#222222;}</style></defs><path class="c" d="M0 18h5m25 0h10m71 0h10m70 0h10m116 0h10m25 0h10m28 0h10m70 0h5"/><rect class="l" x="5" y="5" width="25" height="25" rx="7"/><text class="j" x="15" y="22">(</text><rect class="l" x="40" y="5" width="71" height="25" rx="7"/><text class="j" x="50" y="22">refine-to</text><a xlink:href="#instance"><rect class="r" x="121" y="5" width="70" height="25"/><text class="j" x="131" y="22">instance</text></a><a xlink:href="#keyword:spec-id"><rect class="r" x="201" y="5" width="116" height="25"/><text class="j" x="211" y="22">keyword:spec-id</text></a><rect class="l" x="327" y="5" width="25" height="25" rx="7"/><text class="j" x="337" y="22">)</text><rect class="l" x="362" y="5" width="28" height="25" rx="7"/><text class="j" x="372" y="22">»</text><a xlink:href="#instance"><rect class="r" x="400" y="5" width="70" height="25"/><text class="j" x="410" y="22">instance</text></a></svg>