<svg version="1.1" xmlns:xlink="http://www.w3.org/1999/xlink" xmlns="http://www.w3.org/2000/svg" width="791" height="455" viewbox="0 0 791 455"><defs><style type="text/css">.c{fill: none; stroke: #888888; stroke-width: 2px;}.i{fill:#000000;font-family:Verdana,Sans-serif;font-size:12px;}.l{fill:#90d9ff;stroke:#222222;}.r{fill:#d3f0ff;stroke:#222222;}</style></defs><path class="c" d="M0 18h25m52 0h10m35 0h10m52 0h10m28 0h10m66 0h488m-771 25q0 5 5 5h5m52 0h10m40 0h10m52 0h10m28 0h10m66 0h468q5 0 5-5m-761 30q0 5 5 5h5m70 0h10m24 0h10m146 0h10m28 0h10m42 0h396q5 0 5-5m-761 30q0 5 5 5h5m57 0h10m25 0h10m62 0h10m25 0h10m28 0h10m52 0h447q5 0 5-5m-761 45q0 5 5 5h25m111 0h10m24 0h10m146 0h20m-336 0q5 0 5 5v20q0 5 5 5h5m98 0h10m25 0h10m62 0h10m25 0h66q5 0 5-5v-20q0-5 5-5m5 0h50m-5 0q-5 0-5-5v-17q0-5 5-5h230q5 0 5 5v17q0 5-5 5m-225 0h20m24 0h10m146 0h20m-215 0q5 0 5 5v20q0 5 5 5h5m25 0h10m62 0h10m25 0h53q5 0 5-5v-20q0-5 5-5m5 0h40m-295 0q5 0 5 5v38q0 5 5 5h270q5 0 5-5v-38q0-5 5-5m5 0h10m28 0h10m42 0h5q5 0 5-5m-761 105q0 5 5 5h5m66 0h10m25 0h10m52 0h10m24 0h30m-5 0q-5 0-5-5v-20q0-5 5-5h19m24 0h19q5 0 5 5v20q0 5-5 5m-5 0h30m25 0h10m28 0h10m66 0h298q5 0 5-5m-761 60q0 5 5 5h5m87 0h10m25 0h10m52 0h10m24 0h30m-5 0q-5 0-5-5v-20q0-5 5-5h19m24 0h19q5 0 5 5v20q0 5-5 5m-5 0h30m25 0h10m28 0h10m66 0h277q5 0 5-5m-761 30q0 5 5 5h5m70 0h10m24 0h10m68 0h10m25 0h10m108 0h10m25 0h10m28 0h10m70 0h258q5 0 5-5m-761 30q0 5 5 5h5m70 0h10m24 0h10m81 0h10m25 0h10m108 0h10m25 0h10m28 0h10m66 0h249q5 0 5-5m-761 30q0 5 5 5h5m47 0h10m138 0h10m28 0h10m42 0h461q5 0 5-5m-766-385q5 0 5 5v410q0 5 5 5h5m54 0h10m138 0h10m28 0h10m66 0h430q5 0 5-5v-410q0-5 5-5m5 0h5"/><a xlink:href="#value"><rect class="r" x="25" y="5" width="52" height="25"/><text class="i" x="35" y="22">value</text></a><rect class="l" x="87" y="5" width="35" height="25" rx="7"/><text class="i" x="97" y="22">!=</text><a xlink:href="#value"><rect class="r" x="132" y="5" width="52" height="25"/><text class="i" x="142" y="22">value</text></a><rect class="l" x="194" y="5" width="28" height="25" rx="7"/><text class="i" x="204" y="22">»</text><a xlink:href="#boolean"><rect class="r" x="232" y="5" width="66" height="25"/><text class="i" x="242" y="22">boolean</text></a><a xlink:href="#value"><rect class="r" x="25" y="35" width="52" height="25"/><text class="i" x="35" y="52">value</text></a><rect class="l" x="87" y="35" width="40" height="25" rx="7"/><text class="i" x="97" y="52">==</text><a xlink:href="#value"><rect class="r" x="137" y="35" width="52" height="25"/><text class="i" x="147" y="52">value</text></a><rect class="l" x="199" y="35" width="28" height="25" rx="7"/><text class="i" x="209" y="52">»</text><a xlink:href="#boolean"><rect class="r" x="237" y="35" width="66" height="25"/><text class="i" x="247" y="52">boolean</text></a><a xlink:href="#instance"><rect class="r" x="25" y="65" width="70" height="25"/><text class="i" x="35" y="82">instance</text></a><rect class="l" x="105" y="65" width="24" height="25" rx="7"/><text class="i" x="115" y="82">.</text><a xlink:href="#symbol:instance-field"><rect class="r" x="139" y="65" width="146" height="25"/><text class="i" x="149" y="82">symbol:instance-field</text></a><rect class="l" x="295" y="65" width="28" height="25" rx="7"/><text class="i" x="305" y="82">»</text><a xlink:href="#any"><rect class="r" x="333" y="65" width="42" height="25"/><text class="i" x="343" y="82">any</text></a><a xlink:href="#vector"><rect class="r" x="25" y="95" width="57" height="25"/><text class="i" x="35" y="112">vector</text></a><rect class="l" x="92" y="95" width="25" height="25" rx="7"/><text class="i" x="102" y="112">[</text><a xlink:href="#integer"><rect class="r" x="127" y="95" width="62" height="25"/><text class="i" x="137" y="112">integer</text></a><rect class="l" x="199" y="95" width="25" height="25" rx="7"/><text class="i" x="209" y="112">]</text><rect class="l" x="234" y="95" width="28" height="25" rx="7"/><text class="i" x="244" y="112">»</text><a xlink:href="#value"><rect class="r" x="272" y="95" width="52" height="25"/><text class="i" x="282" y="112">value</text></a><a xlink:href="#instance:target"><rect class="r" x="45" y="140" width="111" height="25"/><text class="i" x="55" y="157">instance:target</text></a><rect class="l" x="166" y="140" width="24" height="25" rx="7"/><text class="i" x="176" y="157">.</text><a xlink:href="#symbol:instance-field"><rect class="r" x="200" y="140" width="146" height="25"/><text class="i" x="210" y="157">symbol:instance-field</text></a><a xlink:href="#vector:target"><rect class="r" x="45" y="170" width="98" height="25"/><text class="i" x="55" y="187">vector:target</text></a><rect class="l" x="153" y="170" width="25" height="25" rx="7"/><text class="i" x="163" y="187">[</text><a xlink:href="#integer"><rect class="r" x="188" y="170" width="62" height="25"/><text class="i" x="198" y="187">integer</text></a><rect class="l" x="260" y="170" width="25" height="25" rx="7"/><text class="i" x="270" y="187">]</text><rect class="l" x="436" y="140" width="24" height="25" rx="7"/><text class="i" x="446" y="157">.</text><a xlink:href="#symbol:instance-field"><rect class="r" x="470" y="140" width="146" height="25"/><text class="i" x="480" y="157">symbol:instance-field</text></a><rect class="l" x="436" y="170" width="25" height="25" rx="7"/><text class="i" x="446" y="187">[</text><a xlink:href="#integer"><rect class="r" x="471" y="170" width="62" height="25"/><text class="i" x="481" y="187">integer</text></a><rect class="l" x="543" y="170" width="25" height="25" rx="7"/><text class="i" x="553" y="187">]</text><rect class="l" x="686" y="140" width="28" height="25" rx="7"/><text class="i" x="696" y="157">»</text><a xlink:href="#any"><rect class="r" x="724" y="140" width="42" height="25"/><text class="i" x="734" y="157">any</text></a><rect class="l" x="25" y="245" width="66" height="25" rx="7"/><text class="i" x="35" y="262">equalTo</text><rect class="l" x="101" y="245" width="25" height="25" rx="7"/><text class="i" x="111" y="262">(</text><a xlink:href="#value"><rect class="r" x="136" y="245" width="52" height="25"/><text class="i" x="146" y="262">value</text></a><rect class="l" x="198" y="245" width="24" height="25" rx="7"/><text class="i" x="208" y="262">,</text><rect class="l" x="266" y="215" width="24" height="25" rx="7"/><text class="i" x="276" y="232">,</text><a xlink:href="#value"><rect class="r" x="252" y="245" width="52" height="25"/><text class="i" x="262" y="262">value</text></a><rect class="l" x="334" y="245" width="25" height="25" rx="7"/><text class="i" x="344" y="262">)</text><rect class="l" x="369" y="245" width="28" height="25" rx="7"/><text class="i" x="379" y="262">»</text><a xlink:href="#boolean"><rect class="r" x="407" y="245" width="66" height="25"/><text class="i" x="417" y="262">boolean</text></a><rect class="l" x="25" y="305" width="87" height="25" rx="7"/><text class="i" x="35" y="322">notEqualTo</text><rect class="l" x="122" y="305" width="25" height="25" rx="7"/><text class="i" x="132" y="322">(</text><a xlink:href="#value"><rect class="r" x="157" y="305" width="52" height="25"/><text class="i" x="167" y="322">value</text></a><rect class="l" x="219" y="305" width="24" height="25" rx="7"/><text class="i" x="229" y="322">,</text><rect class="l" x="287" y="275" width="24" height="25" rx="7"/><text class="i" x="297" y="292">,</text><a xlink:href="#value"><rect class="r" x="273" y="305" width="52" height="25"/><text class="i" x="283" y="322">value</text></a><rect class="l" x="355" y="305" width="25" height="25" rx="7"/><text class="i" x="365" y="322">)</text><rect class="l" x="390" y="305" width="28" height="25" rx="7"/><text class="i" x="400" y="322">»</text><a xlink:href="#boolean"><rect class="r" x="428" y="305" width="66" height="25"/><text class="i" x="438" y="322">boolean</text></a><a xlink:href="#instance"><rect class="r" x="25" y="335" width="70" height="25"/><text class="i" x="35" y="352">instance</text></a><rect class="l" x="105" y="335" width="24" height="25" rx="7"/><text class="i" x="115" y="352">.</text><rect class="l" x="139" y="335" width="68" height="25" rx="7"/><text class="i" x="149" y="352">refineTo</text><rect class="l" x="217" y="335" width="25" height="25" rx="7"/><text class="i" x="227" y="352">(</text><a xlink:href="#symbol:spec-id"><rect class="r" x="252" y="335" width="108" height="25"/><text class="i" x="262" y="352">symbol:spec-id</text></a><rect class="l" x="370" y="335" width="25" height="25" rx="7"/><text class="i" x="380" y="352">)</text><rect class="l" x="405" y="335" width="28" height="25" rx="7"/><text class="i" x="415" y="352">»</text><a xlink:href="#instance"><rect class="r" x="443" y="335" width="70" height="25"/><text class="i" x="453" y="352">instance</text></a><a xlink:href="#instance"><rect class="r" x="25" y="365" width="70" height="25"/><text class="i" x="35" y="382">instance</text></a><rect class="l" x="105" y="365" width="24" height="25" rx="7"/><text class="i" x="115" y="382">.</text><rect class="l" x="139" y="365" width="81" height="25" rx="7"/><text class="i" x="149" y="382">refinesTo?</text><rect class="l" x="230" y="365" width="25" height="25" rx="7"/><text class="i" x="240" y="382">(</text><a xlink:href="#symbol:spec-id"><rect class="r" x="265" y="365" width="108" height="25"/><text class="i" x="275" y="382">symbol:spec-id</text></a><rect class="l" x="383" y="365" width="25" height="25" rx="7"/><text class="i" x="393" y="382">)</text><rect class="l" x="418" y="365" width="28" height="25" rx="7"/><text class="i" x="428" y="382">»</text><a xlink:href="#boolean"><rect class="r" x="456" y="365" width="66" height="25"/><text class="i" x="466" y="382">boolean</text></a><rect class="l" x="25" y="395" width="47" height="25" rx="7"/><text class="i" x="35" y="412">valid</text><a xlink:href="#instance-expression"><rect class="r" x="82" y="395" width="138" height="25"/><text class="i" x="92" y="412">instance-expression</text></a><rect class="l" x="230" y="395" width="28" height="25" rx="7"/><text class="i" x="240" y="412">»</text><a xlink:href="#any"><rect class="r" x="268" y="395" width="42" height="25"/><text class="i" x="278" y="412">any</text></a><rect class="l" x="25" y="425" width="54" height="25" rx="7"/><text class="i" x="35" y="442">valid?</text><a xlink:href="#instance-expression"><rect class="r" x="89" y="425" width="138" height="25"/><text class="i" x="99" y="442">instance-expression</text></a><rect class="l" x="237" y="425" width="28" height="25" rx="7"/><text class="i" x="247" y="442">»</text><a xlink:href="#boolean"><rect class="r" x="275" y="425" width="66" height="25"/><text class="i" x="285" y="442">boolean</text></a></svg>