<svg version="1.1" xmlns:xlink="http://www.w3.org/1999/xlink" xmlns="http://www.w3.org/2000/svg" width="498" height="35" viewbox="0 0 498 35"><defs><style type="text/css">.c{fill: none; stroke: #888888; stroke-width: 2px;}.i{fill:#000000;font-family:Verdana,Sans-serif;font-size:12px;}.l{fill:#90d9ff;stroke:#222222;}.r{fill:#d3f0ff;stroke:#222222;}</style></defs><path class="c" d="M0 18h5m70 0h10m24 0h10m68 0h10m25 0h10m108 0h10m25 0h10m28 0h10m70 0h5"/><a xlink:href="#instance"><rect class="r" x="5" y="5" width="70" height="25"/><text class="i" x="15" y="22">instance</text></a><rect class="l" x="85" y="5" width="24" height="25" rx="7"/><text class="i" x="95" y="22">.</text><rect class="l" x="119" y="5" width="68" height="25" rx="7"/><text class="i" x="129" y="22">refineTo</text><rect class="l" x="197" y="5" width="25" height="25" rx="7"/><text class="i" x="207" y="22">(</text><a xlink:href="#symbol:spec-id"><rect class="r" x="232" y="5" width="108" height="25"/><text class="i" x="242" y="22">symbol:spec-id</text></a><rect class="l" x="350" y="5" width="25" height="25" rx="7"/><text class="i" x="360" y="22">)</text><rect class="l" x="385" y="5" width="28" height="25" rx="7"/><text class="i" x="395" y="22">»</text><a xlink:href="#instance"><rect class="r" x="423" y="5" width="70" height="25"/><text class="i" x="433" y="22">instance</text></a></svg>