<!--
RULE = (('(''='  ( ( value value {value}')' '»' boolean ) ) ) |
('(''get'  ( ( (instance keyword:instance-field)')' '»' any ) |
( (vector integer)')' '»' value ) ) ) |
('(''get-in'  ( ( (instance:target | vector:target) '[' (integer | keyword:instance-field) {(integer | keyword:instance-field)} ']'')' '»' any ) ) ) |
('(''not='  ( ( value value {value}')' '»' boolean ) ) ) |
('(''refine-to'  ( ( instance keyword:spec-id')' '»' instance ) ) ) |
('(''refines-to?'  ( ( instance keyword:spec-id')' '»' boolean ) ) ) |
('(''valid'  ( ( instance-expression')' '»' any ) ) ) |
('(''valid?'  ( ( instance-expression')' '»' boolean ) ) ));
-->
<svg version="1.1" xmlns:xlink="http://www.w3.org/1999/xlink" xmlns="http://www.w3.org/2000/svg" width="1011" height="365" viewbox="0 0 1011 365"><defs><style type="text/css">.c{fill: none; stroke: #888888; stroke-width: 2px;}.j{fill:#000000;font-family:Verdana,Sans-serif;font-size:12px;}.l{fill:#90d9ff;stroke:#222222;}.r{fill:#d3f0ff;stroke:#222222;}</style></defs><path class="c" d="M0 33h25m25 0h10m29 0h10m54 0h30m-5 0q-5 0-5-5v-17q0-5 5-5h64q5 0 5 5v17q0 5-5 5m-5 0h30m25 0h10m28 0h10m71 0h595m-991 25q0 5 5 5h5m25 0h10m41 0h30m73 0h10m163 0h10m25 0h10m28 0h10m43 0h20m-407 0q5 0 5 5v20q0 5 5 5h5m59 0h10m65 0h10m25 0h10m28 0h10m54 0h106q5 0 5-5v-20q0-5 5-5m5 0h468q5 0 5-5m-981 75q0 5 5 5h5m25 0h10m57 0h30m117 0h20m-152 0q5 0 5 5v20q0 5 5 5h5m103 0h19q5 0 5-5v-20q0-5 5-5m5 0h10m25 0h30m65 0h118m-198 0q5 0 5 5v20q0 5 5 5h5m163 0h5q5 0 5-5v-20q0-5 5-5m5 0h50m-5 0q-5 0-5-5v-17q0-5 5-5h213q5 0 5 5v17q0 5-5 5m-208 0h20m65 0h118m-198 0q5 0 5 5v20q0 5 5 5h5m163 0h5q5 0 5-5v-20q0-5 5-5m5 0h40m-278 0q5 0 5 5v38q0 5 5 5h253q5 0 5-5v-38q0-5 5-5m5 0h10m25 0h10m25 0h10m28 0h10m43 0h5q5 0 5-5m-981 90q0 5 5 5h5m25 0h10m50 0h10m54 0h30m-5 0q-5 0-5-5v-17q0-5 5-5h64q5 0 5 5v17q0 5-5 5m-5 0h30m25 0h10m28 0h10m71 0h559q5 0 5-5m-981 30q0 5 5 5h5m25 0h10m74 0h10m73 0h10m124 0h10m25 0h10m28 0h10m73 0h484q5 0 5-5m-981 30q0 5 5 5h5m25 0h10m88 0h10m73 0h10m124 0h10m25 0h10m28 0h10m71 0h472q5 0 5-5m-981 30q0 5 5 5h5m25 0h10m49 0h10m147 0h10m25 0h10m28 0h10m43 0h599q5 0 5-5m-986-280q5 0 5 5v305q0 5 5 5h5m25 0h10m56 0h10m147 0h10m25 0h10m28 0h10m71 0h564q5 0 5-5v-305q0-5 5-5m5 0h5"/><rect class="l" x="25" y="20" width="25" height="25" rx="7"/><text class="j" x="35" y="37">(</text><rect class="l" x="60" y="20" width="29" height="25" rx="7"/><text class="j" x="70" y="37">=</text><a xlink:href="#value"><rect class="r" x="99" y="20" width="54" height="25"/><text class="j" x="109" y="37">value</text></a><a xlink:href="#value"><rect class="r" x="183" y="20" width="54" height="25"/><text class="j" x="193" y="37">value</text></a><rect class="l" x="267" y="20" width="25" height="25" rx="7"/><text class="j" x="277" y="37">)</text><rect class="l" x="302" y="20" width="28" height="25" rx="7"/><text class="j" x="312" y="37">»</text><a xlink:href="#boolean"><rect class="r" x="340" y="20" width="71" height="25"/><text class="j" x="350" y="37">boolean</text></a><rect class="l" x="25" y="50" width="25" height="25" rx="7"/><text class="j" x="35" y="67">(</text><rect class="l" x="60" y="50" width="41" height="25" rx="7"/><text class="j" x="70" y="67">get</text><a xlink:href="#instance"><rect class="r" x="131" y="50" width="73" height="25"/><text class="j" x="141" y="67">instance</text></a><a xlink:href="#keyword:instance-field"><rect class="r" x="214" y="50" width="163" height="25"/><text class="j" x="224" y="67">keyword:instance-field</text></a><rect class="l" x="387" y="50" width="25" height="25" rx="7"/><text class="j" x="397" y="67">)</text><rect class="l" x="422" y="50" width="28" height="25" rx="7"/><text class="j" x="432" y="67">»</text><a xlink:href="#any"><rect class="r" x="460" y="50" width="43" height="25"/><text class="j" x="470" y="67">any</text></a><a xlink:href="#vector"><rect class="r" x="131" y="80" width="59" height="25"/><text class="j" x="141" y="97">vector</text></a><a xlink:href="#integer"><rect class="r" x="200" y="80" width="65" height="25"/><text class="j" x="210" y="97">integer</text></a><rect class="l" x="275" y="80" width="25" height="25" rx="7"/><text class="j" x="285" y="97">)</text><rect class="l" x="310" y="80" width="28" height="25" rx="7"/><text class="j" x="320" y="97">»</text><a xlink:href="#value"><rect class="r" x="348" y="80" width="54" height="25"/><text class="j" x="358" y="97">value</text></a><rect class="l" x="25" y="125" width="25" height="25" rx="7"/><text class="j" x="35" y="142">(</text><rect class="l" x="60" y="125" width="57" height="25" rx="7"/><text class="j" x="70" y="142">get-in</text><a xlink:href="#instance:target"><rect class="r" x="147" y="125" width="117" height="25"/><text class="j" x="157" y="142">instance:target</text></a><a xlink:href="#vector:target"><rect class="r" x="147" y="155" width="103" height="25"/><text class="j" x="157" y="172">vector:target</text></a><rect class="l" x="294" y="125" width="25" height="25" rx="7"/><text class="j" x="304" y="142">[</text><a xlink:href="#integer"><rect class="r" x="349" y="125" width="65" height="25"/><text class="j" x="359" y="142">integer</text></a><a xlink:href="#keyword:instance-field"><rect class="r" x="349" y="155" width="163" height="25"/><text class="j" x="359" y="172">keyword:instance-field</text></a><a xlink:href="#integer"><rect class="r" x="602" y="125" width="65" height="25"/><text class="j" x="612" y="142">integer</text></a><a xlink:href="#keyword:instance-field"><rect class="r" x="602" y="155" width="163" height="25"/><text class="j" x="612" y="172">keyword:instance-field</text></a><rect class="l" x="835" y="125" width="25" height="25" rx="7"/><text class="j" x="845" y="142">]</text><rect class="l" x="870" y="125" width="25" height="25" rx="7"/><text class="j" x="880" y="142">)</text><rect class="l" x="905" y="125" width="28" height="25" rx="7"/><text class="j" x="915" y="142">»</text><a xlink:href="#any"><rect class="r" x="943" y="125" width="43" height="25"/><text class="j" x="953" y="142">any</text></a><rect class="l" x="25" y="215" width="25" height="25" rx="7"/><text class="j" x="35" y="232">(</text><rect class="l" x="60" y="215" width="50" height="25" rx="7"/><text class="j" x="70" y="232">not=</text><a xlink:href="#value"><rect class="r" x="120" y="215" width="54" height="25"/><text class="j" x="130" y="232">value</text></a><a xlink:href="#value"><rect class="r" x="204" y="215" width="54" height="25"/><text class="j" x="214" y="232">value</text></a><rect class="l" x="288" y="215" width="25" height="25" rx="7"/><text class="j" x="298" y="232">)</text><rect class="l" x="323" y="215" width="28" height="25" rx="7"/><text class="j" x="333" y="232">»</text><a xlink:href="#boolean"><rect class="r" x="361" y="215" width="71" height="25"/><text class="j" x="371" y="232">boolean</text></a><rect class="l" x="25" y="245" width="25" height="25" rx="7"/><text class="j" x="35" y="262">(</text><rect class="l" x="60" y="245" width="74" height="25" rx="7"/><text class="j" x="70" y="262">refine-to</text><a xlink:href="#instance"><rect class="r" x="144" y="245" width="73" height="25"/><text class="j" x="154" y="262">instance</text></a><a xlink:href="#keyword:spec-id"><rect class="r" x="227" y="245" width="124" height="25"/><text class="j" x="237" y="262">keyword:spec-id</text></a><rect class="l" x="361" y="245" width="25" height="25" rx="7"/><text class="j" x="371" y="262">)</text><rect class="l" x="396" y="245" width="28" height="25" rx="7"/><text class="j" x="406" y="262">»</text><a xlink:href="#instance"><rect class="r" x="434" y="245" width="73" height="25"/><text class="j" x="444" y="262">instance</text></a><rect class="l" x="25" y="275" width="25" height="25" rx="7"/><text class="j" x="35" y="292">(</text><rect class="l" x="60" y="275" width="88" height="25" rx="7"/><text class="j" x="70" y="292">refines-to?</text><a xlink:href="#instance"><rect class="r" x="158" y="275" width="73" height="25"/><text class="j" x="168" y="292">instance</text></a><a xlink:href="#keyword:spec-id"><rect class="r" x="241" y="275" width="124" height="25"/><text class="j" x="251" y="292">keyword:spec-id</text></a><rect class="l" x="375" y="275" width="25" height="25" rx="7"/><text class="j" x="385" y="292">)</text><rect class="l" x="410" y="275" width="28" height="25" rx="7"/><text class="j" x="420" y="292">»</text><a xlink:href="#boolean"><rect class="r" x="448" y="275" width="71" height="25"/><text class="j" x="458" y="292">boolean</text></a><rect class="l" x="25" y="305" width="25" height="25" rx="7"/><text class="j" x="35" y="322">(</text><rect class="l" x="60" y="305" width="49" height="25" rx="7"/><text class="j" x="70" y="322">valid</text><a xlink:href="#instance-expression"><rect class="r" x="119" y="305" width="147" height="25"/><text class="j" x="129" y="322">instance-expression</text></a><rect class="l" x="276" y="305" width="25" height="25" rx="7"/><text class="j" x="286" y="322">)</text><rect class="l" x="311" y="305" width="28" height="25" rx="7"/><text class="j" x="321" y="322">»</text><a xlink:href="#any"><rect class="r" x="349" y="305" width="43" height="25"/><text class="j" x="359" y="322">any</text></a><rect class="l" x="25" y="335" width="25" height="25" rx="7"/><text class="j" x="35" y="352">(</text><rect class="l" x="60" y="335" width="56" height="25" rx="7"/><text class="j" x="70" y="352">valid?</text><a xlink:href="#instance-expression"><rect class="r" x="126" y="335" width="147" height="25"/><text class="j" x="136" y="352">instance-expression</text></a><rect class="l" x="283" y="335" width="25" height="25" rx="7"/><text class="j" x="293" y="352">)</text><rect class="l" x="318" y="335" width="28" height="25" rx="7"/><text class="j" x="328" y="352">»</text><a xlink:href="#boolean"><rect class="r" x="356" y="335" width="71" height="25"/><text class="j" x="366" y="352">boolean</text></a></svg>