<svg version="1.1" xmlns:xlink="http://www.w3.org/1999/xlink" xmlns="http://www.w3.org/2000/svg" width="806" height="441" viewbox="0 0 806 441"><defs><style type="text/css">.c{fill: none; stroke: #888888; stroke-width: 2px;}.i{fill:#000000;font-family:Dialog,Sans-serif;font-size:12px;}.l{fill:#90d9ff;stroke:#222222;}.r{fill:#d3f0ff;stroke:#222222;}</style></defs><path class="c" d="M0 17h25m53 0h10m35 0h10m53 0h10m27 0h10m71 0h497m-786 24q0 5 5 5h5m53 0h10m40 0h10m53 0h10m27 0h10m71 0h477q5 0 5-5m-776 29q0 5 5 5h5m74 0h10m24 0h10m151 0h10m27 0h10m42 0h403q5 0 5-5m-776 29q0 5 5 5h5m59 0h10m25 0h10m65 0h10m25 0h10m27 0h10m53 0h457q5 0 5-5m-776 44q0 5 5 5h25m117 0h10m24 0h10m151 0h20m-347 0q5 0 5 5v19q0 5 5 5h5m102 0h10m25 0h10m65 0h10m25 0h70q5 0 5-5v-19q0-5 5-5m5 0h50m-5 0q-5 0-5-5v-16q0-5 5-5h235q5 0 5 5v16q0 5-5 5m-230 0h20m24 0h10m151 0h20m-220 0q5 0 5 5v19q0 5 5 5h5m25 0h10m65 0h10m25 0h55q5 0 5-5v-19q0-5 5-5m5 0h40m-300 0q5 0 5 5v37q0 5 5 5h275q5 0 5-5v-37q0-5 5-5m5 0h10m27 0h10m42 0h5q5 0 5-5m-776 102q0 5 5 5h5m70 0h10m25 0h10m53 0h10m24 0h30m-5 0q-5 0-5-5v-19q0-5 5-5h19m24 0h20q5 0 5 5v19q0 5-5 5m-5 0h30m25 0h10m27 0h10m71 0h303q5 0 5-5m-776 58q0 5 5 5h5m91 0h10m25 0h10m53 0h10m24 0h30m-5 0q-5 0-5-5v-19q0-5 5-5h19m24 0h20q5 0 5 5v19q0 5-5 5m-5 0h30m25 0h10m27 0h10m71 0h282q5 0 5-5m-776 29q0 5 5 5h5m74 0h10m24 0h10m71 0h10m25 0h10m112 0h10m25 0h10m27 0h10m74 0h259q5 0 5-5m-776 29q0 5 5 5h5m74 0h10m24 0h10m84 0h10m25 0h10m112 0h10m25 0h10m27 0h10m71 0h249q5 0 5-5m-776 29q0 5 5 5h5m48 0h10m146 0h10m27 0h10m42 0h468q5 0 5-5m-781-373q5 0 5 5v397q0 5 5 5h5m54 0h10m146 0h10m27 0h10m71 0h433q5 0 5-5v-397q0-5 5-5m5 0h5"/><a xlink:href="#value"><rect class="r" x="25" y="5" width="53" height="24"/><text class="i" x="35" y="21">value</text></a><rect class="l" x="88" y="5" width="35" height="24" rx="7"/><text class="i" x="98" y="21">!=</text><a xlink:href="#value"><rect class="r" x="133" y="5" width="53" height="24"/><text class="i" x="143" y="21">value</text></a><rect class="l" x="196" y="5" width="27" height="24" rx="7"/><text class="i" x="206" y="21">»</text><a xlink:href="#boolean"><rect class="r" x="233" y="5" width="71" height="24"/><text class="i" x="243" y="21">boolean</text></a><a xlink:href="#value"><rect class="r" x="25" y="34" width="53" height="24"/><text class="i" x="35" y="50">value</text></a><rect class="l" x="88" y="34" width="40" height="24" rx="7"/><text class="i" x="98" y="50">==</text><a xlink:href="#value"><rect class="r" x="138" y="34" width="53" height="24"/><text class="i" x="148" y="50">value</text></a><rect class="l" x="201" y="34" width="27" height="24" rx="7"/><text class="i" x="211" y="50">»</text><a xlink:href="#boolean"><rect class="r" x="238" y="34" width="71" height="24"/><text class="i" x="248" y="50">boolean</text></a><a xlink:href="#instance"><rect class="r" x="25" y="63" width="74" height="24"/><text class="i" x="35" y="79">instance</text></a><rect class="l" x="109" y="63" width="24" height="24" rx="7"/><text class="i" x="119" y="79">.</text><a xlink:href="#symbol:instance-field"><rect class="r" x="143" y="63" width="151" height="24"/><text class="i" x="153" y="79">symbol:instance-field</text></a><rect class="l" x="304" y="63" width="27" height="24" rx="7"/><text class="i" x="314" y="79">»</text><a xlink:href="#any"><rect class="r" x="341" y="63" width="42" height="24"/><text class="i" x="351" y="79">any</text></a><a xlink:href="#vector"><rect class="r" x="25" y="92" width="59" height="24"/><text class="i" x="35" y="108">vector</text></a><rect class="l" x="94" y="92" width="25" height="24" rx="7"/><text class="i" x="104" y="108">[</text><a xlink:href="#integer"><rect class="r" x="129" y="92" width="65" height="24"/><text class="i" x="139" y="108">integer</text></a><rect class="l" x="204" y="92" width="25" height="24" rx="7"/><text class="i" x="214" y="108">]</text><rect class="l" x="239" y="92" width="27" height="24" rx="7"/><text class="i" x="249" y="108">»</text><a xlink:href="#value"><rect class="r" x="276" y="92" width="53" height="24"/><text class="i" x="286" y="108">value</text></a><a xlink:href="#instance:target"><rect class="r" x="45" y="136" width="117" height="24"/><text class="i" x="55" y="152">instance:target</text></a><rect class="l" x="172" y="136" width="24" height="24" rx="7"/><text class="i" x="182" y="152">.</text><a xlink:href="#symbol:instance-field"><rect class="r" x="206" y="136" width="151" height="24"/><text class="i" x="216" y="152">symbol:instance-field</text></a><a xlink:href="#vector:target"><rect class="r" x="45" y="165" width="102" height="24"/><text class="i" x="55" y="181">vector:target</text></a><rect class="l" x="157" y="165" width="25" height="24" rx="7"/><text class="i" x="167" y="181">[</text><a xlink:href="#integer"><rect class="r" x="192" y="165" width="65" height="24"/><text class="i" x="202" y="181">integer</text></a><rect class="l" x="267" y="165" width="25" height="24" rx="7"/><text class="i" x="277" y="181">]</text><rect class="l" x="447" y="136" width="24" height="24" rx="7"/><text class="i" x="457" y="152">.</text><a xlink:href="#symbol:instance-field"><rect class="r" x="481" y="136" width="151" height="24"/><text class="i" x="491" y="152">symbol:instance-field</text></a><rect class="l" x="447" y="165" width="25" height="24" rx="7"/><text class="i" x="457" y="181">[</text><a xlink:href="#integer"><rect class="r" x="482" y="165" width="65" height="24"/><text class="i" x="492" y="181">integer</text></a><rect class="l" x="557" y="165" width="25" height="24" rx="7"/><text class="i" x="567" y="181">]</text><rect class="l" x="702" y="136" width="27" height="24" rx="7"/><text class="i" x="712" y="152">»</text><a xlink:href="#any"><rect class="r" x="739" y="136" width="42" height="24"/><text class="i" x="749" y="152">any</text></a><rect class="l" x="25" y="238" width="70" height="24" rx="7"/><text class="i" x="35" y="254">equalTo</text><rect class="l" x="105" y="238" width="25" height="24" rx="7"/><text class="i" x="115" y="254">(</text><a xlink:href="#value"><rect class="r" x="140" y="238" width="53" height="24"/><text class="i" x="150" y="254">value</text></a><rect class="l" x="203" y="238" width="24" height="24" rx="7"/><text class="i" x="213" y="254">,</text><rect class="l" x="271" y="209" width="24" height="24" rx="7"/><text class="i" x="281" y="225">,</text><a xlink:href="#value"><rect class="r" x="257" y="238" width="53" height="24"/><text class="i" x="267" y="254">value</text></a><rect class="l" x="340" y="238" width="25" height="24" rx="7"/><text class="i" x="350" y="254">)</text><rect class="l" x="375" y="238" width="27" height="24" rx="7"/><text class="i" x="385" y="254">»</text><a xlink:href="#boolean"><rect class="r" x="412" y="238" width="71" height="24"/><text class="i" x="422" y="254">boolean</text></a><rect class="l" x="25" y="296" width="91" height="24" rx="7"/><text class="i" x="35" y="312">notEqualTo</text><rect class="l" x="126" y="296" width="25" height="24" rx="7"/><text class="i" x="136" y="312">(</text><a xlink:href="#value"><rect class="r" x="161" y="296" width="53" height="24"/><text class="i" x="171" y="312">value</text></a><rect class="l" x="224" y="296" width="24" height="24" rx="7"/><text class="i" x="234" y="312">,</text><rect class="l" x="292" y="267" width="24" height="24" rx="7"/><text class="i" x="302" y="283">,</text><a xlink:href="#value"><rect class="r" x="278" y="296" width="53" height="24"/><text class="i" x="288" y="312">value</text></a><rect class="l" x="361" y="296" width="25" height="24" rx="7"/><text class="i" x="371" y="312">)</text><rect class="l" x="396" y="296" width="27" height="24" rx="7"/><text class="i" x="406" y="312">»</text><a xlink:href="#boolean"><rect class="r" x="433" y="296" width="71" height="24"/><text class="i" x="443" y="312">boolean</text></a><a xlink:href="#instance"><rect class="r" x="25" y="325" width="74" height="24"/><text class="i" x="35" y="341">instance</text></a><rect class="l" x="109" y="325" width="24" height="24" rx="7"/><text class="i" x="119" y="341">.</text><rect class="l" x="143" y="325" width="71" height="24" rx="7"/><text class="i" x="153" y="341">refineTo</text><rect class="l" x="224" y="325" width="25" height="24" rx="7"/><text class="i" x="234" y="341">(</text><a xlink:href="#symbol:spec-id"><rect class="r" x="259" y="325" width="112" height="24"/><text class="i" x="269" y="341">symbol:spec-id</text></a><rect class="l" x="381" y="325" width="25" height="24" rx="7"/><text class="i" x="391" y="341">)</text><rect class="l" x="416" y="325" width="27" height="24" rx="7"/><text class="i" x="426" y="341">»</text><a xlink:href="#instance"><rect class="r" x="453" y="325" width="74" height="24"/><text class="i" x="463" y="341">instance</text></a><a xlink:href="#instance"><rect class="r" x="25" y="354" width="74" height="24"/><text class="i" x="35" y="370">instance</text></a><rect class="l" x="109" y="354" width="24" height="24" rx="7"/><text class="i" x="119" y="370">.</text><rect class="l" x="143" y="354" width="84" height="24" rx="7"/><text class="i" x="153" y="370">refinesTo?</text><rect class="l" x="237" y="354" width="25" height="24" rx="7"/><text class="i" x="247" y="370">(</text><a xlink:href="#symbol:spec-id"><rect class="r" x="272" y="354" width="112" height="24"/><text class="i" x="282" y="370">symbol:spec-id</text></a><rect class="l" x="394" y="354" width="25" height="24" rx="7"/><text class="i" x="404" y="370">)</text><rect class="l" x="429" y="354" width="27" height="24" rx="7"/><text class="i" x="439" y="370">»</text><a xlink:href="#boolean"><rect class="r" x="466" y="354" width="71" height="24"/><text class="i" x="476" y="370">boolean</text></a><rect class="l" x="25" y="383" width="48" height="24" rx="7"/><text class="i" x="35" y="399">valid</text><a xlink:href="#instance-expression"><rect class="r" x="83" y="383" width="146" height="24"/><text class="i" x="93" y="399">instance-expression</text></a><rect class="l" x="239" y="383" width="27" height="24" rx="7"/><text class="i" x="249" y="399">»</text><a xlink:href="#any"><rect class="r" x="276" y="383" width="42" height="24"/><text class="i" x="286" y="399">any</text></a><rect class="l" x="25" y="412" width="54" height="24" rx="7"/><text class="i" x="35" y="428">valid?</text><a xlink:href="#instance-expression"><rect class="r" x="89" y="412" width="146" height="24"/><text class="i" x="99" y="428">instance-expression</text></a><rect class="l" x="245" y="412" width="27" height="24" rx="7"/><text class="i" x="255" y="428">»</text><a xlink:href="#boolean"><rect class="r" x="282" y="412" width="71" height="24"/><text class="i" x="292" y="428">boolean</text></a></svg>