<svg version="1.1" xmlns:xlink="http://www.w3.org/1999/xlink" xmlns="http://www.w3.org/2000/svg" width="592" height="815" viewbox="0 0 592 815"><defs><style type="text/css">.c{fill: none; stroke: #888888; stroke-width: 2px;}.j{fill:#000000;font-family:Verdana,Sans-serif;font-size:12px;}.l{fill:#90d9ff;stroke:#222222;}.r{fill:#d3f0ff;stroke:#222222;}</style></defs><path class="c" d="M0 18h25m25 0h10m28 0h30m62 0h10m62 0h10m25 0h10m28 0h10m62 0h92m-386 0q5 0 5 5v20q0 5 5 5h5m98 0h10m62 0h10m25 0h10m28 0h10m98 0h5q5 0 5-5v-20q0-5 5-5m5 0h98m-572 70q0 5 5 5h5m25 0h10m30 0h30m62 0h30m-5 0q-5 0-5-5v-17q0-5 5-5h72q5 0 5 5v17q0 5-5 5m-5 0h30m25 0h10m28 0h10m62 0h128m-462 0q5 0 5 5v35q0 5 5 5h5m98 0h30m-5 0q-5 0-5-5v-17q0-5 5-5h108q5 0 5 5v17q0 5-5 5m-5 0h30m25 0h10m28 0h10m98 0h5q5 0 5-5v-35q0-5 5-5m5 0h5q5 0 5-5m-562 90q0 5 5 5h5m25 0h10m25 0h30m62 0h30m-5 0q-5 0-5-5v-17q0-5 5-5h72q5 0 5 5v17q0 5-5 5m-5 0h30m25 0h10m28 0h10m62 0h128m-462 0q5 0 5 5v35q0 5 5 5h5m98 0h30m-5 0q-5 0-5-5v-17q0-5 5-5h108q5 0 5 5v17q0 5-5 5m-5 0h30m25 0h10m28 0h10m98 0h5q5 0 5-5v-35q0-5 5-5m5 0h10q5 0 5-5m-562 75q0 5 5 5h5m25 0h10m30 0h30m62 0h10m62 0h92m-241 0q5 0 5 5v20q0 5 5 5h5m98 0h10m98 0h5q5 0 5-5v-20q0-5 5-5m5 0h10m25 0h10m28 0h10m66 0h77q5 0 5-5m-562 60q0 5 5 5h5m25 0h10m40 0h30m62 0h10m62 0h92m-241 0q5 0 5 5v20q0 5 5 5h5m98 0h10m98 0h5q5 0 5-5v-20q0-5 5-5m5 0h10m25 0h10m28 0h10m66 0h67q5 0 5-5m-562 75q0 5 5 5h5m25 0h10m30 0h10m52 0h30m-5 0q-5 0-5-5v-17q0-5 5-5h62q5 0 5 5v17q0 5-5 5m-5 0h30m25 0h10m28 0h10m66 0h169q5 0 5-5m-562 30q0 5 5 5h5m25 0h10m30 0h30m62 0h10m62 0h92m-241 0q5 0 5 5v20q0 5 5 5h5m98 0h10m98 0h5q5 0 5-5v-20q0-5 5-5m5 0h10m25 0h10m28 0h10m66 0h77q5 0 5-5m-562 60q0 5 5 5h5m25 0h10m40 0h30m62 0h10m62 0h92m-241 0q5 0 5 5v20q0 5 5 5h5m98 0h10m98 0h5q5 0 5-5v-20q0-5 5-5m5 0h10m25 0h10m28 0h10m66 0h67q5 0 5-5m-562 60q0 5 5 5h5m25 0h10m40 0h30m62 0h10m25 0h10m28 0h10m62 0h92m-314 0q5 0 5 5v20q0 5 5 5h5m98 0h10m25 0h10m28 0h10m98 0h5q5 0 5-5v-20q0-5 5-5m5 0h143q5 0 5-5m-562 60q0 5 5 5h5m25 0h10m40 0h10m62 0h10m25 0h10m28 0h10m62 0h255q5 0 5-5m-562 30q0 5 5 5h5m25 0h10m37 0h30m62 0h10m62 0h10m25 0h10m28 0h10m62 0h92m-386 0q5 0 5 5v20q0 5 5 5h5m98 0h10m62 0h10m25 0h10m28 0h10m98 0h5q5 0 5-5v-20q0-5 5-5m5 0h74q5 0 5-5m-562 60q0 5 5 5h5m25 0h10m46 0h10m62 0h10m62 0h10m25 0h10m28 0h10m62 0h177q5 0 5-5m-562 30q0 5 5 5h5m25 0h10m37 0h10m62 0h10m25 0h10m28 0h10m62 0h258q5 0 5-5m-562 30q0 5 5 5h5m25 0h10m46 0h10m62 0h10m62 0h10m25 0h10m28 0h10m62 0h177q5 0 5-5m-567-730q5 0 5 5v770q0 5 5 5h5m25 0h10m50 0h10m52 0h30m-5 0q-5 0-5-5v-17q0-5 5-5h62q5 0 5 5v17q0 5-5 5m-5 0h30m25 0h10m28 0h10m66 0h149q5 0 5-5v-770q0-5 5-5m5 0h5"/><rect class="l" x="25" y="5" width="25" height="25" rx="7"/><text class="j" x="35" y="22">(</text><rect class="l" x="60" y="5" width="28" height="25" rx="7"/><text class="j" x="70" y="22">*</text><a xlink:href="#integer"><rect class="r" x="118" y="5" width="62" height="25"/><text class="j" x="128" y="22">integer</text></a><a xlink:href="#integer"><rect class="r" x="190" y="5" width="62" height="25"/><text class="j" x="200" y="22">integer</text></a><rect class="l" x="262" y="5" width="25" height="25" rx="7"/><text class="j" x="272" y="22">)</text><rect class="l" x="297" y="5" width="28" height="25" rx="7"/><text class="j" x="307" y="22">»</text><a xlink:href="#integer"><rect class="r" x="335" y="5" width="62" height="25"/><text class="j" x="345" y="22">integer</text></a><a xlink:href="#fixed-decimal"><rect class="r" x="118" y="35" width="98" height="25"/><text class="j" x="128" y="52">fixed-decimal</text></a><a xlink:href="#integer"><rect class="r" x="226" y="35" width="62" height="25"/><text class="j" x="236" y="52">integer</text></a><rect class="l" x="298" y="35" width="25" height="25" rx="7"/><text class="j" x="308" y="52">)</text><rect class="l" x="333" y="35" width="28" height="25" rx="7"/><text class="j" x="343" y="52">»</text><a xlink:href="#fixed-decimal"><rect class="r" x="371" y="35" width="98" height="25"/><text class="j" x="381" y="52">fixed-decimal</text></a><rect class="l" x="25" y="80" width="25" height="25" rx="7"/><text class="j" x="35" y="97">(</text><rect class="l" x="60" y="80" width="30" height="25" rx="7"/><text class="j" x="70" y="97">+</text><a xlink:href="#integer"><rect class="r" x="120" y="80" width="62" height="25"/><text class="j" x="130" y="97">integer</text></a><a xlink:href="#integer"><rect class="r" x="212" y="80" width="62" height="25"/><text class="j" x="222" y="97">integer</text></a><rect class="l" x="304" y="80" width="25" height="25" rx="7"/><text class="j" x="314" y="97">)</text><rect class="l" x="339" y="80" width="28" height="25" rx="7"/><text class="j" x="349" y="97">»</text><a xlink:href="#integer"><rect class="r" x="377" y="80" width="62" height="25"/><text class="j" x="387" y="97">integer</text></a><a xlink:href="#fixed-decimal"><rect class="r" x="120" y="125" width="98" height="25"/><text class="j" x="130" y="142">fixed-decimal</text></a><a xlink:href="#fixed-decimal"><rect class="r" x="248" y="125" width="98" height="25"/><text class="j" x="258" y="142">fixed-decimal</text></a><rect class="l" x="376" y="125" width="25" height="25" rx="7"/><text class="j" x="386" y="142">)</text><rect class="l" x="411" y="125" width="28" height="25" rx="7"/><text class="j" x="421" y="142">»</text><a xlink:href="#fixed-decimal"><rect class="r" x="449" y="125" width="98" height="25"/><text class="j" x="459" y="142">fixed-decimal</text></a><rect class="l" x="25" y="170" width="25" height="25" rx="7"/><text class="j" x="35" y="187">(</text><rect class="l" x="60" y="170" width="25" height="25" rx="7"/><text class="j" x="70" y="187">-</text><a xlink:href="#integer"><rect class="r" x="115" y="170" width="62" height="25"/><text class="j" x="125" y="187">integer</text></a><a xlink:href="#integer"><rect class="r" x="207" y="170" width="62" height="25"/><text class="j" x="217" y="187">integer</text></a><rect class="l" x="299" y="170" width="25" height="25" rx="7"/><text class="j" x="309" y="187">)</text><rect class="l" x="334" y="170" width="28" height="25" rx="7"/><text class="j" x="344" y="187">»</text><a xlink:href="#integer"><rect class="r" x="372" y="170" width="62" height="25"/><text class="j" x="382" y="187">integer</text></a><a xlink:href="#fixed-decimal"><rect class="r" x="115" y="215" width="98" height="25"/><text class="j" x="125" y="232">fixed-decimal</text></a><a xlink:href="#fixed-decimal"><rect class="r" x="243" y="215" width="98" height="25"/><text class="j" x="253" y="232">fixed-decimal</text></a><rect class="l" x="371" y="215" width="25" height="25" rx="7"/><text class="j" x="381" y="232">)</text><rect class="l" x="406" y="215" width="28" height="25" rx="7"/><text class="j" x="416" y="232">»</text><a xlink:href="#fixed-decimal"><rect class="r" x="444" y="215" width="98" height="25"/><text class="j" x="454" y="232">fixed-decimal</text></a><rect class="l" x="25" y="245" width="25" height="25" rx="7"/><text class="j" x="35" y="262">(</text><rect class="l" x="60" y="245" width="30" height="25" rx="7"/><text class="j" x="70" y="262">&lt;</text><a xlink:href="#integer"><rect class="r" x="120" y="245" width="62" height="25"/><text class="j" x="130" y="262">integer</text></a><a xlink:href="#integer"><rect class="r" x="192" y="245" width="62" height="25"/><text class="j" x="202" y="262">integer</text></a><a xlink:href="#fixed-decimal"><rect class="r" x="120" y="275" width="98" height="25"/><text class="j" x="130" y="292">fixed-decimal</text></a><a xlink:href="#fixed-decimal"><rect class="r" x="228" y="275" width="98" height="25"/><text class="j" x="238" y="292">fixed-decimal</text></a><rect class="l" x="356" y="245" width="25" height="25" rx="7"/><text class="j" x="366" y="262">)</text><rect class="l" x="391" y="245" width="28" height="25" rx="7"/><text class="j" x="401" y="262">»</text><a xlink:href="#boolean"><rect class="r" x="429" y="245" width="66" height="25"/><text class="j" x="439" y="262">boolean</text></a><rect class="l" x="25" y="305" width="25" height="25" rx="7"/><text class="j" x="35" y="322">(</text><rect class="l" x="60" y="305" width="40" height="25" rx="7"/><text class="j" x="70" y="322">&lt;=</text><a xlink:href="#integer"><rect class="r" x="130" y="305" width="62" height="25"/><text class="j" x="140" y="322">integer</text></a><a xlink:href="#integer"><rect class="r" x="202" y="305" width="62" height="25"/><text class="j" x="212" y="322">integer</text></a><a xlink:href="#fixed-decimal"><rect class="r" x="130" y="335" width="98" height="25"/><text class="j" x="140" y="352">fixed-decimal</text></a><a xlink:href="#fixed-decimal"><rect class="r" x="238" y="335" width="98" height="25"/><text class="j" x="248" y="352">fixed-decimal</text></a><rect class="l" x="366" y="305" width="25" height="25" rx="7"/><text class="j" x="376" y="322">)</text><rect class="l" x="401" y="305" width="28" height="25" rx="7"/><text class="j" x="411" y="322">»</text><a xlink:href="#boolean"><rect class="r" x="439" y="305" width="66" height="25"/><text class="j" x="449" y="322">boolean</text></a><rect class="l" x="25" y="380" width="25" height="25" rx="7"/><text class="j" x="35" y="397">(</text><rect class="l" x="60" y="380" width="30" height="25" rx="7"/><text class="j" x="70" y="397">=</text><a xlink:href="#value"><rect class="r" x="100" y="380" width="52" height="25"/><text class="j" x="110" y="397">value</text></a><a xlink:href="#value"><rect class="r" x="182" y="380" width="52" height="25"/><text class="j" x="192" y="397">value</text></a><rect class="l" x="264" y="380" width="25" height="25" rx="7"/><text class="j" x="274" y="397">)</text><rect class="l" x="299" y="380" width="28" height="25" rx="7"/><text class="j" x="309" y="397">»</text><a xlink:href="#boolean"><rect class="r" x="337" y="380" width="66" height="25"/><text class="j" x="347" y="397">boolean</text></a><rect class="l" x="25" y="410" width="25" height="25" rx="7"/><text class="j" x="35" y="427">(</text><rect class="l" x="60" y="410" width="30" height="25" rx="7"/><text class="j" x="70" y="427">&gt;</text><a xlink:href="#integer"><rect class="r" x="120" y="410" width="62" height="25"/><text class="j" x="130" y="427">integer</text></a><a xlink:href="#integer"><rect class="r" x="192" y="410" width="62" height="25"/><text class="j" x="202" y="427">integer</text></a><a xlink:href="#fixed-decimal"><rect class="r" x="120" y="440" width="98" height="25"/><text class="j" x="130" y="457">fixed-decimal</text></a><a xlink:href="#fixed-decimal"><rect class="r" x="228" y="440" width="98" height="25"/><text class="j" x="238" y="457">fixed-decimal</text></a><rect class="l" x="356" y="410" width="25" height="25" rx="7"/><text class="j" x="366" y="427">)</text><rect class="l" x="391" y="410" width="28" height="25" rx="7"/><text class="j" x="401" y="427">»</text><a xlink:href="#boolean"><rect class="r" x="429" y="410" width="66" height="25"/><text class="j" x="439" y="427">boolean</text></a><rect class="l" x="25" y="470" width="25" height="25" rx="7"/><text class="j" x="35" y="487">(</text><rect class="l" x="60" y="470" width="40" height="25" rx="7"/><text class="j" x="70" y="487">&gt;=</text><a xlink:href="#integer"><rect class="r" x="130" y="470" width="62" height="25"/><text class="j" x="140" y="487">integer</text></a><a xlink:href="#integer"><rect class="r" x="202" y="470" width="62" height="25"/><text class="j" x="212" y="487">integer</text></a><a xlink:href="#fixed-decimal"><rect class="r" x="130" y="500" width="98" height="25"/><text class="j" x="140" y="517">fixed-decimal</text></a><a xlink:href="#fixed-decimal"><rect class="r" x="238" y="500" width="98" height="25"/><text class="j" x="248" y="517">fixed-decimal</text></a><rect class="l" x="366" y="470" width="25" height="25" rx="7"/><text class="j" x="376" y="487">)</text><rect class="l" x="401" y="470" width="28" height="25" rx="7"/><text class="j" x="411" y="487">»</text><a xlink:href="#boolean"><rect class="r" x="439" y="470" width="66" height="25"/><text class="j" x="449" y="487">boolean</text></a><rect class="l" x="25" y="530" width="25" height="25" rx="7"/><text class="j" x="35" y="547">(</text><rect class="l" x="60" y="530" width="40" height="25" rx="7"/><text class="j" x="70" y="547">abs</text><a xlink:href="#integer"><rect class="r" x="130" y="530" width="62" height="25"/><text class="j" x="140" y="547">integer</text></a><rect class="l" x="202" y="530" width="25" height="25" rx="7"/><text class="j" x="212" y="547">)</text><rect class="l" x="237" y="530" width="28" height="25" rx="7"/><text class="j" x="247" y="547">»</text><a xlink:href="#integer"><rect class="r" x="275" y="530" width="62" height="25"/><text class="j" x="285" y="547">integer</text></a><a xlink:href="#fixed-decimal"><rect class="r" x="130" y="560" width="98" height="25"/><text class="j" x="140" y="577">fixed-decimal</text></a><rect class="l" x="238" y="560" width="25" height="25" rx="7"/><text class="j" x="248" y="577">)</text><rect class="l" x="273" y="560" width="28" height="25" rx="7"/><text class="j" x="283" y="577">»</text><a xlink:href="#fixed-decimal"><rect class="r" x="311" y="560" width="98" height="25"/><text class="j" x="321" y="577">fixed-decimal</text></a><rect class="l" x="25" y="590" width="25" height="25" rx="7"/><text class="j" x="35" y="607">(</text><rect class="l" x="60" y="590" width="40" height="25" rx="7"/><text class="j" x="70" y="607">dec</text><a xlink:href="#integer"><rect class="r" x="110" y="590" width="62" height="25"/><text class="j" x="120" y="607">integer</text></a><rect class="l" x="182" y="590" width="25" height="25" rx="7"/><text class="j" x="192" y="607">)</text><rect class="l" x="217" y="590" width="28" height="25" rx="7"/><text class="j" x="227" y="607">»</text><a xlink:href="#integer"><rect class="r" x="255" y="590" width="62" height="25"/><text class="j" x="265" y="607">integer</text></a><rect class="l" x="25" y="620" width="25" height="25" rx="7"/><text class="j" x="35" y="637">(</text><rect class="l" x="60" y="620" width="37" height="25" rx="7"/><text class="j" x="70" y="637">div</text><a xlink:href="#integer"><rect class="r" x="127" y="620" width="62" height="25"/><text class="j" x="137" y="637">integer</text></a><a xlink:href="#integer"><rect class="r" x="199" y="620" width="62" height="25"/><text class="j" x="209" y="637">integer</text></a><rect class="l" x="271" y="620" width="25" height="25" rx="7"/><text class="j" x="281" y="637">)</text><rect class="l" x="306" y="620" width="28" height="25" rx="7"/><text class="j" x="316" y="637">»</text><a xlink:href="#integer"><rect class="r" x="344" y="620" width="62" height="25"/><text class="j" x="354" y="637">integer</text></a><a xlink:href="#fixed-decimal"><rect class="r" x="127" y="650" width="98" height="25"/><text class="j" x="137" y="667">fixed-decimal</text></a><a xlink:href="#integer"><rect class="r" x="235" y="650" width="62" height="25"/><text class="j" x="245" y="667">integer</text></a><rect class="l" x="307" y="650" width="25" height="25" rx="7"/><text class="j" x="317" y="667">)</text><rect class="l" x="342" y="650" width="28" height="25" rx="7"/><text class="j" x="352" y="667">»</text><a xlink:href="#fixed-decimal"><rect class="r" x="380" y="650" width="98" height="25"/><text class="j" x="390" y="667">fixed-decimal</text></a><rect class="l" x="25" y="680" width="25" height="25" rx="7"/><text class="j" x="35" y="697">(</text><rect class="l" x="60" y="680" width="46" height="25" rx="7"/><text class="j" x="70" y="697">expt</text><a xlink:href="#integer"><rect class="r" x="116" y="680" width="62" height="25"/><text class="j" x="126" y="697">integer</text></a><a xlink:href="#integer"><rect class="r" x="188" y="680" width="62" height="25"/><text class="j" x="198" y="697">integer</text></a><rect class="l" x="260" y="680" width="25" height="25" rx="7"/><text class="j" x="270" y="697">)</text><rect class="l" x="295" y="680" width="28" height="25" rx="7"/><text class="j" x="305" y="697">»</text><a xlink:href="#integer"><rect class="r" x="333" y="680" width="62" height="25"/><text class="j" x="343" y="697">integer</text></a><rect class="l" x="25" y="710" width="25" height="25" rx="7"/><text class="j" x="35" y="727">(</text><rect class="l" x="60" y="710" width="37" height="25" rx="7"/><text class="j" x="70" y="727">inc</text><a xlink:href="#integer"><rect class="r" x="107" y="710" width="62" height="25"/><text class="j" x="117" y="727">integer</text></a><rect class="l" x="179" y="710" width="25" height="25" rx="7"/><text class="j" x="189" y="727">)</text><rect class="l" x="214" y="710" width="28" height="25" rx="7"/><text class="j" x="224" y="727">»</text><a xlink:href="#integer"><rect class="r" x="252" y="710" width="62" height="25"/><text class="j" x="262" y="727">integer</text></a><rect class="l" x="25" y="740" width="25" height="25" rx="7"/><text class="j" x="35" y="757">(</text><rect class="l" x="60" y="740" width="46" height="25" rx="7"/><text class="j" x="70" y="757">mod</text><a xlink:href="#integer"><rect class="r" x="116" y="740" width="62" height="25"/><text class="j" x="126" y="757">integer</text></a><a xlink:href="#integer"><rect class="r" x="188" y="740" width="62" height="25"/><text class="j" x="198" y="757">integer</text></a><rect class="l" x="260" y="740" width="25" height="25" rx="7"/><text class="j" x="270" y="757">)</text><rect class="l" x="295" y="740" width="28" height="25" rx="7"/><text class="j" x="305" y="757">»</text><a xlink:href="#integer"><rect class="r" x="333" y="740" width="62" height="25"/><text class="j" x="343" y="757">integer</text></a><rect class="l" x="25" y="785" width="25" height="25" rx="7"/><text class="j" x="35" y="802">(</text><rect class="l" x="60" y="785" width="50" height="25" rx="7"/><text class="j" x="70" y="802">not=</text><a xlink:href="#value"><rect class="r" x="120" y="785" width="52" height="25"/><text class="j" x="130" y="802">value</text></a><a xlink:href="#value"><rect class="r" x="202" y="785" width="52" height="25"/><text class="j" x="212" y="802">value</text></a><rect class="l" x="284" y="785" width="25" height="25" rx="7"/><text class="j" x="294" y="802">)</text><rect class="l" x="319" y="785" width="28" height="25" rx="7"/><text class="j" x="329" y="802">»</text><a xlink:href="#boolean"><rect class="r" x="357" y="785" width="66" height="25"/><text class="j" x="367" y="802">boolean</text></a></svg>