<svg version="1.1" xmlns:xlink="http://www.w3.org/1999/xlink" xmlns="http://www.w3.org/2000/svg" width="600" height="791" viewbox="0 0 600 791"><defs><style type="text/css">.c{fill: none; stroke: #888888; stroke-width: 3pt;}.j{fill:#000000;font-family:Dialog,Sans-serif;font-size:12px;}.l{fill:#90d9ff;stroke:#222222;}.r{fill:#d3f0ff;stroke:#222222;}</style></defs><path class="c" d="M0 21h25m25 0h10m26 0h30m65 0h10m65 0h10m25 0h10m27 0h10m65 0h92m-394 0q5 0 5 5v19q0 5 5 5h5m101 0h10m65 0h10m25 0h10m27 0h10m101 0h5q5 0 5-5v-19q0-5 5-5m5 0h100m-580 68q0 5 5 5h5m25 0h10m30 0h30m65 0h30m-5 0q-5 0-5-5v-16q0-5 5-5h75q5 0 5 5v16q0 5-5 5m-5 0h30m25 0h10m27 0h10m65 0h128m-470 0q5 0 5 5v34q0 5 5 5h5m101 0h30m-5 0q-5 0-5-5v-16q0-5 5-5h111q5 0 5 5v16q0 5-5 5m-5 0h30m25 0h10m27 0h10m101 0h5q5 0 5-5v-34q0-5 5-5m5 0h5q5 0 5-5m-570 88q0 5 5 5h5m25 0h10m24 0h30m65 0h30m-5 0q-5 0-5-5v-16q0-5 5-5h75q5 0 5 5v16q0 5-5 5m-5 0h30m25 0h10m27 0h10m65 0h128m-470 0q5 0 5 5v34q0 5 5 5h5m101 0h30m-5 0q-5 0-5-5v-16q0-5 5-5h111q5 0 5 5v16q0 5-5 5m-5 0h30m25 0h10m27 0h10m101 0h5q5 0 5-5v-34q0-5 5-5m5 0h11q5 0 5-5m-570 73q0 5 5 5h5m25 0h10m30 0h30m65 0h10m65 0h92m-247 0q5 0 5 5v19q0 5 5 5h5m101 0h10m101 0h5q5 0 5-5v-19q0-5 5-5m5 0h10m25 0h10m27 0h10m71 0h75q5 0 5-5m-570 58q0 5 5 5h5m25 0h10m40 0h30m65 0h10m65 0h92m-247 0q5 0 5 5v19q0 5 5 5h5m101 0h10m101 0h5q5 0 5-5v-19q0-5 5-5m5 0h10m25 0h10m27 0h10m71 0h65q5 0 5-5m-570 73q0 5 5 5h5m25 0h10m30 0h10m53 0h30m-5 0q-5 0-5-5v-16q0-5 5-5h63q5 0 5 5v16q0 5-5 5m-5 0h30m25 0h10m27 0h10m71 0h171q5 0 5-5m-570 29q0 5 5 5h5m25 0h10m30 0h30m65 0h10m65 0h92m-247 0q5 0 5 5v19q0 5 5 5h5m101 0h10m101 0h5q5 0 5-5v-19q0-5 5-5m5 0h10m25 0h10m27 0h10m71 0h75q5 0 5-5m-570 58q0 5 5 5h5m25 0h10m40 0h30m65 0h10m65 0h92m-247 0q5 0 5 5v19q0 5 5 5h5m101 0h10m101 0h5q5 0 5-5v-19q0-5 5-5m5 0h10m25 0h10m27 0h10m71 0h65q5 0 5-5m-570 58q0 5 5 5h5m25 0h10m43 0h30m65 0h10m25 0h10m27 0h10m65 0h92m-319 0q5 0 5 5v19q0 5 5 5h5m101 0h10m25 0h10m27 0h10m101 0h5q5 0 5-5v-19q0-5 5-5m5 0h143q5 0 5-5m-570 58q0 5 5 5h5m25 0h10m43 0h10m65 0h10m25 0h10m27 0h10m65 0h255q5 0 5-5m-570 29q0 5 5 5h5m25 0h10m37 0h30m65 0h10m65 0h10m25 0h10m27 0h10m65 0h92m-394 0q5 0 5 5v19q0 5 5 5h5m101 0h10m65 0h10m25 0h10m27 0h10m101 0h5q5 0 5-5v-19q0-5 5-5m5 0h74q5 0 5-5m-570 58q0 5 5 5h5m25 0h10m47 0h10m65 0h10m65 0h10m25 0h10m27 0h10m65 0h176q5 0 5-5m-570 29q0 5 5 5h5m25 0h10m38 0h10m65 0h10m25 0h10m27 0h10m65 0h260q5 0 5-5m-570 29q0 5 5 5h5m25 0h10m47 0h10m65 0h10m65 0h10m25 0h10m27 0h10m65 0h176q5 0 5-5m-575-708q5 0 5 5v747q0 5 5 5h5m25 0h10m51 0h10m53 0h30m-5 0q-5 0-5-5v-16q0-5 5-5h63q5 0 5 5v16q0 5-5 5m-5 0h30m25 0h10m27 0h10m71 0h150q5 0 5-5v-747q0-5 5-5m5 0h5"/><rect class="l" x="25" y="5" width="25" height="24" rx="7"/><text class="j" x="35" y="21">(</text><rect class="l" x="60" y="5" width="26" height="24" rx="7"/><text class="j" x="70" y="21">*</text><a xlink:href="#integer"><rect class="r" x="116" y="5" width="65" height="24"/><text class="j" x="126" y="21">integer</text></a><a xlink:href="#integer"><rect class="r" x="191" y="5" width="65" height="24"/><text class="j" x="201" y="21">integer</text></a><rect class="l" x="266" y="5" width="25" height="24" rx="7"/><text class="j" x="276" y="21">)</text><rect class="l" x="301" y="5" width="27" height="24" rx="7"/><text class="j" x="311" y="21">»</text><a xlink:href="#integer"><rect class="r" x="338" y="5" width="65" height="24"/><text class="j" x="348" y="21">integer</text></a><a xlink:href="#fixed-decimal"><rect class="r" x="116" y="34" width="101" height="24"/><text class="j" x="126" y="50">fixed-decimal</text></a><a xlink:href="#integer"><rect class="r" x="227" y="34" width="65" height="24"/><text class="j" x="237" y="50">integer</text></a><rect class="l" x="302" y="34" width="25" height="24" rx="7"/><text class="j" x="312" y="50">)</text><rect class="l" x="337" y="34" width="27" height="24" rx="7"/><text class="j" x="347" y="50">»</text><a xlink:href="#fixed-decimal"><rect class="r" x="374" y="34" width="101" height="24"/><text class="j" x="384" y="50">fixed-decimal</text></a><rect class="l" x="25" y="78" width="25" height="24" rx="7"/><text class="j" x="35" y="94">(</text><rect class="l" x="60" y="78" width="30" height="24" rx="7"/><text class="j" x="70" y="94">+</text><a xlink:href="#integer"><rect class="r" x="120" y="78" width="65" height="24"/><text class="j" x="130" y="94">integer</text></a><a xlink:href="#integer"><rect class="r" x="215" y="78" width="65" height="24"/><text class="j" x="225" y="94">integer</text></a><rect class="l" x="310" y="78" width="25" height="24" rx="7"/><text class="j" x="320" y="94">)</text><rect class="l" x="345" y="78" width="27" height="24" rx="7"/><text class="j" x="355" y="94">»</text><a xlink:href="#integer"><rect class="r" x="382" y="78" width="65" height="24"/><text class="j" x="392" y="94">integer</text></a><a xlink:href="#fixed-decimal"><rect class="r" x="120" y="122" width="101" height="24"/><text class="j" x="130" y="138">fixed-decimal</text></a><a xlink:href="#fixed-decimal"><rect class="r" x="251" y="122" width="101" height="24"/><text class="j" x="261" y="138">fixed-decimal</text></a><rect class="l" x="382" y="122" width="25" height="24" rx="7"/><text class="j" x="392" y="138">)</text><rect class="l" x="417" y="122" width="27" height="24" rx="7"/><text class="j" x="427" y="138">»</text><a xlink:href="#fixed-decimal"><rect class="r" x="454" y="122" width="101" height="24"/><text class="j" x="464" y="138">fixed-decimal</text></a><rect class="l" x="25" y="166" width="25" height="24" rx="7"/><text class="j" x="35" y="182">(</text><rect class="l" x="60" y="166" width="24" height="24" rx="7"/><text class="j" x="70" y="182">-</text><a xlink:href="#integer"><rect class="r" x="114" y="166" width="65" height="24"/><text class="j" x="124" y="182">integer</text></a><a xlink:href="#integer"><rect class="r" x="209" y="166" width="65" height="24"/><text class="j" x="219" y="182">integer</text></a><rect class="l" x="304" y="166" width="25" height="24" rx="7"/><text class="j" x="314" y="182">)</text><rect class="l" x="339" y="166" width="27" height="24" rx="7"/><text class="j" x="349" y="182">»</text><a xlink:href="#integer"><rect class="r" x="376" y="166" width="65" height="24"/><text class="j" x="386" y="182">integer</text></a><a xlink:href="#fixed-decimal"><rect class="r" x="114" y="210" width="101" height="24"/><text class="j" x="124" y="226">fixed-decimal</text></a><a xlink:href="#fixed-decimal"><rect class="r" x="245" y="210" width="101" height="24"/><text class="j" x="255" y="226">fixed-decimal</text></a><rect class="l" x="376" y="210" width="25" height="24" rx="7"/><text class="j" x="386" y="226">)</text><rect class="l" x="411" y="210" width="27" height="24" rx="7"/><text class="j" x="421" y="226">»</text><a xlink:href="#fixed-decimal"><rect class="r" x="448" y="210" width="101" height="24"/><text class="j" x="458" y="226">fixed-decimal</text></a><rect class="l" x="25" y="239" width="25" height="24" rx="7"/><text class="j" x="35" y="255">(</text><rect class="l" x="60" y="239" width="30" height="24" rx="7"/><text class="j" x="70" y="255">&lt;</text><a xlink:href="#integer"><rect class="r" x="120" y="239" width="65" height="24"/><text class="j" x="130" y="255">integer</text></a><a xlink:href="#integer"><rect class="r" x="195" y="239" width="65" height="24"/><text class="j" x="205" y="255">integer</text></a><a xlink:href="#fixed-decimal"><rect class="r" x="120" y="268" width="101" height="24"/><text class="j" x="130" y="284">fixed-decimal</text></a><a xlink:href="#fixed-decimal"><rect class="r" x="231" y="268" width="101" height="24"/><text class="j" x="241" y="284">fixed-decimal</text></a><rect class="l" x="362" y="239" width="25" height="24" rx="7"/><text class="j" x="372" y="255">)</text><rect class="l" x="397" y="239" width="27" height="24" rx="7"/><text class="j" x="407" y="255">»</text><a xlink:href="#boolean"><rect class="r" x="434" y="239" width="71" height="24"/><text class="j" x="444" y="255">boolean</text></a><rect class="l" x="25" y="297" width="25" height="24" rx="7"/><text class="j" x="35" y="313">(</text><rect class="l" x="60" y="297" width="40" height="24" rx="7"/><text class="j" x="70" y="313">&lt;=</text><a xlink:href="#integer"><rect class="r" x="130" y="297" width="65" height="24"/><text class="j" x="140" y="313">integer</text></a><a xlink:href="#integer"><rect class="r" x="205" y="297" width="65" height="24"/><text class="j" x="215" y="313">integer</text></a><a xlink:href="#fixed-decimal"><rect class="r" x="130" y="326" width="101" height="24"/><text class="j" x="140" y="342">fixed-decimal</text></a><a xlink:href="#fixed-decimal"><rect class="r" x="241" y="326" width="101" height="24"/><text class="j" x="251" y="342">fixed-decimal</text></a><rect class="l" x="372" y="297" width="25" height="24" rx="7"/><text class="j" x="382" y="313">)</text><rect class="l" x="407" y="297" width="27" height="24" rx="7"/><text class="j" x="417" y="313">»</text><a xlink:href="#boolean"><rect class="r" x="444" y="297" width="71" height="24"/><text class="j" x="454" y="313">boolean</text></a><rect class="l" x="25" y="370" width="25" height="24" rx="7"/><text class="j" x="35" y="386">(</text><rect class="l" x="60" y="370" width="30" height="24" rx="7"/><text class="j" x="70" y="386">=</text><a xlink:href="#value"><rect class="r" x="100" y="370" width="53" height="24"/><text class="j" x="110" y="386">value</text></a><a xlink:href="#value"><rect class="r" x="183" y="370" width="53" height="24"/><text class="j" x="193" y="386">value</text></a><rect class="l" x="266" y="370" width="25" height="24" rx="7"/><text class="j" x="276" y="386">)</text><rect class="l" x="301" y="370" width="27" height="24" rx="7"/><text class="j" x="311" y="386">»</text><a xlink:href="#boolean"><rect class="r" x="338" y="370" width="71" height="24"/><text class="j" x="348" y="386">boolean</text></a><rect class="l" x="25" y="399" width="25" height="24" rx="7"/><text class="j" x="35" y="415">(</text><rect class="l" x="60" y="399" width="30" height="24" rx="7"/><text class="j" x="70" y="415">&gt;</text><a xlink:href="#integer"><rect class="r" x="120" y="399" width="65" height="24"/><text class="j" x="130" y="415">integer</text></a><a xlink:href="#integer"><rect class="r" x="195" y="399" width="65" height="24"/><text class="j" x="205" y="415">integer</text></a><a xlink:href="#fixed-decimal"><rect class="r" x="120" y="428" width="101" height="24"/><text class="j" x="130" y="444">fixed-decimal</text></a><a xlink:href="#fixed-decimal"><rect class="r" x="231" y="428" width="101" height="24"/><text class="j" x="241" y="444">fixed-decimal</text></a><rect class="l" x="362" y="399" width="25" height="24" rx="7"/><text class="j" x="372" y="415">)</text><rect class="l" x="397" y="399" width="27" height="24" rx="7"/><text class="j" x="407" y="415">»</text><a xlink:href="#boolean"><rect class="r" x="434" y="399" width="71" height="24"/><text class="j" x="444" y="415">boolean</text></a><rect class="l" x="25" y="457" width="25" height="24" rx="7"/><text class="j" x="35" y="473">(</text><rect class="l" x="60" y="457" width="40" height="24" rx="7"/><text class="j" x="70" y="473">&gt;=</text><a xlink:href="#integer"><rect class="r" x="130" y="457" width="65" height="24"/><text class="j" x="140" y="473">integer</text></a><a xlink:href="#integer"><rect class="r" x="205" y="457" width="65" height="24"/><text class="j" x="215" y="473">integer</text></a><a xlink:href="#fixed-decimal"><rect class="r" x="130" y="486" width="101" height="24"/><text class="j" x="140" y="502">fixed-decimal</text></a><a xlink:href="#fixed-decimal"><rect class="r" x="241" y="486" width="101" height="24"/><text class="j" x="251" y="502">fixed-decimal</text></a><rect class="l" x="372" y="457" width="25" height="24" rx="7"/><text class="j" x="382" y="473">)</text><rect class="l" x="407" y="457" width="27" height="24" rx="7"/><text class="j" x="417" y="473">»</text><a xlink:href="#boolean"><rect class="r" x="444" y="457" width="71" height="24"/><text class="j" x="454" y="473">boolean</text></a><rect class="l" x="25" y="515" width="25" height="24" rx="7"/><text class="j" x="35" y="531">(</text><rect class="l" x="60" y="515" width="43" height="24" rx="7"/><text class="j" x="70" y="531">abs</text><a xlink:href="#integer"><rect class="r" x="133" y="515" width="65" height="24"/><text class="j" x="143" y="531">integer</text></a><rect class="l" x="208" y="515" width="25" height="24" rx="7"/><text class="j" x="218" y="531">)</text><rect class="l" x="243" y="515" width="27" height="24" rx="7"/><text class="j" x="253" y="531">»</text><a xlink:href="#integer"><rect class="r" x="280" y="515" width="65" height="24"/><text class="j" x="290" y="531">integer</text></a><a xlink:href="#fixed-decimal"><rect class="r" x="133" y="544" width="101" height="24"/><text class="j" x="143" y="560">fixed-decimal</text></a><rect class="l" x="244" y="544" width="25" height="24" rx="7"/><text class="j" x="254" y="560">)</text><rect class="l" x="279" y="544" width="27" height="24" rx="7"/><text class="j" x="289" y="560">»</text><a xlink:href="#fixed-decimal"><rect class="r" x="316" y="544" width="101" height="24"/><text class="j" x="326" y="560">fixed-decimal</text></a><rect class="l" x="25" y="573" width="25" height="24" rx="7"/><text class="j" x="35" y="589">(</text><rect class="l" x="60" y="573" width="43" height="24" rx="7"/><text class="j" x="70" y="589">dec</text><a xlink:href="#integer"><rect class="r" x="113" y="573" width="65" height="24"/><text class="j" x="123" y="589">integer</text></a><rect class="l" x="188" y="573" width="25" height="24" rx="7"/><text class="j" x="198" y="589">)</text><rect class="l" x="223" y="573" width="27" height="24" rx="7"/><text class="j" x="233" y="589">»</text><a xlink:href="#integer"><rect class="r" x="260" y="573" width="65" height="24"/><text class="j" x="270" y="589">integer</text></a><rect class="l" x="25" y="602" width="25" height="24" rx="7"/><text class="j" x="35" y="618">(</text><rect class="l" x="60" y="602" width="37" height="24" rx="7"/><text class="j" x="70" y="618">div</text><a xlink:href="#integer"><rect class="r" x="127" y="602" width="65" height="24"/><text class="j" x="137" y="618">integer</text></a><a xlink:href="#integer"><rect class="r" x="202" y="602" width="65" height="24"/><text class="j" x="212" y="618">integer</text></a><rect class="l" x="277" y="602" width="25" height="24" rx="7"/><text class="j" x="287" y="618">)</text><rect class="l" x="312" y="602" width="27" height="24" rx="7"/><text class="j" x="322" y="618">»</text><a xlink:href="#integer"><rect class="r" x="349" y="602" width="65" height="24"/><text class="j" x="359" y="618">integer</text></a><a xlink:href="#fixed-decimal"><rect class="r" x="127" y="631" width="101" height="24"/><text class="j" x="137" y="647">fixed-decimal</text></a><a xlink:href="#integer"><rect class="r" x="238" y="631" width="65" height="24"/><text class="j" x="248" y="647">integer</text></a><rect class="l" x="313" y="631" width="25" height="24" rx="7"/><text class="j" x="323" y="647">)</text><rect class="l" x="348" y="631" width="27" height="24" rx="7"/><text class="j" x="358" y="647">»</text><a xlink:href="#fixed-decimal"><rect class="r" x="385" y="631" width="101" height="24"/><text class="j" x="395" y="647">fixed-decimal</text></a><rect class="l" x="25" y="660" width="25" height="24" rx="7"/><text class="j" x="35" y="676">(</text><rect class="l" x="60" y="660" width="47" height="24" rx="7"/><text class="j" x="70" y="676">expt</text><a xlink:href="#integer"><rect class="r" x="117" y="660" width="65" height="24"/><text class="j" x="127" y="676">integer</text></a><a xlink:href="#integer"><rect class="r" x="192" y="660" width="65" height="24"/><text class="j" x="202" y="676">integer</text></a><rect class="l" x="267" y="660" width="25" height="24" rx="7"/><text class="j" x="277" y="676">)</text><rect class="l" x="302" y="660" width="27" height="24" rx="7"/><text class="j" x="312" y="676">»</text><a xlink:href="#integer"><rect class="r" x="339" y="660" width="65" height="24"/><text class="j" x="349" y="676">integer</text></a><rect class="l" x="25" y="689" width="25" height="24" rx="7"/><text class="j" x="35" y="705">(</text><rect class="l" x="60" y="689" width="38" height="24" rx="7"/><text class="j" x="70" y="705">inc</text><a xlink:href="#integer"><rect class="r" x="108" y="689" width="65" height="24"/><text class="j" x="118" y="705">integer</text></a><rect class="l" x="183" y="689" width="25" height="24" rx="7"/><text class="j" x="193" y="705">)</text><rect class="l" x="218" y="689" width="27" height="24" rx="7"/><text class="j" x="228" y="705">»</text><a xlink:href="#integer"><rect class="r" x="255" y="689" width="65" height="24"/><text class="j" x="265" y="705">integer</text></a><rect class="l" x="25" y="718" width="25" height="24" rx="7"/><text class="j" x="35" y="734">(</text><rect class="l" x="60" y="718" width="47" height="24" rx="7"/><text class="j" x="70" y="734">mod</text><a xlink:href="#integer"><rect class="r" x="117" y="718" width="65" height="24"/><text class="j" x="127" y="734">integer</text></a><a xlink:href="#integer"><rect class="r" x="192" y="718" width="65" height="24"/><text class="j" x="202" y="734">integer</text></a><rect class="l" x="267" y="718" width="25" height="24" rx="7"/><text class="j" x="277" y="734">)</text><rect class="l" x="302" y="718" width="27" height="24" rx="7"/><text class="j" x="312" y="734">»</text><a xlink:href="#integer"><rect class="r" x="339" y="718" width="65" height="24"/><text class="j" x="349" y="734">integer</text></a><rect class="l" x="25" y="762" width="25" height="24" rx="7"/><text class="j" x="35" y="778">(</text><rect class="l" x="60" y="762" width="51" height="24" rx="7"/><text class="j" x="70" y="778">not=</text><a xlink:href="#value"><rect class="r" x="121" y="762" width="53" height="24"/><text class="j" x="131" y="778">value</text></a><a xlink:href="#value"><rect class="r" x="204" y="762" width="53" height="24"/><text class="j" x="214" y="778">value</text></a><rect class="l" x="287" y="762" width="25" height="24" rx="7"/><text class="j" x="297" y="778">)</text><rect class="l" x="322" y="762" width="27" height="24" rx="7"/><text class="j" x="332" y="778">»</text><a xlink:href="#boolean"><rect class="r" x="359" y="762" width="71" height="24"/><text class="j" x="369" y="778">boolean</text></a></svg>