<svg version="1.1" xmlns:xlink="http://www.w3.org/1999/xlink" xmlns="http://www.w3.org/2000/svg" width="594" height="527" viewbox="0 0 594 527"><defs><style type="text/css">.c{fill: none; stroke: #888888; stroke-width: 3pt;}.i{fill:#000000;font-family:Dialog,Sans-serif;font-size:12px;}.l{fill:#90d9ff;stroke:#222222;}.r{fill:#d3f0ff;stroke:#222222;}</style></defs><path class="c" d="M0 21h25m65 0h10m31 0h10m65 0h10m27 0h10m65 0h271m-574 24q0 5 5 5h5m65 0h10m26 0h10m65 0h10m27 0h10m65 0h261q5 0 5-5m-564 29q0 5 5 5h5m101 0h10m26 0h10m65 0h10m27 0h10m101 0h189q5 0 5-5m-564 29q0 5 5 5h5m65 0h10m30 0h10m65 0h10m27 0h10m65 0h257q5 0 5-5m-564 29q0 5 5 5h5m101 0h10m30 0h10m101 0h10m27 0h10m101 0h149q5 0 5-5m-564 29q0 5 5 5h5m65 0h10m24 0h10m65 0h10m27 0h10m65 0h263q5 0 5-5m-564 29q0 5 5 5h5m101 0h10m24 0h10m101 0h10m27 0h10m101 0h155q5 0 5-5m-564 29q0 5 5 5h5m65 0h10m24 0h10m65 0h10m27 0h10m65 0h263q5 0 5-5m-564 29q0 5 5 5h5m101 0h10m24 0h10m65 0h10m27 0h10m101 0h191q5 0 5-5m-564 29q0 5 5 5h5m43 0h10m25 0h10m65 0h10m25 0h10m27 0h10m65 0h249q5 0 5-5m-564 29q0 5 5 5h5m43 0h10m25 0h10m101 0h10m25 0h10m27 0h10m101 0h177q5 0 5-5m-564 29q0 5 5 5h25m40 0h39m-94 0q5 0 5 5v19q0 5 5 5h5m59 0h5q5 0 5-5v-19q0-5 5-5m5 0h10m24 0h10m66 0h10m27 0h10m65 0h228q5 0 5-5m-564 58q0 5 5 5h5m65 0h10m24 0h10m28 0h10m27 0h10m65 0h300q5 0 5-5m-564 29q0 5 5 5h5m47 0h10m25 0h10m65 0h10m24 0h10m65 0h10m25 0h10m27 0h10m65 0h136q5 0 5-5m-564 29q0 5 5 5h5m65 0h10m30 0h10m28 0h10m27 0h10m65 0h294q5 0 5-5m-569-430q5 0 5 5v454q0 5 5 5h5m66 0h10m25 0h10m101 0h10m24 0h10m65 0h10m25 0h10m27 0h30m101 0h20m-136 0q5 0 5 5v19q0 5 5 5h5m65 0h41q5 0 5-5v-19q0-5 5-5m5 0h5q5 0 5-5v-454q0-5 5-5m5 0h5"/><a xlink:href="#integer"><rect class="r" x="25" y="5" width="65" height="24"/><text class="i" x="35" y="21">integer</text></a><rect class="l" x="100" y="5" width="31" height="24" rx="7"/><text class="i" x="110" y="21">%</text><a xlink:href="#integer"><rect class="r" x="141" y="5" width="65" height="24"/><text class="i" x="151" y="21">integer</text></a><rect class="l" x="216" y="5" width="27" height="24" rx="7"/><text class="i" x="226" y="21">»</text><a xlink:href="#integer"><rect class="r" x="253" y="5" width="65" height="24"/><text class="i" x="263" y="21">integer</text></a><a xlink:href="#integer"><rect class="r" x="25" y="34" width="65" height="24"/><text class="i" x="35" y="50">integer</text></a><rect class="l" x="100" y="34" width="26" height="24" rx="7"/><text class="i" x="110" y="50">*</text><a xlink:href="#integer"><rect class="r" x="136" y="34" width="65" height="24"/><text class="i" x="146" y="50">integer</text></a><rect class="l" x="211" y="34" width="27" height="24" rx="7"/><text class="i" x="221" y="50">»</text><a xlink:href="#integer"><rect class="r" x="248" y="34" width="65" height="24"/><text class="i" x="258" y="50">integer</text></a><a xlink:href="#fixed-decimal"><rect class="r" x="25" y="63" width="101" height="24"/><text class="i" x="35" y="79">fixed-decimal</text></a><rect class="l" x="136" y="63" width="26" height="24" rx="7"/><text class="i" x="146" y="79">*</text><a xlink:href="#integer"><rect class="r" x="172" y="63" width="65" height="24"/><text class="i" x="182" y="79">integer</text></a><rect class="l" x="247" y="63" width="27" height="24" rx="7"/><text class="i" x="257" y="79">»</text><a xlink:href="#fixed-decimal"><rect class="r" x="284" y="63" width="101" height="24"/><text class="i" x="294" y="79">fixed-decimal</text></a><a xlink:href="#integer"><rect class="r" x="25" y="92" width="65" height="24"/><text class="i" x="35" y="108">integer</text></a><rect class="l" x="100" y="92" width="30" height="24" rx="7"/><text class="i" x="110" y="108">+</text><a xlink:href="#integer"><rect class="r" x="140" y="92" width="65" height="24"/><text class="i" x="150" y="108">integer</text></a><rect class="l" x="215" y="92" width="27" height="24" rx="7"/><text class="i" x="225" y="108">»</text><a xlink:href="#integer"><rect class="r" x="252" y="92" width="65" height="24"/><text class="i" x="262" y="108">integer</text></a><a xlink:href="#fixed-decimal"><rect class="r" x="25" y="121" width="101" height="24"/><text class="i" x="35" y="137">fixed-decimal</text></a><rect class="l" x="136" y="121" width="30" height="24" rx="7"/><text class="i" x="146" y="137">+</text><a xlink:href="#fixed-decimal"><rect class="r" x="176" y="121" width="101" height="24"/><text class="i" x="186" y="137">fixed-decimal</text></a><rect class="l" x="287" y="121" width="27" height="24" rx="7"/><text class="i" x="297" y="137">»</text><a xlink:href="#fixed-decimal"><rect class="r" x="324" y="121" width="101" height="24"/><text class="i" x="334" y="137">fixed-decimal</text></a><a xlink:href="#integer"><rect class="r" x="25" y="150" width="65" height="24"/><text class="i" x="35" y="166">integer</text></a><rect class="l" x="100" y="150" width="24" height="24" rx="7"/><text class="i" x="110" y="166">-</text><a xlink:href="#integer"><rect class="r" x="134" y="150" width="65" height="24"/><text class="i" x="144" y="166">integer</text></a><rect class="l" x="209" y="150" width="27" height="24" rx="7"/><text class="i" x="219" y="166">»</text><a xlink:href="#integer"><rect class="r" x="246" y="150" width="65" height="24"/><text class="i" x="256" y="166">integer</text></a><a xlink:href="#fixed-decimal"><rect class="r" x="25" y="179" width="101" height="24"/><text class="i" x="35" y="195">fixed-decimal</text></a><rect class="l" x="136" y="179" width="24" height="24" rx="7"/><text class="i" x="146" y="195">-</text><a xlink:href="#fixed-decimal"><rect class="r" x="170" y="179" width="101" height="24"/><text class="i" x="180" y="195">fixed-decimal</text></a><rect class="l" x="281" y="179" width="27" height="24" rx="7"/><text class="i" x="291" y="195">»</text><a xlink:href="#fixed-decimal"><rect class="r" x="318" y="179" width="101" height="24"/><text class="i" x="328" y="195">fixed-decimal</text></a><a xlink:href="#integer"><rect class="r" x="25" y="208" width="65" height="24"/><text class="i" x="35" y="224">integer</text></a><rect class="l" x="100" y="208" width="24" height="24" rx="7"/><text class="i" x="110" y="224">/</text><a xlink:href="#integer"><rect class="r" x="134" y="208" width="65" height="24"/><text class="i" x="144" y="224">integer</text></a><rect class="l" x="209" y="208" width="27" height="24" rx="7"/><text class="i" x="219" y="224">»</text><a xlink:href="#integer"><rect class="r" x="246" y="208" width="65" height="24"/><text class="i" x="256" y="224">integer</text></a><a xlink:href="#fixed-decimal"><rect class="r" x="25" y="237" width="101" height="24"/><text class="i" x="35" y="253">fixed-decimal</text></a><rect class="l" x="136" y="237" width="24" height="24" rx="7"/><text class="i" x="146" y="253">/</text><a xlink:href="#integer"><rect class="r" x="170" y="237" width="65" height="24"/><text class="i" x="180" y="253">integer</text></a><rect class="l" x="245" y="237" width="27" height="24" rx="7"/><text class="i" x="255" y="253">»</text><a xlink:href="#fixed-decimal"><rect class="r" x="282" y="237" width="101" height="24"/><text class="i" x="292" y="253">fixed-decimal</text></a><rect class="l" x="25" y="266" width="43" height="24" rx="7"/><text class="i" x="35" y="282">abs</text><rect class="l" x="78" y="266" width="25" height="24" rx="7"/><text class="i" x="88" y="282">(</text><a xlink:href="#integer"><rect class="r" x="113" y="266" width="65" height="24"/><text class="i" x="123" y="282">integer</text></a><rect class="l" x="188" y="266" width="25" height="24" rx="7"/><text class="i" x="198" y="282">)</text><rect class="l" x="223" y="266" width="27" height="24" rx="7"/><text class="i" x="233" y="282">»</text><a xlink:href="#integer"><rect class="r" x="260" y="266" width="65" height="24"/><text class="i" x="270" y="282">integer</text></a><rect class="l" x="25" y="295" width="43" height="24" rx="7"/><text class="i" x="35" y="311">abs</text><rect class="l" x="78" y="295" width="25" height="24" rx="7"/><text class="i" x="88" y="311">(</text><a xlink:href="#fixed-decimal"><rect class="r" x="113" y="295" width="101" height="24"/><text class="i" x="123" y="311">fixed-decimal</text></a><rect class="l" x="224" y="295" width="25" height="24" rx="7"/><text class="i" x="234" y="311">)</text><rect class="l" x="259" y="295" width="27" height="24" rx="7"/><text class="i" x="269" y="311">»</text><a xlink:href="#fixed-decimal"><rect class="r" x="296" y="295" width="101" height="24"/><text class="i" x="306" y="311">fixed-decimal</text></a><a xlink:href="#set"><rect class="r" x="45" y="324" width="40" height="24"/><text class="i" x="55" y="340">set</text></a><a xlink:href="#vector"><rect class="r" x="45" y="353" width="59" height="24"/><text class="i" x="55" y="369">vector</text></a><rect class="l" x="134" y="324" width="24" height="24" rx="7"/><text class="i" x="144" y="340">.</text><rect class="l" x="168" y="324" width="66" height="24" rx="7"/><text class="i" x="178" y="340">count()</text><rect class="l" x="244" y="324" width="27" height="24" rx="7"/><text class="i" x="254" y="340">»</text><a xlink:href="#integer"><rect class="r" x="281" y="324" width="65" height="24"/><text class="i" x="291" y="340">integer</text></a><a xlink:href="#integer"><rect class="r" x="25" y="382" width="65" height="24"/><text class="i" x="35" y="398">integer</text></a><rect class="l" x="100" y="382" width="24" height="24" rx="7"/><text class="i" x="110" y="398">-</text><rect class="l" x="134" y="382" width="28" height="24" rx="7"/><text class="i" x="144" y="398">1</text><rect class="l" x="172" y="382" width="27" height="24" rx="7"/><text class="i" x="182" y="398">»</text><a xlink:href="#integer"><rect class="r" x="209" y="382" width="65" height="24"/><text class="i" x="219" y="398">integer</text></a><rect class="l" x="25" y="411" width="47" height="24" rx="7"/><text class="i" x="35" y="427">expt</text><rect class="l" x="82" y="411" width="25" height="24" rx="7"/><text class="i" x="92" y="427">(</text><a xlink:href="#integer"><rect class="r" x="117" y="411" width="65" height="24"/><text class="i" x="127" y="427">integer</text></a><rect class="l" x="192" y="411" width="24" height="24" rx="7"/><text class="i" x="202" y="427">,</text><a xlink:href="#integer"><rect class="r" x="226" y="411" width="65" height="24"/><text class="i" x="236" y="427">integer</text></a><rect class="l" x="301" y="411" width="25" height="24" rx="7"/><text class="i" x="311" y="427">)</text><rect class="l" x="336" y="411" width="27" height="24" rx="7"/><text class="i" x="346" y="427">»</text><a xlink:href="#integer"><rect class="r" x="373" y="411" width="65" height="24"/><text class="i" x="383" y="427">integer</text></a><a xlink:href="#integer"><rect class="r" x="25" y="440" width="65" height="24"/><text class="i" x="35" y="456">integer</text></a><rect class="l" x="100" y="440" width="30" height="24" rx="7"/><text class="i" x="110" y="456">+</text><rect class="l" x="140" y="440" width="28" height="24" rx="7"/><text class="i" x="150" y="456">1</text><rect class="l" x="178" y="440" width="27" height="24" rx="7"/><text class="i" x="188" y="456">»</text><a xlink:href="#integer"><rect class="r" x="215" y="440" width="65" height="24"/><text class="i" x="225" y="456">integer</text></a><rect class="l" x="25" y="469" width="66" height="24" rx="7"/><text class="i" x="35" y="485">rescale</text><rect class="l" x="101" y="469" width="25" height="24" rx="7"/><text class="i" x="111" y="485">(</text><a xlink:href="#fixed-decimal"><rect class="r" x="136" y="469" width="101" height="24"/><text class="i" x="146" y="485">fixed-decimal</text></a><rect class="l" x="247" y="469" width="24" height="24" rx="7"/><text class="i" x="257" y="485">,</text><a xlink:href="#integer"><rect class="r" x="281" y="469" width="65" height="24"/><text class="i" x="291" y="485">integer</text></a><rect class="l" x="356" y="469" width="25" height="24" rx="7"/><text class="i" x="366" y="485">)</text><rect class="l" x="391" y="469" width="27" height="24" rx="7"/><text class="i" x="401" y="485">»</text><a xlink:href="#fixed-decimal"><rect class="r" x="448" y="469" width="101" height="24"/><text class="i" x="458" y="485">fixed-decimal</text></a><a xlink:href="#integer"><rect class="r" x="448" y="498" width="65" height="24"/><text class="i" x="458" y="514">integer</text></a></svg>