<svg version="1.1" xmlns:xlink="http://www.w3.org/1999/xlink" xmlns="http://www.w3.org/2000/svg" width="581" height="545" viewbox="0 0 581 545"><defs><style type="text/css">.c{fill: none; stroke: #888888; stroke-width: 2px;}.i{fill:#000000;font-family:Verdana,Sans-serif;font-size:12px;}.l{fill:#90d9ff;stroke:#222222;}.r{fill:#d3f0ff;stroke:#222222;}</style></defs><path class="c" d="M0 18h25m62 0h10m33 0h10m62 0h10m28 0h10m62 0h264m-561 25q0 5 5 5h5m62 0h10m28 0h10m62 0h10m28 0h10m62 0h254q5 0 5-5m-551 30q0 5 5 5h5m98 0h10m28 0h10m62 0h10m28 0h10m98 0h182q5 0 5-5m-551 30q0 5 5 5h5m62 0h10m30 0h10m62 0h10m28 0h10m62 0h252q5 0 5-5m-551 30q0 5 5 5h5m98 0h10m30 0h10m98 0h10m28 0h10m98 0h144q5 0 5-5m-551 30q0 5 5 5h5m62 0h10m25 0h10m62 0h10m28 0h10m62 0h257q5 0 5-5m-551 30q0 5 5 5h5m98 0h10m25 0h10m98 0h10m28 0h10m98 0h149q5 0 5-5m-551 30q0 5 5 5h5m62 0h10m25 0h10m62 0h10m28 0h10m62 0h257q5 0 5-5m-551 30q0 5 5 5h5m98 0h10m25 0h10m62 0h10m28 0h10m98 0h185q5 0 5-5m-551 30q0 5 5 5h5m40 0h10m25 0h10m62 0h10m25 0h10m28 0h10m62 0h244q5 0 5-5m-551 30q0 5 5 5h5m40 0h10m25 0h10m98 0h10m25 0h10m28 0h10m98 0h172q5 0 5-5m-551 30q0 5 5 5h25m38 0h39m-92 0q5 0 5 5v20q0 5 5 5h5m57 0h5q5 0 5-5v-20q0-5 5-5m5 0h10m24 0h10m64 0h10m28 0h10m62 0h221q5 0 5-5m-551 60q0 5 5 5h5m62 0h10m25 0h10m28 0h10m28 0h10m62 0h291q5 0 5-5m-551 30q0 5 5 5h5m46 0h10m25 0h10m62 0h10m24 0h10m62 0h10m25 0h10m28 0h10m62 0h132q5 0 5-5m-551 30q0 5 5 5h5m62 0h10m30 0h10m28 0h10m28 0h10m62 0h286q5 0 5-5m-556-445q5 0 5 5v470q0 5 5 5h5m61 0h10m25 0h10m98 0h10m24 0h10m62 0h10m25 0h10m28 0h30m98 0h20m-133 0q5 0 5 5v20q0 5 5 5h5m62 0h41q5 0 5-5v-20q0-5 5-5m5 0h5q5 0 5-5v-470q0-5 5-5m5 0h5"/><a xlink:href="#integer"><rect class="r" x="25" y="5" width="62" height="25"/><text class="i" x="35" y="22">integer</text></a><rect class="l" x="97" y="5" width="33" height="25" rx="7"/><text class="i" x="107" y="22">%</text><a xlink:href="#integer"><rect class="r" x="140" y="5" width="62" height="25"/><text class="i" x="150" y="22">integer</text></a><rect class="l" x="212" y="5" width="28" height="25" rx="7"/><text class="i" x="222" y="22">»</text><a xlink:href="#integer"><rect class="r" x="250" y="5" width="62" height="25"/><text class="i" x="260" y="22">integer</text></a><a xlink:href="#integer"><rect class="r" x="25" y="35" width="62" height="25"/><text class="i" x="35" y="52">integer</text></a><rect class="l" x="97" y="35" width="28" height="25" rx="7"/><text class="i" x="107" y="52">*</text><a xlink:href="#integer"><rect class="r" x="135" y="35" width="62" height="25"/><text class="i" x="145" y="52">integer</text></a><rect class="l" x="207" y="35" width="28" height="25" rx="7"/><text class="i" x="217" y="52">»</text><a xlink:href="#integer"><rect class="r" x="245" y="35" width="62" height="25"/><text class="i" x="255" y="52">integer</text></a><a xlink:href="#fixed-decimal"><rect class="r" x="25" y="65" width="98" height="25"/><text class="i" x="35" y="82">fixed-decimal</text></a><rect class="l" x="133" y="65" width="28" height="25" rx="7"/><text class="i" x="143" y="82">*</text><a xlink:href="#integer"><rect class="r" x="171" y="65" width="62" height="25"/><text class="i" x="181" y="82">integer</text></a><rect class="l" x="243" y="65" width="28" height="25" rx="7"/><text class="i" x="253" y="82">»</text><a xlink:href="#fixed-decimal"><rect class="r" x="281" y="65" width="98" height="25"/><text class="i" x="291" y="82">fixed-decimal</text></a><a xlink:href="#integer"><rect class="r" x="25" y="95" width="62" height="25"/><text class="i" x="35" y="112">integer</text></a><rect class="l" x="97" y="95" width="30" height="25" rx="7"/><text class="i" x="107" y="112">+</text><a xlink:href="#integer"><rect class="r" x="137" y="95" width="62" height="25"/><text class="i" x="147" y="112">integer</text></a><rect class="l" x="209" y="95" width="28" height="25" rx="7"/><text class="i" x="219" y="112">»</text><a xlink:href="#integer"><rect class="r" x="247" y="95" width="62" height="25"/><text class="i" x="257" y="112">integer</text></a><a xlink:href="#fixed-decimal"><rect class="r" x="25" y="125" width="98" height="25"/><text class="i" x="35" y="142">fixed-decimal</text></a><rect class="l" x="133" y="125" width="30" height="25" rx="7"/><text class="i" x="143" y="142">+</text><a xlink:href="#fixed-decimal"><rect class="r" x="173" y="125" width="98" height="25"/><text class="i" x="183" y="142">fixed-decimal</text></a><rect class="l" x="281" y="125" width="28" height="25" rx="7"/><text class="i" x="291" y="142">»</text><a xlink:href="#fixed-decimal"><rect class="r" x="319" y="125" width="98" height="25"/><text class="i" x="329" y="142">fixed-decimal</text></a><a xlink:href="#integer"><rect class="r" x="25" y="155" width="62" height="25"/><text class="i" x="35" y="172">integer</text></a><rect class="l" x="97" y="155" width="25" height="25" rx="7"/><text class="i" x="107" y="172">-</text><a xlink:href="#integer"><rect class="r" x="132" y="155" width="62" height="25"/><text class="i" x="142" y="172">integer</text></a><rect class="l" x="204" y="155" width="28" height="25" rx="7"/><text class="i" x="214" y="172">»</text><a xlink:href="#integer"><rect class="r" x="242" y="155" width="62" height="25"/><text class="i" x="252" y="172">integer</text></a><a xlink:href="#fixed-decimal"><rect class="r" x="25" y="185" width="98" height="25"/><text class="i" x="35" y="202">fixed-decimal</text></a><rect class="l" x="133" y="185" width="25" height="25" rx="7"/><text class="i" x="143" y="202">-</text><a xlink:href="#fixed-decimal"><rect class="r" x="168" y="185" width="98" height="25"/><text class="i" x="178" y="202">fixed-decimal</text></a><rect class="l" x="276" y="185" width="28" height="25" rx="7"/><text class="i" x="286" y="202">»</text><a xlink:href="#fixed-decimal"><rect class="r" x="314" y="185" width="98" height="25"/><text class="i" x="324" y="202">fixed-decimal</text></a><a xlink:href="#integer"><rect class="r" x="25" y="215" width="62" height="25"/><text class="i" x="35" y="232">integer</text></a><rect class="l" x="97" y="215" width="25" height="25" rx="7"/><text class="i" x="107" y="232">/</text><a xlink:href="#integer"><rect class="r" x="132" y="215" width="62" height="25"/><text class="i" x="142" y="232">integer</text></a><rect class="l" x="204" y="215" width="28" height="25" rx="7"/><text class="i" x="214" y="232">»</text><a xlink:href="#integer"><rect class="r" x="242" y="215" width="62" height="25"/><text class="i" x="252" y="232">integer</text></a><a xlink:href="#fixed-decimal"><rect class="r" x="25" y="245" width="98" height="25"/><text class="i" x="35" y="262">fixed-decimal</text></a><rect class="l" x="133" y="245" width="25" height="25" rx="7"/><text class="i" x="143" y="262">/</text><a xlink:href="#integer"><rect class="r" x="168" y="245" width="62" height="25"/><text class="i" x="178" y="262">integer</text></a><rect class="l" x="240" y="245" width="28" height="25" rx="7"/><text class="i" x="250" y="262">»</text><a xlink:href="#fixed-decimal"><rect class="r" x="278" y="245" width="98" height="25"/><text class="i" x="288" y="262">fixed-decimal</text></a><rect class="l" x="25" y="275" width="40" height="25" rx="7"/><text class="i" x="35" y="292">abs</text><rect class="l" x="75" y="275" width="25" height="25" rx="7"/><text class="i" x="85" y="292">(</text><a xlink:href="#integer"><rect class="r" x="110" y="275" width="62" height="25"/><text class="i" x="120" y="292">integer</text></a><rect class="l" x="182" y="275" width="25" height="25" rx="7"/><text class="i" x="192" y="292">)</text><rect class="l" x="217" y="275" width="28" height="25" rx="7"/><text class="i" x="227" y="292">»</text><a xlink:href="#integer"><rect class="r" x="255" y="275" width="62" height="25"/><text class="i" x="265" y="292">integer</text></a><rect class="l" x="25" y="305" width="40" height="25" rx="7"/><text class="i" x="35" y="322">abs</text><rect class="l" x="75" y="305" width="25" height="25" rx="7"/><text class="i" x="85" y="322">(</text><a xlink:href="#fixed-decimal"><rect class="r" x="110" y="305" width="98" height="25"/><text class="i" x="120" y="322">fixed-decimal</text></a><rect class="l" x="218" y="305" width="25" height="25" rx="7"/><text class="i" x="228" y="322">)</text><rect class="l" x="253" y="305" width="28" height="25" rx="7"/><text class="i" x="263" y="322">»</text><a xlink:href="#fixed-decimal"><rect class="r" x="291" y="305" width="98" height="25"/><text class="i" x="301" y="322">fixed-decimal</text></a><a xlink:href="#set"><rect class="r" x="45" y="335" width="38" height="25"/><text class="i" x="55" y="352">set</text></a><a xlink:href="#vector"><rect class="r" x="45" y="365" width="57" height="25"/><text class="i" x="55" y="382">vector</text></a><rect class="l" x="132" y="335" width="24" height="25" rx="7"/><text class="i" x="142" y="352">.</text><rect class="l" x="166" y="335" width="64" height="25" rx="7"/><text class="i" x="176" y="352">count()</text><rect class="l" x="240" y="335" width="28" height="25" rx="7"/><text class="i" x="250" y="352">»</text><a xlink:href="#integer"><rect class="r" x="278" y="335" width="62" height="25"/><text class="i" x="288" y="352">integer</text></a><a xlink:href="#integer"><rect class="r" x="25" y="395" width="62" height="25"/><text class="i" x="35" y="412">integer</text></a><rect class="l" x="97" y="395" width="25" height="25" rx="7"/><text class="i" x="107" y="412">-</text><rect class="l" x="132" y="395" width="28" height="25" rx="7"/><text class="i" x="142" y="412">1</text><rect class="l" x="170" y="395" width="28" height="25" rx="7"/><text class="i" x="180" y="412">»</text><a xlink:href="#integer"><rect class="r" x="208" y="395" width="62" height="25"/><text class="i" x="218" y="412">integer</text></a><rect class="l" x="25" y="425" width="46" height="25" rx="7"/><text class="i" x="35" y="442">expt</text><rect class="l" x="81" y="425" width="25" height="25" rx="7"/><text class="i" x="91" y="442">(</text><a xlink:href="#integer"><rect class="r" x="116" y="425" width="62" height="25"/><text class="i" x="126" y="442">integer</text></a><rect class="l" x="188" y="425" width="24" height="25" rx="7"/><text class="i" x="198" y="442">,</text><a xlink:href="#integer"><rect class="r" x="222" y="425" width="62" height="25"/><text class="i" x="232" y="442">integer</text></a><rect class="l" x="294" y="425" width="25" height="25" rx="7"/><text class="i" x="304" y="442">)</text><rect class="l" x="329" y="425" width="28" height="25" rx="7"/><text class="i" x="339" y="442">»</text><a xlink:href="#integer"><rect class="r" x="367" y="425" width="62" height="25"/><text class="i" x="377" y="442">integer</text></a><a xlink:href="#integer"><rect class="r" x="25" y="455" width="62" height="25"/><text class="i" x="35" y="472">integer</text></a><rect class="l" x="97" y="455" width="30" height="25" rx="7"/><text class="i" x="107" y="472">+</text><rect class="l" x="137" y="455" width="28" height="25" rx="7"/><text class="i" x="147" y="472">1</text><rect class="l" x="175" y="455" width="28" height="25" rx="7"/><text class="i" x="185" y="472">»</text><a xlink:href="#integer"><rect class="r" x="213" y="455" width="62" height="25"/><text class="i" x="223" y="472">integer</text></a><rect class="l" x="25" y="485" width="61" height="25" rx="7"/><text class="i" x="35" y="502">rescale</text><rect class="l" x="96" y="485" width="25" height="25" rx="7"/><text class="i" x="106" y="502">(</text><a xlink:href="#fixed-decimal"><rect class="r" x="131" y="485" width="98" height="25"/><text class="i" x="141" y="502">fixed-decimal</text></a><rect class="l" x="239" y="485" width="24" height="25" rx="7"/><text class="i" x="249" y="502">,</text><a xlink:href="#integer"><rect class="r" x="273" y="485" width="62" height="25"/><text class="i" x="283" y="502">integer</text></a><rect class="l" x="345" y="485" width="25" height="25" rx="7"/><text class="i" x="355" y="502">)</text><rect class="l" x="380" y="485" width="28" height="25" rx="7"/><text class="i" x="390" y="502">»</text><a xlink:href="#fixed-decimal"><rect class="r" x="438" y="485" width="98" height="25"/><text class="i" x="448" y="502">fixed-decimal</text></a><a xlink:href="#integer"><rect class="r" x="438" y="515" width="62" height="25"/><text class="i" x="448" y="532">integer</text></a></svg>