<svg version="1.1" xmlns:xlink="http://www.w3.org/1999/xlink" xmlns="http://www.w3.org/2000/svg" width="532" height="1025" viewbox="0 0 532 1025"><defs><style type="text/css">.c{fill:none;stroke:#222222;}.i{fill:#000000;font-family:Verdana,Sans-serif;font-size:12px;}.l{fill:#90d9ff;stroke:#222222;}.r{fill:#d3f0ff;stroke:#222222;}</style></defs><path class="c" d="M0 22h25m54 0h10m34 0h10m54 0h10m28 0h10m71 0h221m-512 55q0 5 5 5h5m91 0h10m25 0h10m54 0h10m24 0h30m-5 0q-5 0-5-5v-20q0-5 5-5h20m24 0h20q5 0 5 5v20q0 5-5 5m-5 0h30m25 0h10m28 0h10m71 0h5q5 0 5-5m-502 30q0 5 5 5h5m65 0h10m33 0h10m65 0h10m28 0h10m65 0h191q5 0 5-5m-502 30q0 5 5 5h5m65 0h10m28 0h10m65 0h10m28 0h10m65 0h196q5 0 5-5m-502 30q0 5 5 5h5m102 0h10m28 0h10m65 0h10m28 0h10m102 0h122q5 0 5-5m-502 30q0 5 5 5h5m65 0h10m29 0h10m65 0h10m28 0h10m65 0h195q5 0 5-5m-502 30q0 5 5 5h5m102 0h10m29 0h10m102 0h10m28 0h10m102 0h84q5 0 5-5m-502 30q0 5 5 5h5m65 0h10m25 0h10m65 0h10m28 0h10m65 0h199q5 0 5-5m-502 30q0 5 5 5h5m102 0h10m25 0h10m102 0h10m28 0h10m102 0h88q5 0 5-5m-502 30q0 5 5 5h5m65 0h10m25 0h10m65 0h10m28 0h10m65 0h199q5 0 5-5m-502 30q0 5 5 5h5m102 0h10m25 0h10m65 0h10m28 0h10m102 0h125q5 0 5-5m-502 30q0 5 5 5h25m65 0h10m29 0h10m65 0h94m-288 0q5 0 5 5v20q0 5 5 5h5m102 0h10m29 0h10m102 0h5q5 0 5-5v-20q0-5 5-5m5 0h10m28 0h10m71 0h75q5 0 5-5m-502 60q0 5 5 5h25m65 0h10m38 0h10m65 0h94m-297 0q5 0 5 5v20q0 5 5 5h5m102 0h10m38 0h10m102 0h5q5 0 5-5v-20q0-5 5-5m5 0h10m28 0h10m71 0h66q5 0 5-5m-502 60q0 5 5 5h5m54 0h10m38 0h10m54 0h10m28 0h10m71 0h202q5 0 5-5m-502 60q0 5 5 5h5m70 0h10m25 0h10m54 0h10m24 0h30m-5 0q-5 0-5-5v-20q0-5 5-5h20m24 0h20q5 0 5 5v20q0 5-5 5m-5 0h30m25 0h10m28 0h10m71 0h26q5 0 5-5m-502 30q0 5 5 5h25m65 0h10m29 0h10m65 0h94m-288 0q5 0 5 5v20q0 5 5 5h5m102 0h10m29 0h10m102 0h5q5 0 5-5v-20q0-5 5-5m5 0h10m28 0h10m71 0h75q5 0 5-5m-502 60q0 5 5 5h25m65 0h10m38 0h10m65 0h94m-297 0q5 0 5 5v20q0 5 5 5h5m102 0h10m38 0h10m102 0h5q5 0 5-5v-20q0-5 5-5m5 0h10m28 0h10m71 0h66q5 0 5-5m-502 60q0 5 5 5h5m43 0h10m25 0h10m65 0h10m25 0h10m28 0h10m65 0h186q5 0 5-5m-502 30q0 5 5 5h5m43 0h10m25 0h10m102 0h10m25 0h10m28 0h10m102 0h112q5 0 5-5m-502 30q0 5 5 5h5m65 0h10m25 0h10m28 0h10m28 0h10m65 0h236q5 0 5-5m-502 30q0 5 5 5h5m54 0h10m38 0h10m54 0h10m28 0h10m71 0h202q5 0 5-5m-502 60q0 5 5 5h5m70 0h10m25 0h10m54 0h10m24 0h30m-5 0q-5 0-5-5v-20q0-5 5-5h20m24 0h20q5 0 5 5v20q0 5-5 5m-5 0h30m25 0h10m28 0h10m71 0h26q5 0 5-5m-502 30q0 5 5 5h5m48 0h10m25 0h10m65 0h10m24 0h10m65 0h10m25 0h10m28 0h10m65 0h72q5 0 5-5m-502 30q0 5 5 5h5m65 0h10m29 0h10m28 0h10m28 0h10m65 0h232q5 0 5-5m-502 30q0 5 5 5h5m54 0h10m34 0h10m54 0h10m28 0h10m71 0h206q5 0 5-5m-507-925q5 0 5 5v980q0 5 5 5h5m91 0h10m25 0h10m54 0h10m24 0h30m-5 0q-5 0-5-5v-20q0-5 5-5h20m24 0h20q5 0 5 5v20q0 5-5 5m-5 0h30m25 0h10m28 0h10m71 0h5q5 0 5-5v-980q0-5 5-5m5 0h5"/><a xlink:href="#value"><rect class="r" x="25" y="5" width="54" height="25"/><text class="i" x="35" y="22">value</text></a><rect class="l" x="89" y="5" width="34" height="25" rx="7"/><text class="i" x="99" y="22">!=</text><a xlink:href="#value"><rect class="r" x="133" y="5" width="54" height="25"/><text class="i" x="143" y="22">value</text></a><rect class="l" x="197" y="5" width="28" height="25" rx="7"/><text class="i" x="207" y="22">»</text><a xlink:href="#boolean"><rect class="r" x="235" y="5" width="71" height="25"/><text class="i" x="245" y="22">boolean</text></a><rect class="l" x="25" y="65" width="91" height="25" rx="7"/><text class="i" x="35" y="82">notEqualTo</text><rect class="l" x="126" y="65" width="25" height="25" rx="7"/><text class="i" x="136" y="82">(</text><a xlink:href="#value"><rect class="r" x="161" y="65" width="54" height="25"/><text class="i" x="171" y="82">value</text></a><rect class="l" x="225" y="65" width="24" height="25" rx="7"/><text class="i" x="235" y="82">,</text><rect class="l" x="294" y="35" width="24" height="25" rx="7"/><text class="i" x="304" y="52">,</text><a xlink:href="#value"><rect class="r" x="279" y="65" width="54" height="25"/><text class="i" x="289" y="82">value</text></a><rect class="l" x="363" y="65" width="25" height="25" rx="7"/><text class="i" x="373" y="82">)</text><rect class="l" x="398" y="65" width="28" height="25" rx="7"/><text class="i" x="408" y="82">»</text><a xlink:href="#boolean"><rect class="r" x="436" y="65" width="71" height="25"/><text class="i" x="446" y="82">boolean</text></a><a xlink:href="#integer"><rect class="r" x="25" y="95" width="65" height="25"/><text class="i" x="35" y="112">integer</text></a><rect class="l" x="100" y="95" width="33" height="25" rx="7"/><text class="i" x="110" y="112">%</text><a xlink:href="#integer"><rect class="r" x="143" y="95" width="65" height="25"/><text class="i" x="153" y="112">integer</text></a><rect class="l" x="218" y="95" width="28" height="25" rx="7"/><text class="i" x="228" y="112">»</text><a xlink:href="#integer"><rect class="r" x="256" y="95" width="65" height="25"/><text class="i" x="266" y="112">integer</text></a><a xlink:href="#integer"><rect class="r" x="25" y="125" width="65" height="25"/><text class="i" x="35" y="142">integer</text></a><rect class="l" x="100" y="125" width="28" height="25" rx="7"/><text class="i" x="110" y="142">*</text><a xlink:href="#integer"><rect class="r" x="138" y="125" width="65" height="25"/><text class="i" x="148" y="142">integer</text></a><rect class="l" x="213" y="125" width="28" height="25" rx="7"/><text class="i" x="223" y="142">»</text><a xlink:href="#integer"><rect class="r" x="251" y="125" width="65" height="25"/><text class="i" x="261" y="142">integer</text></a><a xlink:href="#fixed-decimal"><rect class="r" x="25" y="155" width="102" height="25"/><text class="i" x="35" y="172">fixed-decimal</text></a><rect class="l" x="137" y="155" width="28" height="25" rx="7"/><text class="i" x="147" y="172">*</text><a xlink:href="#integer"><rect class="r" x="175" y="155" width="65" height="25"/><text class="i" x="185" y="172">integer</text></a><rect class="l" x="250" y="155" width="28" height="25" rx="7"/><text class="i" x="260" y="172">»</text><a xlink:href="#fixed-decimal"><rect class="r" x="288" y="155" width="102" height="25"/><text class="i" x="298" y="172">fixed-decimal</text></a><a xlink:href="#integer"><rect class="r" x="25" y="185" width="65" height="25"/><text class="i" x="35" y="202">integer</text></a><rect class="l" x="100" y="185" width="29" height="25" rx="7"/><text class="i" x="110" y="202">+</text><a xlink:href="#integer"><rect class="r" x="139" y="185" width="65" height="25"/><text class="i" x="149" y="202">integer</text></a><rect class="l" x="214" y="185" width="28" height="25" rx="7"/><text class="i" x="224" y="202">»</text><a xlink:href="#integer"><rect class="r" x="252" y="185" width="65" height="25"/><text class="i" x="262" y="202">integer</text></a><a xlink:href="#fixed-decimal"><rect class="r" x="25" y="215" width="102" height="25"/><text class="i" x="35" y="232">fixed-decimal</text></a><rect class="l" x="137" y="215" width="29" height="25" rx="7"/><text class="i" x="147" y="232">+</text><a xlink:href="#fixed-decimal"><rect class="r" x="176" y="215" width="102" height="25"/><text class="i" x="186" y="232">fixed-decimal</text></a><rect class="l" x="288" y="215" width="28" height="25" rx="7"/><text class="i" x="298" y="232">»</text><a xlink:href="#fixed-decimal"><rect class="r" x="326" y="215" width="102" height="25"/><text class="i" x="336" y="232">fixed-decimal</text></a><a xlink:href="#integer"><rect class="r" x="25" y="245" width="65" height="25"/><text class="i" x="35" y="262">integer</text></a><rect class="l" x="100" y="245" width="25" height="25" rx="7"/><text class="i" x="110" y="262">-</text><a xlink:href="#integer"><rect class="r" x="135" y="245" width="65" height="25"/><text class="i" x="145" y="262">integer</text></a><rect class="l" x="210" y="245" width="28" height="25" rx="7"/><text class="i" x="220" y="262">»</text><a xlink:href="#integer"><rect class="r" x="248" y="245" width="65" height="25"/><text class="i" x="258" y="262">integer</text></a><a xlink:href="#fixed-decimal"><rect class="r" x="25" y="275" width="102" height="25"/><text class="i" x="35" y="292">fixed-decimal</text></a><rect class="l" x="137" y="275" width="25" height="25" rx="7"/><text class="i" x="147" y="292">-</text><a xlink:href="#fixed-decimal"><rect class="r" x="172" y="275" width="102" height="25"/><text class="i" x="182" y="292">fixed-decimal</text></a><rect class="l" x="284" y="275" width="28" height="25" rx="7"/><text class="i" x="294" y="292">»</text><a xlink:href="#fixed-decimal"><rect class="r" x="322" y="275" width="102" height="25"/><text class="i" x="332" y="292">fixed-decimal</text></a><a xlink:href="#integer"><rect class="r" x="25" y="305" width="65" height="25"/><text class="i" x="35" y="322">integer</text></a><rect class="l" x="100" y="305" width="25" height="25" rx="7"/><text class="i" x="110" y="322">/</text><a xlink:href="#integer"><rect class="r" x="135" y="305" width="65" height="25"/><text class="i" x="145" y="322">integer</text></a><rect class="l" x="210" y="305" width="28" height="25" rx="7"/><text class="i" x="220" y="322">»</text><a xlink:href="#integer"><rect class="r" x="248" y="305" width="65" height="25"/><text class="i" x="258" y="322">integer</text></a><a xlink:href="#fixed-decimal"><rect class="r" x="25" y="335" width="102" height="25"/><text class="i" x="35" y="352">fixed-decimal</text></a><rect class="l" x="137" y="335" width="25" height="25" rx="7"/><text class="i" x="147" y="352">/</text><a xlink:href="#integer"><rect class="r" x="172" y="335" width="65" height="25"/><text class="i" x="182" y="352">integer</text></a><rect class="l" x="247" y="335" width="28" height="25" rx="7"/><text class="i" x="257" y="352">»</text><a xlink:href="#fixed-decimal"><rect class="r" x="285" y="335" width="102" height="25"/><text class="i" x="295" y="352">fixed-decimal</text></a><a xlink:href="#integer"><rect class="r" x="45" y="365" width="65" height="25"/><text class="i" x="55" y="382">integer</text></a><rect class="l" x="120" y="365" width="29" height="25" rx="7"/><text class="i" x="130" y="382">&lt;</text><a xlink:href="#integer"><rect class="r" x="159" y="365" width="65" height="25"/><text class="i" x="169" y="382">integer</text></a><a xlink:href="#fixed-decimal"><rect class="r" x="45" y="395" width="102" height="25"/><text class="i" x="55" y="412">fixed-decimal</text></a><rect class="l" x="157" y="395" width="29" height="25" rx="7"/><text class="i" x="167" y="412">&lt;</text><a xlink:href="#fixed-decimal"><rect class="r" x="196" y="395" width="102" height="25"/><text class="i" x="206" y="412">fixed-decimal</text></a><rect class="l" x="328" y="365" width="28" height="25" rx="7"/><text class="i" x="338" y="382">»</text><a xlink:href="#boolean"><rect class="r" x="366" y="365" width="71" height="25"/><text class="i" x="376" y="382">boolean</text></a><a xlink:href="#integer"><rect class="r" x="45" y="425" width="65" height="25"/><text class="i" x="55" y="442">integer</text></a><rect class="l" x="120" y="425" width="38" height="25" rx="7"/><text class="i" x="130" y="442">&lt;=</text><a xlink:href="#integer"><rect class="r" x="168" y="425" width="65" height="25"/><text class="i" x="178" y="442">integer</text></a><a xlink:href="#fixed-decimal"><rect class="r" x="45" y="455" width="102" height="25"/><text class="i" x="55" y="472">fixed-decimal</text></a><rect class="l" x="157" y="455" width="38" height="25" rx="7"/><text class="i" x="167" y="472">&lt;=</text><a xlink:href="#fixed-decimal"><rect class="r" x="205" y="455" width="102" height="25"/><text class="i" x="215" y="472">fixed-decimal</text></a><rect class="l" x="337" y="425" width="28" height="25" rx="7"/><text class="i" x="347" y="442">»</text><a xlink:href="#boolean"><rect class="r" x="375" y="425" width="71" height="25"/><text class="i" x="385" y="442">boolean</text></a><a xlink:href="#value"><rect class="r" x="25" y="485" width="54" height="25"/><text class="i" x="35" y="502">value</text></a><rect class="l" x="89" y="485" width="38" height="25" rx="7"/><text class="i" x="99" y="502">==</text><a xlink:href="#value"><rect class="r" x="137" y="485" width="54" height="25"/><text class="i" x="147" y="502">value</text></a><rect class="l" x="201" y="485" width="28" height="25" rx="7"/><text class="i" x="211" y="502">»</text><a xlink:href="#boolean"><rect class="r" x="239" y="485" width="71" height="25"/><text class="i" x="249" y="502">boolean</text></a><rect class="l" x="25" y="545" width="70" height="25" rx="7"/><text class="i" x="35" y="562">equalTo</text><rect class="l" x="105" y="545" width="25" height="25" rx="7"/><text class="i" x="115" y="562">(</text><a xlink:href="#value"><rect class="r" x="140" y="545" width="54" height="25"/><text class="i" x="150" y="562">value</text></a><rect class="l" x="204" y="545" width="24" height="25" rx="7"/><text class="i" x="214" y="562">,</text><rect class="l" x="273" y="515" width="24" height="25" rx="7"/><text class="i" x="283" y="532">,</text><a xlink:href="#value"><rect class="r" x="258" y="545" width="54" height="25"/><text class="i" x="268" y="562">value</text></a><rect class="l" x="342" y="545" width="25" height="25" rx="7"/><text class="i" x="352" y="562">)</text><rect class="l" x="377" y="545" width="28" height="25" rx="7"/><text class="i" x="387" y="562">»</text><a xlink:href="#boolean"><rect class="r" x="415" y="545" width="71" height="25"/><text class="i" x="425" y="562">boolean</text></a><a xlink:href="#integer"><rect class="r" x="45" y="575" width="65" height="25"/><text class="i" x="55" y="592">integer</text></a><rect class="l" x="120" y="575" width="29" height="25" rx="7"/><text class="i" x="130" y="592">&gt;</text><a xlink:href="#integer"><rect class="r" x="159" y="575" width="65" height="25"/><text class="i" x="169" y="592">integer</text></a><a xlink:href="#fixed-decimal"><rect class="r" x="45" y="605" width="102" height="25"/><text class="i" x="55" y="622">fixed-decimal</text></a><rect class="l" x="157" y="605" width="29" height="25" rx="7"/><text class="i" x="167" y="622">&gt;</text><a xlink:href="#fixed-decimal"><rect class="r" x="196" y="605" width="102" height="25"/><text class="i" x="206" y="622">fixed-decimal</text></a><rect class="l" x="328" y="575" width="28" height="25" rx="7"/><text class="i" x="338" y="592">»</text><a xlink:href="#boolean"><rect class="r" x="366" y="575" width="71" height="25"/><text class="i" x="376" y="592">boolean</text></a><a xlink:href="#integer"><rect class="r" x="45" y="635" width="65" height="25"/><text class="i" x="55" y="652">integer</text></a><rect class="l" x="120" y="635" width="38" height="25" rx="7"/><text class="i" x="130" y="652">&gt;=</text><a xlink:href="#integer"><rect class="r" x="168" y="635" width="65" height="25"/><text class="i" x="178" y="652">integer</text></a><a xlink:href="#fixed-decimal"><rect class="r" x="45" y="665" width="102" height="25"/><text class="i" x="55" y="682">fixed-decimal</text></a><rect class="l" x="157" y="665" width="38" height="25" rx="7"/><text class="i" x="167" y="682">&gt;=</text><a xlink:href="#fixed-decimal"><rect class="r" x="205" y="665" width="102" height="25"/><text class="i" x="215" y="682">fixed-decimal</text></a><rect class="l" x="337" y="635" width="28" height="25" rx="7"/><text class="i" x="347" y="652">»</text><a xlink:href="#boolean"><rect class="r" x="375" y="635" width="71" height="25"/><text class="i" x="385" y="652">boolean</text></a><rect class="l" x="25" y="695" width="43" height="25" rx="7"/><text class="i" x="35" y="712">abs</text><rect class="l" x="78" y="695" width="25" height="25" rx="7"/><text class="i" x="88" y="712">(</text><a xlink:href="#integer"><rect class="r" x="113" y="695" width="65" height="25"/><text class="i" x="123" y="712">integer</text></a><rect class="l" x="188" y="695" width="25" height="25" rx="7"/><text class="i" x="198" y="712">)</text><rect class="l" x="223" y="695" width="28" height="25" rx="7"/><text class="i" x="233" y="712">»</text><a xlink:href="#integer"><rect class="r" x="261" y="695" width="65" height="25"/><text class="i" x="271" y="712">integer</text></a><rect class="l" x="25" y="725" width="43" height="25" rx="7"/><text class="i" x="35" y="742">abs</text><rect class="l" x="78" y="725" width="25" height="25" rx="7"/><text class="i" x="88" y="742">(</text><a xlink:href="#fixed-decimal"><rect class="r" x="113" y="725" width="102" height="25"/><text class="i" x="123" y="742">fixed-decimal</text></a><rect class="l" x="225" y="725" width="25" height="25" rx="7"/><text class="i" x="235" y="742">)</text><rect class="l" x="260" y="725" width="28" height="25" rx="7"/><text class="i" x="270" y="742">»</text><a xlink:href="#fixed-decimal"><rect class="r" x="298" y="725" width="102" height="25"/><text class="i" x="308" y="742">fixed-decimal</text></a><a xlink:href="#integer"><rect class="r" x="25" y="755" width="65" height="25"/><text class="i" x="35" y="772">integer</text></a><rect class="l" x="100" y="755" width="25" height="25" rx="7"/><text class="i" x="110" y="772">-</text><rect class="l" x="135" y="755" width="28" height="25" rx="7"/><text class="i" x="145" y="772">1</text><rect class="l" x="173" y="755" width="28" height="25" rx="7"/><text class="i" x="183" y="772">»</text><a xlink:href="#integer"><rect class="r" x="211" y="755" width="65" height="25"/><text class="i" x="221" y="772">integer</text></a><a xlink:href="#value"><rect class="r" x="25" y="785" width="54" height="25"/><text class="i" x="35" y="802">value</text></a><rect class="l" x="89" y="785" width="38" height="25" rx="7"/><text class="i" x="99" y="802">==</text><a xlink:href="#value"><rect class="r" x="137" y="785" width="54" height="25"/><text class="i" x="147" y="802">value</text></a><rect class="l" x="201" y="785" width="28" height="25" rx="7"/><text class="i" x="211" y="802">»</text><a xlink:href="#boolean"><rect class="r" x="239" y="785" width="71" height="25"/><text class="i" x="249" y="802">boolean</text></a><rect class="l" x="25" y="845" width="70" height="25" rx="7"/><text class="i" x="35" y="862">equalTo</text><rect class="l" x="105" y="845" width="25" height="25" rx="7"/><text class="i" x="115" y="862">(</text><a xlink:href="#value"><rect class="r" x="140" y="845" width="54" height="25"/><text class="i" x="150" y="862">value</text></a><rect class="l" x="204" y="845" width="24" height="25" rx="7"/><text class="i" x="214" y="862">,</text><rect class="l" x="273" y="815" width="24" height="25" rx="7"/><text class="i" x="283" y="832">,</text><a xlink:href="#value"><rect class="r" x="258" y="845" width="54" height="25"/><text class="i" x="268" y="862">value</text></a><rect class="l" x="342" y="845" width="25" height="25" rx="7"/><text class="i" x="352" y="862">)</text><rect class="l" x="377" y="845" width="28" height="25" rx="7"/><text class="i" x="387" y="862">»</text><a xlink:href="#boolean"><rect class="r" x="415" y="845" width="71" height="25"/><text class="i" x="425" y="862">boolean</text></a><rect class="l" x="25" y="875" width="48" height="25" rx="7"/><text class="i" x="35" y="892">expt</text><rect class="l" x="83" y="875" width="25" height="25" rx="7"/><text class="i" x="93" y="892">(</text><a xlink:href="#integer"><rect class="r" x="118" y="875" width="65" height="25"/><text class="i" x="128" y="892">integer</text></a><rect class="l" x="193" y="875" width="24" height="25" rx="7"/><text class="i" x="203" y="892">,</text><a xlink:href="#integer"><rect class="r" x="227" y="875" width="65" height="25"/><text class="i" x="237" y="892">integer</text></a><rect class="l" x="302" y="875" width="25" height="25" rx="7"/><text class="i" x="312" y="892">)</text><rect class="l" x="337" y="875" width="28" height="25" rx="7"/><text class="i" x="347" y="892">»</text><a xlink:href="#integer"><rect class="r" x="375" y="875" width="65" height="25"/><text class="i" x="385" y="892">integer</text></a><a xlink:href="#integer"><rect class="r" x="25" y="905" width="65" height="25"/><text class="i" x="35" y="922">integer</text></a><rect class="l" x="100" y="905" width="29" height="25" rx="7"/><text class="i" x="110" y="922">+</text><rect class="l" x="139" y="905" width="28" height="25" rx="7"/><text class="i" x="149" y="922">1</text><rect class="l" x="177" y="905" width="28" height="25" rx="7"/><text class="i" x="187" y="922">»</text><a xlink:href="#integer"><rect class="r" x="215" y="905" width="65" height="25"/><text class="i" x="225" y="922">integer</text></a><a xlink:href="#value"><rect class="r" x="25" y="935" width="54" height="25"/><text class="i" x="35" y="952">value</text></a><rect class="l" x="89" y="935" width="34" height="25" rx="7"/><text class="i" x="99" y="952">!=</text><a xlink:href="#value"><rect class="r" x="133" y="935" width="54" height="25"/><text class="i" x="143" y="952">value</text></a><rect class="l" x="197" y="935" width="28" height="25" rx="7"/><text class="i" x="207" y="952">»</text><a xlink:href="#boolean"><rect class="r" x="235" y="935" width="71" height="25"/><text class="i" x="245" y="952">boolean</text></a><rect class="l" x="25" y="995" width="91" height="25" rx="7"/><text class="i" x="35" y="1012">notEqualTo</text><rect class="l" x="126" y="995" width="25" height="25" rx="7"/><text class="i" x="136" y="1012">(</text><a xlink:href="#value"><rect class="r" x="161" y="995" width="54" height="25"/><text class="i" x="171" y="1012">value</text></a><rect class="l" x="225" y="995" width="24" height="25" rx="7"/><text class="i" x="235" y="1012">,</text><rect class="l" x="294" y="965" width="24" height="25" rx="7"/><text class="i" x="304" y="982">,</text><a xlink:href="#value"><rect class="r" x="279" y="995" width="54" height="25"/><text class="i" x="289" y="1012">value</text></a><rect class="l" x="363" y="995" width="25" height="25" rx="7"/><text class="i" x="373" y="1012">)</text><rect class="l" x="398" y="995" width="28" height="25" rx="7"/><text class="i" x="408" y="1012">»</text><a xlink:href="#boolean"><rect class="r" x="436" y="995" width="71" height="25"/><text class="i" x="446" y="1012">boolean</text></a></svg>