<svg version="1.1" xmlns:xlink="http://www.w3.org/1999/xlink" xmlns="http://www.w3.org/2000/svg" width="529" height="817" viewbox="0 0 529 817"><defs><style type="text/css">.c{fill: none; stroke: #888888; stroke-width: 2px;}.i{fill:#000000;font-family:Dialog,Sans-serif;font-size:12px;}.l{fill:#90d9ff;stroke:#222222;}.r{fill:#d3f0ff;stroke:#222222;}</style></defs><path class="c" d="M0 17h25m53 0h10m35 0h10m53 0h10m27 0h10m71 0h220m-509 24q0 5 5 5h5m65 0h10m31 0h10m65 0h10m27 0h10m65 0h191q5 0 5-5m-499 29q0 5 5 5h5m65 0h10m26 0h10m65 0h10m27 0h10m65 0h196q5 0 5-5m-499 29q0 5 5 5h5m101 0h10m26 0h10m65 0h10m27 0h10m101 0h124q5 0 5-5m-499 29q0 5 5 5h5m65 0h10m30 0h10m65 0h10m27 0h10m65 0h192q5 0 5-5m-499 29q0 5 5 5h5m101 0h10m30 0h10m101 0h10m27 0h10m101 0h84q5 0 5-5m-499 29q0 5 5 5h5m65 0h10m24 0h10m65 0h10m27 0h10m65 0h198q5 0 5-5m-499 29q0 5 5 5h5m101 0h10m24 0h10m101 0h10m27 0h10m101 0h90q5 0 5-5m-499 29q0 5 5 5h5m65 0h10m24 0h10m65 0h10m27 0h10m65 0h198q5 0 5-5m-499 29q0 5 5 5h5m101 0h10m24 0h10m65 0h10m27 0h10m101 0h126q5 0 5-5m-499 29q0 5 5 5h25m65 0h10m30 0h10m65 0h92m-287 0q5 0 5 5v19q0 5 5 5h5m101 0h10m30 0h10m101 0h5q5 0 5-5v-19q0-5 5-5m5 0h10m27 0h10m71 0h74q5 0 5-5m-499 58q0 5 5 5h25m65 0h10m40 0h10m65 0h92m-297 0q5 0 5 5v19q0 5 5 5h5m101 0h10m40 0h10m101 0h5q5 0 5-5v-19q0-5 5-5m5 0h10m27 0h10m71 0h64q5 0 5-5m-499 58q0 5 5 5h5m53 0h10m40 0h10m53 0h10m27 0h10m71 0h200q5 0 5-5m-499 29q0 5 5 5h25m65 0h10m30 0h10m65 0h92m-287 0q5 0 5 5v19q0 5 5 5h5m101 0h10m30 0h10m101 0h5q5 0 5-5v-19q0-5 5-5m5 0h10m27 0h10m71 0h74q5 0 5-5m-499 58q0 5 5 5h25m65 0h10m40 0h10m65 0h92m-297 0q5 0 5 5v19q0 5 5 5h5m101 0h10m40 0h10m101 0h5q5 0 5-5v-19q0-5 5-5m5 0h10m27 0h10m71 0h64q5 0 5-5m-499 58q0 5 5 5h5m43 0h10m25 0h10m65 0h10m25 0h10m27 0h10m65 0h184q5 0 5-5m-499 29q0 5 5 5h5m43 0h10m25 0h10m101 0h10m25 0h10m27 0h10m101 0h112q5 0 5-5m-499 29q0 5 5 5h5m65 0h10m24 0h10m28 0h10m27 0h10m65 0h235q5 0 5-5m-499 58q0 5 5 5h5m70 0h10m25 0h10m53 0h10m24 0h30m-5 0q-5 0-5-5v-19q0-5 5-5h19m24 0h20q5 0 5 5v19q0 5-5 5m-5 0h30m25 0h10m27 0h10m71 0h26q5 0 5-5m-499 29q0 5 5 5h5m47 0h10m25 0h10m65 0h10m24 0h10m65 0h10m25 0h10m27 0h10m65 0h71q5 0 5-5m-499 29q0 5 5 5h5m65 0h10m30 0h10m28 0h10m27 0h10m65 0h229q5 0 5-5m-504-720q5 0 5 5v773q0 5 5 5h5m91 0h10m25 0h10m53 0h10m24 0h30m-5 0q-5 0-5-5v-19q0-5 5-5h19m24 0h20q5 0 5 5v19q0 5-5 5m-5 0h30m25 0h10m27 0h10m71 0h5q5 0 5-5v-773q0-5 5-5m5 0h5"/><a xlink:href="#value"><rect class="r" x="25" y="5" width="53" height="24"/><text class="i" x="35" y="21">value</text></a><rect class="l" x="88" y="5" width="35" height="24" rx="7"/><text class="i" x="98" y="21">!=</text><a xlink:href="#value"><rect class="r" x="133" y="5" width="53" height="24"/><text class="i" x="143" y="21">value</text></a><rect class="l" x="196" y="5" width="27" height="24" rx="7"/><text class="i" x="206" y="21">»</text><a xlink:href="#boolean"><rect class="r" x="233" y="5" width="71" height="24"/><text class="i" x="243" y="21">boolean</text></a><a xlink:href="#integer"><rect class="r" x="25" y="34" width="65" height="24"/><text class="i" x="35" y="50">integer</text></a><rect class="l" x="100" y="34" width="31" height="24" rx="7"/><text class="i" x="110" y="50">%</text><a xlink:href="#integer"><rect class="r" x="141" y="34" width="65" height="24"/><text class="i" x="151" y="50">integer</text></a><rect class="l" x="216" y="34" width="27" height="24" rx="7"/><text class="i" x="226" y="50">»</text><a xlink:href="#integer"><rect class="r" x="253" y="34" width="65" height="24"/><text class="i" x="263" y="50">integer</text></a><a xlink:href="#integer"><rect class="r" x="25" y="63" width="65" height="24"/><text class="i" x="35" y="79">integer</text></a><rect class="l" x="100" y="63" width="26" height="24" rx="7"/><text class="i" x="110" y="79">*</text><a xlink:href="#integer"><rect class="r" x="136" y="63" width="65" height="24"/><text class="i" x="146" y="79">integer</text></a><rect class="l" x="211" y="63" width="27" height="24" rx="7"/><text class="i" x="221" y="79">»</text><a xlink:href="#integer"><rect class="r" x="248" y="63" width="65" height="24"/><text class="i" x="258" y="79">integer</text></a><a xlink:href="#fixed-decimal"><rect class="r" x="25" y="92" width="101" height="24"/><text class="i" x="35" y="108">fixed-decimal</text></a><rect class="l" x="136" y="92" width="26" height="24" rx="7"/><text class="i" x="146" y="108">*</text><a xlink:href="#integer"><rect class="r" x="172" y="92" width="65" height="24"/><text class="i" x="182" y="108">integer</text></a><rect class="l" x="247" y="92" width="27" height="24" rx="7"/><text class="i" x="257" y="108">»</text><a xlink:href="#fixed-decimal"><rect class="r" x="284" y="92" width="101" height="24"/><text class="i" x="294" y="108">fixed-decimal</text></a><a xlink:href="#integer"><rect class="r" x="25" y="121" width="65" height="24"/><text class="i" x="35" y="137">integer</text></a><rect class="l" x="100" y="121" width="30" height="24" rx="7"/><text class="i" x="110" y="137">+</text><a xlink:href="#integer"><rect class="r" x="140" y="121" width="65" height="24"/><text class="i" x="150" y="137">integer</text></a><rect class="l" x="215" y="121" width="27" height="24" rx="7"/><text class="i" x="225" y="137">»</text><a xlink:href="#integer"><rect class="r" x="252" y="121" width="65" height="24"/><text class="i" x="262" y="137">integer</text></a><a xlink:href="#fixed-decimal"><rect class="r" x="25" y="150" width="101" height="24"/><text class="i" x="35" y="166">fixed-decimal</text></a><rect class="l" x="136" y="150" width="30" height="24" rx="7"/><text class="i" x="146" y="166">+</text><a xlink:href="#fixed-decimal"><rect class="r" x="176" y="150" width="101" height="24"/><text class="i" x="186" y="166">fixed-decimal</text></a><rect class="l" x="287" y="150" width="27" height="24" rx="7"/><text class="i" x="297" y="166">»</text><a xlink:href="#fixed-decimal"><rect class="r" x="324" y="150" width="101" height="24"/><text class="i" x="334" y="166">fixed-decimal</text></a><a xlink:href="#integer"><rect class="r" x="25" y="179" width="65" height="24"/><text class="i" x="35" y="195">integer</text></a><rect class="l" x="100" y="179" width="24" height="24" rx="7"/><text class="i" x="110" y="195">-</text><a xlink:href="#integer"><rect class="r" x="134" y="179" width="65" height="24"/><text class="i" x="144" y="195">integer</text></a><rect class="l" x="209" y="179" width="27" height="24" rx="7"/><text class="i" x="219" y="195">»</text><a xlink:href="#integer"><rect class="r" x="246" y="179" width="65" height="24"/><text class="i" x="256" y="195">integer</text></a><a xlink:href="#fixed-decimal"><rect class="r" x="25" y="208" width="101" height="24"/><text class="i" x="35" y="224">fixed-decimal</text></a><rect class="l" x="136" y="208" width="24" height="24" rx="7"/><text class="i" x="146" y="224">-</text><a xlink:href="#fixed-decimal"><rect class="r" x="170" y="208" width="101" height="24"/><text class="i" x="180" y="224">fixed-decimal</text></a><rect class="l" x="281" y="208" width="27" height="24" rx="7"/><text class="i" x="291" y="224">»</text><a xlink:href="#fixed-decimal"><rect class="r" x="318" y="208" width="101" height="24"/><text class="i" x="328" y="224">fixed-decimal</text></a><a xlink:href="#integer"><rect class="r" x="25" y="237" width="65" height="24"/><text class="i" x="35" y="253">integer</text></a><rect class="l" x="100" y="237" width="24" height="24" rx="7"/><text class="i" x="110" y="253">/</text><a xlink:href="#integer"><rect class="r" x="134" y="237" width="65" height="24"/><text class="i" x="144" y="253">integer</text></a><rect class="l" x="209" y="237" width="27" height="24" rx="7"/><text class="i" x="219" y="253">»</text><a xlink:href="#integer"><rect class="r" x="246" y="237" width="65" height="24"/><text class="i" x="256" y="253">integer</text></a><a xlink:href="#fixed-decimal"><rect class="r" x="25" y="266" width="101" height="24"/><text class="i" x="35" y="282">fixed-decimal</text></a><rect class="l" x="136" y="266" width="24" height="24" rx="7"/><text class="i" x="146" y="282">/</text><a xlink:href="#integer"><rect class="r" x="170" y="266" width="65" height="24"/><text class="i" x="180" y="282">integer</text></a><rect class="l" x="245" y="266" width="27" height="24" rx="7"/><text class="i" x="255" y="282">»</text><a xlink:href="#fixed-decimal"><rect class="r" x="282" y="266" width="101" height="24"/><text class="i" x="292" y="282">fixed-decimal</text></a><a xlink:href="#integer"><rect class="r" x="45" y="295" width="65" height="24"/><text class="i" x="55" y="311">integer</text></a><rect class="l" x="120" y="295" width="30" height="24" rx="7"/><text class="i" x="130" y="311">&lt;</text><a xlink:href="#integer"><rect class="r" x="160" y="295" width="65" height="24"/><text class="i" x="170" y="311">integer</text></a><a xlink:href="#fixed-decimal"><rect class="r" x="45" y="324" width="101" height="24"/><text class="i" x="55" y="340">fixed-decimal</text></a><rect class="l" x="156" y="324" width="30" height="24" rx="7"/><text class="i" x="166" y="340">&lt;</text><a xlink:href="#fixed-decimal"><rect class="r" x="196" y="324" width="101" height="24"/><text class="i" x="206" y="340">fixed-decimal</text></a><rect class="l" x="327" y="295" width="27" height="24" rx="7"/><text class="i" x="337" y="311">»</text><a xlink:href="#boolean"><rect class="r" x="364" y="295" width="71" height="24"/><text class="i" x="374" y="311">boolean</text></a><a xlink:href="#integer"><rect class="r" x="45" y="353" width="65" height="24"/><text class="i" x="55" y="369">integer</text></a><rect class="l" x="120" y="353" width="40" height="24" rx="7"/><text class="i" x="130" y="369">&lt;=</text><a xlink:href="#integer"><rect class="r" x="170" y="353" width="65" height="24"/><text class="i" x="180" y="369">integer</text></a><a xlink:href="#fixed-decimal"><rect class="r" x="45" y="382" width="101" height="24"/><text class="i" x="55" y="398">fixed-decimal</text></a><rect class="l" x="156" y="382" width="40" height="24" rx="7"/><text class="i" x="166" y="398">&lt;=</text><a xlink:href="#fixed-decimal"><rect class="r" x="206" y="382" width="101" height="24"/><text class="i" x="216" y="398">fixed-decimal</text></a><rect class="l" x="337" y="353" width="27" height="24" rx="7"/><text class="i" x="347" y="369">»</text><a xlink:href="#boolean"><rect class="r" x="374" y="353" width="71" height="24"/><text class="i" x="384" y="369">boolean</text></a><a xlink:href="#value"><rect class="r" x="25" y="411" width="53" height="24"/><text class="i" x="35" y="427">value</text></a><rect class="l" x="88" y="411" width="40" height="24" rx="7"/><text class="i" x="98" y="427">==</text><a xlink:href="#value"><rect class="r" x="138" y="411" width="53" height="24"/><text class="i" x="148" y="427">value</text></a><rect class="l" x="201" y="411" width="27" height="24" rx="7"/><text class="i" x="211" y="427">»</text><a xlink:href="#boolean"><rect class="r" x="238" y="411" width="71" height="24"/><text class="i" x="248" y="427">boolean</text></a><a xlink:href="#integer"><rect class="r" x="45" y="440" width="65" height="24"/><text class="i" x="55" y="456">integer</text></a><rect class="l" x="120" y="440" width="30" height="24" rx="7"/><text class="i" x="130" y="456">&gt;</text><a xlink:href="#integer"><rect class="r" x="160" y="440" width="65" height="24"/><text class="i" x="170" y="456">integer</text></a><a xlink:href="#fixed-decimal"><rect class="r" x="45" y="469" width="101" height="24"/><text class="i" x="55" y="485">fixed-decimal</text></a><rect class="l" x="156" y="469" width="30" height="24" rx="7"/><text class="i" x="166" y="485">&gt;</text><a xlink:href="#fixed-decimal"><rect class="r" x="196" y="469" width="101" height="24"/><text class="i" x="206" y="485">fixed-decimal</text></a><rect class="l" x="327" y="440" width="27" height="24" rx="7"/><text class="i" x="337" y="456">»</text><a xlink:href="#boolean"><rect class="r" x="364" y="440" width="71" height="24"/><text class="i" x="374" y="456">boolean</text></a><a xlink:href="#integer"><rect class="r" x="45" y="498" width="65" height="24"/><text class="i" x="55" y="514">integer</text></a><rect class="l" x="120" y="498" width="40" height="24" rx="7"/><text class="i" x="130" y="514">&gt;=</text><a xlink:href="#integer"><rect class="r" x="170" y="498" width="65" height="24"/><text class="i" x="180" y="514">integer</text></a><a xlink:href="#fixed-decimal"><rect class="r" x="45" y="527" width="101" height="24"/><text class="i" x="55" y="543">fixed-decimal</text></a><rect class="l" x="156" y="527" width="40" height="24" rx="7"/><text class="i" x="166" y="543">&gt;=</text><a xlink:href="#fixed-decimal"><rect class="r" x="206" y="527" width="101" height="24"/><text class="i" x="216" y="543">fixed-decimal</text></a><rect class="l" x="337" y="498" width="27" height="24" rx="7"/><text class="i" x="347" y="514">»</text><a xlink:href="#boolean"><rect class="r" x="374" y="498" width="71" height="24"/><text class="i" x="384" y="514">boolean</text></a><rect class="l" x="25" y="556" width="43" height="24" rx="7"/><text class="i" x="35" y="572">abs</text><rect class="l" x="78" y="556" width="25" height="24" rx="7"/><text class="i" x="88" y="572">(</text><a xlink:href="#integer"><rect class="r" x="113" y="556" width="65" height="24"/><text class="i" x="123" y="572">integer</text></a><rect class="l" x="188" y="556" width="25" height="24" rx="7"/><text class="i" x="198" y="572">)</text><rect class="l" x="223" y="556" width="27" height="24" rx="7"/><text class="i" x="233" y="572">»</text><a xlink:href="#integer"><rect class="r" x="260" y="556" width="65" height="24"/><text class="i" x="270" y="572">integer</text></a><rect class="l" x="25" y="585" width="43" height="24" rx="7"/><text class="i" x="35" y="601">abs</text><rect class="l" x="78" y="585" width="25" height="24" rx="7"/><text class="i" x="88" y="601">(</text><a xlink:href="#fixed-decimal"><rect class="r" x="113" y="585" width="101" height="24"/><text class="i" x="123" y="601">fixed-decimal</text></a><rect class="l" x="224" y="585" width="25" height="24" rx="7"/><text class="i" x="234" y="601">)</text><rect class="l" x="259" y="585" width="27" height="24" rx="7"/><text class="i" x="269" y="601">»</text><a xlink:href="#fixed-decimal"><rect class="r" x="296" y="585" width="101" height="24"/><text class="i" x="306" y="601">fixed-decimal</text></a><a xlink:href="#integer"><rect class="r" x="25" y="614" width="65" height="24"/><text class="i" x="35" y="630">integer</text></a><rect class="l" x="100" y="614" width="24" height="24" rx="7"/><text class="i" x="110" y="630">-</text><rect class="l" x="134" y="614" width="28" height="24" rx="7"/><text class="i" x="144" y="630">1</text><rect class="l" x="172" y="614" width="27" height="24" rx="7"/><text class="i" x="182" y="630">»</text><a xlink:href="#integer"><rect class="r" x="209" y="614" width="65" height="24"/><text class="i" x="219" y="630">integer</text></a><rect class="l" x="25" y="672" width="70" height="24" rx="7"/><text class="i" x="35" y="688">equalTo</text><rect class="l" x="105" y="672" width="25" height="24" rx="7"/><text class="i" x="115" y="688">(</text><a xlink:href="#value"><rect class="r" x="140" y="672" width="53" height="24"/><text class="i" x="150" y="688">value</text></a><rect class="l" x="203" y="672" width="24" height="24" rx="7"/><text class="i" x="213" y="688">,</text><rect class="l" x="271" y="643" width="24" height="24" rx="7"/><text class="i" x="281" y="659">,</text><a xlink:href="#value"><rect class="r" x="257" y="672" width="53" height="24"/><text class="i" x="267" y="688">value</text></a><rect class="l" x="340" y="672" width="25" height="24" rx="7"/><text class="i" x="350" y="688">)</text><rect class="l" x="375" y="672" width="27" height="24" rx="7"/><text class="i" x="385" y="688">»</text><a xlink:href="#boolean"><rect class="r" x="412" y="672" width="71" height="24"/><text class="i" x="422" y="688">boolean</text></a><rect class="l" x="25" y="701" width="47" height="24" rx="7"/><text class="i" x="35" y="717">expt</text><rect class="l" x="82" y="701" width="25" height="24" rx="7"/><text class="i" x="92" y="717">(</text><a xlink:href="#integer"><rect class="r" x="117" y="701" width="65" height="24"/><text class="i" x="127" y="717">integer</text></a><rect class="l" x="192" y="701" width="24" height="24" rx="7"/><text class="i" x="202" y="717">,</text><a xlink:href="#integer"><rect class="r" x="226" y="701" width="65" height="24"/><text class="i" x="236" y="717">integer</text></a><rect class="l" x="301" y="701" width="25" height="24" rx="7"/><text class="i" x="311" y="717">)</text><rect class="l" x="336" y="701" width="27" height="24" rx="7"/><text class="i" x="346" y="717">»</text><a xlink:href="#integer"><rect class="r" x="373" y="701" width="65" height="24"/><text class="i" x="383" y="717">integer</text></a><a xlink:href="#integer"><rect class="r" x="25" y="730" width="65" height="24"/><text class="i" x="35" y="746">integer</text></a><rect class="l" x="100" y="730" width="30" height="24" rx="7"/><text class="i" x="110" y="746">+</text><rect class="l" x="140" y="730" width="28" height="24" rx="7"/><text class="i" x="150" y="746">1</text><rect class="l" x="178" y="730" width="27" height="24" rx="7"/><text class="i" x="188" y="746">»</text><a xlink:href="#integer"><rect class="r" x="215" y="730" width="65" height="24"/><text class="i" x="225" y="746">integer</text></a><rect class="l" x="25" y="788" width="91" height="24" rx="7"/><text class="i" x="35" y="804">notEqualTo</text><rect class="l" x="126" y="788" width="25" height="24" rx="7"/><text class="i" x="136" y="804">(</text><a xlink:href="#value"><rect class="r" x="161" y="788" width="53" height="24"/><text class="i" x="171" y="804">value</text></a><rect class="l" x="224" y="788" width="24" height="24" rx="7"/><text class="i" x="234" y="804">,</text><rect class="l" x="292" y="759" width="24" height="24" rx="7"/><text class="i" x="302" y="775">,</text><a xlink:href="#value"><rect class="r" x="278" y="788" width="53" height="24"/><text class="i" x="288" y="804">value</text></a><rect class="l" x="361" y="788" width="25" height="24" rx="7"/><text class="i" x="371" y="804">)</text><rect class="l" x="396" y="788" width="27" height="24" rx="7"/><text class="i" x="406" y="804">»</text><a xlink:href="#boolean"><rect class="r" x="433" y="788" width="71" height="24"/><text class="i" x="443" y="804">boolean</text></a></svg>