<svg version="1.1" xmlns:xlink="http://www.w3.org/1999/xlink" xmlns="http://www.w3.org/2000/svg" width="596" height="545" viewbox="0 0 596 545"><defs><style type="text/css">.c{fill: none; stroke: #888888; stroke-width: 2px;}.i{fill:#000000;font-family:Verdana,Sans-serif;font-size:12px;}.l{fill:#90d9ff;stroke:#222222;}.r{fill:#d3f0ff;stroke:#222222;}</style></defs><path class="c" d="M0 18h25m65 0h10m33 0h10m65 0h10m28 0h10m65 0h270m-576 25q0 5 5 5h5m65 0h10m28 0h10m65 0h10m28 0h10m65 0h260q5 0 5-5m-566 30q0 5 5 5h5m102 0h10m28 0h10m65 0h10m28 0h10m102 0h186q5 0 5-5m-566 30q0 5 5 5h5m65 0h10m29 0h10m65 0h10m28 0h10m65 0h259q5 0 5-5m-566 30q0 5 5 5h5m102 0h10m29 0h10m102 0h10m28 0h10m102 0h148q5 0 5-5m-566 30q0 5 5 5h5m65 0h10m25 0h10m65 0h10m28 0h10m65 0h263q5 0 5-5m-566 30q0 5 5 5h5m102 0h10m25 0h10m102 0h10m28 0h10m102 0h152q5 0 5-5m-566 30q0 5 5 5h5m65 0h10m25 0h10m65 0h10m28 0h10m65 0h263q5 0 5-5m-566 30q0 5 5 5h5m102 0h10m25 0h10m65 0h10m28 0h10m102 0h189q5 0 5-5m-566 30q0 5 5 5h5m43 0h10m25 0h10m65 0h10m25 0h10m28 0h10m65 0h250q5 0 5-5m-566 30q0 5 5 5h5m43 0h10m25 0h10m102 0h10m25 0h10m28 0h10m102 0h176q5 0 5-5m-566 30q0 5 5 5h25m40 0h39m-94 0q5 0 5 5v20q0 5 5 5h5m59 0h5q5 0 5-5v-20q0-5 5-5m5 0h10m24 0h10m65 0h10m28 0h10m65 0h230q5 0 5-5m-566 60q0 5 5 5h5m65 0h10m25 0h10m28 0h10m28 0h10m65 0h300q5 0 5-5m-566 30q0 5 5 5h5m48 0h10m25 0h10m65 0h10m24 0h10m65 0h10m25 0h10m28 0h10m65 0h136q5 0 5-5m-566 30q0 5 5 5h5m65 0h10m29 0h10m28 0h10m28 0h10m65 0h296q5 0 5-5m-571-445q5 0 5 5v470q0 5 5 5h5m65 0h10m25 0h10m102 0h10m24 0h10m65 0h10m25 0h10m28 0h30m102 0h20m-137 0q5 0 5 5v20q0 5 5 5h5m65 0h42q5 0 5-5v-20q0-5 5-5m5 0h5q5 0 5-5v-470q0-5 5-5m5 0h5"/><a xlink:href="#integer"><rect class="r" x="25" y="5" width="65" height="25"/><text class="i" x="35" y="22">integer</text></a><rect class="l" x="100" y="5" width="33" height="25" rx="7"/><text class="i" x="110" y="22">%</text><a xlink:href="#integer"><rect class="r" x="143" y="5" width="65" height="25"/><text class="i" x="153" y="22">integer</text></a><rect class="l" x="218" y="5" width="28" height="25" rx="7"/><text class="i" x="228" y="22">»</text><a xlink:href="#integer"><rect class="r" x="256" y="5" width="65" height="25"/><text class="i" x="266" y="22">integer</text></a><a xlink:href="#integer"><rect class="r" x="25" y="35" width="65" height="25"/><text class="i" x="35" y="52">integer</text></a><rect class="l" x="100" y="35" width="28" height="25" rx="7"/><text class="i" x="110" y="52">*</text><a xlink:href="#integer"><rect class="r" x="138" y="35" width="65" height="25"/><text class="i" x="148" y="52">integer</text></a><rect class="l" x="213" y="35" width="28" height="25" rx="7"/><text class="i" x="223" y="52">»</text><a xlink:href="#integer"><rect class="r" x="251" y="35" width="65" height="25"/><text class="i" x="261" y="52">integer</text></a><a xlink:href="#fixed-decimal"><rect class="r" x="25" y="65" width="102" height="25"/><text class="i" x="35" y="82">fixed-decimal</text></a><rect class="l" x="137" y="65" width="28" height="25" rx="7"/><text class="i" x="147" y="82">*</text><a xlink:href="#integer"><rect class="r" x="175" y="65" width="65" height="25"/><text class="i" x="185" y="82">integer</text></a><rect class="l" x="250" y="65" width="28" height="25" rx="7"/><text class="i" x="260" y="82">»</text><a xlink:href="#fixed-decimal"><rect class="r" x="288" y="65" width="102" height="25"/><text class="i" x="298" y="82">fixed-decimal</text></a><a xlink:href="#integer"><rect class="r" x="25" y="95" width="65" height="25"/><text class="i" x="35" y="112">integer</text></a><rect class="l" x="100" y="95" width="29" height="25" rx="7"/><text class="i" x="110" y="112">+</text><a xlink:href="#integer"><rect class="r" x="139" y="95" width="65" height="25"/><text class="i" x="149" y="112">integer</text></a><rect class="l" x="214" y="95" width="28" height="25" rx="7"/><text class="i" x="224" y="112">»</text><a xlink:href="#integer"><rect class="r" x="252" y="95" width="65" height="25"/><text class="i" x="262" y="112">integer</text></a><a xlink:href="#fixed-decimal"><rect class="r" x="25" y="125" width="102" height="25"/><text class="i" x="35" y="142">fixed-decimal</text></a><rect class="l" x="137" y="125" width="29" height="25" rx="7"/><text class="i" x="147" y="142">+</text><a xlink:href="#fixed-decimal"><rect class="r" x="176" y="125" width="102" height="25"/><text class="i" x="186" y="142">fixed-decimal</text></a><rect class="l" x="288" y="125" width="28" height="25" rx="7"/><text class="i" x="298" y="142">»</text><a xlink:href="#fixed-decimal"><rect class="r" x="326" y="125" width="102" height="25"/><text class="i" x="336" y="142">fixed-decimal</text></a><a xlink:href="#integer"><rect class="r" x="25" y="155" width="65" height="25"/><text class="i" x="35" y="172">integer</text></a><rect class="l" x="100" y="155" width="25" height="25" rx="7"/><text class="i" x="110" y="172">-</text><a xlink:href="#integer"><rect class="r" x="135" y="155" width="65" height="25"/><text class="i" x="145" y="172">integer</text></a><rect class="l" x="210" y="155" width="28" height="25" rx="7"/><text class="i" x="220" y="172">»</text><a xlink:href="#integer"><rect class="r" x="248" y="155" width="65" height="25"/><text class="i" x="258" y="172">integer</text></a><a xlink:href="#fixed-decimal"><rect class="r" x="25" y="185" width="102" height="25"/><text class="i" x="35" y="202">fixed-decimal</text></a><rect class="l" x="137" y="185" width="25" height="25" rx="7"/><text class="i" x="147" y="202">-</text><a xlink:href="#fixed-decimal"><rect class="r" x="172" y="185" width="102" height="25"/><text class="i" x="182" y="202">fixed-decimal</text></a><rect class="l" x="284" y="185" width="28" height="25" rx="7"/><text class="i" x="294" y="202">»</text><a xlink:href="#fixed-decimal"><rect class="r" x="322" y="185" width="102" height="25"/><text class="i" x="332" y="202">fixed-decimal</text></a><a xlink:href="#integer"><rect class="r" x="25" y="215" width="65" height="25"/><text class="i" x="35" y="232">integer</text></a><rect class="l" x="100" y="215" width="25" height="25" rx="7"/><text class="i" x="110" y="232">/</text><a xlink:href="#integer"><rect class="r" x="135" y="215" width="65" height="25"/><text class="i" x="145" y="232">integer</text></a><rect class="l" x="210" y="215" width="28" height="25" rx="7"/><text class="i" x="220" y="232">»</text><a xlink:href="#integer"><rect class="r" x="248" y="215" width="65" height="25"/><text class="i" x="258" y="232">integer</text></a><a xlink:href="#fixed-decimal"><rect class="r" x="25" y="245" width="102" height="25"/><text class="i" x="35" y="262">fixed-decimal</text></a><rect class="l" x="137" y="245" width="25" height="25" rx="7"/><text class="i" x="147" y="262">/</text><a xlink:href="#integer"><rect class="r" x="172" y="245" width="65" height="25"/><text class="i" x="182" y="262">integer</text></a><rect class="l" x="247" y="245" width="28" height="25" rx="7"/><text class="i" x="257" y="262">»</text><a xlink:href="#fixed-decimal"><rect class="r" x="285" y="245" width="102" height="25"/><text class="i" x="295" y="262">fixed-decimal</text></a><rect class="l" x="25" y="275" width="43" height="25" rx="7"/><text class="i" x="35" y="292">abs</text><rect class="l" x="78" y="275" width="25" height="25" rx="7"/><text class="i" x="88" y="292">(</text><a xlink:href="#integer"><rect class="r" x="113" y="275" width="65" height="25"/><text class="i" x="123" y="292">integer</text></a><rect class="l" x="188" y="275" width="25" height="25" rx="7"/><text class="i" x="198" y="292">)</text><rect class="l" x="223" y="275" width="28" height="25" rx="7"/><text class="i" x="233" y="292">»</text><a xlink:href="#integer"><rect class="r" x="261" y="275" width="65" height="25"/><text class="i" x="271" y="292">integer</text></a><rect class="l" x="25" y="305" width="43" height="25" rx="7"/><text class="i" x="35" y="322">abs</text><rect class="l" x="78" y="305" width="25" height="25" rx="7"/><text class="i" x="88" y="322">(</text><a xlink:href="#fixed-decimal"><rect class="r" x="113" y="305" width="102" height="25"/><text class="i" x="123" y="322">fixed-decimal</text></a><rect class="l" x="225" y="305" width="25" height="25" rx="7"/><text class="i" x="235" y="322">)</text><rect class="l" x="260" y="305" width="28" height="25" rx="7"/><text class="i" x="270" y="322">»</text><a xlink:href="#fixed-decimal"><rect class="r" x="298" y="305" width="102" height="25"/><text class="i" x="308" y="322">fixed-decimal</text></a><a xlink:href="#set"><rect class="r" x="45" y="335" width="40" height="25"/><text class="i" x="55" y="352">set</text></a><a xlink:href="#vector"><rect class="r" x="45" y="365" width="59" height="25"/><text class="i" x="55" y="382">vector</text></a><rect class="l" x="134" y="335" width="24" height="25" rx="7"/><text class="i" x="144" y="352">.</text><rect class="l" x="168" y="335" width="65" height="25" rx="7"/><text class="i" x="178" y="352">count()</text><rect class="l" x="243" y="335" width="28" height="25" rx="7"/><text class="i" x="253" y="352">»</text><a xlink:href="#integer"><rect class="r" x="281" y="335" width="65" height="25"/><text class="i" x="291" y="352">integer</text></a><a xlink:href="#integer"><rect class="r" x="25" y="395" width="65" height="25"/><text class="i" x="35" y="412">integer</text></a><rect class="l" x="100" y="395" width="25" height="25" rx="7"/><text class="i" x="110" y="412">-</text><rect class="l" x="135" y="395" width="28" height="25" rx="7"/><text class="i" x="145" y="412">1</text><rect class="l" x="173" y="395" width="28" height="25" rx="7"/><text class="i" x="183" y="412">»</text><a xlink:href="#integer"><rect class="r" x="211" y="395" width="65" height="25"/><text class="i" x="221" y="412">integer</text></a><rect class="l" x="25" y="425" width="48" height="25" rx="7"/><text class="i" x="35" y="442">expt</text><rect class="l" x="83" y="425" width="25" height="25" rx="7"/><text class="i" x="93" y="442">(</text><a xlink:href="#integer"><rect class="r" x="118" y="425" width="65" height="25"/><text class="i" x="128" y="442">integer</text></a><rect class="l" x="193" y="425" width="24" height="25" rx="7"/><text class="i" x="203" y="442">,</text><a xlink:href="#integer"><rect class="r" x="227" y="425" width="65" height="25"/><text class="i" x="237" y="442">integer</text></a><rect class="l" x="302" y="425" width="25" height="25" rx="7"/><text class="i" x="312" y="442">)</text><rect class="l" x="337" y="425" width="28" height="25" rx="7"/><text class="i" x="347" y="442">»</text><a xlink:href="#integer"><rect class="r" x="375" y="425" width="65" height="25"/><text class="i" x="385" y="442">integer</text></a><a xlink:href="#integer"><rect class="r" x="25" y="455" width="65" height="25"/><text class="i" x="35" y="472">integer</text></a><rect class="l" x="100" y="455" width="29" height="25" rx="7"/><text class="i" x="110" y="472">+</text><rect class="l" x="139" y="455" width="28" height="25" rx="7"/><text class="i" x="149" y="472">1</text><rect class="l" x="177" y="455" width="28" height="25" rx="7"/><text class="i" x="187" y="472">»</text><a xlink:href="#integer"><rect class="r" x="215" y="455" width="65" height="25"/><text class="i" x="225" y="472">integer</text></a><rect class="l" x="25" y="485" width="65" height="25" rx="7"/><text class="i" x="35" y="502">rescale</text><rect class="l" x="100" y="485" width="25" height="25" rx="7"/><text class="i" x="110" y="502">(</text><a xlink:href="#fixed-decimal"><rect class="r" x="135" y="485" width="102" height="25"/><text class="i" x="145" y="502">fixed-decimal</text></a><rect class="l" x="247" y="485" width="24" height="25" rx="7"/><text class="i" x="257" y="502">,</text><a xlink:href="#integer"><rect class="r" x="281" y="485" width="65" height="25"/><text class="i" x="291" y="502">integer</text></a><rect class="l" x="356" y="485" width="25" height="25" rx="7"/><text class="i" x="366" y="502">)</text><rect class="l" x="391" y="485" width="28" height="25" rx="7"/><text class="i" x="401" y="502">»</text><a xlink:href="#fixed-decimal"><rect class="r" x="449" y="485" width="102" height="25"/><text class="i" x="459" y="502">fixed-decimal</text></a><a xlink:href="#integer"><rect class="r" x="449" y="515" width="65" height="25"/><text class="i" x="459" y="532">integer</text></a></svg>