<svg version="1.1" xmlns:xlink="http://www.w3.org/1999/xlink" xmlns="http://www.w3.org/2000/svg" width="519" height="845" viewbox="0 0 519 845"><defs><style type="text/css">.c{fill: none; stroke: #888888; stroke-width: 2px;}.i{fill:#000000;font-family:Verdana,Sans-serif;font-size:12px;}.l{fill:#90d9ff;stroke:#222222;}.r{fill:#d3f0ff;stroke:#222222;}</style></defs><path class="c" d="M0 18h25m52 0h10m35 0h10m52 0h10m28 0h10m66 0h216m-499 25q0 5 5 5h5m62 0h10m33 0h10m62 0h10m28 0h10m62 0h187q5 0 5-5m-489 30q0 5 5 5h5m62 0h10m28 0h10m62 0h10m28 0h10m62 0h192q5 0 5-5m-489 30q0 5 5 5h5m98 0h10m28 0h10m62 0h10m28 0h10m98 0h120q5 0 5-5m-489 30q0 5 5 5h5m62 0h10m30 0h10m62 0h10m28 0h10m62 0h190q5 0 5-5m-489 30q0 5 5 5h5m98 0h10m30 0h10m98 0h10m28 0h10m98 0h82q5 0 5-5m-489 30q0 5 5 5h5m62 0h10m25 0h10m62 0h10m28 0h10m62 0h195q5 0 5-5m-489 30q0 5 5 5h5m98 0h10m25 0h10m98 0h10m28 0h10m98 0h87q5 0 5-5m-489 30q0 5 5 5h5m62 0h10m25 0h10m62 0h10m28 0h10m62 0h195q5 0 5-5m-489 30q0 5 5 5h5m98 0h10m25 0h10m62 0h10m28 0h10m98 0h123q5 0 5-5m-489 30q0 5 5 5h25m62 0h10m30 0h10m62 0h92m-281 0q5 0 5 5v20q0 5 5 5h5m98 0h10m30 0h10m98 0h5q5 0 5-5v-20q0-5 5-5m5 0h10m28 0h10m66 0h74q5 0 5-5m-489 60q0 5 5 5h25m62 0h10m40 0h10m62 0h92m-291 0q5 0 5 5v20q0 5 5 5h5m98 0h10m40 0h10m98 0h5q5 0 5-5v-20q0-5 5-5m5 0h10m28 0h10m66 0h64q5 0 5-5m-489 60q0 5 5 5h5m52 0h10m40 0h10m52 0h10m28 0h10m66 0h196q5 0 5-5m-489 30q0 5 5 5h25m62 0h10m30 0h10m62 0h92m-281 0q5 0 5 5v20q0 5 5 5h5m98 0h10m30 0h10m98 0h5q5 0 5-5v-20q0-5 5-5m5 0h10m28 0h10m66 0h74q5 0 5-5m-489 60q0 5 5 5h25m62 0h10m40 0h10m62 0h92m-291 0q5 0 5 5v20q0 5 5 5h5m98 0h10m40 0h10m98 0h5q5 0 5-5v-20q0-5 5-5m5 0h10m28 0h10m66 0h64q5 0 5-5m-489 60q0 5 5 5h5m40 0h10m25 0h10m62 0h10m25 0h10m28 0h10m62 0h182q5 0 5-5m-489 30q0 5 5 5h5m40 0h10m25 0h10m98 0h10m25 0h10m28 0h10m98 0h110q5 0 5-5m-489 30q0 5 5 5h5m62 0h10m25 0h10m28 0h10m28 0h10m62 0h229q5 0 5-5m-489 60q0 5 5 5h5m66 0h10m25 0h10m52 0h10m24 0h30m-5 0q-5 0-5-5v-20q0-5 5-5h19m24 0h19q5 0 5 5v20q0 5-5 5m-5 0h30m25 0h10m28 0h10m66 0h26q5 0 5-5m-489 30q0 5 5 5h5m46 0h10m25 0h10m62 0h10m24 0h10m62 0h10m25 0h10m28 0h10m62 0h70q5 0 5-5m-489 30q0 5 5 5h5m62 0h10m30 0h10m28 0h10m28 0h10m62 0h224q5 0 5-5m-494-745q5 0 5 5v800q0 5 5 5h5m87 0h10m25 0h10m52 0h10m24 0h30m-5 0q-5 0-5-5v-20q0-5 5-5h19m24 0h19q5 0 5 5v20q0 5-5 5m-5 0h30m25 0h10m28 0h10m66 0h5q5 0 5-5v-800q0-5 5-5m5 0h5"/><a xlink:href="#value"><rect class="r" x="25" y="5" width="52" height="25"/><text class="i" x="35" y="22">value</text></a><rect class="l" x="87" y="5" width="35" height="25" rx="7"/><text class="i" x="97" y="22">!=</text><a xlink:href="#value"><rect class="r" x="132" y="5" width="52" height="25"/><text class="i" x="142" y="22">value</text></a><rect class="l" x="194" y="5" width="28" height="25" rx="7"/><text class="i" x="204" y="22">»</text><a xlink:href="#boolean"><rect class="r" x="232" y="5" width="66" height="25"/><text class="i" x="242" y="22">boolean</text></a><a xlink:href="#integer"><rect class="r" x="25" y="35" width="62" height="25"/><text class="i" x="35" y="52">integer</text></a><rect class="l" x="97" y="35" width="33" height="25" rx="7"/><text class="i" x="107" y="52">%</text><a xlink:href="#integer"><rect class="r" x="140" y="35" width="62" height="25"/><text class="i" x="150" y="52">integer</text></a><rect class="l" x="212" y="35" width="28" height="25" rx="7"/><text class="i" x="222" y="52">»</text><a xlink:href="#integer"><rect class="r" x="250" y="35" width="62" height="25"/><text class="i" x="260" y="52">integer</text></a><a xlink:href="#integer"><rect class="r" x="25" y="65" width="62" height="25"/><text class="i" x="35" y="82">integer</text></a><rect class="l" x="97" y="65" width="28" height="25" rx="7"/><text class="i" x="107" y="82">*</text><a xlink:href="#integer"><rect class="r" x="135" y="65" width="62" height="25"/><text class="i" x="145" y="82">integer</text></a><rect class="l" x="207" y="65" width="28" height="25" rx="7"/><text class="i" x="217" y="82">»</text><a xlink:href="#integer"><rect class="r" x="245" y="65" width="62" height="25"/><text class="i" x="255" y="82">integer</text></a><a xlink:href="#fixed-decimal"><rect class="r" x="25" y="95" width="98" height="25"/><text class="i" x="35" y="112">fixed-decimal</text></a><rect class="l" x="133" y="95" width="28" height="25" rx="7"/><text class="i" x="143" y="112">*</text><a xlink:href="#integer"><rect class="r" x="171" y="95" width="62" height="25"/><text class="i" x="181" y="112">integer</text></a><rect class="l" x="243" y="95" width="28" height="25" rx="7"/><text class="i" x="253" y="112">»</text><a xlink:href="#fixed-decimal"><rect class="r" x="281" y="95" width="98" height="25"/><text class="i" x="291" y="112">fixed-decimal</text></a><a xlink:href="#integer"><rect class="r" x="25" y="125" width="62" height="25"/><text class="i" x="35" y="142">integer</text></a><rect class="l" x="97" y="125" width="30" height="25" rx="7"/><text class="i" x="107" y="142">+</text><a xlink:href="#integer"><rect class="r" x="137" y="125" width="62" height="25"/><text class="i" x="147" y="142">integer</text></a><rect class="l" x="209" y="125" width="28" height="25" rx="7"/><text class="i" x="219" y="142">»</text><a xlink:href="#integer"><rect class="r" x="247" y="125" width="62" height="25"/><text class="i" x="257" y="142">integer</text></a><a xlink:href="#fixed-decimal"><rect class="r" x="25" y="155" width="98" height="25"/><text class="i" x="35" y="172">fixed-decimal</text></a><rect class="l" x="133" y="155" width="30" height="25" rx="7"/><text class="i" x="143" y="172">+</text><a xlink:href="#fixed-decimal"><rect class="r" x="173" y="155" width="98" height="25"/><text class="i" x="183" y="172">fixed-decimal</text></a><rect class="l" x="281" y="155" width="28" height="25" rx="7"/><text class="i" x="291" y="172">»</text><a xlink:href="#fixed-decimal"><rect class="r" x="319" y="155" width="98" height="25"/><text class="i" x="329" y="172">fixed-decimal</text></a><a xlink:href="#integer"><rect class="r" x="25" y="185" width="62" height="25"/><text class="i" x="35" y="202">integer</text></a><rect class="l" x="97" y="185" width="25" height="25" rx="7"/><text class="i" x="107" y="202">-</text><a xlink:href="#integer"><rect class="r" x="132" y="185" width="62" height="25"/><text class="i" x="142" y="202">integer</text></a><rect class="l" x="204" y="185" width="28" height="25" rx="7"/><text class="i" x="214" y="202">»</text><a xlink:href="#integer"><rect class="r" x="242" y="185" width="62" height="25"/><text class="i" x="252" y="202">integer</text></a><a xlink:href="#fixed-decimal"><rect class="r" x="25" y="215" width="98" height="25"/><text class="i" x="35" y="232">fixed-decimal</text></a><rect class="l" x="133" y="215" width="25" height="25" rx="7"/><text class="i" x="143" y="232">-</text><a xlink:href="#fixed-decimal"><rect class="r" x="168" y="215" width="98" height="25"/><text class="i" x="178" y="232">fixed-decimal</text></a><rect class="l" x="276" y="215" width="28" height="25" rx="7"/><text class="i" x="286" y="232">»</text><a xlink:href="#fixed-decimal"><rect class="r" x="314" y="215" width="98" height="25"/><text class="i" x="324" y="232">fixed-decimal</text></a><a xlink:href="#integer"><rect class="r" x="25" y="245" width="62" height="25"/><text class="i" x="35" y="262">integer</text></a><rect class="l" x="97" y="245" width="25" height="25" rx="7"/><text class="i" x="107" y="262">/</text><a xlink:href="#integer"><rect class="r" x="132" y="245" width="62" height="25"/><text class="i" x="142" y="262">integer</text></a><rect class="l" x="204" y="245" width="28" height="25" rx="7"/><text class="i" x="214" y="262">»</text><a xlink:href="#integer"><rect class="r" x="242" y="245" width="62" height="25"/><text class="i" x="252" y="262">integer</text></a><a xlink:href="#fixed-decimal"><rect class="r" x="25" y="275" width="98" height="25"/><text class="i" x="35" y="292">fixed-decimal</text></a><rect class="l" x="133" y="275" width="25" height="25" rx="7"/><text class="i" x="143" y="292">/</text><a xlink:href="#integer"><rect class="r" x="168" y="275" width="62" height="25"/><text class="i" x="178" y="292">integer</text></a><rect class="l" x="240" y="275" width="28" height="25" rx="7"/><text class="i" x="250" y="292">»</text><a xlink:href="#fixed-decimal"><rect class="r" x="278" y="275" width="98" height="25"/><text class="i" x="288" y="292">fixed-decimal</text></a><a xlink:href="#integer"><rect class="r" x="45" y="305" width="62" height="25"/><text class="i" x="55" y="322">integer</text></a><rect class="l" x="117" y="305" width="30" height="25" rx="7"/><text class="i" x="127" y="322">&lt;</text><a xlink:href="#integer"><rect class="r" x="157" y="305" width="62" height="25"/><text class="i" x="167" y="322">integer</text></a><a xlink:href="#fixed-decimal"><rect class="r" x="45" y="335" width="98" height="25"/><text class="i" x="55" y="352">fixed-decimal</text></a><rect class="l" x="153" y="335" width="30" height="25" rx="7"/><text class="i" x="163" y="352">&lt;</text><a xlink:href="#fixed-decimal"><rect class="r" x="193" y="335" width="98" height="25"/><text class="i" x="203" y="352">fixed-decimal</text></a><rect class="l" x="321" y="305" width="28" height="25" rx="7"/><text class="i" x="331" y="322">»</text><a xlink:href="#boolean"><rect class="r" x="359" y="305" width="66" height="25"/><text class="i" x="369" y="322">boolean</text></a><a xlink:href="#integer"><rect class="r" x="45" y="365" width="62" height="25"/><text class="i" x="55" y="382">integer</text></a><rect class="l" x="117" y="365" width="40" height="25" rx="7"/><text class="i" x="127" y="382">&lt;=</text><a xlink:href="#integer"><rect class="r" x="167" y="365" width="62" height="25"/><text class="i" x="177" y="382">integer</text></a><a xlink:href="#fixed-decimal"><rect class="r" x="45" y="395" width="98" height="25"/><text class="i" x="55" y="412">fixed-decimal</text></a><rect class="l" x="153" y="395" width="40" height="25" rx="7"/><text class="i" x="163" y="412">&lt;=</text><a xlink:href="#fixed-decimal"><rect class="r" x="203" y="395" width="98" height="25"/><text class="i" x="213" y="412">fixed-decimal</text></a><rect class="l" x="331" y="365" width="28" height="25" rx="7"/><text class="i" x="341" y="382">»</text><a xlink:href="#boolean"><rect class="r" x="369" y="365" width="66" height="25"/><text class="i" x="379" y="382">boolean</text></a><a xlink:href="#value"><rect class="r" x="25" y="425" width="52" height="25"/><text class="i" x="35" y="442">value</text></a><rect class="l" x="87" y="425" width="40" height="25" rx="7"/><text class="i" x="97" y="442">==</text><a xlink:href="#value"><rect class="r" x="137" y="425" width="52" height="25"/><text class="i" x="147" y="442">value</text></a><rect class="l" x="199" y="425" width="28" height="25" rx="7"/><text class="i" x="209" y="442">»</text><a xlink:href="#boolean"><rect class="r" x="237" y="425" width="66" height="25"/><text class="i" x="247" y="442">boolean</text></a><a xlink:href="#integer"><rect class="r" x="45" y="455" width="62" height="25"/><text class="i" x="55" y="472">integer</text></a><rect class="l" x="117" y="455" width="30" height="25" rx="7"/><text class="i" x="127" y="472">&gt;</text><a xlink:href="#integer"><rect class="r" x="157" y="455" width="62" height="25"/><text class="i" x="167" y="472">integer</text></a><a xlink:href="#fixed-decimal"><rect class="r" x="45" y="485" width="98" height="25"/><text class="i" x="55" y="502">fixed-decimal</text></a><rect class="l" x="153" y="485" width="30" height="25" rx="7"/><text class="i" x="163" y="502">&gt;</text><a xlink:href="#fixed-decimal"><rect class="r" x="193" y="485" width="98" height="25"/><text class="i" x="203" y="502">fixed-decimal</text></a><rect class="l" x="321" y="455" width="28" height="25" rx="7"/><text class="i" x="331" y="472">»</text><a xlink:href="#boolean"><rect class="r" x="359" y="455" width="66" height="25"/><text class="i" x="369" y="472">boolean</text></a><a xlink:href="#integer"><rect class="r" x="45" y="515" width="62" height="25"/><text class="i" x="55" y="532">integer</text></a><rect class="l" x="117" y="515" width="40" height="25" rx="7"/><text class="i" x="127" y="532">&gt;=</text><a xlink:href="#integer"><rect class="r" x="167" y="515" width="62" height="25"/><text class="i" x="177" y="532">integer</text></a><a xlink:href="#fixed-decimal"><rect class="r" x="45" y="545" width="98" height="25"/><text class="i" x="55" y="562">fixed-decimal</text></a><rect class="l" x="153" y="545" width="40" height="25" rx="7"/><text class="i" x="163" y="562">&gt;=</text><a xlink:href="#fixed-decimal"><rect class="r" x="203" y="545" width="98" height="25"/><text class="i" x="213" y="562">fixed-decimal</text></a><rect class="l" x="331" y="515" width="28" height="25" rx="7"/><text class="i" x="341" y="532">»</text><a xlink:href="#boolean"><rect class="r" x="369" y="515" width="66" height="25"/><text class="i" x="379" y="532">boolean</text></a><rect class="l" x="25" y="575" width="40" height="25" rx="7"/><text class="i" x="35" y="592">abs</text><rect class="l" x="75" y="575" width="25" height="25" rx="7"/><text class="i" x="85" y="592">(</text><a xlink:href="#integer"><rect class="r" x="110" y="575" width="62" height="25"/><text class="i" x="120" y="592">integer</text></a><rect class="l" x="182" y="575" width="25" height="25" rx="7"/><text class="i" x="192" y="592">)</text><rect class="l" x="217" y="575" width="28" height="25" rx="7"/><text class="i" x="227" y="592">»</text><a xlink:href="#integer"><rect class="r" x="255" y="575" width="62" height="25"/><text class="i" x="265" y="592">integer</text></a><rect class="l" x="25" y="605" width="40" height="25" rx="7"/><text class="i" x="35" y="622">abs</text><rect class="l" x="75" y="605" width="25" height="25" rx="7"/><text class="i" x="85" y="622">(</text><a xlink:href="#fixed-decimal"><rect class="r" x="110" y="605" width="98" height="25"/><text class="i" x="120" y="622">fixed-decimal</text></a><rect class="l" x="218" y="605" width="25" height="25" rx="7"/><text class="i" x="228" y="622">)</text><rect class="l" x="253" y="605" width="28" height="25" rx="7"/><text class="i" x="263" y="622">»</text><a xlink:href="#fixed-decimal"><rect class="r" x="291" y="605" width="98" height="25"/><text class="i" x="301" y="622">fixed-decimal</text></a><a xlink:href="#integer"><rect class="r" x="25" y="635" width="62" height="25"/><text class="i" x="35" y="652">integer</text></a><rect class="l" x="97" y="635" width="25" height="25" rx="7"/><text class="i" x="107" y="652">-</text><rect class="l" x="132" y="635" width="28" height="25" rx="7"/><text class="i" x="142" y="652">1</text><rect class="l" x="170" y="635" width="28" height="25" rx="7"/><text class="i" x="180" y="652">»</text><a xlink:href="#integer"><rect class="r" x="208" y="635" width="62" height="25"/><text class="i" x="218" y="652">integer</text></a><rect class="l" x="25" y="695" width="66" height="25" rx="7"/><text class="i" x="35" y="712">equalTo</text><rect class="l" x="101" y="695" width="25" height="25" rx="7"/><text class="i" x="111" y="712">(</text><a xlink:href="#value"><rect class="r" x="136" y="695" width="52" height="25"/><text class="i" x="146" y="712">value</text></a><rect class="l" x="198" y="695" width="24" height="25" rx="7"/><text class="i" x="208" y="712">,</text><rect class="l" x="266" y="665" width="24" height="25" rx="7"/><text class="i" x="276" y="682">,</text><a xlink:href="#value"><rect class="r" x="252" y="695" width="52" height="25"/><text class="i" x="262" y="712">value</text></a><rect class="l" x="334" y="695" width="25" height="25" rx="7"/><text class="i" x="344" y="712">)</text><rect class="l" x="369" y="695" width="28" height="25" rx="7"/><text class="i" x="379" y="712">»</text><a xlink:href="#boolean"><rect class="r" x="407" y="695" width="66" height="25"/><text class="i" x="417" y="712">boolean</text></a><rect class="l" x="25" y="725" width="46" height="25" rx="7"/><text class="i" x="35" y="742">expt</text><rect class="l" x="81" y="725" width="25" height="25" rx="7"/><text class="i" x="91" y="742">(</text><a xlink:href="#integer"><rect class="r" x="116" y="725" width="62" height="25"/><text class="i" x="126" y="742">integer</text></a><rect class="l" x="188" y="725" width="24" height="25" rx="7"/><text class="i" x="198" y="742">,</text><a xlink:href="#integer"><rect class="r" x="222" y="725" width="62" height="25"/><text class="i" x="232" y="742">integer</text></a><rect class="l" x="294" y="725" width="25" height="25" rx="7"/><text class="i" x="304" y="742">)</text><rect class="l" x="329" y="725" width="28" height="25" rx="7"/><text class="i" x="339" y="742">»</text><a xlink:href="#integer"><rect class="r" x="367" y="725" width="62" height="25"/><text class="i" x="377" y="742">integer</text></a><a xlink:href="#integer"><rect class="r" x="25" y="755" width="62" height="25"/><text class="i" x="35" y="772">integer</text></a><rect class="l" x="97" y="755" width="30" height="25" rx="7"/><text class="i" x="107" y="772">+</text><rect class="l" x="137" y="755" width="28" height="25" rx="7"/><text class="i" x="147" y="772">1</text><rect class="l" x="175" y="755" width="28" height="25" rx="7"/><text class="i" x="185" y="772">»</text><a xlink:href="#integer"><rect class="r" x="213" y="755" width="62" height="25"/><text class="i" x="223" y="772">integer</text></a><rect class="l" x="25" y="815" width="87" height="25" rx="7"/><text class="i" x="35" y="832">notEqualTo</text><rect class="l" x="122" y="815" width="25" height="25" rx="7"/><text class="i" x="132" y="832">(</text><a xlink:href="#value"><rect class="r" x="157" y="815" width="52" height="25"/><text class="i" x="167" y="832">value</text></a><rect class="l" x="219" y="815" width="24" height="25" rx="7"/><text class="i" x="229" y="832">,</text><rect class="l" x="287" y="785" width="24" height="25" rx="7"/><text class="i" x="297" y="802">,</text><a xlink:href="#value"><rect class="r" x="273" y="815" width="52" height="25"/><text class="i" x="283" y="832">value</text></a><rect class="l" x="355" y="815" width="25" height="25" rx="7"/><text class="i" x="365" y="832">)</text><rect class="l" x="390" y="815" width="28" height="25" rx="7"/><text class="i" x="400" y="832">»</text><a xlink:href="#boolean"><rect class="r" x="428" y="815" width="66" height="25"/><text class="i" x="438" y="832">boolean</text></a></svg>