<svg version="1.1" xmlns:xlink="http://www.w3.org/1999/xlink" xmlns="http://www.w3.org/2000/svg" width="532" height="845" viewbox="0 0 532 845"><defs><style type="text/css">.c{fill:none;stroke:#222222;}.i{fill:#000000;font-family:Verdana,Sans-serif;font-size:12px;}.l{fill:#90d9ff;stroke:#222222;}.r{fill:#d3f0ff;stroke:#222222;}</style></defs><path class="c" d="M0 22h25m65 0h10m33 0h10m65 0h10m28 0h10m65 0h206m-512 25q0 5 5 5h5m65 0h10m28 0h10m65 0h10m28 0h10m65 0h196q5 0 5-5m-502 30q0 5 5 5h5m102 0h10m28 0h10m65 0h10m28 0h10m102 0h122q5 0 5-5m-502 30q0 5 5 5h5m65 0h10m29 0h10m65 0h10m28 0h10m65 0h195q5 0 5-5m-502 30q0 5 5 5h5m102 0h10m29 0h10m102 0h10m28 0h10m102 0h84q5 0 5-5m-502 30q0 5 5 5h5m65 0h10m25 0h10m65 0h10m28 0h10m65 0h199q5 0 5-5m-502 30q0 5 5 5h5m102 0h10m25 0h10m102 0h10m28 0h10m102 0h88q5 0 5-5m-502 30q0 5 5 5h5m65 0h10m25 0h10m65 0h10m28 0h10m65 0h199q5 0 5-5m-502 30q0 5 5 5h5m102 0h10m25 0h10m65 0h10m28 0h10m102 0h125q5 0 5-5m-502 30q0 5 5 5h25m65 0h10m29 0h10m65 0h94m-288 0q5 0 5 5v20q0 5 5 5h5m102 0h10m29 0h10m102 0h5q5 0 5-5v-20q0-5 5-5m5 0h10m28 0h10m71 0h75q5 0 5-5m-502 60q0 5 5 5h25m65 0h10m38 0h10m65 0h94m-297 0q5 0 5 5v20q0 5 5 5h5m102 0h10m38 0h10m102 0h5q5 0 5-5v-20q0-5 5-5m5 0h10m28 0h10m71 0h66q5 0 5-5m-502 60q0 5 5 5h25m65 0h10m29 0h10m65 0h94m-288 0q5 0 5 5v20q0 5 5 5h5m102 0h10m29 0h10m102 0h5q5 0 5-5v-20q0-5 5-5m5 0h10m28 0h10m71 0h75q5 0 5-5m-502 60q0 5 5 5h25m65 0h10m38 0h10m65 0h94m-297 0q5 0 5 5v20q0 5 5 5h5m102 0h10m38 0h10m102 0h5q5 0 5-5v-20q0-5 5-5m5 0h10m28 0h10m71 0h66q5 0 5-5m-502 60q0 5 5 5h5m43 0h10m25 0h10m65 0h10m25 0h10m28 0h10m65 0h186q5 0 5-5m-502 30q0 5 5 5h5m43 0h10m25 0h10m102 0h10m25 0h10m28 0h10m102 0h112q5 0 5-5m-502 30q0 5 5 5h5m65 0h10m25 0h10m28 0h10m28 0h10m65 0h236q5 0 5-5m-502 30q0 5 5 5h5m54 0h10m38 0h10m54 0h10m28 0h10m71 0h202q5 0 5-5m-502 60q0 5 5 5h5m70 0h10m25 0h10m54 0h10m24 0h30m-5 0q-5 0-5-5v-20q0-5 5-5h20m24 0h20q5 0 5 5v20q0 5-5 5m-5 0h30m25 0h10m28 0h10m71 0h26q5 0 5-5m-502 30q0 5 5 5h5m48 0h10m25 0h10m65 0h10m24 0h10m65 0h10m25 0h10m28 0h10m65 0h72q5 0 5-5m-502 30q0 5 5 5h5m65 0h10m29 0h10m28 0h10m28 0h10m65 0h232q5 0 5-5m-502 30q0 5 5 5h5m54 0h10m34 0h10m54 0h10m28 0h10m71 0h206q5 0 5-5m-507-745q5 0 5 5v800q0 5 5 5h5m91 0h10m25 0h10m54 0h10m24 0h30m-5 0q-5 0-5-5v-20q0-5 5-5h20m24 0h20q5 0 5 5v20q0 5-5 5m-5 0h30m25 0h10m28 0h10m71 0h5q5 0 5-5v-800q0-5 5-5m5 0h5"/><a xlink:href="#integer"><rect class="r" x="25" y="5" width="65" height="25"/><text class="i" x="35" y="22">integer</text></a><rect class="l" x="100" y="5" width="33" height="25" rx="7"/><text class="i" x="110" y="22">%</text><a xlink:href="#integer"><rect class="r" x="143" y="5" width="65" height="25"/><text class="i" x="153" y="22">integer</text></a><rect class="l" x="218" y="5" width="28" height="25" rx="7"/><text class="i" x="228" y="22">»</text><a xlink:href="#integer"><rect class="r" x="256" y="5" width="65" height="25"/><text class="i" x="266" y="22">integer</text></a><a xlink:href="#integer"><rect class="r" x="25" y="35" width="65" height="25"/><text class="i" x="35" y="52">integer</text></a><rect class="l" x="100" y="35" width="28" height="25" rx="7"/><text class="i" x="110" y="52">*</text><a xlink:href="#integer"><rect class="r" x="138" y="35" width="65" height="25"/><text class="i" x="148" y="52">integer</text></a><rect class="l" x="213" y="35" width="28" height="25" rx="7"/><text class="i" x="223" y="52">»</text><a xlink:href="#integer"><rect class="r" x="251" y="35" width="65" height="25"/><text class="i" x="261" y="52">integer</text></a><a xlink:href="#fixed-decimal"><rect class="r" x="25" y="65" width="102" height="25"/><text class="i" x="35" y="82">fixed-decimal</text></a><rect class="l" x="137" y="65" width="28" height="25" rx="7"/><text class="i" x="147" y="82">*</text><a xlink:href="#integer"><rect class="r" x="175" y="65" width="65" height="25"/><text class="i" x="185" y="82">integer</text></a><rect class="l" x="250" y="65" width="28" height="25" rx="7"/><text class="i" x="260" y="82">»</text><a xlink:href="#fixed-decimal"><rect class="r" x="288" y="65" width="102" height="25"/><text class="i" x="298" y="82">fixed-decimal</text></a><a xlink:href="#integer"><rect class="r" x="25" y="95" width="65" height="25"/><text class="i" x="35" y="112">integer</text></a><rect class="l" x="100" y="95" width="29" height="25" rx="7"/><text class="i" x="110" y="112">+</text><a xlink:href="#integer"><rect class="r" x="139" y="95" width="65" height="25"/><text class="i" x="149" y="112">integer</text></a><rect class="l" x="214" y="95" width="28" height="25" rx="7"/><text class="i" x="224" y="112">»</text><a xlink:href="#integer"><rect class="r" x="252" y="95" width="65" height="25"/><text class="i" x="262" y="112">integer</text></a><a xlink:href="#fixed-decimal"><rect class="r" x="25" y="125" width="102" height="25"/><text class="i" x="35" y="142">fixed-decimal</text></a><rect class="l" x="137" y="125" width="29" height="25" rx="7"/><text class="i" x="147" y="142">+</text><a xlink:href="#fixed-decimal"><rect class="r" x="176" y="125" width="102" height="25"/><text class="i" x="186" y="142">fixed-decimal</text></a><rect class="l" x="288" y="125" width="28" height="25" rx="7"/><text class="i" x="298" y="142">»</text><a xlink:href="#fixed-decimal"><rect class="r" x="326" y="125" width="102" height="25"/><text class="i" x="336" y="142">fixed-decimal</text></a><a xlink:href="#integer"><rect class="r" x="25" y="155" width="65" height="25"/><text class="i" x="35" y="172">integer</text></a><rect class="l" x="100" y="155" width="25" height="25" rx="7"/><text class="i" x="110" y="172">-</text><a xlink:href="#integer"><rect class="r" x="135" y="155" width="65" height="25"/><text class="i" x="145" y="172">integer</text></a><rect class="l" x="210" y="155" width="28" height="25" rx="7"/><text class="i" x="220" y="172">»</text><a xlink:href="#integer"><rect class="r" x="248" y="155" width="65" height="25"/><text class="i" x="258" y="172">integer</text></a><a xlink:href="#fixed-decimal"><rect class="r" x="25" y="185" width="102" height="25"/><text class="i" x="35" y="202">fixed-decimal</text></a><rect class="l" x="137" y="185" width="25" height="25" rx="7"/><text class="i" x="147" y="202">-</text><a xlink:href="#fixed-decimal"><rect class="r" x="172" y="185" width="102" height="25"/><text class="i" x="182" y="202">fixed-decimal</text></a><rect class="l" x="284" y="185" width="28" height="25" rx="7"/><text class="i" x="294" y="202">»</text><a xlink:href="#fixed-decimal"><rect class="r" x="322" y="185" width="102" height="25"/><text class="i" x="332" y="202">fixed-decimal</text></a><a xlink:href="#integer"><rect class="r" x="25" y="215" width="65" height="25"/><text class="i" x="35" y="232">integer</text></a><rect class="l" x="100" y="215" width="25" height="25" rx="7"/><text class="i" x="110" y="232">/</text><a xlink:href="#integer"><rect class="r" x="135" y="215" width="65" height="25"/><text class="i" x="145" y="232">integer</text></a><rect class="l" x="210" y="215" width="28" height="25" rx="7"/><text class="i" x="220" y="232">»</text><a xlink:href="#integer"><rect class="r" x="248" y="215" width="65" height="25"/><text class="i" x="258" y="232">integer</text></a><a xlink:href="#fixed-decimal"><rect class="r" x="25" y="245" width="102" height="25"/><text class="i" x="35" y="262">fixed-decimal</text></a><rect class="l" x="137" y="245" width="25" height="25" rx="7"/><text class="i" x="147" y="262">/</text><a xlink:href="#integer"><rect class="r" x="172" y="245" width="65" height="25"/><text class="i" x="182" y="262">integer</text></a><rect class="l" x="247" y="245" width="28" height="25" rx="7"/><text class="i" x="257" y="262">»</text><a xlink:href="#fixed-decimal"><rect class="r" x="285" y="245" width="102" height="25"/><text class="i" x="295" y="262">fixed-decimal</text></a><a xlink:href="#integer"><rect class="r" x="45" y="275" width="65" height="25"/><text class="i" x="55" y="292">integer</text></a><rect class="l" x="120" y="275" width="29" height="25" rx="7"/><text class="i" x="130" y="292">&lt;</text><a xlink:href="#integer"><rect class="r" x="159" y="275" width="65" height="25"/><text class="i" x="169" y="292">integer</text></a><a xlink:href="#fixed-decimal"><rect class="r" x="45" y="305" width="102" height="25"/><text class="i" x="55" y="322">fixed-decimal</text></a><rect class="l" x="157" y="305" width="29" height="25" rx="7"/><text class="i" x="167" y="322">&lt;</text><a xlink:href="#fixed-decimal"><rect class="r" x="196" y="305" width="102" height="25"/><text class="i" x="206" y="322">fixed-decimal</text></a><rect class="l" x="328" y="275" width="28" height="25" rx="7"/><text class="i" x="338" y="292">»</text><a xlink:href="#boolean"><rect class="r" x="366" y="275" width="71" height="25"/><text class="i" x="376" y="292">boolean</text></a><a xlink:href="#integer"><rect class="r" x="45" y="335" width="65" height="25"/><text class="i" x="55" y="352">integer</text></a><rect class="l" x="120" y="335" width="38" height="25" rx="7"/><text class="i" x="130" y="352">&lt;=</text><a xlink:href="#integer"><rect class="r" x="168" y="335" width="65" height="25"/><text class="i" x="178" y="352">integer</text></a><a xlink:href="#fixed-decimal"><rect class="r" x="45" y="365" width="102" height="25"/><text class="i" x="55" y="382">fixed-decimal</text></a><rect class="l" x="157" y="365" width="38" height="25" rx="7"/><text class="i" x="167" y="382">&lt;=</text><a xlink:href="#fixed-decimal"><rect class="r" x="205" y="365" width="102" height="25"/><text class="i" x="215" y="382">fixed-decimal</text></a><rect class="l" x="337" y="335" width="28" height="25" rx="7"/><text class="i" x="347" y="352">»</text><a xlink:href="#boolean"><rect class="r" x="375" y="335" width="71" height="25"/><text class="i" x="385" y="352">boolean</text></a><a xlink:href="#integer"><rect class="r" x="45" y="395" width="65" height="25"/><text class="i" x="55" y="412">integer</text></a><rect class="l" x="120" y="395" width="29" height="25" rx="7"/><text class="i" x="130" y="412">&gt;</text><a xlink:href="#integer"><rect class="r" x="159" y="395" width="65" height="25"/><text class="i" x="169" y="412">integer</text></a><a xlink:href="#fixed-decimal"><rect class="r" x="45" y="425" width="102" height="25"/><text class="i" x="55" y="442">fixed-decimal</text></a><rect class="l" x="157" y="425" width="29" height="25" rx="7"/><text class="i" x="167" y="442">&gt;</text><a xlink:href="#fixed-decimal"><rect class="r" x="196" y="425" width="102" height="25"/><text class="i" x="206" y="442">fixed-decimal</text></a><rect class="l" x="328" y="395" width="28" height="25" rx="7"/><text class="i" x="338" y="412">»</text><a xlink:href="#boolean"><rect class="r" x="366" y="395" width="71" height="25"/><text class="i" x="376" y="412">boolean</text></a><a xlink:href="#integer"><rect class="r" x="45" y="455" width="65" height="25"/><text class="i" x="55" y="472">integer</text></a><rect class="l" x="120" y="455" width="38" height="25" rx="7"/><text class="i" x="130" y="472">&gt;=</text><a xlink:href="#integer"><rect class="r" x="168" y="455" width="65" height="25"/><text class="i" x="178" y="472">integer</text></a><a xlink:href="#fixed-decimal"><rect class="r" x="45" y="485" width="102" height="25"/><text class="i" x="55" y="502">fixed-decimal</text></a><rect class="l" x="157" y="485" width="38" height="25" rx="7"/><text class="i" x="167" y="502">&gt;=</text><a xlink:href="#fixed-decimal"><rect class="r" x="205" y="485" width="102" height="25"/><text class="i" x="215" y="502">fixed-decimal</text></a><rect class="l" x="337" y="455" width="28" height="25" rx="7"/><text class="i" x="347" y="472">»</text><a xlink:href="#boolean"><rect class="r" x="375" y="455" width="71" height="25"/><text class="i" x="385" y="472">boolean</text></a><rect class="l" x="25" y="515" width="43" height="25" rx="7"/><text class="i" x="35" y="532">abs</text><rect class="l" x="78" y="515" width="25" height="25" rx="7"/><text class="i" x="88" y="532">(</text><a xlink:href="#integer"><rect class="r" x="113" y="515" width="65" height="25"/><text class="i" x="123" y="532">integer</text></a><rect class="l" x="188" y="515" width="25" height="25" rx="7"/><text class="i" x="198" y="532">)</text><rect class="l" x="223" y="515" width="28" height="25" rx="7"/><text class="i" x="233" y="532">»</text><a xlink:href="#integer"><rect class="r" x="261" y="515" width="65" height="25"/><text class="i" x="271" y="532">integer</text></a><rect class="l" x="25" y="545" width="43" height="25" rx="7"/><text class="i" x="35" y="562">abs</text><rect class="l" x="78" y="545" width="25" height="25" rx="7"/><text class="i" x="88" y="562">(</text><a xlink:href="#fixed-decimal"><rect class="r" x="113" y="545" width="102" height="25"/><text class="i" x="123" y="562">fixed-decimal</text></a><rect class="l" x="225" y="545" width="25" height="25" rx="7"/><text class="i" x="235" y="562">)</text><rect class="l" x="260" y="545" width="28" height="25" rx="7"/><text class="i" x="270" y="562">»</text><a xlink:href="#fixed-decimal"><rect class="r" x="298" y="545" width="102" height="25"/><text class="i" x="308" y="562">fixed-decimal</text></a><a xlink:href="#integer"><rect class="r" x="25" y="575" width="65" height="25"/><text class="i" x="35" y="592">integer</text></a><rect class="l" x="100" y="575" width="25" height="25" rx="7"/><text class="i" x="110" y="592">-</text><rect class="l" x="135" y="575" width="28" height="25" rx="7"/><text class="i" x="145" y="592">1</text><rect class="l" x="173" y="575" width="28" height="25" rx="7"/><text class="i" x="183" y="592">»</text><a xlink:href="#integer"><rect class="r" x="211" y="575" width="65" height="25"/><text class="i" x="221" y="592">integer</text></a><a xlink:href="#value"><rect class="r" x="25" y="605" width="54" height="25"/><text class="i" x="35" y="622">value</text></a><rect class="l" x="89" y="605" width="38" height="25" rx="7"/><text class="i" x="99" y="622">==</text><a xlink:href="#value"><rect class="r" x="137" y="605" width="54" height="25"/><text class="i" x="147" y="622">value</text></a><rect class="l" x="201" y="605" width="28" height="25" rx="7"/><text class="i" x="211" y="622">»</text><a xlink:href="#boolean"><rect class="r" x="239" y="605" width="71" height="25"/><text class="i" x="249" y="622">boolean</text></a><rect class="l" x="25" y="665" width="70" height="25" rx="7"/><text class="i" x="35" y="682">equalTo</text><rect class="l" x="105" y="665" width="25" height="25" rx="7"/><text class="i" x="115" y="682">(</text><a xlink:href="#value"><rect class="r" x="140" y="665" width="54" height="25"/><text class="i" x="150" y="682">value</text></a><rect class="l" x="204" y="665" width="24" height="25" rx="7"/><text class="i" x="214" y="682">,</text><rect class="l" x="273" y="635" width="24" height="25" rx="7"/><text class="i" x="283" y="652">,</text><a xlink:href="#value"><rect class="r" x="258" y="665" width="54" height="25"/><text class="i" x="268" y="682">value</text></a><rect class="l" x="342" y="665" width="25" height="25" rx="7"/><text class="i" x="352" y="682">)</text><rect class="l" x="377" y="665" width="28" height="25" rx="7"/><text class="i" x="387" y="682">»</text><a xlink:href="#boolean"><rect class="r" x="415" y="665" width="71" height="25"/><text class="i" x="425" y="682">boolean</text></a><rect class="l" x="25" y="695" width="48" height="25" rx="7"/><text class="i" x="35" y="712">expt</text><rect class="l" x="83" y="695" width="25" height="25" rx="7"/><text class="i" x="93" y="712">(</text><a xlink:href="#integer"><rect class="r" x="118" y="695" width="65" height="25"/><text class="i" x="128" y="712">integer</text></a><rect class="l" x="193" y="695" width="24" height="25" rx="7"/><text class="i" x="203" y="712">,</text><a xlink:href="#integer"><rect class="r" x="227" y="695" width="65" height="25"/><text class="i" x="237" y="712">integer</text></a><rect class="l" x="302" y="695" width="25" height="25" rx="7"/><text class="i" x="312" y="712">)</text><rect class="l" x="337" y="695" width="28" height="25" rx="7"/><text class="i" x="347" y="712">»</text><a xlink:href="#integer"><rect class="r" x="375" y="695" width="65" height="25"/><text class="i" x="385" y="712">integer</text></a><a xlink:href="#integer"><rect class="r" x="25" y="725" width="65" height="25"/><text class="i" x="35" y="742">integer</text></a><rect class="l" x="100" y="725" width="29" height="25" rx="7"/><text class="i" x="110" y="742">+</text><rect class="l" x="139" y="725" width="28" height="25" rx="7"/><text class="i" x="149" y="742">1</text><rect class="l" x="177" y="725" width="28" height="25" rx="7"/><text class="i" x="187" y="742">»</text><a xlink:href="#integer"><rect class="r" x="215" y="725" width="65" height="25"/><text class="i" x="225" y="742">integer</text></a><a xlink:href="#value"><rect class="r" x="25" y="755" width="54" height="25"/><text class="i" x="35" y="772">value</text></a><rect class="l" x="89" y="755" width="34" height="25" rx="7"/><text class="i" x="99" y="772">!=</text><a xlink:href="#value"><rect class="r" x="133" y="755" width="54" height="25"/><text class="i" x="143" y="772">value</text></a><rect class="l" x="197" y="755" width="28" height="25" rx="7"/><text class="i" x="207" y="772">»</text><a xlink:href="#boolean"><rect class="r" x="235" y="755" width="71" height="25"/><text class="i" x="245" y="772">boolean</text></a><rect class="l" x="25" y="815" width="91" height="25" rx="7"/><text class="i" x="35" y="832">notEqualTo</text><rect class="l" x="126" y="815" width="25" height="25" rx="7"/><text class="i" x="136" y="832">(</text><a xlink:href="#value"><rect class="r" x="161" y="815" width="54" height="25"/><text class="i" x="171" y="832">value</text></a><rect class="l" x="225" y="815" width="24" height="25" rx="7"/><text class="i" x="235" y="832">,</text><rect class="l" x="294" y="785" width="24" height="25" rx="7"/><text class="i" x="304" y="802">,</text><a xlink:href="#value"><rect class="r" x="279" y="815" width="54" height="25"/><text class="i" x="289" y="832">value</text></a><rect class="l" x="363" y="815" width="25" height="25" rx="7"/><text class="i" x="373" y="832">)</text><rect class="l" x="398" y="815" width="28" height="25" rx="7"/><text class="i" x="408" y="832">»</text><a xlink:href="#boolean"><rect class="r" x="436" y="815" width="71" height="25"/><text class="i" x="446" y="832">boolean</text></a></svg>