<svg version="1.1" xmlns:xlink="http://www.w3.org/1999/xlink" xmlns="http://www.w3.org/2000/svg" width="611" height="605" viewbox="0 0 611 605"><defs><style type="text/css">.c{fill: none; stroke: #888888; stroke-width: 2px;}.j{fill:#000000;font-family:Verdana,Sans-serif;font-size:12px;}.l{fill:#90d9ff;stroke:#222222;}.r{fill:#d3f0ff;stroke:#222222;}</style></defs><path class="c" d="M0 18h25m25 0h10m28 0h30m62 0h10m62 0h10m25 0h10m28 0h10m62 0h92m-386 0q5 0 5 5v20q0 5 5 5h5m98 0h10m62 0h10m25 0h10m28 0h10m98 0h5q5 0 5-5v-20q0-5 5-5m5 0h117m-591 70q0 5 5 5h5m25 0h10m30 0h30m62 0h30m-5 0q-5 0-5-5v-17q0-5 5-5h72q5 0 5 5v17q0 5-5 5m-5 0h30m25 0h10m28 0h10m62 0h128m-462 0q5 0 5 5v35q0 5 5 5h5m98 0h30m-5 0q-5 0-5-5v-17q0-5 5-5h108q5 0 5 5v17q0 5-5 5m-5 0h30m25 0h10m28 0h10m98 0h5q5 0 5-5v-35q0-5 5-5m5 0h24q5 0 5-5m-581 90q0 5 5 5h5m25 0h10m25 0h30m62 0h30m-5 0q-5 0-5-5v-17q0-5 5-5h72q5 0 5 5v17q0 5-5 5m-5 0h30m25 0h10m28 0h10m62 0h128m-462 0q5 0 5 5v35q0 5 5 5h5m98 0h30m-5 0q-5 0-5-5v-17q0-5 5-5h108q5 0 5 5v17q0 5-5 5m-5 0h30m25 0h10m28 0h10m98 0h5q5 0 5-5v-35q0-5 5-5m5 0h29q5 0 5-5m-581 75q0 5 5 5h5m25 0h10m40 0h30m62 0h10m25 0h10m28 0h10m62 0h92m-314 0q5 0 5 5v20q0 5 5 5h5m98 0h10m25 0h10m28 0h10m98 0h5q5 0 5-5v-20q0-5 5-5m5 0h162q5 0 5-5m-581 60q0 5 5 5h5m25 0h10m54 0h30m38 0h39m-92 0q5 0 5 5v20q0 5 5 5h5m57 0h5q5 0 5-5v-20q0-5 5-5m5 0h10m25 0h10m28 0h10m62 0h225q5 0 5-5m-581 60q0 5 5 5h5m25 0h10m40 0h10m62 0h10m25 0h10m28 0h10m62 0h274q5 0 5-5m-581 30q0 5 5 5h5m25 0h10m37 0h30m62 0h10m62 0h10m25 0h10m28 0h10m62 0h92m-386 0q5 0 5 5v20q0 5 5 5h5m98 0h10m62 0h10m25 0h10m28 0h10m98 0h5q5 0 5-5v-20q0-5 5-5m5 0h93q5 0 5-5m-581 60q0 5 5 5h5m25 0h10m46 0h10m62 0h10m62 0h10m25 0h10m28 0h10m62 0h196q5 0 5-5m-581 30q0 5 5 5h5m25 0h10m37 0h10m62 0h10m25 0h10m28 0h10m62 0h277q5 0 5-5m-581 30q0 5 5 5h5m25 0h10m46 0h10m62 0h10m62 0h10m25 0h10m28 0h10m62 0h196q5 0 5-5m-586-505q5 0 5 5v530q0 5 5 5h5m25 0h10m61 0h10m98 0h10m126 0h10m25 0h10m28 0h30m98 0h20m-133 0q5 0 5 5v20q0 5 5 5h5m62 0h41q5 0 5-5v-20q0-5 5-5m5 0h5q5 0 5-5v-530q0-5 5-5m5 0h5"/><rect class="l" x="25" y="5" width="25" height="25" rx="7"/><text class="j" x="35" y="22">(</text><rect class="l" x="60" y="5" width="28" height="25" rx="7"/><text class="j" x="70" y="22">*</text><a xlink:href="#integer"><rect class="r" x="118" y="5" width="62" height="25"/><text class="j" x="128" y="22">integer</text></a><a xlink:href="#integer"><rect class="r" x="190" y="5" width="62" height="25"/><text class="j" x="200" y="22">integer</text></a><rect class="l" x="262" y="5" width="25" height="25" rx="7"/><text class="j" x="272" y="22">)</text><rect class="l" x="297" y="5" width="28" height="25" rx="7"/><text class="j" x="307" y="22">»</text><a xlink:href="#integer"><rect class="r" x="335" y="5" width="62" height="25"/><text class="j" x="345" y="22">integer</text></a><a xlink:href="#fixed-decimal"><rect class="r" x="118" y="35" width="98" height="25"/><text class="j" x="128" y="52">fixed-decimal</text></a><a xlink:href="#integer"><rect class="r" x="226" y="35" width="62" height="25"/><text class="j" x="236" y="52">integer</text></a><rect class="l" x="298" y="35" width="25" height="25" rx="7"/><text class="j" x="308" y="52">)</text><rect class="l" x="333" y="35" width="28" height="25" rx="7"/><text class="j" x="343" y="52">»</text><a xlink:href="#fixed-decimal"><rect class="r" x="371" y="35" width="98" height="25"/><text class="j" x="381" y="52">fixed-decimal</text></a><rect class="l" x="25" y="80" width="25" height="25" rx="7"/><text class="j" x="35" y="97">(</text><rect class="l" x="60" y="80" width="30" height="25" rx="7"/><text class="j" x="70" y="97">+</text><a xlink:href="#integer"><rect class="r" x="120" y="80" width="62" height="25"/><text class="j" x="130" y="97">integer</text></a><a xlink:href="#integer"><rect class="r" x="212" y="80" width="62" height="25"/><text class="j" x="222" y="97">integer</text></a><rect class="l" x="304" y="80" width="25" height="25" rx="7"/><text class="j" x="314" y="97">)</text><rect class="l" x="339" y="80" width="28" height="25" rx="7"/><text class="j" x="349" y="97">»</text><a xlink:href="#integer"><rect class="r" x="377" y="80" width="62" height="25"/><text class="j" x="387" y="97">integer</text></a><a xlink:href="#fixed-decimal"><rect class="r" x="120" y="125" width="98" height="25"/><text class="j" x="130" y="142">fixed-decimal</text></a><a xlink:href="#fixed-decimal"><rect class="r" x="248" y="125" width="98" height="25"/><text class="j" x="258" y="142">fixed-decimal</text></a><rect class="l" x="376" y="125" width="25" height="25" rx="7"/><text class="j" x="386" y="142">)</text><rect class="l" x="411" y="125" width="28" height="25" rx="7"/><text class="j" x="421" y="142">»</text><a xlink:href="#fixed-decimal"><rect class="r" x="449" y="125" width="98" height="25"/><text class="j" x="459" y="142">fixed-decimal</text></a><rect class="l" x="25" y="170" width="25" height="25" rx="7"/><text class="j" x="35" y="187">(</text><rect class="l" x="60" y="170" width="25" height="25" rx="7"/><text class="j" x="70" y="187">-</text><a xlink:href="#integer"><rect class="r" x="115" y="170" width="62" height="25"/><text class="j" x="125" y="187">integer</text></a><a xlink:href="#integer"><rect class="r" x="207" y="170" width="62" height="25"/><text class="j" x="217" y="187">integer</text></a><rect class="l" x="299" y="170" width="25" height="25" rx="7"/><text class="j" x="309" y="187">)</text><rect class="l" x="334" y="170" width="28" height="25" rx="7"/><text class="j" x="344" y="187">»</text><a xlink:href="#integer"><rect class="r" x="372" y="170" width="62" height="25"/><text class="j" x="382" y="187">integer</text></a><a xlink:href="#fixed-decimal"><rect class="r" x="115" y="215" width="98" height="25"/><text class="j" x="125" y="232">fixed-decimal</text></a><a xlink:href="#fixed-decimal"><rect class="r" x="243" y="215" width="98" height="25"/><text class="j" x="253" y="232">fixed-decimal</text></a><rect class="l" x="371" y="215" width="25" height="25" rx="7"/><text class="j" x="381" y="232">)</text><rect class="l" x="406" y="215" width="28" height="25" rx="7"/><text class="j" x="416" y="232">»</text><a xlink:href="#fixed-decimal"><rect class="r" x="444" y="215" width="98" height="25"/><text class="j" x="454" y="232">fixed-decimal</text></a><rect class="l" x="25" y="245" width="25" height="25" rx="7"/><text class="j" x="35" y="262">(</text><rect class="l" x="60" y="245" width="40" height="25" rx="7"/><text class="j" x="70" y="262">abs</text><a xlink:href="#integer"><rect class="r" x="130" y="245" width="62" height="25"/><text class="j" x="140" y="262">integer</text></a><rect class="l" x="202" y="245" width="25" height="25" rx="7"/><text class="j" x="212" y="262">)</text><rect class="l" x="237" y="245" width="28" height="25" rx="7"/><text class="j" x="247" y="262">»</text><a xlink:href="#integer"><rect class="r" x="275" y="245" width="62" height="25"/><text class="j" x="285" y="262">integer</text></a><a xlink:href="#fixed-decimal"><rect class="r" x="130" y="275" width="98" height="25"/><text class="j" x="140" y="292">fixed-decimal</text></a><rect class="l" x="238" y="275" width="25" height="25" rx="7"/><text class="j" x="248" y="292">)</text><rect class="l" x="273" y="275" width="28" height="25" rx="7"/><text class="j" x="283" y="292">»</text><a xlink:href="#fixed-decimal"><rect class="r" x="311" y="275" width="98" height="25"/><text class="j" x="321" y="292">fixed-decimal</text></a><rect class="l" x="25" y="305" width="25" height="25" rx="7"/><text class="j" x="35" y="322">(</text><rect class="l" x="60" y="305" width="54" height="25" rx="7"/><text class="j" x="70" y="322">count</text><a xlink:href="#set"><rect class="r" x="144" y="305" width="38" height="25"/><text class="j" x="154" y="322">set</text></a><a xlink:href="#vector"><rect class="r" x="144" y="335" width="57" height="25"/><text class="j" x="154" y="352">vector</text></a><rect class="l" x="231" y="305" width="25" height="25" rx="7"/><text class="j" x="241" y="322">)</text><rect class="l" x="266" y="305" width="28" height="25" rx="7"/><text class="j" x="276" y="322">»</text><a xlink:href="#integer"><rect class="r" x="304" y="305" width="62" height="25"/><text class="j" x="314" y="322">integer</text></a><rect class="l" x="25" y="365" width="25" height="25" rx="7"/><text class="j" x="35" y="382">(</text><rect class="l" x="60" y="365" width="40" height="25" rx="7"/><text class="j" x="70" y="382">dec</text><a xlink:href="#integer"><rect class="r" x="110" y="365" width="62" height="25"/><text class="j" x="120" y="382">integer</text></a><rect class="l" x="182" y="365" width="25" height="25" rx="7"/><text class="j" x="192" y="382">)</text><rect class="l" x="217" y="365" width="28" height="25" rx="7"/><text class="j" x="227" y="382">»</text><a xlink:href="#integer"><rect class="r" x="255" y="365" width="62" height="25"/><text class="j" x="265" y="382">integer</text></a><rect class="l" x="25" y="395" width="25" height="25" rx="7"/><text class="j" x="35" y="412">(</text><rect class="l" x="60" y="395" width="37" height="25" rx="7"/><text class="j" x="70" y="412">div</text><a xlink:href="#integer"><rect class="r" x="127" y="395" width="62" height="25"/><text class="j" x="137" y="412">integer</text></a><a xlink:href="#integer"><rect class="r" x="199" y="395" width="62" height="25"/><text class="j" x="209" y="412">integer</text></a><rect class="l" x="271" y="395" width="25" height="25" rx="7"/><text class="j" x="281" y="412">)</text><rect class="l" x="306" y="395" width="28" height="25" rx="7"/><text class="j" x="316" y="412">»</text><a xlink:href="#integer"><rect class="r" x="344" y="395" width="62" height="25"/><text class="j" x="354" y="412">integer</text></a><a xlink:href="#fixed-decimal"><rect class="r" x="127" y="425" width="98" height="25"/><text class="j" x="137" y="442">fixed-decimal</text></a><a xlink:href="#integer"><rect class="r" x="235" y="425" width="62" height="25"/><text class="j" x="245" y="442">integer</text></a><rect class="l" x="307" y="425" width="25" height="25" rx="7"/><text class="j" x="317" y="442">)</text><rect class="l" x="342" y="425" width="28" height="25" rx="7"/><text class="j" x="352" y="442">»</text><a xlink:href="#fixed-decimal"><rect class="r" x="380" y="425" width="98" height="25"/><text class="j" x="390" y="442">fixed-decimal</text></a><rect class="l" x="25" y="455" width="25" height="25" rx="7"/><text class="j" x="35" y="472">(</text><rect class="l" x="60" y="455" width="46" height="25" rx="7"/><text class="j" x="70" y="472">expt</text><a xlink:href="#integer"><rect class="r" x="116" y="455" width="62" height="25"/><text class="j" x="126" y="472">integer</text></a><a xlink:href="#integer"><rect class="r" x="188" y="455" width="62" height="25"/><text class="j" x="198" y="472">integer</text></a><rect class="l" x="260" y="455" width="25" height="25" rx="7"/><text class="j" x="270" y="472">)</text><rect class="l" x="295" y="455" width="28" height="25" rx="7"/><text class="j" x="305" y="472">»</text><a xlink:href="#integer"><rect class="r" x="333" y="455" width="62" height="25"/><text class="j" x="343" y="472">integer</text></a><rect class="l" x="25" y="485" width="25" height="25" rx="7"/><text class="j" x="35" y="502">(</text><rect class="l" x="60" y="485" width="37" height="25" rx="7"/><text class="j" x="70" y="502">inc</text><a xlink:href="#integer"><rect class="r" x="107" y="485" width="62" height="25"/><text class="j" x="117" y="502">integer</text></a><rect class="l" x="179" y="485" width="25" height="25" rx="7"/><text class="j" x="189" y="502">)</text><rect class="l" x="214" y="485" width="28" height="25" rx="7"/><text class="j" x="224" y="502">»</text><a xlink:href="#integer"><rect class="r" x="252" y="485" width="62" height="25"/><text class="j" x="262" y="502">integer</text></a><rect class="l" x="25" y="515" width="25" height="25" rx="7"/><text class="j" x="35" y="532">(</text><rect class="l" x="60" y="515" width="46" height="25" rx="7"/><text class="j" x="70" y="532">mod</text><a xlink:href="#integer"><rect class="r" x="116" y="515" width="62" height="25"/><text class="j" x="126" y="532">integer</text></a><a xlink:href="#integer"><rect class="r" x="188" y="515" width="62" height="25"/><text class="j" x="198" y="532">integer</text></a><rect class="l" x="260" y="515" width="25" height="25" rx="7"/><text class="j" x="270" y="532">)</text><rect class="l" x="295" y="515" width="28" height="25" rx="7"/><text class="j" x="305" y="532">»</text><a xlink:href="#integer"><rect class="r" x="333" y="515" width="62" height="25"/><text class="j" x="343" y="532">integer</text></a><rect class="l" x="25" y="545" width="25" height="25" rx="7"/><text class="j" x="35" y="562">(</text><rect class="l" x="60" y="545" width="61" height="25" rx="7"/><text class="j" x="70" y="562">rescale</text><a xlink:href="#fixed-decimal"><rect class="r" x="131" y="545" width="98" height="25"/><text class="j" x="141" y="562">fixed-decimal</text></a><a xlink:href="#integer:new-scale"><rect class="r" x="239" y="545" width="126" height="25"/><text class="j" x="249" y="562">integer:new-scale</text></a><rect class="l" x="375" y="545" width="25" height="25" rx="7"/><text class="j" x="385" y="562">)</text><rect class="l" x="410" y="545" width="28" height="25" rx="7"/><text class="j" x="420" y="562">»</text><a xlink:href="#fixed-decimal"><rect class="r" x="468" y="545" width="98" height="25"/><text class="j" x="478" y="562">fixed-decimal</text></a><a xlink:href="#integer"><rect class="r" x="468" y="575" width="62" height="25"/><text class="j" x="478" y="592">integer</text></a></svg>