<!--
RULE = (('(''='  ( ( value value {value}')' '»' boolean ) ) ) |
('(''if-value'  ( ( symbol any-expression any-expression')' '»' any ) ) ) |
('(''if-value-let'  ( ( '[' symbol any:binding ']' any-expression any-expression')' '»' any ) ) ) |
('(''not='  ( ( value value {value}')' '»' boolean ) ) ) |
('(''when-value'  ( ( symbol any-expression:binding')' '»' any ) ) ) |
('(''when-value-let'  ( ( '[' symbol any:binding']' any-expression')' '»' any ) ) ));
-->
<svg version="1.1" xmlns:xlink="http://www.w3.org/1999/xlink" xmlns="http://www.w3.org/2000/svg" width="800" height="215" viewbox="0 0 800 215"><defs><style type="text/css">.c{fill: none; stroke: #888888; stroke-width: 2px;}.j{fill:#000000;font-family:Verdana,Sans-serif;font-size:12px;}.l{fill:#90d9ff;stroke:#222222;}.r{fill:#d3f0ff;stroke:#222222;}</style></defs><path class="c" d="M0 33h25m25 0h10m29 0h10m54 0h30m-5 0q-5 0-5-5v-17q0-5 5-5h64q5 0 5 5v17q0 5-5 5m-5 0h30m25 0h10m28 0h10m71 0h384m-780 25q0 5 5 5h5m25 0h10m66 0h10m64 0h10m117 0h10m117 0h10m25 0h10m28 0h10m43 0h200q5 0 5-5m-770 30q0 5 5 5h5m25 0h10m87 0h10m25 0h10m64 0h10m94 0h10m25 0h10m117 0h10m117 0h10m25 0h10m28 0h10m43 0h5q5 0 5-5m-770 45q0 5 5 5h5m25 0h10m50 0h10m54 0h30m-5 0q-5 0-5-5v-17q0-5 5-5h64q5 0 5 5v17q0 5-5 5m-5 0h30m25 0h10m28 0h10m71 0h348q5 0 5-5m-770 30q0 5 5 5h5m25 0h10m94 0h10m64 0h10m168 0h10m25 0h10m28 0h10m43 0h248q5 0 5-5m-775-130q5 0 5 5v155q0 5 5 5h5m25 0h10m115 0h10m25 0h10m64 0h10m94 0h10m25 0h10m117 0h10m25 0h10m28 0h10m43 0h104q5 0 5-5v-155q0-5 5-5m5 0h5"/><rect class="l" x="25" y="20" width="25" height="25" rx="7"/><text class="j" x="35" y="37">(</text><rect class="l" x="60" y="20" width="29" height="25" rx="7"/><text class="j" x="70" y="37">=</text><a xlink:href="#value"><rect class="r" x="99" y="20" width="54" height="25"/><text class="j" x="109" y="37">value</text></a><a xlink:href="#value"><rect class="r" x="183" y="20" width="54" height="25"/><text class="j" x="193" y="37">value</text></a><rect class="l" x="267" y="20" width="25" height="25" rx="7"/><text class="j" x="277" y="37">)</text><rect class="l" x="302" y="20" width="28" height="25" rx="7"/><text class="j" x="312" y="37">»</text><a xlink:href="#boolean"><rect class="r" x="340" y="20" width="71" height="25"/><text class="j" x="350" y="37">boolean</text></a><rect class="l" x="25" y="50" width="25" height="25" rx="7"/><text class="j" x="35" y="67">(</text><rect class="l" x="60" y="50" width="66" height="25" rx="7"/><text class="j" x="70" y="67">if-value</text><a xlink:href="#symbol"><rect class="r" x="136" y="50" width="64" height="25"/><text class="j" x="146" y="67">symbol</text></a><a xlink:href="#any-expression"><rect class="r" x="210" y="50" width="117" height="25"/><text class="j" x="220" y="67">any-expression</text></a><a xlink:href="#any-expression"><rect class="r" x="337" y="50" width="117" height="25"/><text class="j" x="347" y="67">any-expression</text></a><rect class="l" x="464" y="50" width="25" height="25" rx="7"/><text class="j" x="474" y="67">)</text><rect class="l" x="499" y="50" width="28" height="25" rx="7"/><text class="j" x="509" y="67">»</text><a xlink:href="#any"><rect class="r" x="537" y="50" width="43" height="25"/><text class="j" x="547" y="67">any</text></a><rect class="l" x="25" y="80" width="25" height="25" rx="7"/><text class="j" x="35" y="97">(</text><rect class="l" x="60" y="80" width="87" height="25" rx="7"/><text class="j" x="70" y="97">if-value-let</text><rect class="l" x="157" y="80" width="25" height="25" rx="7"/><text class="j" x="167" y="97">[</text><a xlink:href="#symbol"><rect class="r" x="192" y="80" width="64" height="25"/><text class="j" x="202" y="97">symbol</text></a><a xlink:href="#any:binding"><rect class="r" x="266" y="80" width="94" height="25"/><text class="j" x="276" y="97">any:binding</text></a><rect class="l" x="370" y="80" width="25" height="25" rx="7"/><text class="j" x="380" y="97">]</text><a xlink:href="#any-expression"><rect class="r" x="405" y="80" width="117" height="25"/><text class="j" x="415" y="97">any-expression</text></a><a xlink:href="#any-expression"><rect class="r" x="532" y="80" width="117" height="25"/><text class="j" x="542" y="97">any-expression</text></a><rect class="l" x="659" y="80" width="25" height="25" rx="7"/><text class="j" x="669" y="97">)</text><rect class="l" x="694" y="80" width="28" height="25" rx="7"/><text class="j" x="704" y="97">»</text><a xlink:href="#any"><rect class="r" x="732" y="80" width="43" height="25"/><text class="j" x="742" y="97">any</text></a><rect class="l" x="25" y="125" width="25" height="25" rx="7"/><text class="j" x="35" y="142">(</text><rect class="l" x="60" y="125" width="50" height="25" rx="7"/><text class="j" x="70" y="142">not=</text><a xlink:href="#value"><rect class="r" x="120" y="125" width="54" height="25"/><text class="j" x="130" y="142">value</text></a><a xlink:href="#value"><rect class="r" x="204" y="125" width="54" height="25"/><text class="j" x="214" y="142">value</text></a><rect class="l" x="288" y="125" width="25" height="25" rx="7"/><text class="j" x="298" y="142">)</text><rect class="l" x="323" y="125" width="28" height="25" rx="7"/><text class="j" x="333" y="142">»</text><a xlink:href="#boolean"><rect class="r" x="361" y="125" width="71" height="25"/><text class="j" x="371" y="142">boolean</text></a><rect class="l" x="25" y="155" width="25" height="25" rx="7"/><text class="j" x="35" y="172">(</text><rect class="l" x="60" y="155" width="94" height="25" rx="7"/><text class="j" x="70" y="172">when-value</text><a xlink:href="#symbol"><rect class="r" x="164" y="155" width="64" height="25"/><text class="j" x="174" y="172">symbol</text></a><a xlink:href="#any-expression:binding"><rect class="r" x="238" y="155" width="168" height="25"/><text class="j" x="248" y="172">any-expression:binding</text></a><rect class="l" x="416" y="155" width="25" height="25" rx="7"/><text class="j" x="426" y="172">)</text><rect class="l" x="451" y="155" width="28" height="25" rx="7"/><text class="j" x="461" y="172">»</text><a xlink:href="#any"><rect class="r" x="489" y="155" width="43" height="25"/><text class="j" x="499" y="172">any</text></a><rect class="l" x="25" y="185" width="25" height="25" rx="7"/><text class="j" x="35" y="202">(</text><rect class="l" x="60" y="185" width="115" height="25" rx="7"/><text class="j" x="70" y="202">when-value-let</text><rect class="l" x="185" y="185" width="25" height="25" rx="7"/><text class="j" x="195" y="202">[</text><a xlink:href="#symbol"><rect class="r" x="220" y="185" width="64" height="25"/><text class="j" x="230" y="202">symbol</text></a><a xlink:href="#any:binding"><rect class="r" x="294" y="185" width="94" height="25"/><text class="j" x="304" y="202">any:binding</text></a><rect class="l" x="398" y="185" width="25" height="25" rx="7"/><text class="j" x="408" y="202">]</text><a xlink:href="#any-expression"><rect class="r" x="433" y="185" width="117" height="25"/><text class="j" x="443" y="202">any-expression</text></a><rect class="l" x="560" y="185" width="25" height="25" rx="7"/><text class="j" x="570" y="202">)</text><rect class="l" x="595" y="185" width="28" height="25" rx="7"/><text class="j" x="605" y="202">»</text><a xlink:href="#any"><rect class="r" x="633" y="185" width="43" height="25"/><text class="j" x="643" y="202">any</text></a></svg>