<svg version="1.1" xmlns:xlink="http://www.w3.org/1999/xlink" xmlns="http://www.w3.org/2000/svg" width="967" height="305" viewbox="0 0 967 305"><defs><style type="text/css">.c{fill:none;stroke:#222222;}.j{fill:#000000;font-family:Verdana,Sans-serif;font-size:12px;}.l{fill:#90d9ff;stroke:#222222;}.r{fill:#d3f0ff;stroke:#222222;}</style></defs><path class="c" d="M0 22h25m83 0h10m28 0h10m56 0h750m-947 25q0 5 5 5h5m25 0h10m41 0h30m73 0h10m163 0h10m25 0h10m28 0h10m43 0h20m-407 0q5 0 5 5v20q0 5 5 5h5m59 0h10m65 0h10m25 0h10m28 0h10m54 0h106q5 0 5-5v-20q0-5 5-5m5 0h424q5 0 5-5m-937 75q0 5 5 5h5m25 0h10m57 0h30m73 0h20m-108 0q5 0 5 5v20q0 5 5 5h5m59 0h19q5 0 5-5v-20q0-5 5-5m5 0h10m25 0h30m65 0h118m-198 0q5 0 5 5v20q0 5 5 5h5m163 0h5q5 0 5-5v-20q0-5 5-5m5 0h50m-5 0q-5 0-5-5v-17q0-5 5-5h213q5 0 5 5v17q0 5-5 5m-208 0h20m65 0h118m-198 0q5 0 5 5v20q0 5 5 5h5m163 0h5q5 0 5-5v-20q0-5 5-5m5 0h40m-278 0q5 0 5 5v38q0 5 5 5h253q5 0 5-5v-38q0-5 5-5m5 0h10m25 0h10m25 0h10m28 0h10m43 0h5q5 0 5-5m-937 75q0 5 5 5h5m25 0h10m49 0h10m147 0h10m25 0h10m28 0h10m43 0h555q5 0 5-5m-937 30q0 5 5 5h5m25 0h10m55 0h10m71 0h10m117 0h10m25 0h10m28 0h10m43 0h498q5 0 5-5m-937 30q0 5 5 5h5m25 0h10m94 0h10m64 0h10m117 0h10m25 0h10m28 0h10m43 0h466q5 0 5-5m-942-235q5 0 5 5v260q0 5 5 5h5m25 0h10m115 0h10m25 0h10m64 0h10m43 0h10m25 0h10m117 0h10m25 0h10m28 0h10m43 0h322q5 0 5-5v-260q0-5 5-5m5 0h5"/><rect class="l" x="25" y="5" width="83" height="25" rx="7"/><text class="j" x="35" y="22">$no-value</text><rect class="l" x="118" y="5" width="28" height="25" rx="7"/><text class="j" x="128" y="22">»</text><a xlink:href="#unset"><rect class="r" x="156" y="5" width="56" height="25"/><text class="j" x="166" y="22">unset</text></a><rect class="l" x="25" y="35" width="25" height="25" rx="7"/><text class="j" x="35" y="52">(</text><rect class="l" x="60" y="35" width="41" height="25" rx="7"/><text class="j" x="70" y="52">get</text><a xlink:href="#instance"><rect class="r" x="131" y="35" width="73" height="25"/><text class="j" x="141" y="52">instance</text></a><a xlink:href="#keyword:instance-field"><rect class="r" x="214" y="35" width="163" height="25"/><text class="j" x="224" y="52">keyword:instance-field</text></a><rect class="l" x="387" y="35" width="25" height="25" rx="7"/><text class="j" x="397" y="52">)</text><rect class="l" x="422" y="35" width="28" height="25" rx="7"/><text class="j" x="432" y="52">»</text><a xlink:href="#any"><rect class="r" x="460" y="35" width="43" height="25"/><text class="j" x="470" y="52">any</text></a><a xlink:href="#vector"><rect class="r" x="131" y="65" width="59" height="25"/><text class="j" x="141" y="82">vector</text></a><a xlink:href="#integer"><rect class="r" x="200" y="65" width="65" height="25"/><text class="j" x="210" y="82">integer</text></a><rect class="l" x="275" y="65" width="25" height="25" rx="7"/><text class="j" x="285" y="82">)</text><rect class="l" x="310" y="65" width="28" height="25" rx="7"/><text class="j" x="320" y="82">»</text><a xlink:href="#value"><rect class="r" x="348" y="65" width="54" height="25"/><text class="j" x="358" y="82">value</text></a><rect class="l" x="25" y="110" width="25" height="25" rx="7"/><text class="j" x="35" y="127">(</text><rect class="l" x="60" y="110" width="57" height="25" rx="7"/><text class="j" x="70" y="127">get-in</text><a xlink:href="#instance"><rect class="r" x="147" y="110" width="73" height="25"/><text class="j" x="157" y="127">instance</text></a><a xlink:href="#vector"><rect class="r" x="147" y="140" width="59" height="25"/><text class="j" x="157" y="157">vector</text></a><rect class="l" x="250" y="110" width="25" height="25" rx="7"/><text class="j" x="260" y="127">[</text><a xlink:href="#integer"><rect class="r" x="305" y="110" width="65" height="25"/><text class="j" x="315" y="127">integer</text></a><a xlink:href="#keyword:instance-field"><rect class="r" x="305" y="140" width="163" height="25"/><text class="j" x="315" y="157">keyword:instance-field</text></a><a xlink:href="#integer"><rect class="r" x="558" y="110" width="65" height="25"/><text class="j" x="568" y="127">integer</text></a><a xlink:href="#keyword:instance-field"><rect class="r" x="558" y="140" width="163" height="25"/><text class="j" x="568" y="157">keyword:instance-field</text></a><rect class="l" x="791" y="110" width="25" height="25" rx="7"/><text class="j" x="801" y="127">]</text><rect class="l" x="826" y="110" width="25" height="25" rx="7"/><text class="j" x="836" y="127">)</text><rect class="l" x="861" y="110" width="28" height="25" rx="7"/><text class="j" x="871" y="127">»</text><a xlink:href="#any"><rect class="r" x="899" y="110" width="43" height="25"/><text class="j" x="909" y="127">any</text></a><rect class="l" x="25" y="185" width="25" height="25" rx="7"/><text class="j" x="35" y="202">(</text><rect class="l" x="60" y="185" width="49" height="25" rx="7"/><text class="j" x="70" y="202">valid</text><a xlink:href="#instance-expression"><rect class="r" x="119" y="185" width="147" height="25"/><text class="j" x="129" y="202">instance-expression</text></a><rect class="l" x="276" y="185" width="25" height="25" rx="7"/><text class="j" x="286" y="202">)</text><rect class="l" x="311" y="185" width="28" height="25" rx="7"/><text class="j" x="321" y="202">»</text><a xlink:href="#any"><rect class="r" x="349" y="185" width="43" height="25"/><text class="j" x="359" y="202">any</text></a><rect class="l" x="25" y="215" width="25" height="25" rx="7"/><text class="j" x="35" y="232">(</text><rect class="l" x="60" y="215" width="55" height="25" rx="7"/><text class="j" x="70" y="232">when</text><a xlink:href="#boolean"><rect class="r" x="125" y="215" width="71" height="25"/><text class="j" x="135" y="232">boolean</text></a><a xlink:href="#any-expression"><rect class="r" x="206" y="215" width="117" height="25"/><text class="j" x="216" y="232">any-expression</text></a><rect class="l" x="333" y="215" width="25" height="25" rx="7"/><text class="j" x="343" y="232">)</text><rect class="l" x="368" y="215" width="28" height="25" rx="7"/><text class="j" x="378" y="232">»</text><a xlink:href="#any"><rect class="r" x="406" y="215" width="43" height="25"/><text class="j" x="416" y="232">any</text></a><rect class="l" x="25" y="245" width="25" height="25" rx="7"/><text class="j" x="35" y="262">(</text><rect class="l" x="60" y="245" width="94" height="25" rx="7"/><text class="j" x="70" y="262">when-value</text><a xlink:href="#symbol"><rect class="r" x="164" y="245" width="64" height="25"/><text class="j" x="174" y="262">symbol</text></a><a xlink:href="#any-expression"><rect class="r" x="238" y="245" width="117" height="25"/><text class="j" x="248" y="262">any-expression</text></a><rect class="l" x="365" y="245" width="25" height="25" rx="7"/><text class="j" x="375" y="262">)</text><rect class="l" x="400" y="245" width="28" height="25" rx="7"/><text class="j" x="410" y="262">»</text><a xlink:href="#any"><rect class="r" x="438" y="245" width="43" height="25"/><text class="j" x="448" y="262">any</text></a><rect class="l" x="25" y="275" width="25" height="25" rx="7"/><text class="j" x="35" y="292">(</text><rect class="l" x="60" y="275" width="115" height="25" rx="7"/><text class="j" x="70" y="292">when-value-let</text><rect class="l" x="185" y="275" width="25" height="25" rx="7"/><text class="j" x="195" y="292">[</text><a xlink:href="#symbol"><rect class="r" x="220" y="275" width="64" height="25"/><text class="j" x="230" y="292">symbol</text></a><a xlink:href="#any"><rect class="r" x="294" y="275" width="43" height="25"/><text class="j" x="304" y="292">any</text></a><rect class="l" x="347" y="275" width="25" height="25" rx="7"/><text class="j" x="357" y="292">]</text><a xlink:href="#any-expression"><rect class="r" x="382" y="275" width="117" height="25"/><text class="j" x="392" y="292">any-expression</text></a><rect class="l" x="509" y="275" width="25" height="25" rx="7"/><text class="j" x="519" y="292">)</text><rect class="l" x="544" y="275" width="28" height="25" rx="7"/><text class="j" x="554" y="292">»</text><a xlink:href="#any"><rect class="r" x="582" y="275" width="43" height="25"/><text class="j" x="592" y="292">any</text></a></svg>