<svg version="1.1" xmlns:xlink="http://www.w3.org/1999/xlink" xmlns="http://www.w3.org/2000/svg" width="794" height="125" viewbox="0 0 794 125"><defs><style type="text/css">.c{fill: none; stroke: #888888; stroke-width: 2px;}.j{fill:#000000;font-family:Verdana,Sans-serif;font-size:12px;}.l{fill:#90d9ff;stroke:#222222;}.r{fill:#d3f0ff;stroke:#222222;}</style></defs><path class="c" d="M0 18h25m60 0h10m25 0h10m62 0h10m25 0h10m110 0h10m43 0h10m110 0h10m28 0h10m42 0h179m-774 25q0 5 5 5h5m79 0h10m25 0h10m62 0h10m30 0h10m90 0h10m25 0h10m110 0h10m43 0h10m110 0h10m28 0h10m42 0h5q5 0 5-5m-764 30q0 5 5 5h5m86 0h10m25 0h10m62 0h10m25 0h10m110 0h10m28 0h10m42 0h311q5 0 5-5m-769-55q5 0 5 5v80q0 5 5 5h5m105 0h10m25 0h10m62 0h10m30 0h10m90 0h10m25 0h10m110 0h10m28 0h10m42 0h152q5 0 5-5v-80q0-5 5-5m5 0h5"/><rect class="l" x="25" y="5" width="60" height="25" rx="7"/><text class="j" x="35" y="22">ifValue</text><rect class="l" x="95" y="5" width="25" height="25" rx="7"/><text class="j" x="105" y="22">(</text><a xlink:href="#symbol"><rect class="r" x="130" y="5" width="62" height="25"/><text class="j" x="140" y="22">symbol</text></a><rect class="l" x="202" y="5" width="25" height="25" rx="7"/><text class="j" x="212" y="22">)</text><a xlink:href="#any-expression"><rect class="r" x="237" y="5" width="110" height="25"/><text class="j" x="247" y="22">any-expression</text></a><rect class="l" x="357" y="5" width="43" height="25" rx="7"/><text class="j" x="367" y="22">else</text><a xlink:href="#any-expression"><rect class="r" x="410" y="5" width="110" height="25"/><text class="j" x="420" y="22">any-expression</text></a><rect class="l" x="530" y="5" width="28" height="25" rx="7"/><text class="j" x="540" y="22">»</text><a xlink:href="#any"><rect class="r" x="568" y="5" width="42" height="25"/><text class="j" x="578" y="22">any</text></a><rect class="l" x="25" y="35" width="79" height="25" rx="7"/><text class="j" x="35" y="52">ifValueLet</text><rect class="l" x="114" y="35" width="25" height="25" rx="7"/><text class="j" x="124" y="52">(</text><a xlink:href="#symbol"><rect class="r" x="149" y="35" width="62" height="25"/><text class="j" x="159" y="52">symbol</text></a><rect class="l" x="221" y="35" width="30" height="25" rx="7"/><text class="j" x="231" y="52">=</text><a xlink:href="#any:binding"><rect class="r" x="261" y="35" width="90" height="25"/><text class="j" x="271" y="52">any:binding</text></a><rect class="l" x="361" y="35" width="25" height="25" rx="7"/><text class="j" x="371" y="52">)</text><a xlink:href="#any-expression"><rect class="r" x="396" y="35" width="110" height="25"/><text class="j" x="406" y="52">any-expression</text></a><rect class="l" x="516" y="35" width="43" height="25" rx="7"/><text class="j" x="526" y="52">else</text><a xlink:href="#any-expression"><rect class="r" x="569" y="35" width="110" height="25"/><text class="j" x="579" y="52">any-expression</text></a><rect class="l" x="689" y="35" width="28" height="25" rx="7"/><text class="j" x="699" y="52">»</text><a xlink:href="#any"><rect class="r" x="727" y="35" width="42" height="25"/><text class="j" x="737" y="52">any</text></a><rect class="l" x="25" y="65" width="86" height="25" rx="7"/><text class="j" x="35" y="82">whenValue</text><rect class="l" x="121" y="65" width="25" height="25" rx="7"/><text class="j" x="131" y="82">(</text><a xlink:href="#symbol"><rect class="r" x="156" y="65" width="62" height="25"/><text class="j" x="166" y="82">symbol</text></a><rect class="l" x="228" y="65" width="25" height="25" rx="7"/><text class="j" x="238" y="82">)</text><a xlink:href="#any-expression"><rect class="r" x="263" y="65" width="110" height="25"/><text class="j" x="273" y="82">any-expression</text></a><rect class="l" x="383" y="65" width="28" height="25" rx="7"/><text class="j" x="393" y="82">»</text><a xlink:href="#any"><rect class="r" x="421" y="65" width="42" height="25"/><text class="j" x="431" y="82">any</text></a><rect class="l" x="25" y="95" width="105" height="25" rx="7"/><text class="j" x="35" y="112">whenValueLet</text><rect class="l" x="140" y="95" width="25" height="25" rx="7"/><text class="j" x="150" y="112">(</text><a xlink:href="#symbol"><rect class="r" x="175" y="95" width="62" height="25"/><text class="j" x="185" y="112">symbol</text></a><rect class="l" x="247" y="95" width="30" height="25" rx="7"/><text class="j" x="257" y="112">=</text><a xlink:href="#any:binding"><rect class="r" x="287" y="95" width="90" height="25"/><text class="j" x="297" y="112">any:binding</text></a><rect class="l" x="387" y="95" width="25" height="25" rx="7"/><text class="j" x="397" y="112">)</text><a xlink:href="#any-expression"><rect class="r" x="422" y="95" width="110" height="25"/><text class="j" x="432" y="112">any-expression</text></a><rect class="l" x="542" y="95" width="28" height="25" rx="7"/><text class="j" x="552" y="112">»</text><a xlink:href="#any"><rect class="r" x="580" y="95" width="42" height="25"/><text class="j" x="590" y="112">any</text></a></svg>