<svg version="1.1" xmlns:xlink="http://www.w3.org/1999/xlink" xmlns="http://www.w3.org/2000/svg" width="749" height="125" viewbox="0 0 749 125"><defs><style type="text/css">.c{fill:none;stroke:#222222;}.j{fill:#000000;font-family:Verdana,Sans-serif;font-size:12px;}.l{fill:#90d9ff;stroke:#222222;}.r{fill:#d3f0ff;stroke:#222222;}</style></defs><path class="c" d="M0 22h25m25 0h10m66 0h10m64 0h10m117 0h10m117 0h10m25 0h10m28 0h10m43 0h164m-729 25q0 5 5 5h5m25 0h10m87 0h10m25 0h10m64 0h10m43 0h10m25 0h10m117 0h10m117 0h10m25 0h10m28 0h10m43 0h5q5 0 5-5m-719 30q0 5 5 5h5m25 0h10m94 0h10m64 0h10m117 0h10m25 0h10m28 0h10m43 0h248q5 0 5-5m-724-55q5 0 5 5v80q0 5 5 5h5m25 0h10m115 0h10m25 0h10m64 0h10m43 0h10m25 0h10m117 0h10m25 0h10m28 0h10m43 0h104q5 0 5-5v-80q0-5 5-5m5 0h5"/><rect class="l" x="25" y="5" width="25" height="25" rx="7"/><text class="j" x="35" y="22">(</text><rect class="l" x="60" y="5" width="66" height="25" rx="7"/><text class="j" x="70" y="22">if-value</text><a xlink:href="#symbol"><rect class="r" x="136" y="5" width="64" height="25"/><text class="j" x="146" y="22">symbol</text></a><a xlink:href="#any-expression"><rect class="r" x="210" y="5" width="117" height="25"/><text class="j" x="220" y="22">any-expression</text></a><a xlink:href="#any-expression"><rect class="r" x="337" y="5" width="117" height="25"/><text class="j" x="347" y="22">any-expression</text></a><rect class="l" x="464" y="5" width="25" height="25" rx="7"/><text class="j" x="474" y="22">)</text><rect class="l" x="499" y="5" width="28" height="25" rx="7"/><text class="j" x="509" y="22">»</text><a xlink:href="#any"><rect class="r" x="537" y="5" width="43" height="25"/><text class="j" x="547" y="22">any</text></a><rect class="l" x="25" y="35" width="25" height="25" rx="7"/><text class="j" x="35" y="52">(</text><rect class="l" x="60" y="35" width="87" height="25" rx="7"/><text class="j" x="70" y="52">if-value-let</text><rect class="l" x="157" y="35" width="25" height="25" rx="7"/><text class="j" x="167" y="52">[</text><a xlink:href="#symbol"><rect class="r" x="192" y="35" width="64" height="25"/><text class="j" x="202" y="52">symbol</text></a><a xlink:href="#any"><rect class="r" x="266" y="35" width="43" height="25"/><text class="j" x="276" y="52">any</text></a><rect class="l" x="319" y="35" width="25" height="25" rx="7"/><text class="j" x="329" y="52">]</text><a xlink:href="#any-expression"><rect class="r" x="354" y="35" width="117" height="25"/><text class="j" x="364" y="52">any-expression</text></a><a xlink:href="#any-expression"><rect class="r" x="481" y="35" width="117" height="25"/><text class="j" x="491" y="52">any-expression</text></a><rect class="l" x="608" y="35" width="25" height="25" rx="7"/><text class="j" x="618" y="52">)</text><rect class="l" x="643" y="35" width="28" height="25" rx="7"/><text class="j" x="653" y="52">»</text><a xlink:href="#any"><rect class="r" x="681" y="35" width="43" height="25"/><text class="j" x="691" y="52">any</text></a><rect class="l" x="25" y="65" width="25" height="25" rx="7"/><text class="j" x="35" y="82">(</text><rect class="l" x="60" y="65" width="94" height="25" rx="7"/><text class="j" x="70" y="82">when-value</text><a xlink:href="#symbol"><rect class="r" x="164" y="65" width="64" height="25"/><text class="j" x="174" y="82">symbol</text></a><a xlink:href="#any-expression"><rect class="r" x="238" y="65" width="117" height="25"/><text class="j" x="248" y="82">any-expression</text></a><rect class="l" x="365" y="65" width="25" height="25" rx="7"/><text class="j" x="375" y="82">)</text><rect class="l" x="400" y="65" width="28" height="25" rx="7"/><text class="j" x="410" y="82">»</text><a xlink:href="#any"><rect class="r" x="438" y="65" width="43" height="25"/><text class="j" x="448" y="82">any</text></a><rect class="l" x="25" y="95" width="25" height="25" rx="7"/><text class="j" x="35" y="112">(</text><rect class="l" x="60" y="95" width="115" height="25" rx="7"/><text class="j" x="70" y="112">when-value-let</text><rect class="l" x="185" y="95" width="25" height="25" rx="7"/><text class="j" x="195" y="112">[</text><a xlink:href="#symbol"><rect class="r" x="220" y="95" width="64" height="25"/><text class="j" x="230" y="112">symbol</text></a><a xlink:href="#any"><rect class="r" x="294" y="95" width="43" height="25"/><text class="j" x="304" y="112">any</text></a><rect class="l" x="347" y="95" width="25" height="25" rx="7"/><text class="j" x="357" y="112">]</text><a xlink:href="#any-expression"><rect class="r" x="382" y="95" width="117" height="25"/><text class="j" x="392" y="112">any-expression</text></a><rect class="l" x="509" y="95" width="25" height="25" rx="7"/><text class="j" x="519" y="112">)</text><rect class="l" x="544" y="95" width="28" height="25" rx="7"/><text class="j" x="554" y="112">»</text><a xlink:href="#any"><rect class="r" x="582" y="95" width="43" height="25"/><text class="j" x="592" y="112">any</text></a></svg>