<!--
RULE = (('$no-value'  ( (  '»' unset ) ) ) |
('(''get'  ( ( (instance keyword:instance-field)')' '»' any ) |
( (vector integer)')' '»' value ) ) ) |
('(''get-in'  ( ( (instance:target | vector:target) '[' (integer | keyword:instance-field) {(integer | keyword:instance-field)} ']'')' '»' any ) ) ) |
('(''valid'  ( ( instance-expression')' '»' any ) ) ) |
('(''when'  ( ( boolean any-expression')' '»' any ) ) ) |
('(''when-value'  ( ( symbol any-expression:binding')' '»' any ) ) ) |
('(''when-value-let'  ( ( '[' symbol any:binding']' any-expression')' '»' any ) ) ));
-->
<svg version="1.1" xmlns:xlink="http://www.w3.org/1999/xlink" xmlns="http://www.w3.org/2000/svg" width="1011" height="305" viewbox="0 0 1011 305"><defs><style type="text/css">.c{fill: none; stroke: #888888; stroke-width: 2px;}.j{fill:#000000;font-family:Verdana,Sans-serif;font-size:12px;}.l{fill:#90d9ff;stroke:#222222;}.r{fill:#d3f0ff;stroke:#222222;}</style></defs><path class="c" d="M0 18h25m83 0h10m28 0h10m56 0h794m-991 25q0 5 5 5h5m25 0h10m41 0h30m73 0h10m163 0h10m25 0h10m28 0h10m43 0h20m-407 0q5 0 5 5v20q0 5 5 5h5m59 0h10m65 0h10m25 0h10m28 0h10m54 0h106q5 0 5-5v-20q0-5 5-5m5 0h468q5 0 5-5m-981 75q0 5 5 5h5m25 0h10m57 0h30m117 0h20m-152 0q5 0 5 5v20q0 5 5 5h5m103 0h19q5 0 5-5v-20q0-5 5-5m5 0h10m25 0h30m65 0h118m-198 0q5 0 5 5v20q0 5 5 5h5m163 0h5q5 0 5-5v-20q0-5 5-5m5 0h50m-5 0q-5 0-5-5v-17q0-5 5-5h213q5 0 5 5v17q0 5-5 5m-208 0h20m65 0h118m-198 0q5 0 5 5v20q0 5 5 5h5m163 0h5q5 0 5-5v-20q0-5 5-5m5 0h40m-278 0q5 0 5 5v38q0 5 5 5h253q5 0 5-5v-38q0-5 5-5m5 0h10m25 0h10m25 0h10m28 0h10m43 0h5q5 0 5-5m-981 75q0 5 5 5h5m25 0h10m49 0h10m147 0h10m25 0h10m28 0h10m43 0h599q5 0 5-5m-981 30q0 5 5 5h5m25 0h10m55 0h10m71 0h10m117 0h10m25 0h10m28 0h10m43 0h542q5 0 5-5m-981 30q0 5 5 5h5m25 0h10m94 0h10m64 0h10m168 0h10m25 0h10m28 0h10m43 0h459q5 0 5-5m-986-235q5 0 5 5v260q0 5 5 5h5m25 0h10m115 0h10m25 0h10m64 0h10m94 0h10m25 0h10m117 0h10m25 0h10m28 0h10m43 0h315q5 0 5-5v-260q0-5 5-5m5 0h5"/><rect class="l" x="25" y="5" width="83" height="25" rx="7"/><text class="j" x="35" y="22">$no-value</text><rect class="l" x="118" y="5" width="28" height="25" rx="7"/><text class="j" x="128" y="22">»</text><a xlink:href="#unset"><rect class="r" x="156" y="5" width="56" height="25"/><text class="j" x="166" y="22">unset</text></a><rect class="l" x="25" y="35" width="25" height="25" rx="7"/><text class="j" x="35" y="52">(</text><rect class="l" x="60" y="35" width="41" height="25" rx="7"/><text class="j" x="70" y="52">get</text><a xlink:href="#instance"><rect class="r" x="131" y="35" width="73" height="25"/><text class="j" x="141" y="52">instance</text></a><a xlink:href="#keyword:instance-field"><rect class="r" x="214" y="35" width="163" height="25"/><text class="j" x="224" y="52">keyword:instance-field</text></a><rect class="l" x="387" y="35" width="25" height="25" rx="7"/><text class="j" x="397" y="52">)</text><rect class="l" x="422" y="35" width="28" height="25" rx="7"/><text class="j" x="432" y="52">»</text><a xlink:href="#any"><rect class="r" x="460" y="35" width="43" height="25"/><text class="j" x="470" y="52">any</text></a><a xlink:href="#vector"><rect class="r" x="131" y="65" width="59" height="25"/><text class="j" x="141" y="82">vector</text></a><a xlink:href="#integer"><rect class="r" x="200" y="65" width="65" height="25"/><text class="j" x="210" y="82">integer</text></a><rect class="l" x="275" y="65" width="25" height="25" rx="7"/><text class="j" x="285" y="82">)</text><rect class="l" x="310" y="65" width="28" height="25" rx="7"/><text class="j" x="320" y="82">»</text><a xlink:href="#value"><rect class="r" x="348" y="65" width="54" height="25"/><text class="j" x="358" y="82">value</text></a><rect class="l" x="25" y="110" width="25" height="25" rx="7"/><text class="j" x="35" y="127">(</text><rect class="l" x="60" y="110" width="57" height="25" rx="7"/><text class="j" x="70" y="127">get-in</text><a xlink:href="#instance:target"><rect class="r" x="147" y="110" width="117" height="25"/><text class="j" x="157" y="127">instance:target</text></a><a xlink:href="#vector:target"><rect class="r" x="147" y="140" width="103" height="25"/><text class="j" x="157" y="157">vector:target</text></a><rect class="l" x="294" y="110" width="25" height="25" rx="7"/><text class="j" x="304" y="127">[</text><a xlink:href="#integer"><rect class="r" x="349" y="110" width="65" height="25"/><text class="j" x="359" y="127">integer</text></a><a xlink:href="#keyword:instance-field"><rect class="r" x="349" y="140" width="163" height="25"/><text class="j" x="359" y="157">keyword:instance-field</text></a><a xlink:href="#integer"><rect class="r" x="602" y="110" width="65" height="25"/><text class="j" x="612" y="127">integer</text></a><a xlink:href="#keyword:instance-field"><rect class="r" x="602" y="140" width="163" height="25"/><text class="j" x="612" y="157">keyword:instance-field</text></a><rect class="l" x="835" y="110" width="25" height="25" rx="7"/><text class="j" x="845" y="127">]</text><rect class="l" x="870" y="110" width="25" height="25" rx="7"/><text class="j" x="880" y="127">)</text><rect class="l" x="905" y="110" width="28" height="25" rx="7"/><text class="j" x="915" y="127">»</text><a xlink:href="#any"><rect class="r" x="943" y="110" width="43" height="25"/><text class="j" x="953" y="127">any</text></a><rect class="l" x="25" y="185" width="25" height="25" rx="7"/><text class="j" x="35" y="202">(</text><rect class="l" x="60" y="185" width="49" height="25" rx="7"/><text class="j" x="70" y="202">valid</text><a xlink:href="#instance-expression"><rect class="r" x="119" y="185" width="147" height="25"/><text class="j" x="129" y="202">instance-expression</text></a><rect class="l" x="276" y="185" width="25" height="25" rx="7"/><text class="j" x="286" y="202">)</text><rect class="l" x="311" y="185" width="28" height="25" rx="7"/><text class="j" x="321" y="202">»</text><a xlink:href="#any"><rect class="r" x="349" y="185" width="43" height="25"/><text class="j" x="359" y="202">any</text></a><rect class="l" x="25" y="215" width="25" height="25" rx="7"/><text class="j" x="35" y="232">(</text><rect class="l" x="60" y="215" width="55" height="25" rx="7"/><text class="j" x="70" y="232">when</text><a xlink:href="#boolean"><rect class="r" x="125" y="215" width="71" height="25"/><text class="j" x="135" y="232">boolean</text></a><a xlink:href="#any-expression"><rect class="r" x="206" y="215" width="117" height="25"/><text class="j" x="216" y="232">any-expression</text></a><rect class="l" x="333" y="215" width="25" height="25" rx="7"/><text class="j" x="343" y="232">)</text><rect class="l" x="368" y="215" width="28" height="25" rx="7"/><text class="j" x="378" y="232">»</text><a xlink:href="#any"><rect class="r" x="406" y="215" width="43" height="25"/><text class="j" x="416" y="232">any</text></a><rect class="l" x="25" y="245" width="25" height="25" rx="7"/><text class="j" x="35" y="262">(</text><rect class="l" x="60" y="245" width="94" height="25" rx="7"/><text class="j" x="70" y="262">when-value</text><a xlink:href="#symbol"><rect class="r" x="164" y="245" width="64" height="25"/><text class="j" x="174" y="262">symbol</text></a><a xlink:href="#any-expression:binding"><rect class="r" x="238" y="245" width="168" height="25"/><text class="j" x="248" y="262">any-expression:binding</text></a><rect class="l" x="416" y="245" width="25" height="25" rx="7"/><text class="j" x="426" y="262">)</text><rect class="l" x="451" y="245" width="28" height="25" rx="7"/><text class="j" x="461" y="262">»</text><a xlink:href="#any"><rect class="r" x="489" y="245" width="43" height="25"/><text class="j" x="499" y="262">any</text></a><rect class="l" x="25" y="275" width="25" height="25" rx="7"/><text class="j" x="35" y="292">(</text><rect class="l" x="60" y="275" width="115" height="25" rx="7"/><text class="j" x="70" y="292">when-value-let</text><rect class="l" x="185" y="275" width="25" height="25" rx="7"/><text class="j" x="195" y="292">[</text><a xlink:href="#symbol"><rect class="r" x="220" y="275" width="64" height="25"/><text class="j" x="230" y="292">symbol</text></a><a xlink:href="#any:binding"><rect class="r" x="294" y="275" width="94" height="25"/><text class="j" x="304" y="292">any:binding</text></a><rect class="l" x="398" y="275" width="25" height="25" rx="7"/><text class="j" x="408" y="292">]</text><a xlink:href="#any-expression"><rect class="r" x="433" y="275" width="117" height="25"/><text class="j" x="443" y="292">any-expression</text></a><rect class="l" x="560" y="275" width="25" height="25" rx="7"/><text class="j" x="570" y="292">)</text><rect class="l" x="595" y="275" width="28" height="25" rx="7"/><text class="j" x="605" y="292">»</text><a xlink:href="#any"><rect class="r" x="633" y="275" width="43" height="25"/><text class="j" x="643" y="292">any</text></a></svg>