<svg version="1.1" xmlns:xlink="http://www.w3.org/1999/xlink" xmlns="http://www.w3.org/2000/svg" width="769" height="125" viewbox="0 0 769 125"><defs><style type="text/css">.c{fill:none;stroke:#222222;}.j{fill:#000000;font-family:Verdana,Sans-serif;font-size:12px;}.l{fill:#90d9ff;stroke:#222222;}.r{fill:#d3f0ff;stroke:#222222;}</style></defs><path class="c" d="M0 22h25m62 0h10m25 0h10m64 0h10m25 0h10m117 0h10m46 0h10m117 0h10m28 0h10m43 0h132m-749 25q0 5 5 5h5m82 0h10m25 0h10m64 0h10m29 0h10m43 0h10m25 0h10m117 0h10m46 0h10m117 0h10m28 0h10m43 0h5q5 0 5-5m-739 30q0 5 5 5h5m90 0h10m25 0h10m64 0h10m25 0h10m117 0h10m28 0h10m43 0h272q5 0 5-5m-744-55q5 0 5 5v80q0 5 5 5h5m110 0h10m25 0h10m64 0h10m29 0h10m43 0h10m25 0h10m117 0h10m28 0h10m43 0h160q5 0 5-5v-80q0-5 5-5m5 0h5"/><rect class="l" x="25" y="5" width="62" height="25" rx="7"/><text class="j" x="35" y="22">ifValue</text><rect class="l" x="97" y="5" width="25" height="25" rx="7"/><text class="j" x="107" y="22">(</text><a xlink:href="#symbol"><rect class="r" x="132" y="5" width="64" height="25"/><text class="j" x="142" y="22">symbol</text></a><rect class="l" x="206" y="5" width="25" height="25" rx="7"/><text class="j" x="216" y="22">)</text><a xlink:href="#any-expression"><rect class="r" x="241" y="5" width="117" height="25"/><text class="j" x="251" y="22">any-expression</text></a><rect class="l" x="368" y="5" width="46" height="25" rx="7"/><text class="j" x="378" y="22">else</text><a xlink:href="#any-expression"><rect class="r" x="424" y="5" width="117" height="25"/><text class="j" x="434" y="22">any-expression</text></a><rect class="l" x="551" y="5" width="28" height="25" rx="7"/><text class="j" x="561" y="22">»</text><a xlink:href="#any"><rect class="r" x="589" y="5" width="43" height="25"/><text class="j" x="599" y="22">any</text></a><rect class="l" x="25" y="35" width="82" height="25" rx="7"/><text class="j" x="35" y="52">ifValueLet</text><rect class="l" x="117" y="35" width="25" height="25" rx="7"/><text class="j" x="127" y="52">(</text><a xlink:href="#symbol"><rect class="r" x="152" y="35" width="64" height="25"/><text class="j" x="162" y="52">symbol</text></a><rect class="l" x="226" y="35" width="29" height="25" rx="7"/><text class="j" x="236" y="52">=</text><a xlink:href="#any"><rect class="r" x="265" y="35" width="43" height="25"/><text class="j" x="275" y="52">any</text></a><rect class="l" x="318" y="35" width="25" height="25" rx="7"/><text class="j" x="328" y="52">)</text><a xlink:href="#any-expression"><rect class="r" x="353" y="35" width="117" height="25"/><text class="j" x="363" y="52">any-expression</text></a><rect class="l" x="480" y="35" width="46" height="25" rx="7"/><text class="j" x="490" y="52">else</text><a xlink:href="#any-expression"><rect class="r" x="536" y="35" width="117" height="25"/><text class="j" x="546" y="52">any-expression</text></a><rect class="l" x="663" y="35" width="28" height="25" rx="7"/><text class="j" x="673" y="52">»</text><a xlink:href="#any"><rect class="r" x="701" y="35" width="43" height="25"/><text class="j" x="711" y="52">any</text></a><rect class="l" x="25" y="65" width="90" height="25" rx="7"/><text class="j" x="35" y="82">whenValue</text><rect class="l" x="125" y="65" width="25" height="25" rx="7"/><text class="j" x="135" y="82">(</text><a xlink:href="#symbol"><rect class="r" x="160" y="65" width="64" height="25"/><text class="j" x="170" y="82">symbol</text></a><rect class="l" x="234" y="65" width="25" height="25" rx="7"/><text class="j" x="244" y="82">)</text><a xlink:href="#any-expression"><rect class="r" x="269" y="65" width="117" height="25"/><text class="j" x="279" y="82">any-expression</text></a><rect class="l" x="396" y="65" width="28" height="25" rx="7"/><text class="j" x="406" y="82">»</text><a xlink:href="#any"><rect class="r" x="434" y="65" width="43" height="25"/><text class="j" x="444" y="82">any</text></a><rect class="l" x="25" y="95" width="110" height="25" rx="7"/><text class="j" x="35" y="112">whenValueLet</text><rect class="l" x="145" y="95" width="25" height="25" rx="7"/><text class="j" x="155" y="112">(</text><a xlink:href="#symbol"><rect class="r" x="180" y="95" width="64" height="25"/><text class="j" x="190" y="112">symbol</text></a><rect class="l" x="254" y="95" width="29" height="25" rx="7"/><text class="j" x="264" y="112">=</text><a xlink:href="#any"><rect class="r" x="293" y="95" width="43" height="25"/><text class="j" x="303" y="112">any</text></a><rect class="l" x="346" y="95" width="25" height="25" rx="7"/><text class="j" x="356" y="112">)</text><a xlink:href="#any-expression"><rect class="r" x="381" y="95" width="117" height="25"/><text class="j" x="391" y="112">any-expression</text></a><rect class="l" x="508" y="95" width="28" height="25" rx="7"/><text class="j" x="518" y="112">»</text><a xlink:href="#any"><rect class="r" x="546" y="95" width="43" height="25"/><text class="j" x="556" y="112">any</text></a></svg>