<svg version="1.1" xmlns:xlink="http://www.w3.org/1999/xlink" xmlns="http://www.w3.org/2000/svg" width="791" height="305" viewbox="0 0 791 305"><defs><style type="text/css">.c{fill: none; stroke: #888888; stroke-width: 2px;}.j{fill:#000000;font-family:Verdana,Sans-serif;font-size:12px;}.l{fill:#90d9ff;stroke:#222222;}.r{fill:#d3f0ff;stroke:#222222;}</style></defs><path class="c" d="M0 18h25m80 0h10m28 0h10m54 0h579m-771 25q0 5 5 5h5m70 0h10m24 0h10m146 0h10m28 0h10m42 0h396q5 0 5-5m-761 30q0 5 5 5h5m57 0h10m25 0h10m62 0h10m25 0h10m28 0h10m52 0h447q5 0 5-5m-761 45q0 5 5 5h25m111 0h10m24 0h10m146 0h20m-336 0q5 0 5 5v20q0 5 5 5h5m98 0h10m25 0h10m62 0h10m25 0h66q5 0 5-5v-20q0-5 5-5m5 0h50m-5 0q-5 0-5-5v-17q0-5 5-5h230q5 0 5 5v17q0 5-5 5m-225 0h20m24 0h10m146 0h20m-215 0q5 0 5 5v20q0 5 5 5h5m25 0h10m62 0h10m25 0h53q5 0 5-5v-20q0-5 5-5m5 0h40m-295 0q5 0 5 5v38q0 5 5 5h270q5 0 5-5v-38q0-5 5-5m5 0h10m28 0h10m42 0h5q5 0 5-5m-761 75q0 5 5 5h5m47 0h10m138 0h10m28 0h10m42 0h461q5 0 5-5m-761 30q0 5 5 5h5m53 0h10m25 0h10m66 0h10m25 0h10m110 0h10m28 0h10m42 0h337q5 0 5-5m-761 30q0 5 5 5h5m86 0h10m25 0h10m62 0h10m25 0h10m110 0h10m28 0h10m42 0h308q5 0 5-5m-766-235q5 0 5 5v260q0 5 5 5h5m105 0h10m25 0h10m62 0h10m30 0h10m90 0h10m25 0h10m110 0h10m28 0h10m42 0h149q5 0 5-5v-260q0-5 5-5m5 0h5"/><rect class="l" x="25" y="5" width="80" height="25" rx="7"/><text class="j" x="35" y="22">$no-value</text><rect class="l" x="115" y="5" width="28" height="25" rx="7"/><text class="j" x="125" y="22">»</text><a xlink:href="#unset"><rect class="r" x="153" y="5" width="54" height="25"/><text class="j" x="163" y="22">unset</text></a><a xlink:href="#instance"><rect class="r" x="25" y="35" width="70" height="25"/><text class="j" x="35" y="52">instance</text></a><rect class="l" x="105" y="35" width="24" height="25" rx="7"/><text class="j" x="115" y="52">.</text><a xlink:href="#symbol:instance-field"><rect class="r" x="139" y="35" width="146" height="25"/><text class="j" x="149" y="52">symbol:instance-field</text></a><rect class="l" x="295" y="35" width="28" height="25" rx="7"/><text class="j" x="305" y="52">»</text><a xlink:href="#any"><rect class="r" x="333" y="35" width="42" height="25"/><text class="j" x="343" y="52">any</text></a><a xlink:href="#vector"><rect class="r" x="25" y="65" width="57" height="25"/><text class="j" x="35" y="82">vector</text></a><rect class="l" x="92" y="65" width="25" height="25" rx="7"/><text class="j" x="102" y="82">[</text><a xlink:href="#integer"><rect class="r" x="127" y="65" width="62" height="25"/><text class="j" x="137" y="82">integer</text></a><rect class="l" x="199" y="65" width="25" height="25" rx="7"/><text class="j" x="209" y="82">]</text><rect class="l" x="234" y="65" width="28" height="25" rx="7"/><text class="j" x="244" y="82">»</text><a xlink:href="#value"><rect class="r" x="272" y="65" width="52" height="25"/><text class="j" x="282" y="82">value</text></a><a xlink:href="#instance:target"><rect class="r" x="45" y="110" width="111" height="25"/><text class="j" x="55" y="127">instance:target</text></a><rect class="l" x="166" y="110" width="24" height="25" rx="7"/><text class="j" x="176" y="127">.</text><a xlink:href="#symbol:instance-field"><rect class="r" x="200" y="110" width="146" height="25"/><text class="j" x="210" y="127">symbol:instance-field</text></a><a xlink:href="#vector:target"><rect class="r" x="45" y="140" width="98" height="25"/><text class="j" x="55" y="157">vector:target</text></a><rect class="l" x="153" y="140" width="25" height="25" rx="7"/><text class="j" x="163" y="157">[</text><a xlink:href="#integer"><rect class="r" x="188" y="140" width="62" height="25"/><text class="j" x="198" y="157">integer</text></a><rect class="l" x="260" y="140" width="25" height="25" rx="7"/><text class="j" x="270" y="157">]</text><rect class="l" x="436" y="110" width="24" height="25" rx="7"/><text class="j" x="446" y="127">.</text><a xlink:href="#symbol:instance-field"><rect class="r" x="470" y="110" width="146" height="25"/><text class="j" x="480" y="127">symbol:instance-field</text></a><rect class="l" x="436" y="140" width="25" height="25" rx="7"/><text class="j" x="446" y="157">[</text><a xlink:href="#integer"><rect class="r" x="471" y="140" width="62" height="25"/><text class="j" x="481" y="157">integer</text></a><rect class="l" x="543" y="140" width="25" height="25" rx="7"/><text class="j" x="553" y="157">]</text><rect class="l" x="686" y="110" width="28" height="25" rx="7"/><text class="j" x="696" y="127">»</text><a xlink:href="#any"><rect class="r" x="724" y="110" width="42" height="25"/><text class="j" x="734" y="127">any</text></a><rect class="l" x="25" y="185" width="47" height="25" rx="7"/><text class="j" x="35" y="202">valid</text><a xlink:href="#instance-expression"><rect class="r" x="82" y="185" width="138" height="25"/><text class="j" x="92" y="202">instance-expression</text></a><rect class="l" x="230" y="185" width="28" height="25" rx="7"/><text class="j" x="240" y="202">»</text><a xlink:href="#any"><rect class="r" x="268" y="185" width="42" height="25"/><text class="j" x="278" y="202">any</text></a><rect class="l" x="25" y="215" width="53" height="25" rx="7"/><text class="j" x="35" y="232">when</text><rect class="l" x="88" y="215" width="25" height="25" rx="7"/><text class="j" x="98" y="232">(</text><a xlink:href="#boolean"><rect class="r" x="123" y="215" width="66" height="25"/><text class="j" x="133" y="232">boolean</text></a><rect class="l" x="199" y="215" width="25" height="25" rx="7"/><text class="j" x="209" y="232">)</text><a xlink:href="#any-expression"><rect class="r" x="234" y="215" width="110" height="25"/><text class="j" x="244" y="232">any-expression</text></a><rect class="l" x="354" y="215" width="28" height="25" rx="7"/><text class="j" x="364" y="232">»</text><a xlink:href="#any"><rect class="r" x="392" y="215" width="42" height="25"/><text class="j" x="402" y="232">any</text></a><rect class="l" x="25" y="245" width="86" height="25" rx="7"/><text class="j" x="35" y="262">whenValue</text><rect class="l" x="121" y="245" width="25" height="25" rx="7"/><text class="j" x="131" y="262">(</text><a xlink:href="#symbol"><rect class="r" x="156" y="245" width="62" height="25"/><text class="j" x="166" y="262">symbol</text></a><rect class="l" x="228" y="245" width="25" height="25" rx="7"/><text class="j" x="238" y="262">)</text><a xlink:href="#any-expression"><rect class="r" x="263" y="245" width="110" height="25"/><text class="j" x="273" y="262">any-expression</text></a><rect class="l" x="383" y="245" width="28" height="25" rx="7"/><text class="j" x="393" y="262">»</text><a xlink:href="#any"><rect class="r" x="421" y="245" width="42" height="25"/><text class="j" x="431" y="262">any</text></a><rect class="l" x="25" y="275" width="105" height="25" rx="7"/><text class="j" x="35" y="292">whenValueLet</text><rect class="l" x="140" y="275" width="25" height="25" rx="7"/><text class="j" x="150" y="292">(</text><a xlink:href="#symbol"><rect class="r" x="175" y="275" width="62" height="25"/><text class="j" x="185" y="292">symbol</text></a><rect class="l" x="247" y="275" width="30" height="25" rx="7"/><text class="j" x="257" y="292">=</text><a xlink:href="#any:binding"><rect class="r" x="287" y="275" width="90" height="25"/><text class="j" x="297" y="292">any:binding</text></a><rect class="l" x="387" y="275" width="25" height="25" rx="7"/><text class="j" x="397" y="292">)</text><a xlink:href="#any-expression"><rect class="r" x="422" y="275" width="110" height="25"/><text class="j" x="432" y="292">any-expression</text></a><rect class="l" x="542" y="275" width="28" height="25" rx="7"/><text class="j" x="552" y="292">»</text><a xlink:href="#any"><rect class="r" x="580" y="275" width="42" height="25"/><text class="j" x="590" y="292">any</text></a></svg>