<svg version="1.1" xmlns:xlink="http://www.w3.org/1999/xlink" xmlns="http://www.w3.org/2000/svg" width="812" height="305" viewbox="0 0 812 305"><defs><style type="text/css">.c{fill: none; stroke: #888888; stroke-width: 2px;}.j{fill:#000000;font-family:Verdana,Sans-serif;font-size:12px;}.l{fill:#90d9ff;stroke:#222222;}.r{fill:#d3f0ff;stroke:#222222;}</style></defs><path class="c" d="M0 18h25m83 0h10m28 0h10m56 0h595m-792 25q0 5 5 5h5m73 0h10m24 0h10m153 0h10m28 0h10m43 0h406q5 0 5-5m-782 30q0 5 5 5h5m59 0h10m25 0h10m65 0h10m25 0h10m28 0h10m54 0h461q5 0 5-5m-782 45q0 5 5 5h25m117 0h10m24 0h10m153 0h20m-349 0q5 0 5 5v20q0 5 5 5h5m103 0h10m25 0h10m65 0h10m25 0h71q5 0 5-5v-20q0-5 5-5m5 0h50m-5 0q-5 0-5-5v-17q0-5 5-5h237q5 0 5 5v17q0 5-5 5m-232 0h20m24 0h10m153 0h20m-222 0q5 0 5 5v20q0 5 5 5h5m25 0h10m65 0h10m25 0h57q5 0 5-5v-20q0-5 5-5m5 0h40m-302 0q5 0 5 5v38q0 5 5 5h277q5 0 5-5v-38q0-5 5-5m5 0h10m28 0h10m43 0h5q5 0 5-5m-782 75q0 5 5 5h5m49 0h10m147 0h10m28 0h10m43 0h470q5 0 5-5m-782 30q0 5 5 5h5m55 0h10m25 0h10m71 0h10m25 0h10m117 0h10m28 0h10m43 0h343q5 0 5-5m-782 30q0 5 5 5h5m90 0h10m25 0h10m64 0h10m25 0h10m117 0h10m28 0h10m43 0h315q5 0 5-5m-787-235q5 0 5 5v260q0 5 5 5h5m110 0h10m25 0h10m64 0h10m29 0h10m94 0h10m25 0h10m117 0h10m28 0h10m43 0h152q5 0 5-5v-260q0-5 5-5m5 0h5"/><rect class="l" x="25" y="5" width="83" height="25" rx="7"/><text class="j" x="35" y="22">$no-value</text><rect class="l" x="118" y="5" width="28" height="25" rx="7"/><text class="j" x="128" y="22">»</text><a xlink:href="#unset"><rect class="r" x="156" y="5" width="56" height="25"/><text class="j" x="166" y="22">unset</text></a><a xlink:href="#instance"><rect class="r" x="25" y="35" width="73" height="25"/><text class="j" x="35" y="52">instance</text></a><rect class="l" x="108" y="35" width="24" height="25" rx="7"/><text class="j" x="118" y="52">.</text><a xlink:href="#symbol:instance-field"><rect class="r" x="142" y="35" width="153" height="25"/><text class="j" x="152" y="52">symbol:instance-field</text></a><rect class="l" x="305" y="35" width="28" height="25" rx="7"/><text class="j" x="315" y="52">»</text><a xlink:href="#any"><rect class="r" x="343" y="35" width="43" height="25"/><text class="j" x="353" y="52">any</text></a><a xlink:href="#vector"><rect class="r" x="25" y="65" width="59" height="25"/><text class="j" x="35" y="82">vector</text></a><rect class="l" x="94" y="65" width="25" height="25" rx="7"/><text class="j" x="104" y="82">[</text><a xlink:href="#integer"><rect class="r" x="129" y="65" width="65" height="25"/><text class="j" x="139" y="82">integer</text></a><rect class="l" x="204" y="65" width="25" height="25" rx="7"/><text class="j" x="214" y="82">]</text><rect class="l" x="239" y="65" width="28" height="25" rx="7"/><text class="j" x="249" y="82">»</text><a xlink:href="#value"><rect class="r" x="277" y="65" width="54" height="25"/><text class="j" x="287" y="82">value</text></a><a xlink:href="#instance:target"><rect class="r" x="45" y="110" width="117" height="25"/><text class="j" x="55" y="127">instance:target</text></a><rect class="l" x="172" y="110" width="24" height="25" rx="7"/><text class="j" x="182" y="127">.</text><a xlink:href="#symbol:instance-field"><rect class="r" x="206" y="110" width="153" height="25"/><text class="j" x="216" y="127">symbol:instance-field</text></a><a xlink:href="#vector:target"><rect class="r" x="45" y="140" width="103" height="25"/><text class="j" x="55" y="157">vector:target</text></a><rect class="l" x="158" y="140" width="25" height="25" rx="7"/><text class="j" x="168" y="157">[</text><a xlink:href="#integer"><rect class="r" x="193" y="140" width="65" height="25"/><text class="j" x="203" y="157">integer</text></a><rect class="l" x="268" y="140" width="25" height="25" rx="7"/><text class="j" x="278" y="157">]</text><rect class="l" x="449" y="110" width="24" height="25" rx="7"/><text class="j" x="459" y="127">.</text><a xlink:href="#symbol:instance-field"><rect class="r" x="483" y="110" width="153" height="25"/><text class="j" x="493" y="127">symbol:instance-field</text></a><rect class="l" x="449" y="140" width="25" height="25" rx="7"/><text class="j" x="459" y="157">[</text><a xlink:href="#integer"><rect class="r" x="484" y="140" width="65" height="25"/><text class="j" x="494" y="157">integer</text></a><rect class="l" x="559" y="140" width="25" height="25" rx="7"/><text class="j" x="569" y="157">]</text><rect class="l" x="706" y="110" width="28" height="25" rx="7"/><text class="j" x="716" y="127">»</text><a xlink:href="#any"><rect class="r" x="744" y="110" width="43" height="25"/><text class="j" x="754" y="127">any</text></a><rect class="l" x="25" y="185" width="49" height="25" rx="7"/><text class="j" x="35" y="202">valid</text><a xlink:href="#instance-expression"><rect class="r" x="84" y="185" width="147" height="25"/><text class="j" x="94" y="202">instance-expression</text></a><rect class="l" x="241" y="185" width="28" height="25" rx="7"/><text class="j" x="251" y="202">»</text><a xlink:href="#any"><rect class="r" x="279" y="185" width="43" height="25"/><text class="j" x="289" y="202">any</text></a><rect class="l" x="25" y="215" width="55" height="25" rx="7"/><text class="j" x="35" y="232">when</text><rect class="l" x="90" y="215" width="25" height="25" rx="7"/><text class="j" x="100" y="232">(</text><a xlink:href="#boolean"><rect class="r" x="125" y="215" width="71" height="25"/><text class="j" x="135" y="232">boolean</text></a><rect class="l" x="206" y="215" width="25" height="25" rx="7"/><text class="j" x="216" y="232">)</text><a xlink:href="#any-expression"><rect class="r" x="241" y="215" width="117" height="25"/><text class="j" x="251" y="232">any-expression</text></a><rect class="l" x="368" y="215" width="28" height="25" rx="7"/><text class="j" x="378" y="232">»</text><a xlink:href="#any"><rect class="r" x="406" y="215" width="43" height="25"/><text class="j" x="416" y="232">any</text></a><rect class="l" x="25" y="245" width="90" height="25" rx="7"/><text class="j" x="35" y="262">whenValue</text><rect class="l" x="125" y="245" width="25" height="25" rx="7"/><text class="j" x="135" y="262">(</text><a xlink:href="#symbol"><rect class="r" x="160" y="245" width="64" height="25"/><text class="j" x="170" y="262">symbol</text></a><rect class="l" x="234" y="245" width="25" height="25" rx="7"/><text class="j" x="244" y="262">)</text><a xlink:href="#any-expression"><rect class="r" x="269" y="245" width="117" height="25"/><text class="j" x="279" y="262">any-expression</text></a><rect class="l" x="396" y="245" width="28" height="25" rx="7"/><text class="j" x="406" y="262">»</text><a xlink:href="#any"><rect class="r" x="434" y="245" width="43" height="25"/><text class="j" x="444" y="262">any</text></a><rect class="l" x="25" y="275" width="110" height="25" rx="7"/><text class="j" x="35" y="292">whenValueLet</text><rect class="l" x="145" y="275" width="25" height="25" rx="7"/><text class="j" x="155" y="292">(</text><a xlink:href="#symbol"><rect class="r" x="180" y="275" width="64" height="25"/><text class="j" x="190" y="292">symbol</text></a><rect class="l" x="254" y="275" width="29" height="25" rx="7"/><text class="j" x="264" y="292">=</text><a xlink:href="#any:binding"><rect class="r" x="293" y="275" width="94" height="25"/><text class="j" x="303" y="292">any:binding</text></a><rect class="l" x="397" y="275" width="25" height="25" rx="7"/><text class="j" x="407" y="292">)</text><a xlink:href="#any-expression"><rect class="r" x="432" y="275" width="117" height="25"/><text class="j" x="442" y="292">any-expression</text></a><rect class="l" x="559" y="275" width="28" height="25" rx="7"/><text class="j" x="569" y="292">»</text><a xlink:href="#any"><rect class="r" x="597" y="275" width="43" height="25"/><text class="j" x="607" y="292">any</text></a></svg>