<svg version="1.1" xmlns:xlink="http://www.w3.org/1999/xlink" xmlns="http://www.w3.org/2000/svg" width="809" height="121" viewbox="0 0 809 121"><defs><style type="text/css">.c{fill: none; stroke: #888888; stroke-width: 2px;}.j{fill:#000000;font-family:Dialog,Sans-serif;font-size:12px;}.l{fill:#90d9ff;stroke:#222222;}.r{fill:#d3f0ff;stroke:#222222;}</style></defs><path class="c" d="M0 17h25m62 0h10m25 0h10m63 0h10m25 0h10m114 0h10m46 0h10m114 0h10m27 0h10m42 0h181m-789 24q0 5 5 5h5m81 0h10m25 0h10m63 0h10m30 0h10m92 0h10m25 0h10m114 0h10m46 0h10m114 0h10m27 0h10m42 0h5q5 0 5-5m-779 29q0 5 5 5h5m88 0h10m25 0h10m63 0h10m25 0h10m114 0h10m27 0h10m42 0h320q5 0 5-5m-784-53q5 0 5 5v77q0 5 5 5h5m107 0h10m25 0h10m63 0h10m30 0h10m92 0h10m25 0h10m114 0h10m27 0h10m42 0h159q5 0 5-5v-77q0-5 5-5m5 0h5"/><rect class="l" x="25" y="5" width="62" height="24" rx="7"/><text class="j" x="35" y="21">ifValue</text><rect class="l" x="97" y="5" width="25" height="24" rx="7"/><text class="j" x="107" y="21">(</text><a xlink:href="#symbol"><rect class="r" x="132" y="5" width="63" height="24"/><text class="j" x="142" y="21">symbol</text></a><rect class="l" x="205" y="5" width="25" height="24" rx="7"/><text class="j" x="215" y="21">)</text><a xlink:href="#any-expression"><rect class="r" x="240" y="5" width="114" height="24"/><text class="j" x="250" y="21">any-expression</text></a><rect class="l" x="364" y="5" width="46" height="24" rx="7"/><text class="j" x="374" y="21">else</text><a xlink:href="#any-expression"><rect class="r" x="420" y="5" width="114" height="24"/><text class="j" x="430" y="21">any-expression</text></a><rect class="l" x="544" y="5" width="27" height="24" rx="7"/><text class="j" x="554" y="21">»</text><a xlink:href="#any"><rect class="r" x="581" y="5" width="42" height="24"/><text class="j" x="591" y="21">any</text></a><rect class="l" x="25" y="34" width="81" height="24" rx="7"/><text class="j" x="35" y="50">ifValueLet</text><rect class="l" x="116" y="34" width="25" height="24" rx="7"/><text class="j" x="126" y="50">(</text><a xlink:href="#symbol"><rect class="r" x="151" y="34" width="63" height="24"/><text class="j" x="161" y="50">symbol</text></a><rect class="l" x="224" y="34" width="30" height="24" rx="7"/><text class="j" x="234" y="50">=</text><a xlink:href="#any:binding"><rect class="r" x="264" y="34" width="92" height="24"/><text class="j" x="274" y="50">any:binding</text></a><rect class="l" x="366" y="34" width="25" height="24" rx="7"/><text class="j" x="376" y="50">)</text><a xlink:href="#any-expression"><rect class="r" x="401" y="34" width="114" height="24"/><text class="j" x="411" y="50">any-expression</text></a><rect class="l" x="525" y="34" width="46" height="24" rx="7"/><text class="j" x="535" y="50">else</text><a xlink:href="#any-expression"><rect class="r" x="581" y="34" width="114" height="24"/><text class="j" x="591" y="50">any-expression</text></a><rect class="l" x="705" y="34" width="27" height="24" rx="7"/><text class="j" x="715" y="50">»</text><a xlink:href="#any"><rect class="r" x="742" y="34" width="42" height="24"/><text class="j" x="752" y="50">any</text></a><rect class="l" x="25" y="63" width="88" height="24" rx="7"/><text class="j" x="35" y="79">whenValue</text><rect class="l" x="123" y="63" width="25" height="24" rx="7"/><text class="j" x="133" y="79">(</text><a xlink:href="#symbol"><rect class="r" x="158" y="63" width="63" height="24"/><text class="j" x="168" y="79">symbol</text></a><rect class="l" x="231" y="63" width="25" height="24" rx="7"/><text class="j" x="241" y="79">)</text><a xlink:href="#any-expression"><rect class="r" x="266" y="63" width="114" height="24"/><text class="j" x="276" y="79">any-expression</text></a><rect class="l" x="390" y="63" width="27" height="24" rx="7"/><text class="j" x="400" y="79">»</text><a xlink:href="#any"><rect class="r" x="427" y="63" width="42" height="24"/><text class="j" x="437" y="79">any</text></a><rect class="l" x="25" y="92" width="107" height="24" rx="7"/><text class="j" x="35" y="108">whenValueLet</text><rect class="l" x="142" y="92" width="25" height="24" rx="7"/><text class="j" x="152" y="108">(</text><a xlink:href="#symbol"><rect class="r" x="177" y="92" width="63" height="24"/><text class="j" x="187" y="108">symbol</text></a><rect class="l" x="250" y="92" width="30" height="24" rx="7"/><text class="j" x="260" y="108">=</text><a xlink:href="#any:binding"><rect class="r" x="290" y="92" width="92" height="24"/><text class="j" x="300" y="108">any:binding</text></a><rect class="l" x="392" y="92" width="25" height="24" rx="7"/><text class="j" x="402" y="108">)</text><a xlink:href="#any-expression"><rect class="r" x="427" y="92" width="114" height="24"/><text class="j" x="437" y="108">any-expression</text></a><rect class="l" x="551" y="92" width="27" height="24" rx="7"/><text class="j" x="561" y="108">»</text><a xlink:href="#any"><rect class="r" x="588" y="92" width="42" height="24"/><text class="j" x="598" y="108">any</text></a></svg>