<svg version="1.1" xmlns:xlink="http://www.w3.org/1999/xlink" xmlns="http://www.w3.org/2000/svg" width="776" height="125" viewbox="0 0 776 125"><defs><style type="text/css">.c{fill: none; stroke: #888888; stroke-width: 2px;}.j{fill:#000000;font-family:Verdana,Sans-serif;font-size:12px;}.l{fill:#90d9ff;stroke:#222222;}.r{fill:#d3f0ff;stroke:#222222;}</style></defs><path class="c" d="M0 18h25m25 0h10m64 0h10m62 0h10m110 0h10m110 0h10m25 0h10m28 0h10m42 0h210m-756 25q0 5 5 5h5m25 0h10m84 0h10m25 0h10m62 0h10m90 0h10m25 0h10m110 0h10m110 0h10m25 0h10m28 0h10m42 0h5q5 0 5-5m-746 30q0 5 5 5h5m25 0h10m90 0h10m62 0h10m158 0h10m25 0h10m28 0h10m42 0h241q5 0 5-5m-751-55q5 0 5 5v80q0 5 5 5h5m25 0h10m110 0h10m25 0h10m62 0h10m90 0h10m25 0h10m110 0h10m25 0h10m28 0h10m42 0h99q5 0 5-5v-80q0-5 5-5m5 0h5"/><rect class="l" x="25" y="5" width="25" height="25" rx="7"/><text class="j" x="35" y="22">(</text><rect class="l" x="60" y="5" width="64" height="25" rx="7"/><text class="j" x="70" y="22">if-value</text><a xlink:href="#symbol"><rect class="r" x="134" y="5" width="62" height="25"/><text class="j" x="144" y="22">symbol</text></a><a xlink:href="#any-expression"><rect class="r" x="206" y="5" width="110" height="25"/><text class="j" x="216" y="22">any-expression</text></a><a xlink:href="#any-expression"><rect class="r" x="326" y="5" width="110" height="25"/><text class="j" x="336" y="22">any-expression</text></a><rect class="l" x="446" y="5" width="25" height="25" rx="7"/><text class="j" x="456" y="22">)</text><rect class="l" x="481" y="5" width="28" height="25" rx="7"/><text class="j" x="491" y="22">»</text><a xlink:href="#any"><rect class="r" x="519" y="5" width="42" height="25"/><text class="j" x="529" y="22">any</text></a><rect class="l" x="25" y="35" width="25" height="25" rx="7"/><text class="j" x="35" y="52">(</text><rect class="l" x="60" y="35" width="84" height="25" rx="7"/><text class="j" x="70" y="52">if-value-let</text><rect class="l" x="154" y="35" width="25" height="25" rx="7"/><text class="j" x="164" y="52">[</text><a xlink:href="#symbol"><rect class="r" x="189" y="35" width="62" height="25"/><text class="j" x="199" y="52">symbol</text></a><a xlink:href="#any:binding"><rect class="r" x="261" y="35" width="90" height="25"/><text class="j" x="271" y="52">any:binding</text></a><rect class="l" x="361" y="35" width="25" height="25" rx="7"/><text class="j" x="371" y="52">]</text><a xlink:href="#any-expression"><rect class="r" x="396" y="35" width="110" height="25"/><text class="j" x="406" y="52">any-expression</text></a><a xlink:href="#any-expression"><rect class="r" x="516" y="35" width="110" height="25"/><text class="j" x="526" y="52">any-expression</text></a><rect class="l" x="636" y="35" width="25" height="25" rx="7"/><text class="j" x="646" y="52">)</text><rect class="l" x="671" y="35" width="28" height="25" rx="7"/><text class="j" x="681" y="52">»</text><a xlink:href="#any"><rect class="r" x="709" y="35" width="42" height="25"/><text class="j" x="719" y="52">any</text></a><rect class="l" x="25" y="65" width="25" height="25" rx="7"/><text class="j" x="35" y="82">(</text><rect class="l" x="60" y="65" width="90" height="25" rx="7"/><text class="j" x="70" y="82">when-value</text><a xlink:href="#symbol"><rect class="r" x="160" y="65" width="62" height="25"/><text class="j" x="170" y="82">symbol</text></a><a xlink:href="#any-expression:binding"><rect class="r" x="232" y="65" width="158" height="25"/><text class="j" x="242" y="82">any-expression:binding</text></a><rect class="l" x="400" y="65" width="25" height="25" rx="7"/><text class="j" x="410" y="82">)</text><rect class="l" x="435" y="65" width="28" height="25" rx="7"/><text class="j" x="445" y="82">»</text><a xlink:href="#any"><rect class="r" x="473" y="65" width="42" height="25"/><text class="j" x="483" y="82">any</text></a><rect class="l" x="25" y="95" width="25" height="25" rx="7"/><text class="j" x="35" y="112">(</text><rect class="l" x="60" y="95" width="110" height="25" rx="7"/><text class="j" x="70" y="112">when-value-let</text><rect class="l" x="180" y="95" width="25" height="25" rx="7"/><text class="j" x="190" y="112">[</text><a xlink:href="#symbol"><rect class="r" x="215" y="95" width="62" height="25"/><text class="j" x="225" y="112">symbol</text></a><a xlink:href="#any:binding"><rect class="r" x="287" y="95" width="90" height="25"/><text class="j" x="297" y="112">any:binding</text></a><rect class="l" x="387" y="95" width="25" height="25" rx="7"/><text class="j" x="397" y="112">]</text><a xlink:href="#any-expression"><rect class="r" x="422" y="95" width="110" height="25"/><text class="j" x="432" y="112">any-expression</text></a><rect class="l" x="542" y="95" width="25" height="25" rx="7"/><text class="j" x="552" y="112">)</text><rect class="l" x="577" y="95" width="28" height="25" rx="7"/><text class="j" x="587" y="112">»</text><a xlink:href="#any"><rect class="r" x="615" y="95" width="42" height="25"/><text class="j" x="625" y="112">any</text></a></svg>