<svg version="1.1" xmlns:xlink="http://www.w3.org/1999/xlink" xmlns="http://www.w3.org/2000/svg" width="806" height="296" viewbox="0 0 806 296"><defs><style type="text/css">.c{fill: none; stroke: #888888; stroke-width: 2px;}.j{fill:#000000;font-family:Dialog,Sans-serif;font-size:12px;}.l{fill:#90d9ff;stroke:#222222;}.r{fill:#d3f0ff;stroke:#222222;}</style></defs><path class="c" d="M0 17h25m81 0h10m27 0h10m56 0h592m-786 24q0 5 5 5h5m74 0h10m24 0h10m151 0h10m27 0h10m42 0h403q5 0 5-5m-776 29q0 5 5 5h5m59 0h10m25 0h10m65 0h10m25 0h10m27 0h10m53 0h457q5 0 5-5m-776 44q0 5 5 5h25m117 0h10m24 0h10m151 0h20m-347 0q5 0 5 5v19q0 5 5 5h5m102 0h10m25 0h10m65 0h10m25 0h70q5 0 5-5v-19q0-5 5-5m5 0h50m-5 0q-5 0-5-5v-16q0-5 5-5h235q5 0 5 5v16q0 5-5 5m-230 0h20m24 0h10m151 0h20m-220 0q5 0 5 5v19q0 5 5 5h5m25 0h10m65 0h10m25 0h55q5 0 5-5v-19q0-5 5-5m5 0h40m-300 0q5 0 5 5v37q0 5 5 5h275q5 0 5-5v-37q0-5 5-5m5 0h10m27 0h10m42 0h5q5 0 5-5m-776 73q0 5 5 5h5m48 0h10m146 0h10m27 0h10m42 0h468q5 0 5-5m-776 29q0 5 5 5h5m53 0h10m25 0h10m71 0h10m25 0h10m114 0h10m27 0h10m42 0h344q5 0 5-5m-776 29q0 5 5 5h5m88 0h10m25 0h10m63 0h10m25 0h10m114 0h10m27 0h10m42 0h317q5 0 5-5m-781-228q5 0 5 5v252q0 5 5 5h5m107 0h10m25 0h10m63 0h10m30 0h10m92 0h10m25 0h10m114 0h10m27 0h10m42 0h156q5 0 5-5v-252q0-5 5-5m5 0h5"/><rect class="l" x="25" y="5" width="81" height="24" rx="7"/><text class="j" x="35" y="21">$no-value</text><rect class="l" x="116" y="5" width="27" height="24" rx="7"/><text class="j" x="126" y="21">»</text><a xlink:href="#unset"><rect class="r" x="153" y="5" width="56" height="24"/><text class="j" x="163" y="21">unset</text></a><a xlink:href="#instance"><rect class="r" x="25" y="34" width="74" height="24"/><text class="j" x="35" y="50">instance</text></a><rect class="l" x="109" y="34" width="24" height="24" rx="7"/><text class="j" x="119" y="50">.</text><a xlink:href="#symbol:instance-field"><rect class="r" x="143" y="34" width="151" height="24"/><text class="j" x="153" y="50">symbol:instance-field</text></a><rect class="l" x="304" y="34" width="27" height="24" rx="7"/><text class="j" x="314" y="50">»</text><a xlink:href="#any"><rect class="r" x="341" y="34" width="42" height="24"/><text class="j" x="351" y="50">any</text></a><a xlink:href="#vector"><rect class="r" x="25" y="63" width="59" height="24"/><text class="j" x="35" y="79">vector</text></a><rect class="l" x="94" y="63" width="25" height="24" rx="7"/><text class="j" x="104" y="79">[</text><a xlink:href="#integer"><rect class="r" x="129" y="63" width="65" height="24"/><text class="j" x="139" y="79">integer</text></a><rect class="l" x="204" y="63" width="25" height="24" rx="7"/><text class="j" x="214" y="79">]</text><rect class="l" x="239" y="63" width="27" height="24" rx="7"/><text class="j" x="249" y="79">»</text><a xlink:href="#value"><rect class="r" x="276" y="63" width="53" height="24"/><text class="j" x="286" y="79">value</text></a><a xlink:href="#instance:target"><rect class="r" x="45" y="107" width="117" height="24"/><text class="j" x="55" y="123">instance:target</text></a><rect class="l" x="172" y="107" width="24" height="24" rx="7"/><text class="j" x="182" y="123">.</text><a xlink:href="#symbol:instance-field"><rect class="r" x="206" y="107" width="151" height="24"/><text class="j" x="216" y="123">symbol:instance-field</text></a><a xlink:href="#vector:target"><rect class="r" x="45" y="136" width="102" height="24"/><text class="j" x="55" y="152">vector:target</text></a><rect class="l" x="157" y="136" width="25" height="24" rx="7"/><text class="j" x="167" y="152">[</text><a xlink:href="#integer"><rect class="r" x="192" y="136" width="65" height="24"/><text class="j" x="202" y="152">integer</text></a><rect class="l" x="267" y="136" width="25" height="24" rx="7"/><text class="j" x="277" y="152">]</text><rect class="l" x="447" y="107" width="24" height="24" rx="7"/><text class="j" x="457" y="123">.</text><a xlink:href="#symbol:instance-field"><rect class="r" x="481" y="107" width="151" height="24"/><text class="j" x="491" y="123">symbol:instance-field</text></a><rect class="l" x="447" y="136" width="25" height="24" rx="7"/><text class="j" x="457" y="152">[</text><a xlink:href="#integer"><rect class="r" x="482" y="136" width="65" height="24"/><text class="j" x="492" y="152">integer</text></a><rect class="l" x="557" y="136" width="25" height="24" rx="7"/><text class="j" x="567" y="152">]</text><rect class="l" x="702" y="107" width="27" height="24" rx="7"/><text class="j" x="712" y="123">»</text><a xlink:href="#any"><rect class="r" x="739" y="107" width="42" height="24"/><text class="j" x="749" y="123">any</text></a><rect class="l" x="25" y="180" width="48" height="24" rx="7"/><text class="j" x="35" y="196">valid</text><a xlink:href="#instance-expression"><rect class="r" x="83" y="180" width="146" height="24"/><text class="j" x="93" y="196">instance-expression</text></a><rect class="l" x="239" y="180" width="27" height="24" rx="7"/><text class="j" x="249" y="196">»</text><a xlink:href="#any"><rect class="r" x="276" y="180" width="42" height="24"/><text class="j" x="286" y="196">any</text></a><rect class="l" x="25" y="209" width="53" height="24" rx="7"/><text class="j" x="35" y="225">when</text><rect class="l" x="88" y="209" width="25" height="24" rx="7"/><text class="j" x="98" y="225">(</text><a xlink:href="#boolean"><rect class="r" x="123" y="209" width="71" height="24"/><text class="j" x="133" y="225">boolean</text></a><rect class="l" x="204" y="209" width="25" height="24" rx="7"/><text class="j" x="214" y="225">)</text><a xlink:href="#any-expression"><rect class="r" x="239" y="209" width="114" height="24"/><text class="j" x="249" y="225">any-expression</text></a><rect class="l" x="363" y="209" width="27" height="24" rx="7"/><text class="j" x="373" y="225">»</text><a xlink:href="#any"><rect class="r" x="400" y="209" width="42" height="24"/><text class="j" x="410" y="225">any</text></a><rect class="l" x="25" y="238" width="88" height="24" rx="7"/><text class="j" x="35" y="254">whenValue</text><rect class="l" x="123" y="238" width="25" height="24" rx="7"/><text class="j" x="133" y="254">(</text><a xlink:href="#symbol"><rect class="r" x="158" y="238" width="63" height="24"/><text class="j" x="168" y="254">symbol</text></a><rect class="l" x="231" y="238" width="25" height="24" rx="7"/><text class="j" x="241" y="254">)</text><a xlink:href="#any-expression"><rect class="r" x="266" y="238" width="114" height="24"/><text class="j" x="276" y="254">any-expression</text></a><rect class="l" x="390" y="238" width="27" height="24" rx="7"/><text class="j" x="400" y="254">»</text><a xlink:href="#any"><rect class="r" x="427" y="238" width="42" height="24"/><text class="j" x="437" y="254">any</text></a><rect class="l" x="25" y="267" width="107" height="24" rx="7"/><text class="j" x="35" y="283">whenValueLet</text><rect class="l" x="142" y="267" width="25" height="24" rx="7"/><text class="j" x="152" y="283">(</text><a xlink:href="#symbol"><rect class="r" x="177" y="267" width="63" height="24"/><text class="j" x="187" y="283">symbol</text></a><rect class="l" x="250" y="267" width="30" height="24" rx="7"/><text class="j" x="260" y="283">=</text><a xlink:href="#any:binding"><rect class="r" x="290" y="267" width="92" height="24"/><text class="j" x="300" y="283">any:binding</text></a><rect class="l" x="392" y="267" width="25" height="24" rx="7"/><text class="j" x="402" y="283">)</text><a xlink:href="#any-expression"><rect class="r" x="427" y="267" width="114" height="24"/><text class="j" x="437" y="283">any-expression</text></a><rect class="l" x="551" y="267" width="27" height="24" rx="7"/><text class="j" x="561" y="283">»</text><a xlink:href="#any"><rect class="r" x="588" y="267" width="42" height="24"/><text class="j" x="598" y="283">any</text></a></svg>