<svg version="1.1" xmlns:xlink="http://www.w3.org/1999/xlink" xmlns="http://www.w3.org/2000/svg" width="1000" height="296" viewbox="0 0 1000 296"><defs><style type="text/css">.c{fill: none; stroke: #888888; stroke-width: 2px;}.j{fill:#000000;font-family:Dialog,Sans-serif;font-size:12px;}.l{fill:#90d9ff;stroke:#222222;}.r{fill:#d3f0ff;stroke:#222222;}</style></defs><path class="c" d="M0 17h25m81 0h10m27 0h10m56 0h786m-980 24q0 5 5 5h5m25 0h10m41 0h30m74 0h10m159 0h10m25 0h10m27 0h10m42 0h20m-402 0q5 0 5 5v19q0 5 5 5h5m59 0h10m65 0h10m25 0h10m27 0h10m53 0h103q5 0 5-5v-19q0-5 5-5m5 0h462q5 0 5-5m-970 73q0 5 5 5h5m25 0h10m56 0h30m117 0h20m-152 0q5 0 5 5v19q0 5 5 5h5m102 0h20q5 0 5-5v-19q0-5 5-5m5 0h10m25 0h30m65 0h114m-194 0q5 0 5 5v19q0 5 5 5h5m159 0h5q5 0 5-5v-19q0-5 5-5m5 0h50m-5 0q-5 0-5-5v-16q0-5 5-5h209q5 0 5 5v16q0 5-5 5m-204 0h20m65 0h114m-194 0q5 0 5 5v19q0 5 5 5h5m159 0h5q5 0 5-5v-19q0-5 5-5m5 0h40m-274 0q5 0 5 5v37q0 5 5 5h249q5 0 5-5v-37q0-5 5-5m5 0h10m25 0h10m25 0h10m27 0h10m42 0h5q5 0 5-5m-970 73q0 5 5 5h5m25 0h10m48 0h10m146 0h10m25 0h10m27 0h10m42 0h592q5 0 5-5m-970 29q0 5 5 5h5m25 0h10m53 0h10m71 0h10m114 0h10m25 0h10m27 0h10m42 0h538q5 0 5-5m-970 29q0 5 5 5h5m25 0h10m90 0h10m63 0h10m164 0h10m25 0h10m27 0h10m42 0h459q5 0 5-5m-975-228q5 0 5 5v252q0 5 5 5h5m25 0h10m110 0h10m25 0h10m63 0h10m92 0h10m25 0h10m114 0h10m25 0h10m27 0h10m42 0h317q5 0 5-5v-252q0-5 5-5m5 0h5"/><rect class="l" x="25" y="5" width="81" height="24" rx="7"/><text class="j" x="35" y="21">$no-value</text><rect class="l" x="116" y="5" width="27" height="24" rx="7"/><text class="j" x="126" y="21">»</text><a xlink:href="#unset"><rect class="r" x="153" y="5" width="56" height="24"/><text class="j" x="163" y="21">unset</text></a><rect class="l" x="25" y="34" width="25" height="24" rx="7"/><text class="j" x="35" y="50">(</text><rect class="l" x="60" y="34" width="41" height="24" rx="7"/><text class="j" x="70" y="50">get</text><a xlink:href="#instance"><rect class="r" x="131" y="34" width="74" height="24"/><text class="j" x="141" y="50">instance</text></a><a xlink:href="#keyword:instance-field"><rect class="r" x="215" y="34" width="159" height="24"/><text class="j" x="225" y="50">keyword:instance-field</text></a><rect class="l" x="384" y="34" width="25" height="24" rx="7"/><text class="j" x="394" y="50">)</text><rect class="l" x="419" y="34" width="27" height="24" rx="7"/><text class="j" x="429" y="50">»</text><a xlink:href="#any"><rect class="r" x="456" y="34" width="42" height="24"/><text class="j" x="466" y="50">any</text></a><a xlink:href="#vector"><rect class="r" x="131" y="63" width="59" height="24"/><text class="j" x="141" y="79">vector</text></a><a xlink:href="#integer"><rect class="r" x="200" y="63" width="65" height="24"/><text class="j" x="210" y="79">integer</text></a><rect class="l" x="275" y="63" width="25" height="24" rx="7"/><text class="j" x="285" y="79">)</text><rect class="l" x="310" y="63" width="27" height="24" rx="7"/><text class="j" x="320" y="79">»</text><a xlink:href="#value"><rect class="r" x="347" y="63" width="53" height="24"/><text class="j" x="357" y="79">value</text></a><rect class="l" x="25" y="107" width="25" height="24" rx="7"/><text class="j" x="35" y="123">(</text><rect class="l" x="60" y="107" width="56" height="24" rx="7"/><text class="j" x="70" y="123">get-in</text><a xlink:href="#instance:target"><rect class="r" x="146" y="107" width="117" height="24"/><text class="j" x="156" y="123">instance:target</text></a><a xlink:href="#vector:target"><rect class="r" x="146" y="136" width="102" height="24"/><text class="j" x="156" y="152">vector:target</text></a><rect class="l" x="293" y="107" width="25" height="24" rx="7"/><text class="j" x="303" y="123">[</text><a xlink:href="#integer"><rect class="r" x="348" y="107" width="65" height="24"/><text class="j" x="358" y="123">integer</text></a><a xlink:href="#keyword:instance-field"><rect class="r" x="348" y="136" width="159" height="24"/><text class="j" x="358" y="152">keyword:instance-field</text></a><a xlink:href="#integer"><rect class="r" x="597" y="107" width="65" height="24"/><text class="j" x="607" y="123">integer</text></a><a xlink:href="#keyword:instance-field"><rect class="r" x="597" y="136" width="159" height="24"/><text class="j" x="607" y="152">keyword:instance-field</text></a><rect class="l" x="826" y="107" width="25" height="24" rx="7"/><text class="j" x="836" y="123">]</text><rect class="l" x="861" y="107" width="25" height="24" rx="7"/><text class="j" x="871" y="123">)</text><rect class="l" x="896" y="107" width="27" height="24" rx="7"/><text class="j" x="906" y="123">»</text><a xlink:href="#any"><rect class="r" x="933" y="107" width="42" height="24"/><text class="j" x="943" y="123">any</text></a><rect class="l" x="25" y="180" width="25" height="24" rx="7"/><text class="j" x="35" y="196">(</text><rect class="l" x="60" y="180" width="48" height="24" rx="7"/><text class="j" x="70" y="196">valid</text><a xlink:href="#instance-expression"><rect class="r" x="118" y="180" width="146" height="24"/><text class="j" x="128" y="196">instance-expression</text></a><rect class="l" x="274" y="180" width="25" height="24" rx="7"/><text class="j" x="284" y="196">)</text><rect class="l" x="309" y="180" width="27" height="24" rx="7"/><text class="j" x="319" y="196">»</text><a xlink:href="#any"><rect class="r" x="346" y="180" width="42" height="24"/><text class="j" x="356" y="196">any</text></a><rect class="l" x="25" y="209" width="25" height="24" rx="7"/><text class="j" x="35" y="225">(</text><rect class="l" x="60" y="209" width="53" height="24" rx="7"/><text class="j" x="70" y="225">when</text><a xlink:href="#boolean"><rect class="r" x="123" y="209" width="71" height="24"/><text class="j" x="133" y="225">boolean</text></a><a xlink:href="#any-expression"><rect class="r" x="204" y="209" width="114" height="24"/><text class="j" x="214" y="225">any-expression</text></a><rect class="l" x="328" y="209" width="25" height="24" rx="7"/><text class="j" x="338" y="225">)</text><rect class="l" x="363" y="209" width="27" height="24" rx="7"/><text class="j" x="373" y="225">»</text><a xlink:href="#any"><rect class="r" x="400" y="209" width="42" height="24"/><text class="j" x="410" y="225">any</text></a><rect class="l" x="25" y="238" width="25" height="24" rx="7"/><text class="j" x="35" y="254">(</text><rect class="l" x="60" y="238" width="90" height="24" rx="7"/><text class="j" x="70" y="254">when-value</text><a xlink:href="#symbol"><rect class="r" x="160" y="238" width="63" height="24"/><text class="j" x="170" y="254">symbol</text></a><a xlink:href="#any-expression:binding"><rect class="r" x="233" y="238" width="164" height="24"/><text class="j" x="243" y="254">any-expression:binding</text></a><rect class="l" x="407" y="238" width="25" height="24" rx="7"/><text class="j" x="417" y="254">)</text><rect class="l" x="442" y="238" width="27" height="24" rx="7"/><text class="j" x="452" y="254">»</text><a xlink:href="#any"><rect class="r" x="479" y="238" width="42" height="24"/><text class="j" x="489" y="254">any</text></a><rect class="l" x="25" y="267" width="25" height="24" rx="7"/><text class="j" x="35" y="283">(</text><rect class="l" x="60" y="267" width="110" height="24" rx="7"/><text class="j" x="70" y="283">when-value-let</text><rect class="l" x="180" y="267" width="25" height="24" rx="7"/><text class="j" x="190" y="283">[</text><a xlink:href="#symbol"><rect class="r" x="215" y="267" width="63" height="24"/><text class="j" x="225" y="283">symbol</text></a><a xlink:href="#any:binding"><rect class="r" x="288" y="267" width="92" height="24"/><text class="j" x="298" y="283">any:binding</text></a><rect class="l" x="390" y="267" width="25" height="24" rx="7"/><text class="j" x="400" y="283">]</text><a xlink:href="#any-expression"><rect class="r" x="425" y="267" width="114" height="24"/><text class="j" x="435" y="283">any-expression</text></a><rect class="l" x="549" y="267" width="25" height="24" rx="7"/><text class="j" x="559" y="283">)</text><rect class="l" x="584" y="267" width="27" height="24" rx="7"/><text class="j" x="594" y="283">»</text><a xlink:href="#any"><rect class="r" x="621" y="267" width="42" height="24"/><text class="j" x="631" y="283">any</text></a></svg>