<!--
RULE = ( ( ( value '!=' value '»' boolean ) )  |
 ( ( value '==' value '»' boolean ) )  |
 ( ( 'equalTo' '(' value ',' value {',' value} ')' '»' boolean ) )  |
 ( ( 'ifValue' '(' symbol ')' any-expression 'else' any-expression '»' any ) )  |
 ( ( 'ifValueLet' '(' symbol '=' any:binding ')'  any-expression 'else' any-expression '»' any ) )  |
 ( ( 'notEqualTo' '(' value ',' value {',' value} ')' '»' boolean ) )  |
 ( ( 'whenValue' '(' symbol ')' any-expression '»' any ) )  |
 ( ( 'whenValueLet' '(' symbol '=' any:binding ')' any-expression '»' any ) ) );
-->
<svg version="1.1" xmlns:xlink="http://www.w3.org/1999/xlink" xmlns="http://www.w3.org/2000/svg" width="820" height="305" viewbox="0 0 820 305"><defs><style type="text/css">.c{fill: none; stroke: #888888; stroke-width: 2px;}.i{fill:#000000;font-family:Verdana,Sans-serif;font-size:12px;}.l{fill:#90d9ff;stroke:#222222;}.r{fill:#d3f0ff;stroke:#222222;}</style></defs><path class="c" d="M0 18h25m54 0h10m34 0h10m54 0h10m28 0h10m71 0h509m-800 25q0 5 5 5h5m54 0h10m38 0h10m54 0h10m28 0h10m71 0h490q5 0 5-5m-790 60q0 5 5 5h5m70 0h10m25 0h10m54 0h10m24 0h30m-5 0q-5 0-5-5v-20q0-5 5-5h20m24 0h20q5 0 5 5v20q0 5-5 5m-5 0h30m25 0h10m28 0h10m71 0h314q5 0 5-5m-790 30q0 5 5 5h5m62 0h10m25 0h10m64 0h10m25 0h10m117 0h10m46 0h10m117 0h10m28 0h10m43 0h168q5 0 5-5m-790 30q0 5 5 5h5m82 0h10m25 0h10m64 0h10m29 0h10m94 0h10m25 0h10m117 0h10m46 0h10m117 0h10m28 0h10m43 0h5q5 0 5-5m-790 60q0 5 5 5h5m91 0h10m25 0h10m54 0h10m24 0h30m-5 0q-5 0-5-5v-20q0-5 5-5h20m24 0h20q5 0 5 5v20q0 5-5 5m-5 0h30m25 0h10m28 0h10m71 0h293q5 0 5-5m-790 30q0 5 5 5h5m90 0h10m25 0h10m64 0h10m25 0h10m117 0h10m28 0h10m43 0h323q5 0 5-5m-795-235q5 0 5 5v260q0 5 5 5h5m110 0h10m25 0h10m64 0h10m29 0h10m94 0h10m25 0h10m117 0h10m28 0h10m43 0h160q5 0 5-5v-260q0-5 5-5m5 0h5"/><a xlink:href="#value"><rect class="r" x="25" y="5" width="54" height="25"/><text class="i" x="35" y="22">value</text></a><rect class="l" x="89" y="5" width="34" height="25" rx="7"/><text class="i" x="99" y="22">!=</text><a xlink:href="#value"><rect class="r" x="133" y="5" width="54" height="25"/><text class="i" x="143" y="22">value</text></a><rect class="l" x="197" y="5" width="28" height="25" rx="7"/><text class="i" x="207" y="22">»</text><a xlink:href="#boolean"><rect class="r" x="235" y="5" width="71" height="25"/><text class="i" x="245" y="22">boolean</text></a><a xlink:href="#value"><rect class="r" x="25" y="35" width="54" height="25"/><text class="i" x="35" y="52">value</text></a><rect class="l" x="89" y="35" width="38" height="25" rx="7"/><text class="i" x="99" y="52">==</text><a xlink:href="#value"><rect class="r" x="137" y="35" width="54" height="25"/><text class="i" x="147" y="52">value</text></a><rect class="l" x="201" y="35" width="28" height="25" rx="7"/><text class="i" x="211" y="52">»</text><a xlink:href="#boolean"><rect class="r" x="239" y="35" width="71" height="25"/><text class="i" x="249" y="52">boolean</text></a><rect class="l" x="25" y="95" width="70" height="25" rx="7"/><text class="i" x="35" y="112">equalTo</text><rect class="l" x="105" y="95" width="25" height="25" rx="7"/><text class="i" x="115" y="112">(</text><a xlink:href="#value"><rect class="r" x="140" y="95" width="54" height="25"/><text class="i" x="150" y="112">value</text></a><rect class="l" x="204" y="95" width="24" height="25" rx="7"/><text class="i" x="214" y="112">,</text><rect class="l" x="273" y="65" width="24" height="25" rx="7"/><text class="i" x="283" y="82">,</text><a xlink:href="#value"><rect class="r" x="258" y="95" width="54" height="25"/><text class="i" x="268" y="112">value</text></a><rect class="l" x="342" y="95" width="25" height="25" rx="7"/><text class="i" x="352" y="112">)</text><rect class="l" x="377" y="95" width="28" height="25" rx="7"/><text class="i" x="387" y="112">»</text><a xlink:href="#boolean"><rect class="r" x="415" y="95" width="71" height="25"/><text class="i" x="425" y="112">boolean</text></a><rect class="l" x="25" y="125" width="62" height="25" rx="7"/><text class="i" x="35" y="142">ifValue</text><rect class="l" x="97" y="125" width="25" height="25" rx="7"/><text class="i" x="107" y="142">(</text><a xlink:href="#symbol"><rect class="r" x="132" y="125" width="64" height="25"/><text class="i" x="142" y="142">symbol</text></a><rect class="l" x="206" y="125" width="25" height="25" rx="7"/><text class="i" x="216" y="142">)</text><a xlink:href="#any-expression"><rect class="r" x="241" y="125" width="117" height="25"/><text class="i" x="251" y="142">any-expression</text></a><rect class="l" x="368" y="125" width="46" height="25" rx="7"/><text class="i" x="378" y="142">else</text><a xlink:href="#any-expression"><rect class="r" x="424" y="125" width="117" height="25"/><text class="i" x="434" y="142">any-expression</text></a><rect class="l" x="551" y="125" width="28" height="25" rx="7"/><text class="i" x="561" y="142">»</text><a xlink:href="#any"><rect class="r" x="589" y="125" width="43" height="25"/><text class="i" x="599" y="142">any</text></a><rect class="l" x="25" y="155" width="82" height="25" rx="7"/><text class="i" x="35" y="172">ifValueLet</text><rect class="l" x="117" y="155" width="25" height="25" rx="7"/><text class="i" x="127" y="172">(</text><a xlink:href="#symbol"><rect class="r" x="152" y="155" width="64" height="25"/><text class="i" x="162" y="172">symbol</text></a><rect class="l" x="226" y="155" width="29" height="25" rx="7"/><text class="i" x="236" y="172">=</text><a xlink:href="#any:binding"><rect class="r" x="265" y="155" width="94" height="25"/><text class="i" x="275" y="172">any:binding</text></a><rect class="l" x="369" y="155" width="25" height="25" rx="7"/><text class="i" x="379" y="172">)</text><a xlink:href="#any-expression"><rect class="r" x="404" y="155" width="117" height="25"/><text class="i" x="414" y="172">any-expression</text></a><rect class="l" x="531" y="155" width="46" height="25" rx="7"/><text class="i" x="541" y="172">else</text><a xlink:href="#any-expression"><rect class="r" x="587" y="155" width="117" height="25"/><text class="i" x="597" y="172">any-expression</text></a><rect class="l" x="714" y="155" width="28" height="25" rx="7"/><text class="i" x="724" y="172">»</text><a xlink:href="#any"><rect class="r" x="752" y="155" width="43" height="25"/><text class="i" x="762" y="172">any</text></a><rect class="l" x="25" y="215" width="91" height="25" rx="7"/><text class="i" x="35" y="232">notEqualTo</text><rect class="l" x="126" y="215" width="25" height="25" rx="7"/><text class="i" x="136" y="232">(</text><a xlink:href="#value"><rect class="r" x="161" y="215" width="54" height="25"/><text class="i" x="171" y="232">value</text></a><rect class="l" x="225" y="215" width="24" height="25" rx="7"/><text class="i" x="235" y="232">,</text><rect class="l" x="294" y="185" width="24" height="25" rx="7"/><text class="i" x="304" y="202">,</text><a xlink:href="#value"><rect class="r" x="279" y="215" width="54" height="25"/><text class="i" x="289" y="232">value</text></a><rect class="l" x="363" y="215" width="25" height="25" rx="7"/><text class="i" x="373" y="232">)</text><rect class="l" x="398" y="215" width="28" height="25" rx="7"/><text class="i" x="408" y="232">»</text><a xlink:href="#boolean"><rect class="r" x="436" y="215" width="71" height="25"/><text class="i" x="446" y="232">boolean</text></a><rect class="l" x="25" y="245" width="90" height="25" rx="7"/><text class="i" x="35" y="262">whenValue</text><rect class="l" x="125" y="245" width="25" height="25" rx="7"/><text class="i" x="135" y="262">(</text><a xlink:href="#symbol"><rect class="r" x="160" y="245" width="64" height="25"/><text class="i" x="170" y="262">symbol</text></a><rect class="l" x="234" y="245" width="25" height="25" rx="7"/><text class="i" x="244" y="262">)</text><a xlink:href="#any-expression"><rect class="r" x="269" y="245" width="117" height="25"/><text class="i" x="279" y="262">any-expression</text></a><rect class="l" x="396" y="245" width="28" height="25" rx="7"/><text class="i" x="406" y="262">»</text><a xlink:href="#any"><rect class="r" x="434" y="245" width="43" height="25"/><text class="i" x="444" y="262">any</text></a><rect class="l" x="25" y="275" width="110" height="25" rx="7"/><text class="i" x="35" y="292">whenValueLet</text><rect class="l" x="145" y="275" width="25" height="25" rx="7"/><text class="i" x="155" y="292">(</text><a xlink:href="#symbol"><rect class="r" x="180" y="275" width="64" height="25"/><text class="i" x="190" y="292">symbol</text></a><rect class="l" x="254" y="275" width="29" height="25" rx="7"/><text class="i" x="264" y="292">=</text><a xlink:href="#any:binding"><rect class="r" x="293" y="275" width="94" height="25"/><text class="i" x="303" y="292">any:binding</text></a><rect class="l" x="397" y="275" width="25" height="25" rx="7"/><text class="i" x="407" y="292">)</text><a xlink:href="#any-expression"><rect class="r" x="432" y="275" width="117" height="25"/><text class="i" x="442" y="292">any-expression</text></a><rect class="l" x="559" y="275" width="28" height="25" rx="7"/><text class="i" x="569" y="292">»</text><a xlink:href="#any"><rect class="r" x="597" y="275" width="43" height="25"/><text class="i" x="607" y="292">any</text></a></svg>