<svg version="1.1" xmlns:xlink="http://www.w3.org/1999/xlink" xmlns="http://www.w3.org/2000/svg" width="984" height="305" viewbox="0 0 984 305"><defs><style type="text/css">.c{fill: none; stroke: #888888; stroke-width: 2px;}.j{fill:#000000;font-family:Verdana,Sans-serif;font-size:12px;}.l{fill:#90d9ff;stroke:#222222;}.r{fill:#d3f0ff;stroke:#222222;}</style></defs><path class="c" d="M0 18h25m80 0h10m28 0h10m54 0h772m-964 25q0 5 5 5h5m25 0h10m39 0h30m70 0h10m154 0h10m25 0h10m28 0h10m42 0h20m-394 0q5 0 5 5v20q0 5 5 5h5m57 0h10m62 0h10m25 0h10m28 0h10m52 0h100q5 0 5-5v-20q0-5 5-5m5 0h456q5 0 5-5m-954 75q0 5 5 5h5m25 0h10m55 0h30m111 0h20m-146 0q5 0 5 5v20q0 5 5 5h5m98 0h18q5 0 5-5v-20q0-5 5-5m5 0h10m25 0h30m62 0h112m-189 0q5 0 5 5v20q0 5 5 5h5m154 0h5q5 0 5-5v-20q0-5 5-5m5 0h50m-5 0q-5 0-5-5v-17q0-5 5-5h204q5 0 5 5v17q0 5-5 5m-199 0h20m62 0h112m-189 0q5 0 5 5v20q0 5 5 5h5m154 0h5q5 0 5-5v-20q0-5 5-5m5 0h40m-269 0q5 0 5 5v38q0 5 5 5h244q5 0 5-5v-38q0-5 5-5m5 0h10m25 0h10m25 0h10m28 0h10m42 0h5q5 0 5-5m-954 75q0 5 5 5h5m25 0h10m47 0h10m138 0h10m25 0h10m28 0h10m42 0h584q5 0 5-5m-954 30q0 5 5 5h5m25 0h10m53 0h10m66 0h10m110 0h10m25 0h10m28 0h10m42 0h530q5 0 5-5m-954 30q0 5 5 5h5m25 0h10m90 0h10m62 0h10m158 0h10m25 0h10m28 0h10m42 0h449q5 0 5-5m-959-235q5 0 5 5v260q0 5 5 5h5m25 0h10m110 0h10m25 0h10m62 0h10m90 0h10m25 0h10m110 0h10m25 0h10m28 0h10m42 0h307q5 0 5-5v-260q0-5 5-5m5 0h5"/><rect class="l" x="25" y="5" width="80" height="25" rx="7"/><text class="j" x="35" y="22">$no-value</text><rect class="l" x="115" y="5" width="28" height="25" rx="7"/><text class="j" x="125" y="22">»</text><a xlink:href="#unset"><rect class="r" x="153" y="5" width="54" height="25"/><text class="j" x="163" y="22">unset</text></a><rect class="l" x="25" y="35" width="25" height="25" rx="7"/><text class="j" x="35" y="52">(</text><rect class="l" x="60" y="35" width="39" height="25" rx="7"/><text class="j" x="70" y="52">get</text><a xlink:href="#instance"><rect class="r" x="129" y="35" width="70" height="25"/><text class="j" x="139" y="52">instance</text></a><a xlink:href="#keyword:instance-field"><rect class="r" x="209" y="35" width="154" height="25"/><text class="j" x="219" y="52">keyword:instance-field</text></a><rect class="l" x="373" y="35" width="25" height="25" rx="7"/><text class="j" x="383" y="52">)</text><rect class="l" x="408" y="35" width="28" height="25" rx="7"/><text class="j" x="418" y="52">»</text><a xlink:href="#any"><rect class="r" x="446" y="35" width="42" height="25"/><text class="j" x="456" y="52">any</text></a><a xlink:href="#vector"><rect class="r" x="129" y="65" width="57" height="25"/><text class="j" x="139" y="82">vector</text></a><a xlink:href="#integer"><rect class="r" x="196" y="65" width="62" height="25"/><text class="j" x="206" y="82">integer</text></a><rect class="l" x="268" y="65" width="25" height="25" rx="7"/><text class="j" x="278" y="82">)</text><rect class="l" x="303" y="65" width="28" height="25" rx="7"/><text class="j" x="313" y="82">»</text><a xlink:href="#value"><rect class="r" x="341" y="65" width="52" height="25"/><text class="j" x="351" y="82">value</text></a><rect class="l" x="25" y="110" width="25" height="25" rx="7"/><text class="j" x="35" y="127">(</text><rect class="l" x="60" y="110" width="55" height="25" rx="7"/><text class="j" x="70" y="127">get-in</text><a xlink:href="#instance:target"><rect class="r" x="145" y="110" width="111" height="25"/><text class="j" x="155" y="127">instance:target</text></a><a xlink:href="#vector:target"><rect class="r" x="145" y="140" width="98" height="25"/><text class="j" x="155" y="157">vector:target</text></a><rect class="l" x="286" y="110" width="25" height="25" rx="7"/><text class="j" x="296" y="127">[</text><a xlink:href="#integer"><rect class="r" x="341" y="110" width="62" height="25"/><text class="j" x="351" y="127">integer</text></a><a xlink:href="#keyword:instance-field"><rect class="r" x="341" y="140" width="154" height="25"/><text class="j" x="351" y="157">keyword:instance-field</text></a><a xlink:href="#integer"><rect class="r" x="585" y="110" width="62" height="25"/><text class="j" x="595" y="127">integer</text></a><a xlink:href="#keyword:instance-field"><rect class="r" x="585" y="140" width="154" height="25"/><text class="j" x="595" y="157">keyword:instance-field</text></a><rect class="l" x="809" y="110" width="25" height="25" rx="7"/><text class="j" x="819" y="127">]</text><rect class="l" x="844" y="110" width="25" height="25" rx="7"/><text class="j" x="854" y="127">)</text><rect class="l" x="879" y="110" width="28" height="25" rx="7"/><text class="j" x="889" y="127">»</text><a xlink:href="#any"><rect class="r" x="917" y="110" width="42" height="25"/><text class="j" x="927" y="127">any</text></a><rect class="l" x="25" y="185" width="25" height="25" rx="7"/><text class="j" x="35" y="202">(</text><rect class="l" x="60" y="185" width="47" height="25" rx="7"/><text class="j" x="70" y="202">valid</text><a xlink:href="#instance-expression"><rect class="r" x="117" y="185" width="138" height="25"/><text class="j" x="127" y="202">instance-expression</text></a><rect class="l" x="265" y="185" width="25" height="25" rx="7"/><text class="j" x="275" y="202">)</text><rect class="l" x="300" y="185" width="28" height="25" rx="7"/><text class="j" x="310" y="202">»</text><a xlink:href="#any"><rect class="r" x="338" y="185" width="42" height="25"/><text class="j" x="348" y="202">any</text></a><rect class="l" x="25" y="215" width="25" height="25" rx="7"/><text class="j" x="35" y="232">(</text><rect class="l" x="60" y="215" width="53" height="25" rx="7"/><text class="j" x="70" y="232">when</text><a xlink:href="#boolean"><rect class="r" x="123" y="215" width="66" height="25"/><text class="j" x="133" y="232">boolean</text></a><a xlink:href="#any-expression"><rect class="r" x="199" y="215" width="110" height="25"/><text class="j" x="209" y="232">any-expression</text></a><rect class="l" x="319" y="215" width="25" height="25" rx="7"/><text class="j" x="329" y="232">)</text><rect class="l" x="354" y="215" width="28" height="25" rx="7"/><text class="j" x="364" y="232">»</text><a xlink:href="#any"><rect class="r" x="392" y="215" width="42" height="25"/><text class="j" x="402" y="232">any</text></a><rect class="l" x="25" y="245" width="25" height="25" rx="7"/><text class="j" x="35" y="262">(</text><rect class="l" x="60" y="245" width="90" height="25" rx="7"/><text class="j" x="70" y="262">when-value</text><a xlink:href="#symbol"><rect class="r" x="160" y="245" width="62" height="25"/><text class="j" x="170" y="262">symbol</text></a><a xlink:href="#any-expression:binding"><rect class="r" x="232" y="245" width="158" height="25"/><text class="j" x="242" y="262">any-expression:binding</text></a><rect class="l" x="400" y="245" width="25" height="25" rx="7"/><text class="j" x="410" y="262">)</text><rect class="l" x="435" y="245" width="28" height="25" rx="7"/><text class="j" x="445" y="262">»</text><a xlink:href="#any"><rect class="r" x="473" y="245" width="42" height="25"/><text class="j" x="483" y="262">any</text></a><rect class="l" x="25" y="275" width="25" height="25" rx="7"/><text class="j" x="35" y="292">(</text><rect class="l" x="60" y="275" width="110" height="25" rx="7"/><text class="j" x="70" y="292">when-value-let</text><rect class="l" x="180" y="275" width="25" height="25" rx="7"/><text class="j" x="190" y="292">[</text><a xlink:href="#symbol"><rect class="r" x="215" y="275" width="62" height="25"/><text class="j" x="225" y="292">symbol</text></a><a xlink:href="#any:binding"><rect class="r" x="287" y="275" width="90" height="25"/><text class="j" x="297" y="292">any:binding</text></a><rect class="l" x="387" y="275" width="25" height="25" rx="7"/><text class="j" x="397" y="292">]</text><a xlink:href="#any-expression"><rect class="r" x="422" y="275" width="110" height="25"/><text class="j" x="432" y="292">any-expression</text></a><rect class="l" x="542" y="275" width="25" height="25" rx="7"/><text class="j" x="552" y="292">)</text><rect class="l" x="577" y="275" width="28" height="25" rx="7"/><text class="j" x="587" y="292">»</text><a xlink:href="#any"><rect class="r" x="615" y="275" width="42" height="25"/><text class="j" x="625" y="292">any</text></a></svg>