<svg version="1.1" xmlns:xlink="http://www.w3.org/1999/xlink" xmlns="http://www.w3.org/2000/svg" width="768" height="305" viewbox="0 0 768 305"><defs><style type="text/css">.c{fill:none;stroke:#222222;}.i{fill:#000000;font-family:Verdana,Sans-serif;font-size:12px;}.l{fill:#90d9ff;stroke:#222222;}.r{fill:#d3f0ff;stroke:#222222;}</style></defs><path class="c" d="M0 22h25m101 0h10m28 0h10m56 0h533m-748 25q0 5 5 5h5m73 0h10m24 0h10m153 0h10m28 0h10m43 0h362q5 0 5-5m-738 30q0 5 5 5h5m59 0h10m25 0h10m65 0h10m25 0h10m28 0h10m54 0h417q5 0 5-5m-738 45q0 5 5 5h25m73 0h10m24 0h10m153 0h20m-305 0q5 0 5 5v20q0 5 5 5h5m59 0h10m25 0h10m65 0h10m25 0h71q5 0 5-5v-20q0-5 5-5m5 0h50m-5 0q-5 0-5-5v-17q0-5 5-5h237q5 0 5 5v17q0 5-5 5m-232 0h20m24 0h10m153 0h20m-222 0q5 0 5 5v20q0 5 5 5h5m25 0h10m65 0h10m25 0h57q5 0 5-5v-20q0-5 5-5m5 0h40m-302 0q5 0 5 5v38q0 5 5 5h277q5 0 5-5v-38q0-5 5-5m5 0h10m28 0h10m43 0h5q5 0 5-5m-738 75q0 5 5 5h5m49 0h10m147 0h10m28 0h10m43 0h426q5 0 5-5m-738 30q0 5 5 5h5m55 0h10m25 0h10m71 0h10m25 0h10m117 0h10m28 0h10m43 0h299q5 0 5-5m-738 30q0 5 5 5h5m90 0h10m25 0h10m64 0h10m25 0h10m117 0h10m28 0h10m43 0h271q5 0 5-5m-743-235q5 0 5 5v260q0 5 5 5h5m110 0h10m25 0h10m64 0h10m29 0h10m43 0h10m25 0h10m117 0h10m28 0h10m43 0h159q5 0 5-5v-260q0-5 5-5m5 0h5"/><a xlink:href="#&lt;$no-value&gt;"><rect class="r" x="25" y="5" width="101" height="25"/><text class="i" x="35" y="22">&lt;$no-value&gt;</text></a><rect class="l" x="136" y="5" width="28" height="25" rx="7"/><text class="i" x="146" y="22">»</text><a xlink:href="#unset"><rect class="r" x="174" y="5" width="56" height="25"/><text class="i" x="184" y="22">unset</text></a><a xlink:href="#instance"><rect class="r" x="25" y="35" width="73" height="25"/><text class="i" x="35" y="52">instance</text></a><rect class="l" x="108" y="35" width="24" height="25" rx="7"/><text class="i" x="118" y="52">.</text><a xlink:href="#symbol:instance-field"><rect class="r" x="142" y="35" width="153" height="25"/><text class="i" x="152" y="52">symbol:instance-field</text></a><rect class="l" x="305" y="35" width="28" height="25" rx="7"/><text class="i" x="315" y="52">»</text><a xlink:href="#any"><rect class="r" x="343" y="35" width="43" height="25"/><text class="i" x="353" y="52">any</text></a><a xlink:href="#vector"><rect class="r" x="25" y="65" width="59" height="25"/><text class="i" x="35" y="82">vector</text></a><rect class="l" x="94" y="65" width="25" height="25" rx="7"/><text class="i" x="104" y="82">[</text><a xlink:href="#integer"><rect class="r" x="129" y="65" width="65" height="25"/><text class="i" x="139" y="82">integer</text></a><rect class="l" x="204" y="65" width="25" height="25" rx="7"/><text class="i" x="214" y="82">]</text><rect class="l" x="239" y="65" width="28" height="25" rx="7"/><text class="i" x="249" y="82">»</text><a xlink:href="#value"><rect class="r" x="277" y="65" width="54" height="25"/><text class="i" x="287" y="82">value</text></a><a xlink:href="#instance"><rect class="r" x="45" y="110" width="73" height="25"/><text class="i" x="55" y="127">instance</text></a><rect class="l" x="128" y="110" width="24" height="25" rx="7"/><text class="i" x="138" y="127">.</text><a xlink:href="#symbol:instance-field"><rect class="r" x="162" y="110" width="153" height="25"/><text class="i" x="172" y="127">symbol:instance-field</text></a><a xlink:href="#vector"><rect class="r" x="45" y="140" width="59" height="25"/><text class="i" x="55" y="157">vector</text></a><rect class="l" x="114" y="140" width="25" height="25" rx="7"/><text class="i" x="124" y="157">[</text><a xlink:href="#integer"><rect class="r" x="149" y="140" width="65" height="25"/><text class="i" x="159" y="157">integer</text></a><rect class="l" x="224" y="140" width="25" height="25" rx="7"/><text class="i" x="234" y="157">]</text><rect class="l" x="405" y="110" width="24" height="25" rx="7"/><text class="i" x="415" y="127">.</text><a xlink:href="#symbol:instance-field"><rect class="r" x="439" y="110" width="153" height="25"/><text class="i" x="449" y="127">symbol:instance-field</text></a><rect class="l" x="405" y="140" width="25" height="25" rx="7"/><text class="i" x="415" y="157">[</text><a xlink:href="#integer"><rect class="r" x="440" y="140" width="65" height="25"/><text class="i" x="450" y="157">integer</text></a><rect class="l" x="515" y="140" width="25" height="25" rx="7"/><text class="i" x="525" y="157">]</text><rect class="l" x="662" y="110" width="28" height="25" rx="7"/><text class="i" x="672" y="127">»</text><a xlink:href="#any"><rect class="r" x="700" y="110" width="43" height="25"/><text class="i" x="710" y="127">any</text></a><rect class="l" x="25" y="185" width="49" height="25" rx="7"/><text class="i" x="35" y="202">valid</text><a xlink:href="#instance-expression"><rect class="r" x="84" y="185" width="147" height="25"/><text class="i" x="94" y="202">instance-expression</text></a><rect class="l" x="241" y="185" width="28" height="25" rx="7"/><text class="i" x="251" y="202">»</text><a xlink:href="#any"><rect class="r" x="279" y="185" width="43" height="25"/><text class="i" x="289" y="202">any</text></a><rect class="l" x="25" y="215" width="55" height="25" rx="7"/><text class="i" x="35" y="232">when</text><rect class="l" x="90" y="215" width="25" height="25" rx="7"/><text class="i" x="100" y="232">(</text><a xlink:href="#boolean"><rect class="r" x="125" y="215" width="71" height="25"/><text class="i" x="135" y="232">boolean</text></a><rect class="l" x="206" y="215" width="25" height="25" rx="7"/><text class="i" x="216" y="232">)</text><a xlink:href="#any-expression"><rect class="r" x="241" y="215" width="117" height="25"/><text class="i" x="251" y="232">any-expression</text></a><rect class="l" x="368" y="215" width="28" height="25" rx="7"/><text class="i" x="378" y="232">»</text><a xlink:href="#any"><rect class="r" x="406" y="215" width="43" height="25"/><text class="i" x="416" y="232">any</text></a><rect class="l" x="25" y="245" width="90" height="25" rx="7"/><text class="i" x="35" y="262">whenValue</text><rect class="l" x="125" y="245" width="25" height="25" rx="7"/><text class="i" x="135" y="262">(</text><a xlink:href="#symbol"><rect class="r" x="160" y="245" width="64" height="25"/><text class="i" x="170" y="262">symbol</text></a><rect class="l" x="234" y="245" width="25" height="25" rx="7"/><text class="i" x="244" y="262">)</text><a xlink:href="#any-expression"><rect class="r" x="269" y="245" width="117" height="25"/><text class="i" x="279" y="262">any-expression</text></a><rect class="l" x="396" y="245" width="28" height="25" rx="7"/><text class="i" x="406" y="262">»</text><a xlink:href="#any"><rect class="r" x="434" y="245" width="43" height="25"/><text class="i" x="444" y="262">any</text></a><rect class="l" x="25" y="275" width="110" height="25" rx="7"/><text class="i" x="35" y="292">whenValueLet</text><rect class="l" x="145" y="275" width="25" height="25" rx="7"/><text class="i" x="155" y="292">(</text><a xlink:href="#symbol"><rect class="r" x="180" y="275" width="64" height="25"/><text class="i" x="190" y="292">symbol</text></a><rect class="l" x="254" y="275" width="29" height="25" rx="7"/><text class="i" x="264" y="292">=</text><a xlink:href="#any"><rect class="r" x="293" y="275" width="43" height="25"/><text class="i" x="303" y="292">any</text></a><rect class="l" x="346" y="275" width="25" height="25" rx="7"/><text class="i" x="356" y="292">)</text><a xlink:href="#any-expression"><rect class="r" x="381" y="275" width="117" height="25"/><text class="i" x="391" y="292">any-expression</text></a><rect class="l" x="508" y="275" width="28" height="25" rx="7"/><text class="i" x="518" y="292">»</text><a xlink:href="#any"><rect class="r" x="546" y="275" width="43" height="25"/><text class="i" x="556" y="292">any</text></a></svg>