<svg version="1.1" xmlns:xlink="http://www.w3.org/1999/xlink" xmlns="http://www.w3.org/2000/svg" width="719" height="425" viewbox="0 0 719 425"><defs><style type="text/css">.c{fill: none; stroke: #888888; stroke-width: 2px;}.j{fill:#000000;font-family:Verdana,Sans-serif;font-size:12px;}.l{fill:#90d9ff;stroke:#222222;}.r{fill:#d3f0ff;stroke:#222222;}</style></defs><path class="c" d="M0 18h25m25 0h10m59 0h30m57 0h10m57 0h10m25 0h10m28 0h10m57 0h22m-301 0q5 0 5 5v20q0 5 5 5h5m38 0h30m38 0h39m-92 0q5 0 5 5v20q0 5 5 5h5m57 0h5q5 0 5-5v-20q0-5 5-5m5 0h10m25 0h10m28 0h10m38 0h5q5 0 5-5v-20q0-5 5-5m5 0h279m-699 100q0 5 5 5h5m25 0h10m45 0h30m38 0h30m-5 0q-5 0-5-5v-17q0-5 5-5h62q5 0 5 5v17q0 5-5 5m-5 0h30m25 0h10m28 0h10m38 0h58m-334 0q5 0 5 5v35q0 5 5 5h5m57 0h30m-5 0q-5 0-5-5v-17q0-5 5-5h62q5 0 5 5v17q0 5-5 5m-5 0h30m25 0h10m28 0h10m57 0h5q5 0 5-5v-35q0-5 5-5m5 0h245q5 0 5-5m-689 75q0 5 5 5h5m25 0h10m78 0h10m38 0h10m38 0h10m25 0h10m28 0h10m38 0h344q5 0 5-5m-689 30q0 5 5 5h5m25 0h10m47 0h30m25 0h10m116 0h10m38 0h10m25 0h10m134 0h10m25 0h10m28 0h10m38 0h58m-572 0q5 0 5 5v20q0 5 5 5h5m25 0h10m116 0h10m57 0h10m25 0h10m134 0h10m25 0h10m28 0h10m57 0h5q5 0 5-5v-20q0-5 5-5m5 0h5q5 0 5-5m-689 75q0 5 5 5h5m25 0h10m90 0h10m38 0h30m-5 0q-5 0-5-5v-17q0-5 5-5h48q5 0 5 5v17q0 5-5 5m-5 0h30m25 0h10m28 0h10m38 0h292q5 0 5-5m-689 30q0 5 5 5h5m25 0h10m46 0h30m25 0h10m116 0h10m38 0h10m25 0h10m120 0h10m25 0h10m28 0h10m38 0h58m-558 0q5 0 5 5v20q0 5 5 5h5m25 0h10m116 0h10m57 0h10m25 0h10m120 0h10m25 0h10m28 0h10m57 0h5q5 0 5-5v-20q0-5 5-5m5 0h20q5 0 5-5m-694-310q5 0 5 5v380q0 5 5 5h5m25 0h10m54 0h10m38 0h30m-5 0q-5 0-5-5v-17q0-5 5-5h48q5 0 5 5v17q0 5-5 5m-5 0h30m25 0h10m28 0h10m38 0h328q5 0 5-5v-380q0-5 5-5m5 0h5"/><rect class="l" x="25" y="5" width="25" height="25" rx="7"/><text class="j" x="35" y="22">(</text><rect class="l" x="60" y="5" width="59" height="25" rx="7"/><text class="j" x="70" y="22">concat</text><a xlink:href="#vector"><rect class="r" x="149" y="5" width="57" height="25"/><text class="j" x="159" y="22">vector</text></a><a xlink:href="#vector"><rect class="r" x="216" y="5" width="57" height="25"/><text class="j" x="226" y="22">vector</text></a><rect class="l" x="283" y="5" width="25" height="25" rx="7"/><text class="j" x="293" y="22">)</text><rect class="l" x="318" y="5" width="28" height="25" rx="7"/><text class="j" x="328" y="22">»</text><a xlink:href="#vector"><rect class="r" x="356" y="5" width="57" height="25"/><text class="j" x="366" y="22">vector</text></a><a xlink:href="#set"><rect class="r" x="149" y="35" width="38" height="25"/><text class="j" x="159" y="52">set</text></a><a xlink:href="#set"><rect class="r" x="217" y="35" width="38" height="25"/><text class="j" x="227" y="52">set</text></a><a xlink:href="#vector"><rect class="r" x="217" y="65" width="57" height="25"/><text class="j" x="227" y="82">vector</text></a><rect class="l" x="304" y="35" width="25" height="25" rx="7"/><text class="j" x="314" y="52">)</text><rect class="l" x="339" y="35" width="28" height="25" rx="7"/><text class="j" x="349" y="52">»</text><a xlink:href="#set"><rect class="r" x="377" y="35" width="38" height="25"/><text class="j" x="387" y="52">set</text></a><rect class="l" x="25" y="110" width="25" height="25" rx="7"/><text class="j" x="35" y="127">(</text><rect class="l" x="60" y="110" width="45" height="25" rx="7"/><text class="j" x="70" y="127">conj</text><a xlink:href="#set"><rect class="r" x="135" y="110" width="38" height="25"/><text class="j" x="145" y="127">set</text></a><a xlink:href="#value"><rect class="r" x="203" y="110" width="52" height="25"/><text class="j" x="213" y="127">value</text></a><rect class="l" x="285" y="110" width="25" height="25" rx="7"/><text class="j" x="295" y="127">)</text><rect class="l" x="320" y="110" width="28" height="25" rx="7"/><text class="j" x="330" y="127">»</text><a xlink:href="#set"><rect class="r" x="358" y="110" width="38" height="25"/><text class="j" x="368" y="127">set</text></a><a xlink:href="#vector"><rect class="r" x="135" y="155" width="57" height="25"/><text class="j" x="145" y="172">vector</text></a><a xlink:href="#value"><rect class="r" x="222" y="155" width="52" height="25"/><text class="j" x="232" y="172">value</text></a><rect class="l" x="304" y="155" width="25" height="25" rx="7"/><text class="j" x="314" y="172">)</text><rect class="l" x="339" y="155" width="28" height="25" rx="7"/><text class="j" x="349" y="172">»</text><a xlink:href="#vector"><rect class="r" x="377" y="155" width="57" height="25"/><text class="j" x="387" y="172">vector</text></a><rect class="l" x="25" y="185" width="25" height="25" rx="7"/><text class="j" x="35" y="202">(</text><rect class="l" x="60" y="185" width="78" height="25" rx="7"/><text class="j" x="70" y="202">difference</text><a xlink:href="#set"><rect class="r" x="148" y="185" width="38" height="25"/><text class="j" x="158" y="202">set</text></a><a xlink:href="#set"><rect class="r" x="196" y="185" width="38" height="25"/><text class="j" x="206" y="202">set</text></a><rect class="l" x="244" y="185" width="25" height="25" rx="7"/><text class="j" x="254" y="202">)</text><rect class="l" x="279" y="185" width="28" height="25" rx="7"/><text class="j" x="289" y="202">»</text><a xlink:href="#set"><rect class="r" x="317" y="185" width="38" height="25"/><text class="j" x="327" y="202">set</text></a><rect class="l" x="25" y="215" width="25" height="25" rx="7"/><text class="j" x="35" y="232">(</text><rect class="l" x="60" y="215" width="47" height="25" rx="7"/><text class="j" x="70" y="232">filter</text><rect class="l" x="137" y="215" width="25" height="25" rx="7"/><text class="j" x="147" y="232">[</text><a xlink:href="#symbol:element"><rect class="r" x="172" y="215" width="116" height="25"/><text class="j" x="182" y="232">symbol:element</text></a><a xlink:href="#set"><rect class="r" x="298" y="215" width="38" height="25"/><text class="j" x="308" y="232">set</text></a><rect class="l" x="346" y="215" width="25" height="25" rx="7"/><text class="j" x="356" y="232">]</text><a xlink:href="#boolean-expression"><rect class="r" x="381" y="215" width="134" height="25"/><text class="j" x="391" y="232">boolean-expression</text></a><rect class="l" x="525" y="215" width="25" height="25" rx="7"/><text class="j" x="535" y="232">)</text><rect class="l" x="560" y="215" width="28" height="25" rx="7"/><text class="j" x="570" y="232">»</text><a xlink:href="#set"><rect class="r" x="598" y="215" width="38" height="25"/><text class="j" x="608" y="232">set</text></a><rect class="l" x="137" y="245" width="25" height="25" rx="7"/><text class="j" x="147" y="262">[</text><a xlink:href="#symbol:element"><rect class="r" x="172" y="245" width="116" height="25"/><text class="j" x="182" y="262">symbol:element</text></a><a xlink:href="#vector"><rect class="r" x="298" y="245" width="57" height="25"/><text class="j" x="308" y="262">vector</text></a><rect class="l" x="365" y="245" width="25" height="25" rx="7"/><text class="j" x="375" y="262">]</text><a xlink:href="#boolean-expression"><rect class="r" x="400" y="245" width="134" height="25"/><text class="j" x="410" y="262">boolean-expression</text></a><rect class="l" x="544" y="245" width="25" height="25" rx="7"/><text class="j" x="554" y="262">)</text><rect class="l" x="579" y="245" width="28" height="25" rx="7"/><text class="j" x="589" y="262">»</text><a xlink:href="#vector"><rect class="r" x="617" y="245" width="57" height="25"/><text class="j" x="627" y="262">vector</text></a><rect class="l" x="25" y="290" width="25" height="25" rx="7"/><text class="j" x="35" y="307">(</text><rect class="l" x="60" y="290" width="90" height="25" rx="7"/><text class="j" x="70" y="307">intersection</text><a xlink:href="#set"><rect class="r" x="160" y="290" width="38" height="25"/><text class="j" x="170" y="307">set</text></a><a xlink:href="#set"><rect class="r" x="228" y="290" width="38" height="25"/><text class="j" x="238" y="307">set</text></a><rect class="l" x="296" y="290" width="25" height="25" rx="7"/><text class="j" x="306" y="307">)</text><rect class="l" x="331" y="290" width="28" height="25" rx="7"/><text class="j" x="341" y="307">»</text><a xlink:href="#set"><rect class="r" x="369" y="290" width="38" height="25"/><text class="j" x="379" y="307">set</text></a><rect class="l" x="25" y="320" width="25" height="25" rx="7"/><text class="j" x="35" y="337">(</text><rect class="l" x="60" y="320" width="46" height="25" rx="7"/><text class="j" x="70" y="337">map</text><rect class="l" x="136" y="320" width="25" height="25" rx="7"/><text class="j" x="146" y="337">[</text><a xlink:href="#symbol:element"><rect class="r" x="171" y="320" width="116" height="25"/><text class="j" x="181" y="337">symbol:element</text></a><a xlink:href="#set"><rect class="r" x="297" y="320" width="38" height="25"/><text class="j" x="307" y="337">set</text></a><rect class="l" x="345" y="320" width="25" height="25" rx="7"/><text class="j" x="355" y="337">]</text><a xlink:href="#value-expression"><rect class="r" x="380" y="320" width="120" height="25"/><text class="j" x="390" y="337">value-expression</text></a><rect class="l" x="510" y="320" width="25" height="25" rx="7"/><text class="j" x="520" y="337">)</text><rect class="l" x="545" y="320" width="28" height="25" rx="7"/><text class="j" x="555" y="337">»</text><a xlink:href="#set"><rect class="r" x="583" y="320" width="38" height="25"/><text class="j" x="593" y="337">set</text></a><rect class="l" x="136" y="350" width="25" height="25" rx="7"/><text class="j" x="146" y="367">[</text><a xlink:href="#symbol:element"><rect class="r" x="171" y="350" width="116" height="25"/><text class="j" x="181" y="367">symbol:element</text></a><a xlink:href="#vector"><rect class="r" x="297" y="350" width="57" height="25"/><text class="j" x="307" y="367">vector</text></a><rect class="l" x="364" y="350" width="25" height="25" rx="7"/><text class="j" x="374" y="367">]</text><a xlink:href="#value-expression"><rect class="r" x="399" y="350" width="120" height="25"/><text class="j" x="409" y="367">value-expression</text></a><rect class="l" x="529" y="350" width="25" height="25" rx="7"/><text class="j" x="539" y="367">)</text><rect class="l" x="564" y="350" width="28" height="25" rx="7"/><text class="j" x="574" y="367">»</text><a xlink:href="#vector"><rect class="r" x="602" y="350" width="57" height="25"/><text class="j" x="612" y="367">vector</text></a><rect class="l" x="25" y="395" width="25" height="25" rx="7"/><text class="j" x="35" y="412">(</text><rect class="l" x="60" y="395" width="54" height="25" rx="7"/><text class="j" x="70" y="412">union</text><a xlink:href="#set"><rect class="r" x="124" y="395" width="38" height="25"/><text class="j" x="134" y="412">set</text></a><a xlink:href="#set"><rect class="r" x="192" y="395" width="38" height="25"/><text class="j" x="202" y="412">set</text></a><rect class="l" x="260" y="395" width="25" height="25" rx="7"/><text class="j" x="270" y="412">)</text><rect class="l" x="295" y="395" width="28" height="25" rx="7"/><text class="j" x="305" y="412">»</text><a xlink:href="#set"><rect class="r" x="333" y="395" width="38" height="25"/><text class="j" x="343" y="412">set</text></a></svg>