<svg version="1.1" xmlns:xlink="http://www.w3.org/1999/xlink" xmlns="http://www.w3.org/2000/svg" width="786" height="991" viewbox="0 0 786 991"><defs><style type="text/css">.c{fill: none; stroke: #888888; stroke-width: 2px;}.i{fill:#000000;font-family:Dialog,Sans-serif;font-size:12px;}.l{fill:#90d9ff;stroke:#222222;}.r{fill:#d3f0ff;stroke:#222222;}</style></defs><path class="c" d="M0 17h25m53 0h10m35 0h10m53 0h10m27 0h10m71 0h477m-766 24q0 5 5 5h5m53 0h10m40 0h10m53 0h10m27 0h10m71 0h457q5 0 5-5m-756 29q0 5 5 5h5m48 0h10m25 0h10m63 0h10m31 0h30m40 0h39m-94 0q5 0 5 5v19q0 5 5 5h5m59 0h5q5 0 5-5v-19q0-5 5-5m5 0h10m25 0h10m143 0h10m27 0h10m71 0h129q5 0 5-5m-756 58q0 5 5 5h5m59 0h10m24 0h10m63 0h10m25 0h10m59 0h10m25 0h10m27 0h10m59 0h330q5 0 5-5m-756 29q0 5 5 5h5m40 0h10m24 0h10m63 0h10m25 0h30m40 0h39m-94 0q5 0 5 5v19q0 5 5 5h5m59 0h5q5 0 5-5v-19q0-5 5-5m5 0h10m25 0h10m27 0h10m40 0h328q5 0 5-5m-756 87q0 5 5 5h5m40 0h10m24 0h10m46 0h10m25 0h30m-5 0q-5 0-5-5v-19q0-5 5-5h19m24 0h20q5 0 5 5v19q0 5-5 5m-5 0h30m25 0h10m27 0h10m40 0h351q5 0 5-5m-756 58q0 5 5 5h5m59 0h10m24 0h10m46 0h10m25 0h30m-5 0q-5 0-5-5v-19q0-5 5-5h19m24 0h20q5 0 5 5v19q0 5-5 5m-5 0h30m25 0h10m27 0h10m59 0h313q5 0 5-5m-756 29q0 5 5 5h5m40 0h10m24 0h10m80 0h10m25 0h10m53 0h10m25 0h10m27 0h10m71 0h326q5 0 5-5m-756 29q0 5 5 5h25m40 0h39m-94 0q5 0 5 5v19q0 5 5 5h5m59 0h5q5 0 5-5v-19q0-5 5-5m5 0h10m24 0h10m66 0h10m27 0h10m65 0h420q5 0 5-5m-756 58q0 5 5 5h5m40 0h10m24 0h10m83 0h10m25 0h10m40 0h10m25 0h10m27 0h10m40 0h367q5 0 5-5m-756 58q0 5 5 5h5m70 0h10m25 0h10m53 0h10m24 0h30m-5 0q-5 0-5-5v-19q0-5 5-5h19m24 0h20q5 0 5 5v19q0 5-5 5m-5 0h30m25 0h10m27 0h10m71 0h283q5 0 5-5m-756 29q0 5 5 5h5m59 0h10m25 0h10m63 0h10m31 0h30m40 0h39m-94 0q5 0 5 5v19q0 5 5 5h5m59 0h5q5 0 5-5v-19q0-5 5-5m5 0h10m25 0h10m143 0h10m27 0h10m71 0h118q5 0 5-5m-756 58q0 5 5 5h5m48 0h10m25 0h10m63 0h10m31 0h10m40 0h10m25 0h10m143 0h10m27 0h10m40 0h219q5 0 5-5m-756 29q0 5 5 5h5m48 0h10m25 0h10m63 0h10m31 0h10m59 0h10m25 0h10m143 0h10m27 0h10m59 0h181q5 0 5-5m-756 58q0 5 5 5h5m40 0h10m24 0h10m95 0h10m25 0h30m-5 0q-5 0-5-5v-19q0-5 5-5h13m24 0h13q5 0 5 5v19q0 5-5 5m-5 0h30m25 0h10m27 0h10m40 0h315q5 0 5-5m-756 29q0 5 5 5h5m47 0h10m25 0h10m118 0h10m31 0h10m40 0h10m25 0h10m125 0h10m27 0h10m40 0h183q5 0 5-5m-756 29q0 5 5 5h5m47 0h10m25 0h10m118 0h10m31 0h10m59 0h10m25 0h10m125 0h10m27 0h10m59 0h145q5 0 5-5m-756 58q0 5 5 5h5m91 0h10m25 0h10m53 0h10m24 0h30m-5 0q-5 0-5-5v-19q0-5 5-5h19m24 0h20q5 0 5 5v19q0 5-5 5m-5 0h30m25 0h10m27 0h10m71 0h262q5 0 5-5m-756 29q0 5 5 5h25m40 0h39m-94 0q5 0 5 5v19q0 5 5 5h5m59 0h5q5 0 5-5v-19q0-5 5-5m5 0h10m24 0h10m55 0h10m27 0h10m59 0h437q5 0 5-5m-756 58q0 5 5 5h5m59 0h10m25 0h10m118 0h10m31 0h30m40 0h39m-94 0q5 0 5 5v19q0 5 5 5h5m59 0h5q5 0 5-5v-19q0-5 5-5m5 0h10m25 0h30m137 0h56m-208 0q5 0 5 5v19q0 5 5 5h5m173 0h5q5 0 5-5v-19q0-5 5-5m5 0h10m27 0h10m59 0h5q5 0 5-5m-756 58q0 5 5 5h5m40 0h10m24 0h10m69 0h10m25 0h10m40 0h10m25 0h10m27 0h10m71 0h350q5 0 5-5m-761-894q5 0 5 5v947q0 5 5 5h5m40 0h10m24 0h10m55 0h10m25 0h30m-5 0q-5 0-5-5v-19q0-5 5-5h13m24 0h13q5 0 5 5v19q0 5-5 5m-5 0h30m25 0h10m27 0h10m40 0h355q5 0 5-5v-947q0-5 5-5m5 0h5"/><a xlink:href="#value"><rect class="r" x="25" y="5" width="53" height="24"/><text class="i" x="35" y="21">value</text></a><rect class="l" x="88" y="5" width="35" height="24" rx="7"/><text class="i" x="98" y="21">!=</text><a xlink:href="#value"><rect class="r" x="133" y="5" width="53" height="24"/><text class="i" x="143" y="21">value</text></a><rect class="l" x="196" y="5" width="27" height="24" rx="7"/><text class="i" x="206" y="21">»</text><a xlink:href="#boolean"><rect class="r" x="233" y="5" width="71" height="24"/><text class="i" x="243" y="21">boolean</text></a><a xlink:href="#value"><rect class="r" x="25" y="34" width="53" height="24"/><text class="i" x="35" y="50">value</text></a><rect class="l" x="88" y="34" width="40" height="24" rx="7"/><text class="i" x="98" y="50">==</text><a xlink:href="#value"><rect class="r" x="138" y="34" width="53" height="24"/><text class="i" x="148" y="50">value</text></a><rect class="l" x="201" y="34" width="27" height="24" rx="7"/><text class="i" x="211" y="50">»</text><a xlink:href="#boolean"><rect class="r" x="238" y="34" width="71" height="24"/><text class="i" x="248" y="50">boolean</text></a><rect class="l" x="25" y="63" width="48" height="24" rx="7"/><text class="i" x="35" y="79">any?</text><rect class="l" x="83" y="63" width="25" height="24" rx="7"/><text class="i" x="93" y="79">(</text><a xlink:href="#symbol"><rect class="r" x="118" y="63" width="63" height="24"/><text class="i" x="128" y="79">symbol</text></a><rect class="l" x="191" y="63" width="31" height="24" rx="7"/><text class="i" x="201" y="79">in</text><a xlink:href="#set"><rect class="r" x="252" y="63" width="40" height="24"/><text class="i" x="262" y="79">set</text></a><a xlink:href="#vector"><rect class="r" x="252" y="92" width="59" height="24"/><text class="i" x="262" y="108">vector</text></a><rect class="l" x="341" y="63" width="25" height="24" rx="7"/><text class="i" x="351" y="79">)</text><a xlink:href="#boolean-expression"><rect class="r" x="376" y="63" width="143" height="24"/><text class="i" x="386" y="79">boolean-expression</text></a><rect class="l" x="529" y="63" width="27" height="24" rx="7"/><text class="i" x="539" y="79">»</text><a xlink:href="#boolean"><rect class="r" x="566" y="63" width="71" height="24"/><text class="i" x="576" y="79">boolean</text></a><a xlink:href="#vector"><rect class="r" x="25" y="121" width="59" height="24"/><text class="i" x="35" y="137">vector</text></a><rect class="l" x="94" y="121" width="24" height="24" rx="7"/><text class="i" x="104" y="137">.</text><rect class="l" x="128" y="121" width="63" height="24" rx="7"/><text class="i" x="138" y="137">concat</text><rect class="l" x="201" y="121" width="25" height="24" rx="7"/><text class="i" x="211" y="137">(</text><a xlink:href="#vector"><rect class="r" x="236" y="121" width="59" height="24"/><text class="i" x="246" y="137">vector</text></a><rect class="l" x="305" y="121" width="25" height="24" rx="7"/><text class="i" x="315" y="137">)</text><rect class="l" x="340" y="121" width="27" height="24" rx="7"/><text class="i" x="350" y="137">»</text><a xlink:href="#vector"><rect class="r" x="377" y="121" width="59" height="24"/><text class="i" x="387" y="137">vector</text></a><a xlink:href="#set"><rect class="r" x="25" y="150" width="40" height="24"/><text class="i" x="35" y="166">set</text></a><rect class="l" x="75" y="150" width="24" height="24" rx="7"/><text class="i" x="85" y="166">.</text><rect class="l" x="109" y="150" width="63" height="24" rx="7"/><text class="i" x="119" y="166">concat</text><rect class="l" x="182" y="150" width="25" height="24" rx="7"/><text class="i" x="192" y="166">(</text><a xlink:href="#set"><rect class="r" x="237" y="150" width="40" height="24"/><text class="i" x="247" y="166">set</text></a><a xlink:href="#vector"><rect class="r" x="237" y="179" width="59" height="24"/><text class="i" x="247" y="195">vector</text></a><rect class="l" x="326" y="150" width="25" height="24" rx="7"/><text class="i" x="336" y="166">)</text><rect class="l" x="361" y="150" width="27" height="24" rx="7"/><text class="i" x="371" y="166">»</text><a xlink:href="#set"><rect class="r" x="398" y="150" width="40" height="24"/><text class="i" x="408" y="166">set</text></a><a xlink:href="#set"><rect class="r" x="25" y="237" width="40" height="24"/><text class="i" x="35" y="253">set</text></a><rect class="l" x="75" y="237" width="24" height="24" rx="7"/><text class="i" x="85" y="253">.</text><rect class="l" x="109" y="237" width="46" height="24" rx="7"/><text class="i" x="119" y="253">conj</text><rect class="l" x="165" y="237" width="25" height="24" rx="7"/><text class="i" x="175" y="253">(</text><rect class="l" x="234" y="208" width="24" height="24" rx="7"/><text class="i" x="244" y="224">,</text><a xlink:href="#value"><rect class="r" x="220" y="237" width="53" height="24"/><text class="i" x="230" y="253">value</text></a><rect class="l" x="303" y="237" width="25" height="24" rx="7"/><text class="i" x="313" y="253">)</text><rect class="l" x="338" y="237" width="27" height="24" rx="7"/><text class="i" x="348" y="253">»</text><a xlink:href="#set"><rect class="r" x="375" y="237" width="40" height="24"/><text class="i" x="385" y="253">set</text></a><a xlink:href="#vector"><rect class="r" x="25" y="295" width="59" height="24"/><text class="i" x="35" y="311">vector</text></a><rect class="l" x="94" y="295" width="24" height="24" rx="7"/><text class="i" x="104" y="311">.</text><rect class="l" x="128" y="295" width="46" height="24" rx="7"/><text class="i" x="138" y="311">conj</text><rect class="l" x="184" y="295" width="25" height="24" rx="7"/><text class="i" x="194" y="311">(</text><rect class="l" x="253" y="266" width="24" height="24" rx="7"/><text class="i" x="263" y="282">,</text><a xlink:href="#value"><rect class="r" x="239" y="295" width="53" height="24"/><text class="i" x="249" y="311">value</text></a><rect class="l" x="322" y="295" width="25" height="24" rx="7"/><text class="i" x="332" y="311">)</text><rect class="l" x="357" y="295" width="27" height="24" rx="7"/><text class="i" x="367" y="311">»</text><a xlink:href="#vector"><rect class="r" x="394" y="295" width="59" height="24"/><text class="i" x="404" y="311">vector</text></a><a xlink:href="#set"><rect class="r" x="25" y="324" width="40" height="24"/><text class="i" x="35" y="340">set</text></a><rect class="l" x="75" y="324" width="24" height="24" rx="7"/><text class="i" x="85" y="340">.</text><rect class="l" x="109" y="324" width="80" height="24" rx="7"/><text class="i" x="119" y="340">contains?</text><rect class="l" x="199" y="324" width="25" height="24" rx="7"/><text class="i" x="209" y="340">(</text><a xlink:href="#value"><rect class="r" x="234" y="324" width="53" height="24"/><text class="i" x="244" y="340">value</text></a><rect class="l" x="297" y="324" width="25" height="24" rx="7"/><text class="i" x="307" y="340">)</text><rect class="l" x="332" y="324" width="27" height="24" rx="7"/><text class="i" x="342" y="340">»</text><a xlink:href="#boolean"><rect class="r" x="369" y="324" width="71" height="24"/><text class="i" x="379" y="340">boolean</text></a><a xlink:href="#set"><rect class="r" x="45" y="353" width="40" height="24"/><text class="i" x="55" y="369">set</text></a><a xlink:href="#vector"><rect class="r" x="45" y="382" width="59" height="24"/><text class="i" x="55" y="398">vector</text></a><rect class="l" x="134" y="353" width="24" height="24" rx="7"/><text class="i" x="144" y="369">.</text><rect class="l" x="168" y="353" width="66" height="24" rx="7"/><text class="i" x="178" y="369">count()</text><rect class="l" x="244" y="353" width="27" height="24" rx="7"/><text class="i" x="254" y="369">»</text><a xlink:href="#integer"><rect class="r" x="281" y="353" width="65" height="24"/><text class="i" x="291" y="369">integer</text></a><a xlink:href="#set"><rect class="r" x="25" y="411" width="40" height="24"/><text class="i" x="35" y="427">set</text></a><rect class="l" x="75" y="411" width="24" height="24" rx="7"/><text class="i" x="85" y="427">.</text><rect class="l" x="109" y="411" width="83" height="24" rx="7"/><text class="i" x="119" y="427">difference</text><rect class="l" x="202" y="411" width="25" height="24" rx="7"/><text class="i" x="212" y="427">(</text><a xlink:href="#set"><rect class="r" x="237" y="411" width="40" height="24"/><text class="i" x="247" y="427">set</text></a><rect class="l" x="287" y="411" width="25" height="24" rx="7"/><text class="i" x="297" y="427">)</text><rect class="l" x="322" y="411" width="27" height="24" rx="7"/><text class="i" x="332" y="427">»</text><a xlink:href="#set"><rect class="r" x="359" y="411" width="40" height="24"/><text class="i" x="369" y="427">set</text></a><rect class="l" x="25" y="469" width="70" height="24" rx="7"/><text class="i" x="35" y="485">equalTo</text><rect class="l" x="105" y="469" width="25" height="24" rx="7"/><text class="i" x="115" y="485">(</text><a xlink:href="#value"><rect class="r" x="140" y="469" width="53" height="24"/><text class="i" x="150" y="485">value</text></a><rect class="l" x="203" y="469" width="24" height="24" rx="7"/><text class="i" x="213" y="485">,</text><rect class="l" x="271" y="440" width="24" height="24" rx="7"/><text class="i" x="281" y="456">,</text><a xlink:href="#value"><rect class="r" x="257" y="469" width="53" height="24"/><text class="i" x="267" y="485">value</text></a><rect class="l" x="340" y="469" width="25" height="24" rx="7"/><text class="i" x="350" y="485">)</text><rect class="l" x="375" y="469" width="27" height="24" rx="7"/><text class="i" x="385" y="485">»</text><a xlink:href="#boolean"><rect class="r" x="412" y="469" width="71" height="24"/><text class="i" x="422" y="485">boolean</text></a><rect class="l" x="25" y="498" width="59" height="24" rx="7"/><text class="i" x="35" y="514">every?</text><rect class="l" x="94" y="498" width="25" height="24" rx="7"/><text class="i" x="104" y="514">(</text><a xlink:href="#symbol"><rect class="r" x="129" y="498" width="63" height="24"/><text class="i" x="139" y="514">symbol</text></a><rect class="l" x="202" y="498" width="31" height="24" rx="7"/><text class="i" x="212" y="514">in</text><a xlink:href="#set"><rect class="r" x="263" y="498" width="40" height="24"/><text class="i" x="273" y="514">set</text></a><a xlink:href="#vector"><rect class="r" x="263" y="527" width="59" height="24"/><text class="i" x="273" y="543">vector</text></a><rect class="l" x="352" y="498" width="25" height="24" rx="7"/><text class="i" x="362" y="514">)</text><a xlink:href="#boolean-expression"><rect class="r" x="387" y="498" width="143" height="24"/><text class="i" x="397" y="514">boolean-expression</text></a><rect class="l" x="540" y="498" width="27" height="24" rx="7"/><text class="i" x="550" y="514">»</text><a xlink:href="#boolean"><rect class="r" x="577" y="498" width="71" height="24"/><text class="i" x="587" y="514">boolean</text></a><rect class="l" x="25" y="556" width="48" height="24" rx="7"/><text class="i" x="35" y="572">filter</text><rect class="l" x="83" y="556" width="25" height="24" rx="7"/><text class="i" x="93" y="572">(</text><a xlink:href="#symbol"><rect class="r" x="118" y="556" width="63" height="24"/><text class="i" x="128" y="572">symbol</text></a><rect class="l" x="191" y="556" width="31" height="24" rx="7"/><text class="i" x="201" y="572">in</text><a xlink:href="#set"><rect class="r" x="232" y="556" width="40" height="24"/><text class="i" x="242" y="572">set</text></a><rect class="l" x="282" y="556" width="25" height="24" rx="7"/><text class="i" x="292" y="572">)</text><a xlink:href="#boolean-expression"><rect class="r" x="317" y="556" width="143" height="24"/><text class="i" x="327" y="572">boolean-expression</text></a><rect class="l" x="470" y="556" width="27" height="24" rx="7"/><text class="i" x="480" y="572">»</text><a xlink:href="#set"><rect class="r" x="507" y="556" width="40" height="24"/><text class="i" x="517" y="572">set</text></a><rect class="l" x="25" y="585" width="48" height="24" rx="7"/><text class="i" x="35" y="601">filter</text><rect class="l" x="83" y="585" width="25" height="24" rx="7"/><text class="i" x="93" y="601">(</text><a xlink:href="#symbol"><rect class="r" x="118" y="585" width="63" height="24"/><text class="i" x="128" y="601">symbol</text></a><rect class="l" x="191" y="585" width="31" height="24" rx="7"/><text class="i" x="201" y="601">in</text><a xlink:href="#vector"><rect class="r" x="232" y="585" width="59" height="24"/><text class="i" x="242" y="601">vector</text></a><rect class="l" x="301" y="585" width="25" height="24" rx="7"/><text class="i" x="311" y="601">)</text><a xlink:href="#boolean-expression"><rect class="r" x="336" y="585" width="143" height="24"/><text class="i" x="346" y="601">boolean-expression</text></a><rect class="l" x="489" y="585" width="27" height="24" rx="7"/><text class="i" x="499" y="601">»</text><a xlink:href="#vector"><rect class="r" x="526" y="585" width="59" height="24"/><text class="i" x="536" y="601">vector</text></a><a xlink:href="#set"><rect class="r" x="25" y="643" width="40" height="24"/><text class="i" x="35" y="659">set</text></a><rect class="l" x="75" y="643" width="24" height="24" rx="7"/><text class="i" x="85" y="659">.</text><rect class="l" x="109" y="643" width="95" height="24" rx="7"/><text class="i" x="119" y="659">intersection</text><rect class="l" x="214" y="643" width="25" height="24" rx="7"/><text class="i" x="224" y="659">(</text><rect class="l" x="277" y="614" width="24" height="24" rx="7"/><text class="i" x="287" y="630">,</text><a xlink:href="#set"><rect class="r" x="269" y="643" width="40" height="24"/><text class="i" x="279" y="659">set</text></a><rect class="l" x="339" y="643" width="25" height="24" rx="7"/><text class="i" x="349" y="659">)</text><rect class="l" x="374" y="643" width="27" height="24" rx="7"/><text class="i" x="384" y="659">»</text><a xlink:href="#set"><rect class="r" x="411" y="643" width="40" height="24"/><text class="i" x="421" y="659">set</text></a><rect class="l" x="25" y="672" width="47" height="24" rx="7"/><text class="i" x="35" y="688">map</text><rect class="l" x="82" y="672" width="25" height="24" rx="7"/><text class="i" x="92" y="688">(</text><a xlink:href="#symbol:element"><rect class="r" x="117" y="672" width="118" height="24"/><text class="i" x="127" y="688">symbol:element</text></a><rect class="l" x="245" y="672" width="31" height="24" rx="7"/><text class="i" x="255" y="688">in</text><a xlink:href="#set"><rect class="r" x="286" y="672" width="40" height="24"/><text class="i" x="296" y="688">set</text></a><rect class="l" x="336" y="672" width="25" height="24" rx="7"/><text class="i" x="346" y="688">)</text><a xlink:href="#value-expression"><rect class="r" x="371" y="672" width="125" height="24"/><text class="i" x="381" y="688">value-expression</text></a><rect class="l" x="506" y="672" width="27" height="24" rx="7"/><text class="i" x="516" y="688">»</text><a xlink:href="#set"><rect class="r" x="543" y="672" width="40" height="24"/><text class="i" x="553" y="688">set</text></a><rect class="l" x="25" y="701" width="47" height="24" rx="7"/><text class="i" x="35" y="717">map</text><rect class="l" x="82" y="701" width="25" height="24" rx="7"/><text class="i" x="92" y="717">(</text><a xlink:href="#symbol:element"><rect class="r" x="117" y="701" width="118" height="24"/><text class="i" x="127" y="717">symbol:element</text></a><rect class="l" x="245" y="701" width="31" height="24" rx="7"/><text class="i" x="255" y="717">in</text><a xlink:href="#vector"><rect class="r" x="286" y="701" width="59" height="24"/><text class="i" x="296" y="717">vector</text></a><rect class="l" x="355" y="701" width="25" height="24" rx="7"/><text class="i" x="365" y="717">)</text><a xlink:href="#value-expression"><rect class="r" x="390" y="701" width="125" height="24"/><text class="i" x="400" y="717">value-expression</text></a><rect class="l" x="525" y="701" width="27" height="24" rx="7"/><text class="i" x="535" y="717">»</text><a xlink:href="#vector"><rect class="r" x="562" y="701" width="59" height="24"/><text class="i" x="572" y="717">vector</text></a><rect class="l" x="25" y="759" width="91" height="24" rx="7"/><text class="i" x="35" y="775">notEqualTo</text><rect class="l" x="126" y="759" width="25" height="24" rx="7"/><text class="i" x="136" y="775">(</text><a xlink:href="#value"><rect class="r" x="161" y="759" width="53" height="24"/><text class="i" x="171" y="775">value</text></a><rect class="l" x="224" y="759" width="24" height="24" rx="7"/><text class="i" x="234" y="775">,</text><rect class="l" x="292" y="730" width="24" height="24" rx="7"/><text class="i" x="302" y="746">,</text><a xlink:href="#value"><rect class="r" x="278" y="759" width="53" height="24"/><text class="i" x="288" y="775">value</text></a><rect class="l" x="361" y="759" width="25" height="24" rx="7"/><text class="i" x="371" y="775">)</text><rect class="l" x="396" y="759" width="27" height="24" rx="7"/><text class="i" x="406" y="775">»</text><a xlink:href="#boolean"><rect class="r" x="433" y="759" width="71" height="24"/><text class="i" x="443" y="775">boolean</text></a><a xlink:href="#set"><rect class="r" x="45" y="788" width="40" height="24"/><text class="i" x="55" y="804">set</text></a><a xlink:href="#vector"><rect class="r" x="45" y="817" width="59" height="24"/><text class="i" x="55" y="833">vector</text></a><rect class="l" x="134" y="788" width="24" height="24" rx="7"/><text class="i" x="144" y="804">.</text><rect class="l" x="168" y="788" width="55" height="24" rx="7"/><text class="i" x="178" y="804">sort()</text><rect class="l" x="233" y="788" width="27" height="24" rx="7"/><text class="i" x="243" y="804">»</text><a xlink:href="#vector"><rect class="r" x="270" y="788" width="59" height="24"/><text class="i" x="280" y="804">vector</text></a><rect class="l" x="25" y="846" width="59" height="24" rx="7"/><text class="i" x="35" y="862">sortBy</text><rect class="l" x="94" y="846" width="25" height="24" rx="7"/><text class="i" x="104" y="862">(</text><a xlink:href="#symbol:element"><rect class="r" x="129" y="846" width="118" height="24"/><text class="i" x="139" y="862">symbol:element</text></a><rect class="l" x="257" y="846" width="31" height="24" rx="7"/><text class="i" x="267" y="862">in</text><a xlink:href="#set"><rect class="r" x="318" y="846" width="40" height="24"/><text class="i" x="328" y="862">set</text></a><a xlink:href="#vector"><rect class="r" x="318" y="875" width="59" height="24"/><text class="i" x="328" y="891">vector</text></a><rect class="l" x="407" y="846" width="25" height="24" rx="7"/><text class="i" x="417" y="862">)</text><a xlink:href="#integer-expression"><rect class="r" x="462" y="846" width="137" height="24"/><text class="i" x="472" y="862">integer-expression</text></a><a xlink:href="#fixed-decimal-expression"><rect class="r" x="462" y="875" width="173" height="24"/><text class="i" x="472" y="891">fixed-decimal-expression</text></a><rect class="l" x="665" y="846" width="27" height="24" rx="7"/><text class="i" x="675" y="862">»</text><a xlink:href="#vector"><rect class="r" x="702" y="846" width="59" height="24"/><text class="i" x="712" y="862">vector</text></a><a xlink:href="#set"><rect class="r" x="25" y="904" width="40" height="24"/><text class="i" x="35" y="920">set</text></a><rect class="l" x="75" y="904" width="24" height="24" rx="7"/><text class="i" x="85" y="920">.</text><rect class="l" x="109" y="904" width="69" height="24" rx="7"/><text class="i" x="119" y="920">subset?</text><rect class="l" x="188" y="904" width="25" height="24" rx="7"/><text class="i" x="198" y="920">(</text><a xlink:href="#set"><rect class="r" x="223" y="904" width="40" height="24"/><text class="i" x="233" y="920">set</text></a><rect class="l" x="273" y="904" width="25" height="24" rx="7"/><text class="i" x="283" y="920">)</text><rect class="l" x="308" y="904" width="27" height="24" rx="7"/><text class="i" x="318" y="920">»</text><a xlink:href="#boolean"><rect class="r" x="345" y="904" width="71" height="24"/><text class="i" x="355" y="920">boolean</text></a><a xlink:href="#set"><rect class="r" x="25" y="962" width="40" height="24"/><text class="i" x="35" y="978">set</text></a><rect class="l" x="75" y="962" width="24" height="24" rx="7"/><text class="i" x="85" y="978">.</text><rect class="l" x="109" y="962" width="55" height="24" rx="7"/><text class="i" x="119" y="978">union</text><rect class="l" x="174" y="962" width="25" height="24" rx="7"/><text class="i" x="184" y="978">(</text><rect class="l" x="237" y="933" width="24" height="24" rx="7"/><text class="i" x="247" y="949">,</text><a xlink:href="#set"><rect class="r" x="229" y="962" width="40" height="24"/><text class="i" x="239" y="978">set</text></a><rect class="l" x="299" y="962" width="25" height="24" rx="7"/><text class="i" x="309" y="978">)</text><rect class="l" x="334" y="962" width="27" height="24" rx="7"/><text class="i" x="344" y="978">»</text><a xlink:href="#set"><rect class="r" x="371" y="962" width="40" height="24"/><text class="i" x="381" y="978">set</text></a></svg>