<svg version="1.1" xmlns:xlink="http://www.w3.org/1999/xlink" xmlns="http://www.w3.org/2000/svg" width="646" height="469" viewbox="0 0 646 469"><defs><style type="text/css">.c{fill: none; stroke: #888888; stroke-width: 2px;}.i{fill:#000000;font-family:Dialog,Sans-serif;font-size:12px;}.l{fill:#90d9ff;stroke:#222222;}.r{fill:#d3f0ff;stroke:#222222;}</style></defs><path class="c" d="M0 17h25m59 0h10m24 0h10m63 0h10m25 0h10m59 0h10m25 0h10m27 0h10m59 0h205m-626 24q0 5 5 5h5m40 0h10m24 0h10m63 0h10m25 0h30m40 0h39m-94 0q5 0 5 5v19q0 5 5 5h5m59 0h5q5 0 5-5v-19q0-5 5-5m5 0h10m25 0h10m27 0h10m40 0h188q5 0 5-5m-616 87q0 5 5 5h5m40 0h10m24 0h10m46 0h10m25 0h30m-5 0q-5 0-5-5v-19q0-5 5-5h19m24 0h20q5 0 5 5v19q0 5-5 5m-5 0h30m25 0h10m27 0h10m40 0h211q5 0 5-5m-616 58q0 5 5 5h5m59 0h10m24 0h10m46 0h10m25 0h30m-5 0q-5 0-5-5v-19q0-5 5-5h19m24 0h20q5 0 5 5v19q0 5-5 5m-5 0h30m25 0h10m27 0h10m59 0h173q5 0 5-5m-616 29q0 5 5 5h5m40 0h10m24 0h10m83 0h10m25 0h10m40 0h10m25 0h10m27 0h10m40 0h227q5 0 5-5m-616 29q0 5 5 5h5m48 0h10m25 0h10m63 0h10m31 0h10m40 0h10m25 0h10m143 0h10m27 0h10m40 0h79q5 0 5-5m-616 29q0 5 5 5h5m48 0h10m25 0h10m63 0h10m31 0h10m59 0h10m25 0h10m143 0h10m27 0h10m59 0h41q5 0 5-5m-616 58q0 5 5 5h5m40 0h10m24 0h10m95 0h10m25 0h30m-5 0q-5 0-5-5v-19q0-5 5-5h13m24 0h13q5 0 5 5v19q0 5-5 5m-5 0h30m25 0h10m27 0h10m40 0h175q5 0 5-5m-616 29q0 5 5 5h5m47 0h10m25 0h10m118 0h10m31 0h10m40 0h10m25 0h10m125 0h10m27 0h10m40 0h43q5 0 5-5m-616 29q0 5 5 5h5m47 0h10m25 0h10m118 0h10m31 0h10m59 0h10m25 0h10m125 0h10m27 0h10m59 0h5q5 0 5-5m-621-372q5 0 5 5v425q0 5 5 5h5m40 0h10m24 0h10m55 0h10m25 0h30m-5 0q-5 0-5-5v-19q0-5 5-5h13m24 0h13q5 0 5 5v19q0 5-5 5m-5 0h30m25 0h10m27 0h10m40 0h215q5 0 5-5v-425q0-5 5-5m5 0h5"/><a xlink:href="#vector"><rect class="r" x="25" y="5" width="59" height="24"/><text class="i" x="35" y="21">vector</text></a><rect class="l" x="94" y="5" width="24" height="24" rx="7"/><text class="i" x="104" y="21">.</text><rect class="l" x="128" y="5" width="63" height="24" rx="7"/><text class="i" x="138" y="21">concat</text><rect class="l" x="201" y="5" width="25" height="24" rx="7"/><text class="i" x="211" y="21">(</text><a xlink:href="#vector"><rect class="r" x="236" y="5" width="59" height="24"/><text class="i" x="246" y="21">vector</text></a><rect class="l" x="305" y="5" width="25" height="24" rx="7"/><text class="i" x="315" y="21">)</text><rect class="l" x="340" y="5" width="27" height="24" rx="7"/><text class="i" x="350" y="21">»</text><a xlink:href="#vector"><rect class="r" x="377" y="5" width="59" height="24"/><text class="i" x="387" y="21">vector</text></a><a xlink:href="#set"><rect class="r" x="25" y="34" width="40" height="24"/><text class="i" x="35" y="50">set</text></a><rect class="l" x="75" y="34" width="24" height="24" rx="7"/><text class="i" x="85" y="50">.</text><rect class="l" x="109" y="34" width="63" height="24" rx="7"/><text class="i" x="119" y="50">concat</text><rect class="l" x="182" y="34" width="25" height="24" rx="7"/><text class="i" x="192" y="50">(</text><a xlink:href="#set"><rect class="r" x="237" y="34" width="40" height="24"/><text class="i" x="247" y="50">set</text></a><a xlink:href="#vector"><rect class="r" x="237" y="63" width="59" height="24"/><text class="i" x="247" y="79">vector</text></a><rect class="l" x="326" y="34" width="25" height="24" rx="7"/><text class="i" x="336" y="50">)</text><rect class="l" x="361" y="34" width="27" height="24" rx="7"/><text class="i" x="371" y="50">»</text><a xlink:href="#set"><rect class="r" x="398" y="34" width="40" height="24"/><text class="i" x="408" y="50">set</text></a><a xlink:href="#set"><rect class="r" x="25" y="121" width="40" height="24"/><text class="i" x="35" y="137">set</text></a><rect class="l" x="75" y="121" width="24" height="24" rx="7"/><text class="i" x="85" y="137">.</text><rect class="l" x="109" y="121" width="46" height="24" rx="7"/><text class="i" x="119" y="137">conj</text><rect class="l" x="165" y="121" width="25" height="24" rx="7"/><text class="i" x="175" y="137">(</text><rect class="l" x="234" y="92" width="24" height="24" rx="7"/><text class="i" x="244" y="108">,</text><a xlink:href="#value"><rect class="r" x="220" y="121" width="53" height="24"/><text class="i" x="230" y="137">value</text></a><rect class="l" x="303" y="121" width="25" height="24" rx="7"/><text class="i" x="313" y="137">)</text><rect class="l" x="338" y="121" width="27" height="24" rx="7"/><text class="i" x="348" y="137">»</text><a xlink:href="#set"><rect class="r" x="375" y="121" width="40" height="24"/><text class="i" x="385" y="137">set</text></a><a xlink:href="#vector"><rect class="r" x="25" y="179" width="59" height="24"/><text class="i" x="35" y="195">vector</text></a><rect class="l" x="94" y="179" width="24" height="24" rx="7"/><text class="i" x="104" y="195">.</text><rect class="l" x="128" y="179" width="46" height="24" rx="7"/><text class="i" x="138" y="195">conj</text><rect class="l" x="184" y="179" width="25" height="24" rx="7"/><text class="i" x="194" y="195">(</text><rect class="l" x="253" y="150" width="24" height="24" rx="7"/><text class="i" x="263" y="166">,</text><a xlink:href="#value"><rect class="r" x="239" y="179" width="53" height="24"/><text class="i" x="249" y="195">value</text></a><rect class="l" x="322" y="179" width="25" height="24" rx="7"/><text class="i" x="332" y="195">)</text><rect class="l" x="357" y="179" width="27" height="24" rx="7"/><text class="i" x="367" y="195">»</text><a xlink:href="#vector"><rect class="r" x="394" y="179" width="59" height="24"/><text class="i" x="404" y="195">vector</text></a><a xlink:href="#set"><rect class="r" x="25" y="208" width="40" height="24"/><text class="i" x="35" y="224">set</text></a><rect class="l" x="75" y="208" width="24" height="24" rx="7"/><text class="i" x="85" y="224">.</text><rect class="l" x="109" y="208" width="83" height="24" rx="7"/><text class="i" x="119" y="224">difference</text><rect class="l" x="202" y="208" width="25" height="24" rx="7"/><text class="i" x="212" y="224">(</text><a xlink:href="#set"><rect class="r" x="237" y="208" width="40" height="24"/><text class="i" x="247" y="224">set</text></a><rect class="l" x="287" y="208" width="25" height="24" rx="7"/><text class="i" x="297" y="224">)</text><rect class="l" x="322" y="208" width="27" height="24" rx="7"/><text class="i" x="332" y="224">»</text><a xlink:href="#set"><rect class="r" x="359" y="208" width="40" height="24"/><text class="i" x="369" y="224">set</text></a><rect class="l" x="25" y="237" width="48" height="24" rx="7"/><text class="i" x="35" y="253">filter</text><rect class="l" x="83" y="237" width="25" height="24" rx="7"/><text class="i" x="93" y="253">(</text><a xlink:href="#symbol"><rect class="r" x="118" y="237" width="63" height="24"/><text class="i" x="128" y="253">symbol</text></a><rect class="l" x="191" y="237" width="31" height="24" rx="7"/><text class="i" x="201" y="253">in</text><a xlink:href="#set"><rect class="r" x="232" y="237" width="40" height="24"/><text class="i" x="242" y="253">set</text></a><rect class="l" x="282" y="237" width="25" height="24" rx="7"/><text class="i" x="292" y="253">)</text><a xlink:href="#boolean-expression"><rect class="r" x="317" y="237" width="143" height="24"/><text class="i" x="327" y="253">boolean-expression</text></a><rect class="l" x="470" y="237" width="27" height="24" rx="7"/><text class="i" x="480" y="253">»</text><a xlink:href="#set"><rect class="r" x="507" y="237" width="40" height="24"/><text class="i" x="517" y="253">set</text></a><rect class="l" x="25" y="266" width="48" height="24" rx="7"/><text class="i" x="35" y="282">filter</text><rect class="l" x="83" y="266" width="25" height="24" rx="7"/><text class="i" x="93" y="282">(</text><a xlink:href="#symbol"><rect class="r" x="118" y="266" width="63" height="24"/><text class="i" x="128" y="282">symbol</text></a><rect class="l" x="191" y="266" width="31" height="24" rx="7"/><text class="i" x="201" y="282">in</text><a xlink:href="#vector"><rect class="r" x="232" y="266" width="59" height="24"/><text class="i" x="242" y="282">vector</text></a><rect class="l" x="301" y="266" width="25" height="24" rx="7"/><text class="i" x="311" y="282">)</text><a xlink:href="#boolean-expression"><rect class="r" x="336" y="266" width="143" height="24"/><text class="i" x="346" y="282">boolean-expression</text></a><rect class="l" x="489" y="266" width="27" height="24" rx="7"/><text class="i" x="499" y="282">»</text><a xlink:href="#vector"><rect class="r" x="526" y="266" width="59" height="24"/><text class="i" x="536" y="282">vector</text></a><a xlink:href="#set"><rect class="r" x="25" y="324" width="40" height="24"/><text class="i" x="35" y="340">set</text></a><rect class="l" x="75" y="324" width="24" height="24" rx="7"/><text class="i" x="85" y="340">.</text><rect class="l" x="109" y="324" width="95" height="24" rx="7"/><text class="i" x="119" y="340">intersection</text><rect class="l" x="214" y="324" width="25" height="24" rx="7"/><text class="i" x="224" y="340">(</text><rect class="l" x="277" y="295" width="24" height="24" rx="7"/><text class="i" x="287" y="311">,</text><a xlink:href="#set"><rect class="r" x="269" y="324" width="40" height="24"/><text class="i" x="279" y="340">set</text></a><rect class="l" x="339" y="324" width="25" height="24" rx="7"/><text class="i" x="349" y="340">)</text><rect class="l" x="374" y="324" width="27" height="24" rx="7"/><text class="i" x="384" y="340">»</text><a xlink:href="#set"><rect class="r" x="411" y="324" width="40" height="24"/><text class="i" x="421" y="340">set</text></a><rect class="l" x="25" y="353" width="47" height="24" rx="7"/><text class="i" x="35" y="369">map</text><rect class="l" x="82" y="353" width="25" height="24" rx="7"/><text class="i" x="92" y="369">(</text><a xlink:href="#symbol:element"><rect class="r" x="117" y="353" width="118" height="24"/><text class="i" x="127" y="369">symbol:element</text></a><rect class="l" x="245" y="353" width="31" height="24" rx="7"/><text class="i" x="255" y="369">in</text><a xlink:href="#set"><rect class="r" x="286" y="353" width="40" height="24"/><text class="i" x="296" y="369">set</text></a><rect class="l" x="336" y="353" width="25" height="24" rx="7"/><text class="i" x="346" y="369">)</text><a xlink:href="#value-expression"><rect class="r" x="371" y="353" width="125" height="24"/><text class="i" x="381" y="369">value-expression</text></a><rect class="l" x="506" y="353" width="27" height="24" rx="7"/><text class="i" x="516" y="369">»</text><a xlink:href="#set"><rect class="r" x="543" y="353" width="40" height="24"/><text class="i" x="553" y="369">set</text></a><rect class="l" x="25" y="382" width="47" height="24" rx="7"/><text class="i" x="35" y="398">map</text><rect class="l" x="82" y="382" width="25" height="24" rx="7"/><text class="i" x="92" y="398">(</text><a xlink:href="#symbol:element"><rect class="r" x="117" y="382" width="118" height="24"/><text class="i" x="127" y="398">symbol:element</text></a><rect class="l" x="245" y="382" width="31" height="24" rx="7"/><text class="i" x="255" y="398">in</text><a xlink:href="#vector"><rect class="r" x="286" y="382" width="59" height="24"/><text class="i" x="296" y="398">vector</text></a><rect class="l" x="355" y="382" width="25" height="24" rx="7"/><text class="i" x="365" y="398">)</text><a xlink:href="#value-expression"><rect class="r" x="390" y="382" width="125" height="24"/><text class="i" x="400" y="398">value-expression</text></a><rect class="l" x="525" y="382" width="27" height="24" rx="7"/><text class="i" x="535" y="398">»</text><a xlink:href="#vector"><rect class="r" x="562" y="382" width="59" height="24"/><text class="i" x="572" y="398">vector</text></a><a xlink:href="#set"><rect class="r" x="25" y="440" width="40" height="24"/><text class="i" x="35" y="456">set</text></a><rect class="l" x="75" y="440" width="24" height="24" rx="7"/><text class="i" x="85" y="456">.</text><rect class="l" x="109" y="440" width="55" height="24" rx="7"/><text class="i" x="119" y="456">union</text><rect class="l" x="174" y="440" width="25" height="24" rx="7"/><text class="i" x="184" y="456">(</text><rect class="l" x="237" y="411" width="24" height="24" rx="7"/><text class="i" x="247" y="427">,</text><a xlink:href="#set"><rect class="r" x="229" y="440" width="40" height="24"/><text class="i" x="239" y="456">set</text></a><rect class="l" x="299" y="440" width="25" height="24" rx="7"/><text class="i" x="309" y="456">)</text><rect class="l" x="334" y="440" width="27" height="24" rx="7"/><text class="i" x="344" y="456">»</text><a xlink:href="#set"><rect class="r" x="371" y="440" width="40" height="24"/><text class="i" x="381" y="456">set</text></a></svg>