<svg version="1.1" xmlns:xlink="http://www.w3.org/1999/xlink" xmlns="http://www.w3.org/2000/svg" width="819" height="849" viewbox="0 0 819 849"><defs><style type="text/css">.c{fill: none; stroke: #888888; stroke-width: 2px;}.j{fill:#000000;font-family:Dialog,Sans-serif;font-size:12px;}.l{fill:#90d9ff;stroke:#222222;}.r{fill:#d3f0ff;stroke:#222222;}</style></defs><path class="c" d="M0 32h25m25 0h10m30 0h10m53 0h30m-5 0q-5 0-5-5v-16q0-5 5-5h63q5 0 5 5v16q0 5-5 5m-5 0h30m25 0h10m27 0h10m71 0h405m-799 24q0 5 5 5h5m25 0h10m48 0h10m25 0h10m63 0h30m40 0h39m-94 0q5 0 5 5v19q0 5 5 5h5m59 0h5q5 0 5-5v-19q0-5 5-5m5 0h10m25 0h10m143 0h10m25 0h10m27 0h10m71 0h133q5 0 5-5m-789 58q0 5 5 5h5m25 0h10m63 0h30m59 0h10m59 0h10m25 0h10m27 0h10m59 0h22m-306 0q5 0 5 5v19q0 5 5 5h5m40 0h30m40 0h39m-94 0q5 0 5 5v19q0 5 5 5h5m59 0h5q5 0 5-5v-19q0-5 5-5m5 0h10m25 0h10m27 0h10m40 0h5q5 0 5-5v-19q0-5 5-5m5 0h355q5 0 5-5m-789 102q0 5 5 5h5m25 0h10m46 0h30m40 0h30m-5 0q-5 0-5-5v-16q0-5 5-5h63q5 0 5 5v16q0 5-5 5m-5 0h30m25 0h10m27 0h10m40 0h58m-338 0q5 0 5 5v34q0 5 5 5h5m59 0h30m-5 0q-5 0-5-5v-16q0-5 5-5h63q5 0 5 5v16q0 5-5 5m-5 0h30m25 0h10m27 0h10m59 0h5q5 0 5-5v-34q0-5 5-5m5 0h340q5 0 5-5m-789 73q0 5 5 5h5m25 0h10m80 0h10m40 0h10m53 0h10m25 0h10m27 0h10m71 0h393q5 0 5-5m-789 29q0 5 5 5h5m25 0h10m56 0h30m40 0h39m-94 0q5 0 5 5v19q0 5 5 5h5m59 0h5q5 0 5-5v-19q0-5 5-5m5 0h10m25 0h10m27 0h10m65 0h427q5 0 5-5m-789 58q0 5 5 5h5m25 0h10m83 0h10m40 0h10m40 0h10m25 0h10m27 0h10m40 0h434q5 0 5-5m-789 29q0 5 5 5h5m25 0h10m59 0h10m25 0h10m63 0h30m40 0h39m-94 0q5 0 5 5v19q0 5 5 5h5m59 0h5q5 0 5-5v-19q0-5 5-5m5 0h10m25 0h10m143 0h10m25 0h10m27 0h10m71 0h122q5 0 5-5m-789 58q0 5 5 5h5m25 0h10m48 0h30m25 0h10m118 0h10m40 0h10m25 0h10m143 0h10m25 0h10m27 0h10m40 0h58m-586 0q5 0 5 5v19q0 5 5 5h5m25 0h10m118 0h10m59 0h10m25 0h10m143 0h10m25 0h10m27 0h10m59 0h5q5 0 5-5v-19q0-5 5-5m5 0h90q5 0 5-5m-789 73q0 5 5 5h5m25 0h10m95 0h10m40 0h30m-5 0q-5 0-5-5v-16q0-5 5-5h50q5 0 5 5v16q0 5-5 5m-5 0h30m25 0h10m27 0h10m40 0h382q5 0 5-5m-789 29q0 5 5 5h5m25 0h10m47 0h30m25 0h10m118 0h10m40 0h10m25 0h10m125 0h10m25 0h10m27 0h10m40 0h58m-568 0q5 0 5 5v19q0 5 5 5h5m25 0h10m118 0h10m59 0h10m25 0h10m125 0h10m25 0h10m27 0h10m59 0h5q5 0 5-5v-19q0-5 5-5m5 0h109q5 0 5-5m-789 73q0 5 5 5h5m25 0h10m51 0h10m53 0h30m-5 0q-5 0-5-5v-16q0-5 5-5h63q5 0 5 5v16q0 5-5 5m-5 0h30m25 0h10m27 0h10m71 0h369q5 0 5-5m-789 29q0 5 5 5h5m25 0h10m45 0h30m40 0h39m-94 0q5 0 5 5v19q0 5 5 5h5m59 0h5q5 0 5-5v-19q0-5 5-5m5 0h10m25 0h10m27 0h10m59 0h444q5 0 5-5m-789 58q0 5 5 5h5m25 0h10m63 0h10m25 0h10m118 0h30m40 0h39m-94 0q5 0 5 5v19q0 5 5 5h5m59 0h5q5 0 5-5v-19q0-5 5-5m5 0h10m25 0h30m137 0h56m-208 0q5 0 5 5v19q0 5 5 5h5m173 0h5q5 0 5-5v-19q0-5 5-5m5 0h10m25 0h10m27 0h10m59 0h5q5 0 5-5m-789 58q0 5 5 5h5m25 0h10m69 0h10m40 0h10m40 0h10m25 0h10m27 0h10m71 0h417q5 0 5-5m-794-751q5 0 5 5v790q0 5 5 5h5m25 0h10m55 0h10m40 0h30m-5 0q-5 0-5-5v-16q0-5 5-5h50q5 0 5 5v16q0 5-5 5m-5 0h30m25 0h10m27 0h10m40 0h422q5 0 5-5v-790q0-5 5-5m5 0h5"/><rect class="l" x="25" y="20" width="25" height="24" rx="7"/><text class="j" x="35" y="36">(</text><rect class="l" x="60" y="20" width="30" height="24" rx="7"/><text class="j" x="70" y="36">=</text><a xlink:href="#value"><rect class="r" x="100" y="20" width="53" height="24"/><text class="j" x="110" y="36">value</text></a><a xlink:href="#value"><rect class="r" x="183" y="20" width="53" height="24"/><text class="j" x="193" y="36">value</text></a><rect class="l" x="266" y="20" width="25" height="24" rx="7"/><text class="j" x="276" y="36">)</text><rect class="l" x="301" y="20" width="27" height="24" rx="7"/><text class="j" x="311" y="36">»</text><a xlink:href="#boolean"><rect class="r" x="338" y="20" width="71" height="24"/><text class="j" x="348" y="36">boolean</text></a><rect class="l" x="25" y="49" width="25" height="24" rx="7"/><text class="j" x="35" y="65">(</text><rect class="l" x="60" y="49" width="48" height="24" rx="7"/><text class="j" x="70" y="65">any?</text><rect class="l" x="118" y="49" width="25" height="24" rx="7"/><text class="j" x="128" y="65">[</text><a xlink:href="#symbol"><rect class="r" x="153" y="49" width="63" height="24"/><text class="j" x="163" y="65">symbol</text></a><a xlink:href="#set"><rect class="r" x="246" y="49" width="40" height="24"/><text class="j" x="256" y="65">set</text></a><a xlink:href="#vector"><rect class="r" x="246" y="78" width="59" height="24"/><text class="j" x="256" y="94">vector</text></a><rect class="l" x="335" y="49" width="25" height="24" rx="7"/><text class="j" x="345" y="65">]</text><a xlink:href="#boolean-expression"><rect class="r" x="370" y="49" width="143" height="24"/><text class="j" x="380" y="65">boolean-expression</text></a><rect class="l" x="523" y="49" width="25" height="24" rx="7"/><text class="j" x="533" y="65">)</text><rect class="l" x="558" y="49" width="27" height="24" rx="7"/><text class="j" x="568" y="65">»</text><a xlink:href="#boolean"><rect class="r" x="595" y="49" width="71" height="24"/><text class="j" x="605" y="65">boolean</text></a><rect class="l" x="25" y="107" width="25" height="24" rx="7"/><text class="j" x="35" y="123">(</text><rect class="l" x="60" y="107" width="63" height="24" rx="7"/><text class="j" x="70" y="123">concat</text><a xlink:href="#vector"><rect class="r" x="153" y="107" width="59" height="24"/><text class="j" x="163" y="123">vector</text></a><a xlink:href="#vector"><rect class="r" x="222" y="107" width="59" height="24"/><text class="j" x="232" y="123">vector</text></a><rect class="l" x="291" y="107" width="25" height="24" rx="7"/><text class="j" x="301" y="123">)</text><rect class="l" x="326" y="107" width="27" height="24" rx="7"/><text class="j" x="336" y="123">»</text><a xlink:href="#vector"><rect class="r" x="363" y="107" width="59" height="24"/><text class="j" x="373" y="123">vector</text></a><a xlink:href="#set"><rect class="r" x="153" y="136" width="40" height="24"/><text class="j" x="163" y="152">set</text></a><a xlink:href="#set"><rect class="r" x="223" y="136" width="40" height="24"/><text class="j" x="233" y="152">set</text></a><a xlink:href="#vector"><rect class="r" x="223" y="165" width="59" height="24"/><text class="j" x="233" y="181">vector</text></a><rect class="l" x="312" y="136" width="25" height="24" rx="7"/><text class="j" x="322" y="152">)</text><rect class="l" x="347" y="136" width="27" height="24" rx="7"/><text class="j" x="357" y="152">»</text><a xlink:href="#set"><rect class="r" x="384" y="136" width="40" height="24"/><text class="j" x="394" y="152">set</text></a><rect class="l" x="25" y="209" width="25" height="24" rx="7"/><text class="j" x="35" y="225">(</text><rect class="l" x="60" y="209" width="46" height="24" rx="7"/><text class="j" x="70" y="225">conj</text><a xlink:href="#set"><rect class="r" x="136" y="209" width="40" height="24"/><text class="j" x="146" y="225">set</text></a><a xlink:href="#value"><rect class="r" x="206" y="209" width="53" height="24"/><text class="j" x="216" y="225">value</text></a><rect class="l" x="289" y="209" width="25" height="24" rx="7"/><text class="j" x="299" y="225">)</text><rect class="l" x="324" y="209" width="27" height="24" rx="7"/><text class="j" x="334" y="225">»</text><a xlink:href="#set"><rect class="r" x="361" y="209" width="40" height="24"/><text class="j" x="371" y="225">set</text></a><a xlink:href="#vector"><rect class="r" x="136" y="253" width="59" height="24"/><text class="j" x="146" y="269">vector</text></a><a xlink:href="#value"><rect class="r" x="225" y="253" width="53" height="24"/><text class="j" x="235" y="269">value</text></a><rect class="l" x="308" y="253" width="25" height="24" rx="7"/><text class="j" x="318" y="269">)</text><rect class="l" x="343" y="253" width="27" height="24" rx="7"/><text class="j" x="353" y="269">»</text><a xlink:href="#vector"><rect class="r" x="380" y="253" width="59" height="24"/><text class="j" x="390" y="269">vector</text></a><rect class="l" x="25" y="282" width="25" height="24" rx="7"/><text class="j" x="35" y="298">(</text><rect class="l" x="60" y="282" width="80" height="24" rx="7"/><text class="j" x="70" y="298">contains?</text><a xlink:href="#set"><rect class="r" x="150" y="282" width="40" height="24"/><text class="j" x="160" y="298">set</text></a><a xlink:href="#value"><rect class="r" x="200" y="282" width="53" height="24"/><text class="j" x="210" y="298">value</text></a><rect class="l" x="263" y="282" width="25" height="24" rx="7"/><text class="j" x="273" y="298">)</text><rect class="l" x="298" y="282" width="27" height="24" rx="7"/><text class="j" x="308" y="298">»</text><a xlink:href="#boolean"><rect class="r" x="335" y="282" width="71" height="24"/><text class="j" x="345" y="298">boolean</text></a><rect class="l" x="25" y="311" width="25" height="24" rx="7"/><text class="j" x="35" y="327">(</text><rect class="l" x="60" y="311" width="56" height="24" rx="7"/><text class="j" x="70" y="327">count</text><a xlink:href="#set"><rect class="r" x="146" y="311" width="40" height="24"/><text class="j" x="156" y="327">set</text></a><a xlink:href="#vector"><rect class="r" x="146" y="340" width="59" height="24"/><text class="j" x="156" y="356">vector</text></a><rect class="l" x="235" y="311" width="25" height="24" rx="7"/><text class="j" x="245" y="327">)</text><rect class="l" x="270" y="311" width="27" height="24" rx="7"/><text class="j" x="280" y="327">»</text><a xlink:href="#integer"><rect class="r" x="307" y="311" width="65" height="24"/><text class="j" x="317" y="327">integer</text></a><rect class="l" x="25" y="369" width="25" height="24" rx="7"/><text class="j" x="35" y="385">(</text><rect class="l" x="60" y="369" width="83" height="24" rx="7"/><text class="j" x="70" y="385">difference</text><a xlink:href="#set"><rect class="r" x="153" y="369" width="40" height="24"/><text class="j" x="163" y="385">set</text></a><a xlink:href="#set"><rect class="r" x="203" y="369" width="40" height="24"/><text class="j" x="213" y="385">set</text></a><rect class="l" x="253" y="369" width="25" height="24" rx="7"/><text class="j" x="263" y="385">)</text><rect class="l" x="288" y="369" width="27" height="24" rx="7"/><text class="j" x="298" y="385">»</text><a xlink:href="#set"><rect class="r" x="325" y="369" width="40" height="24"/><text class="j" x="335" y="385">set</text></a><rect class="l" x="25" y="398" width="25" height="24" rx="7"/><text class="j" x="35" y="414">(</text><rect class="l" x="60" y="398" width="59" height="24" rx="7"/><text class="j" x="70" y="414">every?</text><rect class="l" x="129" y="398" width="25" height="24" rx="7"/><text class="j" x="139" y="414">[</text><a xlink:href="#symbol"><rect class="r" x="164" y="398" width="63" height="24"/><text class="j" x="174" y="414">symbol</text></a><a xlink:href="#set"><rect class="r" x="257" y="398" width="40" height="24"/><text class="j" x="267" y="414">set</text></a><a xlink:href="#vector"><rect class="r" x="257" y="427" width="59" height="24"/><text class="j" x="267" y="443">vector</text></a><rect class="l" x="346" y="398" width="25" height="24" rx="7"/><text class="j" x="356" y="414">]</text><a xlink:href="#boolean-expression"><rect class="r" x="381" y="398" width="143" height="24"/><text class="j" x="391" y="414">boolean-expression</text></a><rect class="l" x="534" y="398" width="25" height="24" rx="7"/><text class="j" x="544" y="414">)</text><rect class="l" x="569" y="398" width="27" height="24" rx="7"/><text class="j" x="579" y="414">»</text><a xlink:href="#boolean"><rect class="r" x="606" y="398" width="71" height="24"/><text class="j" x="616" y="414">boolean</text></a><rect class="l" x="25" y="456" width="25" height="24" rx="7"/><text class="j" x="35" y="472">(</text><rect class="l" x="60" y="456" width="48" height="24" rx="7"/><text class="j" x="70" y="472">filter</text><rect class="l" x="138" y="456" width="25" height="24" rx="7"/><text class="j" x="148" y="472">[</text><a xlink:href="#symbol:element"><rect class="r" x="173" y="456" width="118" height="24"/><text class="j" x="183" y="472">symbol:element</text></a><a xlink:href="#set"><rect class="r" x="301" y="456" width="40" height="24"/><text class="j" x="311" y="472">set</text></a><rect class="l" x="351" y="456" width="25" height="24" rx="7"/><text class="j" x="361" y="472">]</text><a xlink:href="#boolean-expression"><rect class="r" x="386" y="456" width="143" height="24"/><text class="j" x="396" y="472">boolean-expression</text></a><rect class="l" x="539" y="456" width="25" height="24" rx="7"/><text class="j" x="549" y="472">)</text><rect class="l" x="574" y="456" width="27" height="24" rx="7"/><text class="j" x="584" y="472">»</text><a xlink:href="#set"><rect class="r" x="611" y="456" width="40" height="24"/><text class="j" x="621" y="472">set</text></a><rect class="l" x="138" y="485" width="25" height="24" rx="7"/><text class="j" x="148" y="501">[</text><a xlink:href="#symbol:element"><rect class="r" x="173" y="485" width="118" height="24"/><text class="j" x="183" y="501">symbol:element</text></a><a xlink:href="#vector"><rect class="r" x="301" y="485" width="59" height="24"/><text class="j" x="311" y="501">vector</text></a><rect class="l" x="370" y="485" width="25" height="24" rx="7"/><text class="j" x="380" y="501">]</text><a xlink:href="#boolean-expression"><rect class="r" x="405" y="485" width="143" height="24"/><text class="j" x="415" y="501">boolean-expression</text></a><rect class="l" x="558" y="485" width="25" height="24" rx="7"/><text class="j" x="568" y="501">)</text><rect class="l" x="593" y="485" width="27" height="24" rx="7"/><text class="j" x="603" y="501">»</text><a xlink:href="#vector"><rect class="r" x="630" y="485" width="59" height="24"/><text class="j" x="640" y="501">vector</text></a><rect class="l" x="25" y="529" width="25" height="24" rx="7"/><text class="j" x="35" y="545">(</text><rect class="l" x="60" y="529" width="95" height="24" rx="7"/><text class="j" x="70" y="545">intersection</text><a xlink:href="#set"><rect class="r" x="165" y="529" width="40" height="24"/><text class="j" x="175" y="545">set</text></a><a xlink:href="#set"><rect class="r" x="235" y="529" width="40" height="24"/><text class="j" x="245" y="545">set</text></a><rect class="l" x="305" y="529" width="25" height="24" rx="7"/><text class="j" x="315" y="545">)</text><rect class="l" x="340" y="529" width="27" height="24" rx="7"/><text class="j" x="350" y="545">»</text><a xlink:href="#set"><rect class="r" x="377" y="529" width="40" height="24"/><text class="j" x="387" y="545">set</text></a><rect class="l" x="25" y="558" width="25" height="24" rx="7"/><text class="j" x="35" y="574">(</text><rect class="l" x="60" y="558" width="47" height="24" rx="7"/><text class="j" x="70" y="574">map</text><rect class="l" x="137" y="558" width="25" height="24" rx="7"/><text class="j" x="147" y="574">[</text><a xlink:href="#symbol:element"><rect class="r" x="172" y="558" width="118" height="24"/><text class="j" x="182" y="574">symbol:element</text></a><a xlink:href="#set"><rect class="r" x="300" y="558" width="40" height="24"/><text class="j" x="310" y="574">set</text></a><rect class="l" x="350" y="558" width="25" height="24" rx="7"/><text class="j" x="360" y="574">]</text><a xlink:href="#value-expression"><rect class="r" x="385" y="558" width="125" height="24"/><text class="j" x="395" y="574">value-expression</text></a><rect class="l" x="520" y="558" width="25" height="24" rx="7"/><text class="j" x="530" y="574">)</text><rect class="l" x="555" y="558" width="27" height="24" rx="7"/><text class="j" x="565" y="574">»</text><a xlink:href="#set"><rect class="r" x="592" y="558" width="40" height="24"/><text class="j" x="602" y="574">set</text></a><rect class="l" x="137" y="587" width="25" height="24" rx="7"/><text class="j" x="147" y="603">[</text><a xlink:href="#symbol:element"><rect class="r" x="172" y="587" width="118" height="24"/><text class="j" x="182" y="603">symbol:element</text></a><a xlink:href="#vector"><rect class="r" x="300" y="587" width="59" height="24"/><text class="j" x="310" y="603">vector</text></a><rect class="l" x="369" y="587" width="25" height="24" rx="7"/><text class="j" x="379" y="603">]</text><a xlink:href="#value-expression"><rect class="r" x="404" y="587" width="125" height="24"/><text class="j" x="414" y="603">value-expression</text></a><rect class="l" x="539" y="587" width="25" height="24" rx="7"/><text class="j" x="549" y="603">)</text><rect class="l" x="574" y="587" width="27" height="24" rx="7"/><text class="j" x="584" y="603">»</text><a xlink:href="#vector"><rect class="r" x="611" y="587" width="59" height="24"/><text class="j" x="621" y="603">vector</text></a><rect class="l" x="25" y="631" width="25" height="24" rx="7"/><text class="j" x="35" y="647">(</text><rect class="l" x="60" y="631" width="51" height="24" rx="7"/><text class="j" x="70" y="647">not=</text><a xlink:href="#value"><rect class="r" x="121" y="631" width="53" height="24"/><text class="j" x="131" y="647">value</text></a><a xlink:href="#value"><rect class="r" x="204" y="631" width="53" height="24"/><text class="j" x="214" y="647">value</text></a><rect class="l" x="287" y="631" width="25" height="24" rx="7"/><text class="j" x="297" y="647">)</text><rect class="l" x="322" y="631" width="27" height="24" rx="7"/><text class="j" x="332" y="647">»</text><a xlink:href="#boolean"><rect class="r" x="359" y="631" width="71" height="24"/><text class="j" x="369" y="647">boolean</text></a><rect class="l" x="25" y="660" width="25" height="24" rx="7"/><text class="j" x="35" y="676">(</text><rect class="l" x="60" y="660" width="45" height="24" rx="7"/><text class="j" x="70" y="676">sort</text><a xlink:href="#set"><rect class="r" x="135" y="660" width="40" height="24"/><text class="j" x="145" y="676">set</text></a><a xlink:href="#vector"><rect class="r" x="135" y="689" width="59" height="24"/><text class="j" x="145" y="705">vector</text></a><rect class="l" x="224" y="660" width="25" height="24" rx="7"/><text class="j" x="234" y="676">)</text><rect class="l" x="259" y="660" width="27" height="24" rx="7"/><text class="j" x="269" y="676">»</text><a xlink:href="#vector"><rect class="r" x="296" y="660" width="59" height="24"/><text class="j" x="306" y="676">vector</text></a><rect class="l" x="25" y="718" width="25" height="24" rx="7"/><text class="j" x="35" y="734">(</text><rect class="l" x="60" y="718" width="63" height="24" rx="7"/><text class="j" x="70" y="734">sort-by</text><rect class="l" x="133" y="718" width="25" height="24" rx="7"/><text class="j" x="143" y="734">[</text><a xlink:href="#symbol:element"><rect class="r" x="168" y="718" width="118" height="24"/><text class="j" x="178" y="734">symbol:element</text></a><a xlink:href="#set"><rect class="r" x="316" y="718" width="40" height="24"/><text class="j" x="326" y="734">set</text></a><a xlink:href="#vector"><rect class="r" x="316" y="747" width="59" height="24"/><text class="j" x="326" y="763">vector</text></a><rect class="l" x="405" y="718" width="25" height="24" rx="7"/><text class="j" x="415" y="734">]</text><a xlink:href="#integer-expression"><rect class="r" x="460" y="718" width="137" height="24"/><text class="j" x="470" y="734">integer-expression</text></a><a xlink:href="#fixed-decimal-expression"><rect class="r" x="460" y="747" width="173" height="24"/><text class="j" x="470" y="763">fixed-decimal-expression</text></a><rect class="l" x="663" y="718" width="25" height="24" rx="7"/><text class="j" x="673" y="734">)</text><rect class="l" x="698" y="718" width="27" height="24" rx="7"/><text class="j" x="708" y="734">»</text><a xlink:href="#vector"><rect class="r" x="735" y="718" width="59" height="24"/><text class="j" x="745" y="734">vector</text></a><rect class="l" x="25" y="776" width="25" height="24" rx="7"/><text class="j" x="35" y="792">(</text><rect class="l" x="60" y="776" width="69" height="24" rx="7"/><text class="j" x="70" y="792">subset?</text><a xlink:href="#set"><rect class="r" x="139" y="776" width="40" height="24"/><text class="j" x="149" y="792">set</text></a><a xlink:href="#set"><rect class="r" x="189" y="776" width="40" height="24"/><text class="j" x="199" y="792">set</text></a><rect class="l" x="239" y="776" width="25" height="24" rx="7"/><text class="j" x="249" y="792">)</text><rect class="l" x="274" y="776" width="27" height="24" rx="7"/><text class="j" x="284" y="792">»</text><a xlink:href="#boolean"><rect class="r" x="311" y="776" width="71" height="24"/><text class="j" x="321" y="792">boolean</text></a><rect class="l" x="25" y="820" width="25" height="24" rx="7"/><text class="j" x="35" y="836">(</text><rect class="l" x="60" y="820" width="55" height="24" rx="7"/><text class="j" x="70" y="836">union</text><a xlink:href="#set"><rect class="r" x="125" y="820" width="40" height="24"/><text class="j" x="135" y="836">set</text></a><a xlink:href="#set"><rect class="r" x="195" y="820" width="40" height="24"/><text class="j" x="205" y="836">set</text></a><rect class="l" x="265" y="820" width="25" height="24" rx="7"/><text class="j" x="275" y="836">)</text><rect class="l" x="300" y="820" width="27" height="24" rx="7"/><text class="j" x="310" y="836">»</text><a xlink:href="#set"><rect class="r" x="337" y="820" width="40" height="24"/><text class="j" x="347" y="836">set</text></a></svg>