<svg version="1.1" xmlns:xlink="http://www.w3.org/1999/xlink" xmlns="http://www.w3.org/2000/svg" width="773" height="1025" viewbox="0 0 773 1025"><defs><style type="text/css">.c{fill: none; stroke: #888888; stroke-width: 2px;}.i{fill:#000000;font-family:Verdana,Sans-serif;font-size:12px;}.l{fill:#90d9ff;stroke:#222222;}.r{fill:#d3f0ff;stroke:#222222;}</style></defs><path class="c" d="M0 18h25m52 0h10m35 0h10m52 0h10m28 0h10m66 0h470m-753 25q0 5 5 5h5m52 0h10m40 0h10m52 0h10m28 0h10m66 0h450q5 0 5-5m-743 30q0 5 5 5h5m49 0h10m25 0h10m62 0h10m31 0h30m38 0h39m-92 0q5 0 5 5v20q0 5 5 5h5m57 0h5q5 0 5-5v-20q0-5 5-5m5 0h10m25 0h10m134 0h10m28 0h10m66 0h131q5 0 5-5m-743 60q0 5 5 5h5m57 0h10m24 0h10m59 0h10m25 0h10m57 0h10m25 0h10m28 0h10m57 0h326q5 0 5-5m-743 30q0 5 5 5h5m38 0h10m24 0h10m59 0h10m25 0h30m38 0h39m-92 0q5 0 5 5v20q0 5 5 5h5m57 0h5q5 0 5-5v-20q0-5 5-5m5 0h10m25 0h10m28 0h10m38 0h324q5 0 5-5m-743 90q0 5 5 5h5m38 0h10m24 0h10m45 0h10m25 0h30m-5 0q-5 0-5-5v-20q0-5 5-5h19m24 0h19q5 0 5 5v20q0 5-5 5m-5 0h30m25 0h10m28 0h10m38 0h343q5 0 5-5m-743 60q0 5 5 5h5m57 0h10m24 0h10m45 0h10m25 0h30m-5 0q-5 0-5-5v-20q0-5 5-5h19m24 0h19q5 0 5 5v20q0 5-5 5m-5 0h30m25 0h10m28 0h10m57 0h305q5 0 5-5m-743 30q0 5 5 5h5m38 0h10m24 0h10m77 0h10m25 0h10m52 0h10m25 0h10m28 0h10m66 0h323q5 0 5-5m-743 30q0 5 5 5h25m38 0h39m-92 0q5 0 5 5v20q0 5 5 5h5m57 0h5q5 0 5-5v-20q0-5 5-5m5 0h10m24 0h10m64 0h10m28 0h10m62 0h413q5 0 5-5m-743 60q0 5 5 5h5m38 0h10m24 0h10m78 0h10m25 0h10m38 0h10m25 0h10m28 0h10m38 0h364q5 0 5-5m-743 60q0 5 5 5h5m66 0h10m25 0h10m52 0h10m24 0h30m-5 0q-5 0-5-5v-20q0-5 5-5h19m24 0h19q5 0 5 5v20q0 5-5 5m-5 0h30m25 0h10m28 0h10m66 0h280q5 0 5-5m-743 30q0 5 5 5h5m60 0h10m25 0h10m62 0h10m31 0h30m38 0h39m-92 0q5 0 5 5v20q0 5 5 5h5m57 0h5q5 0 5-5v-20q0-5 5-5m5 0h10m25 0h10m134 0h10m28 0h10m66 0h120q5 0 5-5m-743 60q0 5 5 5h5m47 0h10m25 0h10m62 0h10m31 0h10m38 0h10m25 0h10m134 0h10m28 0h10m38 0h220q5 0 5-5m-743 30q0 5 5 5h5m47 0h10m25 0h10m62 0h10m31 0h10m57 0h10m25 0h10m134 0h10m28 0h10m57 0h182q5 0 5-5m-743 60q0 5 5 5h5m38 0h10m24 0h10m90 0h10m25 0h30m-5 0q-5 0-5-5v-20q0-5 5-5h12m24 0h12q5 0 5 5v20q0 5-5 5m-5 0h30m25 0h10m28 0h10m38 0h312q5 0 5-5m-743 30q0 5 5 5h5m46 0h10m25 0h10m116 0h10m31 0h10m38 0h10m25 0h10m120 0h10m28 0h10m38 0h181q5 0 5-5m-743 30q0 5 5 5h5m46 0h10m25 0h10m116 0h10m31 0h10m57 0h10m25 0h10m120 0h10m28 0h10m57 0h143q5 0 5-5m-743 60q0 5 5 5h5m87 0h10m25 0h10m52 0h10m24 0h30m-5 0q-5 0-5-5v-20q0-5 5-5h19m24 0h19q5 0 5 5v20q0 5-5 5m-5 0h30m25 0h10m28 0h10m66 0h259q5 0 5-5m-743 30q0 5 5 5h25m38 0h39m-92 0q5 0 5 5v20q0 5 5 5h5m57 0h5q5 0 5-5v-20q0-5 5-5m5 0h10m24 0h10m53 0h10m28 0h10m57 0h429q5 0 5-5m-743 60q0 5 5 5h5m58 0h10m25 0h10m116 0h10m31 0h30m38 0h39m-92 0q5 0 5 5v20q0 5 5 5h5m57 0h5q5 0 5-5v-20q0-5 5-5m5 0h10m25 0h30m130 0h56m-201 0q5 0 5 5v20q0 5 5 5h5m166 0h5q5 0 5-5v-20q0-5 5-5m5 0h10m28 0h10m57 0h5q5 0 5-5m-743 60q0 5 5 5h5m38 0h10m24 0h10m66 0h10m25 0h10m38 0h10m25 0h10m28 0h10m66 0h348q5 0 5-5m-748-925q5 0 5 5v980q0 5 5 5h5m38 0h10m24 0h10m54 0h10m25 0h30m-5 0q-5 0-5-5v-20q0-5 5-5h12m24 0h12q5 0 5 5v20q0 5-5 5m-5 0h30m25 0h10m28 0h10m38 0h348q5 0 5-5v-980q0-5 5-5m5 0h5"/><a xlink:href="#value"><rect class="r" x="25" y="5" width="52" height="25"/><text class="i" x="35" y="22">value</text></a><rect class="l" x="87" y="5" width="35" height="25" rx="7"/><text class="i" x="97" y="22">!=</text><a xlink:href="#value"><rect class="r" x="132" y="5" width="52" height="25"/><text class="i" x="142" y="22">value</text></a><rect class="l" x="194" y="5" width="28" height="25" rx="7"/><text class="i" x="204" y="22">»</text><a xlink:href="#boolean"><rect class="r" x="232" y="5" width="66" height="25"/><text class="i" x="242" y="22">boolean</text></a><a xlink:href="#value"><rect class="r" x="25" y="35" width="52" height="25"/><text class="i" x="35" y="52">value</text></a><rect class="l" x="87" y="35" width="40" height="25" rx="7"/><text class="i" x="97" y="52">==</text><a xlink:href="#value"><rect class="r" x="137" y="35" width="52" height="25"/><text class="i" x="147" y="52">value</text></a><rect class="l" x="199" y="35" width="28" height="25" rx="7"/><text class="i" x="209" y="52">»</text><a xlink:href="#boolean"><rect class="r" x="237" y="35" width="66" height="25"/><text class="i" x="247" y="52">boolean</text></a><rect class="l" x="25" y="65" width="49" height="25" rx="7"/><text class="i" x="35" y="82">any?</text><rect class="l" x="84" y="65" width="25" height="25" rx="7"/><text class="i" x="94" y="82">(</text><a xlink:href="#symbol"><rect class="r" x="119" y="65" width="62" height="25"/><text class="i" x="129" y="82">symbol</text></a><rect class="l" x="191" y="65" width="31" height="25" rx="7"/><text class="i" x="201" y="82">in</text><a xlink:href="#set"><rect class="r" x="252" y="65" width="38" height="25"/><text class="i" x="262" y="82">set</text></a><a xlink:href="#vector"><rect class="r" x="252" y="95" width="57" height="25"/><text class="i" x="262" y="112">vector</text></a><rect class="l" x="339" y="65" width="25" height="25" rx="7"/><text class="i" x="349" y="82">)</text><a xlink:href="#boolean-expression"><rect class="r" x="374" y="65" width="134" height="25"/><text class="i" x="384" y="82">boolean-expression</text></a><rect class="l" x="518" y="65" width="28" height="25" rx="7"/><text class="i" x="528" y="82">»</text><a xlink:href="#boolean"><rect class="r" x="556" y="65" width="66" height="25"/><text class="i" x="566" y="82">boolean</text></a><a xlink:href="#vector"><rect class="r" x="25" y="125" width="57" height="25"/><text class="i" x="35" y="142">vector</text></a><rect class="l" x="92" y="125" width="24" height="25" rx="7"/><text class="i" x="102" y="142">.</text><rect class="l" x="126" y="125" width="59" height="25" rx="7"/><text class="i" x="136" y="142">concat</text><rect class="l" x="195" y="125" width="25" height="25" rx="7"/><text class="i" x="205" y="142">(</text><a xlink:href="#vector"><rect class="r" x="230" y="125" width="57" height="25"/><text class="i" x="240" y="142">vector</text></a><rect class="l" x="297" y="125" width="25" height="25" rx="7"/><text class="i" x="307" y="142">)</text><rect class="l" x="332" y="125" width="28" height="25" rx="7"/><text class="i" x="342" y="142">»</text><a xlink:href="#vector"><rect class="r" x="370" y="125" width="57" height="25"/><text class="i" x="380" y="142">vector</text></a><a xlink:href="#set"><rect class="r" x="25" y="155" width="38" height="25"/><text class="i" x="35" y="172">set</text></a><rect class="l" x="73" y="155" width="24" height="25" rx="7"/><text class="i" x="83" y="172">.</text><rect class="l" x="107" y="155" width="59" height="25" rx="7"/><text class="i" x="117" y="172">concat</text><rect class="l" x="176" y="155" width="25" height="25" rx="7"/><text class="i" x="186" y="172">(</text><a xlink:href="#set"><rect class="r" x="231" y="155" width="38" height="25"/><text class="i" x="241" y="172">set</text></a><a xlink:href="#vector"><rect class="r" x="231" y="185" width="57" height="25"/><text class="i" x="241" y="202">vector</text></a><rect class="l" x="318" y="155" width="25" height="25" rx="7"/><text class="i" x="328" y="172">)</text><rect class="l" x="353" y="155" width="28" height="25" rx="7"/><text class="i" x="363" y="172">»</text><a xlink:href="#set"><rect class="r" x="391" y="155" width="38" height="25"/><text class="i" x="401" y="172">set</text></a><a xlink:href="#set"><rect class="r" x="25" y="245" width="38" height="25"/><text class="i" x="35" y="262">set</text></a><rect class="l" x="73" y="245" width="24" height="25" rx="7"/><text class="i" x="83" y="262">.</text><rect class="l" x="107" y="245" width="45" height="25" rx="7"/><text class="i" x="117" y="262">conj</text><rect class="l" x="162" y="245" width="25" height="25" rx="7"/><text class="i" x="172" y="262">(</text><rect class="l" x="231" y="215" width="24" height="25" rx="7"/><text class="i" x="241" y="232">,</text><a xlink:href="#value"><rect class="r" x="217" y="245" width="52" height="25"/><text class="i" x="227" y="262">value</text></a><rect class="l" x="299" y="245" width="25" height="25" rx="7"/><text class="i" x="309" y="262">)</text><rect class="l" x="334" y="245" width="28" height="25" rx="7"/><text class="i" x="344" y="262">»</text><a xlink:href="#set"><rect class="r" x="372" y="245" width="38" height="25"/><text class="i" x="382" y="262">set</text></a><a xlink:href="#vector"><rect class="r" x="25" y="305" width="57" height="25"/><text class="i" x="35" y="322">vector</text></a><rect class="l" x="92" y="305" width="24" height="25" rx="7"/><text class="i" x="102" y="322">.</text><rect class="l" x="126" y="305" width="45" height="25" rx="7"/><text class="i" x="136" y="322">conj</text><rect class="l" x="181" y="305" width="25" height="25" rx="7"/><text class="i" x="191" y="322">(</text><rect class="l" x="250" y="275" width="24" height="25" rx="7"/><text class="i" x="260" y="292">,</text><a xlink:href="#value"><rect class="r" x="236" y="305" width="52" height="25"/><text class="i" x="246" y="322">value</text></a><rect class="l" x="318" y="305" width="25" height="25" rx="7"/><text class="i" x="328" y="322">)</text><rect class="l" x="353" y="305" width="28" height="25" rx="7"/><text class="i" x="363" y="322">»</text><a xlink:href="#vector"><rect class="r" x="391" y="305" width="57" height="25"/><text class="i" x="401" y="322">vector</text></a><a xlink:href="#set"><rect class="r" x="25" y="335" width="38" height="25"/><text class="i" x="35" y="352">set</text></a><rect class="l" x="73" y="335" width="24" height="25" rx="7"/><text class="i" x="83" y="352">.</text><rect class="l" x="107" y="335" width="77" height="25" rx="7"/><text class="i" x="117" y="352">contains?</text><rect class="l" x="194" y="335" width="25" height="25" rx="7"/><text class="i" x="204" y="352">(</text><a xlink:href="#value"><rect class="r" x="229" y="335" width="52" height="25"/><text class="i" x="239" y="352">value</text></a><rect class="l" x="291" y="335" width="25" height="25" rx="7"/><text class="i" x="301" y="352">)</text><rect class="l" x="326" y="335" width="28" height="25" rx="7"/><text class="i" x="336" y="352">»</text><a xlink:href="#boolean"><rect class="r" x="364" y="335" width="66" height="25"/><text class="i" x="374" y="352">boolean</text></a><a xlink:href="#set"><rect class="r" x="45" y="365" width="38" height="25"/><text class="i" x="55" y="382">set</text></a><a xlink:href="#vector"><rect class="r" x="45" y="395" width="57" height="25"/><text class="i" x="55" y="412">vector</text></a><rect class="l" x="132" y="365" width="24" height="25" rx="7"/><text class="i" x="142" y="382">.</text><rect class="l" x="166" y="365" width="64" height="25" rx="7"/><text class="i" x="176" y="382">count()</text><rect class="l" x="240" y="365" width="28" height="25" rx="7"/><text class="i" x="250" y="382">»</text><a xlink:href="#integer"><rect class="r" x="278" y="365" width="62" height="25"/><text class="i" x="288" y="382">integer</text></a><a xlink:href="#set"><rect class="r" x="25" y="425" width="38" height="25"/><text class="i" x="35" y="442">set</text></a><rect class="l" x="73" y="425" width="24" height="25" rx="7"/><text class="i" x="83" y="442">.</text><rect class="l" x="107" y="425" width="78" height="25" rx="7"/><text class="i" x="117" y="442">difference</text><rect class="l" x="195" y="425" width="25" height="25" rx="7"/><text class="i" x="205" y="442">(</text><a xlink:href="#set"><rect class="r" x="230" y="425" width="38" height="25"/><text class="i" x="240" y="442">set</text></a><rect class="l" x="278" y="425" width="25" height="25" rx="7"/><text class="i" x="288" y="442">)</text><rect class="l" x="313" y="425" width="28" height="25" rx="7"/><text class="i" x="323" y="442">»</text><a xlink:href="#set"><rect class="r" x="351" y="425" width="38" height="25"/><text class="i" x="361" y="442">set</text></a><rect class="l" x="25" y="485" width="66" height="25" rx="7"/><text class="i" x="35" y="502">equalTo</text><rect class="l" x="101" y="485" width="25" height="25" rx="7"/><text class="i" x="111" y="502">(</text><a xlink:href="#value"><rect class="r" x="136" y="485" width="52" height="25"/><text class="i" x="146" y="502">value</text></a><rect class="l" x="198" y="485" width="24" height="25" rx="7"/><text class="i" x="208" y="502">,</text><rect class="l" x="266" y="455" width="24" height="25" rx="7"/><text class="i" x="276" y="472">,</text><a xlink:href="#value"><rect class="r" x="252" y="485" width="52" height="25"/><text class="i" x="262" y="502">value</text></a><rect class="l" x="334" y="485" width="25" height="25" rx="7"/><text class="i" x="344" y="502">)</text><rect class="l" x="369" y="485" width="28" height="25" rx="7"/><text class="i" x="379" y="502">»</text><a xlink:href="#boolean"><rect class="r" x="407" y="485" width="66" height="25"/><text class="i" x="417" y="502">boolean</text></a><rect class="l" x="25" y="515" width="60" height="25" rx="7"/><text class="i" x="35" y="532">every?</text><rect class="l" x="95" y="515" width="25" height="25" rx="7"/><text class="i" x="105" y="532">(</text><a xlink:href="#symbol"><rect class="r" x="130" y="515" width="62" height="25"/><text class="i" x="140" y="532">symbol</text></a><rect class="l" x="202" y="515" width="31" height="25" rx="7"/><text class="i" x="212" y="532">in</text><a xlink:href="#set"><rect class="r" x="263" y="515" width="38" height="25"/><text class="i" x="273" y="532">set</text></a><a xlink:href="#vector"><rect class="r" x="263" y="545" width="57" height="25"/><text class="i" x="273" y="562">vector</text></a><rect class="l" x="350" y="515" width="25" height="25" rx="7"/><text class="i" x="360" y="532">)</text><a xlink:href="#boolean-expression"><rect class="r" x="385" y="515" width="134" height="25"/><text class="i" x="395" y="532">boolean-expression</text></a><rect class="l" x="529" y="515" width="28" height="25" rx="7"/><text class="i" x="539" y="532">»</text><a xlink:href="#boolean"><rect class="r" x="567" y="515" width="66" height="25"/><text class="i" x="577" y="532">boolean</text></a><rect class="l" x="25" y="575" width="47" height="25" rx="7"/><text class="i" x="35" y="592">filter</text><rect class="l" x="82" y="575" width="25" height="25" rx="7"/><text class="i" x="92" y="592">(</text><a xlink:href="#symbol"><rect class="r" x="117" y="575" width="62" height="25"/><text class="i" x="127" y="592">symbol</text></a><rect class="l" x="189" y="575" width="31" height="25" rx="7"/><text class="i" x="199" y="592">in</text><a xlink:href="#set"><rect class="r" x="230" y="575" width="38" height="25"/><text class="i" x="240" y="592">set</text></a><rect class="l" x="278" y="575" width="25" height="25" rx="7"/><text class="i" x="288" y="592">)</text><a xlink:href="#boolean-expression"><rect class="r" x="313" y="575" width="134" height="25"/><text class="i" x="323" y="592">boolean-expression</text></a><rect class="l" x="457" y="575" width="28" height="25" rx="7"/><text class="i" x="467" y="592">»</text><a xlink:href="#set"><rect class="r" x="495" y="575" width="38" height="25"/><text class="i" x="505" y="592">set</text></a><rect class="l" x="25" y="605" width="47" height="25" rx="7"/><text class="i" x="35" y="622">filter</text><rect class="l" x="82" y="605" width="25" height="25" rx="7"/><text class="i" x="92" y="622">(</text><a xlink:href="#symbol"><rect class="r" x="117" y="605" width="62" height="25"/><text class="i" x="127" y="622">symbol</text></a><rect class="l" x="189" y="605" width="31" height="25" rx="7"/><text class="i" x="199" y="622">in</text><a xlink:href="#vector"><rect class="r" x="230" y="605" width="57" height="25"/><text class="i" x="240" y="622">vector</text></a><rect class="l" x="297" y="605" width="25" height="25" rx="7"/><text class="i" x="307" y="622">)</text><a xlink:href="#boolean-expression"><rect class="r" x="332" y="605" width="134" height="25"/><text class="i" x="342" y="622">boolean-expression</text></a><rect class="l" x="476" y="605" width="28" height="25" rx="7"/><text class="i" x="486" y="622">»</text><a xlink:href="#vector"><rect class="r" x="514" y="605" width="57" height="25"/><text class="i" x="524" y="622">vector</text></a><a xlink:href="#set"><rect class="r" x="25" y="665" width="38" height="25"/><text class="i" x="35" y="682">set</text></a><rect class="l" x="73" y="665" width="24" height="25" rx="7"/><text class="i" x="83" y="682">.</text><rect class="l" x="107" y="665" width="90" height="25" rx="7"/><text class="i" x="117" y="682">intersection</text><rect class="l" x="207" y="665" width="25" height="25" rx="7"/><text class="i" x="217" y="682">(</text><rect class="l" x="269" y="635" width="24" height="25" rx="7"/><text class="i" x="279" y="652">,</text><a xlink:href="#set"><rect class="r" x="262" y="665" width="38" height="25"/><text class="i" x="272" y="682">set</text></a><rect class="l" x="330" y="665" width="25" height="25" rx="7"/><text class="i" x="340" y="682">)</text><rect class="l" x="365" y="665" width="28" height="25" rx="7"/><text class="i" x="375" y="682">»</text><a xlink:href="#set"><rect class="r" x="403" y="665" width="38" height="25"/><text class="i" x="413" y="682">set</text></a><rect class="l" x="25" y="695" width="46" height="25" rx="7"/><text class="i" x="35" y="712">map</text><rect class="l" x="81" y="695" width="25" height="25" rx="7"/><text class="i" x="91" y="712">(</text><a xlink:href="#symbol:element"><rect class="r" x="116" y="695" width="116" height="25"/><text class="i" x="126" y="712">symbol:element</text></a><rect class="l" x="242" y="695" width="31" height="25" rx="7"/><text class="i" x="252" y="712">in</text><a xlink:href="#set"><rect class="r" x="283" y="695" width="38" height="25"/><text class="i" x="293" y="712">set</text></a><rect class="l" x="331" y="695" width="25" height="25" rx="7"/><text class="i" x="341" y="712">)</text><a xlink:href="#value-expression"><rect class="r" x="366" y="695" width="120" height="25"/><text class="i" x="376" y="712">value-expression</text></a><rect class="l" x="496" y="695" width="28" height="25" rx="7"/><text class="i" x="506" y="712">»</text><a xlink:href="#set"><rect class="r" x="534" y="695" width="38" height="25"/><text class="i" x="544" y="712">set</text></a><rect class="l" x="25" y="725" width="46" height="25" rx="7"/><text class="i" x="35" y="742">map</text><rect class="l" x="81" y="725" width="25" height="25" rx="7"/><text class="i" x="91" y="742">(</text><a xlink:href="#symbol:element"><rect class="r" x="116" y="725" width="116" height="25"/><text class="i" x="126" y="742">symbol:element</text></a><rect class="l" x="242" y="725" width="31" height="25" rx="7"/><text class="i" x="252" y="742">in</text><a xlink:href="#vector"><rect class="r" x="283" y="725" width="57" height="25"/><text class="i" x="293" y="742">vector</text></a><rect class="l" x="350" y="725" width="25" height="25" rx="7"/><text class="i" x="360" y="742">)</text><a xlink:href="#value-expression"><rect class="r" x="385" y="725" width="120" height="25"/><text class="i" x="395" y="742">value-expression</text></a><rect class="l" x="515" y="725" width="28" height="25" rx="7"/><text class="i" x="525" y="742">»</text><a xlink:href="#vector"><rect class="r" x="553" y="725" width="57" height="25"/><text class="i" x="563" y="742">vector</text></a><rect class="l" x="25" y="785" width="87" height="25" rx="7"/><text class="i" x="35" y="802">notEqualTo</text><rect class="l" x="122" y="785" width="25" height="25" rx="7"/><text class="i" x="132" y="802">(</text><a xlink:href="#value"><rect class="r" x="157" y="785" width="52" height="25"/><text class="i" x="167" y="802">value</text></a><rect class="l" x="219" y="785" width="24" height="25" rx="7"/><text class="i" x="229" y="802">,</text><rect class="l" x="287" y="755" width="24" height="25" rx="7"/><text class="i" x="297" y="772">,</text><a xlink:href="#value"><rect class="r" x="273" y="785" width="52" height="25"/><text class="i" x="283" y="802">value</text></a><rect class="l" x="355" y="785" width="25" height="25" rx="7"/><text class="i" x="365" y="802">)</text><rect class="l" x="390" y="785" width="28" height="25" rx="7"/><text class="i" x="400" y="802">»</text><a xlink:href="#boolean"><rect class="r" x="428" y="785" width="66" height="25"/><text class="i" x="438" y="802">boolean</text></a><a xlink:href="#set"><rect class="r" x="45" y="815" width="38" height="25"/><text class="i" x="55" y="832">set</text></a><a xlink:href="#vector"><rect class="r" x="45" y="845" width="57" height="25"/><text class="i" x="55" y="862">vector</text></a><rect class="l" x="132" y="815" width="24" height="25" rx="7"/><text class="i" x="142" y="832">.</text><rect class="l" x="166" y="815" width="53" height="25" rx="7"/><text class="i" x="176" y="832">sort()</text><rect class="l" x="229" y="815" width="28" height="25" rx="7"/><text class="i" x="239" y="832">»</text><a xlink:href="#vector"><rect class="r" x="267" y="815" width="57" height="25"/><text class="i" x="277" y="832">vector</text></a><rect class="l" x="25" y="875" width="58" height="25" rx="7"/><text class="i" x="35" y="892">sortBy</text><rect class="l" x="93" y="875" width="25" height="25" rx="7"/><text class="i" x="103" y="892">(</text><a xlink:href="#symbol:element"><rect class="r" x="128" y="875" width="116" height="25"/><text class="i" x="138" y="892">symbol:element</text></a><rect class="l" x="254" y="875" width="31" height="25" rx="7"/><text class="i" x="264" y="892">in</text><a xlink:href="#set"><rect class="r" x="315" y="875" width="38" height="25"/><text class="i" x="325" y="892">set</text></a><a xlink:href="#vector"><rect class="r" x="315" y="905" width="57" height="25"/><text class="i" x="325" y="922">vector</text></a><rect class="l" x="402" y="875" width="25" height="25" rx="7"/><text class="i" x="412" y="892">)</text><a xlink:href="#integer-expression"><rect class="r" x="457" y="875" width="130" height="25"/><text class="i" x="467" y="892">integer-expression</text></a><a xlink:href="#fixed-decimal-expression"><rect class="r" x="457" y="905" width="166" height="25"/><text class="i" x="467" y="922">fixed-decimal-expression</text></a><rect class="l" x="653" y="875" width="28" height="25" rx="7"/><text class="i" x="663" y="892">»</text><a xlink:href="#vector"><rect class="r" x="691" y="875" width="57" height="25"/><text class="i" x="701" y="892">vector</text></a><a xlink:href="#set"><rect class="r" x="25" y="935" width="38" height="25"/><text class="i" x="35" y="952">set</text></a><rect class="l" x="73" y="935" width="24" height="25" rx="7"/><text class="i" x="83" y="952">.</text><rect class="l" x="107" y="935" width="66" height="25" rx="7"/><text class="i" x="117" y="952">subset?</text><rect class="l" x="183" y="935" width="25" height="25" rx="7"/><text class="i" x="193" y="952">(</text><a xlink:href="#set"><rect class="r" x="218" y="935" width="38" height="25"/><text class="i" x="228" y="952">set</text></a><rect class="l" x="266" y="935" width="25" height="25" rx="7"/><text class="i" x="276" y="952">)</text><rect class="l" x="301" y="935" width="28" height="25" rx="7"/><text class="i" x="311" y="952">»</text><a xlink:href="#boolean"><rect class="r" x="339" y="935" width="66" height="25"/><text class="i" x="349" y="952">boolean</text></a><a xlink:href="#set"><rect class="r" x="25" y="995" width="38" height="25"/><text class="i" x="35" y="1012">set</text></a><rect class="l" x="73" y="995" width="24" height="25" rx="7"/><text class="i" x="83" y="1012">.</text><rect class="l" x="107" y="995" width="54" height="25" rx="7"/><text class="i" x="117" y="1012">union</text><rect class="l" x="171" y="995" width="25" height="25" rx="7"/><text class="i" x="181" y="1012">(</text><rect class="l" x="233" y="965" width="24" height="25" rx="7"/><text class="i" x="243" y="982">,</text><a xlink:href="#set"><rect class="r" x="226" y="995" width="38" height="25"/><text class="i" x="236" y="1012">set</text></a><rect class="l" x="294" y="995" width="25" height="25" rx="7"/><text class="i" x="304" y="1012">)</text><rect class="l" x="329" y="995" width="28" height="25" rx="7"/><text class="i" x="339" y="1012">»</text><a xlink:href="#set"><rect class="r" x="367" y="995" width="38" height="25"/><text class="i" x="377" y="1012">set</text></a></svg>