<svg version="1.1" xmlns:xlink="http://www.w3.org/1999/xlink" xmlns="http://www.w3.org/2000/svg" width="734" height="413" viewbox="0 0 734 413"><defs><style type="text/css">.c{fill: none; stroke: #888888; stroke-width: 3pt;}.j{fill:#000000;font-family:Dialog,Sans-serif;font-size:12px;}.l{fill:#90d9ff;stroke:#222222;}.r{fill:#d3f0ff;stroke:#222222;}</style></defs><path class="c" d="M0 21h25m25 0h10m63 0h30m59 0h10m59 0h10m25 0h10m27 0h10m59 0h22m-306 0q5 0 5 5v19q0 5 5 5h5m40 0h30m40 0h39m-94 0q5 0 5 5v19q0 5 5 5h5m59 0h5q5 0 5-5v-19q0-5 5-5m5 0h10m25 0h10m27 0h10m40 0h5q5 0 5-5v-19q0-5 5-5m5 0h285m-714 97q0 5 5 5h5m25 0h10m46 0h30m40 0h30m-5 0q-5 0-5-5v-16q0-5 5-5h63q5 0 5 5v16q0 5-5 5m-5 0h30m25 0h10m27 0h10m40 0h58m-338 0q5 0 5 5v34q0 5 5 5h5m59 0h30m-5 0q-5 0-5-5v-16q0-5 5-5h63q5 0 5 5v16q0 5-5 5m-5 0h30m25 0h10m27 0h10m59 0h5q5 0 5-5v-34q0-5 5-5m5 0h255q5 0 5-5m-704 73q0 5 5 5h5m25 0h10m83 0h10m40 0h10m40 0h10m25 0h10m27 0h10m40 0h349q5 0 5-5m-704 29q0 5 5 5h5m25 0h10m48 0h30m25 0h10m118 0h10m40 0h10m25 0h10m143 0h10m25 0h10m27 0h10m40 0h58m-586 0q5 0 5 5v19q0 5 5 5h5m25 0h10m118 0h10m59 0h10m25 0h10m143 0h10m25 0h10m27 0h10m59 0h5q5 0 5-5v-19q0-5 5-5m5 0h5q5 0 5-5m-704 73q0 5 5 5h5m25 0h10m95 0h10m40 0h30m-5 0q-5 0-5-5v-16q0-5 5-5h50q5 0 5 5v16q0 5-5 5m-5 0h30m25 0h10m27 0h10m40 0h297q5 0 5-5m-704 29q0 5 5 5h5m25 0h10m47 0h30m25 0h10m118 0h10m40 0h10m25 0h10m125 0h10m25 0h10m27 0h10m40 0h58m-568 0q5 0 5 5v19q0 5 5 5h5m25 0h10m118 0h10m59 0h10m25 0h10m125 0h10m25 0h10m27 0h10m59 0h5q5 0 5-5v-19q0-5 5-5m5 0h24q5 0 5-5m-709-301q5 0 5 5v369q0 5 5 5h5m25 0h10m55 0h10m40 0h30m-5 0q-5 0-5-5v-16q0-5 5-5h50q5 0 5 5v16q0 5-5 5m-5 0h30m25 0h10m27 0h10m40 0h337q5 0 5-5v-369q0-5 5-5m5 0h5"/><rect class="l" x="25" y="5" width="25" height="24" rx="7"/><text class="j" x="35" y="21">(</text><rect class="l" x="60" y="5" width="63" height="24" rx="7"/><text class="j" x="70" y="21">concat</text><a xlink:href="#vector"><rect class="r" x="153" y="5" width="59" height="24"/><text class="j" x="163" y="21">vector</text></a><a xlink:href="#vector"><rect class="r" x="222" y="5" width="59" height="24"/><text class="j" x="232" y="21">vector</text></a><rect class="l" x="291" y="5" width="25" height="24" rx="7"/><text class="j" x="301" y="21">)</text><rect class="l" x="326" y="5" width="27" height="24" rx="7"/><text class="j" x="336" y="21">»</text><a xlink:href="#vector"><rect class="r" x="363" y="5" width="59" height="24"/><text class="j" x="373" y="21">vector</text></a><a xlink:href="#set"><rect class="r" x="153" y="34" width="40" height="24"/><text class="j" x="163" y="50">set</text></a><a xlink:href="#set"><rect class="r" x="223" y="34" width="40" height="24"/><text class="j" x="233" y="50">set</text></a><a xlink:href="#vector"><rect class="r" x="223" y="63" width="59" height="24"/><text class="j" x="233" y="79">vector</text></a><rect class="l" x="312" y="34" width="25" height="24" rx="7"/><text class="j" x="322" y="50">)</text><rect class="l" x="347" y="34" width="27" height="24" rx="7"/><text class="j" x="357" y="50">»</text><a xlink:href="#set"><rect class="r" x="384" y="34" width="40" height="24"/><text class="j" x="394" y="50">set</text></a><rect class="l" x="25" y="107" width="25" height="24" rx="7"/><text class="j" x="35" y="123">(</text><rect class="l" x="60" y="107" width="46" height="24" rx="7"/><text class="j" x="70" y="123">conj</text><a xlink:href="#set"><rect class="r" x="136" y="107" width="40" height="24"/><text class="j" x="146" y="123">set</text></a><a xlink:href="#value"><rect class="r" x="206" y="107" width="53" height="24"/><text class="j" x="216" y="123">value</text></a><rect class="l" x="289" y="107" width="25" height="24" rx="7"/><text class="j" x="299" y="123">)</text><rect class="l" x="324" y="107" width="27" height="24" rx="7"/><text class="j" x="334" y="123">»</text><a xlink:href="#set"><rect class="r" x="361" y="107" width="40" height="24"/><text class="j" x="371" y="123">set</text></a><a xlink:href="#vector"><rect class="r" x="136" y="151" width="59" height="24"/><text class="j" x="146" y="167">vector</text></a><a xlink:href="#value"><rect class="r" x="225" y="151" width="53" height="24"/><text class="j" x="235" y="167">value</text></a><rect class="l" x="308" y="151" width="25" height="24" rx="7"/><text class="j" x="318" y="167">)</text><rect class="l" x="343" y="151" width="27" height="24" rx="7"/><text class="j" x="353" y="167">»</text><a xlink:href="#vector"><rect class="r" x="380" y="151" width="59" height="24"/><text class="j" x="390" y="167">vector</text></a><rect class="l" x="25" y="180" width="25" height="24" rx="7"/><text class="j" x="35" y="196">(</text><rect class="l" x="60" y="180" width="83" height="24" rx="7"/><text class="j" x="70" y="196">difference</text><a xlink:href="#set"><rect class="r" x="153" y="180" width="40" height="24"/><text class="j" x="163" y="196">set</text></a><a xlink:href="#set"><rect class="r" x="203" y="180" width="40" height="24"/><text class="j" x="213" y="196">set</text></a><rect class="l" x="253" y="180" width="25" height="24" rx="7"/><text class="j" x="263" y="196">)</text><rect class="l" x="288" y="180" width="27" height="24" rx="7"/><text class="j" x="298" y="196">»</text><a xlink:href="#set"><rect class="r" x="325" y="180" width="40" height="24"/><text class="j" x="335" y="196">set</text></a><rect class="l" x="25" y="209" width="25" height="24" rx="7"/><text class="j" x="35" y="225">(</text><rect class="l" x="60" y="209" width="48" height="24" rx="7"/><text class="j" x="70" y="225">filter</text><rect class="l" x="138" y="209" width="25" height="24" rx="7"/><text class="j" x="148" y="225">[</text><a xlink:href="#symbol:element"><rect class="r" x="173" y="209" width="118" height="24"/><text class="j" x="183" y="225">symbol:element</text></a><a xlink:href="#set"><rect class="r" x="301" y="209" width="40" height="24"/><text class="j" x="311" y="225">set</text></a><rect class="l" x="351" y="209" width="25" height="24" rx="7"/><text class="j" x="361" y="225">]</text><a xlink:href="#boolean-expression"><rect class="r" x="386" y="209" width="143" height="24"/><text class="j" x="396" y="225">boolean-expression</text></a><rect class="l" x="539" y="209" width="25" height="24" rx="7"/><text class="j" x="549" y="225">)</text><rect class="l" x="574" y="209" width="27" height="24" rx="7"/><text class="j" x="584" y="225">»</text><a xlink:href="#set"><rect class="r" x="611" y="209" width="40" height="24"/><text class="j" x="621" y="225">set</text></a><rect class="l" x="138" y="238" width="25" height="24" rx="7"/><text class="j" x="148" y="254">[</text><a xlink:href="#symbol:element"><rect class="r" x="173" y="238" width="118" height="24"/><text class="j" x="183" y="254">symbol:element</text></a><a xlink:href="#vector"><rect class="r" x="301" y="238" width="59" height="24"/><text class="j" x="311" y="254">vector</text></a><rect class="l" x="370" y="238" width="25" height="24" rx="7"/><text class="j" x="380" y="254">]</text><a xlink:href="#boolean-expression"><rect class="r" x="405" y="238" width="143" height="24"/><text class="j" x="415" y="254">boolean-expression</text></a><rect class="l" x="558" y="238" width="25" height="24" rx="7"/><text class="j" x="568" y="254">)</text><rect class="l" x="593" y="238" width="27" height="24" rx="7"/><text class="j" x="603" y="254">»</text><a xlink:href="#vector"><rect class="r" x="630" y="238" width="59" height="24"/><text class="j" x="640" y="254">vector</text></a><rect class="l" x="25" y="282" width="25" height="24" rx="7"/><text class="j" x="35" y="298">(</text><rect class="l" x="60" y="282" width="95" height="24" rx="7"/><text class="j" x="70" y="298">intersection</text><a xlink:href="#set"><rect class="r" x="165" y="282" width="40" height="24"/><text class="j" x="175" y="298">set</text></a><a xlink:href="#set"><rect class="r" x="235" y="282" width="40" height="24"/><text class="j" x="245" y="298">set</text></a><rect class="l" x="305" y="282" width="25" height="24" rx="7"/><text class="j" x="315" y="298">)</text><rect class="l" x="340" y="282" width="27" height="24" rx="7"/><text class="j" x="350" y="298">»</text><a xlink:href="#set"><rect class="r" x="377" y="282" width="40" height="24"/><text class="j" x="387" y="298">set</text></a><rect class="l" x="25" y="311" width="25" height="24" rx="7"/><text class="j" x="35" y="327">(</text><rect class="l" x="60" y="311" width="47" height="24" rx="7"/><text class="j" x="70" y="327">map</text><rect class="l" x="137" y="311" width="25" height="24" rx="7"/><text class="j" x="147" y="327">[</text><a xlink:href="#symbol:element"><rect class="r" x="172" y="311" width="118" height="24"/><text class="j" x="182" y="327">symbol:element</text></a><a xlink:href="#set"><rect class="r" x="300" y="311" width="40" height="24"/><text class="j" x="310" y="327">set</text></a><rect class="l" x="350" y="311" width="25" height="24" rx="7"/><text class="j" x="360" y="327">]</text><a xlink:href="#value-expression"><rect class="r" x="385" y="311" width="125" height="24"/><text class="j" x="395" y="327">value-expression</text></a><rect class="l" x="520" y="311" width="25" height="24" rx="7"/><text class="j" x="530" y="327">)</text><rect class="l" x="555" y="311" width="27" height="24" rx="7"/><text class="j" x="565" y="327">»</text><a xlink:href="#set"><rect class="r" x="592" y="311" width="40" height="24"/><text class="j" x="602" y="327">set</text></a><rect class="l" x="137" y="340" width="25" height="24" rx="7"/><text class="j" x="147" y="356">[</text><a xlink:href="#symbol:element"><rect class="r" x="172" y="340" width="118" height="24"/><text class="j" x="182" y="356">symbol:element</text></a><a xlink:href="#vector"><rect class="r" x="300" y="340" width="59" height="24"/><text class="j" x="310" y="356">vector</text></a><rect class="l" x="369" y="340" width="25" height="24" rx="7"/><text class="j" x="379" y="356">]</text><a xlink:href="#value-expression"><rect class="r" x="404" y="340" width="125" height="24"/><text class="j" x="414" y="356">value-expression</text></a><rect class="l" x="539" y="340" width="25" height="24" rx="7"/><text class="j" x="549" y="356">)</text><rect class="l" x="574" y="340" width="27" height="24" rx="7"/><text class="j" x="584" y="356">»</text><a xlink:href="#vector"><rect class="r" x="611" y="340" width="59" height="24"/><text class="j" x="621" y="356">vector</text></a><rect class="l" x="25" y="384" width="25" height="24" rx="7"/><text class="j" x="35" y="400">(</text><rect class="l" x="60" y="384" width="55" height="24" rx="7"/><text class="j" x="70" y="400">union</text><a xlink:href="#set"><rect class="r" x="125" y="384" width="40" height="24"/><text class="j" x="135" y="400">set</text></a><a xlink:href="#set"><rect class="r" x="195" y="384" width="40" height="24"/><text class="j" x="205" y="400">set</text></a><rect class="l" x="265" y="384" width="25" height="24" rx="7"/><text class="j" x="275" y="400">)</text><rect class="l" x="300" y="384" width="27" height="24" rx="7"/><text class="j" x="310" y="400">»</text><a xlink:href="#set"><rect class="r" x="337" y="384" width="40" height="24"/><text class="j" x="347" y="400">set</text></a></svg>