<!--
RULE = ( ( ( vector '.' 'concat' '('  vector ')' '»' vector ) |
( (set '.' 'concat' '(' (set | vector) ')') '»' set ) )  |
 ( ( set '.' 'conj' '(' value {',' value} ')' '»' set ) |
( vector '.' 'conj' '(' value {',' value} ')' '»' vector ) )  |
 ( ( set '.' 'difference' '(' set ')' '»' set ) )  |
 ( ( 'filter' '(' symbol 'in' set ')' boolean-expression '»' set ) |
( 'filter' '(' symbol 'in' vector ')' boolean-expression '»' vector ) )  |
 ( ( set '.' 'intersection' '(' set {',' set} ')' '»' set ) )  |
 ( ( 'map' '(' symbol:element 'in' set ')' value-expression '»' set ) |
( 'map' '(' symbol:element 'in' vector ')' value-expression '»' vector ) )  |
 ( ( set '.' 'union' '(' set {',' set} ')' '»' set ) ) );
-->
<svg version="1.1" xmlns:xlink="http://www.w3.org/1999/xlink" xmlns="http://www.w3.org/2000/svg" width="652" height="485" viewbox="0 0 652 485"><defs><style type="text/css">.c{fill: none; stroke: #888888; stroke-width: 2px;}.i{fill:#000000;font-family:Verdana,Sans-serif;font-size:12px;}.l{fill:#90d9ff;stroke:#222222;}.r{fill:#d3f0ff;stroke:#222222;}</style></defs><path class="c" d="M0 18h25m59 0h10m24 0h10m61 0h10m25 0h10m59 0h10m25 0h10m28 0h10m59 0h212m-632 25q0 5 5 5h5m40 0h10m24 0h10m61 0h10m25 0h30m40 0h39m-94 0q5 0 5 5v20q0 5 5 5h5m59 0h5q5 0 5-5v-20q0-5 5-5m5 0h10m25 0h10m28 0h10m40 0h195q5 0 5-5m-622 90q0 5 5 5h5m40 0h10m24 0h10m46 0h10m25 0h30m-5 0q-5 0-5-5v-20q0-5 5-5h20m24 0h20q5 0 5 5v20q0 5-5 5m-5 0h30m25 0h10m28 0h10m40 0h215q5 0 5-5m-622 60q0 5 5 5h5m59 0h10m24 0h10m46 0h10m25 0h30m-5 0q-5 0-5-5v-20q0-5 5-5h20m24 0h20q5 0 5 5v20q0 5-5 5m-5 0h30m25 0h10m28 0h10m59 0h177q5 0 5-5m-622 30q0 5 5 5h5m40 0h10m24 0h10m82 0h10m25 0h10m40 0h10m25 0h10m28 0h10m40 0h233q5 0 5-5m-622 30q0 5 5 5h5m48 0h10m25 0h10m64 0h10m31 0h10m40 0h10m25 0h10m145 0h10m28 0h10m40 0h81q5 0 5-5m-622 30q0 5 5 5h5m48 0h10m25 0h10m64 0h10m31 0h10m59 0h10m25 0h10m145 0h10m28 0h10m59 0h43q5 0 5-5m-622 60q0 5 5 5h5m40 0h10m24 0h10m94 0h10m25 0h30m-5 0q-5 0-5-5v-20q0-5 5-5h13m24 0h13q5 0 5 5v20q0 5-5 5m-5 0h30m25 0h10m28 0h10m40 0h181q5 0 5-5m-622 30q0 5 5 5h5m47 0h10m25 0h10m120 0h10m31 0h10m40 0h10m25 0h10m128 0h10m28 0h10m40 0h43q5 0 5-5m-622 30q0 5 5 5h5m47 0h10m25 0h10m120 0h10m31 0h10m59 0h10m25 0h10m128 0h10m28 0h10m59 0h5q5 0 5-5m-627-385q5 0 5 5v440q0 5 5 5h5m40 0h10m24 0h10m55 0h10m25 0h30m-5 0q-5 0-5-5v-20q0-5 5-5h13m24 0h13q5 0 5 5v20q0 5-5 5m-5 0h30m25 0h10m28 0h10m40 0h220q5 0 5-5v-440q0-5 5-5m5 0h5"/><a xlink:href="#vector"><rect class="r" x="25" y="5" width="59" height="25"/><text class="i" x="35" y="22">vector</text></a><rect class="l" x="94" y="5" width="24" height="25" rx="7"/><text class="i" x="104" y="22">.</text><rect class="l" x="128" y="5" width="61" height="25" rx="7"/><text class="i" x="138" y="22">concat</text><rect class="l" x="199" y="5" width="25" height="25" rx="7"/><text class="i" x="209" y="22">(</text><a xlink:href="#vector"><rect class="r" x="234" y="5" width="59" height="25"/><text class="i" x="244" y="22">vector</text></a><rect class="l" x="303" y="5" width="25" height="25" rx="7"/><text class="i" x="313" y="22">)</text><rect class="l" x="338" y="5" width="28" height="25" rx="7"/><text class="i" x="348" y="22">»</text><a xlink:href="#vector"><rect class="r" x="376" y="5" width="59" height="25"/><text class="i" x="386" y="22">vector</text></a><a xlink:href="#set"><rect class="r" x="25" y="35" width="40" height="25"/><text class="i" x="35" y="52">set</text></a><rect class="l" x="75" y="35" width="24" height="25" rx="7"/><text class="i" x="85" y="52">.</text><rect class="l" x="109" y="35" width="61" height="25" rx="7"/><text class="i" x="119" y="52">concat</text><rect class="l" x="180" y="35" width="25" height="25" rx="7"/><text class="i" x="190" y="52">(</text><a xlink:href="#set"><rect class="r" x="235" y="35" width="40" height="25"/><text class="i" x="245" y="52">set</text></a><a xlink:href="#vector"><rect class="r" x="235" y="65" width="59" height="25"/><text class="i" x="245" y="82">vector</text></a><rect class="l" x="324" y="35" width="25" height="25" rx="7"/><text class="i" x="334" y="52">)</text><rect class="l" x="359" y="35" width="28" height="25" rx="7"/><text class="i" x="369" y="52">»</text><a xlink:href="#set"><rect class="r" x="397" y="35" width="40" height="25"/><text class="i" x="407" y="52">set</text></a><a xlink:href="#set"><rect class="r" x="25" y="125" width="40" height="25"/><text class="i" x="35" y="142">set</text></a><rect class="l" x="75" y="125" width="24" height="25" rx="7"/><text class="i" x="85" y="142">.</text><rect class="l" x="109" y="125" width="46" height="25" rx="7"/><text class="i" x="119" y="142">conj</text><rect class="l" x="165" y="125" width="25" height="25" rx="7"/><text class="i" x="175" y="142">(</text><rect class="l" x="235" y="95" width="24" height="25" rx="7"/><text class="i" x="245" y="112">,</text><a xlink:href="#value"><rect class="r" x="220" y="125" width="54" height="25"/><text class="i" x="230" y="142">value</text></a><rect class="l" x="304" y="125" width="25" height="25" rx="7"/><text class="i" x="314" y="142">)</text><rect class="l" x="339" y="125" width="28" height="25" rx="7"/><text class="i" x="349" y="142">»</text><a xlink:href="#set"><rect class="r" x="377" y="125" width="40" height="25"/><text class="i" x="387" y="142">set</text></a><a xlink:href="#vector"><rect class="r" x="25" y="185" width="59" height="25"/><text class="i" x="35" y="202">vector</text></a><rect class="l" x="94" y="185" width="24" height="25" rx="7"/><text class="i" x="104" y="202">.</text><rect class="l" x="128" y="185" width="46" height="25" rx="7"/><text class="i" x="138" y="202">conj</text><rect class="l" x="184" y="185" width="25" height="25" rx="7"/><text class="i" x="194" y="202">(</text><rect class="l" x="254" y="155" width="24" height="25" rx="7"/><text class="i" x="264" y="172">,</text><a xlink:href="#value"><rect class="r" x="239" y="185" width="54" height="25"/><text class="i" x="249" y="202">value</text></a><rect class="l" x="323" y="185" width="25" height="25" rx="7"/><text class="i" x="333" y="202">)</text><rect class="l" x="358" y="185" width="28" height="25" rx="7"/><text class="i" x="368" y="202">»</text><a xlink:href="#vector"><rect class="r" x="396" y="185" width="59" height="25"/><text class="i" x="406" y="202">vector</text></a><a xlink:href="#set"><rect class="r" x="25" y="215" width="40" height="25"/><text class="i" x="35" y="232">set</text></a><rect class="l" x="75" y="215" width="24" height="25" rx="7"/><text class="i" x="85" y="232">.</text><rect class="l" x="109" y="215" width="82" height="25" rx="7"/><text class="i" x="119" y="232">difference</text><rect class="l" x="201" y="215" width="25" height="25" rx="7"/><text class="i" x="211" y="232">(</text><a xlink:href="#set"><rect class="r" x="236" y="215" width="40" height="25"/><text class="i" x="246" y="232">set</text></a><rect class="l" x="286" y="215" width="25" height="25" rx="7"/><text class="i" x="296" y="232">)</text><rect class="l" x="321" y="215" width="28" height="25" rx="7"/><text class="i" x="331" y="232">»</text><a xlink:href="#set"><rect class="r" x="359" y="215" width="40" height="25"/><text class="i" x="369" y="232">set</text></a><rect class="l" x="25" y="245" width="48" height="25" rx="7"/><text class="i" x="35" y="262">filter</text><rect class="l" x="83" y="245" width="25" height="25" rx="7"/><text class="i" x="93" y="262">(</text><a xlink:href="#symbol"><rect class="r" x="118" y="245" width="64" height="25"/><text class="i" x="128" y="262">symbol</text></a><rect class="l" x="192" y="245" width="31" height="25" rx="7"/><text class="i" x="202" y="262">in</text><a xlink:href="#set"><rect class="r" x="233" y="245" width="40" height="25"/><text class="i" x="243" y="262">set</text></a><rect class="l" x="283" y="245" width="25" height="25" rx="7"/><text class="i" x="293" y="262">)</text><a xlink:href="#boolean-expression"><rect class="r" x="318" y="245" width="145" height="25"/><text class="i" x="328" y="262">boolean-expression</text></a><rect class="l" x="473" y="245" width="28" height="25" rx="7"/><text class="i" x="483" y="262">»</text><a xlink:href="#set"><rect class="r" x="511" y="245" width="40" height="25"/><text class="i" x="521" y="262">set</text></a><rect class="l" x="25" y="275" width="48" height="25" rx="7"/><text class="i" x="35" y="292">filter</text><rect class="l" x="83" y="275" width="25" height="25" rx="7"/><text class="i" x="93" y="292">(</text><a xlink:href="#symbol"><rect class="r" x="118" y="275" width="64" height="25"/><text class="i" x="128" y="292">symbol</text></a><rect class="l" x="192" y="275" width="31" height="25" rx="7"/><text class="i" x="202" y="292">in</text><a xlink:href="#vector"><rect class="r" x="233" y="275" width="59" height="25"/><text class="i" x="243" y="292">vector</text></a><rect class="l" x="302" y="275" width="25" height="25" rx="7"/><text class="i" x="312" y="292">)</text><a xlink:href="#boolean-expression"><rect class="r" x="337" y="275" width="145" height="25"/><text class="i" x="347" y="292">boolean-expression</text></a><rect class="l" x="492" y="275" width="28" height="25" rx="7"/><text class="i" x="502" y="292">»</text><a xlink:href="#vector"><rect class="r" x="530" y="275" width="59" height="25"/><text class="i" x="540" y="292">vector</text></a><a xlink:href="#set"><rect class="r" x="25" y="335" width="40" height="25"/><text class="i" x="35" y="352">set</text></a><rect class="l" x="75" y="335" width="24" height="25" rx="7"/><text class="i" x="85" y="352">.</text><rect class="l" x="109" y="335" width="94" height="25" rx="7"/><text class="i" x="119" y="352">intersection</text><rect class="l" x="213" y="335" width="25" height="25" rx="7"/><text class="i" x="223" y="352">(</text><rect class="l" x="276" y="305" width="24" height="25" rx="7"/><text class="i" x="286" y="322">,</text><a xlink:href="#set"><rect class="r" x="268" y="335" width="40" height="25"/><text class="i" x="278" y="352">set</text></a><rect class="l" x="338" y="335" width="25" height="25" rx="7"/><text class="i" x="348" y="352">)</text><rect class="l" x="373" y="335" width="28" height="25" rx="7"/><text class="i" x="383" y="352">»</text><a xlink:href="#set"><rect class="r" x="411" y="335" width="40" height="25"/><text class="i" x="421" y="352">set</text></a><rect class="l" x="25" y="365" width="47" height="25" rx="7"/><text class="i" x="35" y="382">map</text><rect class="l" x="82" y="365" width="25" height="25" rx="7"/><text class="i" x="92" y="382">(</text><a xlink:href="#symbol:element"><rect class="r" x="117" y="365" width="120" height="25"/><text class="i" x="127" y="382">symbol:element</text></a><rect class="l" x="247" y="365" width="31" height="25" rx="7"/><text class="i" x="257" y="382">in</text><a xlink:href="#set"><rect class="r" x="288" y="365" width="40" height="25"/><text class="i" x="298" y="382">set</text></a><rect class="l" x="338" y="365" width="25" height="25" rx="7"/><text class="i" x="348" y="382">)</text><a xlink:href="#value-expression"><rect class="r" x="373" y="365" width="128" height="25"/><text class="i" x="383" y="382">value-expression</text></a><rect class="l" x="511" y="365" width="28" height="25" rx="7"/><text class="i" x="521" y="382">»</text><a xlink:href="#set"><rect class="r" x="549" y="365" width="40" height="25"/><text class="i" x="559" y="382">set</text></a><rect class="l" x="25" y="395" width="47" height="25" rx="7"/><text class="i" x="35" y="412">map</text><rect class="l" x="82" y="395" width="25" height="25" rx="7"/><text class="i" x="92" y="412">(</text><a xlink:href="#symbol:element"><rect class="r" x="117" y="395" width="120" height="25"/><text class="i" x="127" y="412">symbol:element</text></a><rect class="l" x="247" y="395" width="31" height="25" rx="7"/><text class="i" x="257" y="412">in</text><a xlink:href="#vector"><rect class="r" x="288" y="395" width="59" height="25"/><text class="i" x="298" y="412">vector</text></a><rect class="l" x="357" y="395" width="25" height="25" rx="7"/><text class="i" x="367" y="412">)</text><a xlink:href="#value-expression"><rect class="r" x="392" y="395" width="128" height="25"/><text class="i" x="402" y="412">value-expression</text></a><rect class="l" x="530" y="395" width="28" height="25" rx="7"/><text class="i" x="540" y="412">»</text><a xlink:href="#vector"><rect class="r" x="568" y="395" width="59" height="25"/><text class="i" x="578" y="412">vector</text></a><a xlink:href="#set"><rect class="r" x="25" y="455" width="40" height="25"/><text class="i" x="35" y="472">set</text></a><rect class="l" x="75" y="455" width="24" height="25" rx="7"/><text class="i" x="85" y="472">.</text><rect class="l" x="109" y="455" width="55" height="25" rx="7"/><text class="i" x="119" y="472">union</text><rect class="l" x="174" y="455" width="25" height="25" rx="7"/><text class="i" x="184" y="472">(</text><rect class="l" x="237" y="425" width="24" height="25" rx="7"/><text class="i" x="247" y="442">,</text><a xlink:href="#set"><rect class="r" x="229" y="455" width="40" height="25"/><text class="i" x="239" y="472">set</text></a><rect class="l" x="299" y="455" width="25" height="25" rx="7"/><text class="i" x="309" y="472">)</text><rect class="l" x="334" y="455" width="28" height="25" rx="7"/><text class="i" x="344" y="472">»</text><a xlink:href="#set"><rect class="r" x="372" y="455" width="40" height="25"/><text class="i" x="382" y="472">set</text></a></svg>