<svg version="1.1" xmlns:xlink="http://www.w3.org/1999/xlink" xmlns="http://www.w3.org/2000/svg" width="793" height="1025" viewbox="0 0 793 1025"><defs><style type="text/css">.c{fill:none;stroke:#222222;}.i{fill:#000000;font-family:Verdana,Sans-serif;font-size:12px;}.l{fill:#90d9ff;stroke:#222222;}.r{fill:#d3f0ff;stroke:#222222;}</style></defs><path class="c" d="M0 22h25m54 0h10m38 0h10m54 0h10m28 0h10m71 0h478m-773 55q0 5 5 5h5m70 0h10m25 0h10m54 0h10m24 0h30m-5 0q-5 0-5-5v-20q0-5 5-5h20m24 0h20q5 0 5 5v20q0 5-5 5m-5 0h30m25 0h10m28 0h10m71 0h287q5 0 5-5m-763 30q0 5 5 5h5m50 0h10m25 0h10m64 0h10m31 0h30m40 0h39m-94 0q5 0 5 5v20q0 5 5 5h5m59 0h5q5 0 5-5v-20q0-5 5-5m5 0h10m25 0h10m145 0h10m28 0h10m71 0h130q5 0 5-5m-763 60q0 5 5 5h5m59 0h10m24 0h10m61 0h10m25 0h10m59 0h10m25 0h10m28 0h10m59 0h338q5 0 5-5m-763 30q0 5 5 5h5m40 0h10m24 0h10m61 0h10m25 0h30m40 0h39m-94 0q5 0 5 5v20q0 5 5 5h5m59 0h5q5 0 5-5v-20q0-5 5-5m5 0h10m25 0h10m28 0h10m40 0h336q5 0 5-5m-763 90q0 5 5 5h5m40 0h10m24 0h10m46 0h10m25 0h30m-5 0q-5 0-5-5v-20q0-5 5-5h20m24 0h20q5 0 5 5v20q0 5-5 5m-5 0h30m25 0h10m28 0h10m40 0h356q5 0 5-5m-763 60q0 5 5 5h5m59 0h10m24 0h10m46 0h10m25 0h30m-5 0q-5 0-5-5v-20q0-5 5-5h20m24 0h20q5 0 5 5v20q0 5-5 5m-5 0h30m25 0h10m28 0h10m59 0h318q5 0 5-5m-763 30q0 5 5 5h5m40 0h10m24 0h10m80 0h10m25 0h10m54 0h10m25 0h10m28 0h10m71 0h331q5 0 5-5m-763 30q0 5 5 5h25m40 0h39m-94 0q5 0 5 5v20q0 5 5 5h5m59 0h5q5 0 5-5v-20q0-5 5-5m5 0h10m24 0h10m65 0h10m28 0h10m65 0h427q5 0 5-5m-763 60q0 5 5 5h5m40 0h10m24 0h10m82 0h10m25 0h10m40 0h10m25 0h10m28 0h10m40 0h374q5 0 5-5m-763 30q0 5 5 5h5m62 0h10m25 0h10m64 0h10m31 0h30m40 0h39m-94 0q5 0 5 5v20q0 5 5 5h5m59 0h5q5 0 5-5v-20q0-5 5-5m5 0h10m25 0h10m145 0h10m28 0h10m71 0h118q5 0 5-5m-763 60q0 5 5 5h5m48 0h10m25 0h10m64 0h10m31 0h10m40 0h10m25 0h10m145 0h10m28 0h10m40 0h222q5 0 5-5m-763 30q0 5 5 5h5m48 0h10m25 0h10m64 0h10m31 0h10m59 0h10m25 0h10m145 0h10m28 0h10m59 0h184q5 0 5-5m-763 60q0 5 5 5h5m40 0h10m24 0h10m94 0h10m25 0h30m-5 0q-5 0-5-5v-20q0-5 5-5h13m24 0h13q5 0 5 5v20q0 5-5 5m-5 0h30m25 0h10m28 0h10m40 0h322q5 0 5-5m-763 30q0 5 5 5h5m47 0h10m25 0h10m120 0h10m31 0h10m40 0h10m25 0h10m128 0h10m28 0h10m40 0h184q5 0 5-5m-763 30q0 5 5 5h5m47 0h10m25 0h10m120 0h10m31 0h10m59 0h10m25 0h10m128 0h10m28 0h10m59 0h146q5 0 5-5m-763 30q0 5 5 5h5m54 0h10m34 0h10m54 0h10m28 0h10m71 0h467q5 0 5-5m-763 60q0 5 5 5h5m91 0h10m25 0h10m54 0h10m24 0h30m-5 0q-5 0-5-5v-20q0-5 5-5h20m24 0h20q5 0 5 5v20q0 5-5 5m-5 0h30m25 0h10m28 0h10m71 0h266q5 0 5-5m-763 30q0 5 5 5h25m40 0h39m-94 0q5 0 5 5v20q0 5 5 5h5m59 0h5q5 0 5-5v-20q0-5 5-5m5 0h10m24 0h10m55 0h10m28 0h10m59 0h443q5 0 5-5m-763 60q0 5 5 5h5m60 0h10m25 0h10m120 0h10m31 0h30m40 0h39m-94 0q5 0 5 5v20q0 5 5 5h5m59 0h5q5 0 5-5v-20q0-5 5-5m5 0h10m25 0h30m139 0h57m-211 0q5 0 5 5v20q0 5 5 5h5m176 0h5q5 0 5-5v-20q0-5 5-5m5 0h10m28 0h10m59 0h5q5 0 5-5m-763 60q0 5 5 5h5m40 0h10m24 0h10m70 0h10m25 0h10m40 0h10m25 0h10m28 0h10m71 0h355q5 0 5-5m-768-925q5 0 5 5v980q0 5 5 5h5m40 0h10m24 0h10m55 0h10m25 0h30m-5 0q-5 0-5-5v-20q0-5 5-5h13m24 0h13q5 0 5 5v20q0 5-5 5m-5 0h30m25 0h10m28 0h10m40 0h361q5 0 5-5v-980q0-5 5-5m5 0h5"/><a xlink:href="#value"><rect class="r" x="25" y="5" width="54" height="25"/><text class="i" x="35" y="22">value</text></a><rect class="l" x="89" y="5" width="38" height="25" rx="7"/><text class="i" x="99" y="22">==</text><a xlink:href="#value"><rect class="r" x="137" y="5" width="54" height="25"/><text class="i" x="147" y="22">value</text></a><rect class="l" x="201" y="5" width="28" height="25" rx="7"/><text class="i" x="211" y="22">»</text><a xlink:href="#boolean"><rect class="r" x="239" y="5" width="71" height="25"/><text class="i" x="249" y="22">boolean</text></a><rect class="l" x="25" y="65" width="70" height="25" rx="7"/><text class="i" x="35" y="82">equalTo</text><rect class="l" x="105" y="65" width="25" height="25" rx="7"/><text class="i" x="115" y="82">(</text><a xlink:href="#value"><rect class="r" x="140" y="65" width="54" height="25"/><text class="i" x="150" y="82">value</text></a><rect class="l" x="204" y="65" width="24" height="25" rx="7"/><text class="i" x="214" y="82">,</text><rect class="l" x="273" y="35" width="24" height="25" rx="7"/><text class="i" x="283" y="52">,</text><a xlink:href="#value"><rect class="r" x="258" y="65" width="54" height="25"/><text class="i" x="268" y="82">value</text></a><rect class="l" x="342" y="65" width="25" height="25" rx="7"/><text class="i" x="352" y="82">)</text><rect class="l" x="377" y="65" width="28" height="25" rx="7"/><text class="i" x="387" y="82">»</text><a xlink:href="#boolean"><rect class="r" x="415" y="65" width="71" height="25"/><text class="i" x="425" y="82">boolean</text></a><rect class="l" x="25" y="95" width="50" height="25" rx="7"/><text class="i" x="35" y="112">any?</text><rect class="l" x="85" y="95" width="25" height="25" rx="7"/><text class="i" x="95" y="112">(</text><a xlink:href="#symbol"><rect class="r" x="120" y="95" width="64" height="25"/><text class="i" x="130" y="112">symbol</text></a><rect class="l" x="194" y="95" width="31" height="25" rx="7"/><text class="i" x="204" y="112">in</text><a xlink:href="#set"><rect class="r" x="255" y="95" width="40" height="25"/><text class="i" x="265" y="112">set</text></a><a xlink:href="#vector"><rect class="r" x="255" y="125" width="59" height="25"/><text class="i" x="265" y="142">vector</text></a><rect class="l" x="344" y="95" width="25" height="25" rx="7"/><text class="i" x="354" y="112">)</text><a xlink:href="#boolean-expression"><rect class="r" x="379" y="95" width="145" height="25"/><text class="i" x="389" y="112">boolean-expression</text></a><rect class="l" x="534" y="95" width="28" height="25" rx="7"/><text class="i" x="544" y="112">»</text><a xlink:href="#boolean"><rect class="r" x="572" y="95" width="71" height="25"/><text class="i" x="582" y="112">boolean</text></a><a xlink:href="#vector"><rect class="r" x="25" y="155" width="59" height="25"/><text class="i" x="35" y="172">vector</text></a><rect class="l" x="94" y="155" width="24" height="25" rx="7"/><text class="i" x="104" y="172">.</text><rect class="l" x="128" y="155" width="61" height="25" rx="7"/><text class="i" x="138" y="172">concat</text><rect class="l" x="199" y="155" width="25" height="25" rx="7"/><text class="i" x="209" y="172">(</text><a xlink:href="#vector"><rect class="r" x="234" y="155" width="59" height="25"/><text class="i" x="244" y="172">vector</text></a><rect class="l" x="303" y="155" width="25" height="25" rx="7"/><text class="i" x="313" y="172">)</text><rect class="l" x="338" y="155" width="28" height="25" rx="7"/><text class="i" x="348" y="172">»</text><a xlink:href="#vector"><rect class="r" x="376" y="155" width="59" height="25"/><text class="i" x="386" y="172">vector</text></a><a xlink:href="#set"><rect class="r" x="25" y="185" width="40" height="25"/><text class="i" x="35" y="202">set</text></a><rect class="l" x="75" y="185" width="24" height="25" rx="7"/><text class="i" x="85" y="202">.</text><rect class="l" x="109" y="185" width="61" height="25" rx="7"/><text class="i" x="119" y="202">concat</text><rect class="l" x="180" y="185" width="25" height="25" rx="7"/><text class="i" x="190" y="202">(</text><a xlink:href="#set"><rect class="r" x="235" y="185" width="40" height="25"/><text class="i" x="245" y="202">set</text></a><a xlink:href="#vector"><rect class="r" x="235" y="215" width="59" height="25"/><text class="i" x="245" y="232">vector</text></a><rect class="l" x="324" y="185" width="25" height="25" rx="7"/><text class="i" x="334" y="202">)</text><rect class="l" x="359" y="185" width="28" height="25" rx="7"/><text class="i" x="369" y="202">»</text><a xlink:href="#set"><rect class="r" x="397" y="185" width="40" height="25"/><text class="i" x="407" y="202">set</text></a><a xlink:href="#set"><rect class="r" x="25" y="275" width="40" height="25"/><text class="i" x="35" y="292">set</text></a><rect class="l" x="75" y="275" width="24" height="25" rx="7"/><text class="i" x="85" y="292">.</text><rect class="l" x="109" y="275" width="46" height="25" rx="7"/><text class="i" x="119" y="292">conj</text><rect class="l" x="165" y="275" width="25" height="25" rx="7"/><text class="i" x="175" y="292">(</text><rect class="l" x="235" y="245" width="24" height="25" rx="7"/><text class="i" x="245" y="262">,</text><a xlink:href="#value"><rect class="r" x="220" y="275" width="54" height="25"/><text class="i" x="230" y="292">value</text></a><rect class="l" x="304" y="275" width="25" height="25" rx="7"/><text class="i" x="314" y="292">)</text><rect class="l" x="339" y="275" width="28" height="25" rx="7"/><text class="i" x="349" y="292">»</text><a xlink:href="#set"><rect class="r" x="377" y="275" width="40" height="25"/><text class="i" x="387" y="292">set</text></a><a xlink:href="#vector"><rect class="r" x="25" y="335" width="59" height="25"/><text class="i" x="35" y="352">vector</text></a><rect class="l" x="94" y="335" width="24" height="25" rx="7"/><text class="i" x="104" y="352">.</text><rect class="l" x="128" y="335" width="46" height="25" rx="7"/><text class="i" x="138" y="352">conj</text><rect class="l" x="184" y="335" width="25" height="25" rx="7"/><text class="i" x="194" y="352">(</text><rect class="l" x="254" y="305" width="24" height="25" rx="7"/><text class="i" x="264" y="322">,</text><a xlink:href="#value"><rect class="r" x="239" y="335" width="54" height="25"/><text class="i" x="249" y="352">value</text></a><rect class="l" x="323" y="335" width="25" height="25" rx="7"/><text class="i" x="333" y="352">)</text><rect class="l" x="358" y="335" width="28" height="25" rx="7"/><text class="i" x="368" y="352">»</text><a xlink:href="#vector"><rect class="r" x="396" y="335" width="59" height="25"/><text class="i" x="406" y="352">vector</text></a><a xlink:href="#set"><rect class="r" x="25" y="365" width="40" height="25"/><text class="i" x="35" y="382">set</text></a><rect class="l" x="75" y="365" width="24" height="25" rx="7"/><text class="i" x="85" y="382">.</text><rect class="l" x="109" y="365" width="80" height="25" rx="7"/><text class="i" x="119" y="382">contains?</text><rect class="l" x="199" y="365" width="25" height="25" rx="7"/><text class="i" x="209" y="382">(</text><a xlink:href="#value"><rect class="r" x="234" y="365" width="54" height="25"/><text class="i" x="244" y="382">value</text></a><rect class="l" x="298" y="365" width="25" height="25" rx="7"/><text class="i" x="308" y="382">)</text><rect class="l" x="333" y="365" width="28" height="25" rx="7"/><text class="i" x="343" y="382">»</text><a xlink:href="#boolean"><rect class="r" x="371" y="365" width="71" height="25"/><text class="i" x="381" y="382">boolean</text></a><a xlink:href="#set"><rect class="r" x="45" y="395" width="40" height="25"/><text class="i" x="55" y="412">set</text></a><a xlink:href="#vector"><rect class="r" x="45" y="425" width="59" height="25"/><text class="i" x="55" y="442">vector</text></a><rect class="l" x="134" y="395" width="24" height="25" rx="7"/><text class="i" x="144" y="412">.</text><rect class="l" x="168" y="395" width="65" height="25" rx="7"/><text class="i" x="178" y="412">count()</text><rect class="l" x="243" y="395" width="28" height="25" rx="7"/><text class="i" x="253" y="412">»</text><a xlink:href="#integer"><rect class="r" x="281" y="395" width="65" height="25"/><text class="i" x="291" y="412">integer</text></a><a xlink:href="#set"><rect class="r" x="25" y="455" width="40" height="25"/><text class="i" x="35" y="472">set</text></a><rect class="l" x="75" y="455" width="24" height="25" rx="7"/><text class="i" x="85" y="472">.</text><rect class="l" x="109" y="455" width="82" height="25" rx="7"/><text class="i" x="119" y="472">difference</text><rect class="l" x="201" y="455" width="25" height="25" rx="7"/><text class="i" x="211" y="472">(</text><a xlink:href="#set"><rect class="r" x="236" y="455" width="40" height="25"/><text class="i" x="246" y="472">set</text></a><rect class="l" x="286" y="455" width="25" height="25" rx="7"/><text class="i" x="296" y="472">)</text><rect class="l" x="321" y="455" width="28" height="25" rx="7"/><text class="i" x="331" y="472">»</text><a xlink:href="#set"><rect class="r" x="359" y="455" width="40" height="25"/><text class="i" x="369" y="472">set</text></a><rect class="l" x="25" y="485" width="62" height="25" rx="7"/><text class="i" x="35" y="502">every?</text><rect class="l" x="97" y="485" width="25" height="25" rx="7"/><text class="i" x="107" y="502">(</text><a xlink:href="#symbol"><rect class="r" x="132" y="485" width="64" height="25"/><text class="i" x="142" y="502">symbol</text></a><rect class="l" x="206" y="485" width="31" height="25" rx="7"/><text class="i" x="216" y="502">in</text><a xlink:href="#set"><rect class="r" x="267" y="485" width="40" height="25"/><text class="i" x="277" y="502">set</text></a><a xlink:href="#vector"><rect class="r" x="267" y="515" width="59" height="25"/><text class="i" x="277" y="532">vector</text></a><rect class="l" x="356" y="485" width="25" height="25" rx="7"/><text class="i" x="366" y="502">)</text><a xlink:href="#boolean-expression"><rect class="r" x="391" y="485" width="145" height="25"/><text class="i" x="401" y="502">boolean-expression</text></a><rect class="l" x="546" y="485" width="28" height="25" rx="7"/><text class="i" x="556" y="502">»</text><a xlink:href="#boolean"><rect class="r" x="584" y="485" width="71" height="25"/><text class="i" x="594" y="502">boolean</text></a><rect class="l" x="25" y="545" width="48" height="25" rx="7"/><text class="i" x="35" y="562">filter</text><rect class="l" x="83" y="545" width="25" height="25" rx="7"/><text class="i" x="93" y="562">(</text><a xlink:href="#symbol"><rect class="r" x="118" y="545" width="64" height="25"/><text class="i" x="128" y="562">symbol</text></a><rect class="l" x="192" y="545" width="31" height="25" rx="7"/><text class="i" x="202" y="562">in</text><a xlink:href="#set"><rect class="r" x="233" y="545" width="40" height="25"/><text class="i" x="243" y="562">set</text></a><rect class="l" x="283" y="545" width="25" height="25" rx="7"/><text class="i" x="293" y="562">)</text><a xlink:href="#boolean-expression"><rect class="r" x="318" y="545" width="145" height="25"/><text class="i" x="328" y="562">boolean-expression</text></a><rect class="l" x="473" y="545" width="28" height="25" rx="7"/><text class="i" x="483" y="562">»</text><a xlink:href="#set"><rect class="r" x="511" y="545" width="40" height="25"/><text class="i" x="521" y="562">set</text></a><rect class="l" x="25" y="575" width="48" height="25" rx="7"/><text class="i" x="35" y="592">filter</text><rect class="l" x="83" y="575" width="25" height="25" rx="7"/><text class="i" x="93" y="592">(</text><a xlink:href="#symbol"><rect class="r" x="118" y="575" width="64" height="25"/><text class="i" x="128" y="592">symbol</text></a><rect class="l" x="192" y="575" width="31" height="25" rx="7"/><text class="i" x="202" y="592">in</text><a xlink:href="#vector"><rect class="r" x="233" y="575" width="59" height="25"/><text class="i" x="243" y="592">vector</text></a><rect class="l" x="302" y="575" width="25" height="25" rx="7"/><text class="i" x="312" y="592">)</text><a xlink:href="#boolean-expression"><rect class="r" x="337" y="575" width="145" height="25"/><text class="i" x="347" y="592">boolean-expression</text></a><rect class="l" x="492" y="575" width="28" height="25" rx="7"/><text class="i" x="502" y="592">»</text><a xlink:href="#vector"><rect class="r" x="530" y="575" width="59" height="25"/><text class="i" x="540" y="592">vector</text></a><a xlink:href="#set"><rect class="r" x="25" y="635" width="40" height="25"/><text class="i" x="35" y="652">set</text></a><rect class="l" x="75" y="635" width="24" height="25" rx="7"/><text class="i" x="85" y="652">.</text><rect class="l" x="109" y="635" width="94" height="25" rx="7"/><text class="i" x="119" y="652">intersection</text><rect class="l" x="213" y="635" width="25" height="25" rx="7"/><text class="i" x="223" y="652">(</text><rect class="l" x="276" y="605" width="24" height="25" rx="7"/><text class="i" x="286" y="622">,</text><a xlink:href="#set"><rect class="r" x="268" y="635" width="40" height="25"/><text class="i" x="278" y="652">set</text></a><rect class="l" x="338" y="635" width="25" height="25" rx="7"/><text class="i" x="348" y="652">)</text><rect class="l" x="373" y="635" width="28" height="25" rx="7"/><text class="i" x="383" y="652">»</text><a xlink:href="#set"><rect class="r" x="411" y="635" width="40" height="25"/><text class="i" x="421" y="652">set</text></a><rect class="l" x="25" y="665" width="47" height="25" rx="7"/><text class="i" x="35" y="682">map</text><rect class="l" x="82" y="665" width="25" height="25" rx="7"/><text class="i" x="92" y="682">(</text><a xlink:href="#symbol:element"><rect class="r" x="117" y="665" width="120" height="25"/><text class="i" x="127" y="682">symbol:element</text></a><rect class="l" x="247" y="665" width="31" height="25" rx="7"/><text class="i" x="257" y="682">in</text><a xlink:href="#set"><rect class="r" x="288" y="665" width="40" height="25"/><text class="i" x="298" y="682">set</text></a><rect class="l" x="338" y="665" width="25" height="25" rx="7"/><text class="i" x="348" y="682">)</text><a xlink:href="#value-expression"><rect class="r" x="373" y="665" width="128" height="25"/><text class="i" x="383" y="682">value-expression</text></a><rect class="l" x="511" y="665" width="28" height="25" rx="7"/><text class="i" x="521" y="682">»</text><a xlink:href="#set"><rect class="r" x="549" y="665" width="40" height="25"/><text class="i" x="559" y="682">set</text></a><rect class="l" x="25" y="695" width="47" height="25" rx="7"/><text class="i" x="35" y="712">map</text><rect class="l" x="82" y="695" width="25" height="25" rx="7"/><text class="i" x="92" y="712">(</text><a xlink:href="#symbol:element"><rect class="r" x="117" y="695" width="120" height="25"/><text class="i" x="127" y="712">symbol:element</text></a><rect class="l" x="247" y="695" width="31" height="25" rx="7"/><text class="i" x="257" y="712">in</text><a xlink:href="#vector"><rect class="r" x="288" y="695" width="59" height="25"/><text class="i" x="298" y="712">vector</text></a><rect class="l" x="357" y="695" width="25" height="25" rx="7"/><text class="i" x="367" y="712">)</text><a xlink:href="#value-expression"><rect class="r" x="392" y="695" width="128" height="25"/><text class="i" x="402" y="712">value-expression</text></a><rect class="l" x="530" y="695" width="28" height="25" rx="7"/><text class="i" x="540" y="712">»</text><a xlink:href="#vector"><rect class="r" x="568" y="695" width="59" height="25"/><text class="i" x="578" y="712">vector</text></a><a xlink:href="#value"><rect class="r" x="25" y="725" width="54" height="25"/><text class="i" x="35" y="742">value</text></a><rect class="l" x="89" y="725" width="34" height="25" rx="7"/><text class="i" x="99" y="742">!=</text><a xlink:href="#value"><rect class="r" x="133" y="725" width="54" height="25"/><text class="i" x="143" y="742">value</text></a><rect class="l" x="197" y="725" width="28" height="25" rx="7"/><text class="i" x="207" y="742">»</text><a xlink:href="#boolean"><rect class="r" x="235" y="725" width="71" height="25"/><text class="i" x="245" y="742">boolean</text></a><rect class="l" x="25" y="785" width="91" height="25" rx="7"/><text class="i" x="35" y="802">notEqualTo</text><rect class="l" x="126" y="785" width="25" height="25" rx="7"/><text class="i" x="136" y="802">(</text><a xlink:href="#value"><rect class="r" x="161" y="785" width="54" height="25"/><text class="i" x="171" y="802">value</text></a><rect class="l" x="225" y="785" width="24" height="25" rx="7"/><text class="i" x="235" y="802">,</text><rect class="l" x="294" y="755" width="24" height="25" rx="7"/><text class="i" x="304" y="772">,</text><a xlink:href="#value"><rect class="r" x="279" y="785" width="54" height="25"/><text class="i" x="289" y="802">value</text></a><rect class="l" x="363" y="785" width="25" height="25" rx="7"/><text class="i" x="373" y="802">)</text><rect class="l" x="398" y="785" width="28" height="25" rx="7"/><text class="i" x="408" y="802">»</text><a xlink:href="#boolean"><rect class="r" x="436" y="785" width="71" height="25"/><text class="i" x="446" y="802">boolean</text></a><a xlink:href="#set"><rect class="r" x="45" y="815" width="40" height="25"/><text class="i" x="55" y="832">set</text></a><a xlink:href="#vector"><rect class="r" x="45" y="845" width="59" height="25"/><text class="i" x="55" y="862">vector</text></a><rect class="l" x="134" y="815" width="24" height="25" rx="7"/><text class="i" x="144" y="832">.</text><rect class="l" x="168" y="815" width="55" height="25" rx="7"/><text class="i" x="178" y="832">sort()</text><rect class="l" x="233" y="815" width="28" height="25" rx="7"/><text class="i" x="243" y="832">»</text><a xlink:href="#vector"><rect class="r" x="271" y="815" width="59" height="25"/><text class="i" x="281" y="832">vector</text></a><rect class="l" x="25" y="875" width="60" height="25" rx="7"/><text class="i" x="35" y="892">sortBy</text><rect class="l" x="95" y="875" width="25" height="25" rx="7"/><text class="i" x="105" y="892">(</text><a xlink:href="#symbol:element"><rect class="r" x="130" y="875" width="120" height="25"/><text class="i" x="140" y="892">symbol:element</text></a><rect class="l" x="260" y="875" width="31" height="25" rx="7"/><text class="i" x="270" y="892">in</text><a xlink:href="#set"><rect class="r" x="321" y="875" width="40" height="25"/><text class="i" x="331" y="892">set</text></a><a xlink:href="#vector"><rect class="r" x="321" y="905" width="59" height="25"/><text class="i" x="331" y="922">vector</text></a><rect class="l" x="410" y="875" width="25" height="25" rx="7"/><text class="i" x="420" y="892">)</text><a xlink:href="#integer-expression"><rect class="r" x="465" y="875" width="139" height="25"/><text class="i" x="475" y="892">integer-expression</text></a><a xlink:href="#fixed-decimal-expression"><rect class="r" x="465" y="905" width="176" height="25"/><text class="i" x="475" y="922">fixed-decimal-expression</text></a><rect class="l" x="671" y="875" width="28" height="25" rx="7"/><text class="i" x="681" y="892">»</text><a xlink:href="#vector"><rect class="r" x="709" y="875" width="59" height="25"/><text class="i" x="719" y="892">vector</text></a><a xlink:href="#set"><rect class="r" x="25" y="935" width="40" height="25"/><text class="i" x="35" y="952">set</text></a><rect class="l" x="75" y="935" width="24" height="25" rx="7"/><text class="i" x="85" y="952">.</text><rect class="l" x="109" y="935" width="70" height="25" rx="7"/><text class="i" x="119" y="952">subset?</text><rect class="l" x="189" y="935" width="25" height="25" rx="7"/><text class="i" x="199" y="952">(</text><a xlink:href="#set"><rect class="r" x="224" y="935" width="40" height="25"/><text class="i" x="234" y="952">set</text></a><rect class="l" x="274" y="935" width="25" height="25" rx="7"/><text class="i" x="284" y="952">)</text><rect class="l" x="309" y="935" width="28" height="25" rx="7"/><text class="i" x="319" y="952">»</text><a xlink:href="#boolean"><rect class="r" x="347" y="935" width="71" height="25"/><text class="i" x="357" y="952">boolean</text></a><a xlink:href="#set"><rect class="r" x="25" y="995" width="40" height="25"/><text class="i" x="35" y="1012">set</text></a><rect class="l" x="75" y="995" width="24" height="25" rx="7"/><text class="i" x="85" y="1012">.</text><rect class="l" x="109" y="995" width="55" height="25" rx="7"/><text class="i" x="119" y="1012">union</text><rect class="l" x="174" y="995" width="25" height="25" rx="7"/><text class="i" x="184" y="1012">(</text><rect class="l" x="237" y="965" width="24" height="25" rx="7"/><text class="i" x="247" y="982">,</text><a xlink:href="#set"><rect class="r" x="229" y="995" width="40" height="25"/><text class="i" x="239" y="1012">set</text></a><rect class="l" x="299" y="995" width="25" height="25" rx="7"/><text class="i" x="309" y="1012">)</text><rect class="l" x="334" y="995" width="28" height="25" rx="7"/><text class="i" x="344" y="1012">»</text><a xlink:href="#set"><rect class="r" x="372" y="995" width="40" height="25"/><text class="i" x="382" y="1012">set</text></a></svg>