<!--
RULE = (('(''concat'  ( ( vector vector')' '»' vector ) |
( (set (set | vector))')' '»' set ) ) ) |
('(''conj'  ( ( set value {value}')' '»' set ) |
( vector value {value}')' '»' vector ) ) ) |
('(''difference'  ( ( set set')' '»' set ) ) ) |
('(''filter'  ( ( '[' symbol:element set ']' boolean-expression')' '»' set ) |
( '[' symbol:element vector ']' boolean-expression')' '»' vector ) ) ) |
('(''intersection'  ( ( set set {set}')' '»' set ) ) ) |
('(''map'  ( ( '[' symbol:element set ']' value-expression')' '»' set ) |
( '[' symbol:element vector ']' value-expression')' '»' vector ) ) ) |
('(''union'  ( ( set set {set}')' '»' set ) ) ));
-->
<svg version="1.1" xmlns:xlink="http://www.w3.org/1999/xlink" xmlns="http://www.w3.org/2000/svg" width="739" height="425" viewbox="0 0 739 425"><defs><style type="text/css">.c{fill: none; stroke: #888888; stroke-width: 2px;}.j{fill:#000000;font-family:Verdana,Sans-serif;font-size:12px;}.l{fill:#90d9ff;stroke:#222222;}.r{fill:#d3f0ff;stroke:#222222;}</style></defs><path class="c" d="M0 18h25m25 0h10m61 0h30m59 0h10m59 0h10m25 0h10m28 0h10m59 0h22m-307 0q5 0 5 5v20q0 5 5 5h5m40 0h30m40 0h39m-94 0q5 0 5 5v20q0 5 5 5h5m59 0h5q5 0 5-5v-20q0-5 5-5m5 0h10m25 0h10m28 0h10m40 0h5q5 0 5-5v-20q0-5 5-5m5 0h291m-719 100q0 5 5 5h5m25 0h10m46 0h30m40 0h30m-5 0q-5 0-5-5v-17q0-5 5-5h64q5 0 5 5v17q0 5-5 5m-5 0h30m25 0h10m28 0h10m40 0h58m-340 0q5 0 5 5v35q0 5 5 5h5m59 0h30m-5 0q-5 0-5-5v-17q0-5 5-5h64q5 0 5 5v17q0 5-5 5m-5 0h30m25 0h10m28 0h10m59 0h5q5 0 5-5v-35q0-5 5-5m5 0h258q5 0 5-5m-709 75q0 5 5 5h5m25 0h10m82 0h10m40 0h10m40 0h10m25 0h10m28 0h10m40 0h354q5 0 5-5m-709 30q0 5 5 5h5m25 0h10m48 0h30m25 0h10m120 0h10m40 0h10m25 0h10m145 0h10m25 0h10m28 0h10m40 0h58m-591 0q5 0 5 5v20q0 5 5 5h5m25 0h10m120 0h10m59 0h10m25 0h10m145 0h10m25 0h10m28 0h10m59 0h5q5 0 5-5v-20q0-5 5-5m5 0h5q5 0 5-5m-709 75q0 5 5 5h5m25 0h10m94 0h10m40 0h30m-5 0q-5 0-5-5v-17q0-5 5-5h50q5 0 5 5v17q0 5-5 5m-5 0h30m25 0h10m28 0h10m40 0h302q5 0 5-5m-709 30q0 5 5 5h5m25 0h10m47 0h30m25 0h10m120 0h10m40 0h10m25 0h10m128 0h10m25 0h10m28 0h10m40 0h58m-574 0q5 0 5 5v20q0 5 5 5h5m25 0h10m120 0h10m59 0h10m25 0h10m128 0h10m25 0h10m28 0h10m59 0h5q5 0 5-5v-20q0-5 5-5m5 0h23q5 0 5-5m-714-310q5 0 5 5v380q0 5 5 5h5m25 0h10m55 0h10m40 0h30m-5 0q-5 0-5-5v-17q0-5 5-5h50q5 0 5 5v17q0 5-5 5m-5 0h30m25 0h10m28 0h10m40 0h341q5 0 5-5v-380q0-5 5-5m5 0h5"/><rect class="l" x="25" y="5" width="25" height="25" rx="7"/><text class="j" x="35" y="22">(</text><rect class="l" x="60" y="5" width="61" height="25" rx="7"/><text class="j" x="70" y="22">concat</text><a xlink:href="#vector"><rect class="r" x="151" y="5" width="59" height="25"/><text class="j" x="161" y="22">vector</text></a><a xlink:href="#vector"><rect class="r" x="220" y="5" width="59" height="25"/><text class="j" x="230" y="22">vector</text></a><rect class="l" x="289" y="5" width="25" height="25" rx="7"/><text class="j" x="299" y="22">)</text><rect class="l" x="324" y="5" width="28" height="25" rx="7"/><text class="j" x="334" y="22">»</text><a xlink:href="#vector"><rect class="r" x="362" y="5" width="59" height="25"/><text class="j" x="372" y="22">vector</text></a><a xlink:href="#set"><rect class="r" x="151" y="35" width="40" height="25"/><text class="j" x="161" y="52">set</text></a><a xlink:href="#set"><rect class="r" x="221" y="35" width="40" height="25"/><text class="j" x="231" y="52">set</text></a><a xlink:href="#vector"><rect class="r" x="221" y="65" width="59" height="25"/><text class="j" x="231" y="82">vector</text></a><rect class="l" x="310" y="35" width="25" height="25" rx="7"/><text class="j" x="320" y="52">)</text><rect class="l" x="345" y="35" width="28" height="25" rx="7"/><text class="j" x="355" y="52">»</text><a xlink:href="#set"><rect class="r" x="383" y="35" width="40" height="25"/><text class="j" x="393" y="52">set</text></a><rect class="l" x="25" y="110" width="25" height="25" rx="7"/><text class="j" x="35" y="127">(</text><rect class="l" x="60" y="110" width="46" height="25" rx="7"/><text class="j" x="70" y="127">conj</text><a xlink:href="#set"><rect class="r" x="136" y="110" width="40" height="25"/><text class="j" x="146" y="127">set</text></a><a xlink:href="#value"><rect class="r" x="206" y="110" width="54" height="25"/><text class="j" x="216" y="127">value</text></a><rect class="l" x="290" y="110" width="25" height="25" rx="7"/><text class="j" x="300" y="127">)</text><rect class="l" x="325" y="110" width="28" height="25" rx="7"/><text class="j" x="335" y="127">»</text><a xlink:href="#set"><rect class="r" x="363" y="110" width="40" height="25"/><text class="j" x="373" y="127">set</text></a><a xlink:href="#vector"><rect class="r" x="136" y="155" width="59" height="25"/><text class="j" x="146" y="172">vector</text></a><a xlink:href="#value"><rect class="r" x="225" y="155" width="54" height="25"/><text class="j" x="235" y="172">value</text></a><rect class="l" x="309" y="155" width="25" height="25" rx="7"/><text class="j" x="319" y="172">)</text><rect class="l" x="344" y="155" width="28" height="25" rx="7"/><text class="j" x="354" y="172">»</text><a xlink:href="#vector"><rect class="r" x="382" y="155" width="59" height="25"/><text class="j" x="392" y="172">vector</text></a><rect class="l" x="25" y="185" width="25" height="25" rx="7"/><text class="j" x="35" y="202">(</text><rect class="l" x="60" y="185" width="82" height="25" rx="7"/><text class="j" x="70" y="202">difference</text><a xlink:href="#set"><rect class="r" x="152" y="185" width="40" height="25"/><text class="j" x="162" y="202">set</text></a><a xlink:href="#set"><rect class="r" x="202" y="185" width="40" height="25"/><text class="j" x="212" y="202">set</text></a><rect class="l" x="252" y="185" width="25" height="25" rx="7"/><text class="j" x="262" y="202">)</text><rect class="l" x="287" y="185" width="28" height="25" rx="7"/><text class="j" x="297" y="202">»</text><a xlink:href="#set"><rect class="r" x="325" y="185" width="40" height="25"/><text class="j" x="335" y="202">set</text></a><rect class="l" x="25" y="215" width="25" height="25" rx="7"/><text class="j" x="35" y="232">(</text><rect class="l" x="60" y="215" width="48" height="25" rx="7"/><text class="j" x="70" y="232">filter</text><rect class="l" x="138" y="215" width="25" height="25" rx="7"/><text class="j" x="148" y="232">[</text><a xlink:href="#symbol:element"><rect class="r" x="173" y="215" width="120" height="25"/><text class="j" x="183" y="232">symbol:element</text></a><a xlink:href="#set"><rect class="r" x="303" y="215" width="40" height="25"/><text class="j" x="313" y="232">set</text></a><rect class="l" x="353" y="215" width="25" height="25" rx="7"/><text class="j" x="363" y="232">]</text><a xlink:href="#boolean-expression"><rect class="r" x="388" y="215" width="145" height="25"/><text class="j" x="398" y="232">boolean-expression</text></a><rect class="l" x="543" y="215" width="25" height="25" rx="7"/><text class="j" x="553" y="232">)</text><rect class="l" x="578" y="215" width="28" height="25" rx="7"/><text class="j" x="588" y="232">»</text><a xlink:href="#set"><rect class="r" x="616" y="215" width="40" height="25"/><text class="j" x="626" y="232">set</text></a><rect class="l" x="138" y="245" width="25" height="25" rx="7"/><text class="j" x="148" y="262">[</text><a xlink:href="#symbol:element"><rect class="r" x="173" y="245" width="120" height="25"/><text class="j" x="183" y="262">symbol:element</text></a><a xlink:href="#vector"><rect class="r" x="303" y="245" width="59" height="25"/><text class="j" x="313" y="262">vector</text></a><rect class="l" x="372" y="245" width="25" height="25" rx="7"/><text class="j" x="382" y="262">]</text><a xlink:href="#boolean-expression"><rect class="r" x="407" y="245" width="145" height="25"/><text class="j" x="417" y="262">boolean-expression</text></a><rect class="l" x="562" y="245" width="25" height="25" rx="7"/><text class="j" x="572" y="262">)</text><rect class="l" x="597" y="245" width="28" height="25" rx="7"/><text class="j" x="607" y="262">»</text><a xlink:href="#vector"><rect class="r" x="635" y="245" width="59" height="25"/><text class="j" x="645" y="262">vector</text></a><rect class="l" x="25" y="290" width="25" height="25" rx="7"/><text class="j" x="35" y="307">(</text><rect class="l" x="60" y="290" width="94" height="25" rx="7"/><text class="j" x="70" y="307">intersection</text><a xlink:href="#set"><rect class="r" x="164" y="290" width="40" height="25"/><text class="j" x="174" y="307">set</text></a><a xlink:href="#set"><rect class="r" x="234" y="290" width="40" height="25"/><text class="j" x="244" y="307">set</text></a><rect class="l" x="304" y="290" width="25" height="25" rx="7"/><text class="j" x="314" y="307">)</text><rect class="l" x="339" y="290" width="28" height="25" rx="7"/><text class="j" x="349" y="307">»</text><a xlink:href="#set"><rect class="r" x="377" y="290" width="40" height="25"/><text class="j" x="387" y="307">set</text></a><rect class="l" x="25" y="320" width="25" height="25" rx="7"/><text class="j" x="35" y="337">(</text><rect class="l" x="60" y="320" width="47" height="25" rx="7"/><text class="j" x="70" y="337">map</text><rect class="l" x="137" y="320" width="25" height="25" rx="7"/><text class="j" x="147" y="337">[</text><a xlink:href="#symbol:element"><rect class="r" x="172" y="320" width="120" height="25"/><text class="j" x="182" y="337">symbol:element</text></a><a xlink:href="#set"><rect class="r" x="302" y="320" width="40" height="25"/><text class="j" x="312" y="337">set</text></a><rect class="l" x="352" y="320" width="25" height="25" rx="7"/><text class="j" x="362" y="337">]</text><a xlink:href="#value-expression"><rect class="r" x="387" y="320" width="128" height="25"/><text class="j" x="397" y="337">value-expression</text></a><rect class="l" x="525" y="320" width="25" height="25" rx="7"/><text class="j" x="535" y="337">)</text><rect class="l" x="560" y="320" width="28" height="25" rx="7"/><text class="j" x="570" y="337">»</text><a xlink:href="#set"><rect class="r" x="598" y="320" width="40" height="25"/><text class="j" x="608" y="337">set</text></a><rect class="l" x="137" y="350" width="25" height="25" rx="7"/><text class="j" x="147" y="367">[</text><a xlink:href="#symbol:element"><rect class="r" x="172" y="350" width="120" height="25"/><text class="j" x="182" y="367">symbol:element</text></a><a xlink:href="#vector"><rect class="r" x="302" y="350" width="59" height="25"/><text class="j" x="312" y="367">vector</text></a><rect class="l" x="371" y="350" width="25" height="25" rx="7"/><text class="j" x="381" y="367">]</text><a xlink:href="#value-expression"><rect class="r" x="406" y="350" width="128" height="25"/><text class="j" x="416" y="367">value-expression</text></a><rect class="l" x="544" y="350" width="25" height="25" rx="7"/><text class="j" x="554" y="367">)</text><rect class="l" x="579" y="350" width="28" height="25" rx="7"/><text class="j" x="589" y="367">»</text><a xlink:href="#vector"><rect class="r" x="617" y="350" width="59" height="25"/><text class="j" x="627" y="367">vector</text></a><rect class="l" x="25" y="395" width="25" height="25" rx="7"/><text class="j" x="35" y="412">(</text><rect class="l" x="60" y="395" width="55" height="25" rx="7"/><text class="j" x="70" y="412">union</text><a xlink:href="#set"><rect class="r" x="125" y="395" width="40" height="25"/><text class="j" x="135" y="412">set</text></a><a xlink:href="#set"><rect class="r" x="195" y="395" width="40" height="25"/><text class="j" x="205" y="412">set</text></a><rect class="l" x="265" y="395" width="25" height="25" rx="7"/><text class="j" x="275" y="412">)</text><rect class="l" x="300" y="395" width="28" height="25" rx="7"/><text class="j" x="310" y="412">»</text><a xlink:href="#set"><rect class="r" x="338" y="395" width="40" height="25"/><text class="j" x="348" y="412">set</text></a></svg>