<svg version="1.1" xmlns:xlink="http://www.w3.org/1999/xlink" xmlns="http://www.w3.org/2000/svg" width="635" height="485" viewbox="0 0 635 485"><defs><style type="text/css">.c{fill: none; stroke: #888888; stroke-width: 2px;}.i{fill:#000000;font-family:Verdana,Sans-serif;font-size:12px;}.l{fill:#90d9ff;stroke:#222222;}.r{fill:#d3f0ff;stroke:#222222;}</style></defs><path class="c" d="M0 18h25m57 0h10m24 0h10m59 0h10m25 0h10m57 0h10m25 0h10m28 0h10m57 0h203m-615 25q0 5 5 5h5m38 0h10m24 0h10m59 0h10m25 0h30m38 0h39m-92 0q5 0 5 5v20q0 5 5 5h5m57 0h5q5 0 5-5v-20q0-5 5-5m5 0h10m25 0h10m28 0h10m38 0h186q5 0 5-5m-605 90q0 5 5 5h5m38 0h10m24 0h10m45 0h10m25 0h30m-5 0q-5 0-5-5v-20q0-5 5-5h19m24 0h19q5 0 5 5v20q0 5-5 5m-5 0h30m25 0h10m28 0h10m38 0h205q5 0 5-5m-605 60q0 5 5 5h5m57 0h10m24 0h10m45 0h10m25 0h30m-5 0q-5 0-5-5v-20q0-5 5-5h19m24 0h19q5 0 5 5v20q0 5-5 5m-5 0h30m25 0h10m28 0h10m57 0h167q5 0 5-5m-605 30q0 5 5 5h5m38 0h10m24 0h10m78 0h10m25 0h10m38 0h10m25 0h10m28 0h10m38 0h226q5 0 5-5m-605 30q0 5 5 5h5m47 0h10m25 0h10m62 0h10m31 0h10m38 0h10m25 0h10m134 0h10m28 0h10m38 0h82q5 0 5-5m-605 30q0 5 5 5h5m47 0h10m25 0h10m62 0h10m31 0h10m57 0h10m25 0h10m134 0h10m28 0h10m57 0h44q5 0 5-5m-605 60q0 5 5 5h5m38 0h10m24 0h10m90 0h10m25 0h30m-5 0q-5 0-5-5v-20q0-5 5-5h12m24 0h12q5 0 5 5v20q0 5-5 5m-5 0h30m25 0h10m28 0h10m38 0h174q5 0 5-5m-605 30q0 5 5 5h5m46 0h10m25 0h10m116 0h10m31 0h10m38 0h10m25 0h10m120 0h10m28 0h10m38 0h43q5 0 5-5m-605 30q0 5 5 5h5m46 0h10m25 0h10m116 0h10m31 0h10m57 0h10m25 0h10m120 0h10m28 0h10m57 0h5q5 0 5-5m-610-385q5 0 5 5v440q0 5 5 5h5m38 0h10m24 0h10m54 0h10m25 0h30m-5 0q-5 0-5-5v-20q0-5 5-5h12m24 0h12q5 0 5 5v20q0 5-5 5m-5 0h30m25 0h10m28 0h10m38 0h210q5 0 5-5v-440q0-5 5-5m5 0h5"/><a xlink:href="#vector"><rect class="r" x="25" y="5" width="57" height="25"/><text class="i" x="35" y="22">vector</text></a><rect class="l" x="92" y="5" width="24" height="25" rx="7"/><text class="i" x="102" y="22">.</text><rect class="l" x="126" y="5" width="59" height="25" rx="7"/><text class="i" x="136" y="22">concat</text><rect class="l" x="195" y="5" width="25" height="25" rx="7"/><text class="i" x="205" y="22">(</text><a xlink:href="#vector"><rect class="r" x="230" y="5" width="57" height="25"/><text class="i" x="240" y="22">vector</text></a><rect class="l" x="297" y="5" width="25" height="25" rx="7"/><text class="i" x="307" y="22">)</text><rect class="l" x="332" y="5" width="28" height="25" rx="7"/><text class="i" x="342" y="22">»</text><a xlink:href="#vector"><rect class="r" x="370" y="5" width="57" height="25"/><text class="i" x="380" y="22">vector</text></a><a xlink:href="#set"><rect class="r" x="25" y="35" width="38" height="25"/><text class="i" x="35" y="52">set</text></a><rect class="l" x="73" y="35" width="24" height="25" rx="7"/><text class="i" x="83" y="52">.</text><rect class="l" x="107" y="35" width="59" height="25" rx="7"/><text class="i" x="117" y="52">concat</text><rect class="l" x="176" y="35" width="25" height="25" rx="7"/><text class="i" x="186" y="52">(</text><a xlink:href="#set"><rect class="r" x="231" y="35" width="38" height="25"/><text class="i" x="241" y="52">set</text></a><a xlink:href="#vector"><rect class="r" x="231" y="65" width="57" height="25"/><text class="i" x="241" y="82">vector</text></a><rect class="l" x="318" y="35" width="25" height="25" rx="7"/><text class="i" x="328" y="52">)</text><rect class="l" x="353" y="35" width="28" height="25" rx="7"/><text class="i" x="363" y="52">»</text><a xlink:href="#set"><rect class="r" x="391" y="35" width="38" height="25"/><text class="i" x="401" y="52">set</text></a><a xlink:href="#set"><rect class="r" x="25" y="125" width="38" height="25"/><text class="i" x="35" y="142">set</text></a><rect class="l" x="73" y="125" width="24" height="25" rx="7"/><text class="i" x="83" y="142">.</text><rect class="l" x="107" y="125" width="45" height="25" rx="7"/><text class="i" x="117" y="142">conj</text><rect class="l" x="162" y="125" width="25" height="25" rx="7"/><text class="i" x="172" y="142">(</text><rect class="l" x="231" y="95" width="24" height="25" rx="7"/><text class="i" x="241" y="112">,</text><a xlink:href="#value"><rect class="r" x="217" y="125" width="52" height="25"/><text class="i" x="227" y="142">value</text></a><rect class="l" x="299" y="125" width="25" height="25" rx="7"/><text class="i" x="309" y="142">)</text><rect class="l" x="334" y="125" width="28" height="25" rx="7"/><text class="i" x="344" y="142">»</text><a xlink:href="#set"><rect class="r" x="372" y="125" width="38" height="25"/><text class="i" x="382" y="142">set</text></a><a xlink:href="#vector"><rect class="r" x="25" y="185" width="57" height="25"/><text class="i" x="35" y="202">vector</text></a><rect class="l" x="92" y="185" width="24" height="25" rx="7"/><text class="i" x="102" y="202">.</text><rect class="l" x="126" y="185" width="45" height="25" rx="7"/><text class="i" x="136" y="202">conj</text><rect class="l" x="181" y="185" width="25" height="25" rx="7"/><text class="i" x="191" y="202">(</text><rect class="l" x="250" y="155" width="24" height="25" rx="7"/><text class="i" x="260" y="172">,</text><a xlink:href="#value"><rect class="r" x="236" y="185" width="52" height="25"/><text class="i" x="246" y="202">value</text></a><rect class="l" x="318" y="185" width="25" height="25" rx="7"/><text class="i" x="328" y="202">)</text><rect class="l" x="353" y="185" width="28" height="25" rx="7"/><text class="i" x="363" y="202">»</text><a xlink:href="#vector"><rect class="r" x="391" y="185" width="57" height="25"/><text class="i" x="401" y="202">vector</text></a><a xlink:href="#set"><rect class="r" x="25" y="215" width="38" height="25"/><text class="i" x="35" y="232">set</text></a><rect class="l" x="73" y="215" width="24" height="25" rx="7"/><text class="i" x="83" y="232">.</text><rect class="l" x="107" y="215" width="78" height="25" rx="7"/><text class="i" x="117" y="232">difference</text><rect class="l" x="195" y="215" width="25" height="25" rx="7"/><text class="i" x="205" y="232">(</text><a xlink:href="#set"><rect class="r" x="230" y="215" width="38" height="25"/><text class="i" x="240" y="232">set</text></a><rect class="l" x="278" y="215" width="25" height="25" rx="7"/><text class="i" x="288" y="232">)</text><rect class="l" x="313" y="215" width="28" height="25" rx="7"/><text class="i" x="323" y="232">»</text><a xlink:href="#set"><rect class="r" x="351" y="215" width="38" height="25"/><text class="i" x="361" y="232">set</text></a><rect class="l" x="25" y="245" width="47" height="25" rx="7"/><text class="i" x="35" y="262">filter</text><rect class="l" x="82" y="245" width="25" height="25" rx="7"/><text class="i" x="92" y="262">(</text><a xlink:href="#symbol"><rect class="r" x="117" y="245" width="62" height="25"/><text class="i" x="127" y="262">symbol</text></a><rect class="l" x="189" y="245" width="31" height="25" rx="7"/><text class="i" x="199" y="262">in</text><a xlink:href="#set"><rect class="r" x="230" y="245" width="38" height="25"/><text class="i" x="240" y="262">set</text></a><rect class="l" x="278" y="245" width="25" height="25" rx="7"/><text class="i" x="288" y="262">)</text><a xlink:href="#boolean-expression"><rect class="r" x="313" y="245" width="134" height="25"/><text class="i" x="323" y="262">boolean-expression</text></a><rect class="l" x="457" y="245" width="28" height="25" rx="7"/><text class="i" x="467" y="262">»</text><a xlink:href="#set"><rect class="r" x="495" y="245" width="38" height="25"/><text class="i" x="505" y="262">set</text></a><rect class="l" x="25" y="275" width="47" height="25" rx="7"/><text class="i" x="35" y="292">filter</text><rect class="l" x="82" y="275" width="25" height="25" rx="7"/><text class="i" x="92" y="292">(</text><a xlink:href="#symbol"><rect class="r" x="117" y="275" width="62" height="25"/><text class="i" x="127" y="292">symbol</text></a><rect class="l" x="189" y="275" width="31" height="25" rx="7"/><text class="i" x="199" y="292">in</text><a xlink:href="#vector"><rect class="r" x="230" y="275" width="57" height="25"/><text class="i" x="240" y="292">vector</text></a><rect class="l" x="297" y="275" width="25" height="25" rx="7"/><text class="i" x="307" y="292">)</text><a xlink:href="#boolean-expression"><rect class="r" x="332" y="275" width="134" height="25"/><text class="i" x="342" y="292">boolean-expression</text></a><rect class="l" x="476" y="275" width="28" height="25" rx="7"/><text class="i" x="486" y="292">»</text><a xlink:href="#vector"><rect class="r" x="514" y="275" width="57" height="25"/><text class="i" x="524" y="292">vector</text></a><a xlink:href="#set"><rect class="r" x="25" y="335" width="38" height="25"/><text class="i" x="35" y="352">set</text></a><rect class="l" x="73" y="335" width="24" height="25" rx="7"/><text class="i" x="83" y="352">.</text><rect class="l" x="107" y="335" width="90" height="25" rx="7"/><text class="i" x="117" y="352">intersection</text><rect class="l" x="207" y="335" width="25" height="25" rx="7"/><text class="i" x="217" y="352">(</text><rect class="l" x="269" y="305" width="24" height="25" rx="7"/><text class="i" x="279" y="322">,</text><a xlink:href="#set"><rect class="r" x="262" y="335" width="38" height="25"/><text class="i" x="272" y="352">set</text></a><rect class="l" x="330" y="335" width="25" height="25" rx="7"/><text class="i" x="340" y="352">)</text><rect class="l" x="365" y="335" width="28" height="25" rx="7"/><text class="i" x="375" y="352">»</text><a xlink:href="#set"><rect class="r" x="403" y="335" width="38" height="25"/><text class="i" x="413" y="352">set</text></a><rect class="l" x="25" y="365" width="46" height="25" rx="7"/><text class="i" x="35" y="382">map</text><rect class="l" x="81" y="365" width="25" height="25" rx="7"/><text class="i" x="91" y="382">(</text><a xlink:href="#symbol:element"><rect class="r" x="116" y="365" width="116" height="25"/><text class="i" x="126" y="382">symbol:element</text></a><rect class="l" x="242" y="365" width="31" height="25" rx="7"/><text class="i" x="252" y="382">in</text><a xlink:href="#set"><rect class="r" x="283" y="365" width="38" height="25"/><text class="i" x="293" y="382">set</text></a><rect class="l" x="331" y="365" width="25" height="25" rx="7"/><text class="i" x="341" y="382">)</text><a xlink:href="#value-expression"><rect class="r" x="366" y="365" width="120" height="25"/><text class="i" x="376" y="382">value-expression</text></a><rect class="l" x="496" y="365" width="28" height="25" rx="7"/><text class="i" x="506" y="382">»</text><a xlink:href="#set"><rect class="r" x="534" y="365" width="38" height="25"/><text class="i" x="544" y="382">set</text></a><rect class="l" x="25" y="395" width="46" height="25" rx="7"/><text class="i" x="35" y="412">map</text><rect class="l" x="81" y="395" width="25" height="25" rx="7"/><text class="i" x="91" y="412">(</text><a xlink:href="#symbol:element"><rect class="r" x="116" y="395" width="116" height="25"/><text class="i" x="126" y="412">symbol:element</text></a><rect class="l" x="242" y="395" width="31" height="25" rx="7"/><text class="i" x="252" y="412">in</text><a xlink:href="#vector"><rect class="r" x="283" y="395" width="57" height="25"/><text class="i" x="293" y="412">vector</text></a><rect class="l" x="350" y="395" width="25" height="25" rx="7"/><text class="i" x="360" y="412">)</text><a xlink:href="#value-expression"><rect class="r" x="385" y="395" width="120" height="25"/><text class="i" x="395" y="412">value-expression</text></a><rect class="l" x="515" y="395" width="28" height="25" rx="7"/><text class="i" x="525" y="412">»</text><a xlink:href="#vector"><rect class="r" x="553" y="395" width="57" height="25"/><text class="i" x="563" y="412">vector</text></a><a xlink:href="#set"><rect class="r" x="25" y="455" width="38" height="25"/><text class="i" x="35" y="472">set</text></a><rect class="l" x="73" y="455" width="24" height="25" rx="7"/><text class="i" x="83" y="472">.</text><rect class="l" x="107" y="455" width="54" height="25" rx="7"/><text class="i" x="117" y="472">union</text><rect class="l" x="171" y="455" width="25" height="25" rx="7"/><text class="i" x="181" y="472">(</text><rect class="l" x="233" y="425" width="24" height="25" rx="7"/><text class="i" x="243" y="442">,</text><a xlink:href="#set"><rect class="r" x="226" y="455" width="38" height="25"/><text class="i" x="236" y="472">set</text></a><rect class="l" x="294" y="455" width="25" height="25" rx="7"/><text class="i" x="304" y="472">)</text><rect class="l" x="329" y="455" width="28" height="25" rx="7"/><text class="i" x="339" y="472">»</text><a xlink:href="#set"><rect class="r" x="367" y="455" width="38" height="25"/><text class="i" x="377" y="472">set</text></a></svg>