<svg version="1.1" xmlns:xlink="http://www.w3.org/1999/xlink" xmlns="http://www.w3.org/2000/svg" width="806" height="875" viewbox="0 0 806 875"><defs><style type="text/css">.c{fill: none; stroke: #888888; stroke-width: 2px;}.j{fill:#000000;font-family:Verdana,Sans-serif;font-size:12px;}.l{fill:#90d9ff;stroke:#222222;}.r{fill:#d3f0ff;stroke:#222222;}</style></defs><path class="c" d="M0 33h25m25 0h10m30 0h10m52 0h30m-5 0q-5 0-5-5v-17q0-5 5-5h62q5 0 5 5v17q0 5-5 5m-5 0h30m25 0h10m28 0h10m66 0h398m-786 25q0 5 5 5h5m25 0h10m49 0h10m25 0h10m62 0h30m38 0h39m-92 0q5 0 5 5v20q0 5 5 5h5m57 0h5q5 0 5-5v-20q0-5 5-5m5 0h10m25 0h10m134 0h10m25 0h10m28 0h10m66 0h135q5 0 5-5m-776 60q0 5 5 5h5m25 0h10m59 0h30m57 0h10m57 0h10m25 0h10m28 0h10m57 0h22m-301 0q5 0 5 5v20q0 5 5 5h5m38 0h30m38 0h39m-92 0q5 0 5 5v20q0 5 5 5h5m57 0h5q5 0 5-5v-20q0-5 5-5m5 0h10m25 0h10m28 0h10m38 0h5q5 0 5-5v-20q0-5 5-5m5 0h351q5 0 5-5m-776 105q0 5 5 5h5m25 0h10m45 0h30m38 0h30m-5 0q-5 0-5-5v-17q0-5 5-5h62q5 0 5 5v17q0 5-5 5m-5 0h30m25 0h10m28 0h10m38 0h58m-334 0q5 0 5 5v35q0 5 5 5h5m57 0h30m-5 0q-5 0-5-5v-17q0-5 5-5h62q5 0 5 5v17q0 5-5 5m-5 0h30m25 0h10m28 0h10m57 0h5q5 0 5-5v-35q0-5 5-5m5 0h332q5 0 5-5m-776 75q0 5 5 5h5m25 0h10m77 0h10m38 0h10m52 0h10m25 0h10m28 0h10m66 0h390q5 0 5-5m-776 30q0 5 5 5h5m25 0h10m54 0h30m38 0h39m-92 0q5 0 5 5v20q0 5 5 5h5m57 0h5q5 0 5-5v-20q0-5 5-5m5 0h10m25 0h10m28 0h10m62 0h420q5 0 5-5m-776 60q0 5 5 5h5m25 0h10m78 0h10m38 0h10m38 0h10m25 0h10m28 0h10m38 0h431q5 0 5-5m-776 30q0 5 5 5h5m25 0h10m60 0h10m25 0h10m62 0h30m38 0h39m-92 0q5 0 5 5v20q0 5 5 5h5m57 0h5q5 0 5-5v-20q0-5 5-5m5 0h10m25 0h10m134 0h10m25 0h10m28 0h10m66 0h124q5 0 5-5m-776 60q0 5 5 5h5m25 0h10m47 0h30m25 0h10m116 0h10m38 0h10m25 0h10m134 0h10m25 0h10m28 0h10m38 0h58m-572 0q5 0 5 5v20q0 5 5 5h5m25 0h10m116 0h10m57 0h10m25 0h10m134 0h10m25 0h10m28 0h10m57 0h5q5 0 5-5v-20q0-5 5-5m5 0h92q5 0 5-5m-776 75q0 5 5 5h5m25 0h10m90 0h10m38 0h30m-5 0q-5 0-5-5v-17q0-5 5-5h48q5 0 5 5v17q0 5-5 5m-5 0h30m25 0h10m28 0h10m38 0h379q5 0 5-5m-776 30q0 5 5 5h5m25 0h10m46 0h30m25 0h10m116 0h10m38 0h10m25 0h10m120 0h10m25 0h10m28 0h10m38 0h58m-558 0q5 0 5 5v20q0 5 5 5h5m25 0h10m116 0h10m57 0h10m25 0h10m120 0h10m25 0h10m28 0h10m57 0h5q5 0 5-5v-20q0-5 5-5m5 0h107q5 0 5-5m-776 75q0 5 5 5h5m25 0h10m50 0h10m52 0h30m-5 0q-5 0-5-5v-17q0-5 5-5h62q5 0 5 5v17q0 5-5 5m-5 0h30m25 0h10m28 0h10m66 0h363q5 0 5-5m-776 30q0 5 5 5h5m25 0h10m43 0h30m38 0h39m-92 0q5 0 5 5v20q0 5 5 5h5m57 0h5q5 0 5-5v-20q0-5 5-5m5 0h10m25 0h10m28 0h10m57 0h436q5 0 5-5m-776 60q0 5 5 5h5m25 0h10m62 0h10m25 0h10m116 0h30m38 0h39m-92 0q5 0 5 5v20q0 5 5 5h5m57 0h5q5 0 5-5v-20q0-5 5-5m5 0h10m25 0h30m130 0h56m-201 0q5 0 5 5v20q0 5 5 5h5m166 0h5q5 0 5-5v-20q0-5 5-5m5 0h10m25 0h10m28 0h10m57 0h5q5 0 5-5m-776 60q0 5 5 5h5m25 0h10m66 0h10m38 0h10m38 0h10m25 0h10m28 0h10m66 0h415q5 0 5-5m-781-775q5 0 5 5v815q0 5 5 5h5m25 0h10m54 0h10m38 0h30m-5 0q-5 0-5-5v-17q0-5 5-5h48q5 0 5 5v17q0 5-5 5m-5 0h30m25 0h10m28 0h10m38 0h415q5 0 5-5v-815q0-5 5-5m5 0h5"/><rect class="l" x="25" y="20" width="25" height="25" rx="7"/><text class="j" x="35" y="37">(</text><rect class="l" x="60" y="20" width="30" height="25" rx="7"/><text class="j" x="70" y="37">=</text><a xlink:href="#value"><rect class="r" x="100" y="20" width="52" height="25"/><text class="j" x="110" y="37">value</text></a><a xlink:href="#value"><rect class="r" x="182" y="20" width="52" height="25"/><text class="j" x="192" y="37">value</text></a><rect class="l" x="264" y="20" width="25" height="25" rx="7"/><text class="j" x="274" y="37">)</text><rect class="l" x="299" y="20" width="28" height="25" rx="7"/><text class="j" x="309" y="37">»</text><a xlink:href="#boolean"><rect class="r" x="337" y="20" width="66" height="25"/><text class="j" x="347" y="37">boolean</text></a><rect class="l" x="25" y="50" width="25" height="25" rx="7"/><text class="j" x="35" y="67">(</text><rect class="l" x="60" y="50" width="49" height="25" rx="7"/><text class="j" x="70" y="67">any?</text><rect class="l" x="119" y="50" width="25" height="25" rx="7"/><text class="j" x="129" y="67">[</text><a xlink:href="#symbol"><rect class="r" x="154" y="50" width="62" height="25"/><text class="j" x="164" y="67">symbol</text></a><a xlink:href="#set"><rect class="r" x="246" y="50" width="38" height="25"/><text class="j" x="256" y="67">set</text></a><a xlink:href="#vector"><rect class="r" x="246" y="80" width="57" height="25"/><text class="j" x="256" y="97">vector</text></a><rect class="l" x="333" y="50" width="25" height="25" rx="7"/><text class="j" x="343" y="67">]</text><a xlink:href="#boolean-expression"><rect class="r" x="368" y="50" width="134" height="25"/><text class="j" x="378" y="67">boolean-expression</text></a><rect class="l" x="512" y="50" width="25" height="25" rx="7"/><text class="j" x="522" y="67">)</text><rect class="l" x="547" y="50" width="28" height="25" rx="7"/><text class="j" x="557" y="67">»</text><a xlink:href="#boolean"><rect class="r" x="585" y="50" width="66" height="25"/><text class="j" x="595" y="67">boolean</text></a><rect class="l" x="25" y="110" width="25" height="25" rx="7"/><text class="j" x="35" y="127">(</text><rect class="l" x="60" y="110" width="59" height="25" rx="7"/><text class="j" x="70" y="127">concat</text><a xlink:href="#vector"><rect class="r" x="149" y="110" width="57" height="25"/><text class="j" x="159" y="127">vector</text></a><a xlink:href="#vector"><rect class="r" x="216" y="110" width="57" height="25"/><text class="j" x="226" y="127">vector</text></a><rect class="l" x="283" y="110" width="25" height="25" rx="7"/><text class="j" x="293" y="127">)</text><rect class="l" x="318" y="110" width="28" height="25" rx="7"/><text class="j" x="328" y="127">»</text><a xlink:href="#vector"><rect class="r" x="356" y="110" width="57" height="25"/><text class="j" x="366" y="127">vector</text></a><a xlink:href="#set"><rect class="r" x="149" y="140" width="38" height="25"/><text class="j" x="159" y="157">set</text></a><a xlink:href="#set"><rect class="r" x="217" y="140" width="38" height="25"/><text class="j" x="227" y="157">set</text></a><a xlink:href="#vector"><rect class="r" x="217" y="170" width="57" height="25"/><text class="j" x="227" y="187">vector</text></a><rect class="l" x="304" y="140" width="25" height="25" rx="7"/><text class="j" x="314" y="157">)</text><rect class="l" x="339" y="140" width="28" height="25" rx="7"/><text class="j" x="349" y="157">»</text><a xlink:href="#set"><rect class="r" x="377" y="140" width="38" height="25"/><text class="j" x="387" y="157">set</text></a><rect class="l" x="25" y="215" width="25" height="25" rx="7"/><text class="j" x="35" y="232">(</text><rect class="l" x="60" y="215" width="45" height="25" rx="7"/><text class="j" x="70" y="232">conj</text><a xlink:href="#set"><rect class="r" x="135" y="215" width="38" height="25"/><text class="j" x="145" y="232">set</text></a><a xlink:href="#value"><rect class="r" x="203" y="215" width="52" height="25"/><text class="j" x="213" y="232">value</text></a><rect class="l" x="285" y="215" width="25" height="25" rx="7"/><text class="j" x="295" y="232">)</text><rect class="l" x="320" y="215" width="28" height="25" rx="7"/><text class="j" x="330" y="232">»</text><a xlink:href="#set"><rect class="r" x="358" y="215" width="38" height="25"/><text class="j" x="368" y="232">set</text></a><a xlink:href="#vector"><rect class="r" x="135" y="260" width="57" height="25"/><text class="j" x="145" y="277">vector</text></a><a xlink:href="#value"><rect class="r" x="222" y="260" width="52" height="25"/><text class="j" x="232" y="277">value</text></a><rect class="l" x="304" y="260" width="25" height="25" rx="7"/><text class="j" x="314" y="277">)</text><rect class="l" x="339" y="260" width="28" height="25" rx="7"/><text class="j" x="349" y="277">»</text><a xlink:href="#vector"><rect class="r" x="377" y="260" width="57" height="25"/><text class="j" x="387" y="277">vector</text></a><rect class="l" x="25" y="290" width="25" height="25" rx="7"/><text class="j" x="35" y="307">(</text><rect class="l" x="60" y="290" width="77" height="25" rx="7"/><text class="j" x="70" y="307">contains?</text><a xlink:href="#set"><rect class="r" x="147" y="290" width="38" height="25"/><text class="j" x="157" y="307">set</text></a><a xlink:href="#value"><rect class="r" x="195" y="290" width="52" height="25"/><text class="j" x="205" y="307">value</text></a><rect class="l" x="257" y="290" width="25" height="25" rx="7"/><text class="j" x="267" y="307">)</text><rect class="l" x="292" y="290" width="28" height="25" rx="7"/><text class="j" x="302" y="307">»</text><a xlink:href="#boolean"><rect class="r" x="330" y="290" width="66" height="25"/><text class="j" x="340" y="307">boolean</text></a><rect class="l" x="25" y="320" width="25" height="25" rx="7"/><text class="j" x="35" y="337">(</text><rect class="l" x="60" y="320" width="54" height="25" rx="7"/><text class="j" x="70" y="337">count</text><a xlink:href="#set"><rect class="r" x="144" y="320" width="38" height="25"/><text class="j" x="154" y="337">set</text></a><a xlink:href="#vector"><rect class="r" x="144" y="350" width="57" height="25"/><text class="j" x="154" y="367">vector</text></a><rect class="l" x="231" y="320" width="25" height="25" rx="7"/><text class="j" x="241" y="337">)</text><rect class="l" x="266" y="320" width="28" height="25" rx="7"/><text class="j" x="276" y="337">»</text><a xlink:href="#integer"><rect class="r" x="304" y="320" width="62" height="25"/><text class="j" x="314" y="337">integer</text></a><rect class="l" x="25" y="380" width="25" height="25" rx="7"/><text class="j" x="35" y="397">(</text><rect class="l" x="60" y="380" width="78" height="25" rx="7"/><text class="j" x="70" y="397">difference</text><a xlink:href="#set"><rect class="r" x="148" y="380" width="38" height="25"/><text class="j" x="158" y="397">set</text></a><a xlink:href="#set"><rect class="r" x="196" y="380" width="38" height="25"/><text class="j" x="206" y="397">set</text></a><rect class="l" x="244" y="380" width="25" height="25" rx="7"/><text class="j" x="254" y="397">)</text><rect class="l" x="279" y="380" width="28" height="25" rx="7"/><text class="j" x="289" y="397">»</text><a xlink:href="#set"><rect class="r" x="317" y="380" width="38" height="25"/><text class="j" x="327" y="397">set</text></a><rect class="l" x="25" y="410" width="25" height="25" rx="7"/><text class="j" x="35" y="427">(</text><rect class="l" x="60" y="410" width="60" height="25" rx="7"/><text class="j" x="70" y="427">every?</text><rect class="l" x="130" y="410" width="25" height="25" rx="7"/><text class="j" x="140" y="427">[</text><a xlink:href="#symbol"><rect class="r" x="165" y="410" width="62" height="25"/><text class="j" x="175" y="427">symbol</text></a><a xlink:href="#set"><rect class="r" x="257" y="410" width="38" height="25"/><text class="j" x="267" y="427">set</text></a><a xlink:href="#vector"><rect class="r" x="257" y="440" width="57" height="25"/><text class="j" x="267" y="457">vector</text></a><rect class="l" x="344" y="410" width="25" height="25" rx="7"/><text class="j" x="354" y="427">]</text><a xlink:href="#boolean-expression"><rect class="r" x="379" y="410" width="134" height="25"/><text class="j" x="389" y="427">boolean-expression</text></a><rect class="l" x="523" y="410" width="25" height="25" rx="7"/><text class="j" x="533" y="427">)</text><rect class="l" x="558" y="410" width="28" height="25" rx="7"/><text class="j" x="568" y="427">»</text><a xlink:href="#boolean"><rect class="r" x="596" y="410" width="66" height="25"/><text class="j" x="606" y="427">boolean</text></a><rect class="l" x="25" y="470" width="25" height="25" rx="7"/><text class="j" x="35" y="487">(</text><rect class="l" x="60" y="470" width="47" height="25" rx="7"/><text class="j" x="70" y="487">filter</text><rect class="l" x="137" y="470" width="25" height="25" rx="7"/><text class="j" x="147" y="487">[</text><a xlink:href="#symbol:element"><rect class="r" x="172" y="470" width="116" height="25"/><text class="j" x="182" y="487">symbol:element</text></a><a xlink:href="#set"><rect class="r" x="298" y="470" width="38" height="25"/><text class="j" x="308" y="487">set</text></a><rect class="l" x="346" y="470" width="25" height="25" rx="7"/><text class="j" x="356" y="487">]</text><a xlink:href="#boolean-expression"><rect class="r" x="381" y="470" width="134" height="25"/><text class="j" x="391" y="487">boolean-expression</text></a><rect class="l" x="525" y="470" width="25" height="25" rx="7"/><text class="j" x="535" y="487">)</text><rect class="l" x="560" y="470" width="28" height="25" rx="7"/><text class="j" x="570" y="487">»</text><a xlink:href="#set"><rect class="r" x="598" y="470" width="38" height="25"/><text class="j" x="608" y="487">set</text></a><rect class="l" x="137" y="500" width="25" height="25" rx="7"/><text class="j" x="147" y="517">[</text><a xlink:href="#symbol:element"><rect class="r" x="172" y="500" width="116" height="25"/><text class="j" x="182" y="517">symbol:element</text></a><a xlink:href="#vector"><rect class="r" x="298" y="500" width="57" height="25"/><text class="j" x="308" y="517">vector</text></a><rect class="l" x="365" y="500" width="25" height="25" rx="7"/><text class="j" x="375" y="517">]</text><a xlink:href="#boolean-expression"><rect class="r" x="400" y="500" width="134" height="25"/><text class="j" x="410" y="517">boolean-expression</text></a><rect class="l" x="544" y="500" width="25" height="25" rx="7"/><text class="j" x="554" y="517">)</text><rect class="l" x="579" y="500" width="28" height="25" rx="7"/><text class="j" x="589" y="517">»</text><a xlink:href="#vector"><rect class="r" x="617" y="500" width="57" height="25"/><text class="j" x="627" y="517">vector</text></a><rect class="l" x="25" y="545" width="25" height="25" rx="7"/><text class="j" x="35" y="562">(</text><rect class="l" x="60" y="545" width="90" height="25" rx="7"/><text class="j" x="70" y="562">intersection</text><a xlink:href="#set"><rect class="r" x="160" y="545" width="38" height="25"/><text class="j" x="170" y="562">set</text></a><a xlink:href="#set"><rect class="r" x="228" y="545" width="38" height="25"/><text class="j" x="238" y="562">set</text></a><rect class="l" x="296" y="545" width="25" height="25" rx="7"/><text class="j" x="306" y="562">)</text><rect class="l" x="331" y="545" width="28" height="25" rx="7"/><text class="j" x="341" y="562">»</text><a xlink:href="#set"><rect class="r" x="369" y="545" width="38" height="25"/><text class="j" x="379" y="562">set</text></a><rect class="l" x="25" y="575" width="25" height="25" rx="7"/><text class="j" x="35" y="592">(</text><rect class="l" x="60" y="575" width="46" height="25" rx="7"/><text class="j" x="70" y="592">map</text><rect class="l" x="136" y="575" width="25" height="25" rx="7"/><text class="j" x="146" y="592">[</text><a xlink:href="#symbol:element"><rect class="r" x="171" y="575" width="116" height="25"/><text class="j" x="181" y="592">symbol:element</text></a><a xlink:href="#set"><rect class="r" x="297" y="575" width="38" height="25"/><text class="j" x="307" y="592">set</text></a><rect class="l" x="345" y="575" width="25" height="25" rx="7"/><text class="j" x="355" y="592">]</text><a xlink:href="#value-expression"><rect class="r" x="380" y="575" width="120" height="25"/><text class="j" x="390" y="592">value-expression</text></a><rect class="l" x="510" y="575" width="25" height="25" rx="7"/><text class="j" x="520" y="592">)</text><rect class="l" x="545" y="575" width="28" height="25" rx="7"/><text class="j" x="555" y="592">»</text><a xlink:href="#set"><rect class="r" x="583" y="575" width="38" height="25"/><text class="j" x="593" y="592">set</text></a><rect class="l" x="136" y="605" width="25" height="25" rx="7"/><text class="j" x="146" y="622">[</text><a xlink:href="#symbol:element"><rect class="r" x="171" y="605" width="116" height="25"/><text class="j" x="181" y="622">symbol:element</text></a><a xlink:href="#vector"><rect class="r" x="297" y="605" width="57" height="25"/><text class="j" x="307" y="622">vector</text></a><rect class="l" x="364" y="605" width="25" height="25" rx="7"/><text class="j" x="374" y="622">]</text><a xlink:href="#value-expression"><rect class="r" x="399" y="605" width="120" height="25"/><text class="j" x="409" y="622">value-expression</text></a><rect class="l" x="529" y="605" width="25" height="25" rx="7"/><text class="j" x="539" y="622">)</text><rect class="l" x="564" y="605" width="28" height="25" rx="7"/><text class="j" x="574" y="622">»</text><a xlink:href="#vector"><rect class="r" x="602" y="605" width="57" height="25"/><text class="j" x="612" y="622">vector</text></a><rect class="l" x="25" y="650" width="25" height="25" rx="7"/><text class="j" x="35" y="667">(</text><rect class="l" x="60" y="650" width="50" height="25" rx="7"/><text class="j" x="70" y="667">not=</text><a xlink:href="#value"><rect class="r" x="120" y="650" width="52" height="25"/><text class="j" x="130" y="667">value</text></a><a xlink:href="#value"><rect class="r" x="202" y="650" width="52" height="25"/><text class="j" x="212" y="667">value</text></a><rect class="l" x="284" y="650" width="25" height="25" rx="7"/><text class="j" x="294" y="667">)</text><rect class="l" x="319" y="650" width="28" height="25" rx="7"/><text class="j" x="329" y="667">»</text><a xlink:href="#boolean"><rect class="r" x="357" y="650" width="66" height="25"/><text class="j" x="367" y="667">boolean</text></a><rect class="l" x="25" y="680" width="25" height="25" rx="7"/><text class="j" x="35" y="697">(</text><rect class="l" x="60" y="680" width="43" height="25" rx="7"/><text class="j" x="70" y="697">sort</text><a xlink:href="#set"><rect class="r" x="133" y="680" width="38" height="25"/><text class="j" x="143" y="697">set</text></a><a xlink:href="#vector"><rect class="r" x="133" y="710" width="57" height="25"/><text class="j" x="143" y="727">vector</text></a><rect class="l" x="220" y="680" width="25" height="25" rx="7"/><text class="j" x="230" y="697">)</text><rect class="l" x="255" y="680" width="28" height="25" rx="7"/><text class="j" x="265" y="697">»</text><a xlink:href="#vector"><rect class="r" x="293" y="680" width="57" height="25"/><text class="j" x="303" y="697">vector</text></a><rect class="l" x="25" y="740" width="25" height="25" rx="7"/><text class="j" x="35" y="757">(</text><rect class="l" x="60" y="740" width="62" height="25" rx="7"/><text class="j" x="70" y="757">sort-by</text><rect class="l" x="132" y="740" width="25" height="25" rx="7"/><text class="j" x="142" y="757">[</text><a xlink:href="#symbol:element"><rect class="r" x="167" y="740" width="116" height="25"/><text class="j" x="177" y="757">symbol:element</text></a><a xlink:href="#set"><rect class="r" x="313" y="740" width="38" height="25"/><text class="j" x="323" y="757">set</text></a><a xlink:href="#vector"><rect class="r" x="313" y="770" width="57" height="25"/><text class="j" x="323" y="787">vector</text></a><rect class="l" x="400" y="740" width="25" height="25" rx="7"/><text class="j" x="410" y="757">]</text><a xlink:href="#integer-expression"><rect class="r" x="455" y="740" width="130" height="25"/><text class="j" x="465" y="757">integer-expression</text></a><a xlink:href="#fixed-decimal-expression"><rect class="r" x="455" y="770" width="166" height="25"/><text class="j" x="465" y="787">fixed-decimal-expression</text></a><rect class="l" x="651" y="740" width="25" height="25" rx="7"/><text class="j" x="661" y="757">)</text><rect class="l" x="686" y="740" width="28" height="25" rx="7"/><text class="j" x="696" y="757">»</text><a xlink:href="#vector"><rect class="r" x="724" y="740" width="57" height="25"/><text class="j" x="734" y="757">vector</text></a><rect class="l" x="25" y="800" width="25" height="25" rx="7"/><text class="j" x="35" y="817">(</text><rect class="l" x="60" y="800" width="66" height="25" rx="7"/><text class="j" x="70" y="817">subset?</text><a xlink:href="#set"><rect class="r" x="136" y="800" width="38" height="25"/><text class="j" x="146" y="817">set</text></a><a xlink:href="#set"><rect class="r" x="184" y="800" width="38" height="25"/><text class="j" x="194" y="817">set</text></a><rect class="l" x="232" y="800" width="25" height="25" rx="7"/><text class="j" x="242" y="817">)</text><rect class="l" x="267" y="800" width="28" height="25" rx="7"/><text class="j" x="277" y="817">»</text><a xlink:href="#boolean"><rect class="r" x="305" y="800" width="66" height="25"/><text class="j" x="315" y="817">boolean</text></a><rect class="l" x="25" y="845" width="25" height="25" rx="7"/><text class="j" x="35" y="862">(</text><rect class="l" x="60" y="845" width="54" height="25" rx="7"/><text class="j" x="70" y="862">union</text><a xlink:href="#set"><rect class="r" x="124" y="845" width="38" height="25"/><text class="j" x="134" y="862">set</text></a><a xlink:href="#set"><rect class="r" x="192" y="845" width="38" height="25"/><text class="j" x="202" y="862">set</text></a><rect class="l" x="260" y="845" width="25" height="25" rx="7"/><text class="j" x="270" y="862">)</text><rect class="l" x="295" y="845" width="28" height="25" rx="7"/><text class="j" x="305" y="862">»</text><a xlink:href="#set"><rect class="r" x="333" y="845" width="38" height="25"/><text class="j" x="343" y="862">set</text></a></svg>