<svg version="1.1" xmlns:xlink="http://www.w3.org/1999/xlink" xmlns="http://www.w3.org/2000/svg" width="1104" height="935" viewbox="0 0 1104 935"><defs><style type="text/css">.c{fill:none;stroke:#222222;}.j{fill:#000000;font-family:Verdana,Sans-serif;font-size:12px;}.l{fill:#90d9ff;stroke:#222222;}.r{fill:#d3f0ff;stroke:#222222;}</style></defs><path class="c" d="M0 37h25m25 0h10m29 0h10m54 0h30m-5 0q-5 0-5-5v-17q0-5 5-5h64q5 0 5 5v17q0 5-5 5m-5 0h30m25 0h10m28 0h10m71 0h688m-1084 25q0 5 5 5h5m25 0h10m50 0h10m25 0h10m64 0h30m40 0h39m-94 0q5 0 5 5v20q0 5 5 5h5m59 0h5q5 0 5-5v-20q0-5 5-5m5 0h10m25 0h10m145 0h10m25 0h10m28 0h10m71 0h412q5 0 5-5m-1074 60q0 5 5 5h5m25 0h10m61 0h30m59 0h10m59 0h10m25 0h10m28 0h10m59 0h22m-307 0q5 0 5 5v20q0 5 5 5h5m40 0h30m40 0h39m-94 0q5 0 5 5v20q0 5 5 5h5m59 0h5q5 0 5-5v-20q0-5 5-5m5 0h10m25 0h10m28 0h10m40 0h5q5 0 5-5v-20q0-5 5-5m5 0h641q5 0 5-5m-1074 105q0 5 5 5h5m25 0h10m46 0h30m40 0h30m-5 0q-5 0-5-5v-17q0-5 5-5h64q5 0 5 5v17q0 5-5 5m-5 0h30m25 0h10m28 0h10m40 0h58m-340 0q5 0 5 5v35q0 5 5 5h5m59 0h30m-5 0q-5 0-5-5v-17q0-5 5-5h64q5 0 5 5v17q0 5-5 5m-5 0h30m25 0h10m28 0h10m59 0h5q5 0 5-5v-35q0-5 5-5m5 0h623q5 0 5-5m-1074 75q0 5 5 5h5m25 0h10m80 0h10m40 0h10m54 0h10m25 0h10m28 0h10m71 0h676q5 0 5-5m-1074 30q0 5 5 5h5m25 0h10m55 0h30m40 0h39m-94 0q5 0 5 5v20q0 5 5 5h5m59 0h5q5 0 5-5v-20q0-5 5-5m5 0h10m25 0h10m28 0h10m65 0h712q5 0 5-5m-1074 60q0 5 5 5h5m25 0h10m82 0h10m40 0h10m40 0h10m25 0h10m28 0h10m40 0h719q5 0 5-5m-1074 30q0 5 5 5h5m25 0h10m62 0h10m25 0h10m64 0h30m40 0h39m-94 0q5 0 5 5v20q0 5 5 5h5m59 0h5q5 0 5-5v-20q0-5 5-5m5 0h10m25 0h10m145 0h10m25 0h10m28 0h10m71 0h400q5 0 5-5m-1074 60q0 5 5 5h5m25 0h10m48 0h30m25 0h10m120 0h10m40 0h10m25 0h10m145 0h10m25 0h10m28 0h10m40 0h58m-591 0q5 0 5 5v20q0 5 5 5h5m25 0h10m120 0h10m59 0h10m25 0h10m145 0h10m25 0h10m28 0h10m59 0h5q5 0 5-5v-20q0-5 5-5m5 0h370q5 0 5-5m-1074 75q0 5 5 5h5m25 0h10m94 0h10m40 0h30m-5 0q-5 0-5-5v-17q0-5 5-5h50q5 0 5 5v17q0 5-5 5m-5 0h30m25 0h10m28 0h10m40 0h667q5 0 5-5m-1074 30q0 5 5 5h5m25 0h10m47 0h30m25 0h10m120 0h10m40 0h10m25 0h10m128 0h10m25 0h10m28 0h10m40 0h58m-574 0q5 0 5 5v20q0 5 5 5h5m25 0h10m120 0h10m59 0h10m25 0h10m128 0h10m25 0h10m28 0h10m59 0h5q5 0 5-5v-20q0-5 5-5m5 0h388q5 0 5-5m-1074 75q0 5 5 5h5m25 0h10m50 0h10m54 0h30m-5 0q-5 0-5-5v-17q0-5 5-5h64q5 0 5 5v17q0 5-5 5m-5 0h30m25 0h10m28 0h10m71 0h652q5 0 5-5m-1074 30q0 5 5 5h5m25 0h10m63 0h10m25 0h10m145 0h10m159 0h10m25 0h10m25 0h10m120 0h30m40 0h39m-94 0q5 0 5 5v20q0 5 5 5h5m59 0h5q5 0 5-5v-20q0-5 5-5m5 0h10m25 0h10m117 0h10m25 0h10m28 0h10m43 0h5q5 0 5-5m-1074 60q0 5 5 5h5m25 0h10m45 0h30m40 0h39m-94 0q5 0 5 5v20q0 5 5 5h5m59 0h5q5 0 5-5v-20q0-5 5-5m5 0h10m25 0h10m28 0h10m59 0h728q5 0 5-5m-1074 60q0 5 5 5h5m25 0h10m65 0h10m25 0h10m120 0h30m40 0h39m-94 0q5 0 5 5v20q0 5 5 5h5m59 0h5q5 0 5-5v-20q0-5 5-5m5 0h10m25 0h30m139 0h57m-211 0q5 0 5 5v20q0 5 5 5h5m176 0h5q5 0 5-5v-20q0-5 5-5m5 0h10m25 0h10m28 0h10m59 0h282q5 0 5-5m-1074 60q0 5 5 5h5m25 0h10m70 0h10m40 0h10m40 0h10m25 0h10m28 0h10m71 0h700q5 0 5-5m-1079-835q5 0 5 5v875q0 5 5 5h5m25 0h10m55 0h10m40 0h30m-5 0q-5 0-5-5v-17q0-5 5-5h50q5 0 5 5v17q0 5-5 5m-5 0h30m25 0h10m28 0h10m40 0h706q5 0 5-5v-875q0-5 5-5m5 0h5"/><rect class="l" x="25" y="20" width="25" height="25" rx="7"/><text class="j" x="35" y="37">(</text><rect class="l" x="60" y="20" width="29" height="25" rx="7"/><text class="j" x="70" y="37">=</text><a xlink:href="#value"><rect class="r" x="99" y="20" width="54" height="25"/><text class="j" x="109" y="37">value</text></a><a xlink:href="#value"><rect class="r" x="183" y="20" width="54" height="25"/><text class="j" x="193" y="37">value</text></a><rect class="l" x="267" y="20" width="25" height="25" rx="7"/><text class="j" x="277" y="37">)</text><rect class="l" x="302" y="20" width="28" height="25" rx="7"/><text class="j" x="312" y="37">»</text><a xlink:href="#boolean"><rect class="r" x="340" y="20" width="71" height="25"/><text class="j" x="350" y="37">boolean</text></a><rect class="l" x="25" y="50" width="25" height="25" rx="7"/><text class="j" x="35" y="67">(</text><rect class="l" x="60" y="50" width="50" height="25" rx="7"/><text class="j" x="70" y="67">any?</text><rect class="l" x="120" y="50" width="25" height="25" rx="7"/><text class="j" x="130" y="67">[</text><a xlink:href="#symbol"><rect class="r" x="155" y="50" width="64" height="25"/><text class="j" x="165" y="67">symbol</text></a><a xlink:href="#set"><rect class="r" x="249" y="50" width="40" height="25"/><text class="j" x="259" y="67">set</text></a><a xlink:href="#vector"><rect class="r" x="249" y="80" width="59" height="25"/><text class="j" x="259" y="97">vector</text></a><rect class="l" x="338" y="50" width="25" height="25" rx="7"/><text class="j" x="348" y="67">]</text><a xlink:href="#boolean-expression"><rect class="r" x="373" y="50" width="145" height="25"/><text class="j" x="383" y="67">boolean-expression</text></a><rect class="l" x="528" y="50" width="25" height="25" rx="7"/><text class="j" x="538" y="67">)</text><rect class="l" x="563" y="50" width="28" height="25" rx="7"/><text class="j" x="573" y="67">»</text><a xlink:href="#boolean"><rect class="r" x="601" y="50" width="71" height="25"/><text class="j" x="611" y="67">boolean</text></a><rect class="l" x="25" y="110" width="25" height="25" rx="7"/><text class="j" x="35" y="127">(</text><rect class="l" x="60" y="110" width="61" height="25" rx="7"/><text class="j" x="70" y="127">concat</text><a xlink:href="#vector"><rect class="r" x="151" y="110" width="59" height="25"/><text class="j" x="161" y="127">vector</text></a><a xlink:href="#vector"><rect class="r" x="220" y="110" width="59" height="25"/><text class="j" x="230" y="127">vector</text></a><rect class="l" x="289" y="110" width="25" height="25" rx="7"/><text class="j" x="299" y="127">)</text><rect class="l" x="324" y="110" width="28" height="25" rx="7"/><text class="j" x="334" y="127">»</text><a xlink:href="#vector"><rect class="r" x="362" y="110" width="59" height="25"/><text class="j" x="372" y="127">vector</text></a><a xlink:href="#set"><rect class="r" x="151" y="140" width="40" height="25"/><text class="j" x="161" y="157">set</text></a><a xlink:href="#set"><rect class="r" x="221" y="140" width="40" height="25"/><text class="j" x="231" y="157">set</text></a><a xlink:href="#vector"><rect class="r" x="221" y="170" width="59" height="25"/><text class="j" x="231" y="187">vector</text></a><rect class="l" x="310" y="140" width="25" height="25" rx="7"/><text class="j" x="320" y="157">)</text><rect class="l" x="345" y="140" width="28" height="25" rx="7"/><text class="j" x="355" y="157">»</text><a xlink:href="#set"><rect class="r" x="383" y="140" width="40" height="25"/><text class="j" x="393" y="157">set</text></a><rect class="l" x="25" y="215" width="25" height="25" rx="7"/><text class="j" x="35" y="232">(</text><rect class="l" x="60" y="215" width="46" height="25" rx="7"/><text class="j" x="70" y="232">conj</text><a xlink:href="#set"><rect class="r" x="136" y="215" width="40" height="25"/><text class="j" x="146" y="232">set</text></a><a xlink:href="#value"><rect class="r" x="206" y="215" width="54" height="25"/><text class="j" x="216" y="232">value</text></a><rect class="l" x="290" y="215" width="25" height="25" rx="7"/><text class="j" x="300" y="232">)</text><rect class="l" x="325" y="215" width="28" height="25" rx="7"/><text class="j" x="335" y="232">»</text><a xlink:href="#set"><rect class="r" x="363" y="215" width="40" height="25"/><text class="j" x="373" y="232">set</text></a><a xlink:href="#vector"><rect class="r" x="136" y="260" width="59" height="25"/><text class="j" x="146" y="277">vector</text></a><a xlink:href="#value"><rect class="r" x="225" y="260" width="54" height="25"/><text class="j" x="235" y="277">value</text></a><rect class="l" x="309" y="260" width="25" height="25" rx="7"/><text class="j" x="319" y="277">)</text><rect class="l" x="344" y="260" width="28" height="25" rx="7"/><text class="j" x="354" y="277">»</text><a xlink:href="#vector"><rect class="r" x="382" y="260" width="59" height="25"/><text class="j" x="392" y="277">vector</text></a><rect class="l" x="25" y="290" width="25" height="25" rx="7"/><text class="j" x="35" y="307">(</text><rect class="l" x="60" y="290" width="80" height="25" rx="7"/><text class="j" x="70" y="307">contains?</text><a xlink:href="#set"><rect class="r" x="150" y="290" width="40" height="25"/><text class="j" x="160" y="307">set</text></a><a xlink:href="#value"><rect class="r" x="200" y="290" width="54" height="25"/><text class="j" x="210" y="307">value</text></a><rect class="l" x="264" y="290" width="25" height="25" rx="7"/><text class="j" x="274" y="307">)</text><rect class="l" x="299" y="290" width="28" height="25" rx="7"/><text class="j" x="309" y="307">»</text><a xlink:href="#boolean"><rect class="r" x="337" y="290" width="71" height="25"/><text class="j" x="347" y="307">boolean</text></a><rect class="l" x="25" y="320" width="25" height="25" rx="7"/><text class="j" x="35" y="337">(</text><rect class="l" x="60" y="320" width="55" height="25" rx="7"/><text class="j" x="70" y="337">count</text><a xlink:href="#set"><rect class="r" x="145" y="320" width="40" height="25"/><text class="j" x="155" y="337">set</text></a><a xlink:href="#vector"><rect class="r" x="145" y="350" width="59" height="25"/><text class="j" x="155" y="367">vector</text></a><rect class="l" x="234" y="320" width="25" height="25" rx="7"/><text class="j" x="244" y="337">)</text><rect class="l" x="269" y="320" width="28" height="25" rx="7"/><text class="j" x="279" y="337">»</text><a xlink:href="#integer"><rect class="r" x="307" y="320" width="65" height="25"/><text class="j" x="317" y="337">integer</text></a><rect class="l" x="25" y="380" width="25" height="25" rx="7"/><text class="j" x="35" y="397">(</text><rect class="l" x="60" y="380" width="82" height="25" rx="7"/><text class="j" x="70" y="397">difference</text><a xlink:href="#set"><rect class="r" x="152" y="380" width="40" height="25"/><text class="j" x="162" y="397">set</text></a><a xlink:href="#set"><rect class="r" x="202" y="380" width="40" height="25"/><text class="j" x="212" y="397">set</text></a><rect class="l" x="252" y="380" width="25" height="25" rx="7"/><text class="j" x="262" y="397">)</text><rect class="l" x="287" y="380" width="28" height="25" rx="7"/><text class="j" x="297" y="397">»</text><a xlink:href="#set"><rect class="r" x="325" y="380" width="40" height="25"/><text class="j" x="335" y="397">set</text></a><rect class="l" x="25" y="410" width="25" height="25" rx="7"/><text class="j" x="35" y="427">(</text><rect class="l" x="60" y="410" width="62" height="25" rx="7"/><text class="j" x="70" y="427">every?</text><rect class="l" x="132" y="410" width="25" height="25" rx="7"/><text class="j" x="142" y="427">[</text><a xlink:href="#symbol"><rect class="r" x="167" y="410" width="64" height="25"/><text class="j" x="177" y="427">symbol</text></a><a xlink:href="#set"><rect class="r" x="261" y="410" width="40" height="25"/><text class="j" x="271" y="427">set</text></a><a xlink:href="#vector"><rect class="r" x="261" y="440" width="59" height="25"/><text class="j" x="271" y="457">vector</text></a><rect class="l" x="350" y="410" width="25" height="25" rx="7"/><text class="j" x="360" y="427">]</text><a xlink:href="#boolean-expression"><rect class="r" x="385" y="410" width="145" height="25"/><text class="j" x="395" y="427">boolean-expression</text></a><rect class="l" x="540" y="410" width="25" height="25" rx="7"/><text class="j" x="550" y="427">)</text><rect class="l" x="575" y="410" width="28" height="25" rx="7"/><text class="j" x="585" y="427">»</text><a xlink:href="#boolean"><rect class="r" x="613" y="410" width="71" height="25"/><text class="j" x="623" y="427">boolean</text></a><rect class="l" x="25" y="470" width="25" height="25" rx="7"/><text class="j" x="35" y="487">(</text><rect class="l" x="60" y="470" width="48" height="25" rx="7"/><text class="j" x="70" y="487">filter</text><rect class="l" x="138" y="470" width="25" height="25" rx="7"/><text class="j" x="148" y="487">[</text><a xlink:href="#symbol:element"><rect class="r" x="173" y="470" width="120" height="25"/><text class="j" x="183" y="487">symbol:element</text></a><a xlink:href="#set"><rect class="r" x="303" y="470" width="40" height="25"/><text class="j" x="313" y="487">set</text></a><rect class="l" x="353" y="470" width="25" height="25" rx="7"/><text class="j" x="363" y="487">]</text><a xlink:href="#boolean-expression"><rect class="r" x="388" y="470" width="145" height="25"/><text class="j" x="398" y="487">boolean-expression</text></a><rect class="l" x="543" y="470" width="25" height="25" rx="7"/><text class="j" x="553" y="487">)</text><rect class="l" x="578" y="470" width="28" height="25" rx="7"/><text class="j" x="588" y="487">»</text><a xlink:href="#set"><rect class="r" x="616" y="470" width="40" height="25"/><text class="j" x="626" y="487">set</text></a><rect class="l" x="138" y="500" width="25" height="25" rx="7"/><text class="j" x="148" y="517">[</text><a xlink:href="#symbol:element"><rect class="r" x="173" y="500" width="120" height="25"/><text class="j" x="183" y="517">symbol:element</text></a><a xlink:href="#vector"><rect class="r" x="303" y="500" width="59" height="25"/><text class="j" x="313" y="517">vector</text></a><rect class="l" x="372" y="500" width="25" height="25" rx="7"/><text class="j" x="382" y="517">]</text><a xlink:href="#boolean-expression"><rect class="r" x="407" y="500" width="145" height="25"/><text class="j" x="417" y="517">boolean-expression</text></a><rect class="l" x="562" y="500" width="25" height="25" rx="7"/><text class="j" x="572" y="517">)</text><rect class="l" x="597" y="500" width="28" height="25" rx="7"/><text class="j" x="607" y="517">»</text><a xlink:href="#vector"><rect class="r" x="635" y="500" width="59" height="25"/><text class="j" x="645" y="517">vector</text></a><rect class="l" x="25" y="545" width="25" height="25" rx="7"/><text class="j" x="35" y="562">(</text><rect class="l" x="60" y="545" width="94" height="25" rx="7"/><text class="j" x="70" y="562">intersection</text><a xlink:href="#set"><rect class="r" x="164" y="545" width="40" height="25"/><text class="j" x="174" y="562">set</text></a><a xlink:href="#set"><rect class="r" x="234" y="545" width="40" height="25"/><text class="j" x="244" y="562">set</text></a><rect class="l" x="304" y="545" width="25" height="25" rx="7"/><text class="j" x="314" y="562">)</text><rect class="l" x="339" y="545" width="28" height="25" rx="7"/><text class="j" x="349" y="562">»</text><a xlink:href="#set"><rect class="r" x="377" y="545" width="40" height="25"/><text class="j" x="387" y="562">set</text></a><rect class="l" x="25" y="575" width="25" height="25" rx="7"/><text class="j" x="35" y="592">(</text><rect class="l" x="60" y="575" width="47" height="25" rx="7"/><text class="j" x="70" y="592">map</text><rect class="l" x="137" y="575" width="25" height="25" rx="7"/><text class="j" x="147" y="592">[</text><a xlink:href="#symbol:element"><rect class="r" x="172" y="575" width="120" height="25"/><text class="j" x="182" y="592">symbol:element</text></a><a xlink:href="#set"><rect class="r" x="302" y="575" width="40" height="25"/><text class="j" x="312" y="592">set</text></a><rect class="l" x="352" y="575" width="25" height="25" rx="7"/><text class="j" x="362" y="592">]</text><a xlink:href="#value-expression"><rect class="r" x="387" y="575" width="128" height="25"/><text class="j" x="397" y="592">value-expression</text></a><rect class="l" x="525" y="575" width="25" height="25" rx="7"/><text class="j" x="535" y="592">)</text><rect class="l" x="560" y="575" width="28" height="25" rx="7"/><text class="j" x="570" y="592">»</text><a xlink:href="#set"><rect class="r" x="598" y="575" width="40" height="25"/><text class="j" x="608" y="592">set</text></a><rect class="l" x="137" y="605" width="25" height="25" rx="7"/><text class="j" x="147" y="622">[</text><a xlink:href="#symbol:element"><rect class="r" x="172" y="605" width="120" height="25"/><text class="j" x="182" y="622">symbol:element</text></a><a xlink:href="#vector"><rect class="r" x="302" y="605" width="59" height="25"/><text class="j" x="312" y="622">vector</text></a><rect class="l" x="371" y="605" width="25" height="25" rx="7"/><text class="j" x="381" y="622">]</text><a xlink:href="#value-expression"><rect class="r" x="406" y="605" width="128" height="25"/><text class="j" x="416" y="622">value-expression</text></a><rect class="l" x="544" y="605" width="25" height="25" rx="7"/><text class="j" x="554" y="622">)</text><rect class="l" x="579" y="605" width="28" height="25" rx="7"/><text class="j" x="589" y="622">»</text><a xlink:href="#vector"><rect class="r" x="617" y="605" width="59" height="25"/><text class="j" x="627" y="622">vector</text></a><rect class="l" x="25" y="650" width="25" height="25" rx="7"/><text class="j" x="35" y="667">(</text><rect class="l" x="60" y="650" width="50" height="25" rx="7"/><text class="j" x="70" y="667">not=</text><a xlink:href="#value"><rect class="r" x="120" y="650" width="54" height="25"/><text class="j" x="130" y="667">value</text></a><a xlink:href="#value"><rect class="r" x="204" y="650" width="54" height="25"/><text class="j" x="214" y="667">value</text></a><rect class="l" x="288" y="650" width="25" height="25" rx="7"/><text class="j" x="298" y="667">)</text><rect class="l" x="323" y="650" width="28" height="25" rx="7"/><text class="j" x="333" y="667">»</text><a xlink:href="#boolean"><rect class="r" x="361" y="650" width="71" height="25"/><text class="j" x="371" y="667">boolean</text></a><rect class="l" x="25" y="680" width="25" height="25" rx="7"/><text class="j" x="35" y="697">(</text><rect class="l" x="60" y="680" width="63" height="25" rx="7"/><text class="j" x="70" y="697">reduce</text><rect class="l" x="133" y="680" width="25" height="25" rx="7"/><text class="j" x="143" y="697">[</text><a xlink:href="#symbol:accumulator"><rect class="r" x="168" y="680" width="145" height="25"/><text class="j" x="178" y="697">symbol:accumulator</text></a><a xlink:href="#value:accumulator-init"><rect class="r" x="323" y="680" width="159" height="25"/><text class="j" x="333" y="697">value:accumulator-init</text></a><rect class="l" x="492" y="680" width="25" height="25" rx="7"/><text class="j" x="502" y="697">]</text><rect class="l" x="527" y="680" width="25" height="25" rx="7"/><text class="j" x="537" y="697">[</text><a xlink:href="#symbol:element"><rect class="r" x="562" y="680" width="120" height="25"/><text class="j" x="572" y="697">symbol:element</text></a><a xlink:href="#set"><rect class="r" x="712" y="680" width="40" height="25"/><text class="j" x="722" y="697">set</text></a><a xlink:href="#vector"><rect class="r" x="712" y="710" width="59" height="25"/><text class="j" x="722" y="727">vector</text></a><rect class="l" x="801" y="680" width="25" height="25" rx="7"/><text class="j" x="811" y="697">]</text><a xlink:href="#any-expression"><rect class="r" x="836" y="680" width="117" height="25"/><text class="j" x="846" y="697">any-expression</text></a><rect class="l" x="963" y="680" width="25" height="25" rx="7"/><text class="j" x="973" y="697">)</text><rect class="l" x="998" y="680" width="28" height="25" rx="7"/><text class="j" x="1008" y="697">»</text><a xlink:href="#any"><rect class="r" x="1036" y="680" width="43" height="25"/><text class="j" x="1046" y="697">any</text></a><rect class="l" x="25" y="740" width="25" height="25" rx="7"/><text class="j" x="35" y="757">(</text><rect class="l" x="60" y="740" width="45" height="25" rx="7"/><text class="j" x="70" y="757">sort</text><a xlink:href="#set"><rect class="r" x="135" y="740" width="40" height="25"/><text class="j" x="145" y="757">set</text></a><a xlink:href="#vector"><rect class="r" x="135" y="770" width="59" height="25"/><text class="j" x="145" y="787">vector</text></a><rect class="l" x="224" y="740" width="25" height="25" rx="7"/><text class="j" x="234" y="757">)</text><rect class="l" x="259" y="740" width="28" height="25" rx="7"/><text class="j" x="269" y="757">»</text><a xlink:href="#vector"><rect class="r" x="297" y="740" width="59" height="25"/><text class="j" x="307" y="757">vector</text></a><rect class="l" x="25" y="800" width="25" height="25" rx="7"/><text class="j" x="35" y="817">(</text><rect class="l" x="60" y="800" width="65" height="25" rx="7"/><text class="j" x="70" y="817">sort-by</text><rect class="l" x="135" y="800" width="25" height="25" rx="7"/><text class="j" x="145" y="817">[</text><a xlink:href="#symbol:element"><rect class="r" x="170" y="800" width="120" height="25"/><text class="j" x="180" y="817">symbol:element</text></a><a xlink:href="#set"><rect class="r" x="320" y="800" width="40" height="25"/><text class="j" x="330" y="817">set</text></a><a xlink:href="#vector"><rect class="r" x="320" y="830" width="59" height="25"/><text class="j" x="330" y="847">vector</text></a><rect class="l" x="409" y="800" width="25" height="25" rx="7"/><text class="j" x="419" y="817">]</text><a xlink:href="#integer-expression"><rect class="r" x="464" y="800" width="139" height="25"/><text class="j" x="474" y="817">integer-expression</text></a><a xlink:href="#fixed-decimal-expression"><rect class="r" x="464" y="830" width="176" height="25"/><text class="j" x="474" y="847">fixed-decimal-expression</text></a><rect class="l" x="670" y="800" width="25" height="25" rx="7"/><text class="j" x="680" y="817">)</text><rect class="l" x="705" y="800" width="28" height="25" rx="7"/><text class="j" x="715" y="817">»</text><a xlink:href="#vector"><rect class="r" x="743" y="800" width="59" height="25"/><text class="j" x="753" y="817">vector</text></a><rect class="l" x="25" y="860" width="25" height="25" rx="7"/><text class="j" x="35" y="877">(</text><rect class="l" x="60" y="860" width="70" height="25" rx="7"/><text class="j" x="70" y="877">subset?</text><a xlink:href="#set"><rect class="r" x="140" y="860" width="40" height="25"/><text class="j" x="150" y="877">set</text></a><a xlink:href="#set"><rect class="r" x="190" y="860" width="40" height="25"/><text class="j" x="200" y="877">set</text></a><rect class="l" x="240" y="860" width="25" height="25" rx="7"/><text class="j" x="250" y="877">)</text><rect class="l" x="275" y="860" width="28" height="25" rx="7"/><text class="j" x="285" y="877">»</text><a xlink:href="#boolean"><rect class="r" x="313" y="860" width="71" height="25"/><text class="j" x="323" y="877">boolean</text></a><rect class="l" x="25" y="905" width="25" height="25" rx="7"/><text class="j" x="35" y="922">(</text><rect class="l" x="60" y="905" width="55" height="25" rx="7"/><text class="j" x="70" y="922">union</text><a xlink:href="#set"><rect class="r" x="125" y="905" width="40" height="25"/><text class="j" x="135" y="922">set</text></a><a xlink:href="#set"><rect class="r" x="195" y="905" width="40" height="25"/><text class="j" x="205" y="922">set</text></a><rect class="l" x="265" y="905" width="25" height="25" rx="7"/><text class="j" x="275" y="922">)</text><rect class="l" x="300" y="905" width="28" height="25" rx="7"/><text class="j" x="310" y="922">»</text><a xlink:href="#set"><rect class="r" x="338" y="905" width="40" height="25"/><text class="j" x="348" y="922">set</text></a></svg>