<svg version="1.1" xmlns:xlink="http://www.w3.org/1999/xlink" xmlns="http://www.w3.org/2000/svg" width="1039" height="785" viewbox="0 0 1039 785"><defs><style type="text/css">.c{fill: none; stroke: #888888; stroke-width: 2px;}.j{fill:#000000;font-family:Verdana,Sans-serif;font-size:12px;}.l{fill:#90d9ff;stroke:#222222;}.r{fill:#d3f0ff;stroke:#222222;}</style></defs><path class="c" d="M0 18h25m25 0h10m49 0h10m25 0h10m62 0h30m38 0h39m-92 0q5 0 5 5v20q0 5 5 5h5m57 0h5q5 0 5-5v-20q0-5 5-5m5 0h10m25 0h10m134 0h10m25 0h10m28 0h10m66 0h383m-1019 55q0 5 5 5h5m25 0h10m60 0h10m25 0h10m62 0h30m38 0h39m-92 0q5 0 5 5v20q0 5 5 5h5m57 0h5q5 0 5-5v-20q0-5 5-5m5 0h10m25 0h10m134 0h10m25 0h10m28 0h10m66 0h357q5 0 5-5m-1009 60q0 5 5 5h5m25 0h10m47 0h30m25 0h10m116 0h10m38 0h10m25 0h10m134 0h10m25 0h10m28 0h10m38 0h58m-572 0q5 0 5 5v20q0 5 5 5h5m25 0h10m116 0h10m57 0h10m25 0h10m134 0h10m25 0h10m28 0h10m57 0h5q5 0 5-5v-20q0-5 5-5m5 0h325q5 0 5-5m-1009 60q0 5 5 5h5m25 0h10m39 0h30m70 0h10m154 0h10m25 0h10m28 0h10m42 0h20m-394 0q5 0 5 5v20q0 5 5 5h5m57 0h10m62 0h10m25 0h10m28 0h10m52 0h100q5 0 5-5v-20q0-5 5-5m5 0h511q5 0 5-5m-1009 75q0 5 5 5h5m25 0h10m55 0h30m111 0h20m-146 0q5 0 5 5v20q0 5 5 5h5m98 0h18q5 0 5-5v-20q0-5 5-5m5 0h10m25 0h30m62 0h112m-189 0q5 0 5 5v20q0 5 5 5h5m154 0h5q5 0 5-5v-20q0-5 5-5m5 0h50m-5 0q-5 0-5-5v-17q0-5 5-5h204q5 0 5 5v17q0 5-5 5m-199 0h20m62 0h112m-189 0q5 0 5 5v20q0 5 5 5h5m154 0h5q5 0 5-5v-20q0-5 5-5m5 0h40m-269 0q5 0 5 5v38q0 5 5 5h244q5 0 5-5v-38q0-5 5-5m5 0h10m25 0h10m25 0h10m28 0h10m42 0h60q5 0 5-5m-1009 75q0 5 5 5h5m25 0h10m27 0h10m66 0h10m110 0h10m110 0h10m25 0h10m28 0h10m42 0h491q5 0 5-5m-1009 30q0 5 5 5h5m25 0h10m64 0h10m62 0h10m110 0h10m110 0h10m25 0h10m28 0h10m42 0h458q5 0 5-5m-1009 30q0 5 5 5h5m25 0h10m84 0h10m25 0h10m62 0h10m90 0h10m25 0h10m110 0h10m110 0h10m25 0h10m28 0h10m42 0h268q5 0 5-5m-1009 45q0 5 5 5h5m25 0h10m35 0h10m25 0h10m62 0h10m52 0h50m-5 0q-5 0-5-5v-17q0-5 5-5h134q5 0 5 5v17q0 5-5 5m-67 0h10m52 0h40m-199 0q5 0 5 5v8q0 5 5 5h174q5 0 5-5v-8q0-5 5-5m5 0h10m25 0h10m110 0h10m25 0h10m28 0h10m42 0h261q5 0 5-5m-1009 45q0 5 5 5h5m25 0h10m46 0h30m25 0h10m116 0h10m38 0h10m25 0h10m120 0h10m25 0h10m28 0h10m38 0h58m-558 0q5 0 5 5v20q0 5 5 5h5m25 0h10m116 0h10m57 0h10m25 0h10m120 0h10m25 0h10m28 0h10m57 0h5q5 0 5-5v-20q0-5 5-5m5 0h340q5 0 5-5m-1009 60q0 5 5 5h5m25 0h10m60 0h10m25 0h10m141 0h10m155 0h10m25 0h10m25 0h10m116 0h10m57 0h10m25 0h10m110 0h10m25 0h10m28 0h10m42 0h5q5 0 5-5m-1009 30q0 5 5 5h5m25 0h10m62 0h10m25 0h10m116 0h30m38 0h39m-92 0q5 0 5 5v20q0 5 5 5h5m57 0h5q5 0 5-5v-20q0-5 5-5m5 0h10m25 0h30m130 0h56m-201 0q5 0 5 5v20q0 5 5 5h5m166 0h5q5 0 5-5v-20q0-5 5-5m5 0h10m25 0h10m28 0h10m57 0h238q5 0 5-5m-1009 60q0 5 5 5h5m25 0h10m47 0h10m138 0h10m25 0h10m28 0h10m42 0h639q5 0 5-5m-1009 30q0 5 5 5h5m25 0h10m54 0h10m138 0h10m25 0h10m28 0h10m66 0h608q5 0 5-5m-1009 30q0 5 5 5h5m25 0h10m53 0h10m66 0h10m110 0h10m25 0h10m28 0h10m42 0h585q5 0 5-5m-1009 30q0 5 5 5h5m25 0h10m90 0h10m62 0h10m158 0h10m25 0h10m28 0h10m42 0h504q5 0 5-5m-1014-715q5 0 5 5v740q0 5 5 5h5m25 0h10m110 0h10m25 0h10m62 0h10m90 0h10m25 0h10m110 0h10m25 0h10m28 0h10m42 0h362q5 0 5-5v-740q0-5 5-5m5 0h5"/><rect class="l" x="25" y="5" width="25" height="25" rx="7"/><text class="j" x="35" y="22">(</text><rect class="l" x="60" y="5" width="49" height="25" rx="7"/><text class="j" x="70" y="22">any?</text><rect class="l" x="119" y="5" width="25" height="25" rx="7"/><text class="j" x="129" y="22">[</text><a xlink:href="#symbol"><rect class="r" x="154" y="5" width="62" height="25"/><text class="j" x="164" y="22">symbol</text></a><a xlink:href="#set"><rect class="r" x="246" y="5" width="38" height="25"/><text class="j" x="256" y="22">set</text></a><a xlink:href="#vector"><rect class="r" x="246" y="35" width="57" height="25"/><text class="j" x="256" y="52">vector</text></a><rect class="l" x="333" y="5" width="25" height="25" rx="7"/><text class="j" x="343" y="22">]</text><a xlink:href="#boolean-expression"><rect class="r" x="368" y="5" width="134" height="25"/><text class="j" x="378" y="22">boolean-expression</text></a><rect class="l" x="512" y="5" width="25" height="25" rx="7"/><text class="j" x="522" y="22">)</text><rect class="l" x="547" y="5" width="28" height="25" rx="7"/><text class="j" x="557" y="22">»</text><a xlink:href="#boolean"><rect class="r" x="585" y="5" width="66" height="25"/><text class="j" x="595" y="22">boolean</text></a><rect class="l" x="25" y="65" width="25" height="25" rx="7"/><text class="j" x="35" y="82">(</text><rect class="l" x="60" y="65" width="60" height="25" rx="7"/><text class="j" x="70" y="82">every?</text><rect class="l" x="130" y="65" width="25" height="25" rx="7"/><text class="j" x="140" y="82">[</text><a xlink:href="#symbol"><rect class="r" x="165" y="65" width="62" height="25"/><text class="j" x="175" y="82">symbol</text></a><a xlink:href="#set"><rect class="r" x="257" y="65" width="38" height="25"/><text class="j" x="267" y="82">set</text></a><a xlink:href="#vector"><rect class="r" x="257" y="95" width="57" height="25"/><text class="j" x="267" y="112">vector</text></a><rect class="l" x="344" y="65" width="25" height="25" rx="7"/><text class="j" x="354" y="82">]</text><a xlink:href="#boolean-expression"><rect class="r" x="379" y="65" width="134" height="25"/><text class="j" x="389" y="82">boolean-expression</text></a><rect class="l" x="523" y="65" width="25" height="25" rx="7"/><text class="j" x="533" y="82">)</text><rect class="l" x="558" y="65" width="28" height="25" rx="7"/><text class="j" x="568" y="82">»</text><a xlink:href="#boolean"><rect class="r" x="596" y="65" width="66" height="25"/><text class="j" x="606" y="82">boolean</text></a><rect class="l" x="25" y="125" width="25" height="25" rx="7"/><text class="j" x="35" y="142">(</text><rect class="l" x="60" y="125" width="47" height="25" rx="7"/><text class="j" x="70" y="142">filter</text><rect class="l" x="137" y="125" width="25" height="25" rx="7"/><text class="j" x="147" y="142">[</text><a xlink:href="#symbol:element"><rect class="r" x="172" y="125" width="116" height="25"/><text class="j" x="182" y="142">symbol:element</text></a><a xlink:href="#set"><rect class="r" x="298" y="125" width="38" height="25"/><text class="j" x="308" y="142">set</text></a><rect class="l" x="346" y="125" width="25" height="25" rx="7"/><text class="j" x="356" y="142">]</text><a xlink:href="#boolean-expression"><rect class="r" x="381" y="125" width="134" height="25"/><text class="j" x="391" y="142">boolean-expression</text></a><rect class="l" x="525" y="125" width="25" height="25" rx="7"/><text class="j" x="535" y="142">)</text><rect class="l" x="560" y="125" width="28" height="25" rx="7"/><text class="j" x="570" y="142">»</text><a xlink:href="#set"><rect class="r" x="598" y="125" width="38" height="25"/><text class="j" x="608" y="142">set</text></a><rect class="l" x="137" y="155" width="25" height="25" rx="7"/><text class="j" x="147" y="172">[</text><a xlink:href="#symbol:element"><rect class="r" x="172" y="155" width="116" height="25"/><text class="j" x="182" y="172">symbol:element</text></a><a xlink:href="#vector"><rect class="r" x="298" y="155" width="57" height="25"/><text class="j" x="308" y="172">vector</text></a><rect class="l" x="365" y="155" width="25" height="25" rx="7"/><text class="j" x="375" y="172">]</text><a xlink:href="#boolean-expression"><rect class="r" x="400" y="155" width="134" height="25"/><text class="j" x="410" y="172">boolean-expression</text></a><rect class="l" x="544" y="155" width="25" height="25" rx="7"/><text class="j" x="554" y="172">)</text><rect class="l" x="579" y="155" width="28" height="25" rx="7"/><text class="j" x="589" y="172">»</text><a xlink:href="#vector"><rect class="r" x="617" y="155" width="57" height="25"/><text class="j" x="627" y="172">vector</text></a><rect class="l" x="25" y="185" width="25" height="25" rx="7"/><text class="j" x="35" y="202">(</text><rect class="l" x="60" y="185" width="39" height="25" rx="7"/><text class="j" x="70" y="202">get</text><a xlink:href="#instance"><rect class="r" x="129" y="185" width="70" height="25"/><text class="j" x="139" y="202">instance</text></a><a xlink:href="#keyword:instance-field"><rect class="r" x="209" y="185" width="154" height="25"/><text class="j" x="219" y="202">keyword:instance-field</text></a><rect class="l" x="373" y="185" width="25" height="25" rx="7"/><text class="j" x="383" y="202">)</text><rect class="l" x="408" y="185" width="28" height="25" rx="7"/><text class="j" x="418" y="202">»</text><a xlink:href="#any"><rect class="r" x="446" y="185" width="42" height="25"/><text class="j" x="456" y="202">any</text></a><a xlink:href="#vector"><rect class="r" x="129" y="215" width="57" height="25"/><text class="j" x="139" y="232">vector</text></a><a xlink:href="#integer"><rect class="r" x="196" y="215" width="62" height="25"/><text class="j" x="206" y="232">integer</text></a><rect class="l" x="268" y="215" width="25" height="25" rx="7"/><text class="j" x="278" y="232">)</text><rect class="l" x="303" y="215" width="28" height="25" rx="7"/><text class="j" x="313" y="232">»</text><a xlink:href="#value"><rect class="r" x="341" y="215" width="52" height="25"/><text class="j" x="351" y="232">value</text></a><rect class="l" x="25" y="260" width="25" height="25" rx="7"/><text class="j" x="35" y="277">(</text><rect class="l" x="60" y="260" width="55" height="25" rx="7"/><text class="j" x="70" y="277">get-in</text><a xlink:href="#instance:target"><rect class="r" x="145" y="260" width="111" height="25"/><text class="j" x="155" y="277">instance:target</text></a><a xlink:href="#vector:target"><rect class="r" x="145" y="290" width="98" height="25"/><text class="j" x="155" y="307">vector:target</text></a><rect class="l" x="286" y="260" width="25" height="25" rx="7"/><text class="j" x="296" y="277">[</text><a xlink:href="#integer"><rect class="r" x="341" y="260" width="62" height="25"/><text class="j" x="351" y="277">integer</text></a><a xlink:href="#keyword:instance-field"><rect class="r" x="341" y="290" width="154" height="25"/><text class="j" x="351" y="307">keyword:instance-field</text></a><a xlink:href="#integer"><rect class="r" x="585" y="260" width="62" height="25"/><text class="j" x="595" y="277">integer</text></a><a xlink:href="#keyword:instance-field"><rect class="r" x="585" y="290" width="154" height="25"/><text class="j" x="595" y="307">keyword:instance-field</text></a><rect class="l" x="809" y="260" width="25" height="25" rx="7"/><text class="j" x="819" y="277">]</text><rect class="l" x="844" y="260" width="25" height="25" rx="7"/><text class="j" x="854" y="277">)</text><rect class="l" x="879" y="260" width="28" height="25" rx="7"/><text class="j" x="889" y="277">»</text><a xlink:href="#any"><rect class="r" x="917" y="260" width="42" height="25"/><text class="j" x="927" y="277">any</text></a><rect class="l" x="25" y="335" width="25" height="25" rx="7"/><text class="j" x="35" y="352">(</text><rect class="l" x="60" y="335" width="27" height="25" rx="7"/><text class="j" x="70" y="352">if</text><a xlink:href="#boolean"><rect class="r" x="97" y="335" width="66" height="25"/><text class="j" x="107" y="352">boolean</text></a><a xlink:href="#any-expression"><rect class="r" x="173" y="335" width="110" height="25"/><text class="j" x="183" y="352">any-expression</text></a><a xlink:href="#any-expression"><rect class="r" x="293" y="335" width="110" height="25"/><text class="j" x="303" y="352">any-expression</text></a><rect class="l" x="413" y="335" width="25" height="25" rx="7"/><text class="j" x="423" y="352">)</text><rect class="l" x="448" y="335" width="28" height="25" rx="7"/><text class="j" x="458" y="352">»</text><a xlink:href="#any"><rect class="r" x="486" y="335" width="42" height="25"/><text class="j" x="496" y="352">any</text></a><rect class="l" x="25" y="365" width="25" height="25" rx="7"/><text class="j" x="35" y="382">(</text><rect class="l" x="60" y="365" width="64" height="25" rx="7"/><text class="j" x="70" y="382">if-value</text><a xlink:href="#symbol"><rect class="r" x="134" y="365" width="62" height="25"/><text class="j" x="144" y="382">symbol</text></a><a xlink:href="#any-expression"><rect class="r" x="206" y="365" width="110" height="25"/><text class="j" x="216" y="382">any-expression</text></a><a xlink:href="#any-expression"><rect class="r" x="326" y="365" width="110" height="25"/><text class="j" x="336" y="382">any-expression</text></a><rect class="l" x="446" y="365" width="25" height="25" rx="7"/><text class="j" x="456" y="382">)</text><rect class="l" x="481" y="365" width="28" height="25" rx="7"/><text class="j" x="491" y="382">»</text><a xlink:href="#any"><rect class="r" x="519" y="365" width="42" height="25"/><text class="j" x="529" y="382">any</text></a><rect class="l" x="25" y="395" width="25" height="25" rx="7"/><text class="j" x="35" y="412">(</text><rect class="l" x="60" y="395" width="84" height="25" rx="7"/><text class="j" x="70" y="412">if-value-let</text><rect class="l" x="154" y="395" width="25" height="25" rx="7"/><text class="j" x="164" y="412">[</text><a xlink:href="#symbol"><rect class="r" x="189" y="395" width="62" height="25"/><text class="j" x="199" y="412">symbol</text></a><a xlink:href="#any:binding"><rect class="r" x="261" y="395" width="90" height="25"/><text class="j" x="271" y="412">any:binding</text></a><rect class="l" x="361" y="395" width="25" height="25" rx="7"/><text class="j" x="371" y="412">]</text><a xlink:href="#any-expression"><rect class="r" x="396" y="395" width="110" height="25"/><text class="j" x="406" y="412">any-expression</text></a><a xlink:href="#any-expression"><rect class="r" x="516" y="395" width="110" height="25"/><text class="j" x="526" y="412">any-expression</text></a><rect class="l" x="636" y="395" width="25" height="25" rx="7"/><text class="j" x="646" y="412">)</text><rect class="l" x="671" y="395" width="28" height="25" rx="7"/><text class="j" x="681" y="412">»</text><a xlink:href="#any"><rect class="r" x="709" y="395" width="42" height="25"/><text class="j" x="719" y="412">any</text></a><rect class="l" x="25" y="440" width="25" height="25" rx="7"/><text class="j" x="35" y="457">(</text><rect class="l" x="60" y="440" width="35" height="25" rx="7"/><text class="j" x="70" y="457">let</text><rect class="l" x="105" y="440" width="25" height="25" rx="7"/><text class="j" x="115" y="457">[</text><a xlink:href="#symbol"><rect class="r" x="140" y="440" width="62" height="25"/><text class="j" x="150" y="457">symbol</text></a><a xlink:href="#value"><rect class="r" x="212" y="440" width="52" height="25"/><text class="j" x="222" y="457">value</text></a><a xlink:href="#symbol"><rect class="r" x="314" y="440" width="62" height="25"/><text class="j" x="324" y="457">symbol</text></a><a xlink:href="#value"><rect class="r" x="386" y="440" width="52" height="25"/><text class="j" x="396" y="457">value</text></a><rect class="l" x="488" y="440" width="25" height="25" rx="7"/><text class="j" x="498" y="457">]</text><a xlink:href="#any-expression"><rect class="r" x="523" y="440" width="110" height="25"/><text class="j" x="533" y="457">any-expression</text></a><rect class="l" x="643" y="440" width="25" height="25" rx="7"/><text class="j" x="653" y="457">)</text><rect class="l" x="678" y="440" width="28" height="25" rx="7"/><text class="j" x="688" y="457">»</text><a xlink:href="#any"><rect class="r" x="716" y="440" width="42" height="25"/><text class="j" x="726" y="457">any</text></a><rect class="l" x="25" y="485" width="25" height="25" rx="7"/><text class="j" x="35" y="502">(</text><rect class="l" x="60" y="485" width="46" height="25" rx="7"/><text class="j" x="70" y="502">map</text><rect class="l" x="136" y="485" width="25" height="25" rx="7"/><text class="j" x="146" y="502">[</text><a xlink:href="#symbol:element"><rect class="r" x="171" y="485" width="116" height="25"/><text class="j" x="181" y="502">symbol:element</text></a><a xlink:href="#set"><rect class="r" x="297" y="485" width="38" height="25"/><text class="j" x="307" y="502">set</text></a><rect class="l" x="345" y="485" width="25" height="25" rx="7"/><text class="j" x="355" y="502">]</text><a xlink:href="#value-expression"><rect class="r" x="380" y="485" width="120" height="25"/><text class="j" x="390" y="502">value-expression</text></a><rect class="l" x="510" y="485" width="25" height="25" rx="7"/><text class="j" x="520" y="502">)</text><rect class="l" x="545" y="485" width="28" height="25" rx="7"/><text class="j" x="555" y="502">»</text><a xlink:href="#set"><rect class="r" x="583" y="485" width="38" height="25"/><text class="j" x="593" y="502">set</text></a><rect class="l" x="136" y="515" width="25" height="25" rx="7"/><text class="j" x="146" y="532">[</text><a xlink:href="#symbol:element"><rect class="r" x="171" y="515" width="116" height="25"/><text class="j" x="181" y="532">symbol:element</text></a><a xlink:href="#vector"><rect class="r" x="297" y="515" width="57" height="25"/><text class="j" x="307" y="532">vector</text></a><rect class="l" x="364" y="515" width="25" height="25" rx="7"/><text class="j" x="374" y="532">]</text><a xlink:href="#value-expression"><rect class="r" x="399" y="515" width="120" height="25"/><text class="j" x="409" y="532">value-expression</text></a><rect class="l" x="529" y="515" width="25" height="25" rx="7"/><text class="j" x="539" y="532">)</text><rect class="l" x="564" y="515" width="28" height="25" rx="7"/><text class="j" x="574" y="532">»</text><a xlink:href="#vector"><rect class="r" x="602" y="515" width="57" height="25"/><text class="j" x="612" y="532">vector</text></a><rect class="l" x="25" y="545" width="25" height="25" rx="7"/><text class="j" x="35" y="562">(</text><rect class="l" x="60" y="545" width="60" height="25" rx="7"/><text class="j" x="70" y="562">reduce</text><rect class="l" x="130" y="545" width="25" height="25" rx="7"/><text class="j" x="140" y="562">[</text><a xlink:href="#symbol:accumulator"><rect class="r" x="165" y="545" width="141" height="25"/><text class="j" x="175" y="562">symbol:accumulator</text></a><a xlink:href="#value:accumulator-init"><rect class="r" x="316" y="545" width="155" height="25"/><text class="j" x="326" y="562">value:accumulator-init</text></a><rect class="l" x="481" y="545" width="25" height="25" rx="7"/><text class="j" x="491" y="562">]</text><rect class="l" x="516" y="545" width="25" height="25" rx="7"/><text class="j" x="526" y="562">[</text><a xlink:href="#symbol:element"><rect class="r" x="551" y="545" width="116" height="25"/><text class="j" x="561" y="562">symbol:element</text></a><a xlink:href="#vector"><rect class="r" x="677" y="545" width="57" height="25"/><text class="j" x="687" y="562">vector</text></a><rect class="l" x="744" y="545" width="25" height="25" rx="7"/><text class="j" x="754" y="562">]</text><a xlink:href="#any-expression"><rect class="r" x="779" y="545" width="110" height="25"/><text class="j" x="789" y="562">any-expression</text></a><rect class="l" x="899" y="545" width="25" height="25" rx="7"/><text class="j" x="909" y="562">)</text><rect class="l" x="934" y="545" width="28" height="25" rx="7"/><text class="j" x="944" y="562">»</text><a xlink:href="#any"><rect class="r" x="972" y="545" width="42" height="25"/><text class="j" x="982" y="562">any</text></a><rect class="l" x="25" y="575" width="25" height="25" rx="7"/><text class="j" x="35" y="592">(</text><rect class="l" x="60" y="575" width="62" height="25" rx="7"/><text class="j" x="70" y="592">sort-by</text><rect class="l" x="132" y="575" width="25" height="25" rx="7"/><text class="j" x="142" y="592">[</text><a xlink:href="#symbol:element"><rect class="r" x="167" y="575" width="116" height="25"/><text class="j" x="177" y="592">symbol:element</text></a><a xlink:href="#set"><rect class="r" x="313" y="575" width="38" height="25"/><text class="j" x="323" y="592">set</text></a><a xlink:href="#vector"><rect class="r" x="313" y="605" width="57" height="25"/><text class="j" x="323" y="622">vector</text></a><rect class="l" x="400" y="575" width="25" height="25" rx="7"/><text class="j" x="410" y="592">]</text><a xlink:href="#integer-expression"><rect class="r" x="455" y="575" width="130" height="25"/><text class="j" x="465" y="592">integer-expression</text></a><a xlink:href="#fixed-decimal-expression"><rect class="r" x="455" y="605" width="166" height="25"/><text class="j" x="465" y="622">fixed-decimal-expression</text></a><rect class="l" x="651" y="575" width="25" height="25" rx="7"/><text class="j" x="661" y="592">)</text><rect class="l" x="686" y="575" width="28" height="25" rx="7"/><text class="j" x="696" y="592">»</text><a xlink:href="#vector"><rect class="r" x="724" y="575" width="57" height="25"/><text class="j" x="734" y="592">vector</text></a><rect class="l" x="25" y="635" width="25" height="25" rx="7"/><text class="j" x="35" y="652">(</text><rect class="l" x="60" y="635" width="47" height="25" rx="7"/><text class="j" x="70" y="652">valid</text><a xlink:href="#instance-expression"><rect class="r" x="117" y="635" width="138" height="25"/><text class="j" x="127" y="652">instance-expression</text></a><rect class="l" x="265" y="635" width="25" height="25" rx="7"/><text class="j" x="275" y="652">)</text><rect class="l" x="300" y="635" width="28" height="25" rx="7"/><text class="j" x="310" y="652">»</text><a xlink:href="#any"><rect class="r" x="338" y="635" width="42" height="25"/><text class="j" x="348" y="652">any</text></a><rect class="l" x="25" y="665" width="25" height="25" rx="7"/><text class="j" x="35" y="682">(</text><rect class="l" x="60" y="665" width="54" height="25" rx="7"/><text class="j" x="70" y="682">valid?</text><a xlink:href="#instance-expression"><rect class="r" x="124" y="665" width="138" height="25"/><text class="j" x="134" y="682">instance-expression</text></a><rect class="l" x="272" y="665" width="25" height="25" rx="7"/><text class="j" x="282" y="682">)</text><rect class="l" x="307" y="665" width="28" height="25" rx="7"/><text class="j" x="317" y="682">»</text><a xlink:href="#boolean"><rect class="r" x="345" y="665" width="66" height="25"/><text class="j" x="355" y="682">boolean</text></a><rect class="l" x="25" y="695" width="25" height="25" rx="7"/><text class="j" x="35" y="712">(</text><rect class="l" x="60" y="695" width="53" height="25" rx="7"/><text class="j" x="70" y="712">when</text><a xlink:href="#boolean"><rect class="r" x="123" y="695" width="66" height="25"/><text class="j" x="133" y="712">boolean</text></a><a xlink:href="#any-expression"><rect class="r" x="199" y="695" width="110" height="25"/><text class="j" x="209" y="712">any-expression</text></a><rect class="l" x="319" y="695" width="25" height="25" rx="7"/><text class="j" x="329" y="712">)</text><rect class="l" x="354" y="695" width="28" height="25" rx="7"/><text class="j" x="364" y="712">»</text><a xlink:href="#any"><rect class="r" x="392" y="695" width="42" height="25"/><text class="j" x="402" y="712">any</text></a><rect class="l" x="25" y="725" width="25" height="25" rx="7"/><text class="j" x="35" y="742">(</text><rect class="l" x="60" y="725" width="90" height="25" rx="7"/><text class="j" x="70" y="742">when-value</text><a xlink:href="#symbol"><rect class="r" x="160" y="725" width="62" height="25"/><text class="j" x="170" y="742">symbol</text></a><a xlink:href="#any-expression:binding"><rect class="r" x="232" y="725" width="158" height="25"/><text class="j" x="242" y="742">any-expression:binding</text></a><rect class="l" x="400" y="725" width="25" height="25" rx="7"/><text class="j" x="410" y="742">)</text><rect class="l" x="435" y="725" width="28" height="25" rx="7"/><text class="j" x="445" y="742">»</text><a xlink:href="#any"><rect class="r" x="473" y="725" width="42" height="25"/><text class="j" x="483" y="742">any</text></a><rect class="l" x="25" y="755" width="25" height="25" rx="7"/><text class="j" x="35" y="772">(</text><rect class="l" x="60" y="755" width="110" height="25" rx="7"/><text class="j" x="70" y="772">when-value-let</text><rect class="l" x="180" y="755" width="25" height="25" rx="7"/><text class="j" x="190" y="772">[</text><a xlink:href="#symbol"><rect class="r" x="215" y="755" width="62" height="25"/><text class="j" x="225" y="772">symbol</text></a><a xlink:href="#any:binding"><rect class="r" x="287" y="755" width="90" height="25"/><text class="j" x="297" y="772">any:binding</text></a><rect class="l" x="387" y="755" width="25" height="25" rx="7"/><text class="j" x="397" y="772">]</text><a xlink:href="#any-expression"><rect class="r" x="422" y="755" width="110" height="25"/><text class="j" x="432" y="772">any-expression</text></a><rect class="l" x="542" y="755" width="25" height="25" rx="7"/><text class="j" x="552" y="772">)</text><rect class="l" x="577" y="755" width="28" height="25" rx="7"/><text class="j" x="587" y="772">»</text><a xlink:href="#any"><rect class="r" x="615" y="755" width="42" height="25"/><text class="j" x="625" y="772">any</text></a></svg>