<svg version="1.1" xmlns:xlink="http://www.w3.org/1999/xlink" xmlns="http://www.w3.org/2000/svg" width="1015" height="785" viewbox="0 0 1015 785"><defs><style type="text/css">.c{fill: none; stroke: #888888; stroke-width: 2px;}.i{fill:#000000;font-family:Verdana,Sans-serif;font-size:12px;}.l{fill:#90d9ff;stroke:#222222;}.r{fill:#d3f0ff;stroke:#222222;}</style></defs><path class="c" d="M0 18h25m70 0h10m24 0h10m146 0h10m28 0h10m42 0h635m-995 25q0 5 5 5h5m57 0h10m25 0h10m62 0h10m25 0h10m28 0h10m52 0h671q5 0 5-5m-985 45q0 5 5 5h25m111 0h10m24 0h10m146 0h20m-336 0q5 0 5 5v20q0 5 5 5h5m98 0h10m25 0h10m62 0h10m25 0h66q5 0 5-5v-20q0-5 5-5m5 0h50m-5 0q-5 0-5-5v-17q0-5 5-5h230q5 0 5 5v17q0 5-5 5m-225 0h20m24 0h10m146 0h20m-215 0q5 0 5 5v20q0 5 5 5h5m25 0h10m62 0h10m25 0h53q5 0 5-5v-20q0-5 5-5m5 0h40m-295 0q5 0 5 5v38q0 5 5 5h270q5 0 5-5v-38q0-5 5-5m5 0h10m28 0h10m42 0h229q5 0 5-5m-985 75q0 5 5 5h5m49 0h10m25 0h10m62 0h10m31 0h30m38 0h39m-92 0q5 0 5 5v20q0 5 5 5h5m57 0h5q5 0 5-5v-20q0-5 5-5m5 0h10m25 0h10m134 0h10m28 0h10m66 0h373q5 0 5-5m-985 60q0 5 5 5h5m60 0h10m25 0h10m62 0h10m31 0h30m38 0h39m-92 0q5 0 5 5v20q0 5 5 5h5m57 0h5q5 0 5-5v-20q0-5 5-5m5 0h10m25 0h10m134 0h10m28 0h10m66 0h362q5 0 5-5m-985 60q0 5 5 5h5m47 0h10m25 0h10m62 0h10m31 0h10m38 0h10m25 0h10m134 0h10m28 0h10m38 0h462q5 0 5-5m-985 30q0 5 5 5h5m47 0h10m25 0h10m62 0h10m31 0h10m57 0h10m25 0h10m134 0h10m28 0h10m57 0h424q5 0 5-5m-985 30q0 5 5 5h5m27 0h10m25 0h10m66 0h10m25 0h10m110 0h10m43 0h10m110 0h10m28 0h10m42 0h414q5 0 5-5m-985 30q0 5 5 5h5m60 0h10m25 0h10m62 0h10m25 0h10m110 0h10m43 0h10m110 0h10m28 0h10m42 0h385q5 0 5-5m-985 30q0 5 5 5h5m79 0h10m25 0h10m62 0h10m30 0h10m90 0h10m25 0h10m110 0h10m43 0h10m110 0h10m28 0h10m42 0h226q5 0 5-5m-985 45q0 5 5 5h5m28 0h10m62 0h10m30 0h10m52 0h10m25 0h50m-5 0q-5 0-5-5v-17q0-5 5-5h209q5 0 5 5v17q0 5-5 5m-142 0h10m30 0h10m52 0h10m25 0h40m-274 0q5 0 5 5v8q0 5 5 5h249q5 0 5-5v-8q0-5 5-5m5 0h10m110 0h10m28 0h10m28 0h10m42 0h196q5 0 5-5m-985 45q0 5 5 5h5m46 0h10m25 0h10m116 0h10m31 0h10m38 0h10m25 0h10m120 0h10m28 0h10m38 0h423q5 0 5-5m-985 30q0 5 5 5h5m46 0h10m25 0h10m116 0h10m31 0h10m57 0h10m25 0h10m120 0h10m28 0h10m57 0h385q5 0 5-5m-985 30q0 5 5 5h5m60 0h10m25 0h10m141 0h10m30 0h10m155 0h10m25 0h10m116 0h10m31 0h10m57 0h10m25 0h10m110 0h10m28 0h10m42 0h5q5 0 5-5m-985 30q0 5 5 5h5m58 0h10m25 0h10m116 0h10m31 0h30m38 0h39m-92 0q5 0 5 5v20q0 5 5 5h5m57 0h5q5 0 5-5v-20q0-5 5-5m5 0h10m25 0h30m130 0h56m-201 0q5 0 5 5v20q0 5 5 5h5m166 0h5q5 0 5-5v-20q0-5 5-5m5 0h10m28 0h10m57 0h247q5 0 5-5m-985 60q0 5 5 5h5m47 0h10m138 0h10m28 0h10m42 0h685q5 0 5-5m-985 30q0 5 5 5h5m54 0h10m138 0h10m28 0h10m66 0h654q5 0 5-5m-985 30q0 5 5 5h5m53 0h10m25 0h10m66 0h10m25 0h10m110 0h10m28 0h10m42 0h561q5 0 5-5m-985 30q0 5 5 5h5m86 0h10m25 0h10m62 0h10m25 0h10m110 0h10m28 0h10m42 0h532q5 0 5-5m-990-715q5 0 5 5v740q0 5 5 5h5m105 0h10m25 0h10m62 0h10m30 0h10m90 0h10m25 0h10m110 0h10m28 0h10m42 0h373q5 0 5-5v-740q0-5 5-5m5 0h5"/><a xlink:href="#instance"><rect class="r" x="25" y="5" width="70" height="25"/><text class="i" x="35" y="22">instance</text></a><rect class="l" x="105" y="5" width="24" height="25" rx="7"/><text class="i" x="115" y="22">.</text><a xlink:href="#symbol:instance-field"><rect class="r" x="139" y="5" width="146" height="25"/><text class="i" x="149" y="22">symbol:instance-field</text></a><rect class="l" x="295" y="5" width="28" height="25" rx="7"/><text class="i" x="305" y="22">»</text><a xlink:href="#any"><rect class="r" x="333" y="5" width="42" height="25"/><text class="i" x="343" y="22">any</text></a><a xlink:href="#vector"><rect class="r" x="25" y="35" width="57" height="25"/><text class="i" x="35" y="52">vector</text></a><rect class="l" x="92" y="35" width="25" height="25" rx="7"/><text class="i" x="102" y="52">[</text><a xlink:href="#integer"><rect class="r" x="127" y="35" width="62" height="25"/><text class="i" x="137" y="52">integer</text></a><rect class="l" x="199" y="35" width="25" height="25" rx="7"/><text class="i" x="209" y="52">]</text><rect class="l" x="234" y="35" width="28" height="25" rx="7"/><text class="i" x="244" y="52">»</text><a xlink:href="#value"><rect class="r" x="272" y="35" width="52" height="25"/><text class="i" x="282" y="52">value</text></a><a xlink:href="#instance:target"><rect class="r" x="45" y="80" width="111" height="25"/><text class="i" x="55" y="97">instance:target</text></a><rect class="l" x="166" y="80" width="24" height="25" rx="7"/><text class="i" x="176" y="97">.</text><a xlink:href="#symbol:instance-field"><rect class="r" x="200" y="80" width="146" height="25"/><text class="i" x="210" y="97">symbol:instance-field</text></a><a xlink:href="#vector:target"><rect class="r" x="45" y="110" width="98" height="25"/><text class="i" x="55" y="127">vector:target</text></a><rect class="l" x="153" y="110" width="25" height="25" rx="7"/><text class="i" x="163" y="127">[</text><a xlink:href="#integer"><rect class="r" x="188" y="110" width="62" height="25"/><text class="i" x="198" y="127">integer</text></a><rect class="l" x="260" y="110" width="25" height="25" rx="7"/><text class="i" x="270" y="127">]</text><rect class="l" x="436" y="80" width="24" height="25" rx="7"/><text class="i" x="446" y="97">.</text><a xlink:href="#symbol:instance-field"><rect class="r" x="470" y="80" width="146" height="25"/><text class="i" x="480" y="97">symbol:instance-field</text></a><rect class="l" x="436" y="110" width="25" height="25" rx="7"/><text class="i" x="446" y="127">[</text><a xlink:href="#integer"><rect class="r" x="471" y="110" width="62" height="25"/><text class="i" x="481" y="127">integer</text></a><rect class="l" x="543" y="110" width="25" height="25" rx="7"/><text class="i" x="553" y="127">]</text><rect class="l" x="686" y="80" width="28" height="25" rx="7"/><text class="i" x="696" y="97">»</text><a xlink:href="#any"><rect class="r" x="724" y="80" width="42" height="25"/><text class="i" x="734" y="97">any</text></a><rect class="l" x="25" y="155" width="49" height="25" rx="7"/><text class="i" x="35" y="172">any?</text><rect class="l" x="84" y="155" width="25" height="25" rx="7"/><text class="i" x="94" y="172">(</text><a xlink:href="#symbol"><rect class="r" x="119" y="155" width="62" height="25"/><text class="i" x="129" y="172">symbol</text></a><rect class="l" x="191" y="155" width="31" height="25" rx="7"/><text class="i" x="201" y="172">in</text><a xlink:href="#set"><rect class="r" x="252" y="155" width="38" height="25"/><text class="i" x="262" y="172">set</text></a><a xlink:href="#vector"><rect class="r" x="252" y="185" width="57" height="25"/><text class="i" x="262" y="202">vector</text></a><rect class="l" x="339" y="155" width="25" height="25" rx="7"/><text class="i" x="349" y="172">)</text><a xlink:href="#boolean-expression"><rect class="r" x="374" y="155" width="134" height="25"/><text class="i" x="384" y="172">boolean-expression</text></a><rect class="l" x="518" y="155" width="28" height="25" rx="7"/><text class="i" x="528" y="172">»</text><a xlink:href="#boolean"><rect class="r" x="556" y="155" width="66" height="25"/><text class="i" x="566" y="172">boolean</text></a><rect class="l" x="25" y="215" width="60" height="25" rx="7"/><text class="i" x="35" y="232">every?</text><rect class="l" x="95" y="215" width="25" height="25" rx="7"/><text class="i" x="105" y="232">(</text><a xlink:href="#symbol"><rect class="r" x="130" y="215" width="62" height="25"/><text class="i" x="140" y="232">symbol</text></a><rect class="l" x="202" y="215" width="31" height="25" rx="7"/><text class="i" x="212" y="232">in</text><a xlink:href="#set"><rect class="r" x="263" y="215" width="38" height="25"/><text class="i" x="273" y="232">set</text></a><a xlink:href="#vector"><rect class="r" x="263" y="245" width="57" height="25"/><text class="i" x="273" y="262">vector</text></a><rect class="l" x="350" y="215" width="25" height="25" rx="7"/><text class="i" x="360" y="232">)</text><a xlink:href="#boolean-expression"><rect class="r" x="385" y="215" width="134" height="25"/><text class="i" x="395" y="232">boolean-expression</text></a><rect class="l" x="529" y="215" width="28" height="25" rx="7"/><text class="i" x="539" y="232">»</text><a xlink:href="#boolean"><rect class="r" x="567" y="215" width="66" height="25"/><text class="i" x="577" y="232">boolean</text></a><rect class="l" x="25" y="275" width="47" height="25" rx="7"/><text class="i" x="35" y="292">filter</text><rect class="l" x="82" y="275" width="25" height="25" rx="7"/><text class="i" x="92" y="292">(</text><a xlink:href="#symbol"><rect class="r" x="117" y="275" width="62" height="25"/><text class="i" x="127" y="292">symbol</text></a><rect class="l" x="189" y="275" width="31" height="25" rx="7"/><text class="i" x="199" y="292">in</text><a xlink:href="#set"><rect class="r" x="230" y="275" width="38" height="25"/><text class="i" x="240" y="292">set</text></a><rect class="l" x="278" y="275" width="25" height="25" rx="7"/><text class="i" x="288" y="292">)</text><a xlink:href="#boolean-expression"><rect class="r" x="313" y="275" width="134" height="25"/><text class="i" x="323" y="292">boolean-expression</text></a><rect class="l" x="457" y="275" width="28" height="25" rx="7"/><text class="i" x="467" y="292">»</text><a xlink:href="#set"><rect class="r" x="495" y="275" width="38" height="25"/><text class="i" x="505" y="292">set</text></a><rect class="l" x="25" y="305" width="47" height="25" rx="7"/><text class="i" x="35" y="322">filter</text><rect class="l" x="82" y="305" width="25" height="25" rx="7"/><text class="i" x="92" y="322">(</text><a xlink:href="#symbol"><rect class="r" x="117" y="305" width="62" height="25"/><text class="i" x="127" y="322">symbol</text></a><rect class="l" x="189" y="305" width="31" height="25" rx="7"/><text class="i" x="199" y="322">in</text><a xlink:href="#vector"><rect class="r" x="230" y="305" width="57" height="25"/><text class="i" x="240" y="322">vector</text></a><rect class="l" x="297" y="305" width="25" height="25" rx="7"/><text class="i" x="307" y="322">)</text><a xlink:href="#boolean-expression"><rect class="r" x="332" y="305" width="134" height="25"/><text class="i" x="342" y="322">boolean-expression</text></a><rect class="l" x="476" y="305" width="28" height="25" rx="7"/><text class="i" x="486" y="322">»</text><a xlink:href="#vector"><rect class="r" x="514" y="305" width="57" height="25"/><text class="i" x="524" y="322">vector</text></a><rect class="l" x="25" y="335" width="27" height="25" rx="7"/><text class="i" x="35" y="352">if</text><rect class="l" x="62" y="335" width="25" height="25" rx="7"/><text class="i" x="72" y="352">(</text><a xlink:href="#boolean"><rect class="r" x="97" y="335" width="66" height="25"/><text class="i" x="107" y="352">boolean</text></a><rect class="l" x="173" y="335" width="25" height="25" rx="7"/><text class="i" x="183" y="352">)</text><a xlink:href="#any-expression"><rect class="r" x="208" y="335" width="110" height="25"/><text class="i" x="218" y="352">any-expression</text></a><rect class="l" x="328" y="335" width="43" height="25" rx="7"/><text class="i" x="338" y="352">else</text><a xlink:href="#any-expression"><rect class="r" x="381" y="335" width="110" height="25"/><text class="i" x="391" y="352">any-expression</text></a><rect class="l" x="501" y="335" width="28" height="25" rx="7"/><text class="i" x="511" y="352">»</text><a xlink:href="#any"><rect class="r" x="539" y="335" width="42" height="25"/><text class="i" x="549" y="352">any</text></a><rect class="l" x="25" y="365" width="60" height="25" rx="7"/><text class="i" x="35" y="382">ifValue</text><rect class="l" x="95" y="365" width="25" height="25" rx="7"/><text class="i" x="105" y="382">(</text><a xlink:href="#symbol"><rect class="r" x="130" y="365" width="62" height="25"/><text class="i" x="140" y="382">symbol</text></a><rect class="l" x="202" y="365" width="25" height="25" rx="7"/><text class="i" x="212" y="382">)</text><a xlink:href="#any-expression"><rect class="r" x="237" y="365" width="110" height="25"/><text class="i" x="247" y="382">any-expression</text></a><rect class="l" x="357" y="365" width="43" height="25" rx="7"/><text class="i" x="367" y="382">else</text><a xlink:href="#any-expression"><rect class="r" x="410" y="365" width="110" height="25"/><text class="i" x="420" y="382">any-expression</text></a><rect class="l" x="530" y="365" width="28" height="25" rx="7"/><text class="i" x="540" y="382">»</text><a xlink:href="#any"><rect class="r" x="568" y="365" width="42" height="25"/><text class="i" x="578" y="382">any</text></a><rect class="l" x="25" y="395" width="79" height="25" rx="7"/><text class="i" x="35" y="412">ifValueLet</text><rect class="l" x="114" y="395" width="25" height="25" rx="7"/><text class="i" x="124" y="412">(</text><a xlink:href="#symbol"><rect class="r" x="149" y="395" width="62" height="25"/><text class="i" x="159" y="412">symbol</text></a><rect class="l" x="221" y="395" width="30" height="25" rx="7"/><text class="i" x="231" y="412">=</text><a xlink:href="#any:binding"><rect class="r" x="261" y="395" width="90" height="25"/><text class="i" x="271" y="412">any:binding</text></a><rect class="l" x="361" y="395" width="25" height="25" rx="7"/><text class="i" x="371" y="412">)</text><a xlink:href="#any-expression"><rect class="r" x="396" y="395" width="110" height="25"/><text class="i" x="406" y="412">any-expression</text></a><rect class="l" x="516" y="395" width="43" height="25" rx="7"/><text class="i" x="526" y="412">else</text><a xlink:href="#any-expression"><rect class="r" x="569" y="395" width="110" height="25"/><text class="i" x="579" y="412">any-expression</text></a><rect class="l" x="689" y="395" width="28" height="25" rx="7"/><text class="i" x="699" y="412">»</text><a xlink:href="#any"><rect class="r" x="727" y="395" width="42" height="25"/><text class="i" x="737" y="412">any</text></a><rect class="l" x="25" y="440" width="28" height="25" rx="7"/><text class="i" x="35" y="457">{</text><a xlink:href="#symbol"><rect class="r" x="63" y="440" width="62" height="25"/><text class="i" x="73" y="457">symbol</text></a><rect class="l" x="135" y="440" width="30" height="25" rx="7"/><text class="i" x="145" y="457">=</text><a xlink:href="#value"><rect class="r" x="175" y="440" width="52" height="25"/><text class="i" x="185" y="457">value</text></a><rect class="l" x="237" y="440" width="25" height="25" rx="7"/><text class="i" x="247" y="457">;</text><a xlink:href="#symbol"><rect class="r" x="312" y="440" width="62" height="25"/><text class="i" x="322" y="457">symbol</text></a><rect class="l" x="384" y="440" width="30" height="25" rx="7"/><text class="i" x="394" y="457">=</text><a xlink:href="#value"><rect class="r" x="424" y="440" width="52" height="25"/><text class="i" x="434" y="457">value</text></a><rect class="l" x="486" y="440" width="25" height="25" rx="7"/><text class="i" x="496" y="457">;</text><a xlink:href="#any-expression"><rect class="r" x="561" y="440" width="110" height="25"/><text class="i" x="571" y="457">any-expression</text></a><rect class="l" x="681" y="440" width="28" height="25" rx="7"/><text class="i" x="691" y="457">}</text><rect class="l" x="719" y="440" width="28" height="25" rx="7"/><text class="i" x="729" y="457">»</text><a xlink:href="#any"><rect class="r" x="757" y="440" width="42" height="25"/><text class="i" x="767" y="457">any</text></a><rect class="l" x="25" y="485" width="46" height="25" rx="7"/><text class="i" x="35" y="502">map</text><rect class="l" x="81" y="485" width="25" height="25" rx="7"/><text class="i" x="91" y="502">(</text><a xlink:href="#symbol:element"><rect class="r" x="116" y="485" width="116" height="25"/><text class="i" x="126" y="502">symbol:element</text></a><rect class="l" x="242" y="485" width="31" height="25" rx="7"/><text class="i" x="252" y="502">in</text><a xlink:href="#set"><rect class="r" x="283" y="485" width="38" height="25"/><text class="i" x="293" y="502">set</text></a><rect class="l" x="331" y="485" width="25" height="25" rx="7"/><text class="i" x="341" y="502">)</text><a xlink:href="#value-expression"><rect class="r" x="366" y="485" width="120" height="25"/><text class="i" x="376" y="502">value-expression</text></a><rect class="l" x="496" y="485" width="28" height="25" rx="7"/><text class="i" x="506" y="502">»</text><a xlink:href="#set"><rect class="r" x="534" y="485" width="38" height="25"/><text class="i" x="544" y="502">set</text></a><rect class="l" x="25" y="515" width="46" height="25" rx="7"/><text class="i" x="35" y="532">map</text><rect class="l" x="81" y="515" width="25" height="25" rx="7"/><text class="i" x="91" y="532">(</text><a xlink:href="#symbol:element"><rect class="r" x="116" y="515" width="116" height="25"/><text class="i" x="126" y="532">symbol:element</text></a><rect class="l" x="242" y="515" width="31" height="25" rx="7"/><text class="i" x="252" y="532">in</text><a xlink:href="#vector"><rect class="r" x="283" y="515" width="57" height="25"/><text class="i" x="293" y="532">vector</text></a><rect class="l" x="350" y="515" width="25" height="25" rx="7"/><text class="i" x="360" y="532">)</text><a xlink:href="#value-expression"><rect class="r" x="385" y="515" width="120" height="25"/><text class="i" x="395" y="532">value-expression</text></a><rect class="l" x="515" y="515" width="28" height="25" rx="7"/><text class="i" x="525" y="532">»</text><a xlink:href="#vector"><rect class="r" x="553" y="515" width="57" height="25"/><text class="i" x="563" y="532">vector</text></a><rect class="l" x="25" y="545" width="60" height="25" rx="7"/><text class="i" x="35" y="562">reduce</text><rect class="l" x="95" y="545" width="25" height="25" rx="7"/><text class="i" x="105" y="562">(</text><a xlink:href="#symbol:accumulator"><rect class="r" x="130" y="545" width="141" height="25"/><text class="i" x="140" y="562">symbol:accumulator</text></a><rect class="l" x="281" y="545" width="30" height="25" rx="7"/><text class="i" x="291" y="562">=</text><a xlink:href="#value:accumulator-init"><rect class="r" x="321" y="545" width="155" height="25"/><text class="i" x="331" y="562">value:accumulator-init</text></a><rect class="l" x="486" y="545" width="25" height="25" rx="7"/><text class="i" x="496" y="562">;</text><a xlink:href="#symbol:element"><rect class="r" x="521" y="545" width="116" height="25"/><text class="i" x="531" y="562">symbol:element</text></a><rect class="l" x="647" y="545" width="31" height="25" rx="7"/><text class="i" x="657" y="562">in</text><a xlink:href="#vector"><rect class="r" x="688" y="545" width="57" height="25"/><text class="i" x="698" y="562">vector</text></a><rect class="l" x="755" y="545" width="25" height="25" rx="7"/><text class="i" x="765" y="562">)</text><a xlink:href="#any-expression"><rect class="r" x="790" y="545" width="110" height="25"/><text class="i" x="800" y="562">any-expression</text></a><rect class="l" x="910" y="545" width="28" height="25" rx="7"/><text class="i" x="920" y="562">»</text><a xlink:href="#any"><rect class="r" x="948" y="545" width="42" height="25"/><text class="i" x="958" y="562">any</text></a><rect class="l" x="25" y="575" width="58" height="25" rx="7"/><text class="i" x="35" y="592">sortBy</text><rect class="l" x="93" y="575" width="25" height="25" rx="7"/><text class="i" x="103" y="592">(</text><a xlink:href="#symbol:element"><rect class="r" x="128" y="575" width="116" height="25"/><text class="i" x="138" y="592">symbol:element</text></a><rect class="l" x="254" y="575" width="31" height="25" rx="7"/><text class="i" x="264" y="592">in</text><a xlink:href="#set"><rect class="r" x="315" y="575" width="38" height="25"/><text class="i" x="325" y="592">set</text></a><a xlink:href="#vector"><rect class="r" x="315" y="605" width="57" height="25"/><text class="i" x="325" y="622">vector</text></a><rect class="l" x="402" y="575" width="25" height="25" rx="7"/><text class="i" x="412" y="592">)</text><a xlink:href="#integer-expression"><rect class="r" x="457" y="575" width="130" height="25"/><text class="i" x="467" y="592">integer-expression</text></a><a xlink:href="#fixed-decimal-expression"><rect class="r" x="457" y="605" width="166" height="25"/><text class="i" x="467" y="622">fixed-decimal-expression</text></a><rect class="l" x="653" y="575" width="28" height="25" rx="7"/><text class="i" x="663" y="592">»</text><a xlink:href="#vector"><rect class="r" x="691" y="575" width="57" height="25"/><text class="i" x="701" y="592">vector</text></a><rect class="l" x="25" y="635" width="47" height="25" rx="7"/><text class="i" x="35" y="652">valid</text><a xlink:href="#instance-expression"><rect class="r" x="82" y="635" width="138" height="25"/><text class="i" x="92" y="652">instance-expression</text></a><rect class="l" x="230" y="635" width="28" height="25" rx="7"/><text class="i" x="240" y="652">»</text><a xlink:href="#any"><rect class="r" x="268" y="635" width="42" height="25"/><text class="i" x="278" y="652">any</text></a><rect class="l" x="25" y="665" width="54" height="25" rx="7"/><text class="i" x="35" y="682">valid?</text><a xlink:href="#instance-expression"><rect class="r" x="89" y="665" width="138" height="25"/><text class="i" x="99" y="682">instance-expression</text></a><rect class="l" x="237" y="665" width="28" height="25" rx="7"/><text class="i" x="247" y="682">»</text><a xlink:href="#boolean"><rect class="r" x="275" y="665" width="66" height="25"/><text class="i" x="285" y="682">boolean</text></a><rect class="l" x="25" y="695" width="53" height="25" rx="7"/><text class="i" x="35" y="712">when</text><rect class="l" x="88" y="695" width="25" height="25" rx="7"/><text class="i" x="98" y="712">(</text><a xlink:href="#boolean"><rect class="r" x="123" y="695" width="66" height="25"/><text class="i" x="133" y="712">boolean</text></a><rect class="l" x="199" y="695" width="25" height="25" rx="7"/><text class="i" x="209" y="712">)</text><a xlink:href="#any-expression"><rect class="r" x="234" y="695" width="110" height="25"/><text class="i" x="244" y="712">any-expression</text></a><rect class="l" x="354" y="695" width="28" height="25" rx="7"/><text class="i" x="364" y="712">»</text><a xlink:href="#any"><rect class="r" x="392" y="695" width="42" height="25"/><text class="i" x="402" y="712">any</text></a><rect class="l" x="25" y="725" width="86" height="25" rx="7"/><text class="i" x="35" y="742">whenValue</text><rect class="l" x="121" y="725" width="25" height="25" rx="7"/><text class="i" x="131" y="742">(</text><a xlink:href="#symbol"><rect class="r" x="156" y="725" width="62" height="25"/><text class="i" x="166" y="742">symbol</text></a><rect class="l" x="228" y="725" width="25" height="25" rx="7"/><text class="i" x="238" y="742">)</text><a xlink:href="#any-expression"><rect class="r" x="263" y="725" width="110" height="25"/><text class="i" x="273" y="742">any-expression</text></a><rect class="l" x="383" y="725" width="28" height="25" rx="7"/><text class="i" x="393" y="742">»</text><a xlink:href="#any"><rect class="r" x="421" y="725" width="42" height="25"/><text class="i" x="431" y="742">any</text></a><rect class="l" x="25" y="755" width="105" height="25" rx="7"/><text class="i" x="35" y="772">whenValueLet</text><rect class="l" x="140" y="755" width="25" height="25" rx="7"/><text class="i" x="150" y="772">(</text><a xlink:href="#symbol"><rect class="r" x="175" y="755" width="62" height="25"/><text class="i" x="185" y="772">symbol</text></a><rect class="l" x="247" y="755" width="30" height="25" rx="7"/><text class="i" x="257" y="772">=</text><a xlink:href="#any:binding"><rect class="r" x="287" y="755" width="90" height="25"/><text class="i" x="297" y="772">any:binding</text></a><rect class="l" x="387" y="755" width="25" height="25" rx="7"/><text class="i" x="397" y="772">)</text><a xlink:href="#any-expression"><rect class="r" x="422" y="755" width="110" height="25"/><text class="i" x="432" y="772">any-expression</text></a><rect class="l" x="542" y="755" width="28" height="25" rx="7"/><text class="i" x="552" y="772">»</text><a xlink:href="#any"><rect class="r" x="580" y="755" width="42" height="25"/><text class="i" x="590" y="772">any</text></a></svg>