<svg version="1.1" xmlns:xlink="http://www.w3.org/1999/xlink" xmlns="http://www.w3.org/2000/svg" width="524" height="65" viewbox="0 0 524 65"><defs><style type="text/css">.c{fill: none; stroke: #888888; stroke-width: 2px;}.j{fill:#000000;font-family:Verdana,Sans-serif;font-size:12px;}.l{fill:#90d9ff;stroke:#222222;}.r{fill:#d3f0ff;stroke:#222222;}</style></defs><path class="c" d="M0 18h25m25 0h10m71 0h10m70 0h10m116 0h10m25 0h10m28 0h10m70 0h29m-509 0q5 0 5 5v20q0 5 5 5h5m25 0h10m84 0h10m70 0h10m116 0h10m25 0h10m28 0h10m66 0h5q5 0 5-5v-20q0-5 5-5m5 0h5"/><rect class="l" x="25" y="5" width="25" height="25" rx="7"/><text class="j" x="35" y="22">(</text><rect class="l" x="60" y="5" width="71" height="25" rx="7"/><text class="j" x="70" y="22">refine-to</text><a xlink:href="#instance"><rect class="r" x="141" y="5" width="70" height="25"/><text class="j" x="151" y="22">instance</text></a><a xlink:href="#keyword:spec-id"><rect class="r" x="221" y="5" width="116" height="25"/><text class="j" x="231" y="22">keyword:spec-id</text></a><rect class="l" x="347" y="5" width="25" height="25" rx="7"/><text class="j" x="357" y="22">)</text><rect class="l" x="382" y="5" width="28" height="25" rx="7"/><text class="j" x="392" y="22">»</text><a xlink:href="#instance"><rect class="r" x="420" y="5" width="70" height="25"/><text class="j" x="430" y="22">instance</text></a><rect class="l" x="25" y="35" width="25" height="25" rx="7"/><text class="j" x="35" y="52">(</text><rect class="l" x="60" y="35" width="84" height="25" rx="7"/><text class="j" x="70" y="52">refines-to?</text><a xlink:href="#instance"><rect class="r" x="154" y="35" width="70" height="25"/><text class="j" x="164" y="52">instance</text></a><a xlink:href="#keyword:spec-id"><rect class="r" x="234" y="35" width="116" height="25"/><text class="j" x="244" y="52">keyword:spec-id</text></a><rect class="l" x="360" y="35" width="25" height="25" rx="7"/><text class="j" x="370" y="52">)</text><rect class="l" x="395" y="35" width="28" height="25" rx="7"/><text class="j" x="405" y="52">»</text><a xlink:href="#boolean"><rect class="r" x="433" y="35" width="66" height="25"/><text class="j" x="443" y="52">boolean</text></a></svg>