<svg version="1.1" xmlns:xlink="http://www.w3.org/1999/xlink" xmlns="http://www.w3.org/2000/svg" width="1032" height="761" viewbox="0 0 1032 761"><defs><style type="text/css">.c{fill: none; stroke: #888888; stroke-width: 3pt;}.i{fill:#000000;font-family:Dialog,Sans-serif;font-size:12px;}.l{fill:#90d9ff;stroke:#222222;}.r{fill:#d3f0ff;stroke:#222222;}</style></defs><path class="c" d="M0 21h25m74 0h10m24 0h10m151 0h10m27 0h10m42 0h644m-1012 24q0 5 5 5h5m59 0h10m25 0h10m65 0h10m25 0h10m27 0h10m53 0h683q5 0 5-5m-1002 44q0 5 5 5h25m117 0h10m24 0h10m151 0h20m-347 0q5 0 5 5v19q0 5 5 5h5m102 0h10m25 0h10m65 0h10m25 0h70q5 0 5-5v-19q0-5 5-5m5 0h50m-5 0q-5 0-5-5v-16q0-5 5-5h235q5 0 5 5v16q0 5-5 5m-230 0h20m24 0h10m151 0h20m-220 0q5 0 5 5v19q0 5 5 5h5m25 0h10m65 0h10m25 0h55q5 0 5-5v-19q0-5 5-5m5 0h40m-300 0q5 0 5 5v37q0 5 5 5h275q5 0 5-5v-37q0-5 5-5m5 0h10m27 0h10m42 0h231q5 0 5-5m-1002 73q0 5 5 5h5m48 0h10m25 0h10m63 0h10m31 0h30m40 0h39m-94 0q5 0 5 5v19q0 5 5 5h5m59 0h5q5 0 5-5v-19q0-5 5-5m5 0h10m25 0h10m143 0h10m27 0h10m71 0h375q5 0 5-5m-1002 58q0 5 5 5h5m59 0h10m25 0h10m63 0h10m31 0h30m40 0h39m-94 0q5 0 5 5v19q0 5 5 5h5m59 0h5q5 0 5-5v-19q0-5 5-5m5 0h10m25 0h10m143 0h10m27 0h10m71 0h364q5 0 5-5m-1002 58q0 5 5 5h5m48 0h10m25 0h10m63 0h10m31 0h10m40 0h10m25 0h10m143 0h10m27 0h10m40 0h465q5 0 5-5m-1002 29q0 5 5 5h5m48 0h10m25 0h10m63 0h10m31 0h10m59 0h10m25 0h10m143 0h10m27 0h10m59 0h427q5 0 5-5m-1002 29q0 5 5 5h5m27 0h10m25 0h10m71 0h10m25 0h10m114 0h10m46 0h10m114 0h10m27 0h10m42 0h416q5 0 5-5m-1002 29q0 5 5 5h5m62 0h10m25 0h10m63 0h10m25 0h10m114 0h10m46 0h10m114 0h10m27 0h10m42 0h389q5 0 5-5m-1002 29q0 5 5 5h5m81 0h10m25 0h10m63 0h10m30 0h10m92 0h10m25 0h10m114 0h10m46 0h10m114 0h10m27 0h10m42 0h228q5 0 5-5m-1002 44q0 5 5 5h5m28 0h10m63 0h10m30 0h10m53 0h10m24 0h50m-5 0q-5 0-5-5v-16q0-5 5-5h210q5 0 5 5v16q0 5-5 5m-142 0h10m30 0h10m53 0h10m24 0h40m-275 0q5 0 5 5v8q0 5 5 5h250q5 0 5-5v-8q0-5 5-5m5 0h10m114 0h10m28 0h10m27 0h10m42 0h208q5 0 5-5m-1002 44q0 5 5 5h5m47 0h10m25 0h10m118 0h10m31 0h10m40 0h10m25 0h10m125 0h10m27 0h10m40 0h429q5 0 5-5m-1002 29q0 5 5 5h5m47 0h10m25 0h10m118 0h10m31 0h10m59 0h10m25 0h10m125 0h10m27 0h10m59 0h391q5 0 5-5m-1002 29q0 5 5 5h5m64 0h10m25 0h10m145 0h10m30 0h10m158 0h10m24 0h10m118 0h10m31 0h10m59 0h10m25 0h10m114 0h10m27 0h10m42 0h5q5 0 5-5m-1002 29q0 5 5 5h5m59 0h10m25 0h10m118 0h10m31 0h30m40 0h39m-94 0q5 0 5 5v19q0 5 5 5h5m59 0h5q5 0 5-5v-19q0-5 5-5m5 0h10m25 0h30m137 0h56m-208 0q5 0 5 5v19q0 5 5 5h5m173 0h5q5 0 5-5v-19q0-5 5-5m5 0h10m27 0h10m59 0h251q5 0 5-5m-1002 58q0 5 5 5h5m48 0h10m146 0h10m27 0h10m42 0h694q5 0 5-5m-1002 29q0 5 5 5h5m54 0h10m146 0h10m27 0h10m71 0h659q5 0 5-5m-1002 29q0 5 5 5h5m53 0h10m25 0h10m71 0h10m25 0h10m114 0h10m27 0h10m42 0h570q5 0 5-5m-1002 29q0 5 5 5h5m88 0h10m25 0h10m63 0h10m25 0h10m114 0h10m27 0h10m42 0h543q5 0 5-5m-1007-693q5 0 5 5v717q0 5 5 5h5m107 0h10m25 0h10m63 0h10m30 0h10m92 0h10m25 0h10m114 0h10m27 0h10m42 0h382q5 0 5-5v-717q0-5 5-5m5 0h5"/><a xlink:href="#instance"><rect class="r" x="25" y="5" width="74" height="24"/><text class="i" x="35" y="21">instance</text></a><rect class="l" x="109" y="5" width="24" height="24" rx="7"/><text class="i" x="119" y="21">.</text><a xlink:href="#symbol:instance-field"><rect class="r" x="143" y="5" width="151" height="24"/><text class="i" x="153" y="21">symbol:instance-field</text></a><rect class="l" x="304" y="5" width="27" height="24" rx="7"/><text class="i" x="314" y="21">»</text><a xlink:href="#any"><rect class="r" x="341" y="5" width="42" height="24"/><text class="i" x="351" y="21">any</text></a><a xlink:href="#vector"><rect class="r" x="25" y="34" width="59" height="24"/><text class="i" x="35" y="50">vector</text></a><rect class="l" x="94" y="34" width="25" height="24" rx="7"/><text class="i" x="104" y="50">[</text><a xlink:href="#integer"><rect class="r" x="129" y="34" width="65" height="24"/><text class="i" x="139" y="50">integer</text></a><rect class="l" x="204" y="34" width="25" height="24" rx="7"/><text class="i" x="214" y="50">]</text><rect class="l" x="239" y="34" width="27" height="24" rx="7"/><text class="i" x="249" y="50">»</text><a xlink:href="#value"><rect class="r" x="276" y="34" width="53" height="24"/><text class="i" x="286" y="50">value</text></a><a xlink:href="#instance:target"><rect class="r" x="45" y="78" width="117" height="24"/><text class="i" x="55" y="94">instance:target</text></a><rect class="l" x="172" y="78" width="24" height="24" rx="7"/><text class="i" x="182" y="94">.</text><a xlink:href="#symbol:instance-field"><rect class="r" x="206" y="78" width="151" height="24"/><text class="i" x="216" y="94">symbol:instance-field</text></a><a xlink:href="#vector:target"><rect class="r" x="45" y="107" width="102" height="24"/><text class="i" x="55" y="123">vector:target</text></a><rect class="l" x="157" y="107" width="25" height="24" rx="7"/><text class="i" x="167" y="123">[</text><a xlink:href="#integer"><rect class="r" x="192" y="107" width="65" height="24"/><text class="i" x="202" y="123">integer</text></a><rect class="l" x="267" y="107" width="25" height="24" rx="7"/><text class="i" x="277" y="123">]</text><rect class="l" x="447" y="78" width="24" height="24" rx="7"/><text class="i" x="457" y="94">.</text><a xlink:href="#symbol:instance-field"><rect class="r" x="481" y="78" width="151" height="24"/><text class="i" x="491" y="94">symbol:instance-field</text></a><rect class="l" x="447" y="107" width="25" height="24" rx="7"/><text class="i" x="457" y="123">[</text><a xlink:href="#integer"><rect class="r" x="482" y="107" width="65" height="24"/><text class="i" x="492" y="123">integer</text></a><rect class="l" x="557" y="107" width="25" height="24" rx="7"/><text class="i" x="567" y="123">]</text><rect class="l" x="702" y="78" width="27" height="24" rx="7"/><text class="i" x="712" y="94">»</text><a xlink:href="#any"><rect class="r" x="739" y="78" width="42" height="24"/><text class="i" x="749" y="94">any</text></a><rect class="l" x="25" y="151" width="48" height="24" rx="7"/><text class="i" x="35" y="167">any?</text><rect class="l" x="83" y="151" width="25" height="24" rx="7"/><text class="i" x="93" y="167">(</text><a xlink:href="#symbol"><rect class="r" x="118" y="151" width="63" height="24"/><text class="i" x="128" y="167">symbol</text></a><rect class="l" x="191" y="151" width="31" height="24" rx="7"/><text class="i" x="201" y="167">in</text><a xlink:href="#set"><rect class="r" x="252" y="151" width="40" height="24"/><text class="i" x="262" y="167">set</text></a><a xlink:href="#vector"><rect class="r" x="252" y="180" width="59" height="24"/><text class="i" x="262" y="196">vector</text></a><rect class="l" x="341" y="151" width="25" height="24" rx="7"/><text class="i" x="351" y="167">)</text><a xlink:href="#boolean-expression"><rect class="r" x="376" y="151" width="143" height="24"/><text class="i" x="386" y="167">boolean-expression</text></a><rect class="l" x="529" y="151" width="27" height="24" rx="7"/><text class="i" x="539" y="167">»</text><a xlink:href="#boolean"><rect class="r" x="566" y="151" width="71" height="24"/><text class="i" x="576" y="167">boolean</text></a><rect class="l" x="25" y="209" width="59" height="24" rx="7"/><text class="i" x="35" y="225">every?</text><rect class="l" x="94" y="209" width="25" height="24" rx="7"/><text class="i" x="104" y="225">(</text><a xlink:href="#symbol"><rect class="r" x="129" y="209" width="63" height="24"/><text class="i" x="139" y="225">symbol</text></a><rect class="l" x="202" y="209" width="31" height="24" rx="7"/><text class="i" x="212" y="225">in</text><a xlink:href="#set"><rect class="r" x="263" y="209" width="40" height="24"/><text class="i" x="273" y="225">set</text></a><a xlink:href="#vector"><rect class="r" x="263" y="238" width="59" height="24"/><text class="i" x="273" y="254">vector</text></a><rect class="l" x="352" y="209" width="25" height="24" rx="7"/><text class="i" x="362" y="225">)</text><a xlink:href="#boolean-expression"><rect class="r" x="387" y="209" width="143" height="24"/><text class="i" x="397" y="225">boolean-expression</text></a><rect class="l" x="540" y="209" width="27" height="24" rx="7"/><text class="i" x="550" y="225">»</text><a xlink:href="#boolean"><rect class="r" x="577" y="209" width="71" height="24"/><text class="i" x="587" y="225">boolean</text></a><rect class="l" x="25" y="267" width="48" height="24" rx="7"/><text class="i" x="35" y="283">filter</text><rect class="l" x="83" y="267" width="25" height="24" rx="7"/><text class="i" x="93" y="283">(</text><a xlink:href="#symbol"><rect class="r" x="118" y="267" width="63" height="24"/><text class="i" x="128" y="283">symbol</text></a><rect class="l" x="191" y="267" width="31" height="24" rx="7"/><text class="i" x="201" y="283">in</text><a xlink:href="#set"><rect class="r" x="232" y="267" width="40" height="24"/><text class="i" x="242" y="283">set</text></a><rect class="l" x="282" y="267" width="25" height="24" rx="7"/><text class="i" x="292" y="283">)</text><a xlink:href="#boolean-expression"><rect class="r" x="317" y="267" width="143" height="24"/><text class="i" x="327" y="283">boolean-expression</text></a><rect class="l" x="470" y="267" width="27" height="24" rx="7"/><text class="i" x="480" y="283">»</text><a xlink:href="#set"><rect class="r" x="507" y="267" width="40" height="24"/><text class="i" x="517" y="283">set</text></a><rect class="l" x="25" y="296" width="48" height="24" rx="7"/><text class="i" x="35" y="312">filter</text><rect class="l" x="83" y="296" width="25" height="24" rx="7"/><text class="i" x="93" y="312">(</text><a xlink:href="#symbol"><rect class="r" x="118" y="296" width="63" height="24"/><text class="i" x="128" y="312">symbol</text></a><rect class="l" x="191" y="296" width="31" height="24" rx="7"/><text class="i" x="201" y="312">in</text><a xlink:href="#vector"><rect class="r" x="232" y="296" width="59" height="24"/><text class="i" x="242" y="312">vector</text></a><rect class="l" x="301" y="296" width="25" height="24" rx="7"/><text class="i" x="311" y="312">)</text><a xlink:href="#boolean-expression"><rect class="r" x="336" y="296" width="143" height="24"/><text class="i" x="346" y="312">boolean-expression</text></a><rect class="l" x="489" y="296" width="27" height="24" rx="7"/><text class="i" x="499" y="312">»</text><a xlink:href="#vector"><rect class="r" x="526" y="296" width="59" height="24"/><text class="i" x="536" y="312">vector</text></a><rect class="l" x="25" y="325" width="27" height="24" rx="7"/><text class="i" x="35" y="341">if</text><rect class="l" x="62" y="325" width="25" height="24" rx="7"/><text class="i" x="72" y="341">(</text><a xlink:href="#boolean"><rect class="r" x="97" y="325" width="71" height="24"/><text class="i" x="107" y="341">boolean</text></a><rect class="l" x="178" y="325" width="25" height="24" rx="7"/><text class="i" x="188" y="341">)</text><a xlink:href="#any-expression"><rect class="r" x="213" y="325" width="114" height="24"/><text class="i" x="223" y="341">any-expression</text></a><rect class="l" x="337" y="325" width="46" height="24" rx="7"/><text class="i" x="347" y="341">else</text><a xlink:href="#any-expression"><rect class="r" x="393" y="325" width="114" height="24"/><text class="i" x="403" y="341">any-expression</text></a><rect class="l" x="517" y="325" width="27" height="24" rx="7"/><text class="i" x="527" y="341">»</text><a xlink:href="#any"><rect class="r" x="554" y="325" width="42" height="24"/><text class="i" x="564" y="341">any</text></a><rect class="l" x="25" y="354" width="62" height="24" rx="7"/><text class="i" x="35" y="370">ifValue</text><rect class="l" x="97" y="354" width="25" height="24" rx="7"/><text class="i" x="107" y="370">(</text><a xlink:href="#symbol"><rect class="r" x="132" y="354" width="63" height="24"/><text class="i" x="142" y="370">symbol</text></a><rect class="l" x="205" y="354" width="25" height="24" rx="7"/><text class="i" x="215" y="370">)</text><a xlink:href="#any-expression"><rect class="r" x="240" y="354" width="114" height="24"/><text class="i" x="250" y="370">any-expression</text></a><rect class="l" x="364" y="354" width="46" height="24" rx="7"/><text class="i" x="374" y="370">else</text><a xlink:href="#any-expression"><rect class="r" x="420" y="354" width="114" height="24"/><text class="i" x="430" y="370">any-expression</text></a><rect class="l" x="544" y="354" width="27" height="24" rx="7"/><text class="i" x="554" y="370">»</text><a xlink:href="#any"><rect class="r" x="581" y="354" width="42" height="24"/><text class="i" x="591" y="370">any</text></a><rect class="l" x="25" y="383" width="81" height="24" rx="7"/><text class="i" x="35" y="399">ifValueLet</text><rect class="l" x="116" y="383" width="25" height="24" rx="7"/><text class="i" x="126" y="399">(</text><a xlink:href="#symbol"><rect class="r" x="151" y="383" width="63" height="24"/><text class="i" x="161" y="399">symbol</text></a><rect class="l" x="224" y="383" width="30" height="24" rx="7"/><text class="i" x="234" y="399">=</text><a xlink:href="#any:binding"><rect class="r" x="264" y="383" width="92" height="24"/><text class="i" x="274" y="399">any:binding</text></a><rect class="l" x="366" y="383" width="25" height="24" rx="7"/><text class="i" x="376" y="399">)</text><a xlink:href="#any-expression"><rect class="r" x="401" y="383" width="114" height="24"/><text class="i" x="411" y="399">any-expression</text></a><rect class="l" x="525" y="383" width="46" height="24" rx="7"/><text class="i" x="535" y="399">else</text><a xlink:href="#any-expression"><rect class="r" x="581" y="383" width="114" height="24"/><text class="i" x="591" y="399">any-expression</text></a><rect class="l" x="705" y="383" width="27" height="24" rx="7"/><text class="i" x="715" y="399">»</text><a xlink:href="#any"><rect class="r" x="742" y="383" width="42" height="24"/><text class="i" x="752" y="399">any</text></a><rect class="l" x="25" y="427" width="28" height="24" rx="7"/><text class="i" x="35" y="443">{</text><a xlink:href="#symbol"><rect class="r" x="63" y="427" width="63" height="24"/><text class="i" x="73" y="443">symbol</text></a><rect class="l" x="136" y="427" width="30" height="24" rx="7"/><text class="i" x="146" y="443">=</text><a xlink:href="#value"><rect class="r" x="176" y="427" width="53" height="24"/><text class="i" x="186" y="443">value</text></a><rect class="l" x="239" y="427" width="24" height="24" rx="7"/><text class="i" x="249" y="443">;</text><a xlink:href="#symbol"><rect class="r" x="313" y="427" width="63" height="24"/><text class="i" x="323" y="443">symbol</text></a><rect class="l" x="386" y="427" width="30" height="24" rx="7"/><text class="i" x="396" y="443">=</text><a xlink:href="#value"><rect class="r" x="426" y="427" width="53" height="24"/><text class="i" x="436" y="443">value</text></a><rect class="l" x="489" y="427" width="24" height="24" rx="7"/><text class="i" x="499" y="443">;</text><a xlink:href="#any-expression"><rect class="r" x="563" y="427" width="114" height="24"/><text class="i" x="573" y="443">any-expression</text></a><rect class="l" x="687" y="427" width="28" height="24" rx="7"/><text class="i" x="697" y="443">}</text><rect class="l" x="725" y="427" width="27" height="24" rx="7"/><text class="i" x="735" y="443">»</text><a xlink:href="#any"><rect class="r" x="762" y="427" width="42" height="24"/><text class="i" x="772" y="443">any</text></a><rect class="l" x="25" y="471" width="47" height="24" rx="7"/><text class="i" x="35" y="487">map</text><rect class="l" x="82" y="471" width="25" height="24" rx="7"/><text class="i" x="92" y="487">(</text><a xlink:href="#symbol:element"><rect class="r" x="117" y="471" width="118" height="24"/><text class="i" x="127" y="487">symbol:element</text></a><rect class="l" x="245" y="471" width="31" height="24" rx="7"/><text class="i" x="255" y="487">in</text><a xlink:href="#set"><rect class="r" x="286" y="471" width="40" height="24"/><text class="i" x="296" y="487">set</text></a><rect class="l" x="336" y="471" width="25" height="24" rx="7"/><text class="i" x="346" y="487">)</text><a xlink:href="#value-expression"><rect class="r" x="371" y="471" width="125" height="24"/><text class="i" x="381" y="487">value-expression</text></a><rect class="l" x="506" y="471" width="27" height="24" rx="7"/><text class="i" x="516" y="487">»</text><a xlink:href="#set"><rect class="r" x="543" y="471" width="40" height="24"/><text class="i" x="553" y="487">set</text></a><rect class="l" x="25" y="500" width="47" height="24" rx="7"/><text class="i" x="35" y="516">map</text><rect class="l" x="82" y="500" width="25" height="24" rx="7"/><text class="i" x="92" y="516">(</text><a xlink:href="#symbol:element"><rect class="r" x="117" y="500" width="118" height="24"/><text class="i" x="127" y="516">symbol:element</text></a><rect class="l" x="245" y="500" width="31" height="24" rx="7"/><text class="i" x="255" y="516">in</text><a xlink:href="#vector"><rect class="r" x="286" y="500" width="59" height="24"/><text class="i" x="296" y="516">vector</text></a><rect class="l" x="355" y="500" width="25" height="24" rx="7"/><text class="i" x="365" y="516">)</text><a xlink:href="#value-expression"><rect class="r" x="390" y="500" width="125" height="24"/><text class="i" x="400" y="516">value-expression</text></a><rect class="l" x="525" y="500" width="27" height="24" rx="7"/><text class="i" x="535" y="516">»</text><a xlink:href="#vector"><rect class="r" x="562" y="500" width="59" height="24"/><text class="i" x="572" y="516">vector</text></a><rect class="l" x="25" y="529" width="64" height="24" rx="7"/><text class="i" x="35" y="545">reduce</text><rect class="l" x="99" y="529" width="25" height="24" rx="7"/><text class="i" x="109" y="545">(</text><a xlink:href="#symbol:accumulator"><rect class="r" x="134" y="529" width="145" height="24"/><text class="i" x="144" y="545">symbol:accumulator</text></a><rect class="l" x="289" y="529" width="30" height="24" rx="7"/><text class="i" x="299" y="545">=</text><a xlink:href="#value:accumulator-init"><rect class="r" x="329" y="529" width="158" height="24"/><text class="i" x="339" y="545">value:accumulator-init</text></a><rect class="l" x="497" y="529" width="24" height="24" rx="7"/><text class="i" x="507" y="545">;</text><a xlink:href="#symbol:element"><rect class="r" x="531" y="529" width="118" height="24"/><text class="i" x="541" y="545">symbol:element</text></a><rect class="l" x="659" y="529" width="31" height="24" rx="7"/><text class="i" x="669" y="545">in</text><a xlink:href="#vector"><rect class="r" x="700" y="529" width="59" height="24"/><text class="i" x="710" y="545">vector</text></a><rect class="l" x="769" y="529" width="25" height="24" rx="7"/><text class="i" x="779" y="545">)</text><a xlink:href="#any-expression"><rect class="r" x="804" y="529" width="114" height="24"/><text class="i" x="814" y="545">any-expression</text></a><rect class="l" x="928" y="529" width="27" height="24" rx="7"/><text class="i" x="938" y="545">»</text><a xlink:href="#any"><rect class="r" x="965" y="529" width="42" height="24"/><text class="i" x="975" y="545">any</text></a><rect class="l" x="25" y="558" width="59" height="24" rx="7"/><text class="i" x="35" y="574">sortBy</text><rect class="l" x="94" y="558" width="25" height="24" rx="7"/><text class="i" x="104" y="574">(</text><a xlink:href="#symbol:element"><rect class="r" x="129" y="558" width="118" height="24"/><text class="i" x="139" y="574">symbol:element</text></a><rect class="l" x="257" y="558" width="31" height="24" rx="7"/><text class="i" x="267" y="574">in</text><a xlink:href="#set"><rect class="r" x="318" y="558" width="40" height="24"/><text class="i" x="328" y="574">set</text></a><a xlink:href="#vector"><rect class="r" x="318" y="587" width="59" height="24"/><text class="i" x="328" y="603">vector</text></a><rect class="l" x="407" y="558" width="25" height="24" rx="7"/><text class="i" x="417" y="574">)</text><a xlink:href="#integer-expression"><rect class="r" x="462" y="558" width="137" height="24"/><text class="i" x="472" y="574">integer-expression</text></a><a xlink:href="#fixed-decimal-expression"><rect class="r" x="462" y="587" width="173" height="24"/><text class="i" x="472" y="603">fixed-decimal-expression</text></a><rect class="l" x="665" y="558" width="27" height="24" rx="7"/><text class="i" x="675" y="574">»</text><a xlink:href="#vector"><rect class="r" x="702" y="558" width="59" height="24"/><text class="i" x="712" y="574">vector</text></a><rect class="l" x="25" y="616" width="48" height="24" rx="7"/><text class="i" x="35" y="632">valid</text><a xlink:href="#instance-expression"><rect class="r" x="83" y="616" width="146" height="24"/><text class="i" x="93" y="632">instance-expression</text></a><rect class="l" x="239" y="616" width="27" height="24" rx="7"/><text class="i" x="249" y="632">»</text><a xlink:href="#any"><rect class="r" x="276" y="616" width="42" height="24"/><text class="i" x="286" y="632">any</text></a><rect class="l" x="25" y="645" width="54" height="24" rx="7"/><text class="i" x="35" y="661">valid?</text><a xlink:href="#instance-expression"><rect class="r" x="89" y="645" width="146" height="24"/><text class="i" x="99" y="661">instance-expression</text></a><rect class="l" x="245" y="645" width="27" height="24" rx="7"/><text class="i" x="255" y="661">»</text><a xlink:href="#boolean"><rect class="r" x="282" y="645" width="71" height="24"/><text class="i" x="292" y="661">boolean</text></a><rect class="l" x="25" y="674" width="53" height="24" rx="7"/><text class="i" x="35" y="690">when</text><rect class="l" x="88" y="674" width="25" height="24" rx="7"/><text class="i" x="98" y="690">(</text><a xlink:href="#boolean"><rect class="r" x="123" y="674" width="71" height="24"/><text class="i" x="133" y="690">boolean</text></a><rect class="l" x="204" y="674" width="25" height="24" rx="7"/><text class="i" x="214" y="690">)</text><a xlink:href="#any-expression"><rect class="r" x="239" y="674" width="114" height="24"/><text class="i" x="249" y="690">any-expression</text></a><rect class="l" x="363" y="674" width="27" height="24" rx="7"/><text class="i" x="373" y="690">»</text><a xlink:href="#any"><rect class="r" x="400" y="674" width="42" height="24"/><text class="i" x="410" y="690">any</text></a><rect class="l" x="25" y="703" width="88" height="24" rx="7"/><text class="i" x="35" y="719">whenValue</text><rect class="l" x="123" y="703" width="25" height="24" rx="7"/><text class="i" x="133" y="719">(</text><a xlink:href="#symbol"><rect class="r" x="158" y="703" width="63" height="24"/><text class="i" x="168" y="719">symbol</text></a><rect class="l" x="231" y="703" width="25" height="24" rx="7"/><text class="i" x="241" y="719">)</text><a xlink:href="#any-expression"><rect class="r" x="266" y="703" width="114" height="24"/><text class="i" x="276" y="719">any-expression</text></a><rect class="l" x="390" y="703" width="27" height="24" rx="7"/><text class="i" x="400" y="719">»</text><a xlink:href="#any"><rect class="r" x="427" y="703" width="42" height="24"/><text class="i" x="437" y="719">any</text></a><rect class="l" x="25" y="732" width="107" height="24" rx="7"/><text class="i" x="35" y="748">whenValueLet</text><rect class="l" x="142" y="732" width="25" height="24" rx="7"/><text class="i" x="152" y="748">(</text><a xlink:href="#symbol"><rect class="r" x="177" y="732" width="63" height="24"/><text class="i" x="187" y="748">symbol</text></a><rect class="l" x="250" y="732" width="30" height="24" rx="7"/><text class="i" x="260" y="748">=</text><a xlink:href="#any:binding"><rect class="r" x="290" y="732" width="92" height="24"/><text class="i" x="300" y="748">any:binding</text></a><rect class="l" x="392" y="732" width="25" height="24" rx="7"/><text class="i" x="402" y="748">)</text><a xlink:href="#any-expression"><rect class="r" x="427" y="732" width="114" height="24"/><text class="i" x="437" y="748">any-expression</text></a><rect class="l" x="551" y="732" width="27" height="24" rx="7"/><text class="i" x="561" y="748">»</text><a xlink:href="#any"><rect class="r" x="588" y="732" width="42" height="24"/><text class="i" x="598" y="748">any</text></a></svg>