<svg version="1.1" xmlns:xlink="http://www.w3.org/1999/xlink" xmlns="http://www.w3.org/2000/svg" width="1039" height="635" viewbox="0 0 1039 635"><defs><style type="text/css">.c{fill:none;stroke:#222222;}.j{fill:#000000;font-family:Verdana,Sans-serif;font-size:12px;}.l{fill:#90d9ff;stroke:#222222;}.r{fill:#d3f0ff;stroke:#222222;}</style></defs><path class="c" d="M0 22h25m50 0h10m25 0h10m64 0h10m31 0h30m40 0h39m-94 0q5 0 5 5v20q0 5 5 5h5m59 0h5q5 0 5-5v-20q0-5 5-5m5 0h10m25 0h10m145 0h10m28 0h10m71 0h391m-1019 55q0 5 5 5h5m62 0h10m25 0h10m64 0h10m31 0h30m40 0h39m-94 0q5 0 5 5v20q0 5 5 5h5m59 0h5q5 0 5-5v-20q0-5 5-5m5 0h10m25 0h10m145 0h10m28 0h10m71 0h364q5 0 5-5m-1009 60q0 5 5 5h5m48 0h10m25 0h10m64 0h10m31 0h10m40 0h10m25 0h10m145 0h10m28 0h10m40 0h468q5 0 5-5m-1009 30q0 5 5 5h5m48 0h10m25 0h10m64 0h10m31 0h10m59 0h10m25 0h10m145 0h10m28 0h10m59 0h430q5 0 5-5m-1009 30q0 5 5 5h5m27 0h10m25 0h10m71 0h10m25 0h10m117 0h10m46 0h10m117 0h10m28 0h10m43 0h415q5 0 5-5m-1009 30q0 5 5 5h5m62 0h10m25 0h10m64 0h10m25 0h10m117 0h10m46 0h10m117 0h10m28 0h10m43 0h387q5 0 5-5m-1009 30q0 5 5 5h5m82 0h10m25 0h10m64 0h10m29 0h10m94 0h10m25 0h10m117 0h10m46 0h10m117 0h10m28 0h10m43 0h224q5 0 5-5m-1009 45q0 5 5 5h5m28 0h10m64 0h10m29 0h10m54 0h10m25 0h50m-5 0q-5 0-5-5v-17q0-5 5-5h212q5 0 5 5v17q0 5-5 5m-143 0h10m29 0h10m54 0h10m25 0h40m-277 0q5 0 5 5v8q0 5 5 5h252q5 0 5-5v-8q0-5 5-5m5 0h10m117 0h10m28 0h10m28 0h10m43 0h206q5 0 5-5m-1009 45q0 5 5 5h5m47 0h10m25 0h10m120 0h10m31 0h10m40 0h10m25 0h10m128 0h10m28 0h10m40 0h430q5 0 5-5m-1009 30q0 5 5 5h5m47 0h10m25 0h10m120 0h10m31 0h10m59 0h10m25 0h10m128 0h10m28 0h10m59 0h392q5 0 5-5m-1009 30q0 5 5 5h5m63 0h10m25 0h10m145 0h10m29 0h10m159 0h10m25 0h10m120 0h10m31 0h10m59 0h10m25 0h10m117 0h10m28 0h10m43 0h5q5 0 5-5m-1009 30q0 5 5 5h5m60 0h10m25 0h10m120 0h10m31 0h30m40 0h39m-94 0q5 0 5 5v20q0 5 5 5h5m59 0h5q5 0 5-5v-20q0-5 5-5m5 0h10m25 0h30m139 0h57m-211 0q5 0 5 5v20q0 5 5 5h5m176 0h5q5 0 5-5v-20q0-5 5-5m5 0h10m28 0h10m59 0h251q5 0 5-5m-1009 60q0 5 5 5h5m49 0h10m147 0h10m28 0h10m43 0h697q5 0 5-5m-1009 30q0 5 5 5h5m56 0h10m147 0h10m28 0h10m71 0h662q5 0 5-5m-1009 30q0 5 5 5h5m55 0h10m25 0h10m71 0h10m25 0h10m117 0h10m28 0h10m43 0h570q5 0 5-5m-1009 30q0 5 5 5h5m90 0h10m25 0h10m64 0h10m25 0h10m117 0h10m28 0h10m43 0h542q5 0 5-5m-1014-565q5 0 5 5v590q0 5 5 5h5m110 0h10m25 0h10m64 0h10m29 0h10m94 0h10m25 0h10m117 0h10m28 0h10m43 0h379q5 0 5-5v-590q0-5 5-5m5 0h5"/><rect class="l" x="25" y="5" width="50" height="25" rx="7"/><text class="j" x="35" y="22">any?</text><rect class="l" x="85" y="5" width="25" height="25" rx="7"/><text class="j" x="95" y="22">(</text><a xlink:href="#symbol"><rect class="r" x="120" y="5" width="64" height="25"/><text class="j" x="130" y="22">symbol</text></a><rect class="l" x="194" y="5" width="31" height="25" rx="7"/><text class="j" x="204" y="22">in</text><a xlink:href="#set"><rect class="r" x="255" y="5" width="40" height="25"/><text class="j" x="265" y="22">set</text></a><a xlink:href="#vector"><rect class="r" x="255" y="35" width="59" height="25"/><text class="j" x="265" y="52">vector</text></a><rect class="l" x="344" y="5" width="25" height="25" rx="7"/><text class="j" x="354" y="22">)</text><a xlink:href="#boolean-expression"><rect class="r" x="379" y="5" width="145" height="25"/><text class="j" x="389" y="22">boolean-expression</text></a><rect class="l" x="534" y="5" width="28" height="25" rx="7"/><text class="j" x="544" y="22">»</text><a xlink:href="#boolean"><rect class="r" x="572" y="5" width="71" height="25"/><text class="j" x="582" y="22">boolean</text></a><rect class="l" x="25" y="65" width="62" height="25" rx="7"/><text class="j" x="35" y="82">every?</text><rect class="l" x="97" y="65" width="25" height="25" rx="7"/><text class="j" x="107" y="82">(</text><a xlink:href="#symbol"><rect class="r" x="132" y="65" width="64" height="25"/><text class="j" x="142" y="82">symbol</text></a><rect class="l" x="206" y="65" width="31" height="25" rx="7"/><text class="j" x="216" y="82">in</text><a xlink:href="#set"><rect class="r" x="267" y="65" width="40" height="25"/><text class="j" x="277" y="82">set</text></a><a xlink:href="#vector"><rect class="r" x="267" y="95" width="59" height="25"/><text class="j" x="277" y="112">vector</text></a><rect class="l" x="356" y="65" width="25" height="25" rx="7"/><text class="j" x="366" y="82">)</text><a xlink:href="#boolean-expression"><rect class="r" x="391" y="65" width="145" height="25"/><text class="j" x="401" y="82">boolean-expression</text></a><rect class="l" x="546" y="65" width="28" height="25" rx="7"/><text class="j" x="556" y="82">»</text><a xlink:href="#boolean"><rect class="r" x="584" y="65" width="71" height="25"/><text class="j" x="594" y="82">boolean</text></a><rect class="l" x="25" y="125" width="48" height="25" rx="7"/><text class="j" x="35" y="142">filter</text><rect class="l" x="83" y="125" width="25" height="25" rx="7"/><text class="j" x="93" y="142">(</text><a xlink:href="#symbol"><rect class="r" x="118" y="125" width="64" height="25"/><text class="j" x="128" y="142">symbol</text></a><rect class="l" x="192" y="125" width="31" height="25" rx="7"/><text class="j" x="202" y="142">in</text><a xlink:href="#set"><rect class="r" x="233" y="125" width="40" height="25"/><text class="j" x="243" y="142">set</text></a><rect class="l" x="283" y="125" width="25" height="25" rx="7"/><text class="j" x="293" y="142">)</text><a xlink:href="#boolean-expression"><rect class="r" x="318" y="125" width="145" height="25"/><text class="j" x="328" y="142">boolean-expression</text></a><rect class="l" x="473" y="125" width="28" height="25" rx="7"/><text class="j" x="483" y="142">»</text><a xlink:href="#set"><rect class="r" x="511" y="125" width="40" height="25"/><text class="j" x="521" y="142">set</text></a><rect class="l" x="25" y="155" width="48" height="25" rx="7"/><text class="j" x="35" y="172">filter</text><rect class="l" x="83" y="155" width="25" height="25" rx="7"/><text class="j" x="93" y="172">(</text><a xlink:href="#symbol"><rect class="r" x="118" y="155" width="64" height="25"/><text class="j" x="128" y="172">symbol</text></a><rect class="l" x="192" y="155" width="31" height="25" rx="7"/><text class="j" x="202" y="172">in</text><a xlink:href="#vector"><rect class="r" x="233" y="155" width="59" height="25"/><text class="j" x="243" y="172">vector</text></a><rect class="l" x="302" y="155" width="25" height="25" rx="7"/><text class="j" x="312" y="172">)</text><a xlink:href="#boolean-expression"><rect class="r" x="337" y="155" width="145" height="25"/><text class="j" x="347" y="172">boolean-expression</text></a><rect class="l" x="492" y="155" width="28" height="25" rx="7"/><text class="j" x="502" y="172">»</text><a xlink:href="#vector"><rect class="r" x="530" y="155" width="59" height="25"/><text class="j" x="540" y="172">vector</text></a><rect class="l" x="25" y="185" width="27" height="25" rx="7"/><text class="j" x="35" y="202">if</text><rect class="l" x="62" y="185" width="25" height="25" rx="7"/><text class="j" x="72" y="202">(</text><a xlink:href="#boolean"><rect class="r" x="97" y="185" width="71" height="25"/><text class="j" x="107" y="202">boolean</text></a><rect class="l" x="178" y="185" width="25" height="25" rx="7"/><text class="j" x="188" y="202">)</text><a xlink:href="#any-expression"><rect class="r" x="213" y="185" width="117" height="25"/><text class="j" x="223" y="202">any-expression</text></a><rect class="l" x="340" y="185" width="46" height="25" rx="7"/><text class="j" x="350" y="202">else</text><a xlink:href="#any-expression"><rect class="r" x="396" y="185" width="117" height="25"/><text class="j" x="406" y="202">any-expression</text></a><rect class="l" x="523" y="185" width="28" height="25" rx="7"/><text class="j" x="533" y="202">»</text><a xlink:href="#any"><rect class="r" x="561" y="185" width="43" height="25"/><text class="j" x="571" y="202">any</text></a><rect class="l" x="25" y="215" width="62" height="25" rx="7"/><text class="j" x="35" y="232">ifValue</text><rect class="l" x="97" y="215" width="25" height="25" rx="7"/><text class="j" x="107" y="232">(</text><a xlink:href="#symbol"><rect class="r" x="132" y="215" width="64" height="25"/><text class="j" x="142" y="232">symbol</text></a><rect class="l" x="206" y="215" width="25" height="25" rx="7"/><text class="j" x="216" y="232">)</text><a xlink:href="#any-expression"><rect class="r" x="241" y="215" width="117" height="25"/><text class="j" x="251" y="232">any-expression</text></a><rect class="l" x="368" y="215" width="46" height="25" rx="7"/><text class="j" x="378" y="232">else</text><a xlink:href="#any-expression"><rect class="r" x="424" y="215" width="117" height="25"/><text class="j" x="434" y="232">any-expression</text></a><rect class="l" x="551" y="215" width="28" height="25" rx="7"/><text class="j" x="561" y="232">»</text><a xlink:href="#any"><rect class="r" x="589" y="215" width="43" height="25"/><text class="j" x="599" y="232">any</text></a><rect class="l" x="25" y="245" width="82" height="25" rx="7"/><text class="j" x="35" y="262">ifValueLet</text><rect class="l" x="117" y="245" width="25" height="25" rx="7"/><text class="j" x="127" y="262">(</text><a xlink:href="#symbol"><rect class="r" x="152" y="245" width="64" height="25"/><text class="j" x="162" y="262">symbol</text></a><rect class="l" x="226" y="245" width="29" height="25" rx="7"/><text class="j" x="236" y="262">=</text><a xlink:href="#any:binding"><rect class="r" x="265" y="245" width="94" height="25"/><text class="j" x="275" y="262">any:binding</text></a><rect class="l" x="369" y="245" width="25" height="25" rx="7"/><text class="j" x="379" y="262">)</text><a xlink:href="#any-expression"><rect class="r" x="404" y="245" width="117" height="25"/><text class="j" x="414" y="262">any-expression</text></a><rect class="l" x="531" y="245" width="46" height="25" rx="7"/><text class="j" x="541" y="262">else</text><a xlink:href="#any-expression"><rect class="r" x="587" y="245" width="117" height="25"/><text class="j" x="597" y="262">any-expression</text></a><rect class="l" x="714" y="245" width="28" height="25" rx="7"/><text class="j" x="724" y="262">»</text><a xlink:href="#any"><rect class="r" x="752" y="245" width="43" height="25"/><text class="j" x="762" y="262">any</text></a><rect class="l" x="25" y="290" width="28" height="25" rx="7"/><text class="j" x="35" y="307">{</text><a xlink:href="#symbol"><rect class="r" x="63" y="290" width="64" height="25"/><text class="j" x="73" y="307">symbol</text></a><rect class="l" x="137" y="290" width="29" height="25" rx="7"/><text class="j" x="147" y="307">=</text><a xlink:href="#value"><rect class="r" x="176" y="290" width="54" height="25"/><text class="j" x="186" y="307">value</text></a><rect class="l" x="240" y="290" width="25" height="25" rx="7"/><text class="j" x="250" y="307">;</text><a xlink:href="#symbol"><rect class="r" x="315" y="290" width="64" height="25"/><text class="j" x="325" y="307">symbol</text></a><rect class="l" x="389" y="290" width="29" height="25" rx="7"/><text class="j" x="399" y="307">=</text><a xlink:href="#value"><rect class="r" x="428" y="290" width="54" height="25"/><text class="j" x="438" y="307">value</text></a><rect class="l" x="492" y="290" width="25" height="25" rx="7"/><text class="j" x="502" y="307">;</text><a xlink:href="#any-expression"><rect class="r" x="567" y="290" width="117" height="25"/><text class="j" x="577" y="307">any-expression</text></a><rect class="l" x="694" y="290" width="28" height="25" rx="7"/><text class="j" x="704" y="307">}</text><rect class="l" x="732" y="290" width="28" height="25" rx="7"/><text class="j" x="742" y="307">»</text><a xlink:href="#any"><rect class="r" x="770" y="290" width="43" height="25"/><text class="j" x="780" y="307">any</text></a><rect class="l" x="25" y="335" width="47" height="25" rx="7"/><text class="j" x="35" y="352">map</text><rect class="l" x="82" y="335" width="25" height="25" rx="7"/><text class="j" x="92" y="352">(</text><a xlink:href="#symbol:element"><rect class="r" x="117" y="335" width="120" height="25"/><text class="j" x="127" y="352">symbol:element</text></a><rect class="l" x="247" y="335" width="31" height="25" rx="7"/><text class="j" x="257" y="352">in</text><a xlink:href="#set"><rect class="r" x="288" y="335" width="40" height="25"/><text class="j" x="298" y="352">set</text></a><rect class="l" x="338" y="335" width="25" height="25" rx="7"/><text class="j" x="348" y="352">)</text><a xlink:href="#value-expression"><rect class="r" x="373" y="335" width="128" height="25"/><text class="j" x="383" y="352">value-expression</text></a><rect class="l" x="511" y="335" width="28" height="25" rx="7"/><text class="j" x="521" y="352">»</text><a xlink:href="#set"><rect class="r" x="549" y="335" width="40" height="25"/><text class="j" x="559" y="352">set</text></a><rect class="l" x="25" y="365" width="47" height="25" rx="7"/><text class="j" x="35" y="382">map</text><rect class="l" x="82" y="365" width="25" height="25" rx="7"/><text class="j" x="92" y="382">(</text><a xlink:href="#symbol:element"><rect class="r" x="117" y="365" width="120" height="25"/><text class="j" x="127" y="382">symbol:element</text></a><rect class="l" x="247" y="365" width="31" height="25" rx="7"/><text class="j" x="257" y="382">in</text><a xlink:href="#vector"><rect class="r" x="288" y="365" width="59" height="25"/><text class="j" x="298" y="382">vector</text></a><rect class="l" x="357" y="365" width="25" height="25" rx="7"/><text class="j" x="367" y="382">)</text><a xlink:href="#value-expression"><rect class="r" x="392" y="365" width="128" height="25"/><text class="j" x="402" y="382">value-expression</text></a><rect class="l" x="530" y="365" width="28" height="25" rx="7"/><text class="j" x="540" y="382">»</text><a xlink:href="#vector"><rect class="r" x="568" y="365" width="59" height="25"/><text class="j" x="578" y="382">vector</text></a><rect class="l" x="25" y="395" width="63" height="25" rx="7"/><text class="j" x="35" y="412">reduce</text><rect class="l" x="98" y="395" width="25" height="25" rx="7"/><text class="j" x="108" y="412">(</text><a xlink:href="#symbol:accumulator"><rect class="r" x="133" y="395" width="145" height="25"/><text class="j" x="143" y="412">symbol:accumulator</text></a><rect class="l" x="288" y="395" width="29" height="25" rx="7"/><text class="j" x="298" y="412">=</text><a xlink:href="#value:accumulator-init"><rect class="r" x="327" y="395" width="159" height="25"/><text class="j" x="337" y="412">value:accumulator-init</text></a><rect class="l" x="496" y="395" width="25" height="25" rx="7"/><text class="j" x="506" y="412">;</text><a xlink:href="#symbol:element"><rect class="r" x="531" y="395" width="120" height="25"/><text class="j" x="541" y="412">symbol:element</text></a><rect class="l" x="661" y="395" width="31" height="25" rx="7"/><text class="j" x="671" y="412">in</text><a xlink:href="#vector"><rect class="r" x="702" y="395" width="59" height="25"/><text class="j" x="712" y="412">vector</text></a><rect class="l" x="771" y="395" width="25" height="25" rx="7"/><text class="j" x="781" y="412">)</text><a xlink:href="#any-expression"><rect class="r" x="806" y="395" width="117" height="25"/><text class="j" x="816" y="412">any-expression</text></a><rect class="l" x="933" y="395" width="28" height="25" rx="7"/><text class="j" x="943" y="412">»</text><a xlink:href="#any"><rect class="r" x="971" y="395" width="43" height="25"/><text class="j" x="981" y="412">any</text></a><rect class="l" x="25" y="425" width="60" height="25" rx="7"/><text class="j" x="35" y="442">sortBy</text><rect class="l" x="95" y="425" width="25" height="25" rx="7"/><text class="j" x="105" y="442">(</text><a xlink:href="#symbol:element"><rect class="r" x="130" y="425" width="120" height="25"/><text class="j" x="140" y="442">symbol:element</text></a><rect class="l" x="260" y="425" width="31" height="25" rx="7"/><text class="j" x="270" y="442">in</text><a xlink:href="#set"><rect class="r" x="321" y="425" width="40" height="25"/><text class="j" x="331" y="442">set</text></a><a xlink:href="#vector"><rect class="r" x="321" y="455" width="59" height="25"/><text class="j" x="331" y="472">vector</text></a><rect class="l" x="410" y="425" width="25" height="25" rx="7"/><text class="j" x="420" y="442">)</text><a xlink:href="#integer-expression"><rect class="r" x="465" y="425" width="139" height="25"/><text class="j" x="475" y="442">integer-expression</text></a><a xlink:href="#fixed-decimal-expression"><rect class="r" x="465" y="455" width="176" height="25"/><text class="j" x="475" y="472">fixed-decimal-expression</text></a><rect class="l" x="671" y="425" width="28" height="25" rx="7"/><text class="j" x="681" y="442">»</text><a xlink:href="#vector"><rect class="r" x="709" y="425" width="59" height="25"/><text class="j" x="719" y="442">vector</text></a><rect class="l" x="25" y="485" width="49" height="25" rx="7"/><text class="j" x="35" y="502">valid</text><a xlink:href="#instance-expression"><rect class="r" x="84" y="485" width="147" height="25"/><text class="j" x="94" y="502">instance-expression</text></a><rect class="l" x="241" y="485" width="28" height="25" rx="7"/><text class="j" x="251" y="502">»</text><a xlink:href="#any"><rect class="r" x="279" y="485" width="43" height="25"/><text class="j" x="289" y="502">any</text></a><rect class="l" x="25" y="515" width="56" height="25" rx="7"/><text class="j" x="35" y="532">valid?</text><a xlink:href="#instance-expression"><rect class="r" x="91" y="515" width="147" height="25"/><text class="j" x="101" y="532">instance-expression</text></a><rect class="l" x="248" y="515" width="28" height="25" rx="7"/><text class="j" x="258" y="532">»</text><a xlink:href="#boolean"><rect class="r" x="286" y="515" width="71" height="25"/><text class="j" x="296" y="532">boolean</text></a><rect class="l" x="25" y="545" width="55" height="25" rx="7"/><text class="j" x="35" y="562">when</text><rect class="l" x="90" y="545" width="25" height="25" rx="7"/><text class="j" x="100" y="562">(</text><a xlink:href="#boolean"><rect class="r" x="125" y="545" width="71" height="25"/><text class="j" x="135" y="562">boolean</text></a><rect class="l" x="206" y="545" width="25" height="25" rx="7"/><text class="j" x="216" y="562">)</text><a xlink:href="#any-expression"><rect class="r" x="241" y="545" width="117" height="25"/><text class="j" x="251" y="562">any-expression</text></a><rect class="l" x="368" y="545" width="28" height="25" rx="7"/><text class="j" x="378" y="562">»</text><a xlink:href="#any"><rect class="r" x="406" y="545" width="43" height="25"/><text class="j" x="416" y="562">any</text></a><rect class="l" x="25" y="575" width="90" height="25" rx="7"/><text class="j" x="35" y="592">whenValue</text><rect class="l" x="125" y="575" width="25" height="25" rx="7"/><text class="j" x="135" y="592">(</text><a xlink:href="#symbol"><rect class="r" x="160" y="575" width="64" height="25"/><text class="j" x="170" y="592">symbol</text></a><rect class="l" x="234" y="575" width="25" height="25" rx="7"/><text class="j" x="244" y="592">)</text><a xlink:href="#any-expression"><rect class="r" x="269" y="575" width="117" height="25"/><text class="j" x="279" y="592">any-expression</text></a><rect class="l" x="396" y="575" width="28" height="25" rx="7"/><text class="j" x="406" y="592">»</text><a xlink:href="#any"><rect class="r" x="434" y="575" width="43" height="25"/><text class="j" x="444" y="592">any</text></a><rect class="l" x="25" y="605" width="110" height="25" rx="7"/><text class="j" x="35" y="622">whenValueLet</text><rect class="l" x="145" y="605" width="25" height="25" rx="7"/><text class="j" x="155" y="622">(</text><a xlink:href="#symbol"><rect class="r" x="180" y="605" width="64" height="25"/><text class="j" x="190" y="622">symbol</text></a><rect class="l" x="254" y="605" width="29" height="25" rx="7"/><text class="j" x="264" y="622">=</text><a xlink:href="#any:binding"><rect class="r" x="293" y="605" width="94" height="25"/><text class="j" x="303" y="622">any:binding</text></a><rect class="l" x="397" y="605" width="25" height="25" rx="7"/><text class="j" x="407" y="622">)</text><a xlink:href="#any-expression"><rect class="r" x="432" y="605" width="117" height="25"/><text class="j" x="442" y="622">any-expression</text></a><rect class="l" x="559" y="605" width="28" height="25" rx="7"/><text class="j" x="569" y="622">»</text><a xlink:href="#any"><rect class="r" x="597" y="605" width="43" height="25"/><text class="j" x="607" y="622">any</text></a></svg>