<svg version="1.1" xmlns:xlink="http://www.w3.org/1999/xlink" xmlns="http://www.w3.org/2000/svg" width="547" height="65" viewbox="0 0 547 65"><defs><style type="text/css">.c{fill: none; stroke: #888888; stroke-width: 2px;}.i{fill:#000000;font-family:Verdana,Sans-serif;font-size:12px;}.l{fill:#90d9ff;stroke:#222222;}.r{fill:#d3f0ff;stroke:#222222;}</style></defs><path class="c" d="M0 18h25m70 0h10m24 0h10m68 0h10m25 0h10m108 0h10m25 0h10m28 0h10m70 0h29m-532 0q5 0 5 5v20q0 5 5 5h5m70 0h10m24 0h10m81 0h10m25 0h10m108 0h10m25 0h10m28 0h10m66 0h5q5 0 5-5v-20q0-5 5-5m5 0h5"/><a xlink:href="#instance"><rect class="r" x="25" y="5" width="70" height="25"/><text class="i" x="35" y="22">instance</text></a><rect class="l" x="105" y="5" width="24" height="25" rx="7"/><text class="i" x="115" y="22">.</text><rect class="l" x="139" y="5" width="68" height="25" rx="7"/><text class="i" x="149" y="22">refineTo</text><rect class="l" x="217" y="5" width="25" height="25" rx="7"/><text class="i" x="227" y="22">(</text><a xlink:href="#symbol:spec-id"><rect class="r" x="252" y="5" width="108" height="25"/><text class="i" x="262" y="22">symbol:spec-id</text></a><rect class="l" x="370" y="5" width="25" height="25" rx="7"/><text class="i" x="380" y="22">)</text><rect class="l" x="405" y="5" width="28" height="25" rx="7"/><text class="i" x="415" y="22">»</text><a xlink:href="#instance"><rect class="r" x="443" y="5" width="70" height="25"/><text class="i" x="453" y="22">instance</text></a><a xlink:href="#instance"><rect class="r" x="25" y="35" width="70" height="25"/><text class="i" x="35" y="52">instance</text></a><rect class="l" x="105" y="35" width="24" height="25" rx="7"/><text class="i" x="115" y="52">.</text><rect class="l" x="139" y="35" width="81" height="25" rx="7"/><text class="i" x="149" y="52">refinesTo?</text><rect class="l" x="230" y="35" width="25" height="25" rx="7"/><text class="i" x="240" y="52">(</text><a xlink:href="#symbol:spec-id"><rect class="r" x="265" y="35" width="108" height="25"/><text class="i" x="275" y="52">symbol:spec-id</text></a><rect class="l" x="383" y="35" width="25" height="25" rx="7"/><text class="i" x="393" y="52">)</text><rect class="l" x="418" y="35" width="28" height="25" rx="7"/><text class="i" x="428" y="52">»</text><a xlink:href="#boolean"><rect class="r" x="456" y="35" width="66" height="25"/><text class="i" x="466" y="52">boolean</text></a></svg>