<!--
RULE = (('(''any?'  ( ( '[' symbol (set | vector) ']' boolean-expression')' '»' boolean ) ) ) |
('(''cond'  ( ( boolean any-expression { boolean any-expression } any-expression')' '»' any ) ) ) |
('(''every?'  ( ( '[' symbol (set | vector) ']' boolean-expression')' '»' boolean ) ) ) |
('(''filter'  ( ( '[' symbol:element set ']' boolean-expression')' '»' set ) |
( '[' symbol:element vector ']' boolean-expression')' '»' vector ) ) ) |
('(''get'  ( ( (instance keyword:instance-field)')' '»' any ) |
( (vector integer)')' '»' value ) ) ) |
('(''get-in'  ( ( (instance:target | vector:target) '[' (integer | keyword:instance-field) {(integer | keyword:instance-field)} ']'')' '»' any ) ) ) |
('(''if'  ( ( boolean any-expression any-expression')' '»' any ) ) ) |
('(''if-value'  ( ( symbol any-expression any-expression')' '»' any ) ) ) |
('(''if-value-let'  ( ( '[' symbol any:binding ']' any-expression any-expression')' '»' any ) ) ) |
('(''let'  ( ( '[' symbol value {symbol value} ']' any-expression')' '»' any ) ) ) |
('(''map'  ( ( '[' symbol:element set ']' value-expression')' '»' set ) |
( '[' symbol:element vector ']' value-expression')' '»' vector ) ) ) |
('(''reduce'  ( ( '[' symbol:accumulator value:accumulator-init ']' '[' symbol:element vector ']' any-expression')' '»' any ) ) ) |
('(''sort-by'  ( ( '[' symbol:element (set | vector) ']' (integer-expression | fixed-decimal-expression)')' '»' vector ) ) ) |
('(''valid'  ( ( instance-expression')' '»' any ) ) ) |
('(''valid?'  ( ( instance-expression')' '»' boolean ) ) ) |
('(''when'  ( ( boolean any-expression')' '»' any ) ) ) |
('(''when-value'  ( ( symbol any-expression:binding')' '»' any ) ) ) |
('(''when-value-let'  ( ( '[' symbol any:binding']' any-expression')' '»' any ) ) ));
-->
<svg version="1.1" xmlns:xlink="http://www.w3.org/1999/xlink" xmlns="http://www.w3.org/2000/svg" width="1064" height="845" viewbox="0 0 1064 845"><defs><style type="text/css">.c{fill: none; stroke: #888888; stroke-width: 2px;}.j{fill:#000000;font-family:Verdana,Sans-serif;font-size:12px;}.l{fill:#90d9ff;stroke:#222222;}.r{fill:#d3f0ff;stroke:#222222;}</style></defs><path class="c" d="M0 18h25m25 0h10m50 0h10m25 0h10m64 0h30m40 0h39m-94 0q5 0 5 5v20q0 5 5 5h5m59 0h5q5 0 5-5v-20q0-5 5-5m5 0h10m25 0h10m145 0h10m25 0h10m28 0h10m71 0h387m-1044 70q0 5 5 5h5m25 0h10m50 0h10m71 0h10m117 0h50m-5 0q-5 0-5-5v-17q0-5 5-5h208q5 0 5 5v17q0 5-5 5m-132 0h10m117 0h40m-273 0q5 0 5 5v8q0 5 5 5h248q5 0 5-5v-8q0-5 5-5m5 0h10m117 0h10m25 0h10m28 0h10m43 0h185q5 0 5-5m-1034 45q0 5 5 5h5m25 0h10m62 0h10m25 0h10m64 0h30m40 0h39m-94 0q5 0 5 5v20q0 5 5 5h5m59 0h5q5 0 5-5v-20q0-5 5-5m5 0h10m25 0h10m145 0h10m25 0h10m28 0h10m71 0h360q5 0 5-5m-1034 60q0 5 5 5h5m25 0h10m48 0h30m25 0h10m120 0h10m40 0h10m25 0h10m145 0h10m25 0h10m28 0h10m40 0h58m-591 0q5 0 5 5v20q0 5 5 5h5m25 0h10m120 0h10m59 0h10m25 0h10m145 0h10m25 0h10m28 0h10m59 0h5q5 0 5-5v-20q0-5 5-5m5 0h330q5 0 5-5m-1034 60q0 5 5 5h5m25 0h10m41 0h30m73 0h10m163 0h10m25 0h10m28 0h10m43 0h20m-407 0q5 0 5 5v20q0 5 5 5h5m59 0h10m65 0h10m25 0h10m28 0h10m54 0h106q5 0 5-5v-20q0-5 5-5m5 0h521q5 0 5-5m-1034 75q0 5 5 5h5m25 0h10m57 0h30m117 0h20m-152 0q5 0 5 5v20q0 5 5 5h5m103 0h19q5 0 5-5v-20q0-5 5-5m5 0h10m25 0h30m65 0h118m-198 0q5 0 5 5v20q0 5 5 5h5m163 0h5q5 0 5-5v-20q0-5 5-5m5 0h50m-5 0q-5 0-5-5v-17q0-5 5-5h213q5 0 5 5v17q0 5-5 5m-208 0h20m65 0h118m-198 0q5 0 5 5v20q0 5 5 5h5m163 0h5q5 0 5-5v-20q0-5 5-5m5 0h40m-278 0q5 0 5 5v38q0 5 5 5h253q5 0 5-5v-38q0-5 5-5m5 0h10m25 0h10m25 0h10m28 0h10m43 0h58q5 0 5-5m-1034 75q0 5 5 5h5m25 0h10m27 0h10m71 0h10m117 0h10m117 0h10m25 0h10m28 0h10m43 0h496q5 0 5-5m-1034 30q0 5 5 5h5m25 0h10m66 0h10m64 0h10m117 0h10m117 0h10m25 0h10m28 0h10m43 0h464q5 0 5-5m-1034 30q0 5 5 5h5m25 0h10m87 0h10m25 0h10m64 0h10m94 0h10m25 0h10m117 0h10m117 0h10m25 0h10m28 0h10m43 0h269q5 0 5-5m-1034 45q0 5 5 5h5m25 0h10m36 0h10m25 0h10m64 0h10m54 0h50m-5 0q-5 0-5-5v-17q0-5 5-5h138q5 0 5 5v17q0 5-5 5m-69 0h10m54 0h40m-203 0q5 0 5 5v8q0 5 5 5h178q5 0 5-5v-8q0-5 5-5m5 0h10m25 0h10m117 0h10m25 0h10m28 0h10m43 0h269q5 0 5-5m-1034 45q0 5 5 5h5m25 0h10m47 0h30m25 0h10m120 0h10m40 0h10m25 0h10m128 0h10m25 0h10m28 0h10m40 0h58m-574 0q5 0 5 5v20q0 5 5 5h5m25 0h10m120 0h10m59 0h10m25 0h10m128 0h10m25 0h10m28 0h10m59 0h5q5 0 5-5v-20q0-5 5-5m5 0h348q5 0 5-5m-1034 60q0 5 5 5h5m25 0h10m63 0h10m25 0h10m145 0h10m159 0h10m25 0h10m25 0h10m120 0h10m59 0h10m25 0h10m117 0h10m25 0h10m28 0h10m43 0h5q5 0 5-5m-1034 30q0 5 5 5h5m25 0h10m65 0h10m25 0h10m120 0h30m40 0h39m-94 0q5 0 5 5v20q0 5 5 5h5m59 0h5q5 0 5-5v-20q0-5 5-5m5 0h10m25 0h30m139 0h57m-211 0q5 0 5 5v20q0 5 5 5h5m176 0h5q5 0 5-5v-20q0-5 5-5m5 0h10m25 0h10m28 0h10m59 0h242q5 0 5-5m-1034 60q0 5 5 5h5m25 0h10m49 0h10m147 0h10m25 0h10m28 0h10m43 0h652q5 0 5-5m-1034 30q0 5 5 5h5m25 0h10m56 0h10m147 0h10m25 0h10m28 0h10m71 0h617q5 0 5-5m-1034 30q0 5 5 5h5m25 0h10m55 0h10m71 0h10m117 0h10m25 0h10m28 0h10m43 0h595q5 0 5-5m-1034 30q0 5 5 5h5m25 0h10m94 0h10m64 0h10m168 0h10m25 0h10m28 0h10m43 0h512q5 0 5-5m-1039-775q5 0 5 5v800q0 5 5 5h5m25 0h10m115 0h10m25 0h10m64 0h10m94 0h10m25 0h10m117 0h10m25 0h10m28 0h10m43 0h368q5 0 5-5v-800q0-5 5-5m5 0h5"/><rect class="l" x="25" y="5" width="25" height="25" rx="7"/><text class="j" x="35" y="22">(</text><rect class="l" x="60" y="5" width="50" height="25" rx="7"/><text class="j" x="70" y="22">any?</text><rect class="l" x="120" y="5" width="25" height="25" rx="7"/><text class="j" x="130" y="22">[</text><a xlink:href="#symbol"><rect class="r" x="155" y="5" width="64" height="25"/><text class="j" x="165" y="22">symbol</text></a><a xlink:href="#set"><rect class="r" x="249" y="5" width="40" height="25"/><text class="j" x="259" y="22">set</text></a><a xlink:href="#vector"><rect class="r" x="249" y="35" width="59" height="25"/><text class="j" x="259" y="52">vector</text></a><rect class="l" x="338" y="5" width="25" height="25" rx="7"/><text class="j" x="348" y="22">]</text><a xlink:href="#boolean-expression"><rect class="r" x="373" y="5" width="145" height="25"/><text class="j" x="383" y="22">boolean-expression</text></a><rect class="l" x="528" y="5" width="25" height="25" rx="7"/><text class="j" x="538" y="22">)</text><rect class="l" x="563" y="5" width="28" height="25" rx="7"/><text class="j" x="573" y="22">»</text><a xlink:href="#boolean"><rect class="r" x="601" y="5" width="71" height="25"/><text class="j" x="611" y="22">boolean</text></a><rect class="l" x="25" y="80" width="25" height="25" rx="7"/><text class="j" x="35" y="97">(</text><rect class="l" x="60" y="80" width="50" height="25" rx="7"/><text class="j" x="70" y="97">cond</text><a xlink:href="#boolean"><rect class="r" x="120" y="80" width="71" height="25"/><text class="j" x="130" y="97">boolean</text></a><a xlink:href="#any-expression"><rect class="r" x="201" y="80" width="117" height="25"/><text class="j" x="211" y="97">any-expression</text></a><a xlink:href="#boolean"><rect class="r" x="368" y="80" width="71" height="25"/><text class="j" x="378" y="97">boolean</text></a><a xlink:href="#any-expression"><rect class="r" x="449" y="80" width="117" height="25"/><text class="j" x="459" y="97">any-expression</text></a><a xlink:href="#any-expression"><rect class="r" x="616" y="80" width="117" height="25"/><text class="j" x="626" y="97">any-expression</text></a><rect class="l" x="743" y="80" width="25" height="25" rx="7"/><text class="j" x="753" y="97">)</text><rect class="l" x="778" y="80" width="28" height="25" rx="7"/><text class="j" x="788" y="97">»</text><a xlink:href="#any"><rect class="r" x="816" y="80" width="43" height="25"/><text class="j" x="826" y="97">any</text></a><rect class="l" x="25" y="125" width="25" height="25" rx="7"/><text class="j" x="35" y="142">(</text><rect class="l" x="60" y="125" width="62" height="25" rx="7"/><text class="j" x="70" y="142">every?</text><rect class="l" x="132" y="125" width="25" height="25" rx="7"/><text class="j" x="142" y="142">[</text><a xlink:href="#symbol"><rect class="r" x="167" y="125" width="64" height="25"/><text class="j" x="177" y="142">symbol</text></a><a xlink:href="#set"><rect class="r" x="261" y="125" width="40" height="25"/><text class="j" x="271" y="142">set</text></a><a xlink:href="#vector"><rect class="r" x="261" y="155" width="59" height="25"/><text class="j" x="271" y="172">vector</text></a><rect class="l" x="350" y="125" width="25" height="25" rx="7"/><text class="j" x="360" y="142">]</text><a xlink:href="#boolean-expression"><rect class="r" x="385" y="125" width="145" height="25"/><text class="j" x="395" y="142">boolean-expression</text></a><rect class="l" x="540" y="125" width="25" height="25" rx="7"/><text class="j" x="550" y="142">)</text><rect class="l" x="575" y="125" width="28" height="25" rx="7"/><text class="j" x="585" y="142">»</text><a xlink:href="#boolean"><rect class="r" x="613" y="125" width="71" height="25"/><text class="j" x="623" y="142">boolean</text></a><rect class="l" x="25" y="185" width="25" height="25" rx="7"/><text class="j" x="35" y="202">(</text><rect class="l" x="60" y="185" width="48" height="25" rx="7"/><text class="j" x="70" y="202">filter</text><rect class="l" x="138" y="185" width="25" height="25" rx="7"/><text class="j" x="148" y="202">[</text><a xlink:href="#symbol:element"><rect class="r" x="173" y="185" width="120" height="25"/><text class="j" x="183" y="202">symbol:element</text></a><a xlink:href="#set"><rect class="r" x="303" y="185" width="40" height="25"/><text class="j" x="313" y="202">set</text></a><rect class="l" x="353" y="185" width="25" height="25" rx="7"/><text class="j" x="363" y="202">]</text><a xlink:href="#boolean-expression"><rect class="r" x="388" y="185" width="145" height="25"/><text class="j" x="398" y="202">boolean-expression</text></a><rect class="l" x="543" y="185" width="25" height="25" rx="7"/><text class="j" x="553" y="202">)</text><rect class="l" x="578" y="185" width="28" height="25" rx="7"/><text class="j" x="588" y="202">»</text><a xlink:href="#set"><rect class="r" x="616" y="185" width="40" height="25"/><text class="j" x="626" y="202">set</text></a><rect class="l" x="138" y="215" width="25" height="25" rx="7"/><text class="j" x="148" y="232">[</text><a xlink:href="#symbol:element"><rect class="r" x="173" y="215" width="120" height="25"/><text class="j" x="183" y="232">symbol:element</text></a><a xlink:href="#vector"><rect class="r" x="303" y="215" width="59" height="25"/><text class="j" x="313" y="232">vector</text></a><rect class="l" x="372" y="215" width="25" height="25" rx="7"/><text class="j" x="382" y="232">]</text><a xlink:href="#boolean-expression"><rect class="r" x="407" y="215" width="145" height="25"/><text class="j" x="417" y="232">boolean-expression</text></a><rect class="l" x="562" y="215" width="25" height="25" rx="7"/><text class="j" x="572" y="232">)</text><rect class="l" x="597" y="215" width="28" height="25" rx="7"/><text class="j" x="607" y="232">»</text><a xlink:href="#vector"><rect class="r" x="635" y="215" width="59" height="25"/><text class="j" x="645" y="232">vector</text></a><rect class="l" x="25" y="245" width="25" height="25" rx="7"/><text class="j" x="35" y="262">(</text><rect class="l" x="60" y="245" width="41" height="25" rx="7"/><text class="j" x="70" y="262">get</text><a xlink:href="#instance"><rect class="r" x="131" y="245" width="73" height="25"/><text class="j" x="141" y="262">instance</text></a><a xlink:href="#keyword:instance-field"><rect class="r" x="214" y="245" width="163" height="25"/><text class="j" x="224" y="262">keyword:instance-field</text></a><rect class="l" x="387" y="245" width="25" height="25" rx="7"/><text class="j" x="397" y="262">)</text><rect class="l" x="422" y="245" width="28" height="25" rx="7"/><text class="j" x="432" y="262">»</text><a xlink:href="#any"><rect class="r" x="460" y="245" width="43" height="25"/><text class="j" x="470" y="262">any</text></a><a xlink:href="#vector"><rect class="r" x="131" y="275" width="59" height="25"/><text class="j" x="141" y="292">vector</text></a><a xlink:href="#integer"><rect class="r" x="200" y="275" width="65" height="25"/><text class="j" x="210" y="292">integer</text></a><rect class="l" x="275" y="275" width="25" height="25" rx="7"/><text class="j" x="285" y="292">)</text><rect class="l" x="310" y="275" width="28" height="25" rx="7"/><text class="j" x="320" y="292">»</text><a xlink:href="#value"><rect class="r" x="348" y="275" width="54" height="25"/><text class="j" x="358" y="292">value</text></a><rect class="l" x="25" y="320" width="25" height="25" rx="7"/><text class="j" x="35" y="337">(</text><rect class="l" x="60" y="320" width="57" height="25" rx="7"/><text class="j" x="70" y="337">get-in</text><a xlink:href="#instance:target"><rect class="r" x="147" y="320" width="117" height="25"/><text class="j" x="157" y="337">instance:target</text></a><a xlink:href="#vector:target"><rect class="r" x="147" y="350" width="103" height="25"/><text class="j" x="157" y="367">vector:target</text></a><rect class="l" x="294" y="320" width="25" height="25" rx="7"/><text class="j" x="304" y="337">[</text><a xlink:href="#integer"><rect class="r" x="349" y="320" width="65" height="25"/><text class="j" x="359" y="337">integer</text></a><a xlink:href="#keyword:instance-field"><rect class="r" x="349" y="350" width="163" height="25"/><text class="j" x="359" y="367">keyword:instance-field</text></a><a xlink:href="#integer"><rect class="r" x="602" y="320" width="65" height="25"/><text class="j" x="612" y="337">integer</text></a><a xlink:href="#keyword:instance-field"><rect class="r" x="602" y="350" width="163" height="25"/><text class="j" x="612" y="367">keyword:instance-field</text></a><rect class="l" x="835" y="320" width="25" height="25" rx="7"/><text class="j" x="845" y="337">]</text><rect class="l" x="870" y="320" width="25" height="25" rx="7"/><text class="j" x="880" y="337">)</text><rect class="l" x="905" y="320" width="28" height="25" rx="7"/><text class="j" x="915" y="337">»</text><a xlink:href="#any"><rect class="r" x="943" y="320" width="43" height="25"/><text class="j" x="953" y="337">any</text></a><rect class="l" x="25" y="395" width="25" height="25" rx="7"/><text class="j" x="35" y="412">(</text><rect class="l" x="60" y="395" width="27" height="25" rx="7"/><text class="j" x="70" y="412">if</text><a xlink:href="#boolean"><rect class="r" x="97" y="395" width="71" height="25"/><text class="j" x="107" y="412">boolean</text></a><a xlink:href="#any-expression"><rect class="r" x="178" y="395" width="117" height="25"/><text class="j" x="188" y="412">any-expression</text></a><a xlink:href="#any-expression"><rect class="r" x="305" y="395" width="117" height="25"/><text class="j" x="315" y="412">any-expression</text></a><rect class="l" x="432" y="395" width="25" height="25" rx="7"/><text class="j" x="442" y="412">)</text><rect class="l" x="467" y="395" width="28" height="25" rx="7"/><text class="j" x="477" y="412">»</text><a xlink:href="#any"><rect class="r" x="505" y="395" width="43" height="25"/><text class="j" x="515" y="412">any</text></a><rect class="l" x="25" y="425" width="25" height="25" rx="7"/><text class="j" x="35" y="442">(</text><rect class="l" x="60" y="425" width="66" height="25" rx="7"/><text class="j" x="70" y="442">if-value</text><a xlink:href="#symbol"><rect class="r" x="136" y="425" width="64" height="25"/><text class="j" x="146" y="442">symbol</text></a><a xlink:href="#any-expression"><rect class="r" x="210" y="425" width="117" height="25"/><text class="j" x="220" y="442">any-expression</text></a><a xlink:href="#any-expression"><rect class="r" x="337" y="425" width="117" height="25"/><text class="j" x="347" y="442">any-expression</text></a><rect class="l" x="464" y="425" width="25" height="25" rx="7"/><text class="j" x="474" y="442">)</text><rect class="l" x="499" y="425" width="28" height="25" rx="7"/><text class="j" x="509" y="442">»</text><a xlink:href="#any"><rect class="r" x="537" y="425" width="43" height="25"/><text class="j" x="547" y="442">any</text></a><rect class="l" x="25" y="455" width="25" height="25" rx="7"/><text class="j" x="35" y="472">(</text><rect class="l" x="60" y="455" width="87" height="25" rx="7"/><text class="j" x="70" y="472">if-value-let</text><rect class="l" x="157" y="455" width="25" height="25" rx="7"/><text class="j" x="167" y="472">[</text><a xlink:href="#symbol"><rect class="r" x="192" y="455" width="64" height="25"/><text class="j" x="202" y="472">symbol</text></a><a xlink:href="#any:binding"><rect class="r" x="266" y="455" width="94" height="25"/><text class="j" x="276" y="472">any:binding</text></a><rect class="l" x="370" y="455" width="25" height="25" rx="7"/><text class="j" x="380" y="472">]</text><a xlink:href="#any-expression"><rect class="r" x="405" y="455" width="117" height="25"/><text class="j" x="415" y="472">any-expression</text></a><a xlink:href="#any-expression"><rect class="r" x="532" y="455" width="117" height="25"/><text class="j" x="542" y="472">any-expression</text></a><rect class="l" x="659" y="455" width="25" height="25" rx="7"/><text class="j" x="669" y="472">)</text><rect class="l" x="694" y="455" width="28" height="25" rx="7"/><text class="j" x="704" y="472">»</text><a xlink:href="#any"><rect class="r" x="732" y="455" width="43" height="25"/><text class="j" x="742" y="472">any</text></a><rect class="l" x="25" y="500" width="25" height="25" rx="7"/><text class="j" x="35" y="517">(</text><rect class="l" x="60" y="500" width="36" height="25" rx="7"/><text class="j" x="70" y="517">let</text><rect class="l" x="106" y="500" width="25" height="25" rx="7"/><text class="j" x="116" y="517">[</text><a xlink:href="#symbol"><rect class="r" x="141" y="500" width="64" height="25"/><text class="j" x="151" y="517">symbol</text></a><a xlink:href="#value"><rect class="r" x="215" y="500" width="54" height="25"/><text class="j" x="225" y="517">value</text></a><a xlink:href="#symbol"><rect class="r" x="319" y="500" width="64" height="25"/><text class="j" x="329" y="517">symbol</text></a><a xlink:href="#value"><rect class="r" x="393" y="500" width="54" height="25"/><text class="j" x="403" y="517">value</text></a><rect class="l" x="497" y="500" width="25" height="25" rx="7"/><text class="j" x="507" y="517">]</text><a xlink:href="#any-expression"><rect class="r" x="532" y="500" width="117" height="25"/><text class="j" x="542" y="517">any-expression</text></a><rect class="l" x="659" y="500" width="25" height="25" rx="7"/><text class="j" x="669" y="517">)</text><rect class="l" x="694" y="500" width="28" height="25" rx="7"/><text class="j" x="704" y="517">»</text><a xlink:href="#any"><rect class="r" x="732" y="500" width="43" height="25"/><text class="j" x="742" y="517">any</text></a><rect class="l" x="25" y="545" width="25" height="25" rx="7"/><text class="j" x="35" y="562">(</text><rect class="l" x="60" y="545" width="47" height="25" rx="7"/><text class="j" x="70" y="562">map</text><rect class="l" x="137" y="545" width="25" height="25" rx="7"/><text class="j" x="147" y="562">[</text><a xlink:href="#symbol:element"><rect class="r" x="172" y="545" width="120" height="25"/><text class="j" x="182" y="562">symbol:element</text></a><a xlink:href="#set"><rect class="r" x="302" y="545" width="40" height="25"/><text class="j" x="312" y="562">set</text></a><rect class="l" x="352" y="545" width="25" height="25" rx="7"/><text class="j" x="362" y="562">]</text><a xlink:href="#value-expression"><rect class="r" x="387" y="545" width="128" height="25"/><text class="j" x="397" y="562">value-expression</text></a><rect class="l" x="525" y="545" width="25" height="25" rx="7"/><text class="j" x="535" y="562">)</text><rect class="l" x="560" y="545" width="28" height="25" rx="7"/><text class="j" x="570" y="562">»</text><a xlink:href="#set"><rect class="r" x="598" y="545" width="40" height="25"/><text class="j" x="608" y="562">set</text></a><rect class="l" x="137" y="575" width="25" height="25" rx="7"/><text class="j" x="147" y="592">[</text><a xlink:href="#symbol:element"><rect class="r" x="172" y="575" width="120" height="25"/><text class="j" x="182" y="592">symbol:element</text></a><a xlink:href="#vector"><rect class="r" x="302" y="575" width="59" height="25"/><text class="j" x="312" y="592">vector</text></a><rect class="l" x="371" y="575" width="25" height="25" rx="7"/><text class="j" x="381" y="592">]</text><a xlink:href="#value-expression"><rect class="r" x="406" y="575" width="128" height="25"/><text class="j" x="416" y="592">value-expression</text></a><rect class="l" x="544" y="575" width="25" height="25" rx="7"/><text class="j" x="554" y="592">)</text><rect class="l" x="579" y="575" width="28" height="25" rx="7"/><text class="j" x="589" y="592">»</text><a xlink:href="#vector"><rect class="r" x="617" y="575" width="59" height="25"/><text class="j" x="627" y="592">vector</text></a><rect class="l" x="25" y="605" width="25" height="25" rx="7"/><text class="j" x="35" y="622">(</text><rect class="l" x="60" y="605" width="63" height="25" rx="7"/><text class="j" x="70" y="622">reduce</text><rect class="l" x="133" y="605" width="25" height="25" rx="7"/><text class="j" x="143" y="622">[</text><a xlink:href="#symbol:accumulator"><rect class="r" x="168" y="605" width="145" height="25"/><text class="j" x="178" y="622">symbol:accumulator</text></a><a xlink:href="#value:accumulator-init"><rect class="r" x="323" y="605" width="159" height="25"/><text class="j" x="333" y="622">value:accumulator-init</text></a><rect class="l" x="492" y="605" width="25" height="25" rx="7"/><text class="j" x="502" y="622">]</text><rect class="l" x="527" y="605" width="25" height="25" rx="7"/><text class="j" x="537" y="622">[</text><a xlink:href="#symbol:element"><rect class="r" x="562" y="605" width="120" height="25"/><text class="j" x="572" y="622">symbol:element</text></a><a xlink:href="#vector"><rect class="r" x="692" y="605" width="59" height="25"/><text class="j" x="702" y="622">vector</text></a><rect class="l" x="761" y="605" width="25" height="25" rx="7"/><text class="j" x="771" y="622">]</text><a xlink:href="#any-expression"><rect class="r" x="796" y="605" width="117" height="25"/><text class="j" x="806" y="622">any-expression</text></a><rect class="l" x="923" y="605" width="25" height="25" rx="7"/><text class="j" x="933" y="622">)</text><rect class="l" x="958" y="605" width="28" height="25" rx="7"/><text class="j" x="968" y="622">»</text><a xlink:href="#any"><rect class="r" x="996" y="605" width="43" height="25"/><text class="j" x="1006" y="622">any</text></a><rect class="l" x="25" y="635" width="25" height="25" rx="7"/><text class="j" x="35" y="652">(</text><rect class="l" x="60" y="635" width="65" height="25" rx="7"/><text class="j" x="70" y="652">sort-by</text><rect class="l" x="135" y="635" width="25" height="25" rx="7"/><text class="j" x="145" y="652">[</text><a xlink:href="#symbol:element"><rect class="r" x="170" y="635" width="120" height="25"/><text class="j" x="180" y="652">symbol:element</text></a><a xlink:href="#set"><rect class="r" x="320" y="635" width="40" height="25"/><text class="j" x="330" y="652">set</text></a><a xlink:href="#vector"><rect class="r" x="320" y="665" width="59" height="25"/><text class="j" x="330" y="682">vector</text></a><rect class="l" x="409" y="635" width="25" height="25" rx="7"/><text class="j" x="419" y="652">]</text><a xlink:href="#integer-expression"><rect class="r" x="464" y="635" width="139" height="25"/><text class="j" x="474" y="652">integer-expression</text></a><a xlink:href="#fixed-decimal-expression"><rect class="r" x="464" y="665" width="176" height="25"/><text class="j" x="474" y="682">fixed-decimal-expression</text></a><rect class="l" x="670" y="635" width="25" height="25" rx="7"/><text class="j" x="680" y="652">)</text><rect class="l" x="705" y="635" width="28" height="25" rx="7"/><text class="j" x="715" y="652">»</text><a xlink:href="#vector"><rect class="r" x="743" y="635" width="59" height="25"/><text class="j" x="753" y="652">vector</text></a><rect class="l" x="25" y="695" width="25" height="25" rx="7"/><text class="j" x="35" y="712">(</text><rect class="l" x="60" y="695" width="49" height="25" rx="7"/><text class="j" x="70" y="712">valid</text><a xlink:href="#instance-expression"><rect class="r" x="119" y="695" width="147" height="25"/><text class="j" x="129" y="712">instance-expression</text></a><rect class="l" x="276" y="695" width="25" height="25" rx="7"/><text class="j" x="286" y="712">)</text><rect class="l" x="311" y="695" width="28" height="25" rx="7"/><text class="j" x="321" y="712">»</text><a xlink:href="#any"><rect class="r" x="349" y="695" width="43" height="25"/><text class="j" x="359" y="712">any</text></a><rect class="l" x="25" y="725" width="25" height="25" rx="7"/><text class="j" x="35" y="742">(</text><rect class="l" x="60" y="725" width="56" height="25" rx="7"/><text class="j" x="70" y="742">valid?</text><a xlink:href="#instance-expression"><rect class="r" x="126" y="725" width="147" height="25"/><text class="j" x="136" y="742">instance-expression</text></a><rect class="l" x="283" y="725" width="25" height="25" rx="7"/><text class="j" x="293" y="742">)</text><rect class="l" x="318" y="725" width="28" height="25" rx="7"/><text class="j" x="328" y="742">»</text><a xlink:href="#boolean"><rect class="r" x="356" y="725" width="71" height="25"/><text class="j" x="366" y="742">boolean</text></a><rect class="l" x="25" y="755" width="25" height="25" rx="7"/><text class="j" x="35" y="772">(</text><rect class="l" x="60" y="755" width="55" height="25" rx="7"/><text class="j" x="70" y="772">when</text><a xlink:href="#boolean"><rect class="r" x="125" y="755" width="71" height="25"/><text class="j" x="135" y="772">boolean</text></a><a xlink:href="#any-expression"><rect class="r" x="206" y="755" width="117" height="25"/><text class="j" x="216" y="772">any-expression</text></a><rect class="l" x="333" y="755" width="25" height="25" rx="7"/><text class="j" x="343" y="772">)</text><rect class="l" x="368" y="755" width="28" height="25" rx="7"/><text class="j" x="378" y="772">»</text><a xlink:href="#any"><rect class="r" x="406" y="755" width="43" height="25"/><text class="j" x="416" y="772">any</text></a><rect class="l" x="25" y="785" width="25" height="25" rx="7"/><text class="j" x="35" y="802">(</text><rect class="l" x="60" y="785" width="94" height="25" rx="7"/><text class="j" x="70" y="802">when-value</text><a xlink:href="#symbol"><rect class="r" x="164" y="785" width="64" height="25"/><text class="j" x="174" y="802">symbol</text></a><a xlink:href="#any-expression:binding"><rect class="r" x="238" y="785" width="168" height="25"/><text class="j" x="248" y="802">any-expression:binding</text></a><rect class="l" x="416" y="785" width="25" height="25" rx="7"/><text class="j" x="426" y="802">)</text><rect class="l" x="451" y="785" width="28" height="25" rx="7"/><text class="j" x="461" y="802">»</text><a xlink:href="#any"><rect class="r" x="489" y="785" width="43" height="25"/><text class="j" x="499" y="802">any</text></a><rect class="l" x="25" y="815" width="25" height="25" rx="7"/><text class="j" x="35" y="832">(</text><rect class="l" x="60" y="815" width="115" height="25" rx="7"/><text class="j" x="70" y="832">when-value-let</text><rect class="l" x="185" y="815" width="25" height="25" rx="7"/><text class="j" x="195" y="832">[</text><a xlink:href="#symbol"><rect class="r" x="220" y="815" width="64" height="25"/><text class="j" x="230" y="832">symbol</text></a><a xlink:href="#any:binding"><rect class="r" x="294" y="815" width="94" height="25"/><text class="j" x="304" y="832">any:binding</text></a><rect class="l" x="398" y="815" width="25" height="25" rx="7"/><text class="j" x="408" y="832">]</text><a xlink:href="#any-expression"><rect class="r" x="433" y="815" width="117" height="25"/><text class="j" x="443" y="832">any-expression</text></a><rect class="l" x="560" y="815" width="25" height="25" rx="7"/><text class="j" x="570" y="832">)</text><rect class="l" x="595" y="815" width="28" height="25" rx="7"/><text class="j" x="605" y="832">»</text><a xlink:href="#any"><rect class="r" x="633" y="815" width="43" height="25"/><text class="j" x="643" y="832">any</text></a></svg>