<svg version="1.1" xmlns:xlink="http://www.w3.org/1999/xlink" xmlns="http://www.w3.org/2000/svg" width="1057" height="761" viewbox="0 0 1057 761"><defs><style type="text/css">.c{fill: none; stroke: #888888; stroke-width: 3pt;}.j{fill:#000000;font-family:Dialog,Sans-serif;font-size:12px;}.l{fill:#90d9ff;stroke:#222222;}.r{fill:#d3f0ff;stroke:#222222;}</style></defs><path class="c" d="M0 21h25m25 0h10m48 0h10m25 0h10m63 0h30m40 0h39m-94 0q5 0 5 5v19q0 5 5 5h5m59 0h5q5 0 5-5v-19q0-5 5-5m5 0h10m25 0h10m143 0h10m25 0h10m27 0h10m71 0h386m-1037 53q0 5 5 5h5m25 0h10m59 0h10m25 0h10m63 0h30m40 0h39m-94 0q5 0 5 5v19q0 5 5 5h5m59 0h5q5 0 5-5v-19q0-5 5-5m5 0h10m25 0h10m143 0h10m25 0h10m27 0h10m71 0h360q5 0 5-5m-1027 58q0 5 5 5h5m25 0h10m48 0h30m25 0h10m118 0h10m40 0h10m25 0h10m143 0h10m25 0h10m27 0h10m40 0h58m-586 0q5 0 5 5v19q0 5 5 5h5m25 0h10m118 0h10m59 0h10m25 0h10m143 0h10m25 0h10m27 0h10m59 0h5q5 0 5-5v-19q0-5 5-5m5 0h328q5 0 5-5m-1027 58q0 5 5 5h5m25 0h10m41 0h30m74 0h10m159 0h10m25 0h10m27 0h10m42 0h20m-402 0q5 0 5 5v19q0 5 5 5h5m59 0h10m65 0h10m25 0h10m27 0h10m53 0h103q5 0 5-5v-19q0-5 5-5m5 0h519q5 0 5-5m-1027 73q0 5 5 5h5m25 0h10m56 0h30m117 0h20m-152 0q5 0 5 5v19q0 5 5 5h5m102 0h20q5 0 5-5v-19q0-5 5-5m5 0h10m25 0h30m65 0h114m-194 0q5 0 5 5v19q0 5 5 5h5m159 0h5q5 0 5-5v-19q0-5 5-5m5 0h50m-5 0q-5 0-5-5v-16q0-5 5-5h209q5 0 5 5v16q0 5-5 5m-204 0h20m65 0h114m-194 0q5 0 5 5v19q0 5 5 5h5m159 0h5q5 0 5-5v-19q0-5 5-5m5 0h40m-274 0q5 0 5 5v37q0 5 5 5h249q5 0 5-5v-37q0-5 5-5m5 0h10m25 0h10m25 0h10m27 0h10m42 0h62q5 0 5-5m-1027 73q0 5 5 5h5m25 0h10m27 0h10m71 0h10m114 0h10m114 0h10m25 0h10m27 0h10m42 0h497q5 0 5-5m-1027 29q0 5 5 5h5m25 0h10m64 0h10m63 0h10m114 0h10m114 0h10m25 0h10m27 0h10m42 0h468q5 0 5-5m-1027 29q0 5 5 5h5m25 0h10m84 0h10m25 0h10m63 0h10m92 0h10m25 0h10m114 0h10m114 0h10m25 0h10m27 0h10m42 0h276q5 0 5-5m-1027 44q0 5 5 5h5m25 0h10m36 0h10m25 0h10m63 0h10m53 0h50m-5 0q-5 0-5-5v-16q0-5 5-5h136q5 0 5 5v16q0 5-5 5m-68 0h10m53 0h40m-201 0q5 0 5 5v8q0 5 5 5h176q5 0 5-5v-8q0-5 5-5m5 0h10m25 0h10m114 0h10m25 0h10m27 0h10m42 0h271q5 0 5-5m-1027 44q0 5 5 5h5m25 0h10m47 0h30m25 0h10m118 0h10m40 0h10m25 0h10m125 0h10m25 0h10m27 0h10m40 0h58m-568 0q5 0 5 5v19q0 5 5 5h5m25 0h10m118 0h10m59 0h10m25 0h10m125 0h10m25 0h10m27 0h10m59 0h5q5 0 5-5v-19q0-5 5-5m5 0h347q5 0 5-5m-1027 58q0 5 5 5h5m25 0h10m64 0h10m25 0h10m145 0h10m158 0h10m25 0h10m25 0h10m118 0h10m59 0h10m25 0h10m114 0h10m25 0h10m27 0h10m42 0h5q5 0 5-5m-1027 29q0 5 5 5h5m25 0h10m63 0h10m25 0h10m118 0h30m40 0h39m-94 0q5 0 5 5v19q0 5 5 5h5m59 0h5q5 0 5-5v-19q0-5 5-5m5 0h10m25 0h30m137 0h56m-208 0q5 0 5 5v19q0 5 5 5h5m173 0h5q5 0 5-5v-19q0-5 5-5m5 0h10m25 0h10m27 0h10m59 0h243q5 0 5-5m-1027 58q0 5 5 5h5m25 0h10m48 0h10m146 0h10m25 0h10m27 0h10m42 0h649q5 0 5-5m-1027 29q0 5 5 5h5m25 0h10m54 0h10m146 0h10m25 0h10m27 0h10m71 0h614q5 0 5-5m-1027 29q0 5 5 5h5m25 0h10m53 0h10m71 0h10m114 0h10m25 0h10m27 0h10m42 0h595q5 0 5-5m-1027 29q0 5 5 5h5m25 0h10m90 0h10m63 0h10m164 0h10m25 0h10m27 0h10m42 0h516q5 0 5-5m-1032-693q5 0 5 5v717q0 5 5 5h5m25 0h10m110 0h10m25 0h10m63 0h10m92 0h10m25 0h10m114 0h10m25 0h10m27 0h10m42 0h374q5 0 5-5v-717q0-5 5-5m5 0h5"/><rect class="l" x="25" y="5" width="25" height="24" rx="7"/><text class="j" x="35" y="21">(</text><rect class="l" x="60" y="5" width="48" height="24" rx="7"/><text class="j" x="70" y="21">any?</text><rect class="l" x="118" y="5" width="25" height="24" rx="7"/><text class="j" x="128" y="21">[</text><a xlink:href="#symbol"><rect class="r" x="153" y="5" width="63" height="24"/><text class="j" x="163" y="21">symbol</text></a><a xlink:href="#set"><rect class="r" x="246" y="5" width="40" height="24"/><text class="j" x="256" y="21">set</text></a><a xlink:href="#vector"><rect class="r" x="246" y="34" width="59" height="24"/><text class="j" x="256" y="50">vector</text></a><rect class="l" x="335" y="5" width="25" height="24" rx="7"/><text class="j" x="345" y="21">]</text><a xlink:href="#boolean-expression"><rect class="r" x="370" y="5" width="143" height="24"/><text class="j" x="380" y="21">boolean-expression</text></a><rect class="l" x="523" y="5" width="25" height="24" rx="7"/><text class="j" x="533" y="21">)</text><rect class="l" x="558" y="5" width="27" height="24" rx="7"/><text class="j" x="568" y="21">»</text><a xlink:href="#boolean"><rect class="r" x="595" y="5" width="71" height="24"/><text class="j" x="605" y="21">boolean</text></a><rect class="l" x="25" y="63" width="25" height="24" rx="7"/><text class="j" x="35" y="79">(</text><rect class="l" x="60" y="63" width="59" height="24" rx="7"/><text class="j" x="70" y="79">every?</text><rect class="l" x="129" y="63" width="25" height="24" rx="7"/><text class="j" x="139" y="79">[</text><a xlink:href="#symbol"><rect class="r" x="164" y="63" width="63" height="24"/><text class="j" x="174" y="79">symbol</text></a><a xlink:href="#set"><rect class="r" x="257" y="63" width="40" height="24"/><text class="j" x="267" y="79">set</text></a><a xlink:href="#vector"><rect class="r" x="257" y="92" width="59" height="24"/><text class="j" x="267" y="108">vector</text></a><rect class="l" x="346" y="63" width="25" height="24" rx="7"/><text class="j" x="356" y="79">]</text><a xlink:href="#boolean-expression"><rect class="r" x="381" y="63" width="143" height="24"/><text class="j" x="391" y="79">boolean-expression</text></a><rect class="l" x="534" y="63" width="25" height="24" rx="7"/><text class="j" x="544" y="79">)</text><rect class="l" x="569" y="63" width="27" height="24" rx="7"/><text class="j" x="579" y="79">»</text><a xlink:href="#boolean"><rect class="r" x="606" y="63" width="71" height="24"/><text class="j" x="616" y="79">boolean</text></a><rect class="l" x="25" y="121" width="25" height="24" rx="7"/><text class="j" x="35" y="137">(</text><rect class="l" x="60" y="121" width="48" height="24" rx="7"/><text class="j" x="70" y="137">filter</text><rect class="l" x="138" y="121" width="25" height="24" rx="7"/><text class="j" x="148" y="137">[</text><a xlink:href="#symbol:element"><rect class="r" x="173" y="121" width="118" height="24"/><text class="j" x="183" y="137">symbol:element</text></a><a xlink:href="#set"><rect class="r" x="301" y="121" width="40" height="24"/><text class="j" x="311" y="137">set</text></a><rect class="l" x="351" y="121" width="25" height="24" rx="7"/><text class="j" x="361" y="137">]</text><a xlink:href="#boolean-expression"><rect class="r" x="386" y="121" width="143" height="24"/><text class="j" x="396" y="137">boolean-expression</text></a><rect class="l" x="539" y="121" width="25" height="24" rx="7"/><text class="j" x="549" y="137">)</text><rect class="l" x="574" y="121" width="27" height="24" rx="7"/><text class="j" x="584" y="137">»</text><a xlink:href="#set"><rect class="r" x="611" y="121" width="40" height="24"/><text class="j" x="621" y="137">set</text></a><rect class="l" x="138" y="150" width="25" height="24" rx="7"/><text class="j" x="148" y="166">[</text><a xlink:href="#symbol:element"><rect class="r" x="173" y="150" width="118" height="24"/><text class="j" x="183" y="166">symbol:element</text></a><a xlink:href="#vector"><rect class="r" x="301" y="150" width="59" height="24"/><text class="j" x="311" y="166">vector</text></a><rect class="l" x="370" y="150" width="25" height="24" rx="7"/><text class="j" x="380" y="166">]</text><a xlink:href="#boolean-expression"><rect class="r" x="405" y="150" width="143" height="24"/><text class="j" x="415" y="166">boolean-expression</text></a><rect class="l" x="558" y="150" width="25" height="24" rx="7"/><text class="j" x="568" y="166">)</text><rect class="l" x="593" y="150" width="27" height="24" rx="7"/><text class="j" x="603" y="166">»</text><a xlink:href="#vector"><rect class="r" x="630" y="150" width="59" height="24"/><text class="j" x="640" y="166">vector</text></a><rect class="l" x="25" y="179" width="25" height="24" rx="7"/><text class="j" x="35" y="195">(</text><rect class="l" x="60" y="179" width="41" height="24" rx="7"/><text class="j" x="70" y="195">get</text><a xlink:href="#instance"><rect class="r" x="131" y="179" width="74" height="24"/><text class="j" x="141" y="195">instance</text></a><a xlink:href="#keyword:instance-field"><rect class="r" x="215" y="179" width="159" height="24"/><text class="j" x="225" y="195">keyword:instance-field</text></a><rect class="l" x="384" y="179" width="25" height="24" rx="7"/><text class="j" x="394" y="195">)</text><rect class="l" x="419" y="179" width="27" height="24" rx="7"/><text class="j" x="429" y="195">»</text><a xlink:href="#any"><rect class="r" x="456" y="179" width="42" height="24"/><text class="j" x="466" y="195">any</text></a><a xlink:href="#vector"><rect class="r" x="131" y="208" width="59" height="24"/><text class="j" x="141" y="224">vector</text></a><a xlink:href="#integer"><rect class="r" x="200" y="208" width="65" height="24"/><text class="j" x="210" y="224">integer</text></a><rect class="l" x="275" y="208" width="25" height="24" rx="7"/><text class="j" x="285" y="224">)</text><rect class="l" x="310" y="208" width="27" height="24" rx="7"/><text class="j" x="320" y="224">»</text><a xlink:href="#value"><rect class="r" x="347" y="208" width="53" height="24"/><text class="j" x="357" y="224">value</text></a><rect class="l" x="25" y="252" width="25" height="24" rx="7"/><text class="j" x="35" y="268">(</text><rect class="l" x="60" y="252" width="56" height="24" rx="7"/><text class="j" x="70" y="268">get-in</text><a xlink:href="#instance:target"><rect class="r" x="146" y="252" width="117" height="24"/><text class="j" x="156" y="268">instance:target</text></a><a xlink:href="#vector:target"><rect class="r" x="146" y="281" width="102" height="24"/><text class="j" x="156" y="297">vector:target</text></a><rect class="l" x="293" y="252" width="25" height="24" rx="7"/><text class="j" x="303" y="268">[</text><a xlink:href="#integer"><rect class="r" x="348" y="252" width="65" height="24"/><text class="j" x="358" y="268">integer</text></a><a xlink:href="#keyword:instance-field"><rect class="r" x="348" y="281" width="159" height="24"/><text class="j" x="358" y="297">keyword:instance-field</text></a><a xlink:href="#integer"><rect class="r" x="597" y="252" width="65" height="24"/><text class="j" x="607" y="268">integer</text></a><a xlink:href="#keyword:instance-field"><rect class="r" x="597" y="281" width="159" height="24"/><text class="j" x="607" y="297">keyword:instance-field</text></a><rect class="l" x="826" y="252" width="25" height="24" rx="7"/><text class="j" x="836" y="268">]</text><rect class="l" x="861" y="252" width="25" height="24" rx="7"/><text class="j" x="871" y="268">)</text><rect class="l" x="896" y="252" width="27" height="24" rx="7"/><text class="j" x="906" y="268">»</text><a xlink:href="#any"><rect class="r" x="933" y="252" width="42" height="24"/><text class="j" x="943" y="268">any</text></a><rect class="l" x="25" y="325" width="25" height="24" rx="7"/><text class="j" x="35" y="341">(</text><rect class="l" x="60" y="325" width="27" height="24" rx="7"/><text class="j" x="70" y="341">if</text><a xlink:href="#boolean"><rect class="r" x="97" y="325" width="71" height="24"/><text class="j" x="107" y="341">boolean</text></a><a xlink:href="#any-expression"><rect class="r" x="178" y="325" width="114" height="24"/><text class="j" x="188" y="341">any-expression</text></a><a xlink:href="#any-expression"><rect class="r" x="302" y="325" width="114" height="24"/><text class="j" x="312" y="341">any-expression</text></a><rect class="l" x="426" y="325" width="25" height="24" rx="7"/><text class="j" x="436" y="341">)</text><rect class="l" x="461" y="325" width="27" height="24" rx="7"/><text class="j" x="471" y="341">»</text><a xlink:href="#any"><rect class="r" x="498" y="325" width="42" height="24"/><text class="j" x="508" y="341">any</text></a><rect class="l" x="25" y="354" width="25" height="24" rx="7"/><text class="j" x="35" y="370">(</text><rect class="l" x="60" y="354" width="64" height="24" rx="7"/><text class="j" x="70" y="370">if-value</text><a xlink:href="#symbol"><rect class="r" x="134" y="354" width="63" height="24"/><text class="j" x="144" y="370">symbol</text></a><a xlink:href="#any-expression"><rect class="r" x="207" y="354" width="114" height="24"/><text class="j" x="217" y="370">any-expression</text></a><a xlink:href="#any-expression"><rect class="r" x="331" y="354" width="114" height="24"/><text class="j" x="341" y="370">any-expression</text></a><rect class="l" x="455" y="354" width="25" height="24" rx="7"/><text class="j" x="465" y="370">)</text><rect class="l" x="490" y="354" width="27" height="24" rx="7"/><text class="j" x="500" y="370">»</text><a xlink:href="#any"><rect class="r" x="527" y="354" width="42" height="24"/><text class="j" x="537" y="370">any</text></a><rect class="l" x="25" y="383" width="25" height="24" rx="7"/><text class="j" x="35" y="399">(</text><rect class="l" x="60" y="383" width="84" height="24" rx="7"/><text class="j" x="70" y="399">if-value-let</text><rect class="l" x="154" y="383" width="25" height="24" rx="7"/><text class="j" x="164" y="399">[</text><a xlink:href="#symbol"><rect class="r" x="189" y="383" width="63" height="24"/><text class="j" x="199" y="399">symbol</text></a><a xlink:href="#any:binding"><rect class="r" x="262" y="383" width="92" height="24"/><text class="j" x="272" y="399">any:binding</text></a><rect class="l" x="364" y="383" width="25" height="24" rx="7"/><text class="j" x="374" y="399">]</text><a xlink:href="#any-expression"><rect class="r" x="399" y="383" width="114" height="24"/><text class="j" x="409" y="399">any-expression</text></a><a xlink:href="#any-expression"><rect class="r" x="523" y="383" width="114" height="24"/><text class="j" x="533" y="399">any-expression</text></a><rect class="l" x="647" y="383" width="25" height="24" rx="7"/><text class="j" x="657" y="399">)</text><rect class="l" x="682" y="383" width="27" height="24" rx="7"/><text class="j" x="692" y="399">»</text><a xlink:href="#any"><rect class="r" x="719" y="383" width="42" height="24"/><text class="j" x="729" y="399">any</text></a><rect class="l" x="25" y="427" width="25" height="24" rx="7"/><text class="j" x="35" y="443">(</text><rect class="l" x="60" y="427" width="36" height="24" rx="7"/><text class="j" x="70" y="443">let</text><rect class="l" x="106" y="427" width="25" height="24" rx="7"/><text class="j" x="116" y="443">[</text><a xlink:href="#symbol"><rect class="r" x="141" y="427" width="63" height="24"/><text class="j" x="151" y="443">symbol</text></a><a xlink:href="#value"><rect class="r" x="214" y="427" width="53" height="24"/><text class="j" x="224" y="443">value</text></a><a xlink:href="#symbol"><rect class="r" x="317" y="427" width="63" height="24"/><text class="j" x="327" y="443">symbol</text></a><a xlink:href="#value"><rect class="r" x="390" y="427" width="53" height="24"/><text class="j" x="400" y="443">value</text></a><rect class="l" x="493" y="427" width="25" height="24" rx="7"/><text class="j" x="503" y="443">]</text><a xlink:href="#any-expression"><rect class="r" x="528" y="427" width="114" height="24"/><text class="j" x="538" y="443">any-expression</text></a><rect class="l" x="652" y="427" width="25" height="24" rx="7"/><text class="j" x="662" y="443">)</text><rect class="l" x="687" y="427" width="27" height="24" rx="7"/><text class="j" x="697" y="443">»</text><a xlink:href="#any"><rect class="r" x="724" y="427" width="42" height="24"/><text class="j" x="734" y="443">any</text></a><rect class="l" x="25" y="471" width="25" height="24" rx="7"/><text class="j" x="35" y="487">(</text><rect class="l" x="60" y="471" width="47" height="24" rx="7"/><text class="j" x="70" y="487">map</text><rect class="l" x="137" y="471" width="25" height="24" rx="7"/><text class="j" x="147" y="487">[</text><a xlink:href="#symbol:element"><rect class="r" x="172" y="471" width="118" height="24"/><text class="j" x="182" y="487">symbol:element</text></a><a xlink:href="#set"><rect class="r" x="300" y="471" width="40" height="24"/><text class="j" x="310" y="487">set</text></a><rect class="l" x="350" y="471" width="25" height="24" rx="7"/><text class="j" x="360" y="487">]</text><a xlink:href="#value-expression"><rect class="r" x="385" y="471" width="125" height="24"/><text class="j" x="395" y="487">value-expression</text></a><rect class="l" x="520" y="471" width="25" height="24" rx="7"/><text class="j" x="530" y="487">)</text><rect class="l" x="555" y="471" width="27" height="24" rx="7"/><text class="j" x="565" y="487">»</text><a xlink:href="#set"><rect class="r" x="592" y="471" width="40" height="24"/><text class="j" x="602" y="487">set</text></a><rect class="l" x="137" y="500" width="25" height="24" rx="7"/><text class="j" x="147" y="516">[</text><a xlink:href="#symbol:element"><rect class="r" x="172" y="500" width="118" height="24"/><text class="j" x="182" y="516">symbol:element</text></a><a xlink:href="#vector"><rect class="r" x="300" y="500" width="59" height="24"/><text class="j" x="310" y="516">vector</text></a><rect class="l" x="369" y="500" width="25" height="24" rx="7"/><text class="j" x="379" y="516">]</text><a xlink:href="#value-expression"><rect class="r" x="404" y="500" width="125" height="24"/><text class="j" x="414" y="516">value-expression</text></a><rect class="l" x="539" y="500" width="25" height="24" rx="7"/><text class="j" x="549" y="516">)</text><rect class="l" x="574" y="500" width="27" height="24" rx="7"/><text class="j" x="584" y="516">»</text><a xlink:href="#vector"><rect class="r" x="611" y="500" width="59" height="24"/><text class="j" x="621" y="516">vector</text></a><rect class="l" x="25" y="529" width="25" height="24" rx="7"/><text class="j" x="35" y="545">(</text><rect class="l" x="60" y="529" width="64" height="24" rx="7"/><text class="j" x="70" y="545">reduce</text><rect class="l" x="134" y="529" width="25" height="24" rx="7"/><text class="j" x="144" y="545">[</text><a xlink:href="#symbol:accumulator"><rect class="r" x="169" y="529" width="145" height="24"/><text class="j" x="179" y="545">symbol:accumulator</text></a><a xlink:href="#value:accumulator-init"><rect class="r" x="324" y="529" width="158" height="24"/><text class="j" x="334" y="545">value:accumulator-init</text></a><rect class="l" x="492" y="529" width="25" height="24" rx="7"/><text class="j" x="502" y="545">]</text><rect class="l" x="527" y="529" width="25" height="24" rx="7"/><text class="j" x="537" y="545">[</text><a xlink:href="#symbol:element"><rect class="r" x="562" y="529" width="118" height="24"/><text class="j" x="572" y="545">symbol:element</text></a><a xlink:href="#vector"><rect class="r" x="690" y="529" width="59" height="24"/><text class="j" x="700" y="545">vector</text></a><rect class="l" x="759" y="529" width="25" height="24" rx="7"/><text class="j" x="769" y="545">]</text><a xlink:href="#any-expression"><rect class="r" x="794" y="529" width="114" height="24"/><text class="j" x="804" y="545">any-expression</text></a><rect class="l" x="918" y="529" width="25" height="24" rx="7"/><text class="j" x="928" y="545">)</text><rect class="l" x="953" y="529" width="27" height="24" rx="7"/><text class="j" x="963" y="545">»</text><a xlink:href="#any"><rect class="r" x="990" y="529" width="42" height="24"/><text class="j" x="1000" y="545">any</text></a><rect class="l" x="25" y="558" width="25" height="24" rx="7"/><text class="j" x="35" y="574">(</text><rect class="l" x="60" y="558" width="63" height="24" rx="7"/><text class="j" x="70" y="574">sort-by</text><rect class="l" x="133" y="558" width="25" height="24" rx="7"/><text class="j" x="143" y="574">[</text><a xlink:href="#symbol:element"><rect class="r" x="168" y="558" width="118" height="24"/><text class="j" x="178" y="574">symbol:element</text></a><a xlink:href="#set"><rect class="r" x="316" y="558" width="40" height="24"/><text class="j" x="326" y="574">set</text></a><a xlink:href="#vector"><rect class="r" x="316" y="587" width="59" height="24"/><text class="j" x="326" y="603">vector</text></a><rect class="l" x="405" y="558" width="25" height="24" rx="7"/><text class="j" x="415" y="574">]</text><a xlink:href="#integer-expression"><rect class="r" x="460" y="558" width="137" height="24"/><text class="j" x="470" y="574">integer-expression</text></a><a xlink:href="#fixed-decimal-expression"><rect class="r" x="460" y="587" width="173" height="24"/><text class="j" x="470" y="603">fixed-decimal-expression</text></a><rect class="l" x="663" y="558" width="25" height="24" rx="7"/><text class="j" x="673" y="574">)</text><rect class="l" x="698" y="558" width="27" height="24" rx="7"/><text class="j" x="708" y="574">»</text><a xlink:href="#vector"><rect class="r" x="735" y="558" width="59" height="24"/><text class="j" x="745" y="574">vector</text></a><rect class="l" x="25" y="616" width="25" height="24" rx="7"/><text class="j" x="35" y="632">(</text><rect class="l" x="60" y="616" width="48" height="24" rx="7"/><text class="j" x="70" y="632">valid</text><a xlink:href="#instance-expression"><rect class="r" x="118" y="616" width="146" height="24"/><text class="j" x="128" y="632">instance-expression</text></a><rect class="l" x="274" y="616" width="25" height="24" rx="7"/><text class="j" x="284" y="632">)</text><rect class="l" x="309" y="616" width="27" height="24" rx="7"/><text class="j" x="319" y="632">»</text><a xlink:href="#any"><rect class="r" x="346" y="616" width="42" height="24"/><text class="j" x="356" y="632">any</text></a><rect class="l" x="25" y="645" width="25" height="24" rx="7"/><text class="j" x="35" y="661">(</text><rect class="l" x="60" y="645" width="54" height="24" rx="7"/><text class="j" x="70" y="661">valid?</text><a xlink:href="#instance-expression"><rect class="r" x="124" y="645" width="146" height="24"/><text class="j" x="134" y="661">instance-expression</text></a><rect class="l" x="280" y="645" width="25" height="24" rx="7"/><text class="j" x="290" y="661">)</text><rect class="l" x="315" y="645" width="27" height="24" rx="7"/><text class="j" x="325" y="661">»</text><a xlink:href="#boolean"><rect class="r" x="352" y="645" width="71" height="24"/><text class="j" x="362" y="661">boolean</text></a><rect class="l" x="25" y="674" width="25" height="24" rx="7"/><text class="j" x="35" y="690">(</text><rect class="l" x="60" y="674" width="53" height="24" rx="7"/><text class="j" x="70" y="690">when</text><a xlink:href="#boolean"><rect class="r" x="123" y="674" width="71" height="24"/><text class="j" x="133" y="690">boolean</text></a><a xlink:href="#any-expression"><rect class="r" x="204" y="674" width="114" height="24"/><text class="j" x="214" y="690">any-expression</text></a><rect class="l" x="328" y="674" width="25" height="24" rx="7"/><text class="j" x="338" y="690">)</text><rect class="l" x="363" y="674" width="27" height="24" rx="7"/><text class="j" x="373" y="690">»</text><a xlink:href="#any"><rect class="r" x="400" y="674" width="42" height="24"/><text class="j" x="410" y="690">any</text></a><rect class="l" x="25" y="703" width="25" height="24" rx="7"/><text class="j" x="35" y="719">(</text><rect class="l" x="60" y="703" width="90" height="24" rx="7"/><text class="j" x="70" y="719">when-value</text><a xlink:href="#symbol"><rect class="r" x="160" y="703" width="63" height="24"/><text class="j" x="170" y="719">symbol</text></a><a xlink:href="#any-expression:binding"><rect class="r" x="233" y="703" width="164" height="24"/><text class="j" x="243" y="719">any-expression:binding</text></a><rect class="l" x="407" y="703" width="25" height="24" rx="7"/><text class="j" x="417" y="719">)</text><rect class="l" x="442" y="703" width="27" height="24" rx="7"/><text class="j" x="452" y="719">»</text><a xlink:href="#any"><rect class="r" x="479" y="703" width="42" height="24"/><text class="j" x="489" y="719">any</text></a><rect class="l" x="25" y="732" width="25" height="24" rx="7"/><text class="j" x="35" y="748">(</text><rect class="l" x="60" y="732" width="110" height="24" rx="7"/><text class="j" x="70" y="748">when-value-let</text><rect class="l" x="180" y="732" width="25" height="24" rx="7"/><text class="j" x="190" y="748">[</text><a xlink:href="#symbol"><rect class="r" x="215" y="732" width="63" height="24"/><text class="j" x="225" y="748">symbol</text></a><a xlink:href="#any:binding"><rect class="r" x="288" y="732" width="92" height="24"/><text class="j" x="298" y="748">any:binding</text></a><rect class="l" x="390" y="732" width="25" height="24" rx="7"/><text class="j" x="400" y="748">]</text><a xlink:href="#any-expression"><rect class="r" x="425" y="732" width="114" height="24"/><text class="j" x="435" y="748">any-expression</text></a><rect class="l" x="549" y="732" width="25" height="24" rx="7"/><text class="j" x="559" y="748">)</text><rect class="l" x="584" y="732" width="27" height="24" rx="7"/><text class="j" x="594" y="748">»</text><a xlink:href="#any"><rect class="r" x="621" y="732" width="42" height="24"/><text class="j" x="631" y="748">any</text></a></svg>