<svg version="1.1" xmlns:xlink="http://www.w3.org/1999/xlink" xmlns="http://www.w3.org/2000/svg" width="565" height="65" viewbox="0 0 565 65"><defs><style type="text/css">.c{fill: none; stroke: #888888; stroke-width: 2px;}.i{fill:#000000;font-family:Verdana,Sans-serif;font-size:12px;}.l{fill:#90d9ff;stroke:#222222;}.r{fill:#d3f0ff;stroke:#222222;}</style></defs><path class="c" d="M0 18h25m73 0h10m24 0h10m71 0h10m25 0h10m114 0h10m25 0h10m28 0h10m73 0h32m-550 0q5 0 5 5v20q0 5 5 5h5m73 0h10m24 0h10m85 0h10m25 0h10m114 0h10m25 0h10m28 0h10m71 0h5q5 0 5-5v-20q0-5 5-5m5 0h5"/><a xlink:href="#instance"><rect class="r" x="25" y="5" width="73" height="25"/><text class="i" x="35" y="22">instance</text></a><rect class="l" x="108" y="5" width="24" height="25" rx="7"/><text class="i" x="118" y="22">.</text><rect class="l" x="142" y="5" width="71" height="25" rx="7"/><text class="i" x="152" y="22">refineTo</text><rect class="l" x="223" y="5" width="25" height="25" rx="7"/><text class="i" x="233" y="22">(</text><a xlink:href="#symbol:spec-id"><rect class="r" x="258" y="5" width="114" height="25"/><text class="i" x="268" y="22">symbol:spec-id</text></a><rect class="l" x="382" y="5" width="25" height="25" rx="7"/><text class="i" x="392" y="22">)</text><rect class="l" x="417" y="5" width="28" height="25" rx="7"/><text class="i" x="427" y="22">»</text><a xlink:href="#instance"><rect class="r" x="455" y="5" width="73" height="25"/><text class="i" x="465" y="22">instance</text></a><a xlink:href="#instance"><rect class="r" x="25" y="35" width="73" height="25"/><text class="i" x="35" y="52">instance</text></a><rect class="l" x="108" y="35" width="24" height="25" rx="7"/><text class="i" x="118" y="52">.</text><rect class="l" x="142" y="35" width="85" height="25" rx="7"/><text class="i" x="152" y="52">refinesTo?</text><rect class="l" x="237" y="35" width="25" height="25" rx="7"/><text class="i" x="247" y="52">(</text><a xlink:href="#symbol:spec-id"><rect class="r" x="272" y="35" width="114" height="25"/><text class="i" x="282" y="52">symbol:spec-id</text></a><rect class="l" x="396" y="35" width="25" height="25" rx="7"/><text class="i" x="406" y="52">)</text><rect class="l" x="431" y="35" width="28" height="25" rx="7"/><text class="i" x="441" y="52">»</text><a xlink:href="#boolean"><rect class="r" x="469" y="35" width="71" height="25"/><text class="i" x="479" y="52">boolean</text></a></svg>