<svg version="1.1" xmlns:xlink="http://www.w3.org/1999/xlink" xmlns="http://www.w3.org/2000/svg" width="544" height="65" viewbox="0 0 544 65"><defs><style type="text/css">.c{fill:none;stroke:#222222;}.j{fill:#000000;font-family:Verdana,Sans-serif;font-size:12px;}.l{fill:#90d9ff;stroke:#222222;}.r{fill:#d3f0ff;stroke:#222222;}</style></defs><path class="c" d="M0 22h25m25 0h10m74 0h10m73 0h10m124 0h10m25 0h10m28 0h10m73 0h32m-529 0q5 0 5 5v20q0 5 5 5h5m25 0h10m88 0h10m73 0h10m124 0h10m25 0h10m28 0h10m71 0h5q5 0 5-5v-20q0-5 5-5m5 0h5"/><rect class="l" x="25" y="5" width="25" height="25" rx="7"/><text class="j" x="35" y="22">(</text><rect class="l" x="60" y="5" width="74" height="25" rx="7"/><text class="j" x="70" y="22">refine-to</text><a xlink:href="#instance"><rect class="r" x="144" y="5" width="73" height="25"/><text class="j" x="154" y="22">instance</text></a><a xlink:href="#keyword:spec-id"><rect class="r" x="227" y="5" width="124" height="25"/><text class="j" x="237" y="22">keyword:spec-id</text></a><rect class="l" x="361" y="5" width="25" height="25" rx="7"/><text class="j" x="371" y="22">)</text><rect class="l" x="396" y="5" width="28" height="25" rx="7"/><text class="j" x="406" y="22">»</text><a xlink:href="#instance"><rect class="r" x="434" y="5" width="73" height="25"/><text class="j" x="444" y="22">instance</text></a><rect class="l" x="25" y="35" width="25" height="25" rx="7"/><text class="j" x="35" y="52">(</text><rect class="l" x="60" y="35" width="88" height="25" rx="7"/><text class="j" x="70" y="52">refines-to?</text><a xlink:href="#instance"><rect class="r" x="158" y="35" width="73" height="25"/><text class="j" x="168" y="52">instance</text></a><a xlink:href="#keyword:spec-id"><rect class="r" x="241" y="35" width="124" height="25"/><text class="j" x="251" y="52">keyword:spec-id</text></a><rect class="l" x="375" y="35" width="25" height="25" rx="7"/><text class="j" x="385" y="52">)</text><rect class="l" x="410" y="35" width="28" height="25" rx="7"/><text class="j" x="420" y="52">»</text><a xlink:href="#boolean"><rect class="r" x="448" y="35" width="71" height="25"/><text class="j" x="458" y="52">boolean</text></a></svg>