<svg version="1.1" xmlns:xlink="http://www.w3.org/1999/xlink" xmlns="http://www.w3.org/2000/svg" width="538" height="63" viewbox="0 0 538 63"><defs><style type="text/css">.c{fill: none; stroke: #888888; stroke-width: 2px;}.j{fill:#000000;font-family:Dialog,Sans-serif;font-size:12px;}.l{fill:#90d9ff;stroke:#222222;}.r{fill:#d3f0ff;stroke:#222222;}</style></defs><path class="c" d="M0 17h25m25 0h10m73 0h10m74 0h10m120 0h10m25 0h10m27 0h10m74 0h30m-523 0q5 0 5 5v19q0 5 5 5h5m25 0h10m86 0h10m74 0h10m120 0h10m25 0h10m27 0h10m71 0h5q5 0 5-5v-19q0-5 5-5m5 0h5"/><rect class="l" x="25" y="5" width="25" height="24" rx="7"/><text class="j" x="35" y="21">(</text><rect class="l" x="60" y="5" width="73" height="24" rx="7"/><text class="j" x="70" y="21">refine-to</text><a xlink:href="#instance"><rect class="r" x="143" y="5" width="74" height="24"/><text class="j" x="153" y="21">instance</text></a><a xlink:href="#keyword:spec-id"><rect class="r" x="227" y="5" width="120" height="24"/><text class="j" x="237" y="21">keyword:spec-id</text></a><rect class="l" x="357" y="5" width="25" height="24" rx="7"/><text class="j" x="367" y="21">)</text><rect class="l" x="392" y="5" width="27" height="24" rx="7"/><text class="j" x="402" y="21">»</text><a xlink:href="#instance"><rect class="r" x="429" y="5" width="74" height="24"/><text class="j" x="439" y="21">instance</text></a><rect class="l" x="25" y="34" width="25" height="24" rx="7"/><text class="j" x="35" y="50">(</text><rect class="l" x="60" y="34" width="86" height="24" rx="7"/><text class="j" x="70" y="50">refines-to?</text><a xlink:href="#instance"><rect class="r" x="156" y="34" width="74" height="24"/><text class="j" x="166" y="50">instance</text></a><a xlink:href="#keyword:spec-id"><rect class="r" x="240" y="34" width="120" height="24"/><text class="j" x="250" y="50">keyword:spec-id</text></a><rect class="l" x="370" y="34" width="25" height="24" rx="7"/><text class="j" x="380" y="50">)</text><rect class="l" x="405" y="34" width="27" height="24" rx="7"/><text class="j" x="415" y="50">»</text><a xlink:href="#boolean"><rect class="r" x="442" y="34" width="71" height="24"/><text class="j" x="452" y="50">boolean</text></a></svg>