<!--
RULE = ( ( ( (instance '.' symbol:instance-field) '»' any ) |
( (vector '[' integer ']') '»' value ) )  |
 ( ( ( (instance:target '.' symbol:instance-field) | (vector:target '[' integer ']') ){ ( ('.' symbol:instance-field) | ('[' integer ']' ) ) } '»' any ) )  |
 ( ( 'any?' '(' symbol 'in' (set | vector) ')' boolean-expression '»' boolean ) )  |
 ( ( 'if' '(' boolean ')' any-expression 'else' any-expression '»' any ) )  |
 ( ( 'every?' '(' symbol 'in' (set | vector) ')' boolean-expression '»' boolean ) )  |
 ( ( 'filter' '(' symbol 'in' set ')' boolean-expression '»' set ) |
( 'filter' '(' symbol 'in' vector ')' boolean-expression '»' vector ) )  |
 ( ( 'if' '(' boolean ')' any-expression 'else' any-expression '»' any ) )  |
 ( ( 'ifValue' '(' symbol ')' any-expression 'else' any-expression '»' any ) )  |
 ( ( 'ifValueLet' '(' symbol '=' any:binding ')'  any-expression 'else' any-expression '»' any ) )  |
 ( ( '{' symbol '=' value ';' {symbol '=' value ';'} any-expression '}' '»' any ) )  |
 ( ( 'map' '(' symbol:element 'in' set ')' value-expression '»' set ) |
( 'map' '(' symbol:element 'in' vector ')' value-expression '»' vector ) )  |
 ( ( 'reduce' '(' symbol:accumulator '=' value:accumulator-init ';' symbol:element 'in' vector ')' any-expression '»' any ) )  |
 ( ( 'sortBy' '(' symbol:element 'in' (set | vector) ')' (integer-expression | fixed-decimal-expression) '»' vector ) )  |
 ( ( 'valid' instance-expression '»' any ) )  |
 ( ( 'valid?' instance-expression '»' boolean ) )  |
 ( ( 'when' '(' boolean ')' any-expression '»' any ) )  |
 ( ( 'whenValue' '(' symbol ')' any-expression '»' any ) )  |
 ( ( 'whenValueLet' '(' symbol '=' any:binding ')' any-expression '»' any ) ) );
-->
<svg version="1.1" xmlns:xlink="http://www.w3.org/1999/xlink" xmlns="http://www.w3.org/2000/svg" width="1039" height="815" viewbox="0 0 1039 815"><defs><style type="text/css">.c{fill: none; stroke: #888888; stroke-width: 2px;}.i{fill:#000000;font-family:Verdana,Sans-serif;font-size:12px;}.l{fill:#90d9ff;stroke:#222222;}.r{fill:#d3f0ff;stroke:#222222;}</style></defs><path class="c" d="M0 18h25m73 0h10m24 0h10m153 0h10m28 0h10m43 0h648m-1019 25q0 5 5 5h5m59 0h10m25 0h10m65 0h10m25 0h10m28 0h10m54 0h688q5 0 5-5m-1009 45q0 5 5 5h25m117 0h10m24 0h10m153 0h20m-349 0q5 0 5 5v20q0 5 5 5h5m103 0h10m25 0h10m65 0h10m25 0h71q5 0 5-5v-20q0-5 5-5m5 0h50m-5 0q-5 0-5-5v-17q0-5 5-5h237q5 0 5 5v17q0 5-5 5m-232 0h20m24 0h10m153 0h20m-222 0q5 0 5 5v20q0 5 5 5h5m25 0h10m65 0h10m25 0h57q5 0 5-5v-20q0-5 5-5m5 0h40m-302 0q5 0 5 5v38q0 5 5 5h277q5 0 5-5v-38q0-5 5-5m5 0h10m28 0h10m43 0h232q5 0 5-5m-1009 75q0 5 5 5h5m50 0h10m25 0h10m64 0h10m31 0h30m40 0h39m-94 0q5 0 5 5v20q0 5 5 5h5m59 0h5q5 0 5-5v-20q0-5 5-5m5 0h10m25 0h10m145 0h10m28 0h10m71 0h376q5 0 5-5m-1009 60q0 5 5 5h5m27 0h10m25 0h10m71 0h10m25 0h10m117 0h10m46 0h10m117 0h10m28 0h10m43 0h415q5 0 5-5m-1009 30q0 5 5 5h5m62 0h10m25 0h10m64 0h10m31 0h30m40 0h39m-94 0q5 0 5 5v20q0 5 5 5h5m59 0h5q5 0 5-5v-20q0-5 5-5m5 0h10m25 0h10m145 0h10m28 0h10m71 0h364q5 0 5-5m-1009 60q0 5 5 5h5m48 0h10m25 0h10m64 0h10m31 0h10m40 0h10m25 0h10m145 0h10m28 0h10m40 0h468q5 0 5-5m-1009 30q0 5 5 5h5m48 0h10m25 0h10m64 0h10m31 0h10m59 0h10m25 0h10m145 0h10m28 0h10m59 0h430q5 0 5-5m-1009 30q0 5 5 5h5m27 0h10m25 0h10m71 0h10m25 0h10m117 0h10m46 0h10m117 0h10m28 0h10m43 0h415q5 0 5-5m-1009 30q0 5 5 5h5m62 0h10m25 0h10m64 0h10m25 0h10m117 0h10m46 0h10m117 0h10m28 0h10m43 0h387q5 0 5-5m-1009 30q0 5 5 5h5m82 0h10m25 0h10m64 0h10m29 0h10m94 0h10m25 0h10m117 0h10m46 0h10m117 0h10m28 0h10m43 0h224q5 0 5-5m-1009 45q0 5 5 5h5m28 0h10m64 0h10m29 0h10m54 0h10m25 0h50m-5 0q-5 0-5-5v-17q0-5 5-5h212q5 0 5 5v17q0 5-5 5m-143 0h10m29 0h10m54 0h10m25 0h40m-277 0q5 0 5 5v8q0 5 5 5h252q5 0 5-5v-8q0-5 5-5m5 0h10m117 0h10m28 0h10m28 0h10m43 0h206q5 0 5-5m-1009 45q0 5 5 5h5m47 0h10m25 0h10m120 0h10m31 0h10m40 0h10m25 0h10m128 0h10m28 0h10m40 0h430q5 0 5-5m-1009 30q0 5 5 5h5m47 0h10m25 0h10m120 0h10m31 0h10m59 0h10m25 0h10m128 0h10m28 0h10m59 0h392q5 0 5-5m-1009 30q0 5 5 5h5m63 0h10m25 0h10m145 0h10m29 0h10m159 0h10m25 0h10m120 0h10m31 0h10m59 0h10m25 0h10m117 0h10m28 0h10m43 0h5q5 0 5-5m-1009 30q0 5 5 5h5m60 0h10m25 0h10m120 0h10m31 0h30m40 0h39m-94 0q5 0 5 5v20q0 5 5 5h5m59 0h5q5 0 5-5v-20q0-5 5-5m5 0h10m25 0h30m139 0h57m-211 0q5 0 5 5v20q0 5 5 5h5m176 0h5q5 0 5-5v-20q0-5 5-5m5 0h10m28 0h10m59 0h251q5 0 5-5m-1009 60q0 5 5 5h5m49 0h10m147 0h10m28 0h10m43 0h697q5 0 5-5m-1009 30q0 5 5 5h5m56 0h10m147 0h10m28 0h10m71 0h662q5 0 5-5m-1009 30q0 5 5 5h5m55 0h10m25 0h10m71 0h10m25 0h10m117 0h10m28 0h10m43 0h570q5 0 5-5m-1009 30q0 5 5 5h5m90 0h10m25 0h10m64 0h10m25 0h10m117 0h10m28 0h10m43 0h542q5 0 5-5m-1014-745q5 0 5 5v770q0 5 5 5h5m110 0h10m25 0h10m64 0h10m29 0h10m94 0h10m25 0h10m117 0h10m28 0h10m43 0h379q5 0 5-5v-770q0-5 5-5m5 0h5"/><a xlink:href="#instance"><rect class="r" x="25" y="5" width="73" height="25"/><text class="i" x="35" y="22">instance</text></a><rect class="l" x="108" y="5" width="24" height="25" rx="7"/><text class="i" x="118" y="22">.</text><a xlink:href="#symbol:instance-field"><rect class="r" x="142" y="5" width="153" height="25"/><text class="i" x="152" y="22">symbol:instance-field</text></a><rect class="l" x="305" y="5" width="28" height="25" rx="7"/><text class="i" x="315" y="22">»</text><a xlink:href="#any"><rect class="r" x="343" y="5" width="43" height="25"/><text class="i" x="353" y="22">any</text></a><a xlink:href="#vector"><rect class="r" x="25" y="35" width="59" height="25"/><text class="i" x="35" y="52">vector</text></a><rect class="l" x="94" y="35" width="25" height="25" rx="7"/><text class="i" x="104" y="52">[</text><a xlink:href="#integer"><rect class="r" x="129" y="35" width="65" height="25"/><text class="i" x="139" y="52">integer</text></a><rect class="l" x="204" y="35" width="25" height="25" rx="7"/><text class="i" x="214" y="52">]</text><rect class="l" x="239" y="35" width="28" height="25" rx="7"/><text class="i" x="249" y="52">»</text><a xlink:href="#value"><rect class="r" x="277" y="35" width="54" height="25"/><text class="i" x="287" y="52">value</text></a><a xlink:href="#instance:target"><rect class="r" x="45" y="80" width="117" height="25"/><text class="i" x="55" y="97">instance:target</text></a><rect class="l" x="172" y="80" width="24" height="25" rx="7"/><text class="i" x="182" y="97">.</text><a xlink:href="#symbol:instance-field"><rect class="r" x="206" y="80" width="153" height="25"/><text class="i" x="216" y="97">symbol:instance-field</text></a><a xlink:href="#vector:target"><rect class="r" x="45" y="110" width="103" height="25"/><text class="i" x="55" y="127">vector:target</text></a><rect class="l" x="158" y="110" width="25" height="25" rx="7"/><text class="i" x="168" y="127">[</text><a xlink:href="#integer"><rect class="r" x="193" y="110" width="65" height="25"/><text class="i" x="203" y="127">integer</text></a><rect class="l" x="268" y="110" width="25" height="25" rx="7"/><text class="i" x="278" y="127">]</text><rect class="l" x="449" y="80" width="24" height="25" rx="7"/><text class="i" x="459" y="97">.</text><a xlink:href="#symbol:instance-field"><rect class="r" x="483" y="80" width="153" height="25"/><text class="i" x="493" y="97">symbol:instance-field</text></a><rect class="l" x="449" y="110" width="25" height="25" rx="7"/><text class="i" x="459" y="127">[</text><a xlink:href="#integer"><rect class="r" x="484" y="110" width="65" height="25"/><text class="i" x="494" y="127">integer</text></a><rect class="l" x="559" y="110" width="25" height="25" rx="7"/><text class="i" x="569" y="127">]</text><rect class="l" x="706" y="80" width="28" height="25" rx="7"/><text class="i" x="716" y="97">»</text><a xlink:href="#any"><rect class="r" x="744" y="80" width="43" height="25"/><text class="i" x="754" y="97">any</text></a><rect class="l" x="25" y="155" width="50" height="25" rx="7"/><text class="i" x="35" y="172">any?</text><rect class="l" x="85" y="155" width="25" height="25" rx="7"/><text class="i" x="95" y="172">(</text><a xlink:href="#symbol"><rect class="r" x="120" y="155" width="64" height="25"/><text class="i" x="130" y="172">symbol</text></a><rect class="l" x="194" y="155" width="31" height="25" rx="7"/><text class="i" x="204" y="172">in</text><a xlink:href="#set"><rect class="r" x="255" y="155" width="40" height="25"/><text class="i" x="265" y="172">set</text></a><a xlink:href="#vector"><rect class="r" x="255" y="185" width="59" height="25"/><text class="i" x="265" y="202">vector</text></a><rect class="l" x="344" y="155" width="25" height="25" rx="7"/><text class="i" x="354" y="172">)</text><a xlink:href="#boolean-expression"><rect class="r" x="379" y="155" width="145" height="25"/><text class="i" x="389" y="172">boolean-expression</text></a><rect class="l" x="534" y="155" width="28" height="25" rx="7"/><text class="i" x="544" y="172">»</text><a xlink:href="#boolean"><rect class="r" x="572" y="155" width="71" height="25"/><text class="i" x="582" y="172">boolean</text></a><rect class="l" x="25" y="215" width="27" height="25" rx="7"/><text class="i" x="35" y="232">if</text><rect class="l" x="62" y="215" width="25" height="25" rx="7"/><text class="i" x="72" y="232">(</text><a xlink:href="#boolean"><rect class="r" x="97" y="215" width="71" height="25"/><text class="i" x="107" y="232">boolean</text></a><rect class="l" x="178" y="215" width="25" height="25" rx="7"/><text class="i" x="188" y="232">)</text><a xlink:href="#any-expression"><rect class="r" x="213" y="215" width="117" height="25"/><text class="i" x="223" y="232">any-expression</text></a><rect class="l" x="340" y="215" width="46" height="25" rx="7"/><text class="i" x="350" y="232">else</text><a xlink:href="#any-expression"><rect class="r" x="396" y="215" width="117" height="25"/><text class="i" x="406" y="232">any-expression</text></a><rect class="l" x="523" y="215" width="28" height="25" rx="7"/><text class="i" x="533" y="232">»</text><a xlink:href="#any"><rect class="r" x="561" y="215" width="43" height="25"/><text class="i" x="571" y="232">any</text></a><rect class="l" x="25" y="245" width="62" height="25" rx="7"/><text class="i" x="35" y="262">every?</text><rect class="l" x="97" y="245" width="25" height="25" rx="7"/><text class="i" x="107" y="262">(</text><a xlink:href="#symbol"><rect class="r" x="132" y="245" width="64" height="25"/><text class="i" x="142" y="262">symbol</text></a><rect class="l" x="206" y="245" width="31" height="25" rx="7"/><text class="i" x="216" y="262">in</text><a xlink:href="#set"><rect class="r" x="267" y="245" width="40" height="25"/><text class="i" x="277" y="262">set</text></a><a xlink:href="#vector"><rect class="r" x="267" y="275" width="59" height="25"/><text class="i" x="277" y="292">vector</text></a><rect class="l" x="356" y="245" width="25" height="25" rx="7"/><text class="i" x="366" y="262">)</text><a xlink:href="#boolean-expression"><rect class="r" x="391" y="245" width="145" height="25"/><text class="i" x="401" y="262">boolean-expression</text></a><rect class="l" x="546" y="245" width="28" height="25" rx="7"/><text class="i" x="556" y="262">»</text><a xlink:href="#boolean"><rect class="r" x="584" y="245" width="71" height="25"/><text class="i" x="594" y="262">boolean</text></a><rect class="l" x="25" y="305" width="48" height="25" rx="7"/><text class="i" x="35" y="322">filter</text><rect class="l" x="83" y="305" width="25" height="25" rx="7"/><text class="i" x="93" y="322">(</text><a xlink:href="#symbol"><rect class="r" x="118" y="305" width="64" height="25"/><text class="i" x="128" y="322">symbol</text></a><rect class="l" x="192" y="305" width="31" height="25" rx="7"/><text class="i" x="202" y="322">in</text><a xlink:href="#set"><rect class="r" x="233" y="305" width="40" height="25"/><text class="i" x="243" y="322">set</text></a><rect class="l" x="283" y="305" width="25" height="25" rx="7"/><text class="i" x="293" y="322">)</text><a xlink:href="#boolean-expression"><rect class="r" x="318" y="305" width="145" height="25"/><text class="i" x="328" y="322">boolean-expression</text></a><rect class="l" x="473" y="305" width="28" height="25" rx="7"/><text class="i" x="483" y="322">»</text><a xlink:href="#set"><rect class="r" x="511" y="305" width="40" height="25"/><text class="i" x="521" y="322">set</text></a><rect class="l" x="25" y="335" width="48" height="25" rx="7"/><text class="i" x="35" y="352">filter</text><rect class="l" x="83" y="335" width="25" height="25" rx="7"/><text class="i" x="93" y="352">(</text><a xlink:href="#symbol"><rect class="r" x="118" y="335" width="64" height="25"/><text class="i" x="128" y="352">symbol</text></a><rect class="l" x="192" y="335" width="31" height="25" rx="7"/><text class="i" x="202" y="352">in</text><a xlink:href="#vector"><rect class="r" x="233" y="335" width="59" height="25"/><text class="i" x="243" y="352">vector</text></a><rect class="l" x="302" y="335" width="25" height="25" rx="7"/><text class="i" x="312" y="352">)</text><a xlink:href="#boolean-expression"><rect class="r" x="337" y="335" width="145" height="25"/><text class="i" x="347" y="352">boolean-expression</text></a><rect class="l" x="492" y="335" width="28" height="25" rx="7"/><text class="i" x="502" y="352">»</text><a xlink:href="#vector"><rect class="r" x="530" y="335" width="59" height="25"/><text class="i" x="540" y="352">vector</text></a><rect class="l" x="25" y="365" width="27" height="25" rx="7"/><text class="i" x="35" y="382">if</text><rect class="l" x="62" y="365" width="25" height="25" rx="7"/><text class="i" x="72" y="382">(</text><a xlink:href="#boolean"><rect class="r" x="97" y="365" width="71" height="25"/><text class="i" x="107" y="382">boolean</text></a><rect class="l" x="178" y="365" width="25" height="25" rx="7"/><text class="i" x="188" y="382">)</text><a xlink:href="#any-expression"><rect class="r" x="213" y="365" width="117" height="25"/><text class="i" x="223" y="382">any-expression</text></a><rect class="l" x="340" y="365" width="46" height="25" rx="7"/><text class="i" x="350" y="382">else</text><a xlink:href="#any-expression"><rect class="r" x="396" y="365" width="117" height="25"/><text class="i" x="406" y="382">any-expression</text></a><rect class="l" x="523" y="365" width="28" height="25" rx="7"/><text class="i" x="533" y="382">»</text><a xlink:href="#any"><rect class="r" x="561" y="365" width="43" height="25"/><text class="i" x="571" y="382">any</text></a><rect class="l" x="25" y="395" width="62" height="25" rx="7"/><text class="i" x="35" y="412">ifValue</text><rect class="l" x="97" y="395" width="25" height="25" rx="7"/><text class="i" x="107" y="412">(</text><a xlink:href="#symbol"><rect class="r" x="132" y="395" width="64" height="25"/><text class="i" x="142" y="412">symbol</text></a><rect class="l" x="206" y="395" width="25" height="25" rx="7"/><text class="i" x="216" y="412">)</text><a xlink:href="#any-expression"><rect class="r" x="241" y="395" width="117" height="25"/><text class="i" x="251" y="412">any-expression</text></a><rect class="l" x="368" y="395" width="46" height="25" rx="7"/><text class="i" x="378" y="412">else</text><a xlink:href="#any-expression"><rect class="r" x="424" y="395" width="117" height="25"/><text class="i" x="434" y="412">any-expression</text></a><rect class="l" x="551" y="395" width="28" height="25" rx="7"/><text class="i" x="561" y="412">»</text><a xlink:href="#any"><rect class="r" x="589" y="395" width="43" height="25"/><text class="i" x="599" y="412">any</text></a><rect class="l" x="25" y="425" width="82" height="25" rx="7"/><text class="i" x="35" y="442">ifValueLet</text><rect class="l" x="117" y="425" width="25" height="25" rx="7"/><text class="i" x="127" y="442">(</text><a xlink:href="#symbol"><rect class="r" x="152" y="425" width="64" height="25"/><text class="i" x="162" y="442">symbol</text></a><rect class="l" x="226" y="425" width="29" height="25" rx="7"/><text class="i" x="236" y="442">=</text><a xlink:href="#any:binding"><rect class="r" x="265" y="425" width="94" height="25"/><text class="i" x="275" y="442">any:binding</text></a><rect class="l" x="369" y="425" width="25" height="25" rx="7"/><text class="i" x="379" y="442">)</text><a xlink:href="#any-expression"><rect class="r" x="404" y="425" width="117" height="25"/><text class="i" x="414" y="442">any-expression</text></a><rect class="l" x="531" y="425" width="46" height="25" rx="7"/><text class="i" x="541" y="442">else</text><a xlink:href="#any-expression"><rect class="r" x="587" y="425" width="117" height="25"/><text class="i" x="597" y="442">any-expression</text></a><rect class="l" x="714" y="425" width="28" height="25" rx="7"/><text class="i" x="724" y="442">»</text><a xlink:href="#any"><rect class="r" x="752" y="425" width="43" height="25"/><text class="i" x="762" y="442">any</text></a><rect class="l" x="25" y="470" width="28" height="25" rx="7"/><text class="i" x="35" y="487">{</text><a xlink:href="#symbol"><rect class="r" x="63" y="470" width="64" height="25"/><text class="i" x="73" y="487">symbol</text></a><rect class="l" x="137" y="470" width="29" height="25" rx="7"/><text class="i" x="147" y="487">=</text><a xlink:href="#value"><rect class="r" x="176" y="470" width="54" height="25"/><text class="i" x="186" y="487">value</text></a><rect class="l" x="240" y="470" width="25" height="25" rx="7"/><text class="i" x="250" y="487">;</text><a xlink:href="#symbol"><rect class="r" x="315" y="470" width="64" height="25"/><text class="i" x="325" y="487">symbol</text></a><rect class="l" x="389" y="470" width="29" height="25" rx="7"/><text class="i" x="399" y="487">=</text><a xlink:href="#value"><rect class="r" x="428" y="470" width="54" height="25"/><text class="i" x="438" y="487">value</text></a><rect class="l" x="492" y="470" width="25" height="25" rx="7"/><text class="i" x="502" y="487">;</text><a xlink:href="#any-expression"><rect class="r" x="567" y="470" width="117" height="25"/><text class="i" x="577" y="487">any-expression</text></a><rect class="l" x="694" y="470" width="28" height="25" rx="7"/><text class="i" x="704" y="487">}</text><rect class="l" x="732" y="470" width="28" height="25" rx="7"/><text class="i" x="742" y="487">»</text><a xlink:href="#any"><rect class="r" x="770" y="470" width="43" height="25"/><text class="i" x="780" y="487">any</text></a><rect class="l" x="25" y="515" width="47" height="25" rx="7"/><text class="i" x="35" y="532">map</text><rect class="l" x="82" y="515" width="25" height="25" rx="7"/><text class="i" x="92" y="532">(</text><a xlink:href="#symbol:element"><rect class="r" x="117" y="515" width="120" height="25"/><text class="i" x="127" y="532">symbol:element</text></a><rect class="l" x="247" y="515" width="31" height="25" rx="7"/><text class="i" x="257" y="532">in</text><a xlink:href="#set"><rect class="r" x="288" y="515" width="40" height="25"/><text class="i" x="298" y="532">set</text></a><rect class="l" x="338" y="515" width="25" height="25" rx="7"/><text class="i" x="348" y="532">)</text><a xlink:href="#value-expression"><rect class="r" x="373" y="515" width="128" height="25"/><text class="i" x="383" y="532">value-expression</text></a><rect class="l" x="511" y="515" width="28" height="25" rx="7"/><text class="i" x="521" y="532">»</text><a xlink:href="#set"><rect class="r" x="549" y="515" width="40" height="25"/><text class="i" x="559" y="532">set</text></a><rect class="l" x="25" y="545" width="47" height="25" rx="7"/><text class="i" x="35" y="562">map</text><rect class="l" x="82" y="545" width="25" height="25" rx="7"/><text class="i" x="92" y="562">(</text><a xlink:href="#symbol:element"><rect class="r" x="117" y="545" width="120" height="25"/><text class="i" x="127" y="562">symbol:element</text></a><rect class="l" x="247" y="545" width="31" height="25" rx="7"/><text class="i" x="257" y="562">in</text><a xlink:href="#vector"><rect class="r" x="288" y="545" width="59" height="25"/><text class="i" x="298" y="562">vector</text></a><rect class="l" x="357" y="545" width="25" height="25" rx="7"/><text class="i" x="367" y="562">)</text><a xlink:href="#value-expression"><rect class="r" x="392" y="545" width="128" height="25"/><text class="i" x="402" y="562">value-expression</text></a><rect class="l" x="530" y="545" width="28" height="25" rx="7"/><text class="i" x="540" y="562">»</text><a xlink:href="#vector"><rect class="r" x="568" y="545" width="59" height="25"/><text class="i" x="578" y="562">vector</text></a><rect class="l" x="25" y="575" width="63" height="25" rx="7"/><text class="i" x="35" y="592">reduce</text><rect class="l" x="98" y="575" width="25" height="25" rx="7"/><text class="i" x="108" y="592">(</text><a xlink:href="#symbol:accumulator"><rect class="r" x="133" y="575" width="145" height="25"/><text class="i" x="143" y="592">symbol:accumulator</text></a><rect class="l" x="288" y="575" width="29" height="25" rx="7"/><text class="i" x="298" y="592">=</text><a xlink:href="#value:accumulator-init"><rect class="r" x="327" y="575" width="159" height="25"/><text class="i" x="337" y="592">value:accumulator-init</text></a><rect class="l" x="496" y="575" width="25" height="25" rx="7"/><text class="i" x="506" y="592">;</text><a xlink:href="#symbol:element"><rect class="r" x="531" y="575" width="120" height="25"/><text class="i" x="541" y="592">symbol:element</text></a><rect class="l" x="661" y="575" width="31" height="25" rx="7"/><text class="i" x="671" y="592">in</text><a xlink:href="#vector"><rect class="r" x="702" y="575" width="59" height="25"/><text class="i" x="712" y="592">vector</text></a><rect class="l" x="771" y="575" width="25" height="25" rx="7"/><text class="i" x="781" y="592">)</text><a xlink:href="#any-expression"><rect class="r" x="806" y="575" width="117" height="25"/><text class="i" x="816" y="592">any-expression</text></a><rect class="l" x="933" y="575" width="28" height="25" rx="7"/><text class="i" x="943" y="592">»</text><a xlink:href="#any"><rect class="r" x="971" y="575" width="43" height="25"/><text class="i" x="981" y="592">any</text></a><rect class="l" x="25" y="605" width="60" height="25" rx="7"/><text class="i" x="35" y="622">sortBy</text><rect class="l" x="95" y="605" width="25" height="25" rx="7"/><text class="i" x="105" y="622">(</text><a xlink:href="#symbol:element"><rect class="r" x="130" y="605" width="120" height="25"/><text class="i" x="140" y="622">symbol:element</text></a><rect class="l" x="260" y="605" width="31" height="25" rx="7"/><text class="i" x="270" y="622">in</text><a xlink:href="#set"><rect class="r" x="321" y="605" width="40" height="25"/><text class="i" x="331" y="622">set</text></a><a xlink:href="#vector"><rect class="r" x="321" y="635" width="59" height="25"/><text class="i" x="331" y="652">vector</text></a><rect class="l" x="410" y="605" width="25" height="25" rx="7"/><text class="i" x="420" y="622">)</text><a xlink:href="#integer-expression"><rect class="r" x="465" y="605" width="139" height="25"/><text class="i" x="475" y="622">integer-expression</text></a><a xlink:href="#fixed-decimal-expression"><rect class="r" x="465" y="635" width="176" height="25"/><text class="i" x="475" y="652">fixed-decimal-expression</text></a><rect class="l" x="671" y="605" width="28" height="25" rx="7"/><text class="i" x="681" y="622">»</text><a xlink:href="#vector"><rect class="r" x="709" y="605" width="59" height="25"/><text class="i" x="719" y="622">vector</text></a><rect class="l" x="25" y="665" width="49" height="25" rx="7"/><text class="i" x="35" y="682">valid</text><a xlink:href="#instance-expression"><rect class="r" x="84" y="665" width="147" height="25"/><text class="i" x="94" y="682">instance-expression</text></a><rect class="l" x="241" y="665" width="28" height="25" rx="7"/><text class="i" x="251" y="682">»</text><a xlink:href="#any"><rect class="r" x="279" y="665" width="43" height="25"/><text class="i" x="289" y="682">any</text></a><rect class="l" x="25" y="695" width="56" height="25" rx="7"/><text class="i" x="35" y="712">valid?</text><a xlink:href="#instance-expression"><rect class="r" x="91" y="695" width="147" height="25"/><text class="i" x="101" y="712">instance-expression</text></a><rect class="l" x="248" y="695" width="28" height="25" rx="7"/><text class="i" x="258" y="712">»</text><a xlink:href="#boolean"><rect class="r" x="286" y="695" width="71" height="25"/><text class="i" x="296" y="712">boolean</text></a><rect class="l" x="25" y="725" width="55" height="25" rx="7"/><text class="i" x="35" y="742">when</text><rect class="l" x="90" y="725" width="25" height="25" rx="7"/><text class="i" x="100" y="742">(</text><a xlink:href="#boolean"><rect class="r" x="125" y="725" width="71" height="25"/><text class="i" x="135" y="742">boolean</text></a><rect class="l" x="206" y="725" width="25" height="25" rx="7"/><text class="i" x="216" y="742">)</text><a xlink:href="#any-expression"><rect class="r" x="241" y="725" width="117" height="25"/><text class="i" x="251" y="742">any-expression</text></a><rect class="l" x="368" y="725" width="28" height="25" rx="7"/><text class="i" x="378" y="742">»</text><a xlink:href="#any"><rect class="r" x="406" y="725" width="43" height="25"/><text class="i" x="416" y="742">any</text></a><rect class="l" x="25" y="755" width="90" height="25" rx="7"/><text class="i" x="35" y="772">whenValue</text><rect class="l" x="125" y="755" width="25" height="25" rx="7"/><text class="i" x="135" y="772">(</text><a xlink:href="#symbol"><rect class="r" x="160" y="755" width="64" height="25"/><text class="i" x="170" y="772">symbol</text></a><rect class="l" x="234" y="755" width="25" height="25" rx="7"/><text class="i" x="244" y="772">)</text><a xlink:href="#any-expression"><rect class="r" x="269" y="755" width="117" height="25"/><text class="i" x="279" y="772">any-expression</text></a><rect class="l" x="396" y="755" width="28" height="25" rx="7"/><text class="i" x="406" y="772">»</text><a xlink:href="#any"><rect class="r" x="434" y="755" width="43" height="25"/><text class="i" x="444" y="772">any</text></a><rect class="l" x="25" y="785" width="110" height="25" rx="7"/><text class="i" x="35" y="802">whenValueLet</text><rect class="l" x="145" y="785" width="25" height="25" rx="7"/><text class="i" x="155" y="802">(</text><a xlink:href="#symbol"><rect class="r" x="180" y="785" width="64" height="25"/><text class="i" x="190" y="802">symbol</text></a><rect class="l" x="254" y="785" width="29" height="25" rx="7"/><text class="i" x="264" y="802">=</text><a xlink:href="#any:binding"><rect class="r" x="293" y="785" width="94" height="25"/><text class="i" x="303" y="802">any:binding</text></a><rect class="l" x="397" y="785" width="25" height="25" rx="7"/><text class="i" x="407" y="802">)</text><a xlink:href="#any-expression"><rect class="r" x="432" y="785" width="117" height="25"/><text class="i" x="442" y="802">any-expression</text></a><rect class="l" x="559" y="785" width="28" height="25" rx="7"/><text class="i" x="569" y="802">»</text><a xlink:href="#any"><rect class="r" x="597" y="785" width="43" height="25"/><text class="i" x="607" y="802">any</text></a></svg>