<svg version="1.1" xmlns:xlink="http://www.w3.org/1999/xlink" xmlns="http://www.w3.org/2000/svg" width="1104" height="665" viewbox="0 0 1104 665"><defs><style type="text/css">.c{fill:none;stroke:#222222;}.j{fill:#000000;font-family:Verdana,Sans-serif;font-size:12px;}.l{fill:#90d9ff;stroke:#222222;}.r{fill:#d3f0ff;stroke:#222222;}</style></defs><path class="c" d="M0 22h25m25 0h10m50 0h10m25 0h10m64 0h30m40 0h39m-94 0q5 0 5 5v20q0 5 5 5h5m59 0h5q5 0 5-5v-20q0-5 5-5m5 0h10m25 0h10m145 0h10m25 0h10m28 0h10m71 0h427m-1084 55q0 5 5 5h5m25 0h10m62 0h10m25 0h10m64 0h30m40 0h39m-94 0q5 0 5 5v20q0 5 5 5h5m59 0h5q5 0 5-5v-20q0-5 5-5m5 0h10m25 0h10m145 0h10m25 0h10m28 0h10m71 0h400q5 0 5-5m-1074 60q0 5 5 5h5m25 0h10m48 0h30m25 0h10m120 0h10m40 0h10m25 0h10m145 0h10m25 0h10m28 0h10m40 0h58m-591 0q5 0 5 5v20q0 5 5 5h5m25 0h10m120 0h10m59 0h10m25 0h10m145 0h10m25 0h10m28 0h10m59 0h5q5 0 5-5v-20q0-5 5-5m5 0h370q5 0 5-5m-1074 60q0 5 5 5h5m25 0h10m27 0h10m71 0h10m117 0h10m117 0h10m25 0h10m28 0h10m43 0h536q5 0 5-5m-1074 30q0 5 5 5h5m25 0h10m66 0h10m64 0h10m117 0h10m117 0h10m25 0h10m28 0h10m43 0h504q5 0 5-5m-1074 30q0 5 5 5h5m25 0h10m87 0h10m25 0h10m64 0h10m94 0h10m25 0h10m117 0h10m117 0h10m25 0h10m28 0h10m43 0h309q5 0 5-5m-1074 45q0 5 5 5h5m25 0h10m36 0h10m25 0h10m64 0h10m54 0h50m-5 0q-5 0-5-5v-17q0-5 5-5h138q5 0 5 5v17q0 5-5 5m-69 0h10m54 0h40m-203 0q5 0 5 5v8q0 5 5 5h178q5 0 5-5v-8q0-5 5-5m5 0h10m25 0h10m117 0h10m25 0h10m28 0h10m43 0h309q5 0 5-5m-1074 45q0 5 5 5h5m25 0h10m47 0h30m25 0h10m120 0h10m40 0h10m25 0h10m128 0h10m25 0h10m28 0h10m40 0h58m-574 0q5 0 5 5v20q0 5 5 5h5m25 0h10m120 0h10m59 0h10m25 0h10m128 0h10m25 0h10m28 0h10m59 0h5q5 0 5-5v-20q0-5 5-5m5 0h388q5 0 5-5m-1074 60q0 5 5 5h5m25 0h10m63 0h10m25 0h10m145 0h10m159 0h10m25 0h10m25 0h10m120 0h30m40 0h39m-94 0q5 0 5 5v20q0 5 5 5h5m59 0h5q5 0 5-5v-20q0-5 5-5m5 0h10m25 0h10m117 0h10m25 0h10m28 0h10m43 0h5q5 0 5-5m-1074 60q0 5 5 5h5m25 0h10m65 0h10m25 0h10m120 0h30m40 0h39m-94 0q5 0 5 5v20q0 5 5 5h5m59 0h5q5 0 5-5v-20q0-5 5-5m5 0h10m25 0h30m139 0h57m-211 0q5 0 5 5v20q0 5 5 5h5m176 0h5q5 0 5-5v-20q0-5 5-5m5 0h10m25 0h10m28 0h10m59 0h282q5 0 5-5m-1074 60q0 5 5 5h5m25 0h10m49 0h10m147 0h10m25 0h10m28 0h10m43 0h692q5 0 5-5m-1074 30q0 5 5 5h5m25 0h10m56 0h10m147 0h10m25 0h10m28 0h10m71 0h657q5 0 5-5m-1074 30q0 5 5 5h5m25 0h10m55 0h10m71 0h10m117 0h10m25 0h10m28 0h10m43 0h635q5 0 5-5m-1074 30q0 5 5 5h5m25 0h10m94 0h10m64 0h10m168 0h10m25 0h10m28 0h10m43 0h552q5 0 5-5m-1079-595q5 0 5 5v620q0 5 5 5h5m25 0h10m115 0h10m25 0h10m64 0h10m94 0h10m25 0h10m117 0h10m25 0h10m28 0h10m43 0h408q5 0 5-5v-620q0-5 5-5m5 0h5"/><rect class="l" x="25" y="5" width="25" height="25" rx="7"/><text class="j" x="35" y="22">(</text><rect class="l" x="60" y="5" width="50" height="25" rx="7"/><text class="j" x="70" y="22">any?</text><rect class="l" x="120" y="5" width="25" height="25" rx="7"/><text class="j" x="130" y="22">[</text><a xlink:href="#symbol"><rect class="r" x="155" y="5" width="64" height="25"/><text class="j" x="165" y="22">symbol</text></a><a xlink:href="#set"><rect class="r" x="249" y="5" width="40" height="25"/><text class="j" x="259" y="22">set</text></a><a xlink:href="#vector"><rect class="r" x="249" y="35" width="59" height="25"/><text class="j" x="259" y="52">vector</text></a><rect class="l" x="338" y="5" width="25" height="25" rx="7"/><text class="j" x="348" y="22">]</text><a xlink:href="#boolean-expression"><rect class="r" x="373" y="5" width="145" height="25"/><text class="j" x="383" y="22">boolean-expression</text></a><rect class="l" x="528" y="5" width="25" height="25" rx="7"/><text class="j" x="538" y="22">)</text><rect class="l" x="563" y="5" width="28" height="25" rx="7"/><text class="j" x="573" y="22">»</text><a xlink:href="#boolean"><rect class="r" x="601" y="5" width="71" height="25"/><text class="j" x="611" y="22">boolean</text></a><rect class="l" x="25" y="65" width="25" height="25" rx="7"/><text class="j" x="35" y="82">(</text><rect class="l" x="60" y="65" width="62" height="25" rx="7"/><text class="j" x="70" y="82">every?</text><rect class="l" x="132" y="65" width="25" height="25" rx="7"/><text class="j" x="142" y="82">[</text><a xlink:href="#symbol"><rect class="r" x="167" y="65" width="64" height="25"/><text class="j" x="177" y="82">symbol</text></a><a xlink:href="#set"><rect class="r" x="261" y="65" width="40" height="25"/><text class="j" x="271" y="82">set</text></a><a xlink:href="#vector"><rect class="r" x="261" y="95" width="59" height="25"/><text class="j" x="271" y="112">vector</text></a><rect class="l" x="350" y="65" width="25" height="25" rx="7"/><text class="j" x="360" y="82">]</text><a xlink:href="#boolean-expression"><rect class="r" x="385" y="65" width="145" height="25"/><text class="j" x="395" y="82">boolean-expression</text></a><rect class="l" x="540" y="65" width="25" height="25" rx="7"/><text class="j" x="550" y="82">)</text><rect class="l" x="575" y="65" width="28" height="25" rx="7"/><text class="j" x="585" y="82">»</text><a xlink:href="#boolean"><rect class="r" x="613" y="65" width="71" height="25"/><text class="j" x="623" y="82">boolean</text></a><rect class="l" x="25" y="125" width="25" height="25" rx="7"/><text class="j" x="35" y="142">(</text><rect class="l" x="60" y="125" width="48" height="25" rx="7"/><text class="j" x="70" y="142">filter</text><rect class="l" x="138" y="125" width="25" height="25" rx="7"/><text class="j" x="148" y="142">[</text><a xlink:href="#symbol:element"><rect class="r" x="173" y="125" width="120" height="25"/><text class="j" x="183" y="142">symbol:element</text></a><a xlink:href="#set"><rect class="r" x="303" y="125" width="40" height="25"/><text class="j" x="313" y="142">set</text></a><rect class="l" x="353" y="125" width="25" height="25" rx="7"/><text class="j" x="363" y="142">]</text><a xlink:href="#boolean-expression"><rect class="r" x="388" y="125" width="145" height="25"/><text class="j" x="398" y="142">boolean-expression</text></a><rect class="l" x="543" y="125" width="25" height="25" rx="7"/><text class="j" x="553" y="142">)</text><rect class="l" x="578" y="125" width="28" height="25" rx="7"/><text class="j" x="588" y="142">»</text><a xlink:href="#set"><rect class="r" x="616" y="125" width="40" height="25"/><text class="j" x="626" y="142">set</text></a><rect class="l" x="138" y="155" width="25" height="25" rx="7"/><text class="j" x="148" y="172">[</text><a xlink:href="#symbol:element"><rect class="r" x="173" y="155" width="120" height="25"/><text class="j" x="183" y="172">symbol:element</text></a><a xlink:href="#vector"><rect class="r" x="303" y="155" width="59" height="25"/><text class="j" x="313" y="172">vector</text></a><rect class="l" x="372" y="155" width="25" height="25" rx="7"/><text class="j" x="382" y="172">]</text><a xlink:href="#boolean-expression"><rect class="r" x="407" y="155" width="145" height="25"/><text class="j" x="417" y="172">boolean-expression</text></a><rect class="l" x="562" y="155" width="25" height="25" rx="7"/><text class="j" x="572" y="172">)</text><rect class="l" x="597" y="155" width="28" height="25" rx="7"/><text class="j" x="607" y="172">»</text><a xlink:href="#vector"><rect class="r" x="635" y="155" width="59" height="25"/><text class="j" x="645" y="172">vector</text></a><rect class="l" x="25" y="185" width="25" height="25" rx="7"/><text class="j" x="35" y="202">(</text><rect class="l" x="60" y="185" width="27" height="25" rx="7"/><text class="j" x="70" y="202">if</text><a xlink:href="#boolean"><rect class="r" x="97" y="185" width="71" height="25"/><text class="j" x="107" y="202">boolean</text></a><a xlink:href="#any-expression"><rect class="r" x="178" y="185" width="117" height="25"/><text class="j" x="188" y="202">any-expression</text></a><a xlink:href="#any-expression"><rect class="r" x="305" y="185" width="117" height="25"/><text class="j" x="315" y="202">any-expression</text></a><rect class="l" x="432" y="185" width="25" height="25" rx="7"/><text class="j" x="442" y="202">)</text><rect class="l" x="467" y="185" width="28" height="25" rx="7"/><text class="j" x="477" y="202">»</text><a xlink:href="#any"><rect class="r" x="505" y="185" width="43" height="25"/><text class="j" x="515" y="202">any</text></a><rect class="l" x="25" y="215" width="25" height="25" rx="7"/><text class="j" x="35" y="232">(</text><rect class="l" x="60" y="215" width="66" height="25" rx="7"/><text class="j" x="70" y="232">if-value</text><a xlink:href="#symbol"><rect class="r" x="136" y="215" width="64" height="25"/><text class="j" x="146" y="232">symbol</text></a><a xlink:href="#any-expression"><rect class="r" x="210" y="215" width="117" height="25"/><text class="j" x="220" y="232">any-expression</text></a><a xlink:href="#any-expression"><rect class="r" x="337" y="215" width="117" height="25"/><text class="j" x="347" y="232">any-expression</text></a><rect class="l" x="464" y="215" width="25" height="25" rx="7"/><text class="j" x="474" y="232">)</text><rect class="l" x="499" y="215" width="28" height="25" rx="7"/><text class="j" x="509" y="232">»</text><a xlink:href="#any"><rect class="r" x="537" y="215" width="43" height="25"/><text class="j" x="547" y="232">any</text></a><rect class="l" x="25" y="245" width="25" height="25" rx="7"/><text class="j" x="35" y="262">(</text><rect class="l" x="60" y="245" width="87" height="25" rx="7"/><text class="j" x="70" y="262">if-value-let</text><rect class="l" x="157" y="245" width="25" height="25" rx="7"/><text class="j" x="167" y="262">[</text><a xlink:href="#symbol"><rect class="r" x="192" y="245" width="64" height="25"/><text class="j" x="202" y="262">symbol</text></a><a xlink:href="#any:binding"><rect class="r" x="266" y="245" width="94" height="25"/><text class="j" x="276" y="262">any:binding</text></a><rect class="l" x="370" y="245" width="25" height="25" rx="7"/><text class="j" x="380" y="262">]</text><a xlink:href="#any-expression"><rect class="r" x="405" y="245" width="117" height="25"/><text class="j" x="415" y="262">any-expression</text></a><a xlink:href="#any-expression"><rect class="r" x="532" y="245" width="117" height="25"/><text class="j" x="542" y="262">any-expression</text></a><rect class="l" x="659" y="245" width="25" height="25" rx="7"/><text class="j" x="669" y="262">)</text><rect class="l" x="694" y="245" width="28" height="25" rx="7"/><text class="j" x="704" y="262">»</text><a xlink:href="#any"><rect class="r" x="732" y="245" width="43" height="25"/><text class="j" x="742" y="262">any</text></a><rect class="l" x="25" y="290" width="25" height="25" rx="7"/><text class="j" x="35" y="307">(</text><rect class="l" x="60" y="290" width="36" height="25" rx="7"/><text class="j" x="70" y="307">let</text><rect class="l" x="106" y="290" width="25" height="25" rx="7"/><text class="j" x="116" y="307">[</text><a xlink:href="#symbol"><rect class="r" x="141" y="290" width="64" height="25"/><text class="j" x="151" y="307">symbol</text></a><a xlink:href="#value"><rect class="r" x="215" y="290" width="54" height="25"/><text class="j" x="225" y="307">value</text></a><a xlink:href="#symbol"><rect class="r" x="319" y="290" width="64" height="25"/><text class="j" x="329" y="307">symbol</text></a><a xlink:href="#value"><rect class="r" x="393" y="290" width="54" height="25"/><text class="j" x="403" y="307">value</text></a><rect class="l" x="497" y="290" width="25" height="25" rx="7"/><text class="j" x="507" y="307">]</text><a xlink:href="#any-expression"><rect class="r" x="532" y="290" width="117" height="25"/><text class="j" x="542" y="307">any-expression</text></a><rect class="l" x="659" y="290" width="25" height="25" rx="7"/><text class="j" x="669" y="307">)</text><rect class="l" x="694" y="290" width="28" height="25" rx="7"/><text class="j" x="704" y="307">»</text><a xlink:href="#any"><rect class="r" x="732" y="290" width="43" height="25"/><text class="j" x="742" y="307">any</text></a><rect class="l" x="25" y="335" width="25" height="25" rx="7"/><text class="j" x="35" y="352">(</text><rect class="l" x="60" y="335" width="47" height="25" rx="7"/><text class="j" x="70" y="352">map</text><rect class="l" x="137" y="335" width="25" height="25" rx="7"/><text class="j" x="147" y="352">[</text><a xlink:href="#symbol:element"><rect class="r" x="172" y="335" width="120" height="25"/><text class="j" x="182" y="352">symbol:element</text></a><a xlink:href="#set"><rect class="r" x="302" y="335" width="40" height="25"/><text class="j" x="312" y="352">set</text></a><rect class="l" x="352" y="335" width="25" height="25" rx="7"/><text class="j" x="362" y="352">]</text><a xlink:href="#value-expression"><rect class="r" x="387" y="335" width="128" height="25"/><text class="j" x="397" y="352">value-expression</text></a><rect class="l" x="525" y="335" width="25" height="25" rx="7"/><text class="j" x="535" y="352">)</text><rect class="l" x="560" y="335" width="28" height="25" rx="7"/><text class="j" x="570" y="352">»</text><a xlink:href="#set"><rect class="r" x="598" y="335" width="40" height="25"/><text class="j" x="608" y="352">set</text></a><rect class="l" x="137" y="365" width="25" height="25" rx="7"/><text class="j" x="147" y="382">[</text><a xlink:href="#symbol:element"><rect class="r" x="172" y="365" width="120" height="25"/><text class="j" x="182" y="382">symbol:element</text></a><a xlink:href="#vector"><rect class="r" x="302" y="365" width="59" height="25"/><text class="j" x="312" y="382">vector</text></a><rect class="l" x="371" y="365" width="25" height="25" rx="7"/><text class="j" x="381" y="382">]</text><a xlink:href="#value-expression"><rect class="r" x="406" y="365" width="128" height="25"/><text class="j" x="416" y="382">value-expression</text></a><rect class="l" x="544" y="365" width="25" height="25" rx="7"/><text class="j" x="554" y="382">)</text><rect class="l" x="579" y="365" width="28" height="25" rx="7"/><text class="j" x="589" y="382">»</text><a xlink:href="#vector"><rect class="r" x="617" y="365" width="59" height="25"/><text class="j" x="627" y="382">vector</text></a><rect class="l" x="25" y="395" width="25" height="25" rx="7"/><text class="j" x="35" y="412">(</text><rect class="l" x="60" y="395" width="63" height="25" rx="7"/><text class="j" x="70" y="412">reduce</text><rect class="l" x="133" y="395" width="25" height="25" rx="7"/><text class="j" x="143" y="412">[</text><a xlink:href="#symbol:accumulator"><rect class="r" x="168" y="395" width="145" height="25"/><text class="j" x="178" y="412">symbol:accumulator</text></a><a xlink:href="#value:accumulator-init"><rect class="r" x="323" y="395" width="159" height="25"/><text class="j" x="333" y="412">value:accumulator-init</text></a><rect class="l" x="492" y="395" width="25" height="25" rx="7"/><text class="j" x="502" y="412">]</text><rect class="l" x="527" y="395" width="25" height="25" rx="7"/><text class="j" x="537" y="412">[</text><a xlink:href="#symbol:element"><rect class="r" x="562" y="395" width="120" height="25"/><text class="j" x="572" y="412">symbol:element</text></a><a xlink:href="#set"><rect class="r" x="712" y="395" width="40" height="25"/><text class="j" x="722" y="412">set</text></a><a xlink:href="#vector"><rect class="r" x="712" y="425" width="59" height="25"/><text class="j" x="722" y="442">vector</text></a><rect class="l" x="801" y="395" width="25" height="25" rx="7"/><text class="j" x="811" y="412">]</text><a xlink:href="#any-expression"><rect class="r" x="836" y="395" width="117" height="25"/><text class="j" x="846" y="412">any-expression</text></a><rect class="l" x="963" y="395" width="25" height="25" rx="7"/><text class="j" x="973" y="412">)</text><rect class="l" x="998" y="395" width="28" height="25" rx="7"/><text class="j" x="1008" y="412">»</text><a xlink:href="#any"><rect class="r" x="1036" y="395" width="43" height="25"/><text class="j" x="1046" y="412">any</text></a><rect class="l" x="25" y="455" width="25" height="25" rx="7"/><text class="j" x="35" y="472">(</text><rect class="l" x="60" y="455" width="65" height="25" rx="7"/><text class="j" x="70" y="472">sort-by</text><rect class="l" x="135" y="455" width="25" height="25" rx="7"/><text class="j" x="145" y="472">[</text><a xlink:href="#symbol:element"><rect class="r" x="170" y="455" width="120" height="25"/><text class="j" x="180" y="472">symbol:element</text></a><a xlink:href="#set"><rect class="r" x="320" y="455" width="40" height="25"/><text class="j" x="330" y="472">set</text></a><a xlink:href="#vector"><rect class="r" x="320" y="485" width="59" height="25"/><text class="j" x="330" y="502">vector</text></a><rect class="l" x="409" y="455" width="25" height="25" rx="7"/><text class="j" x="419" y="472">]</text><a xlink:href="#integer-expression"><rect class="r" x="464" y="455" width="139" height="25"/><text class="j" x="474" y="472">integer-expression</text></a><a xlink:href="#fixed-decimal-expression"><rect class="r" x="464" y="485" width="176" height="25"/><text class="j" x="474" y="502">fixed-decimal-expression</text></a><rect class="l" x="670" y="455" width="25" height="25" rx="7"/><text class="j" x="680" y="472">)</text><rect class="l" x="705" y="455" width="28" height="25" rx="7"/><text class="j" x="715" y="472">»</text><a xlink:href="#vector"><rect class="r" x="743" y="455" width="59" height="25"/><text class="j" x="753" y="472">vector</text></a><rect class="l" x="25" y="515" width="25" height="25" rx="7"/><text class="j" x="35" y="532">(</text><rect class="l" x="60" y="515" width="49" height="25" rx="7"/><text class="j" x="70" y="532">valid</text><a xlink:href="#instance-expression"><rect class="r" x="119" y="515" width="147" height="25"/><text class="j" x="129" y="532">instance-expression</text></a><rect class="l" x="276" y="515" width="25" height="25" rx="7"/><text class="j" x="286" y="532">)</text><rect class="l" x="311" y="515" width="28" height="25" rx="7"/><text class="j" x="321" y="532">»</text><a xlink:href="#any"><rect class="r" x="349" y="515" width="43" height="25"/><text class="j" x="359" y="532">any</text></a><rect class="l" x="25" y="545" width="25" height="25" rx="7"/><text class="j" x="35" y="562">(</text><rect class="l" x="60" y="545" width="56" height="25" rx="7"/><text class="j" x="70" y="562">valid?</text><a xlink:href="#instance-expression"><rect class="r" x="126" y="545" width="147" height="25"/><text class="j" x="136" y="562">instance-expression</text></a><rect class="l" x="283" y="545" width="25" height="25" rx="7"/><text class="j" x="293" y="562">)</text><rect class="l" x="318" y="545" width="28" height="25" rx="7"/><text class="j" x="328" y="562">»</text><a xlink:href="#boolean"><rect class="r" x="356" y="545" width="71" height="25"/><text class="j" x="366" y="562">boolean</text></a><rect class="l" x="25" y="575" width="25" height="25" rx="7"/><text class="j" x="35" y="592">(</text><rect class="l" x="60" y="575" width="55" height="25" rx="7"/><text class="j" x="70" y="592">when</text><a xlink:href="#boolean"><rect class="r" x="125" y="575" width="71" height="25"/><text class="j" x="135" y="592">boolean</text></a><a xlink:href="#any-expression"><rect class="r" x="206" y="575" width="117" height="25"/><text class="j" x="216" y="592">any-expression</text></a><rect class="l" x="333" y="575" width="25" height="25" rx="7"/><text class="j" x="343" y="592">)</text><rect class="l" x="368" y="575" width="28" height="25" rx="7"/><text class="j" x="378" y="592">»</text><a xlink:href="#any"><rect class="r" x="406" y="575" width="43" height="25"/><text class="j" x="416" y="592">any</text></a><rect class="l" x="25" y="605" width="25" height="25" rx="7"/><text class="j" x="35" y="622">(</text><rect class="l" x="60" y="605" width="94" height="25" rx="7"/><text class="j" x="70" y="622">when-value</text><a xlink:href="#symbol"><rect class="r" x="164" y="605" width="64" height="25"/><text class="j" x="174" y="622">symbol</text></a><a xlink:href="#any-expression:binding"><rect class="r" x="238" y="605" width="168" height="25"/><text class="j" x="248" y="622">any-expression:binding</text></a><rect class="l" x="416" y="605" width="25" height="25" rx="7"/><text class="j" x="426" y="622">)</text><rect class="l" x="451" y="605" width="28" height="25" rx="7"/><text class="j" x="461" y="622">»</text><a xlink:href="#any"><rect class="r" x="489" y="605" width="43" height="25"/><text class="j" x="499" y="622">any</text></a><rect class="l" x="25" y="635" width="25" height="25" rx="7"/><text class="j" x="35" y="652">(</text><rect class="l" x="60" y="635" width="115" height="25" rx="7"/><text class="j" x="70" y="652">when-value-let</text><rect class="l" x="185" y="635" width="25" height="25" rx="7"/><text class="j" x="195" y="652">[</text><a xlink:href="#symbol"><rect class="r" x="220" y="635" width="64" height="25"/><text class="j" x="230" y="652">symbol</text></a><a xlink:href="#any:binding"><rect class="r" x="294" y="635" width="94" height="25"/><text class="j" x="304" y="652">any:binding</text></a><rect class="l" x="398" y="635" width="25" height="25" rx="7"/><text class="j" x="408" y="652">]</text><a xlink:href="#any-expression"><rect class="r" x="433" y="635" width="117" height="25"/><text class="j" x="443" y="652">any-expression</text></a><rect class="l" x="560" y="635" width="25" height="25" rx="7"/><text class="j" x="570" y="652">)</text><rect class="l" x="595" y="635" width="28" height="25" rx="7"/><text class="j" x="605" y="652">»</text><a xlink:href="#any"><rect class="r" x="633" y="635" width="43" height="25"/><text class="j" x="643" y="652">any</text></a></svg>