<svg version="1.1" xmlns:xlink="http://www.w3.org/1999/xlink" xmlns="http://www.w3.org/2000/svg" width="562" height="63" viewbox="0 0 562 63"><defs><style type="text/css">.c{fill: none; stroke: #888888; stroke-width: 2px;}.i{fill:#000000;font-family:Dialog,Sans-serif;font-size:12px;}.l{fill:#90d9ff;stroke:#222222;}.r{fill:#d3f0ff;stroke:#222222;}</style></defs><path class="c" d="M0 17h25m74 0h10m24 0h10m71 0h10m25 0h10m112 0h10m25 0h10m27 0h10m74 0h30m-547 0q5 0 5 5v19q0 5 5 5h5m74 0h10m24 0h10m84 0h10m25 0h10m112 0h10m25 0h10m27 0h10m71 0h5q5 0 5-5v-19q0-5 5-5m5 0h5"/><a xlink:href="#instance"><rect class="r" x="25" y="5" width="74" height="24"/><text class="i" x="35" y="21">instance</text></a><rect class="l" x="109" y="5" width="24" height="24" rx="7"/><text class="i" x="119" y="21">.</text><rect class="l" x="143" y="5" width="71" height="24" rx="7"/><text class="i" x="153" y="21">refineTo</text><rect class="l" x="224" y="5" width="25" height="24" rx="7"/><text class="i" x="234" y="21">(</text><a xlink:href="#symbol:spec-id"><rect class="r" x="259" y="5" width="112" height="24"/><text class="i" x="269" y="21">symbol:spec-id</text></a><rect class="l" x="381" y="5" width="25" height="24" rx="7"/><text class="i" x="391" y="21">)</text><rect class="l" x="416" y="5" width="27" height="24" rx="7"/><text class="i" x="426" y="21">»</text><a xlink:href="#instance"><rect class="r" x="453" y="5" width="74" height="24"/><text class="i" x="463" y="21">instance</text></a><a xlink:href="#instance"><rect class="r" x="25" y="34" width="74" height="24"/><text class="i" x="35" y="50">instance</text></a><rect class="l" x="109" y="34" width="24" height="24" rx="7"/><text class="i" x="119" y="50">.</text><rect class="l" x="143" y="34" width="84" height="24" rx="7"/><text class="i" x="153" y="50">refinesTo?</text><rect class="l" x="237" y="34" width="25" height="24" rx="7"/><text class="i" x="247" y="50">(</text><a xlink:href="#symbol:spec-id"><rect class="r" x="272" y="34" width="112" height="24"/><text class="i" x="282" y="50">symbol:spec-id</text></a><rect class="l" x="394" y="34" width="25" height="24" rx="7"/><text class="i" x="404" y="50">)</text><rect class="l" x="429" y="34" width="27" height="24" rx="7"/><text class="i" x="439" y="50">»</text><a xlink:href="#boolean"><rect class="r" x="466" y="34" width="71" height="24"/><text class="i" x="476" y="50">boolean</text></a></svg>