<svg version="1.1" xmlns:xlink="http://www.w3.org/1999/xlink" xmlns="http://www.w3.org/2000/svg" width="426" height="63" viewbox="0 0 426 63"><defs><style type="text/css">.c{fill: none; stroke: #888888; stroke-width: 3pt;}.j{fill:#000000;font-family:Dialog,Sans-serif;font-size:12px;}.l{fill:#90d9ff;stroke:#222222;}.r{fill:#d3f0ff;stroke:#222222;}</style></defs><path class="c" d="M0 50h5m37 0h10m25 0h10m56 0h10m24 0h30m-5 0q-5 0-5-5v-19q0-5 5-5h21m24 0h21q5 0 5 5v19q0 5-5 5m-5 0h30m25 0h10m27 0h10m56 0h5"/><rect class="l" x="5" y="34" width="37" height="24" rx="7"/><text class="j" x="15" y="50">str</text><rect class="l" x="52" y="34" width="25" height="24" rx="7"/><text class="j" x="62" y="50">(</text><a xlink:href="#string"><rect class="r" x="87" y="34" width="56" height="24"/><text class="j" x="97" y="50">string</text></a><rect class="l" x="153" y="34" width="24" height="24" rx="7"/><text class="j" x="163" y="50">,</text><rect class="l" x="223" y="5" width="24" height="24" rx="7"/><text class="j" x="233" y="21">,</text><a xlink:href="#string"><rect class="r" x="207" y="34" width="56" height="24"/><text class="j" x="217" y="50">string</text></a><rect class="l" x="293" y="34" width="25" height="24" rx="7"/><text class="j" x="303" y="50">)</text><rect class="l" x="328" y="34" width="27" height="24" rx="7"/><text class="j" x="338" y="50">»</text><a xlink:href="#string"><rect class="r" x="365" y="34" width="56" height="24"/><text class="j" x="375" y="50">string</text></a></svg>