<!--
RULE = (('(''='  ( ( value value {value}')' '»' boolean ) ) ) |
('(''str'  ( ( string string {string}')' '»' string ) ) ));
-->
<svg version="1.1" xmlns:xlink="http://www.w3.org/1999/xlink" xmlns="http://www.w3.org/2000/svg" width="436" height="95" viewbox="0 0 436 95"><defs><style type="text/css">.c{fill: none; stroke: #888888; stroke-width: 2px;}.j{fill:#000000;font-family:Verdana,Sans-serif;font-size:12px;}.l{fill:#90d9ff;stroke:#222222;}.r{fill:#d3f0ff;stroke:#222222;}</style></defs><path class="c" d="M0 33h25m25 0h10m29 0h10m54 0h30m-5 0q-5 0-5-5v-17q0-5 5-5h64q5 0 5 5v17q0 5-5 5m-5 0h30m25 0h10m28 0h10m71 0h20m-421 0q5 0 5 5v35q0 5 5 5h5m25 0h10m37 0h10m56 0h30m-5 0q-5 0-5-5v-17q0-5 5-5h66q5 0 5 5v17q0 5-5 5m-5 0h30m25 0h10m28 0h10m56 0h8q5 0 5-5v-35q0-5 5-5m5 0h5"/><rect class="l" x="25" y="20" width="25" height="25" rx="7"/><text class="j" x="35" y="37">(</text><rect class="l" x="60" y="20" width="29" height="25" rx="7"/><text class="j" x="70" y="37">=</text><a xlink:href="#value"><rect class="r" x="99" y="20" width="54" height="25"/><text class="j" x="109" y="37">value</text></a><a xlink:href="#value"><rect class="r" x="183" y="20" width="54" height="25"/><text class="j" x="193" y="37">value</text></a><rect class="l" x="267" y="20" width="25" height="25" rx="7"/><text class="j" x="277" y="37">)</text><rect class="l" x="302" y="20" width="28" height="25" rx="7"/><text class="j" x="312" y="37">»</text><a xlink:href="#boolean"><rect class="r" x="340" y="20" width="71" height="25"/><text class="j" x="350" y="37">boolean</text></a><rect class="l" x="25" y="65" width="25" height="25" rx="7"/><text class="j" x="35" y="82">(</text><rect class="l" x="60" y="65" width="37" height="25" rx="7"/><text class="j" x="70" y="82">str</text><a xlink:href="#string"><rect class="r" x="107" y="65" width="56" height="25"/><text class="j" x="117" y="82">string</text></a><a xlink:href="#string"><rect class="r" x="193" y="65" width="56" height="25"/><text class="j" x="203" y="82">string</text></a><rect class="l" x="279" y="65" width="25" height="25" rx="7"/><text class="j" x="289" y="82">)</text><rect class="l" x="314" y="65" width="28" height="25" rx="7"/><text class="j" x="324" y="82">»</text><a xlink:href="#string"><rect class="r" x="352" y="65" width="56" height="25"/><text class="j" x="362" y="82">string</text></a></svg>