<!--
RULE = ( ( ( value '==' value '»' boolean ) )  |
 ( ( 'equalTo' '(' value ',' value {',' value} ')' '»' boolean ) )  |
 ( ( 'str' '(' string ',' string {',' string} ')' '»' string ) ) );
-->
<svg version="1.1" xmlns:xlink="http://www.w3.org/1999/xlink" xmlns="http://www.w3.org/2000/svg" width="511" height="155" viewbox="0 0 511 155"><defs><style type="text/css">.c{fill: none; stroke: #888888; stroke-width: 2px;}.i{fill:#000000;font-family:Verdana,Sans-serif;font-size:12px;}.l{fill:#90d9ff;stroke:#222222;}.r{fill:#d3f0ff;stroke:#222222;}</style></defs><path class="c" d="M0 18h25m54 0h10m38 0h10m54 0h10m28 0h10m71 0h196m-491 55q0 5 5 5h5m70 0h10m25 0h10m54 0h10m24 0h30m-5 0q-5 0-5-5v-20q0-5 5-5h20m24 0h20q5 0 5 5v20q0 5-5 5m-5 0h30m25 0h10m28 0h10m71 0h5q5 0 5-5m-486-55q5 0 5 5v110q0 5 5 5h5m37 0h10m25 0h10m56 0h10m24 0h30m-5 0q-5 0-5-5v-20q0-5 5-5h21m24 0h21q5 0 5 5v20q0 5-5 5m-5 0h30m25 0h10m28 0h10m56 0h49q5 0 5-5v-110q0-5 5-5m5 0h5"/><a xlink:href="#value"><rect class="r" x="25" y="5" width="54" height="25"/><text class="i" x="35" y="22">value</text></a><rect class="l" x="89" y="5" width="38" height="25" rx="7"/><text class="i" x="99" y="22">==</text><a xlink:href="#value"><rect class="r" x="137" y="5" width="54" height="25"/><text class="i" x="147" y="22">value</text></a><rect class="l" x="201" y="5" width="28" height="25" rx="7"/><text class="i" x="211" y="22">»</text><a xlink:href="#boolean"><rect class="r" x="239" y="5" width="71" height="25"/><text class="i" x="249" y="22">boolean</text></a><rect class="l" x="25" y="65" width="70" height="25" rx="7"/><text class="i" x="35" y="82">equalTo</text><rect class="l" x="105" y="65" width="25" height="25" rx="7"/><text class="i" x="115" y="82">(</text><a xlink:href="#value"><rect class="r" x="140" y="65" width="54" height="25"/><text class="i" x="150" y="82">value</text></a><rect class="l" x="204" y="65" width="24" height="25" rx="7"/><text class="i" x="214" y="82">,</text><rect class="l" x="273" y="35" width="24" height="25" rx="7"/><text class="i" x="283" y="52">,</text><a xlink:href="#value"><rect class="r" x="258" y="65" width="54" height="25"/><text class="i" x="268" y="82">value</text></a><rect class="l" x="342" y="65" width="25" height="25" rx="7"/><text class="i" x="352" y="82">)</text><rect class="l" x="377" y="65" width="28" height="25" rx="7"/><text class="i" x="387" y="82">»</text><a xlink:href="#boolean"><rect class="r" x="415" y="65" width="71" height="25"/><text class="i" x="425" y="82">boolean</text></a><rect class="l" x="25" y="125" width="37" height="25" rx="7"/><text class="i" x="35" y="142">str</text><rect class="l" x="72" y="125" width="25" height="25" rx="7"/><text class="i" x="82" y="142">(</text><a xlink:href="#string"><rect class="r" x="107" y="125" width="56" height="25"/><text class="i" x="117" y="142">string</text></a><rect class="l" x="173" y="125" width="24" height="25" rx="7"/><text class="i" x="183" y="142">,</text><rect class="l" x="243" y="95" width="24" height="25" rx="7"/><text class="i" x="253" y="112">,</text><a xlink:href="#string"><rect class="r" x="227" y="125" width="56" height="25"/><text class="i" x="237" y="142">string</text></a><rect class="l" x="313" y="125" width="25" height="25" rx="7"/><text class="i" x="323" y="142">)</text><rect class="l" x="348" y="125" width="28" height="25" rx="7"/><text class="i" x="358" y="142">»</text><a xlink:href="#string"><rect class="r" x="386" y="125" width="56" height="25"/><text class="i" x="396" y="142">string</text></a></svg>