<svg version="1.1" xmlns:xlink="http://www.w3.org/1999/xlink" xmlns="http://www.w3.org/2000/svg" width="806" height="500" viewbox="0 0 806 500"><defs><style type="text/css">.c{fill: none; stroke: #888888; stroke-width: 2px;}.j{fill:#000000;font-family:Verdana,Sans-serif;font-size:12px;}.l{fill:#90d9ff;stroke:#222222;}.r{fill:#d3f0ff;stroke:#222222;}</style></defs><path class="c" d="M0 18h25m25 0h10m59 0h30m57 0h10m57 0h10m25 0h10m28 0h10m57 0h22m-301 0q5 0 5 5v20q0 5 5 5h5m38 0h30m38 0h39m-92 0q5 0 5 5v20q0 5 5 5h5m57 0h5q5 0 5-5v-20q0-5 5-5m5 0h10m25 0h10m28 0h10m38 0h5q5 0 5-5v-20q0-5 5-5m5 0h366m-786 100q0 5 5 5h5m25 0h10m45 0h30m38 0h30m-5 0q-5 0-5-5v-17q0-5 5-5h62q5 0 5 5v17q0 5-5 5m-5 0h30m25 0h10m28 0h10m38 0h58m-334 0q5 0 5 5v35q0 5 5 5h5m57 0h30m-5 0q-5 0-5-5v-17q0-5 5-5h62q5 0 5 5v17q0 5-5 5m-5 0h30m25 0h10m28 0h10m57 0h5q5 0 5-5v-35q0-5 5-5m5 0h332q5 0 5-5m-776 75q0 5 5 5h5m25 0h10m47 0h30m25 0h10m116 0h10m38 0h10m25 0h10m134 0h10m25 0h10m28 0h10m38 0h58m-572 0q5 0 5 5v20q0 5 5 5h5m25 0h10m116 0h10m57 0h10m25 0h10m134 0h10m25 0h10m28 0h10m57 0h5q5 0 5-5v-20q0-5 5-5m5 0h92q5 0 5-5m-776 60q0 5 5 5h5m25 0h10m46 0h30m25 0h10m116 0h10m38 0h10m25 0h10m120 0h10m25 0h10m28 0h10m38 0h58m-558 0q5 0 5 5v20q0 5 5 5h5m25 0h10m116 0h10m57 0h10m25 0h10m120 0h10m25 0h10m28 0h10m57 0h5q5 0 5-5v-20q0-5 5-5m5 0h107q5 0 5-5m-776 60q0 5 5 5h5m25 0h10m54 0h30m95 0h20m-130 0q5 0 5 5v8q0 5 5 5h105q5 0 5-5v-8q0-5 5-5m5 0h10m89 0h30m128 0h20m-163 0q5 0 5 5v8q0 5 5 5h138q5 0 5-5v-8q0-5 5-5m5 0h10m25 0h10m28 0h10m57 0h110q5 0 5-5m-776 45q0 5 5 5h5m25 0h10m43 0h10m57 0h10m25 0h10m28 0h10m57 0h476q5 0 5-5m-776 30q0 5 5 5h5m25 0h10m43 0h30m38 0h39m-92 0q5 0 5 5v20q0 5 5 5h5m57 0h5q5 0 5-5v-20q0-5 5-5m5 0h10m25 0h10m28 0h10m57 0h436q5 0 5-5m-781-370q5 0 5 5v425q0 5 5 5h5m25 0h10m62 0h10m25 0h10m116 0h30m38 0h39m-92 0q5 0 5 5v20q0 5 5 5h5m57 0h5q5 0 5-5v-20q0-5 5-5m5 0h10m25 0h30m130 0h56m-201 0q5 0 5 5v20q0 5 5 5h5m166 0h5q5 0 5-5v-20q0-5 5-5m5 0h10m25 0h10m28 0h10m57 0h5q5 0 5-5v-425q0-5 5-5m5 0h5"/><rect class="l" x="25" y="5" width="25" height="25" rx="7"/><text class="j" x="35" y="22">(</text><rect class="l" x="60" y="5" width="59" height="25" rx="7"/><text class="j" x="70" y="22">concat</text><a xlink:href="#vector"><rect class="r" x="149" y="5" width="57" height="25"/><text class="j" x="159" y="22">vector</text></a><a xlink:href="#vector"><rect class="r" x="216" y="5" width="57" height="25"/><text class="j" x="226" y="22">vector</text></a><rect class="l" x="283" y="5" width="25" height="25" rx="7"/><text class="j" x="293" y="22">)</text><rect class="l" x="318" y="5" width="28" height="25" rx="7"/><text class="j" x="328" y="22">»</text><a xlink:href="#vector"><rect class="r" x="356" y="5" width="57" height="25"/><text class="j" x="366" y="22">vector</text></a><a xlink:href="#set"><rect class="r" x="149" y="35" width="38" height="25"/><text class="j" x="159" y="52">set</text></a><a xlink:href="#set"><rect class="r" x="217" y="35" width="38" height="25"/><text class="j" x="227" y="52">set</text></a><a xlink:href="#vector"><rect class="r" x="217" y="65" width="57" height="25"/><text class="j" x="227" y="82">vector</text></a><rect class="l" x="304" y="35" width="25" height="25" rx="7"/><text class="j" x="314" y="52">)</text><rect class="l" x="339" y="35" width="28" height="25" rx="7"/><text class="j" x="349" y="52">»</text><a xlink:href="#set"><rect class="r" x="377" y="35" width="38" height="25"/><text class="j" x="387" y="52">set</text></a><rect class="l" x="25" y="110" width="25" height="25" rx="7"/><text class="j" x="35" y="127">(</text><rect class="l" x="60" y="110" width="45" height="25" rx="7"/><text class="j" x="70" y="127">conj</text><a xlink:href="#set"><rect class="r" x="135" y="110" width="38" height="25"/><text class="j" x="145" y="127">set</text></a><a xlink:href="#value"><rect class="r" x="203" y="110" width="52" height="25"/><text class="j" x="213" y="127">value</text></a><rect class="l" x="285" y="110" width="25" height="25" rx="7"/><text class="j" x="295" y="127">)</text><rect class="l" x="320" y="110" width="28" height="25" rx="7"/><text class="j" x="330" y="127">»</text><a xlink:href="#set"><rect class="r" x="358" y="110" width="38" height="25"/><text class="j" x="368" y="127">set</text></a><a xlink:href="#vector"><rect class="r" x="135" y="155" width="57" height="25"/><text class="j" x="145" y="172">vector</text></a><a xlink:href="#value"><rect class="r" x="222" y="155" width="52" height="25"/><text class="j" x="232" y="172">value</text></a><rect class="l" x="304" y="155" width="25" height="25" rx="7"/><text class="j" x="314" y="172">)</text><rect class="l" x="339" y="155" width="28" height="25" rx="7"/><text class="j" x="349" y="172">»</text><a xlink:href="#vector"><rect class="r" x="377" y="155" width="57" height="25"/><text class="j" x="387" y="172">vector</text></a><rect class="l" x="25" y="185" width="25" height="25" rx="7"/><text class="j" x="35" y="202">(</text><rect class="l" x="60" y="185" width="47" height="25" rx="7"/><text class="j" x="70" y="202">filter</text><rect class="l" x="137" y="185" width="25" height="25" rx="7"/><text class="j" x="147" y="202">[</text><a xlink:href="#symbol:element"><rect class="r" x="172" y="185" width="116" height="25"/><text class="j" x="182" y="202">symbol:element</text></a><a xlink:href="#set"><rect class="r" x="298" y="185" width="38" height="25"/><text class="j" x="308" y="202">set</text></a><rect class="l" x="346" y="185" width="25" height="25" rx="7"/><text class="j" x="356" y="202">]</text><a xlink:href="#boolean-expression"><rect class="r" x="381" y="185" width="134" height="25"/><text class="j" x="391" y="202">boolean-expression</text></a><rect class="l" x="525" y="185" width="25" height="25" rx="7"/><text class="j" x="535" y="202">)</text><rect class="l" x="560" y="185" width="28" height="25" rx="7"/><text class="j" x="570" y="202">»</text><a xlink:href="#set"><rect class="r" x="598" y="185" width="38" height="25"/><text class="j" x="608" y="202">set</text></a><rect class="l" x="137" y="215" width="25" height="25" rx="7"/><text class="j" x="147" y="232">[</text><a xlink:href="#symbol:element"><rect class="r" x="172" y="215" width="116" height="25"/><text class="j" x="182" y="232">symbol:element</text></a><a xlink:href="#vector"><rect class="r" x="298" y="215" width="57" height="25"/><text class="j" x="308" y="232">vector</text></a><rect class="l" x="365" y="215" width="25" height="25" rx="7"/><text class="j" x="375" y="232">]</text><a xlink:href="#boolean-expression"><rect class="r" x="400" y="215" width="134" height="25"/><text class="j" x="410" y="232">boolean-expression</text></a><rect class="l" x="544" y="215" width="25" height="25" rx="7"/><text class="j" x="554" y="232">)</text><rect class="l" x="579" y="215" width="28" height="25" rx="7"/><text class="j" x="589" y="232">»</text><a xlink:href="#vector"><rect class="r" x="617" y="215" width="57" height="25"/><text class="j" x="627" y="232">vector</text></a><rect class="l" x="25" y="245" width="25" height="25" rx="7"/><text class="j" x="35" y="262">(</text><rect class="l" x="60" y="245" width="46" height="25" rx="7"/><text class="j" x="70" y="262">map</text><rect class="l" x="136" y="245" width="25" height="25" rx="7"/><text class="j" x="146" y="262">[</text><a xlink:href="#symbol:element"><rect class="r" x="171" y="245" width="116" height="25"/><text class="j" x="181" y="262">symbol:element</text></a><a xlink:href="#set"><rect class="r" x="297" y="245" width="38" height="25"/><text class="j" x="307" y="262">set</text></a><rect class="l" x="345" y="245" width="25" height="25" rx="7"/><text class="j" x="355" y="262">]</text><a xlink:href="#value-expression"><rect class="r" x="380" y="245" width="120" height="25"/><text class="j" x="390" y="262">value-expression</text></a><rect class="l" x="510" y="245" width="25" height="25" rx="7"/><text class="j" x="520" y="262">)</text><rect class="l" x="545" y="245" width="28" height="25" rx="7"/><text class="j" x="555" y="262">»</text><a xlink:href="#set"><rect class="r" x="583" y="245" width="38" height="25"/><text class="j" x="593" y="262">set</text></a><rect class="l" x="136" y="275" width="25" height="25" rx="7"/><text class="j" x="146" y="292">[</text><a xlink:href="#symbol:element"><rect class="r" x="171" y="275" width="116" height="25"/><text class="j" x="181" y="292">symbol:element</text></a><a xlink:href="#vector"><rect class="r" x="297" y="275" width="57" height="25"/><text class="j" x="307" y="292">vector</text></a><rect class="l" x="364" y="275" width="25" height="25" rx="7"/><text class="j" x="374" y="292">]</text><a xlink:href="#value-expression"><rect class="r" x="399" y="275" width="120" height="25"/><text class="j" x="409" y="292">value-expression</text></a><rect class="l" x="529" y="275" width="25" height="25" rx="7"/><text class="j" x="539" y="292">)</text><rect class="l" x="564" y="275" width="28" height="25" rx="7"/><text class="j" x="574" y="292">»</text><a xlink:href="#vector"><rect class="r" x="602" y="275" width="57" height="25"/><text class="j" x="612" y="292">vector</text></a><rect class="l" x="25" y="305" width="25" height="25" rx="7"/><text class="j" x="35" y="322">(</text><rect class="l" x="60" y="305" width="54" height="25" rx="7"/><text class="j" x="70" y="322">range</text><a xlink:href="#integer:start"><rect class="r" x="144" y="305" width="95" height="25"/><text class="j" x="154" y="322">integer:start</text></a><a xlink:href="#integer:end"><rect class="r" x="269" y="305" width="89" height="25"/><text class="j" x="279" y="322">integer:end</text></a><a xlink:href="#integer:increment"><rect class="r" x="388" y="305" width="128" height="25"/><text class="j" x="398" y="322">integer:increment</text></a><rect class="l" x="546" y="305" width="25" height="25" rx="7"/><text class="j" x="556" y="322">)</text><rect class="l" x="581" y="305" width="28" height="25" rx="7"/><text class="j" x="591" y="322">»</text><a xlink:href="#vector"><rect class="r" x="619" y="305" width="57" height="25"/><text class="j" x="629" y="322">vector</text></a><rect class="l" x="25" y="350" width="25" height="25" rx="7"/><text class="j" x="35" y="367">(</text><rect class="l" x="60" y="350" width="43" height="25" rx="7"/><text class="j" x="70" y="367">rest</text><a xlink:href="#vector"><rect class="r" x="113" y="350" width="57" height="25"/><text class="j" x="123" y="367">vector</text></a><rect class="l" x="180" y="350" width="25" height="25" rx="7"/><text class="j" x="190" y="367">)</text><rect class="l" x="215" y="350" width="28" height="25" rx="7"/><text class="j" x="225" y="367">»</text><a xlink:href="#vector"><rect class="r" x="253" y="350" width="57" height="25"/><text class="j" x="263" y="367">vector</text></a><rect class="l" x="25" y="380" width="25" height="25" rx="7"/><text class="j" x="35" y="397">(</text><rect class="l" x="60" y="380" width="43" height="25" rx="7"/><text class="j" x="70" y="397">sort</text><a xlink:href="#set"><rect class="r" x="133" y="380" width="38" height="25"/><text class="j" x="143" y="397">set</text></a><a xlink:href="#vector"><rect class="r" x="133" y="410" width="57" height="25"/><text class="j" x="143" y="427">vector</text></a><rect class="l" x="220" y="380" width="25" height="25" rx="7"/><text class="j" x="230" y="397">)</text><rect class="l" x="255" y="380" width="28" height="25" rx="7"/><text class="j" x="265" y="397">»</text><a xlink:href="#vector"><rect class="r" x="293" y="380" width="57" height="25"/><text class="j" x="303" y="397">vector</text></a><rect class="l" x="25" y="440" width="25" height="25" rx="7"/><text class="j" x="35" y="457">(</text><rect class="l" x="60" y="440" width="62" height="25" rx="7"/><text class="j" x="70" y="457">sort-by</text><rect class="l" x="132" y="440" width="25" height="25" rx="7"/><text class="j" x="142" y="457">[</text><a xlink:href="#symbol:element"><rect class="r" x="167" y="440" width="116" height="25"/><text class="j" x="177" y="457">symbol:element</text></a><a xlink:href="#set"><rect class="r" x="313" y="440" width="38" height="25"/><text class="j" x="323" y="457">set</text></a><a xlink:href="#vector"><rect class="r" x="313" y="470" width="57" height="25"/><text class="j" x="323" y="487">vector</text></a><rect class="l" x="400" y="440" width="25" height="25" rx="7"/><text class="j" x="410" y="457">]</text><a xlink:href="#integer-expression"><rect class="r" x="455" y="440" width="130" height="25"/><text class="j" x="465" y="457">integer-expression</text></a><a xlink:href="#fixed-decimal-expression"><rect class="r" x="455" y="470" width="166" height="25"/><text class="j" x="465" y="487">fixed-decimal-expression</text></a><rect class="l" x="651" y="440" width="25" height="25" rx="7"/><text class="j" x="661" y="457">)</text><rect class="l" x="686" y="440" width="28" height="25" rx="7"/><text class="j" x="696" y="457">»</text><a xlink:href="#vector"><rect class="r" x="724" y="440" width="57" height="25"/><text class="j" x="734" y="457">vector</text></a></svg>