<svg version="1.1" xmlns:xlink="http://www.w3.org/1999/xlink" xmlns="http://www.w3.org/2000/svg" width="1032" height="1021" viewbox="0 0 1032 1021"><defs><style type="text/css">.c{fill: none; stroke: #888888; stroke-width: 3pt;}.i{fill:#000000;font-family:Dialog,Sans-serif;font-size:12px;}.l{fill:#90d9ff;stroke:#222222;}.r{fill:#d3f0ff;stroke:#222222;}</style></defs><path class="c" d="M0 21h25m53 0h10m35 0h10m53 0h10m27 0h10m71 0h723m-1012 24q0 5 5 5h5m53 0h10m40 0h10m53 0h10m27 0h10m71 0h703q5 0 5-5m-1002 29q0 5 5 5h5m74 0h10m24 0h10m151 0h10m27 0h10m42 0h629q5 0 5-5m-1002 29q0 5 5 5h5m59 0h10m25 0h10m65 0h10m25 0h10m27 0h10m53 0h683q5 0 5-5m-1002 44q0 5 5 5h25m117 0h10m24 0h10m151 0h20m-347 0q5 0 5 5v19q0 5 5 5h5m102 0h10m25 0h10m65 0h10m25 0h70q5 0 5-5v-19q0-5 5-5m5 0h50m-5 0q-5 0-5-5v-16q0-5 5-5h235q5 0 5 5v16q0 5-5 5m-230 0h20m24 0h10m151 0h20m-220 0q5 0 5 5v19q0 5 5 5h5m25 0h10m65 0h10m25 0h55q5 0 5-5v-19q0-5 5-5m5 0h40m-300 0q5 0 5 5v37q0 5 5 5h275q5 0 5-5v-37q0-5 5-5m5 0h10m27 0h10m42 0h231q5 0 5-5m-1002 73q0 5 5 5h5m48 0h10m25 0h10m63 0h10m31 0h30m40 0h39m-94 0q5 0 5 5v19q0 5 5 5h5m59 0h5q5 0 5-5v-19q0-5 5-5m5 0h10m25 0h10m143 0h10m27 0h10m71 0h375q5 0 5-5m-1002 58q0 5 5 5h5m59 0h10m24 0h10m63 0h10m25 0h10m59 0h10m25 0h10m27 0h10m59 0h576q5 0 5-5m-1002 29q0 5 5 5h5m40 0h10m24 0h10m63 0h10m25 0h30m40 0h39m-94 0q5 0 5 5v19q0 5 5 5h5m59 0h5q5 0 5-5v-19q0-5 5-5m5 0h10m25 0h10m27 0h10m40 0h574q5 0 5-5m-1002 87q0 5 5 5h5m40 0h10m24 0h10m46 0h10m25 0h30m-5 0q-5 0-5-5v-19q0-5 5-5h19m24 0h20q5 0 5 5v19q0 5-5 5m-5 0h30m25 0h10m27 0h10m40 0h597q5 0 5-5m-1002 58q0 5 5 5h5m59 0h10m24 0h10m46 0h10m25 0h30m-5 0q-5 0-5-5v-19q0-5 5-5h19m24 0h20q5 0 5 5v19q0 5-5 5m-5 0h30m25 0h10m27 0h10m59 0h559q5 0 5-5m-1002 29q0 5 5 5h25m40 0h39m-94 0q5 0 5 5v19q0 5 5 5h5m59 0h5q5 0 5-5v-19q0-5 5-5m5 0h10m24 0h10m66 0h10m27 0h10m65 0h666q5 0 5-5m-1002 87q0 5 5 5h5m70 0h10m25 0h10m53 0h10m24 0h30m-5 0q-5 0-5-5v-19q0-5 5-5h19m24 0h20q5 0 5 5v19q0 5-5 5m-5 0h30m25 0h10m27 0h10m71 0h529q5 0 5-5m-1002 29q0 5 5 5h5m59 0h10m25 0h10m63 0h10m31 0h30m40 0h39m-94 0q5 0 5 5v19q0 5 5 5h5m59 0h5q5 0 5-5v-19q0-5 5-5m5 0h10m25 0h10m143 0h10m27 0h10m71 0h364q5 0 5-5m-1002 58q0 5 5 5h5m48 0h10m25 0h10m63 0h10m31 0h10m40 0h10m25 0h10m143 0h10m27 0h10m40 0h465q5 0 5-5m-1002 29q0 5 5 5h5m48 0h10m25 0h10m63 0h10m31 0h10m59 0h10m25 0h10m143 0h10m27 0h10m59 0h427q5 0 5-5m-1002 29q0 5 5 5h5m59 0h10m24 0h10m54 0h10m27 0h10m53 0h730q5 0 5-5m-1002 29q0 5 5 5h5m47 0h10m25 0h10m118 0h10m31 0h10m40 0h10m25 0h10m125 0h10m27 0h10m40 0h429q5 0 5-5m-1002 29q0 5 5 5h5m47 0h10m25 0h10m118 0h10m31 0h10m59 0h10m25 0h10m125 0h10m27 0h10m59 0h391q5 0 5-5m-1002 58q0 5 5 5h5m91 0h10m25 0h10m53 0h10m24 0h30m-5 0q-5 0-5-5v-19q0-5 5-5h19m24 0h20q5 0 5 5v19q0 5-5 5m-5 0h30m25 0h10m27 0h10m71 0h508q5 0 5-5m-1002 29q0 5 5 5h5m64 0h10m25 0h10m145 0h10m30 0h10m158 0h10m24 0h10m118 0h10m31 0h10m59 0h10m25 0h10m114 0h10m27 0h10m42 0h5q5 0 5-5m-1002 29q0 5 5 5h5m59 0h10m24 0h10m55 0h10m27 0h10m59 0h723q5 0 5-5m-1002 29q0 5 5 5h25m40 0h39m-94 0q5 0 5 5v19q0 5 5 5h5m59 0h5q5 0 5-5v-19q0-5 5-5m5 0h10m24 0h10m55 0h10m27 0h10m59 0h683q5 0 5-5m-1007-895q5 0 5 5v948q0 5 5 5h5m59 0h10m25 0h10m118 0h10m31 0h30m40 0h39m-94 0q5 0 5 5v19q0 5 5 5h5m59 0h5q5 0 5-5v-19q0-5 5-5m5 0h10m25 0h30m137 0h56m-208 0q5 0 5 5v19q0 5 5 5h5m173 0h5q5 0 5-5v-19q0-5 5-5m5 0h10m27 0h10m59 0h251q5 0 5-5v-948q0-5 5-5m5 0h5"/><a xlink:href="#value"><rect class="r" x="25" y="5" width="53" height="24"/><text class="i" x="35" y="21">value</text></a><rect class="l" x="88" y="5" width="35" height="24" rx="7"/><text class="i" x="98" y="21">!=</text><a xlink:href="#value"><rect class="r" x="133" y="5" width="53" height="24"/><text class="i" x="143" y="21">value</text></a><rect class="l" x="196" y="5" width="27" height="24" rx="7"/><text class="i" x="206" y="21">»</text><a xlink:href="#boolean"><rect class="r" x="233" y="5" width="71" height="24"/><text class="i" x="243" y="21">boolean</text></a><a xlink:href="#value"><rect class="r" x="25" y="34" width="53" height="24"/><text class="i" x="35" y="50">value</text></a><rect class="l" x="88" y="34" width="40" height="24" rx="7"/><text class="i" x="98" y="50">==</text><a xlink:href="#value"><rect class="r" x="138" y="34" width="53" height="24"/><text class="i" x="148" y="50">value</text></a><rect class="l" x="201" y="34" width="27" height="24" rx="7"/><text class="i" x="211" y="50">»</text><a xlink:href="#boolean"><rect class="r" x="238" y="34" width="71" height="24"/><text class="i" x="248" y="50">boolean</text></a><a xlink:href="#instance"><rect class="r" x="25" y="63" width="74" height="24"/><text class="i" x="35" y="79">instance</text></a><rect class="l" x="109" y="63" width="24" height="24" rx="7"/><text class="i" x="119" y="79">.</text><a xlink:href="#symbol:instance-field"><rect class="r" x="143" y="63" width="151" height="24"/><text class="i" x="153" y="79">symbol:instance-field</text></a><rect class="l" x="304" y="63" width="27" height="24" rx="7"/><text class="i" x="314" y="79">»</text><a xlink:href="#any"><rect class="r" x="341" y="63" width="42" height="24"/><text class="i" x="351" y="79">any</text></a><a xlink:href="#vector"><rect class="r" x="25" y="92" width="59" height="24"/><text class="i" x="35" y="108">vector</text></a><rect class="l" x="94" y="92" width="25" height="24" rx="7"/><text class="i" x="104" y="108">[</text><a xlink:href="#integer"><rect class="r" x="129" y="92" width="65" height="24"/><text class="i" x="139" y="108">integer</text></a><rect class="l" x="204" y="92" width="25" height="24" rx="7"/><text class="i" x="214" y="108">]</text><rect class="l" x="239" y="92" width="27" height="24" rx="7"/><text class="i" x="249" y="108">»</text><a xlink:href="#value"><rect class="r" x="276" y="92" width="53" height="24"/><text class="i" x="286" y="108">value</text></a><a xlink:href="#instance:target"><rect class="r" x="45" y="136" width="117" height="24"/><text class="i" x="55" y="152">instance:target</text></a><rect class="l" x="172" y="136" width="24" height="24" rx="7"/><text class="i" x="182" y="152">.</text><a xlink:href="#symbol:instance-field"><rect class="r" x="206" y="136" width="151" height="24"/><text class="i" x="216" y="152">symbol:instance-field</text></a><a xlink:href="#vector:target"><rect class="r" x="45" y="165" width="102" height="24"/><text class="i" x="55" y="181">vector:target</text></a><rect class="l" x="157" y="165" width="25" height="24" rx="7"/><text class="i" x="167" y="181">[</text><a xlink:href="#integer"><rect class="r" x="192" y="165" width="65" height="24"/><text class="i" x="202" y="181">integer</text></a><rect class="l" x="267" y="165" width="25" height="24" rx="7"/><text class="i" x="277" y="181">]</text><rect class="l" x="447" y="136" width="24" height="24" rx="7"/><text class="i" x="457" y="152">.</text><a xlink:href="#symbol:instance-field"><rect class="r" x="481" y="136" width="151" height="24"/><text class="i" x="491" y="152">symbol:instance-field</text></a><rect class="l" x="447" y="165" width="25" height="24" rx="7"/><text class="i" x="457" y="181">[</text><a xlink:href="#integer"><rect class="r" x="482" y="165" width="65" height="24"/><text class="i" x="492" y="181">integer</text></a><rect class="l" x="557" y="165" width="25" height="24" rx="7"/><text class="i" x="567" y="181">]</text><rect class="l" x="702" y="136" width="27" height="24" rx="7"/><text class="i" x="712" y="152">»</text><a xlink:href="#any"><rect class="r" x="739" y="136" width="42" height="24"/><text class="i" x="749" y="152">any</text></a><rect class="l" x="25" y="209" width="48" height="24" rx="7"/><text class="i" x="35" y="225">any?</text><rect class="l" x="83" y="209" width="25" height="24" rx="7"/><text class="i" x="93" y="225">(</text><a xlink:href="#symbol"><rect class="r" x="118" y="209" width="63" height="24"/><text class="i" x="128" y="225">symbol</text></a><rect class="l" x="191" y="209" width="31" height="24" rx="7"/><text class="i" x="201" y="225">in</text><a xlink:href="#set"><rect class="r" x="252" y="209" width="40" height="24"/><text class="i" x="262" y="225">set</text></a><a xlink:href="#vector"><rect class="r" x="252" y="238" width="59" height="24"/><text class="i" x="262" y="254">vector</text></a><rect class="l" x="341" y="209" width="25" height="24" rx="7"/><text class="i" x="351" y="225">)</text><a xlink:href="#boolean-expression"><rect class="r" x="376" y="209" width="143" height="24"/><text class="i" x="386" y="225">boolean-expression</text></a><rect class="l" x="529" y="209" width="27" height="24" rx="7"/><text class="i" x="539" y="225">»</text><a xlink:href="#boolean"><rect class="r" x="566" y="209" width="71" height="24"/><text class="i" x="576" y="225">boolean</text></a><a xlink:href="#vector"><rect class="r" x="25" y="267" width="59" height="24"/><text class="i" x="35" y="283">vector</text></a><rect class="l" x="94" y="267" width="24" height="24" rx="7"/><text class="i" x="104" y="283">.</text><rect class="l" x="128" y="267" width="63" height="24" rx="7"/><text class="i" x="138" y="283">concat</text><rect class="l" x="201" y="267" width="25" height="24" rx="7"/><text class="i" x="211" y="283">(</text><a xlink:href="#vector"><rect class="r" x="236" y="267" width="59" height="24"/><text class="i" x="246" y="283">vector</text></a><rect class="l" x="305" y="267" width="25" height="24" rx="7"/><text class="i" x="315" y="283">)</text><rect class="l" x="340" y="267" width="27" height="24" rx="7"/><text class="i" x="350" y="283">»</text><a xlink:href="#vector"><rect class="r" x="377" y="267" width="59" height="24"/><text class="i" x="387" y="283">vector</text></a><a xlink:href="#set"><rect class="r" x="25" y="296" width="40" height="24"/><text class="i" x="35" y="312">set</text></a><rect class="l" x="75" y="296" width="24" height="24" rx="7"/><text class="i" x="85" y="312">.</text><rect class="l" x="109" y="296" width="63" height="24" rx="7"/><text class="i" x="119" y="312">concat</text><rect class="l" x="182" y="296" width="25" height="24" rx="7"/><text class="i" x="192" y="312">(</text><a xlink:href="#set"><rect class="r" x="237" y="296" width="40" height="24"/><text class="i" x="247" y="312">set</text></a><a xlink:href="#vector"><rect class="r" x="237" y="325" width="59" height="24"/><text class="i" x="247" y="341">vector</text></a><rect class="l" x="326" y="296" width="25" height="24" rx="7"/><text class="i" x="336" y="312">)</text><rect class="l" x="361" y="296" width="27" height="24" rx="7"/><text class="i" x="371" y="312">»</text><a xlink:href="#set"><rect class="r" x="398" y="296" width="40" height="24"/><text class="i" x="408" y="312">set</text></a><a xlink:href="#set"><rect class="r" x="25" y="383" width="40" height="24"/><text class="i" x="35" y="399">set</text></a><rect class="l" x="75" y="383" width="24" height="24" rx="7"/><text class="i" x="85" y="399">.</text><rect class="l" x="109" y="383" width="46" height="24" rx="7"/><text class="i" x="119" y="399">conj</text><rect class="l" x="165" y="383" width="25" height="24" rx="7"/><text class="i" x="175" y="399">(</text><rect class="l" x="234" y="354" width="24" height="24" rx="7"/><text class="i" x="244" y="370">,</text><a xlink:href="#value"><rect class="r" x="220" y="383" width="53" height="24"/><text class="i" x="230" y="399">value</text></a><rect class="l" x="303" y="383" width="25" height="24" rx="7"/><text class="i" x="313" y="399">)</text><rect class="l" x="338" y="383" width="27" height="24" rx="7"/><text class="i" x="348" y="399">»</text><a xlink:href="#set"><rect class="r" x="375" y="383" width="40" height="24"/><text class="i" x="385" y="399">set</text></a><a xlink:href="#vector"><rect class="r" x="25" y="441" width="59" height="24"/><text class="i" x="35" y="457">vector</text></a><rect class="l" x="94" y="441" width="24" height="24" rx="7"/><text class="i" x="104" y="457">.</text><rect class="l" x="128" y="441" width="46" height="24" rx="7"/><text class="i" x="138" y="457">conj</text><rect class="l" x="184" y="441" width="25" height="24" rx="7"/><text class="i" x="194" y="457">(</text><rect class="l" x="253" y="412" width="24" height="24" rx="7"/><text class="i" x="263" y="428">,</text><a xlink:href="#value"><rect class="r" x="239" y="441" width="53" height="24"/><text class="i" x="249" y="457">value</text></a><rect class="l" x="322" y="441" width="25" height="24" rx="7"/><text class="i" x="332" y="457">)</text><rect class="l" x="357" y="441" width="27" height="24" rx="7"/><text class="i" x="367" y="457">»</text><a xlink:href="#vector"><rect class="r" x="394" y="441" width="59" height="24"/><text class="i" x="404" y="457">vector</text></a><a xlink:href="#set"><rect class="r" x="45" y="470" width="40" height="24"/><text class="i" x="55" y="486">set</text></a><a xlink:href="#vector"><rect class="r" x="45" y="499" width="59" height="24"/><text class="i" x="55" y="515">vector</text></a><rect class="l" x="134" y="470" width="24" height="24" rx="7"/><text class="i" x="144" y="486">.</text><rect class="l" x="168" y="470" width="66" height="24" rx="7"/><text class="i" x="178" y="486">count()</text><rect class="l" x="244" y="470" width="27" height="24" rx="7"/><text class="i" x="254" y="486">»</text><a xlink:href="#integer"><rect class="r" x="281" y="470" width="65" height="24"/><text class="i" x="291" y="486">integer</text></a><rect class="l" x="25" y="557" width="70" height="24" rx="7"/><text class="i" x="35" y="573">equalTo</text><rect class="l" x="105" y="557" width="25" height="24" rx="7"/><text class="i" x="115" y="573">(</text><a xlink:href="#value"><rect class="r" x="140" y="557" width="53" height="24"/><text class="i" x="150" y="573">value</text></a><rect class="l" x="203" y="557" width="24" height="24" rx="7"/><text class="i" x="213" y="573">,</text><rect class="l" x="271" y="528" width="24" height="24" rx="7"/><text class="i" x="281" y="544">,</text><a xlink:href="#value"><rect class="r" x="257" y="557" width="53" height="24"/><text class="i" x="267" y="573">value</text></a><rect class="l" x="340" y="557" width="25" height="24" rx="7"/><text class="i" x="350" y="573">)</text><rect class="l" x="375" y="557" width="27" height="24" rx="7"/><text class="i" x="385" y="573">»</text><a xlink:href="#boolean"><rect class="r" x="412" y="557" width="71" height="24"/><text class="i" x="422" y="573">boolean</text></a><rect class="l" x="25" y="586" width="59" height="24" rx="7"/><text class="i" x="35" y="602">every?</text><rect class="l" x="94" y="586" width="25" height="24" rx="7"/><text class="i" x="104" y="602">(</text><a xlink:href="#symbol"><rect class="r" x="129" y="586" width="63" height="24"/><text class="i" x="139" y="602">symbol</text></a><rect class="l" x="202" y="586" width="31" height="24" rx="7"/><text class="i" x="212" y="602">in</text><a xlink:href="#set"><rect class="r" x="263" y="586" width="40" height="24"/><text class="i" x="273" y="602">set</text></a><a xlink:href="#vector"><rect class="r" x="263" y="615" width="59" height="24"/><text class="i" x="273" y="631">vector</text></a><rect class="l" x="352" y="586" width="25" height="24" rx="7"/><text class="i" x="362" y="602">)</text><a xlink:href="#boolean-expression"><rect class="r" x="387" y="586" width="143" height="24"/><text class="i" x="397" y="602">boolean-expression</text></a><rect class="l" x="540" y="586" width="27" height="24" rx="7"/><text class="i" x="550" y="602">»</text><a xlink:href="#boolean"><rect class="r" x="577" y="586" width="71" height="24"/><text class="i" x="587" y="602">boolean</text></a><rect class="l" x="25" y="644" width="48" height="24" rx="7"/><text class="i" x="35" y="660">filter</text><rect class="l" x="83" y="644" width="25" height="24" rx="7"/><text class="i" x="93" y="660">(</text><a xlink:href="#symbol"><rect class="r" x="118" y="644" width="63" height="24"/><text class="i" x="128" y="660">symbol</text></a><rect class="l" x="191" y="644" width="31" height="24" rx="7"/><text class="i" x="201" y="660">in</text><a xlink:href="#set"><rect class="r" x="232" y="644" width="40" height="24"/><text class="i" x="242" y="660">set</text></a><rect class="l" x="282" y="644" width="25" height="24" rx="7"/><text class="i" x="292" y="660">)</text><a xlink:href="#boolean-expression"><rect class="r" x="317" y="644" width="143" height="24"/><text class="i" x="327" y="660">boolean-expression</text></a><rect class="l" x="470" y="644" width="27" height="24" rx="7"/><text class="i" x="480" y="660">»</text><a xlink:href="#set"><rect class="r" x="507" y="644" width="40" height="24"/><text class="i" x="517" y="660">set</text></a><rect class="l" x="25" y="673" width="48" height="24" rx="7"/><text class="i" x="35" y="689">filter</text><rect class="l" x="83" y="673" width="25" height="24" rx="7"/><text class="i" x="93" y="689">(</text><a xlink:href="#symbol"><rect class="r" x="118" y="673" width="63" height="24"/><text class="i" x="128" y="689">symbol</text></a><rect class="l" x="191" y="673" width="31" height="24" rx="7"/><text class="i" x="201" y="689">in</text><a xlink:href="#vector"><rect class="r" x="232" y="673" width="59" height="24"/><text class="i" x="242" y="689">vector</text></a><rect class="l" x="301" y="673" width="25" height="24" rx="7"/><text class="i" x="311" y="689">)</text><a xlink:href="#boolean-expression"><rect class="r" x="336" y="673" width="143" height="24"/><text class="i" x="346" y="689">boolean-expression</text></a><rect class="l" x="489" y="673" width="27" height="24" rx="7"/><text class="i" x="499" y="689">»</text><a xlink:href="#vector"><rect class="r" x="526" y="673" width="59" height="24"/><text class="i" x="536" y="689">vector</text></a><a xlink:href="#vector"><rect class="r" x="25" y="702" width="59" height="24"/><text class="i" x="35" y="718">vector</text></a><rect class="l" x="94" y="702" width="24" height="24" rx="7"/><text class="i" x="104" y="718">.</text><rect class="l" x="128" y="702" width="54" height="24" rx="7"/><text class="i" x="138" y="718">first()</text><rect class="l" x="192" y="702" width="27" height="24" rx="7"/><text class="i" x="202" y="718">»</text><a xlink:href="#value"><rect class="r" x="229" y="702" width="53" height="24"/><text class="i" x="239" y="718">value</text></a><rect class="l" x="25" y="731" width="47" height="24" rx="7"/><text class="i" x="35" y="747">map</text><rect class="l" x="82" y="731" width="25" height="24" rx="7"/><text class="i" x="92" y="747">(</text><a xlink:href="#symbol:element"><rect class="r" x="117" y="731" width="118" height="24"/><text class="i" x="127" y="747">symbol:element</text></a><rect class="l" x="245" y="731" width="31" height="24" rx="7"/><text class="i" x="255" y="747">in</text><a xlink:href="#set"><rect class="r" x="286" y="731" width="40" height="24"/><text class="i" x="296" y="747">set</text></a><rect class="l" x="336" y="731" width="25" height="24" rx="7"/><text class="i" x="346" y="747">)</text><a xlink:href="#value-expression"><rect class="r" x="371" y="731" width="125" height="24"/><text class="i" x="381" y="747">value-expression</text></a><rect class="l" x="506" y="731" width="27" height="24" rx="7"/><text class="i" x="516" y="747">»</text><a xlink:href="#set"><rect class="r" x="543" y="731" width="40" height="24"/><text class="i" x="553" y="747">set</text></a><rect class="l" x="25" y="760" width="47" height="24" rx="7"/><text class="i" x="35" y="776">map</text><rect class="l" x="82" y="760" width="25" height="24" rx="7"/><text class="i" x="92" y="776">(</text><a xlink:href="#symbol:element"><rect class="r" x="117" y="760" width="118" height="24"/><text class="i" x="127" y="776">symbol:element</text></a><rect class="l" x="245" y="760" width="31" height="24" rx="7"/><text class="i" x="255" y="776">in</text><a xlink:href="#vector"><rect class="r" x="286" y="760" width="59" height="24"/><text class="i" x="296" y="776">vector</text></a><rect class="l" x="355" y="760" width="25" height="24" rx="7"/><text class="i" x="365" y="776">)</text><a xlink:href="#value-expression"><rect class="r" x="390" y="760" width="125" height="24"/><text class="i" x="400" y="776">value-expression</text></a><rect class="l" x="525" y="760" width="27" height="24" rx="7"/><text class="i" x="535" y="776">»</text><a xlink:href="#vector"><rect class="r" x="562" y="760" width="59" height="24"/><text class="i" x="572" y="776">vector</text></a><rect class="l" x="25" y="818" width="91" height="24" rx="7"/><text class="i" x="35" y="834">notEqualTo</text><rect class="l" x="126" y="818" width="25" height="24" rx="7"/><text class="i" x="136" y="834">(</text><a xlink:href="#value"><rect class="r" x="161" y="818" width="53" height="24"/><text class="i" x="171" y="834">value</text></a><rect class="l" x="224" y="818" width="24" height="24" rx="7"/><text class="i" x="234" y="834">,</text><rect class="l" x="292" y="789" width="24" height="24" rx="7"/><text class="i" x="302" y="805">,</text><a xlink:href="#value"><rect class="r" x="278" y="818" width="53" height="24"/><text class="i" x="288" y="834">value</text></a><rect class="l" x="361" y="818" width="25" height="24" rx="7"/><text class="i" x="371" y="834">)</text><rect class="l" x="396" y="818" width="27" height="24" rx="7"/><text class="i" x="406" y="834">»</text><a xlink:href="#boolean"><rect class="r" x="433" y="818" width="71" height="24"/><text class="i" x="443" y="834">boolean</text></a><rect class="l" x="25" y="847" width="64" height="24" rx="7"/><text class="i" x="35" y="863">reduce</text><rect class="l" x="99" y="847" width="25" height="24" rx="7"/><text class="i" x="109" y="863">(</text><a xlink:href="#symbol:accumulator"><rect class="r" x="134" y="847" width="145" height="24"/><text class="i" x="144" y="863">symbol:accumulator</text></a><rect class="l" x="289" y="847" width="30" height="24" rx="7"/><text class="i" x="299" y="863">=</text><a xlink:href="#value:accumulator-init"><rect class="r" x="329" y="847" width="158" height="24"/><text class="i" x="339" y="863">value:accumulator-init</text></a><rect class="l" x="497" y="847" width="24" height="24" rx="7"/><text class="i" x="507" y="863">;</text><a xlink:href="#symbol:element"><rect class="r" x="531" y="847" width="118" height="24"/><text class="i" x="541" y="863">symbol:element</text></a><rect class="l" x="659" y="847" width="31" height="24" rx="7"/><text class="i" x="669" y="863">in</text><a xlink:href="#vector"><rect class="r" x="700" y="847" width="59" height="24"/><text class="i" x="710" y="863">vector</text></a><rect class="l" x="769" y="847" width="25" height="24" rx="7"/><text class="i" x="779" y="863">)</text><a xlink:href="#any-expression"><rect class="r" x="804" y="847" width="114" height="24"/><text class="i" x="814" y="863">any-expression</text></a><rect class="l" x="928" y="847" width="27" height="24" rx="7"/><text class="i" x="938" y="863">»</text><a xlink:href="#any"><rect class="r" x="965" y="847" width="42" height="24"/><text class="i" x="975" y="863">any</text></a><a xlink:href="#vector"><rect class="r" x="25" y="876" width="59" height="24"/><text class="i" x="35" y="892">vector</text></a><rect class="l" x="94" y="876" width="24" height="24" rx="7"/><text class="i" x="104" y="892">.</text><rect class="l" x="128" y="876" width="55" height="24" rx="7"/><text class="i" x="138" y="892">rest()</text><rect class="l" x="193" y="876" width="27" height="24" rx="7"/><text class="i" x="203" y="892">»</text><a xlink:href="#vector"><rect class="r" x="230" y="876" width="59" height="24"/><text class="i" x="240" y="892">vector</text></a><a xlink:href="#set"><rect class="r" x="45" y="905" width="40" height="24"/><text class="i" x="55" y="921">set</text></a><a xlink:href="#vector"><rect class="r" x="45" y="934" width="59" height="24"/><text class="i" x="55" y="950">vector</text></a><rect class="l" x="134" y="905" width="24" height="24" rx="7"/><text class="i" x="144" y="921">.</text><rect class="l" x="168" y="905" width="55" height="24" rx="7"/><text class="i" x="178" y="921">sort()</text><rect class="l" x="233" y="905" width="27" height="24" rx="7"/><text class="i" x="243" y="921">»</text><a xlink:href="#vector"><rect class="r" x="270" y="905" width="59" height="24"/><text class="i" x="280" y="921">vector</text></a><rect class="l" x="25" y="963" width="59" height="24" rx="7"/><text class="i" x="35" y="979">sortBy</text><rect class="l" x="94" y="963" width="25" height="24" rx="7"/><text class="i" x="104" y="979">(</text><a xlink:href="#symbol:element"><rect class="r" x="129" y="963" width="118" height="24"/><text class="i" x="139" y="979">symbol:element</text></a><rect class="l" x="257" y="963" width="31" height="24" rx="7"/><text class="i" x="267" y="979">in</text><a xlink:href="#set"><rect class="r" x="318" y="963" width="40" height="24"/><text class="i" x="328" y="979">set</text></a><a xlink:href="#vector"><rect class="r" x="318" y="992" width="59" height="24"/><text class="i" x="328" y="1008">vector</text></a><rect class="l" x="407" y="963" width="25" height="24" rx="7"/><text class="i" x="417" y="979">)</text><a xlink:href="#integer-expression"><rect class="r" x="462" y="963" width="137" height="24"/><text class="i" x="472" y="979">integer-expression</text></a><a xlink:href="#fixed-decimal-expression"><rect class="r" x="462" y="992" width="173" height="24"/><text class="i" x="472" y="1008">fixed-decimal-expression</text></a><rect class="l" x="665" y="963" width="27" height="24" rx="7"/><text class="i" x="675" y="979">»</text><a xlink:href="#vector"><rect class="r" x="702" y="963" width="59" height="24"/><text class="i" x="712" y="979">vector</text></a></svg>