<svg version="1.1" xmlns:xlink="http://www.w3.org/1999/xlink" xmlns="http://www.w3.org/2000/svg" width="1039" height="1055" viewbox="0 0 1039 1055"><defs><style type="text/css">.c{fill: none; stroke: #888888; stroke-width: 2px;}.i{fill:#000000;font-family:Verdana,Sans-serif;font-size:12px;}.l{fill:#90d9ff;stroke:#222222;}.r{fill:#d3f0ff;stroke:#222222;}</style></defs><path class="c" d="M0 18h25m54 0h10m34 0h10m54 0h10m28 0h10m71 0h728m-1019 25q0 5 5 5h5m54 0h10m38 0h10m54 0h10m28 0h10m71 0h709q5 0 5-5m-1009 30q0 5 5 5h5m73 0h10m24 0h10m153 0h10m28 0h10m43 0h633q5 0 5-5m-1009 30q0 5 5 5h5m59 0h10m25 0h10m65 0h10m25 0h10m28 0h10m54 0h688q5 0 5-5m-1009 45q0 5 5 5h25m117 0h10m24 0h10m153 0h20m-349 0q5 0 5 5v20q0 5 5 5h5m103 0h10m25 0h10m65 0h10m25 0h71q5 0 5-5v-20q0-5 5-5m5 0h50m-5 0q-5 0-5-5v-17q0-5 5-5h237q5 0 5 5v17q0 5-5 5m-232 0h20m24 0h10m153 0h20m-222 0q5 0 5 5v20q0 5 5 5h5m25 0h10m65 0h10m25 0h57q5 0 5-5v-20q0-5 5-5m5 0h40m-302 0q5 0 5 5v38q0 5 5 5h277q5 0 5-5v-38q0-5 5-5m5 0h10m28 0h10m43 0h232q5 0 5-5m-1009 75q0 5 5 5h5m50 0h10m25 0h10m64 0h10m31 0h30m40 0h39m-94 0q5 0 5 5v20q0 5 5 5h5m59 0h5q5 0 5-5v-20q0-5 5-5m5 0h10m25 0h10m145 0h10m28 0h10m71 0h376q5 0 5-5m-1009 60q0 5 5 5h5m59 0h10m24 0h10m61 0h10m25 0h10m59 0h10m25 0h10m28 0h10m59 0h584q5 0 5-5m-1009 30q0 5 5 5h5m40 0h10m24 0h10m61 0h10m25 0h30m40 0h39m-94 0q5 0 5 5v20q0 5 5 5h5m59 0h5q5 0 5-5v-20q0-5 5-5m5 0h10m25 0h10m28 0h10m40 0h582q5 0 5-5m-1009 90q0 5 5 5h5m40 0h10m24 0h10m46 0h10m25 0h30m-5 0q-5 0-5-5v-20q0-5 5-5h20m24 0h20q5 0 5 5v20q0 5-5 5m-5 0h30m25 0h10m28 0h10m40 0h602q5 0 5-5m-1009 60q0 5 5 5h5m59 0h10m24 0h10m46 0h10m25 0h30m-5 0q-5 0-5-5v-20q0-5 5-5h20m24 0h20q5 0 5 5v20q0 5-5 5m-5 0h30m25 0h10m28 0h10m59 0h564q5 0 5-5m-1009 30q0 5 5 5h25m40 0h39m-94 0q5 0 5 5v20q0 5 5 5h5m59 0h5q5 0 5-5v-20q0-5 5-5m5 0h10m24 0h10m65 0h10m28 0h10m65 0h673q5 0 5-5m-1009 90q0 5 5 5h5m70 0h10m25 0h10m54 0h10m24 0h30m-5 0q-5 0-5-5v-20q0-5 5-5h20m24 0h20q5 0 5 5v20q0 5-5 5m-5 0h30m25 0h10m28 0h10m71 0h533q5 0 5-5m-1009 30q0 5 5 5h5m62 0h10m25 0h10m64 0h10m31 0h30m40 0h39m-94 0q5 0 5 5v20q0 5 5 5h5m59 0h5q5 0 5-5v-20q0-5 5-5m5 0h10m25 0h10m145 0h10m28 0h10m71 0h364q5 0 5-5m-1009 60q0 5 5 5h5m48 0h10m25 0h10m64 0h10m31 0h10m40 0h10m25 0h10m145 0h10m28 0h10m40 0h468q5 0 5-5m-1009 30q0 5 5 5h5m48 0h10m25 0h10m64 0h10m31 0h10m59 0h10m25 0h10m145 0h10m28 0h10m59 0h430q5 0 5-5m-1009 30q0 5 5 5h5m59 0h10m24 0h10m54 0h10m28 0h10m54 0h735q5 0 5-5m-1009 30q0 5 5 5h5m47 0h10m25 0h10m120 0h10m31 0h10m40 0h10m25 0h10m128 0h10m28 0h10m40 0h430q5 0 5-5m-1009 30q0 5 5 5h5m47 0h10m25 0h10m120 0h10m31 0h10m59 0h10m25 0h10m128 0h10m28 0h10m59 0h392q5 0 5-5m-1009 60q0 5 5 5h5m91 0h10m25 0h10m54 0h10m24 0h30m-5 0q-5 0-5-5v-20q0-5 5-5h20m24 0h20q5 0 5 5v20q0 5-5 5m-5 0h30m25 0h10m28 0h10m71 0h512q5 0 5-5m-1009 30q0 5 5 5h5m63 0h10m25 0h10m145 0h10m29 0h10m159 0h10m25 0h10m120 0h10m31 0h10m59 0h10m25 0h10m117 0h10m28 0h10m43 0h5q5 0 5-5m-1009 30q0 5 5 5h5m59 0h10m24 0h10m55 0h10m28 0h10m59 0h729q5 0 5-5m-1009 30q0 5 5 5h25m40 0h39m-94 0q5 0 5 5v20q0 5 5 5h5m59 0h5q5 0 5-5v-20q0-5 5-5m5 0h10m24 0h10m55 0h10m28 0h10m59 0h689q5 0 5-5m-1014-925q5 0 5 5v980q0 5 5 5h5m60 0h10m25 0h10m120 0h10m31 0h30m40 0h39m-94 0q5 0 5 5v20q0 5 5 5h5m59 0h5q5 0 5-5v-20q0-5 5-5m5 0h10m25 0h30m139 0h57m-211 0q5 0 5 5v20q0 5 5 5h5m176 0h5q5 0 5-5v-20q0-5 5-5m5 0h10m28 0h10m59 0h251q5 0 5-5v-980q0-5 5-5m5 0h5"/><a xlink:href="#value"><rect class="r" x="25" y="5" width="54" height="25"/><text class="i" x="35" y="22">value</text></a><rect class="l" x="89" y="5" width="34" height="25" rx="7"/><text class="i" x="99" y="22">!=</text><a xlink:href="#value"><rect class="r" x="133" y="5" width="54" height="25"/><text class="i" x="143" y="22">value</text></a><rect class="l" x="197" y="5" width="28" height="25" rx="7"/><text class="i" x="207" y="22">»</text><a xlink:href="#boolean"><rect class="r" x="235" y="5" width="71" height="25"/><text class="i" x="245" y="22">boolean</text></a><a xlink:href="#value"><rect class="r" x="25" y="35" width="54" height="25"/><text class="i" x="35" y="52">value</text></a><rect class="l" x="89" y="35" width="38" height="25" rx="7"/><text class="i" x="99" y="52">==</text><a xlink:href="#value"><rect class="r" x="137" y="35" width="54" height="25"/><text class="i" x="147" y="52">value</text></a><rect class="l" x="201" y="35" width="28" height="25" rx="7"/><text class="i" x="211" y="52">»</text><a xlink:href="#boolean"><rect class="r" x="239" y="35" width="71" height="25"/><text class="i" x="249" y="52">boolean</text></a><a xlink:href="#instance"><rect class="r" x="25" y="65" width="73" height="25"/><text class="i" x="35" y="82">instance</text></a><rect class="l" x="108" y="65" width="24" height="25" rx="7"/><text class="i" x="118" y="82">.</text><a xlink:href="#symbol:instance-field"><rect class="r" x="142" y="65" width="153" height="25"/><text class="i" x="152" y="82">symbol:instance-field</text></a><rect class="l" x="305" y="65" width="28" height="25" rx="7"/><text class="i" x="315" y="82">»</text><a xlink:href="#any"><rect class="r" x="343" y="65" width="43" height="25"/><text class="i" x="353" y="82">any</text></a><a xlink:href="#vector"><rect class="r" x="25" y="95" width="59" height="25"/><text class="i" x="35" y="112">vector</text></a><rect class="l" x="94" y="95" width="25" height="25" rx="7"/><text class="i" x="104" y="112">[</text><a xlink:href="#integer"><rect class="r" x="129" y="95" width="65" height="25"/><text class="i" x="139" y="112">integer</text></a><rect class="l" x="204" y="95" width="25" height="25" rx="7"/><text class="i" x="214" y="112">]</text><rect class="l" x="239" y="95" width="28" height="25" rx="7"/><text class="i" x="249" y="112">»</text><a xlink:href="#value"><rect class="r" x="277" y="95" width="54" height="25"/><text class="i" x="287" y="112">value</text></a><a xlink:href="#instance:target"><rect class="r" x="45" y="140" width="117" height="25"/><text class="i" x="55" y="157">instance:target</text></a><rect class="l" x="172" y="140" width="24" height="25" rx="7"/><text class="i" x="182" y="157">.</text><a xlink:href="#symbol:instance-field"><rect class="r" x="206" y="140" width="153" height="25"/><text class="i" x="216" y="157">symbol:instance-field</text></a><a xlink:href="#vector:target"><rect class="r" x="45" y="170" width="103" height="25"/><text class="i" x="55" y="187">vector:target</text></a><rect class="l" x="158" y="170" width="25" height="25" rx="7"/><text class="i" x="168" y="187">[</text><a xlink:href="#integer"><rect class="r" x="193" y="170" width="65" height="25"/><text class="i" x="203" y="187">integer</text></a><rect class="l" x="268" y="170" width="25" height="25" rx="7"/><text class="i" x="278" y="187">]</text><rect class="l" x="449" y="140" width="24" height="25" rx="7"/><text class="i" x="459" y="157">.</text><a xlink:href="#symbol:instance-field"><rect class="r" x="483" y="140" width="153" height="25"/><text class="i" x="493" y="157">symbol:instance-field</text></a><rect class="l" x="449" y="170" width="25" height="25" rx="7"/><text class="i" x="459" y="187">[</text><a xlink:href="#integer"><rect class="r" x="484" y="170" width="65" height="25"/><text class="i" x="494" y="187">integer</text></a><rect class="l" x="559" y="170" width="25" height="25" rx="7"/><text class="i" x="569" y="187">]</text><rect class="l" x="706" y="140" width="28" height="25" rx="7"/><text class="i" x="716" y="157">»</text><a xlink:href="#any"><rect class="r" x="744" y="140" width="43" height="25"/><text class="i" x="754" y="157">any</text></a><rect class="l" x="25" y="215" width="50" height="25" rx="7"/><text class="i" x="35" y="232">any?</text><rect class="l" x="85" y="215" width="25" height="25" rx="7"/><text class="i" x="95" y="232">(</text><a xlink:href="#symbol"><rect class="r" x="120" y="215" width="64" height="25"/><text class="i" x="130" y="232">symbol</text></a><rect class="l" x="194" y="215" width="31" height="25" rx="7"/><text class="i" x="204" y="232">in</text><a xlink:href="#set"><rect class="r" x="255" y="215" width="40" height="25"/><text class="i" x="265" y="232">set</text></a><a xlink:href="#vector"><rect class="r" x="255" y="245" width="59" height="25"/><text class="i" x="265" y="262">vector</text></a><rect class="l" x="344" y="215" width="25" height="25" rx="7"/><text class="i" x="354" y="232">)</text><a xlink:href="#boolean-expression"><rect class="r" x="379" y="215" width="145" height="25"/><text class="i" x="389" y="232">boolean-expression</text></a><rect class="l" x="534" y="215" width="28" height="25" rx="7"/><text class="i" x="544" y="232">»</text><a xlink:href="#boolean"><rect class="r" x="572" y="215" width="71" height="25"/><text class="i" x="582" y="232">boolean</text></a><a xlink:href="#vector"><rect class="r" x="25" y="275" width="59" height="25"/><text class="i" x="35" y="292">vector</text></a><rect class="l" x="94" y="275" width="24" height="25" rx="7"/><text class="i" x="104" y="292">.</text><rect class="l" x="128" y="275" width="61" height="25" rx="7"/><text class="i" x="138" y="292">concat</text><rect class="l" x="199" y="275" width="25" height="25" rx="7"/><text class="i" x="209" y="292">(</text><a xlink:href="#vector"><rect class="r" x="234" y="275" width="59" height="25"/><text class="i" x="244" y="292">vector</text></a><rect class="l" x="303" y="275" width="25" height="25" rx="7"/><text class="i" x="313" y="292">)</text><rect class="l" x="338" y="275" width="28" height="25" rx="7"/><text class="i" x="348" y="292">»</text><a xlink:href="#vector"><rect class="r" x="376" y="275" width="59" height="25"/><text class="i" x="386" y="292">vector</text></a><a xlink:href="#set"><rect class="r" x="25" y="305" width="40" height="25"/><text class="i" x="35" y="322">set</text></a><rect class="l" x="75" y="305" width="24" height="25" rx="7"/><text class="i" x="85" y="322">.</text><rect class="l" x="109" y="305" width="61" height="25" rx="7"/><text class="i" x="119" y="322">concat</text><rect class="l" x="180" y="305" width="25" height="25" rx="7"/><text class="i" x="190" y="322">(</text><a xlink:href="#set"><rect class="r" x="235" y="305" width="40" height="25"/><text class="i" x="245" y="322">set</text></a><a xlink:href="#vector"><rect class="r" x="235" y="335" width="59" height="25"/><text class="i" x="245" y="352">vector</text></a><rect class="l" x="324" y="305" width="25" height="25" rx="7"/><text class="i" x="334" y="322">)</text><rect class="l" x="359" y="305" width="28" height="25" rx="7"/><text class="i" x="369" y="322">»</text><a xlink:href="#set"><rect class="r" x="397" y="305" width="40" height="25"/><text class="i" x="407" y="322">set</text></a><a xlink:href="#set"><rect class="r" x="25" y="395" width="40" height="25"/><text class="i" x="35" y="412">set</text></a><rect class="l" x="75" y="395" width="24" height="25" rx="7"/><text class="i" x="85" y="412">.</text><rect class="l" x="109" y="395" width="46" height="25" rx="7"/><text class="i" x="119" y="412">conj</text><rect class="l" x="165" y="395" width="25" height="25" rx="7"/><text class="i" x="175" y="412">(</text><rect class="l" x="235" y="365" width="24" height="25" rx="7"/><text class="i" x="245" y="382">,</text><a xlink:href="#value"><rect class="r" x="220" y="395" width="54" height="25"/><text class="i" x="230" y="412">value</text></a><rect class="l" x="304" y="395" width="25" height="25" rx="7"/><text class="i" x="314" y="412">)</text><rect class="l" x="339" y="395" width="28" height="25" rx="7"/><text class="i" x="349" y="412">»</text><a xlink:href="#set"><rect class="r" x="377" y="395" width="40" height="25"/><text class="i" x="387" y="412">set</text></a><a xlink:href="#vector"><rect class="r" x="25" y="455" width="59" height="25"/><text class="i" x="35" y="472">vector</text></a><rect class="l" x="94" y="455" width="24" height="25" rx="7"/><text class="i" x="104" y="472">.</text><rect class="l" x="128" y="455" width="46" height="25" rx="7"/><text class="i" x="138" y="472">conj</text><rect class="l" x="184" y="455" width="25" height="25" rx="7"/><text class="i" x="194" y="472">(</text><rect class="l" x="254" y="425" width="24" height="25" rx="7"/><text class="i" x="264" y="442">,</text><a xlink:href="#value"><rect class="r" x="239" y="455" width="54" height="25"/><text class="i" x="249" y="472">value</text></a><rect class="l" x="323" y="455" width="25" height="25" rx="7"/><text class="i" x="333" y="472">)</text><rect class="l" x="358" y="455" width="28" height="25" rx="7"/><text class="i" x="368" y="472">»</text><a xlink:href="#vector"><rect class="r" x="396" y="455" width="59" height="25"/><text class="i" x="406" y="472">vector</text></a><a xlink:href="#set"><rect class="r" x="45" y="485" width="40" height="25"/><text class="i" x="55" y="502">set</text></a><a xlink:href="#vector"><rect class="r" x="45" y="515" width="59" height="25"/><text class="i" x="55" y="532">vector</text></a><rect class="l" x="134" y="485" width="24" height="25" rx="7"/><text class="i" x="144" y="502">.</text><rect class="l" x="168" y="485" width="65" height="25" rx="7"/><text class="i" x="178" y="502">count()</text><rect class="l" x="243" y="485" width="28" height="25" rx="7"/><text class="i" x="253" y="502">»</text><a xlink:href="#integer"><rect class="r" x="281" y="485" width="65" height="25"/><text class="i" x="291" y="502">integer</text></a><rect class="l" x="25" y="575" width="70" height="25" rx="7"/><text class="i" x="35" y="592">equalTo</text><rect class="l" x="105" y="575" width="25" height="25" rx="7"/><text class="i" x="115" y="592">(</text><a xlink:href="#value"><rect class="r" x="140" y="575" width="54" height="25"/><text class="i" x="150" y="592">value</text></a><rect class="l" x="204" y="575" width="24" height="25" rx="7"/><text class="i" x="214" y="592">,</text><rect class="l" x="273" y="545" width="24" height="25" rx="7"/><text class="i" x="283" y="562">,</text><a xlink:href="#value"><rect class="r" x="258" y="575" width="54" height="25"/><text class="i" x="268" y="592">value</text></a><rect class="l" x="342" y="575" width="25" height="25" rx="7"/><text class="i" x="352" y="592">)</text><rect class="l" x="377" y="575" width="28" height="25" rx="7"/><text class="i" x="387" y="592">»</text><a xlink:href="#boolean"><rect class="r" x="415" y="575" width="71" height="25"/><text class="i" x="425" y="592">boolean</text></a><rect class="l" x="25" y="605" width="62" height="25" rx="7"/><text class="i" x="35" y="622">every?</text><rect class="l" x="97" y="605" width="25" height="25" rx="7"/><text class="i" x="107" y="622">(</text><a xlink:href="#symbol"><rect class="r" x="132" y="605" width="64" height="25"/><text class="i" x="142" y="622">symbol</text></a><rect class="l" x="206" y="605" width="31" height="25" rx="7"/><text class="i" x="216" y="622">in</text><a xlink:href="#set"><rect class="r" x="267" y="605" width="40" height="25"/><text class="i" x="277" y="622">set</text></a><a xlink:href="#vector"><rect class="r" x="267" y="635" width="59" height="25"/><text class="i" x="277" y="652">vector</text></a><rect class="l" x="356" y="605" width="25" height="25" rx="7"/><text class="i" x="366" y="622">)</text><a xlink:href="#boolean-expression"><rect class="r" x="391" y="605" width="145" height="25"/><text class="i" x="401" y="622">boolean-expression</text></a><rect class="l" x="546" y="605" width="28" height="25" rx="7"/><text class="i" x="556" y="622">»</text><a xlink:href="#boolean"><rect class="r" x="584" y="605" width="71" height="25"/><text class="i" x="594" y="622">boolean</text></a><rect class="l" x="25" y="665" width="48" height="25" rx="7"/><text class="i" x="35" y="682">filter</text><rect class="l" x="83" y="665" width="25" height="25" rx="7"/><text class="i" x="93" y="682">(</text><a xlink:href="#symbol"><rect class="r" x="118" y="665" width="64" height="25"/><text class="i" x="128" y="682">symbol</text></a><rect class="l" x="192" y="665" width="31" height="25" rx="7"/><text class="i" x="202" y="682">in</text><a xlink:href="#set"><rect class="r" x="233" y="665" width="40" height="25"/><text class="i" x="243" y="682">set</text></a><rect class="l" x="283" y="665" width="25" height="25" rx="7"/><text class="i" x="293" y="682">)</text><a xlink:href="#boolean-expression"><rect class="r" x="318" y="665" width="145" height="25"/><text class="i" x="328" y="682">boolean-expression</text></a><rect class="l" x="473" y="665" width="28" height="25" rx="7"/><text class="i" x="483" y="682">»</text><a xlink:href="#set"><rect class="r" x="511" y="665" width="40" height="25"/><text class="i" x="521" y="682">set</text></a><rect class="l" x="25" y="695" width="48" height="25" rx="7"/><text class="i" x="35" y="712">filter</text><rect class="l" x="83" y="695" width="25" height="25" rx="7"/><text class="i" x="93" y="712">(</text><a xlink:href="#symbol"><rect class="r" x="118" y="695" width="64" height="25"/><text class="i" x="128" y="712">symbol</text></a><rect class="l" x="192" y="695" width="31" height="25" rx="7"/><text class="i" x="202" y="712">in</text><a xlink:href="#vector"><rect class="r" x="233" y="695" width="59" height="25"/><text class="i" x="243" y="712">vector</text></a><rect class="l" x="302" y="695" width="25" height="25" rx="7"/><text class="i" x="312" y="712">)</text><a xlink:href="#boolean-expression"><rect class="r" x="337" y="695" width="145" height="25"/><text class="i" x="347" y="712">boolean-expression</text></a><rect class="l" x="492" y="695" width="28" height="25" rx="7"/><text class="i" x="502" y="712">»</text><a xlink:href="#vector"><rect class="r" x="530" y="695" width="59" height="25"/><text class="i" x="540" y="712">vector</text></a><a xlink:href="#vector"><rect class="r" x="25" y="725" width="59" height="25"/><text class="i" x="35" y="742">vector</text></a><rect class="l" x="94" y="725" width="24" height="25" rx="7"/><text class="i" x="104" y="742">.</text><rect class="l" x="128" y="725" width="54" height="25" rx="7"/><text class="i" x="138" y="742">first()</text><rect class="l" x="192" y="725" width="28" height="25" rx="7"/><text class="i" x="202" y="742">»</text><a xlink:href="#value"><rect class="r" x="230" y="725" width="54" height="25"/><text class="i" x="240" y="742">value</text></a><rect class="l" x="25" y="755" width="47" height="25" rx="7"/><text class="i" x="35" y="772">map</text><rect class="l" x="82" y="755" width="25" height="25" rx="7"/><text class="i" x="92" y="772">(</text><a xlink:href="#symbol:element"><rect class="r" x="117" y="755" width="120" height="25"/><text class="i" x="127" y="772">symbol:element</text></a><rect class="l" x="247" y="755" width="31" height="25" rx="7"/><text class="i" x="257" y="772">in</text><a xlink:href="#set"><rect class="r" x="288" y="755" width="40" height="25"/><text class="i" x="298" y="772">set</text></a><rect class="l" x="338" y="755" width="25" height="25" rx="7"/><text class="i" x="348" y="772">)</text><a xlink:href="#value-expression"><rect class="r" x="373" y="755" width="128" height="25"/><text class="i" x="383" y="772">value-expression</text></a><rect class="l" x="511" y="755" width="28" height="25" rx="7"/><text class="i" x="521" y="772">»</text><a xlink:href="#set"><rect class="r" x="549" y="755" width="40" height="25"/><text class="i" x="559" y="772">set</text></a><rect class="l" x="25" y="785" width="47" height="25" rx="7"/><text class="i" x="35" y="802">map</text><rect class="l" x="82" y="785" width="25" height="25" rx="7"/><text class="i" x="92" y="802">(</text><a xlink:href="#symbol:element"><rect class="r" x="117" y="785" width="120" height="25"/><text class="i" x="127" y="802">symbol:element</text></a><rect class="l" x="247" y="785" width="31" height="25" rx="7"/><text class="i" x="257" y="802">in</text><a xlink:href="#vector"><rect class="r" x="288" y="785" width="59" height="25"/><text class="i" x="298" y="802">vector</text></a><rect class="l" x="357" y="785" width="25" height="25" rx="7"/><text class="i" x="367" y="802">)</text><a xlink:href="#value-expression"><rect class="r" x="392" y="785" width="128" height="25"/><text class="i" x="402" y="802">value-expression</text></a><rect class="l" x="530" y="785" width="28" height="25" rx="7"/><text class="i" x="540" y="802">»</text><a xlink:href="#vector"><rect class="r" x="568" y="785" width="59" height="25"/><text class="i" x="578" y="802">vector</text></a><rect class="l" x="25" y="845" width="91" height="25" rx="7"/><text class="i" x="35" y="862">notEqualTo</text><rect class="l" x="126" y="845" width="25" height="25" rx="7"/><text class="i" x="136" y="862">(</text><a xlink:href="#value"><rect class="r" x="161" y="845" width="54" height="25"/><text class="i" x="171" y="862">value</text></a><rect class="l" x="225" y="845" width="24" height="25" rx="7"/><text class="i" x="235" y="862">,</text><rect class="l" x="294" y="815" width="24" height="25" rx="7"/><text class="i" x="304" y="832">,</text><a xlink:href="#value"><rect class="r" x="279" y="845" width="54" height="25"/><text class="i" x="289" y="862">value</text></a><rect class="l" x="363" y="845" width="25" height="25" rx="7"/><text class="i" x="373" y="862">)</text><rect class="l" x="398" y="845" width="28" height="25" rx="7"/><text class="i" x="408" y="862">»</text><a xlink:href="#boolean"><rect class="r" x="436" y="845" width="71" height="25"/><text class="i" x="446" y="862">boolean</text></a><rect class="l" x="25" y="875" width="63" height="25" rx="7"/><text class="i" x="35" y="892">reduce</text><rect class="l" x="98" y="875" width="25" height="25" rx="7"/><text class="i" x="108" y="892">(</text><a xlink:href="#symbol:accumulator"><rect class="r" x="133" y="875" width="145" height="25"/><text class="i" x="143" y="892">symbol:accumulator</text></a><rect class="l" x="288" y="875" width="29" height="25" rx="7"/><text class="i" x="298" y="892">=</text><a xlink:href="#value:accumulator-init"><rect class="r" x="327" y="875" width="159" height="25"/><text class="i" x="337" y="892">value:accumulator-init</text></a><rect class="l" x="496" y="875" width="25" height="25" rx="7"/><text class="i" x="506" y="892">;</text><a xlink:href="#symbol:element"><rect class="r" x="531" y="875" width="120" height="25"/><text class="i" x="541" y="892">symbol:element</text></a><rect class="l" x="661" y="875" width="31" height="25" rx="7"/><text class="i" x="671" y="892">in</text><a xlink:href="#vector"><rect class="r" x="702" y="875" width="59" height="25"/><text class="i" x="712" y="892">vector</text></a><rect class="l" x="771" y="875" width="25" height="25" rx="7"/><text class="i" x="781" y="892">)</text><a xlink:href="#any-expression"><rect class="r" x="806" y="875" width="117" height="25"/><text class="i" x="816" y="892">any-expression</text></a><rect class="l" x="933" y="875" width="28" height="25" rx="7"/><text class="i" x="943" y="892">»</text><a xlink:href="#any"><rect class="r" x="971" y="875" width="43" height="25"/><text class="i" x="981" y="892">any</text></a><a xlink:href="#vector"><rect class="r" x="25" y="905" width="59" height="25"/><text class="i" x="35" y="922">vector</text></a><rect class="l" x="94" y="905" width="24" height="25" rx="7"/><text class="i" x="104" y="922">.</text><rect class="l" x="128" y="905" width="55" height="25" rx="7"/><text class="i" x="138" y="922">rest()</text><rect class="l" x="193" y="905" width="28" height="25" rx="7"/><text class="i" x="203" y="922">»</text><a xlink:href="#vector"><rect class="r" x="231" y="905" width="59" height="25"/><text class="i" x="241" y="922">vector</text></a><a xlink:href="#set"><rect class="r" x="45" y="935" width="40" height="25"/><text class="i" x="55" y="952">set</text></a><a xlink:href="#vector"><rect class="r" x="45" y="965" width="59" height="25"/><text class="i" x="55" y="982">vector</text></a><rect class="l" x="134" y="935" width="24" height="25" rx="7"/><text class="i" x="144" y="952">.</text><rect class="l" x="168" y="935" width="55" height="25" rx="7"/><text class="i" x="178" y="952">sort()</text><rect class="l" x="233" y="935" width="28" height="25" rx="7"/><text class="i" x="243" y="952">»</text><a xlink:href="#vector"><rect class="r" x="271" y="935" width="59" height="25"/><text class="i" x="281" y="952">vector</text></a><rect class="l" x="25" y="995" width="60" height="25" rx="7"/><text class="i" x="35" y="1012">sortBy</text><rect class="l" x="95" y="995" width="25" height="25" rx="7"/><text class="i" x="105" y="1012">(</text><a xlink:href="#symbol:element"><rect class="r" x="130" y="995" width="120" height="25"/><text class="i" x="140" y="1012">symbol:element</text></a><rect class="l" x="260" y="995" width="31" height="25" rx="7"/><text class="i" x="270" y="1012">in</text><a xlink:href="#set"><rect class="r" x="321" y="995" width="40" height="25"/><text class="i" x="331" y="1012">set</text></a><a xlink:href="#vector"><rect class="r" x="321" y="1025" width="59" height="25"/><text class="i" x="331" y="1042">vector</text></a><rect class="l" x="410" y="995" width="25" height="25" rx="7"/><text class="i" x="420" y="1012">)</text><a xlink:href="#integer-expression"><rect class="r" x="465" y="995" width="139" height="25"/><text class="i" x="475" y="1012">integer-expression</text></a><a xlink:href="#fixed-decimal-expression"><rect class="r" x="465" y="1025" width="176" height="25"/><text class="i" x="475" y="1042">fixed-decimal-expression</text></a><rect class="l" x="671" y="995" width="28" height="25" rx="7"/><text class="i" x="681" y="1012">»</text><a xlink:href="#vector"><rect class="r" x="709" y="995" width="59" height="25"/><text class="i" x="719" y="1012">vector</text></a></svg>