<svg version="1.1" xmlns:xlink="http://www.w3.org/1999/xlink" xmlns="http://www.w3.org/2000/svg" width="827" height="500" viewbox="0 0 827 500"><defs><style type="text/css">.c{fill: none; stroke: #888888; stroke-width: 2px;}.j{fill:#000000;font-family:Verdana,Sans-serif;font-size:12px;}.l{fill:#90d9ff;stroke:#222222;}.r{fill:#d3f0ff;stroke:#222222;}</style></defs><path class="c" d="M0 18h25m25 0h10m61 0h30m59 0h10m59 0h10m25 0h10m28 0h10m59 0h22m-307 0q5 0 5 5v20q0 5 5 5h5m40 0h30m40 0h39m-94 0q5 0 5 5v20q0 5 5 5h5m59 0h5q5 0 5-5v-20q0-5 5-5m5 0h10m25 0h10m28 0h10m40 0h5q5 0 5-5v-20q0-5 5-5m5 0h379m-807 100q0 5 5 5h5m25 0h10m46 0h30m40 0h30m-5 0q-5 0-5-5v-17q0-5 5-5h64q5 0 5 5v17q0 5-5 5m-5 0h30m25 0h10m28 0h10m40 0h58m-340 0q5 0 5 5v35q0 5 5 5h5m59 0h30m-5 0q-5 0-5-5v-17q0-5 5-5h64q5 0 5 5v17q0 5-5 5m-5 0h30m25 0h10m28 0h10m59 0h5q5 0 5-5v-35q0-5 5-5m5 0h346q5 0 5-5m-797 75q0 5 5 5h5m25 0h10m48 0h30m25 0h10m120 0h10m40 0h10m25 0h10m145 0h10m25 0h10m28 0h10m40 0h58m-591 0q5 0 5 5v20q0 5 5 5h5m25 0h10m120 0h10m59 0h10m25 0h10m145 0h10m25 0h10m28 0h10m59 0h5q5 0 5-5v-20q0-5 5-5m5 0h93q5 0 5-5m-797 60q0 5 5 5h5m25 0h10m47 0h30m25 0h10m120 0h10m40 0h10m25 0h10m128 0h10m25 0h10m28 0h10m40 0h58m-574 0q5 0 5 5v20q0 5 5 5h5m25 0h10m120 0h10m59 0h10m25 0h10m128 0h10m25 0h10m28 0h10m59 0h5q5 0 5-5v-20q0-5 5-5m5 0h111q5 0 5-5m-797 60q0 5 5 5h5m25 0h10m57 0h30m100 0h20m-135 0q5 0 5 5v8q0 5 5 5h110q5 0 5-5v-8q0-5 5-5m5 0h10m94 0h30m132 0h20m-167 0q5 0 5 5v8q0 5 5 5h142q5 0 5-5v-8q0-5 5-5m5 0h10m25 0h10m28 0h10m59 0h112q5 0 5-5m-797 45q0 5 5 5h5m25 0h10m45 0h10m59 0h10m25 0h10m28 0h10m59 0h491q5 0 5-5m-797 30q0 5 5 5h5m25 0h10m45 0h30m40 0h39m-94 0q5 0 5 5v20q0 5 5 5h5m59 0h5q5 0 5-5v-20q0-5 5-5m5 0h10m25 0h10m28 0h10m59 0h451q5 0 5-5m-802-370q5 0 5 5v425q0 5 5 5h5m25 0h10m65 0h10m25 0h10m120 0h30m40 0h39m-94 0q5 0 5 5v20q0 5 5 5h5m59 0h5q5 0 5-5v-20q0-5 5-5m5 0h10m25 0h30m139 0h57m-211 0q5 0 5 5v20q0 5 5 5h5m176 0h5q5 0 5-5v-20q0-5 5-5m5 0h10m25 0h10m28 0h10m59 0h5q5 0 5-5v-425q0-5 5-5m5 0h5"/><rect class="l" x="25" y="5" width="25" height="25" rx="7"/><text class="j" x="35" y="22">(</text><rect class="l" x="60" y="5" width="61" height="25" rx="7"/><text class="j" x="70" y="22">concat</text><a xlink:href="#vector"><rect class="r" x="151" y="5" width="59" height="25"/><text class="j" x="161" y="22">vector</text></a><a xlink:href="#vector"><rect class="r" x="220" y="5" width="59" height="25"/><text class="j" x="230" y="22">vector</text></a><rect class="l" x="289" y="5" width="25" height="25" rx="7"/><text class="j" x="299" y="22">)</text><rect class="l" x="324" y="5" width="28" height="25" rx="7"/><text class="j" x="334" y="22">»</text><a xlink:href="#vector"><rect class="r" x="362" y="5" width="59" height="25"/><text class="j" x="372" y="22">vector</text></a><a xlink:href="#set"><rect class="r" x="151" y="35" width="40" height="25"/><text class="j" x="161" y="52">set</text></a><a xlink:href="#set"><rect class="r" x="221" y="35" width="40" height="25"/><text class="j" x="231" y="52">set</text></a><a xlink:href="#vector"><rect class="r" x="221" y="65" width="59" height="25"/><text class="j" x="231" y="82">vector</text></a><rect class="l" x="310" y="35" width="25" height="25" rx="7"/><text class="j" x="320" y="52">)</text><rect class="l" x="345" y="35" width="28" height="25" rx="7"/><text class="j" x="355" y="52">»</text><a xlink:href="#set"><rect class="r" x="383" y="35" width="40" height="25"/><text class="j" x="393" y="52">set</text></a><rect class="l" x="25" y="110" width="25" height="25" rx="7"/><text class="j" x="35" y="127">(</text><rect class="l" x="60" y="110" width="46" height="25" rx="7"/><text class="j" x="70" y="127">conj</text><a xlink:href="#set"><rect class="r" x="136" y="110" width="40" height="25"/><text class="j" x="146" y="127">set</text></a><a xlink:href="#value"><rect class="r" x="206" y="110" width="54" height="25"/><text class="j" x="216" y="127">value</text></a><rect class="l" x="290" y="110" width="25" height="25" rx="7"/><text class="j" x="300" y="127">)</text><rect class="l" x="325" y="110" width="28" height="25" rx="7"/><text class="j" x="335" y="127">»</text><a xlink:href="#set"><rect class="r" x="363" y="110" width="40" height="25"/><text class="j" x="373" y="127">set</text></a><a xlink:href="#vector"><rect class="r" x="136" y="155" width="59" height="25"/><text class="j" x="146" y="172">vector</text></a><a xlink:href="#value"><rect class="r" x="225" y="155" width="54" height="25"/><text class="j" x="235" y="172">value</text></a><rect class="l" x="309" y="155" width="25" height="25" rx="7"/><text class="j" x="319" y="172">)</text><rect class="l" x="344" y="155" width="28" height="25" rx="7"/><text class="j" x="354" y="172">»</text><a xlink:href="#vector"><rect class="r" x="382" y="155" width="59" height="25"/><text class="j" x="392" y="172">vector</text></a><rect class="l" x="25" y="185" width="25" height="25" rx="7"/><text class="j" x="35" y="202">(</text><rect class="l" x="60" y="185" width="48" height="25" rx="7"/><text class="j" x="70" y="202">filter</text><rect class="l" x="138" y="185" width="25" height="25" rx="7"/><text class="j" x="148" y="202">[</text><a xlink:href="#symbol:element"><rect class="r" x="173" y="185" width="120" height="25"/><text class="j" x="183" y="202">symbol:element</text></a><a xlink:href="#set"><rect class="r" x="303" y="185" width="40" height="25"/><text class="j" x="313" y="202">set</text></a><rect class="l" x="353" y="185" width="25" height="25" rx="7"/><text class="j" x="363" y="202">]</text><a xlink:href="#boolean-expression"><rect class="r" x="388" y="185" width="145" height="25"/><text class="j" x="398" y="202">boolean-expression</text></a><rect class="l" x="543" y="185" width="25" height="25" rx="7"/><text class="j" x="553" y="202">)</text><rect class="l" x="578" y="185" width="28" height="25" rx="7"/><text class="j" x="588" y="202">»</text><a xlink:href="#set"><rect class="r" x="616" y="185" width="40" height="25"/><text class="j" x="626" y="202">set</text></a><rect class="l" x="138" y="215" width="25" height="25" rx="7"/><text class="j" x="148" y="232">[</text><a xlink:href="#symbol:element"><rect class="r" x="173" y="215" width="120" height="25"/><text class="j" x="183" y="232">symbol:element</text></a><a xlink:href="#vector"><rect class="r" x="303" y="215" width="59" height="25"/><text class="j" x="313" y="232">vector</text></a><rect class="l" x="372" y="215" width="25" height="25" rx="7"/><text class="j" x="382" y="232">]</text><a xlink:href="#boolean-expression"><rect class="r" x="407" y="215" width="145" height="25"/><text class="j" x="417" y="232">boolean-expression</text></a><rect class="l" x="562" y="215" width="25" height="25" rx="7"/><text class="j" x="572" y="232">)</text><rect class="l" x="597" y="215" width="28" height="25" rx="7"/><text class="j" x="607" y="232">»</text><a xlink:href="#vector"><rect class="r" x="635" y="215" width="59" height="25"/><text class="j" x="645" y="232">vector</text></a><rect class="l" x="25" y="245" width="25" height="25" rx="7"/><text class="j" x="35" y="262">(</text><rect class="l" x="60" y="245" width="47" height="25" rx="7"/><text class="j" x="70" y="262">map</text><rect class="l" x="137" y="245" width="25" height="25" rx="7"/><text class="j" x="147" y="262">[</text><a xlink:href="#symbol:element"><rect class="r" x="172" y="245" width="120" height="25"/><text class="j" x="182" y="262">symbol:element</text></a><a xlink:href="#set"><rect class="r" x="302" y="245" width="40" height="25"/><text class="j" x="312" y="262">set</text></a><rect class="l" x="352" y="245" width="25" height="25" rx="7"/><text class="j" x="362" y="262">]</text><a xlink:href="#value-expression"><rect class="r" x="387" y="245" width="128" height="25"/><text class="j" x="397" y="262">value-expression</text></a><rect class="l" x="525" y="245" width="25" height="25" rx="7"/><text class="j" x="535" y="262">)</text><rect class="l" x="560" y="245" width="28" height="25" rx="7"/><text class="j" x="570" y="262">»</text><a xlink:href="#set"><rect class="r" x="598" y="245" width="40" height="25"/><text class="j" x="608" y="262">set</text></a><rect class="l" x="137" y="275" width="25" height="25" rx="7"/><text class="j" x="147" y="292">[</text><a xlink:href="#symbol:element"><rect class="r" x="172" y="275" width="120" height="25"/><text class="j" x="182" y="292">symbol:element</text></a><a xlink:href="#vector"><rect class="r" x="302" y="275" width="59" height="25"/><text class="j" x="312" y="292">vector</text></a><rect class="l" x="371" y="275" width="25" height="25" rx="7"/><text class="j" x="381" y="292">]</text><a xlink:href="#value-expression"><rect class="r" x="406" y="275" width="128" height="25"/><text class="j" x="416" y="292">value-expression</text></a><rect class="l" x="544" y="275" width="25" height="25" rx="7"/><text class="j" x="554" y="292">)</text><rect class="l" x="579" y="275" width="28" height="25" rx="7"/><text class="j" x="589" y="292">»</text><a xlink:href="#vector"><rect class="r" x="617" y="275" width="59" height="25"/><text class="j" x="627" y="292">vector</text></a><rect class="l" x="25" y="305" width="25" height="25" rx="7"/><text class="j" x="35" y="322">(</text><rect class="l" x="60" y="305" width="57" height="25" rx="7"/><text class="j" x="70" y="322">range</text><a xlink:href="#integer:start"><rect class="r" x="147" y="305" width="100" height="25"/><text class="j" x="157" y="322">integer:start</text></a><a xlink:href="#integer:end"><rect class="r" x="277" y="305" width="94" height="25"/><text class="j" x="287" y="322">integer:end</text></a><a xlink:href="#integer:increment"><rect class="r" x="401" y="305" width="132" height="25"/><text class="j" x="411" y="322">integer:increment</text></a><rect class="l" x="563" y="305" width="25" height="25" rx="7"/><text class="j" x="573" y="322">)</text><rect class="l" x="598" y="305" width="28" height="25" rx="7"/><text class="j" x="608" y="322">»</text><a xlink:href="#vector"><rect class="r" x="636" y="305" width="59" height="25"/><text class="j" x="646" y="322">vector</text></a><rect class="l" x="25" y="350" width="25" height="25" rx="7"/><text class="j" x="35" y="367">(</text><rect class="l" x="60" y="350" width="45" height="25" rx="7"/><text class="j" x="70" y="367">rest</text><a xlink:href="#vector"><rect class="r" x="115" y="350" width="59" height="25"/><text class="j" x="125" y="367">vector</text></a><rect class="l" x="184" y="350" width="25" height="25" rx="7"/><text class="j" x="194" y="367">)</text><rect class="l" x="219" y="350" width="28" height="25" rx="7"/><text class="j" x="229" y="367">»</text><a xlink:href="#vector"><rect class="r" x="257" y="350" width="59" height="25"/><text class="j" x="267" y="367">vector</text></a><rect class="l" x="25" y="380" width="25" height="25" rx="7"/><text class="j" x="35" y="397">(</text><rect class="l" x="60" y="380" width="45" height="25" rx="7"/><text class="j" x="70" y="397">sort</text><a xlink:href="#set"><rect class="r" x="135" y="380" width="40" height="25"/><text class="j" x="145" y="397">set</text></a><a xlink:href="#vector"><rect class="r" x="135" y="410" width="59" height="25"/><text class="j" x="145" y="427">vector</text></a><rect class="l" x="224" y="380" width="25" height="25" rx="7"/><text class="j" x="234" y="397">)</text><rect class="l" x="259" y="380" width="28" height="25" rx="7"/><text class="j" x="269" y="397">»</text><a xlink:href="#vector"><rect class="r" x="297" y="380" width="59" height="25"/><text class="j" x="307" y="397">vector</text></a><rect class="l" x="25" y="440" width="25" height="25" rx="7"/><text class="j" x="35" y="457">(</text><rect class="l" x="60" y="440" width="65" height="25" rx="7"/><text class="j" x="70" y="457">sort-by</text><rect class="l" x="135" y="440" width="25" height="25" rx="7"/><text class="j" x="145" y="457">[</text><a xlink:href="#symbol:element"><rect class="r" x="170" y="440" width="120" height="25"/><text class="j" x="180" y="457">symbol:element</text></a><a xlink:href="#set"><rect class="r" x="320" y="440" width="40" height="25"/><text class="j" x="330" y="457">set</text></a><a xlink:href="#vector"><rect class="r" x="320" y="470" width="59" height="25"/><text class="j" x="330" y="487">vector</text></a><rect class="l" x="409" y="440" width="25" height="25" rx="7"/><text class="j" x="419" y="457">]</text><a xlink:href="#integer-expression"><rect class="r" x="464" y="440" width="139" height="25"/><text class="j" x="474" y="457">integer-expression</text></a><a xlink:href="#fixed-decimal-expression"><rect class="r" x="464" y="470" width="176" height="25"/><text class="j" x="474" y="487">fixed-decimal-expression</text></a><rect class="l" x="670" y="440" width="25" height="25" rx="7"/><text class="j" x="680" y="457">)</text><rect class="l" x="705" y="440" width="28" height="25" rx="7"/><text class="j" x="715" y="457">»</text><a xlink:href="#vector"><rect class="r" x="743" y="440" width="59" height="25"/><text class="j" x="753" y="457">vector</text></a></svg>