<svg version="1.1" xmlns:xlink="http://www.w3.org/1999/xlink" xmlns="http://www.w3.org/2000/svg" width="1039" height="935" viewbox="0 0 1039 935"><defs><style type="text/css">.c{fill: none; stroke: #888888; stroke-width: 2px;}.j{fill:#000000;font-family:Verdana,Sans-serif;font-size:12px;}.l{fill:#90d9ff;stroke:#222222;}.r{fill:#d3f0ff;stroke:#222222;}</style></defs><path class="c" d="M0 33h25m25 0h10m30 0h10m52 0h30m-5 0q-5 0-5-5v-17q0-5 5-5h62q5 0 5 5v17q0 5-5 5m-5 0h30m25 0h10m28 0h10m66 0h631m-1019 25q0 5 5 5h5m25 0h10m49 0h10m25 0h10m62 0h30m38 0h39m-92 0q5 0 5 5v20q0 5 5 5h5m57 0h5q5 0 5-5v-20q0-5 5-5m5 0h10m25 0h10m134 0h10m25 0h10m28 0h10m66 0h368q5 0 5-5m-1009 60q0 5 5 5h5m25 0h10m59 0h30m57 0h10m57 0h10m25 0h10m28 0h10m57 0h22m-301 0q5 0 5 5v20q0 5 5 5h5m38 0h30m38 0h39m-92 0q5 0 5 5v20q0 5 5 5h5m57 0h5q5 0 5-5v-20q0-5 5-5m5 0h10m25 0h10m28 0h10m38 0h5q5 0 5-5v-20q0-5 5-5m5 0h584q5 0 5-5m-1009 105q0 5 5 5h5m25 0h10m45 0h30m38 0h30m-5 0q-5 0-5-5v-17q0-5 5-5h62q5 0 5 5v17q0 5-5 5m-5 0h30m25 0h10m28 0h10m38 0h58m-334 0q5 0 5 5v35q0 5 5 5h5m57 0h30m-5 0q-5 0-5-5v-17q0-5 5-5h62q5 0 5 5v17q0 5-5 5m-5 0h30m25 0h10m28 0h10m57 0h5q5 0 5-5v-35q0-5 5-5m5 0h565q5 0 5-5m-1009 75q0 5 5 5h5m25 0h10m54 0h30m38 0h39m-92 0q5 0 5 5v20q0 5 5 5h5m57 0h5q5 0 5-5v-20q0-5 5-5m5 0h10m25 0h10m28 0h10m62 0h653q5 0 5-5m-1009 60q0 5 5 5h5m25 0h10m60 0h10m25 0h10m62 0h30m38 0h39m-92 0q5 0 5 5v20q0 5 5 5h5m57 0h5q5 0 5-5v-20q0-5 5-5m5 0h10m25 0h10m134 0h10m25 0h10m28 0h10m66 0h357q5 0 5-5m-1009 60q0 5 5 5h5m25 0h10m47 0h30m25 0h10m116 0h10m38 0h10m25 0h10m134 0h10m25 0h10m28 0h10m38 0h58m-572 0q5 0 5 5v20q0 5 5 5h5m25 0h10m116 0h10m57 0h10m25 0h10m134 0h10m25 0h10m28 0h10m57 0h5q5 0 5-5v-20q0-5 5-5m5 0h325q5 0 5-5m-1009 60q0 5 5 5h5m25 0h10m43 0h10m57 0h10m25 0h10m28 0h10m52 0h714q5 0 5-5m-1009 30q0 5 5 5h5m25 0h10m39 0h30m70 0h10m154 0h10m25 0h10m28 0h10m42 0h20m-394 0q5 0 5 5v20q0 5 5 5h5m57 0h10m62 0h10m25 0h10m28 0h10m52 0h100q5 0 5-5v-20q0-5 5-5m5 0h511q5 0 5-5m-1009 75q0 5 5 5h5m25 0h10m55 0h30m111 0h20m-146 0q5 0 5 5v20q0 5 5 5h5m98 0h18q5 0 5-5v-20q0-5 5-5m5 0h10m25 0h30m62 0h112m-189 0q5 0 5 5v20q0 5 5 5h5m154 0h5q5 0 5-5v-20q0-5 5-5m5 0h50m-5 0q-5 0-5-5v-17q0-5 5-5h204q5 0 5 5v17q0 5-5 5m-199 0h20m62 0h112m-189 0q5 0 5 5v20q0 5 5 5h5m154 0h5q5 0 5-5v-20q0-5 5-5m5 0h40m-269 0q5 0 5 5v38q0 5 5 5h244q5 0 5-5v-38q0-5 5-5m5 0h10m25 0h10m25 0h10m28 0h10m42 0h60q5 0 5-5m-1009 75q0 5 5 5h5m25 0h10m46 0h30m25 0h10m116 0h10m38 0h10m25 0h10m120 0h10m25 0h10m28 0h10m38 0h58m-558 0q5 0 5 5v20q0 5 5 5h5m25 0h10m116 0h10m57 0h10m25 0h10m120 0h10m25 0h10m28 0h10m57 0h5q5 0 5-5v-20q0-5 5-5m5 0h340q5 0 5-5m-1009 75q0 5 5 5h5m25 0h10m50 0h10m52 0h30m-5 0q-5 0-5-5v-17q0-5 5-5h62q5 0 5 5v17q0 5-5 5m-5 0h30m25 0h10m28 0h10m66 0h596q5 0 5-5m-1009 30q0 5 5 5h5m25 0h10m60 0h10m25 0h10m141 0h10m155 0h10m25 0h10m25 0h10m116 0h10m57 0h10m25 0h10m110 0h10m25 0h10m28 0h10m42 0h5q5 0 5-5m-1009 30q0 5 5 5h5m25 0h10m43 0h10m57 0h10m25 0h10m28 0h10m57 0h709q5 0 5-5m-1009 30q0 5 5 5h5m25 0h10m43 0h30m38 0h39m-92 0q5 0 5 5v20q0 5 5 5h5m57 0h5q5 0 5-5v-20q0-5 5-5m5 0h10m25 0h10m28 0h10m57 0h669q5 0 5-5m-1014-790q5 0 5 5v845q0 5 5 5h5m25 0h10m62 0h10m25 0h10m116 0h30m38 0h39m-92 0q5 0 5 5v20q0 5 5 5h5m57 0h5q5 0 5-5v-20q0-5 5-5m5 0h10m25 0h30m130 0h56m-201 0q5 0 5 5v20q0 5 5 5h5m166 0h5q5 0 5-5v-20q0-5 5-5m5 0h10m25 0h10m28 0h10m57 0h238q5 0 5-5v-845q0-5 5-5m5 0h5"/><rect class="l" x="25" y="20" width="25" height="25" rx="7"/><text class="j" x="35" y="37">(</text><rect class="l" x="60" y="20" width="30" height="25" rx="7"/><text class="j" x="70" y="37">=</text><a xlink:href="#value"><rect class="r" x="100" y="20" width="52" height="25"/><text class="j" x="110" y="37">value</text></a><a xlink:href="#value"><rect class="r" x="182" y="20" width="52" height="25"/><text class="j" x="192" y="37">value</text></a><rect class="l" x="264" y="20" width="25" height="25" rx="7"/><text class="j" x="274" y="37">)</text><rect class="l" x="299" y="20" width="28" height="25" rx="7"/><text class="j" x="309" y="37">»</text><a xlink:href="#boolean"><rect class="r" x="337" y="20" width="66" height="25"/><text class="j" x="347" y="37">boolean</text></a><rect class="l" x="25" y="50" width="25" height="25" rx="7"/><text class="j" x="35" y="67">(</text><rect class="l" x="60" y="50" width="49" height="25" rx="7"/><text class="j" x="70" y="67">any?</text><rect class="l" x="119" y="50" width="25" height="25" rx="7"/><text class="j" x="129" y="67">[</text><a xlink:href="#symbol"><rect class="r" x="154" y="50" width="62" height="25"/><text class="j" x="164" y="67">symbol</text></a><a xlink:href="#set"><rect class="r" x="246" y="50" width="38" height="25"/><text class="j" x="256" y="67">set</text></a><a xlink:href="#vector"><rect class="r" x="246" y="80" width="57" height="25"/><text class="j" x="256" y="97">vector</text></a><rect class="l" x="333" y="50" width="25" height="25" rx="7"/><text class="j" x="343" y="67">]</text><a xlink:href="#boolean-expression"><rect class="r" x="368" y="50" width="134" height="25"/><text class="j" x="378" y="67">boolean-expression</text></a><rect class="l" x="512" y="50" width="25" height="25" rx="7"/><text class="j" x="522" y="67">)</text><rect class="l" x="547" y="50" width="28" height="25" rx="7"/><text class="j" x="557" y="67">»</text><a xlink:href="#boolean"><rect class="r" x="585" y="50" width="66" height="25"/><text class="j" x="595" y="67">boolean</text></a><rect class="l" x="25" y="110" width="25" height="25" rx="7"/><text class="j" x="35" y="127">(</text><rect class="l" x="60" y="110" width="59" height="25" rx="7"/><text class="j" x="70" y="127">concat</text><a xlink:href="#vector"><rect class="r" x="149" y="110" width="57" height="25"/><text class="j" x="159" y="127">vector</text></a><a xlink:href="#vector"><rect class="r" x="216" y="110" width="57" height="25"/><text class="j" x="226" y="127">vector</text></a><rect class="l" x="283" y="110" width="25" height="25" rx="7"/><text class="j" x="293" y="127">)</text><rect class="l" x="318" y="110" width="28" height="25" rx="7"/><text class="j" x="328" y="127">»</text><a xlink:href="#vector"><rect class="r" x="356" y="110" width="57" height="25"/><text class="j" x="366" y="127">vector</text></a><a xlink:href="#set"><rect class="r" x="149" y="140" width="38" height="25"/><text class="j" x="159" y="157">set</text></a><a xlink:href="#set"><rect class="r" x="217" y="140" width="38" height="25"/><text class="j" x="227" y="157">set</text></a><a xlink:href="#vector"><rect class="r" x="217" y="170" width="57" height="25"/><text class="j" x="227" y="187">vector</text></a><rect class="l" x="304" y="140" width="25" height="25" rx="7"/><text class="j" x="314" y="157">)</text><rect class="l" x="339" y="140" width="28" height="25" rx="7"/><text class="j" x="349" y="157">»</text><a xlink:href="#set"><rect class="r" x="377" y="140" width="38" height="25"/><text class="j" x="387" y="157">set</text></a><rect class="l" x="25" y="215" width="25" height="25" rx="7"/><text class="j" x="35" y="232">(</text><rect class="l" x="60" y="215" width="45" height="25" rx="7"/><text class="j" x="70" y="232">conj</text><a xlink:href="#set"><rect class="r" x="135" y="215" width="38" height="25"/><text class="j" x="145" y="232">set</text></a><a xlink:href="#value"><rect class="r" x="203" y="215" width="52" height="25"/><text class="j" x="213" y="232">value</text></a><rect class="l" x="285" y="215" width="25" height="25" rx="7"/><text class="j" x="295" y="232">)</text><rect class="l" x="320" y="215" width="28" height="25" rx="7"/><text class="j" x="330" y="232">»</text><a xlink:href="#set"><rect class="r" x="358" y="215" width="38" height="25"/><text class="j" x="368" y="232">set</text></a><a xlink:href="#vector"><rect class="r" x="135" y="260" width="57" height="25"/><text class="j" x="145" y="277">vector</text></a><a xlink:href="#value"><rect class="r" x="222" y="260" width="52" height="25"/><text class="j" x="232" y="277">value</text></a><rect class="l" x="304" y="260" width="25" height="25" rx="7"/><text class="j" x="314" y="277">)</text><rect class="l" x="339" y="260" width="28" height="25" rx="7"/><text class="j" x="349" y="277">»</text><a xlink:href="#vector"><rect class="r" x="377" y="260" width="57" height="25"/><text class="j" x="387" y="277">vector</text></a><rect class="l" x="25" y="290" width="25" height="25" rx="7"/><text class="j" x="35" y="307">(</text><rect class="l" x="60" y="290" width="54" height="25" rx="7"/><text class="j" x="70" y="307">count</text><a xlink:href="#set"><rect class="r" x="144" y="290" width="38" height="25"/><text class="j" x="154" y="307">set</text></a><a xlink:href="#vector"><rect class="r" x="144" y="320" width="57" height="25"/><text class="j" x="154" y="337">vector</text></a><rect class="l" x="231" y="290" width="25" height="25" rx="7"/><text class="j" x="241" y="307">)</text><rect class="l" x="266" y="290" width="28" height="25" rx="7"/><text class="j" x="276" y="307">»</text><a xlink:href="#integer"><rect class="r" x="304" y="290" width="62" height="25"/><text class="j" x="314" y="307">integer</text></a><rect class="l" x="25" y="350" width="25" height="25" rx="7"/><text class="j" x="35" y="367">(</text><rect class="l" x="60" y="350" width="60" height="25" rx="7"/><text class="j" x="70" y="367">every?</text><rect class="l" x="130" y="350" width="25" height="25" rx="7"/><text class="j" x="140" y="367">[</text><a xlink:href="#symbol"><rect class="r" x="165" y="350" width="62" height="25"/><text class="j" x="175" y="367">symbol</text></a><a xlink:href="#set"><rect class="r" x="257" y="350" width="38" height="25"/><text class="j" x="267" y="367">set</text></a><a xlink:href="#vector"><rect class="r" x="257" y="380" width="57" height="25"/><text class="j" x="267" y="397">vector</text></a><rect class="l" x="344" y="350" width="25" height="25" rx="7"/><text class="j" x="354" y="367">]</text><a xlink:href="#boolean-expression"><rect class="r" x="379" y="350" width="134" height="25"/><text class="j" x="389" y="367">boolean-expression</text></a><rect class="l" x="523" y="350" width="25" height="25" rx="7"/><text class="j" x="533" y="367">)</text><rect class="l" x="558" y="350" width="28" height="25" rx="7"/><text class="j" x="568" y="367">»</text><a xlink:href="#boolean"><rect class="r" x="596" y="350" width="66" height="25"/><text class="j" x="606" y="367">boolean</text></a><rect class="l" x="25" y="410" width="25" height="25" rx="7"/><text class="j" x="35" y="427">(</text><rect class="l" x="60" y="410" width="47" height="25" rx="7"/><text class="j" x="70" y="427">filter</text><rect class="l" x="137" y="410" width="25" height="25" rx="7"/><text class="j" x="147" y="427">[</text><a xlink:href="#symbol:element"><rect class="r" x="172" y="410" width="116" height="25"/><text class="j" x="182" y="427">symbol:element</text></a><a xlink:href="#set"><rect class="r" x="298" y="410" width="38" height="25"/><text class="j" x="308" y="427">set</text></a><rect class="l" x="346" y="410" width="25" height="25" rx="7"/><text class="j" x="356" y="427">]</text><a xlink:href="#boolean-expression"><rect class="r" x="381" y="410" width="134" height="25"/><text class="j" x="391" y="427">boolean-expression</text></a><rect class="l" x="525" y="410" width="25" height="25" rx="7"/><text class="j" x="535" y="427">)</text><rect class="l" x="560" y="410" width="28" height="25" rx="7"/><text class="j" x="570" y="427">»</text><a xlink:href="#set"><rect class="r" x="598" y="410" width="38" height="25"/><text class="j" x="608" y="427">set</text></a><rect class="l" x="137" y="440" width="25" height="25" rx="7"/><text class="j" x="147" y="457">[</text><a xlink:href="#symbol:element"><rect class="r" x="172" y="440" width="116" height="25"/><text class="j" x="182" y="457">symbol:element</text></a><a xlink:href="#vector"><rect class="r" x="298" y="440" width="57" height="25"/><text class="j" x="308" y="457">vector</text></a><rect class="l" x="365" y="440" width="25" height="25" rx="7"/><text class="j" x="375" y="457">]</text><a xlink:href="#boolean-expression"><rect class="r" x="400" y="440" width="134" height="25"/><text class="j" x="410" y="457">boolean-expression</text></a><rect class="l" x="544" y="440" width="25" height="25" rx="7"/><text class="j" x="554" y="457">)</text><rect class="l" x="579" y="440" width="28" height="25" rx="7"/><text class="j" x="589" y="457">»</text><a xlink:href="#vector"><rect class="r" x="617" y="440" width="57" height="25"/><text class="j" x="627" y="457">vector</text></a><rect class="l" x="25" y="470" width="25" height="25" rx="7"/><text class="j" x="35" y="487">(</text><rect class="l" x="60" y="470" width="43" height="25" rx="7"/><text class="j" x="70" y="487">first</text><a xlink:href="#vector"><rect class="r" x="113" y="470" width="57" height="25"/><text class="j" x="123" y="487">vector</text></a><rect class="l" x="180" y="470" width="25" height="25" rx="7"/><text class="j" x="190" y="487">)</text><rect class="l" x="215" y="470" width="28" height="25" rx="7"/><text class="j" x="225" y="487">»</text><a xlink:href="#value"><rect class="r" x="253" y="470" width="52" height="25"/><text class="j" x="263" y="487">value</text></a><rect class="l" x="25" y="500" width="25" height="25" rx="7"/><text class="j" x="35" y="517">(</text><rect class="l" x="60" y="500" width="39" height="25" rx="7"/><text class="j" x="70" y="517">get</text><a xlink:href="#instance"><rect class="r" x="129" y="500" width="70" height="25"/><text class="j" x="139" y="517">instance</text></a><a xlink:href="#keyword:instance-field"><rect class="r" x="209" y="500" width="154" height="25"/><text class="j" x="219" y="517">keyword:instance-field</text></a><rect class="l" x="373" y="500" width="25" height="25" rx="7"/><text class="j" x="383" y="517">)</text><rect class="l" x="408" y="500" width="28" height="25" rx="7"/><text class="j" x="418" y="517">»</text><a xlink:href="#any"><rect class="r" x="446" y="500" width="42" height="25"/><text class="j" x="456" y="517">any</text></a><a xlink:href="#vector"><rect class="r" x="129" y="530" width="57" height="25"/><text class="j" x="139" y="547">vector</text></a><a xlink:href="#integer"><rect class="r" x="196" y="530" width="62" height="25"/><text class="j" x="206" y="547">integer</text></a><rect class="l" x="268" y="530" width="25" height="25" rx="7"/><text class="j" x="278" y="547">)</text><rect class="l" x="303" y="530" width="28" height="25" rx="7"/><text class="j" x="313" y="547">»</text><a xlink:href="#value"><rect class="r" x="341" y="530" width="52" height="25"/><text class="j" x="351" y="547">value</text></a><rect class="l" x="25" y="575" width="25" height="25" rx="7"/><text class="j" x="35" y="592">(</text><rect class="l" x="60" y="575" width="55" height="25" rx="7"/><text class="j" x="70" y="592">get-in</text><a xlink:href="#instance:target"><rect class="r" x="145" y="575" width="111" height="25"/><text class="j" x="155" y="592">instance:target</text></a><a xlink:href="#vector:target"><rect class="r" x="145" y="605" width="98" height="25"/><text class="j" x="155" y="622">vector:target</text></a><rect class="l" x="286" y="575" width="25" height="25" rx="7"/><text class="j" x="296" y="592">[</text><a xlink:href="#integer"><rect class="r" x="341" y="575" width="62" height="25"/><text class="j" x="351" y="592">integer</text></a><a xlink:href="#keyword:instance-field"><rect class="r" x="341" y="605" width="154" height="25"/><text class="j" x="351" y="622">keyword:instance-field</text></a><a xlink:href="#integer"><rect class="r" x="585" y="575" width="62" height="25"/><text class="j" x="595" y="592">integer</text></a><a xlink:href="#keyword:instance-field"><rect class="r" x="585" y="605" width="154" height="25"/><text class="j" x="595" y="622">keyword:instance-field</text></a><rect class="l" x="809" y="575" width="25" height="25" rx="7"/><text class="j" x="819" y="592">]</text><rect class="l" x="844" y="575" width="25" height="25" rx="7"/><text class="j" x="854" y="592">)</text><rect class="l" x="879" y="575" width="28" height="25" rx="7"/><text class="j" x="889" y="592">»</text><a xlink:href="#any"><rect class="r" x="917" y="575" width="42" height="25"/><text class="j" x="927" y="592">any</text></a><rect class="l" x="25" y="650" width="25" height="25" rx="7"/><text class="j" x="35" y="667">(</text><rect class="l" x="60" y="650" width="46" height="25" rx="7"/><text class="j" x="70" y="667">map</text><rect class="l" x="136" y="650" width="25" height="25" rx="7"/><text class="j" x="146" y="667">[</text><a xlink:href="#symbol:element"><rect class="r" x="171" y="650" width="116" height="25"/><text class="j" x="181" y="667">symbol:element</text></a><a xlink:href="#set"><rect class="r" x="297" y="650" width="38" height="25"/><text class="j" x="307" y="667">set</text></a><rect class="l" x="345" y="650" width="25" height="25" rx="7"/><text class="j" x="355" y="667">]</text><a xlink:href="#value-expression"><rect class="r" x="380" y="650" width="120" height="25"/><text class="j" x="390" y="667">value-expression</text></a><rect class="l" x="510" y="650" width="25" height="25" rx="7"/><text class="j" x="520" y="667">)</text><rect class="l" x="545" y="650" width="28" height="25" rx="7"/><text class="j" x="555" y="667">»</text><a xlink:href="#set"><rect class="r" x="583" y="650" width="38" height="25"/><text class="j" x="593" y="667">set</text></a><rect class="l" x="136" y="680" width="25" height="25" rx="7"/><text class="j" x="146" y="697">[</text><a xlink:href="#symbol:element"><rect class="r" x="171" y="680" width="116" height="25"/><text class="j" x="181" y="697">symbol:element</text></a><a xlink:href="#vector"><rect class="r" x="297" y="680" width="57" height="25"/><text class="j" x="307" y="697">vector</text></a><rect class="l" x="364" y="680" width="25" height="25" rx="7"/><text class="j" x="374" y="697">]</text><a xlink:href="#value-expression"><rect class="r" x="399" y="680" width="120" height="25"/><text class="j" x="409" y="697">value-expression</text></a><rect class="l" x="529" y="680" width="25" height="25" rx="7"/><text class="j" x="539" y="697">)</text><rect class="l" x="564" y="680" width="28" height="25" rx="7"/><text class="j" x="574" y="697">»</text><a xlink:href="#vector"><rect class="r" x="602" y="680" width="57" height="25"/><text class="j" x="612" y="697">vector</text></a><rect class="l" x="25" y="725" width="25" height="25" rx="7"/><text class="j" x="35" y="742">(</text><rect class="l" x="60" y="725" width="50" height="25" rx="7"/><text class="j" x="70" y="742">not=</text><a xlink:href="#value"><rect class="r" x="120" y="725" width="52" height="25"/><text class="j" x="130" y="742">value</text></a><a xlink:href="#value"><rect class="r" x="202" y="725" width="52" height="25"/><text class="j" x="212" y="742">value</text></a><rect class="l" x="284" y="725" width="25" height="25" rx="7"/><text class="j" x="294" y="742">)</text><rect class="l" x="319" y="725" width="28" height="25" rx="7"/><text class="j" x="329" y="742">»</text><a xlink:href="#boolean"><rect class="r" x="357" y="725" width="66" height="25"/><text class="j" x="367" y="742">boolean</text></a><rect class="l" x="25" y="755" width="25" height="25" rx="7"/><text class="j" x="35" y="772">(</text><rect class="l" x="60" y="755" width="60" height="25" rx="7"/><text class="j" x="70" y="772">reduce</text><rect class="l" x="130" y="755" width="25" height="25" rx="7"/><text class="j" x="140" y="772">[</text><a xlink:href="#symbol:accumulator"><rect class="r" x="165" y="755" width="141" height="25"/><text class="j" x="175" y="772">symbol:accumulator</text></a><a xlink:href="#value:accumulator-init"><rect class="r" x="316" y="755" width="155" height="25"/><text class="j" x="326" y="772">value:accumulator-init</text></a><rect class="l" x="481" y="755" width="25" height="25" rx="7"/><text class="j" x="491" y="772">]</text><rect class="l" x="516" y="755" width="25" height="25" rx="7"/><text class="j" x="526" y="772">[</text><a xlink:href="#symbol:element"><rect class="r" x="551" y="755" width="116" height="25"/><text class="j" x="561" y="772">symbol:element</text></a><a xlink:href="#vector"><rect class="r" x="677" y="755" width="57" height="25"/><text class="j" x="687" y="772">vector</text></a><rect class="l" x="744" y="755" width="25" height="25" rx="7"/><text class="j" x="754" y="772">]</text><a xlink:href="#any-expression"><rect class="r" x="779" y="755" width="110" height="25"/><text class="j" x="789" y="772">any-expression</text></a><rect class="l" x="899" y="755" width="25" height="25" rx="7"/><text class="j" x="909" y="772">)</text><rect class="l" x="934" y="755" width="28" height="25" rx="7"/><text class="j" x="944" y="772">»</text><a xlink:href="#any"><rect class="r" x="972" y="755" width="42" height="25"/><text class="j" x="982" y="772">any</text></a><rect class="l" x="25" y="785" width="25" height="25" rx="7"/><text class="j" x="35" y="802">(</text><rect class="l" x="60" y="785" width="43" height="25" rx="7"/><text class="j" x="70" y="802">rest</text><a xlink:href="#vector"><rect class="r" x="113" y="785" width="57" height="25"/><text class="j" x="123" y="802">vector</text></a><rect class="l" x="180" y="785" width="25" height="25" rx="7"/><text class="j" x="190" y="802">)</text><rect class="l" x="215" y="785" width="28" height="25" rx="7"/><text class="j" x="225" y="802">»</text><a xlink:href="#vector"><rect class="r" x="253" y="785" width="57" height="25"/><text class="j" x="263" y="802">vector</text></a><rect class="l" x="25" y="815" width="25" height="25" rx="7"/><text class="j" x="35" y="832">(</text><rect class="l" x="60" y="815" width="43" height="25" rx="7"/><text class="j" x="70" y="832">sort</text><a xlink:href="#set"><rect class="r" x="133" y="815" width="38" height="25"/><text class="j" x="143" y="832">set</text></a><a xlink:href="#vector"><rect class="r" x="133" y="845" width="57" height="25"/><text class="j" x="143" y="862">vector</text></a><rect class="l" x="220" y="815" width="25" height="25" rx="7"/><text class="j" x="230" y="832">)</text><rect class="l" x="255" y="815" width="28" height="25" rx="7"/><text class="j" x="265" y="832">»</text><a xlink:href="#vector"><rect class="r" x="293" y="815" width="57" height="25"/><text class="j" x="303" y="832">vector</text></a><rect class="l" x="25" y="875" width="25" height="25" rx="7"/><text class="j" x="35" y="892">(</text><rect class="l" x="60" y="875" width="62" height="25" rx="7"/><text class="j" x="70" y="892">sort-by</text><rect class="l" x="132" y="875" width="25" height="25" rx="7"/><text class="j" x="142" y="892">[</text><a xlink:href="#symbol:element"><rect class="r" x="167" y="875" width="116" height="25"/><text class="j" x="177" y="892">symbol:element</text></a><a xlink:href="#set"><rect class="r" x="313" y="875" width="38" height="25"/><text class="j" x="323" y="892">set</text></a><a xlink:href="#vector"><rect class="r" x="313" y="905" width="57" height="25"/><text class="j" x="323" y="922">vector</text></a><rect class="l" x="400" y="875" width="25" height="25" rx="7"/><text class="j" x="410" y="892">]</text><a xlink:href="#integer-expression"><rect class="r" x="455" y="875" width="130" height="25"/><text class="j" x="465" y="892">integer-expression</text></a><a xlink:href="#fixed-decimal-expression"><rect class="r" x="455" y="905" width="166" height="25"/><text class="j" x="465" y="922">fixed-decimal-expression</text></a><rect class="l" x="651" y="875" width="25" height="25" rx="7"/><text class="j" x="661" y="892">)</text><rect class="l" x="686" y="875" width="28" height="25" rx="7"/><text class="j" x="696" y="892">»</text><a xlink:href="#vector"><rect class="r" x="724" y="875" width="57" height="25"/><text class="j" x="734" y="892">vector</text></a></svg>