<svg version="1.1" xmlns:xlink="http://www.w3.org/1999/xlink" xmlns="http://www.w3.org/2000/svg" width="786" height="513" viewbox="0 0 786 513"><defs><style type="text/css">.c{fill: none; stroke: #888888; stroke-width: 3pt;}.i{fill:#000000;font-family:Dialog,Sans-serif;font-size:12px;}.l{fill:#90d9ff;stroke:#222222;}.r{fill:#d3f0ff;stroke:#222222;}</style></defs><path class="c" d="M0 21h25m59 0h10m24 0h10m63 0h10m25 0h10m59 0h10m25 0h10m27 0h10m59 0h345m-766 24q0 5 5 5h5m40 0h10m24 0h10m63 0h10m25 0h30m40 0h39m-94 0q5 0 5 5v19q0 5 5 5h5m59 0h5q5 0 5-5v-19q0-5 5-5m5 0h10m25 0h10m27 0h10m40 0h328q5 0 5-5m-756 87q0 5 5 5h5m40 0h10m24 0h10m46 0h10m25 0h30m-5 0q-5 0-5-5v-19q0-5 5-5h19m24 0h20q5 0 5 5v19q0 5-5 5m-5 0h30m25 0h10m27 0h10m40 0h351q5 0 5-5m-756 58q0 5 5 5h5m59 0h10m24 0h10m46 0h10m25 0h30m-5 0q-5 0-5-5v-19q0-5 5-5h19m24 0h20q5 0 5 5v19q0 5-5 5m-5 0h30m25 0h10m27 0h10m59 0h313q5 0 5-5m-756 29q0 5 5 5h5m48 0h10m25 0h10m63 0h10m31 0h10m40 0h10m25 0h10m143 0h10m27 0h10m40 0h219q5 0 5-5m-756 29q0 5 5 5h5m48 0h10m25 0h10m63 0h10m31 0h10m59 0h10m25 0h10m143 0h10m27 0h10m59 0h181q5 0 5-5m-756 29q0 5 5 5h5m47 0h10m25 0h10m118 0h10m31 0h10m40 0h10m25 0h10m125 0h10m27 0h10m40 0h183q5 0 5-5m-756 29q0 5 5 5h5m47 0h10m25 0h10m118 0h10m31 0h10m59 0h10m25 0h10m125 0h10m27 0h10m59 0h145q5 0 5-5m-756 29q0 5 5 5h5m57 0h10m25 0h30m99 0h10m24 0h20m-168 0q5 0 5 5v8q0 5 5 5h143q5 0 5-5v-8q0-5 5-5m5 0h10m93 0h30m24 0h10m132 0h20m-201 0q5 0 5 5v8q0 5 5 5h176q5 0 5-5v-8q0-5 5-5m5 0h10m25 0h10m27 0h10m59 0h6q5 0 5-5m-756 44q0 5 5 5h5m59 0h10m24 0h10m55 0h10m27 0h10m59 0h477q5 0 5-5m-756 29q0 5 5 5h25m40 0h39m-94 0q5 0 5 5v19q0 5 5 5h5m59 0h5q5 0 5-5v-19q0-5 5-5m5 0h10m24 0h10m55 0h10m27 0h10m59 0h437q5 0 5-5m-761-387q5 0 5 5v440q0 5 5 5h5m59 0h10m25 0h10m118 0h10m31 0h30m40 0h39m-94 0q5 0 5 5v19q0 5 5 5h5m59 0h5q5 0 5-5v-19q0-5 5-5m5 0h10m25 0h30m137 0h56m-208 0q5 0 5 5v19q0 5 5 5h5m173 0h5q5 0 5-5v-19q0-5 5-5m5 0h10m27 0h10m59 0h5q5 0 5-5v-440q0-5 5-5m5 0h5"/><a xlink:href="#vector"><rect class="r" x="25" y="5" width="59" height="24"/><text class="i" x="35" y="21">vector</text></a><rect class="l" x="94" y="5" width="24" height="24" rx="7"/><text class="i" x="104" y="21">.</text><rect class="l" x="128" y="5" width="63" height="24" rx="7"/><text class="i" x="138" y="21">concat</text><rect class="l" x="201" y="5" width="25" height="24" rx="7"/><text class="i" x="211" y="21">(</text><a xlink:href="#vector"><rect class="r" x="236" y="5" width="59" height="24"/><text class="i" x="246" y="21">vector</text></a><rect class="l" x="305" y="5" width="25" height="24" rx="7"/><text class="i" x="315" y="21">)</text><rect class="l" x="340" y="5" width="27" height="24" rx="7"/><text class="i" x="350" y="21">»</text><a xlink:href="#vector"><rect class="r" x="377" y="5" width="59" height="24"/><text class="i" x="387" y="21">vector</text></a><a xlink:href="#set"><rect class="r" x="25" y="34" width="40" height="24"/><text class="i" x="35" y="50">set</text></a><rect class="l" x="75" y="34" width="24" height="24" rx="7"/><text class="i" x="85" y="50">.</text><rect class="l" x="109" y="34" width="63" height="24" rx="7"/><text class="i" x="119" y="50">concat</text><rect class="l" x="182" y="34" width="25" height="24" rx="7"/><text class="i" x="192" y="50">(</text><a xlink:href="#set"><rect class="r" x="237" y="34" width="40" height="24"/><text class="i" x="247" y="50">set</text></a><a xlink:href="#vector"><rect class="r" x="237" y="63" width="59" height="24"/><text class="i" x="247" y="79">vector</text></a><rect class="l" x="326" y="34" width="25" height="24" rx="7"/><text class="i" x="336" y="50">)</text><rect class="l" x="361" y="34" width="27" height="24" rx="7"/><text class="i" x="371" y="50">»</text><a xlink:href="#set"><rect class="r" x="398" y="34" width="40" height="24"/><text class="i" x="408" y="50">set</text></a><a xlink:href="#set"><rect class="r" x="25" y="121" width="40" height="24"/><text class="i" x="35" y="137">set</text></a><rect class="l" x="75" y="121" width="24" height="24" rx="7"/><text class="i" x="85" y="137">.</text><rect class="l" x="109" y="121" width="46" height="24" rx="7"/><text class="i" x="119" y="137">conj</text><rect class="l" x="165" y="121" width="25" height="24" rx="7"/><text class="i" x="175" y="137">(</text><rect class="l" x="234" y="92" width="24" height="24" rx="7"/><text class="i" x="244" y="108">,</text><a xlink:href="#value"><rect class="r" x="220" y="121" width="53" height="24"/><text class="i" x="230" y="137">value</text></a><rect class="l" x="303" y="121" width="25" height="24" rx="7"/><text class="i" x="313" y="137">)</text><rect class="l" x="338" y="121" width="27" height="24" rx="7"/><text class="i" x="348" y="137">»</text><a xlink:href="#set"><rect class="r" x="375" y="121" width="40" height="24"/><text class="i" x="385" y="137">set</text></a><a xlink:href="#vector"><rect class="r" x="25" y="179" width="59" height="24"/><text class="i" x="35" y="195">vector</text></a><rect class="l" x="94" y="179" width="24" height="24" rx="7"/><text class="i" x="104" y="195">.</text><rect class="l" x="128" y="179" width="46" height="24" rx="7"/><text class="i" x="138" y="195">conj</text><rect class="l" x="184" y="179" width="25" height="24" rx="7"/><text class="i" x="194" y="195">(</text><rect class="l" x="253" y="150" width="24" height="24" rx="7"/><text class="i" x="263" y="166">,</text><a xlink:href="#value"><rect class="r" x="239" y="179" width="53" height="24"/><text class="i" x="249" y="195">value</text></a><rect class="l" x="322" y="179" width="25" height="24" rx="7"/><text class="i" x="332" y="195">)</text><rect class="l" x="357" y="179" width="27" height="24" rx="7"/><text class="i" x="367" y="195">»</text><a xlink:href="#vector"><rect class="r" x="394" y="179" width="59" height="24"/><text class="i" x="404" y="195">vector</text></a><rect class="l" x="25" y="208" width="48" height="24" rx="7"/><text class="i" x="35" y="224">filter</text><rect class="l" x="83" y="208" width="25" height="24" rx="7"/><text class="i" x="93" y="224">(</text><a xlink:href="#symbol"><rect class="r" x="118" y="208" width="63" height="24"/><text class="i" x="128" y="224">symbol</text></a><rect class="l" x="191" y="208" width="31" height="24" rx="7"/><text class="i" x="201" y="224">in</text><a xlink:href="#set"><rect class="r" x="232" y="208" width="40" height="24"/><text class="i" x="242" y="224">set</text></a><rect class="l" x="282" y="208" width="25" height="24" rx="7"/><text class="i" x="292" y="224">)</text><a xlink:href="#boolean-expression"><rect class="r" x="317" y="208" width="143" height="24"/><text class="i" x="327" y="224">boolean-expression</text></a><rect class="l" x="470" y="208" width="27" height="24" rx="7"/><text class="i" x="480" y="224">»</text><a xlink:href="#set"><rect class="r" x="507" y="208" width="40" height="24"/><text class="i" x="517" y="224">set</text></a><rect class="l" x="25" y="237" width="48" height="24" rx="7"/><text class="i" x="35" y="253">filter</text><rect class="l" x="83" y="237" width="25" height="24" rx="7"/><text class="i" x="93" y="253">(</text><a xlink:href="#symbol"><rect class="r" x="118" y="237" width="63" height="24"/><text class="i" x="128" y="253">symbol</text></a><rect class="l" x="191" y="237" width="31" height="24" rx="7"/><text class="i" x="201" y="253">in</text><a xlink:href="#vector"><rect class="r" x="232" y="237" width="59" height="24"/><text class="i" x="242" y="253">vector</text></a><rect class="l" x="301" y="237" width="25" height="24" rx="7"/><text class="i" x="311" y="253">)</text><a xlink:href="#boolean-expression"><rect class="r" x="336" y="237" width="143" height="24"/><text class="i" x="346" y="253">boolean-expression</text></a><rect class="l" x="489" y="237" width="27" height="24" rx="7"/><text class="i" x="499" y="253">»</text><a xlink:href="#vector"><rect class="r" x="526" y="237" width="59" height="24"/><text class="i" x="536" y="253">vector</text></a><rect class="l" x="25" y="266" width="47" height="24" rx="7"/><text class="i" x="35" y="282">map</text><rect class="l" x="82" y="266" width="25" height="24" rx="7"/><text class="i" x="92" y="282">(</text><a xlink:href="#symbol:element"><rect class="r" x="117" y="266" width="118" height="24"/><text class="i" x="127" y="282">symbol:element</text></a><rect class="l" x="245" y="266" width="31" height="24" rx="7"/><text class="i" x="255" y="282">in</text><a xlink:href="#set"><rect class="r" x="286" y="266" width="40" height="24"/><text class="i" x="296" y="282">set</text></a><rect class="l" x="336" y="266" width="25" height="24" rx="7"/><text class="i" x="346" y="282">)</text><a xlink:href="#value-expression"><rect class="r" x="371" y="266" width="125" height="24"/><text class="i" x="381" y="282">value-expression</text></a><rect class="l" x="506" y="266" width="27" height="24" rx="7"/><text class="i" x="516" y="282">»</text><a xlink:href="#set"><rect class="r" x="543" y="266" width="40" height="24"/><text class="i" x="553" y="282">set</text></a><rect class="l" x="25" y="295" width="47" height="24" rx="7"/><text class="i" x="35" y="311">map</text><rect class="l" x="82" y="295" width="25" height="24" rx="7"/><text class="i" x="92" y="311">(</text><a xlink:href="#symbol:element"><rect class="r" x="117" y="295" width="118" height="24"/><text class="i" x="127" y="311">symbol:element</text></a><rect class="l" x="245" y="295" width="31" height="24" rx="7"/><text class="i" x="255" y="311">in</text><a xlink:href="#vector"><rect class="r" x="286" y="295" width="59" height="24"/><text class="i" x="296" y="311">vector</text></a><rect class="l" x="355" y="295" width="25" height="24" rx="7"/><text class="i" x="365" y="311">)</text><a xlink:href="#value-expression"><rect class="r" x="390" y="295" width="125" height="24"/><text class="i" x="400" y="311">value-expression</text></a><rect class="l" x="525" y="295" width="27" height="24" rx="7"/><text class="i" x="535" y="311">»</text><a xlink:href="#vector"><rect class="r" x="562" y="295" width="59" height="24"/><text class="i" x="572" y="311">vector</text></a><rect class="l" x="25" y="324" width="57" height="24" rx="7"/><text class="i" x="35" y="340">range</text><rect class="l" x="92" y="324" width="25" height="24" rx="7"/><text class="i" x="102" y="340">(</text><a xlink:href="#integer:start"><rect class="r" x="147" y="324" width="99" height="24"/><text class="i" x="157" y="340">integer:start</text></a><rect class="l" x="256" y="324" width="24" height="24" rx="7"/><text class="i" x="266" y="340">,</text><a xlink:href="#integer:end"><rect class="r" x="310" y="324" width="93" height="24"/><text class="i" x="320" y="340">integer:end</text></a><rect class="l" x="433" y="324" width="24" height="24" rx="7"/><text class="i" x="443" y="340">,</text><a xlink:href="#integer:increment"><rect class="r" x="467" y="324" width="132" height="24"/><text class="i" x="477" y="340">integer:increment</text></a><rect class="l" x="629" y="324" width="25" height="24" rx="7"/><text class="i" x="639" y="340">)</text><rect class="l" x="664" y="324" width="27" height="24" rx="7"/><text class="i" x="674" y="340">»</text><a xlink:href="#vector"><rect class="r" x="701" y="324" width="59" height="24"/><text class="i" x="711" y="340">vector</text></a><a xlink:href="#vector"><rect class="r" x="25" y="368" width="59" height="24"/><text class="i" x="35" y="384">vector</text></a><rect class="l" x="94" y="368" width="24" height="24" rx="7"/><text class="i" x="104" y="384">.</text><rect class="l" x="128" y="368" width="55" height="24" rx="7"/><text class="i" x="138" y="384">rest()</text><rect class="l" x="193" y="368" width="27" height="24" rx="7"/><text class="i" x="203" y="384">»</text><a xlink:href="#vector"><rect class="r" x="230" y="368" width="59" height="24"/><text class="i" x="240" y="384">vector</text></a><a xlink:href="#set"><rect class="r" x="45" y="397" width="40" height="24"/><text class="i" x="55" y="413">set</text></a><a xlink:href="#vector"><rect class="r" x="45" y="426" width="59" height="24"/><text class="i" x="55" y="442">vector</text></a><rect class="l" x="134" y="397" width="24" height="24" rx="7"/><text class="i" x="144" y="413">.</text><rect class="l" x="168" y="397" width="55" height="24" rx="7"/><text class="i" x="178" y="413">sort()</text><rect class="l" x="233" y="397" width="27" height="24" rx="7"/><text class="i" x="243" y="413">»</text><a xlink:href="#vector"><rect class="r" x="270" y="397" width="59" height="24"/><text class="i" x="280" y="413">vector</text></a><rect class="l" x="25" y="455" width="59" height="24" rx="7"/><text class="i" x="35" y="471">sortBy</text><rect class="l" x="94" y="455" width="25" height="24" rx="7"/><text class="i" x="104" y="471">(</text><a xlink:href="#symbol:element"><rect class="r" x="129" y="455" width="118" height="24"/><text class="i" x="139" y="471">symbol:element</text></a><rect class="l" x="257" y="455" width="31" height="24" rx="7"/><text class="i" x="267" y="471">in</text><a xlink:href="#set"><rect class="r" x="318" y="455" width="40" height="24"/><text class="i" x="328" y="471">set</text></a><a xlink:href="#vector"><rect class="r" x="318" y="484" width="59" height="24"/><text class="i" x="328" y="500">vector</text></a><rect class="l" x="407" y="455" width="25" height="24" rx="7"/><text class="i" x="417" y="471">)</text><a xlink:href="#integer-expression"><rect class="r" x="462" y="455" width="137" height="24"/><text class="i" x="472" y="471">integer-expression</text></a><a xlink:href="#fixed-decimal-expression"><rect class="r" x="462" y="484" width="173" height="24"/><text class="i" x="472" y="500">fixed-decimal-expression</text></a><rect class="l" x="665" y="455" width="27" height="24" rx="7"/><text class="i" x="675" y="471">»</text><a xlink:href="#vector"><rect class="r" x="702" y="455" width="59" height="24"/><text class="i" x="712" y="471">vector</text></a></svg>