<svg version="1.1" xmlns:xlink="http://www.w3.org/1999/xlink" xmlns="http://www.w3.org/2000/svg" width="1057" height="907" viewbox="0 0 1057 907"><defs><style type="text/css">.c{fill: none; stroke: #888888; stroke-width: 2px;}.j{fill:#000000;font-family:Dialog,Sans-serif;font-size:12px;}.l{fill:#90d9ff;stroke:#222222;}.r{fill:#d3f0ff;stroke:#222222;}</style></defs><path class="c" d="M0 32h25m25 0h10m30 0h10m53 0h30m-5 0q-5 0-5-5v-16q0-5 5-5h63q5 0 5 5v16q0 5-5 5m-5 0h30m25 0h10m27 0h10m71 0h643m-1037 24q0 5 5 5h5m25 0h10m48 0h10m25 0h10m63 0h30m40 0h39m-94 0q5 0 5 5v19q0 5 5 5h5m59 0h5q5 0 5-5v-19q0-5 5-5m5 0h10m25 0h10m143 0h10m25 0h10m27 0h10m71 0h371q5 0 5-5m-1027 58q0 5 5 5h5m25 0h10m63 0h30m59 0h10m59 0h10m25 0h10m27 0h10m59 0h22m-306 0q5 0 5 5v19q0 5 5 5h5m40 0h30m40 0h39m-94 0q5 0 5 5v19q0 5 5 5h5m59 0h5q5 0 5-5v-19q0-5 5-5m5 0h10m25 0h10m27 0h10m40 0h5q5 0 5-5v-19q0-5 5-5m5 0h593q5 0 5-5m-1027 102q0 5 5 5h5m25 0h10m46 0h30m40 0h30m-5 0q-5 0-5-5v-16q0-5 5-5h63q5 0 5 5v16q0 5-5 5m-5 0h30m25 0h10m27 0h10m40 0h58m-338 0q5 0 5 5v34q0 5 5 5h5m59 0h30m-5 0q-5 0-5-5v-16q0-5 5-5h63q5 0 5 5v16q0 5-5 5m-5 0h30m25 0h10m27 0h10m59 0h5q5 0 5-5v-34q0-5 5-5m5 0h578q5 0 5-5m-1027 73q0 5 5 5h5m25 0h10m56 0h30m40 0h39m-94 0q5 0 5 5v19q0 5 5 5h5m59 0h5q5 0 5-5v-19q0-5 5-5m5 0h10m25 0h10m27 0h10m65 0h665q5 0 5-5m-1027 58q0 5 5 5h5m25 0h10m59 0h10m25 0h10m63 0h30m40 0h39m-94 0q5 0 5 5v19q0 5 5 5h5m59 0h5q5 0 5-5v-19q0-5 5-5m5 0h10m25 0h10m143 0h10m25 0h10m27 0h10m71 0h360q5 0 5-5m-1027 58q0 5 5 5h5m25 0h10m48 0h30m25 0h10m118 0h10m40 0h10m25 0h10m143 0h10m25 0h10m27 0h10m40 0h58m-586 0q5 0 5 5v19q0 5 5 5h5m25 0h10m118 0h10m59 0h10m25 0h10m143 0h10m25 0h10m27 0h10m59 0h5q5 0 5-5v-19q0-5 5-5m5 0h328q5 0 5-5m-1027 58q0 5 5 5h5m25 0h10m44 0h10m59 0h10m25 0h10m27 0h10m53 0h729q5 0 5-5m-1027 29q0 5 5 5h5m25 0h10m41 0h30m74 0h10m159 0h10m25 0h10m27 0h10m42 0h20m-402 0q5 0 5 5v19q0 5 5 5h5m59 0h10m65 0h10m25 0h10m27 0h10m53 0h103q5 0 5-5v-19q0-5 5-5m5 0h519q5 0 5-5m-1027 73q0 5 5 5h5m25 0h10m56 0h30m117 0h20m-152 0q5 0 5 5v19q0 5 5 5h5m102 0h20q5 0 5-5v-19q0-5 5-5m5 0h10m25 0h30m65 0h114m-194 0q5 0 5 5v19q0 5 5 5h5m159 0h5q5 0 5-5v-19q0-5 5-5m5 0h50m-5 0q-5 0-5-5v-16q0-5 5-5h209q5 0 5 5v16q0 5-5 5m-204 0h20m65 0h114m-194 0q5 0 5 5v19q0 5 5 5h5m159 0h5q5 0 5-5v-19q0-5 5-5m5 0h40m-274 0q5 0 5 5v37q0 5 5 5h249q5 0 5-5v-37q0-5 5-5m5 0h10m25 0h10m25 0h10m27 0h10m42 0h62q5 0 5-5m-1027 73q0 5 5 5h5m25 0h10m47 0h30m25 0h10m118 0h10m40 0h10m25 0h10m125 0h10m25 0h10m27 0h10m40 0h58m-568 0q5 0 5 5v19q0 5 5 5h5m25 0h10m118 0h10m59 0h10m25 0h10m125 0h10m25 0h10m27 0h10m59 0h5q5 0 5-5v-19q0-5 5-5m5 0h347q5 0 5-5m-1027 73q0 5 5 5h5m25 0h10m51 0h10m53 0h30m-5 0q-5 0-5-5v-16q0-5 5-5h63q5 0 5 5v16q0 5-5 5m-5 0h30m25 0h10m27 0h10m71 0h607q5 0 5-5m-1027 29q0 5 5 5h5m25 0h10m64 0h10m25 0h10m145 0h10m158 0h10m25 0h10m25 0h10m118 0h10m59 0h10m25 0h10m114 0h10m25 0h10m27 0h10m42 0h5q5 0 5-5m-1027 29q0 5 5 5h5m25 0h10m45 0h10m59 0h10m25 0h10m27 0h10m59 0h722q5 0 5-5m-1027 29q0 5 5 5h5m25 0h10m45 0h30m40 0h39m-94 0q5 0 5 5v19q0 5 5 5h5m59 0h5q5 0 5-5v-19q0-5 5-5m5 0h10m25 0h10m27 0h10m59 0h682q5 0 5-5m-1032-766q5 0 5 5v819q0 5 5 5h5m25 0h10m63 0h10m25 0h10m118 0h30m40 0h39m-94 0q5 0 5 5v19q0 5 5 5h5m59 0h5q5 0 5-5v-19q0-5 5-5m5 0h10m25 0h30m137 0h56m-208 0q5 0 5 5v19q0 5 5 5h5m173 0h5q5 0 5-5v-19q0-5 5-5m5 0h10m25 0h10m27 0h10m59 0h243q5 0 5-5v-819q0-5 5-5m5 0h5"/><rect class="l" x="25" y="20" width="25" height="24" rx="7"/><text class="j" x="35" y="36">(</text><rect class="l" x="60" y="20" width="30" height="24" rx="7"/><text class="j" x="70" y="36">=</text><a xlink:href="#value"><rect class="r" x="100" y="20" width="53" height="24"/><text class="j" x="110" y="36">value</text></a><a xlink:href="#value"><rect class="r" x="183" y="20" width="53" height="24"/><text class="j" x="193" y="36">value</text></a><rect class="l" x="266" y="20" width="25" height="24" rx="7"/><text class="j" x="276" y="36">)</text><rect class="l" x="301" y="20" width="27" height="24" rx="7"/><text class="j" x="311" y="36">»</text><a xlink:href="#boolean"><rect class="r" x="338" y="20" width="71" height="24"/><text class="j" x="348" y="36">boolean</text></a><rect class="l" x="25" y="49" width="25" height="24" rx="7"/><text class="j" x="35" y="65">(</text><rect class="l" x="60" y="49" width="48" height="24" rx="7"/><text class="j" x="70" y="65">any?</text><rect class="l" x="118" y="49" width="25" height="24" rx="7"/><text class="j" x="128" y="65">[</text><a xlink:href="#symbol"><rect class="r" x="153" y="49" width="63" height="24"/><text class="j" x="163" y="65">symbol</text></a><a xlink:href="#set"><rect class="r" x="246" y="49" width="40" height="24"/><text class="j" x="256" y="65">set</text></a><a xlink:href="#vector"><rect class="r" x="246" y="78" width="59" height="24"/><text class="j" x="256" y="94">vector</text></a><rect class="l" x="335" y="49" width="25" height="24" rx="7"/><text class="j" x="345" y="65">]</text><a xlink:href="#boolean-expression"><rect class="r" x="370" y="49" width="143" height="24"/><text class="j" x="380" y="65">boolean-expression</text></a><rect class="l" x="523" y="49" width="25" height="24" rx="7"/><text class="j" x="533" y="65">)</text><rect class="l" x="558" y="49" width="27" height="24" rx="7"/><text class="j" x="568" y="65">»</text><a xlink:href="#boolean"><rect class="r" x="595" y="49" width="71" height="24"/><text class="j" x="605" y="65">boolean</text></a><rect class="l" x="25" y="107" width="25" height="24" rx="7"/><text class="j" x="35" y="123">(</text><rect class="l" x="60" y="107" width="63" height="24" rx="7"/><text class="j" x="70" y="123">concat</text><a xlink:href="#vector"><rect class="r" x="153" y="107" width="59" height="24"/><text class="j" x="163" y="123">vector</text></a><a xlink:href="#vector"><rect class="r" x="222" y="107" width="59" height="24"/><text class="j" x="232" y="123">vector</text></a><rect class="l" x="291" y="107" width="25" height="24" rx="7"/><text class="j" x="301" y="123">)</text><rect class="l" x="326" y="107" width="27" height="24" rx="7"/><text class="j" x="336" y="123">»</text><a xlink:href="#vector"><rect class="r" x="363" y="107" width="59" height="24"/><text class="j" x="373" y="123">vector</text></a><a xlink:href="#set"><rect class="r" x="153" y="136" width="40" height="24"/><text class="j" x="163" y="152">set</text></a><a xlink:href="#set"><rect class="r" x="223" y="136" width="40" height="24"/><text class="j" x="233" y="152">set</text></a><a xlink:href="#vector"><rect class="r" x="223" y="165" width="59" height="24"/><text class="j" x="233" y="181">vector</text></a><rect class="l" x="312" y="136" width="25" height="24" rx="7"/><text class="j" x="322" y="152">)</text><rect class="l" x="347" y="136" width="27" height="24" rx="7"/><text class="j" x="357" y="152">»</text><a xlink:href="#set"><rect class="r" x="384" y="136" width="40" height="24"/><text class="j" x="394" y="152">set</text></a><rect class="l" x="25" y="209" width="25" height="24" rx="7"/><text class="j" x="35" y="225">(</text><rect class="l" x="60" y="209" width="46" height="24" rx="7"/><text class="j" x="70" y="225">conj</text><a xlink:href="#set"><rect class="r" x="136" y="209" width="40" height="24"/><text class="j" x="146" y="225">set</text></a><a xlink:href="#value"><rect class="r" x="206" y="209" width="53" height="24"/><text class="j" x="216" y="225">value</text></a><rect class="l" x="289" y="209" width="25" height="24" rx="7"/><text class="j" x="299" y="225">)</text><rect class="l" x="324" y="209" width="27" height="24" rx="7"/><text class="j" x="334" y="225">»</text><a xlink:href="#set"><rect class="r" x="361" y="209" width="40" height="24"/><text class="j" x="371" y="225">set</text></a><a xlink:href="#vector"><rect class="r" x="136" y="253" width="59" height="24"/><text class="j" x="146" y="269">vector</text></a><a xlink:href="#value"><rect class="r" x="225" y="253" width="53" height="24"/><text class="j" x="235" y="269">value</text></a><rect class="l" x="308" y="253" width="25" height="24" rx="7"/><text class="j" x="318" y="269">)</text><rect class="l" x="343" y="253" width="27" height="24" rx="7"/><text class="j" x="353" y="269">»</text><a xlink:href="#vector"><rect class="r" x="380" y="253" width="59" height="24"/><text class="j" x="390" y="269">vector</text></a><rect class="l" x="25" y="282" width="25" height="24" rx="7"/><text class="j" x="35" y="298">(</text><rect class="l" x="60" y="282" width="56" height="24" rx="7"/><text class="j" x="70" y="298">count</text><a xlink:href="#set"><rect class="r" x="146" y="282" width="40" height="24"/><text class="j" x="156" y="298">set</text></a><a xlink:href="#vector"><rect class="r" x="146" y="311" width="59" height="24"/><text class="j" x="156" y="327">vector</text></a><rect class="l" x="235" y="282" width="25" height="24" rx="7"/><text class="j" x="245" y="298">)</text><rect class="l" x="270" y="282" width="27" height="24" rx="7"/><text class="j" x="280" y="298">»</text><a xlink:href="#integer"><rect class="r" x="307" y="282" width="65" height="24"/><text class="j" x="317" y="298">integer</text></a><rect class="l" x="25" y="340" width="25" height="24" rx="7"/><text class="j" x="35" y="356">(</text><rect class="l" x="60" y="340" width="59" height="24" rx="7"/><text class="j" x="70" y="356">every?</text><rect class="l" x="129" y="340" width="25" height="24" rx="7"/><text class="j" x="139" y="356">[</text><a xlink:href="#symbol"><rect class="r" x="164" y="340" width="63" height="24"/><text class="j" x="174" y="356">symbol</text></a><a xlink:href="#set"><rect class="r" x="257" y="340" width="40" height="24"/><text class="j" x="267" y="356">set</text></a><a xlink:href="#vector"><rect class="r" x="257" y="369" width="59" height="24"/><text class="j" x="267" y="385">vector</text></a><rect class="l" x="346" y="340" width="25" height="24" rx="7"/><text class="j" x="356" y="356">]</text><a xlink:href="#boolean-expression"><rect class="r" x="381" y="340" width="143" height="24"/><text class="j" x="391" y="356">boolean-expression</text></a><rect class="l" x="534" y="340" width="25" height="24" rx="7"/><text class="j" x="544" y="356">)</text><rect class="l" x="569" y="340" width="27" height="24" rx="7"/><text class="j" x="579" y="356">»</text><a xlink:href="#boolean"><rect class="r" x="606" y="340" width="71" height="24"/><text class="j" x="616" y="356">boolean</text></a><rect class="l" x="25" y="398" width="25" height="24" rx="7"/><text class="j" x="35" y="414">(</text><rect class="l" x="60" y="398" width="48" height="24" rx="7"/><text class="j" x="70" y="414">filter</text><rect class="l" x="138" y="398" width="25" height="24" rx="7"/><text class="j" x="148" y="414">[</text><a xlink:href="#symbol:element"><rect class="r" x="173" y="398" width="118" height="24"/><text class="j" x="183" y="414">symbol:element</text></a><a xlink:href="#set"><rect class="r" x="301" y="398" width="40" height="24"/><text class="j" x="311" y="414">set</text></a><rect class="l" x="351" y="398" width="25" height="24" rx="7"/><text class="j" x="361" y="414">]</text><a xlink:href="#boolean-expression"><rect class="r" x="386" y="398" width="143" height="24"/><text class="j" x="396" y="414">boolean-expression</text></a><rect class="l" x="539" y="398" width="25" height="24" rx="7"/><text class="j" x="549" y="414">)</text><rect class="l" x="574" y="398" width="27" height="24" rx="7"/><text class="j" x="584" y="414">»</text><a xlink:href="#set"><rect class="r" x="611" y="398" width="40" height="24"/><text class="j" x="621" y="414">set</text></a><rect class="l" x="138" y="427" width="25" height="24" rx="7"/><text class="j" x="148" y="443">[</text><a xlink:href="#symbol:element"><rect class="r" x="173" y="427" width="118" height="24"/><text class="j" x="183" y="443">symbol:element</text></a><a xlink:href="#vector"><rect class="r" x="301" y="427" width="59" height="24"/><text class="j" x="311" y="443">vector</text></a><rect class="l" x="370" y="427" width="25" height="24" rx="7"/><text class="j" x="380" y="443">]</text><a xlink:href="#boolean-expression"><rect class="r" x="405" y="427" width="143" height="24"/><text class="j" x="415" y="443">boolean-expression</text></a><rect class="l" x="558" y="427" width="25" height="24" rx="7"/><text class="j" x="568" y="443">)</text><rect class="l" x="593" y="427" width="27" height="24" rx="7"/><text class="j" x="603" y="443">»</text><a xlink:href="#vector"><rect class="r" x="630" y="427" width="59" height="24"/><text class="j" x="640" y="443">vector</text></a><rect class="l" x="25" y="456" width="25" height="24" rx="7"/><text class="j" x="35" y="472">(</text><rect class="l" x="60" y="456" width="44" height="24" rx="7"/><text class="j" x="70" y="472">first</text><a xlink:href="#vector"><rect class="r" x="114" y="456" width="59" height="24"/><text class="j" x="124" y="472">vector</text></a><rect class="l" x="183" y="456" width="25" height="24" rx="7"/><text class="j" x="193" y="472">)</text><rect class="l" x="218" y="456" width="27" height="24" rx="7"/><text class="j" x="228" y="472">»</text><a xlink:href="#value"><rect class="r" x="255" y="456" width="53" height="24"/><text class="j" x="265" y="472">value</text></a><rect class="l" x="25" y="485" width="25" height="24" rx="7"/><text class="j" x="35" y="501">(</text><rect class="l" x="60" y="485" width="41" height="24" rx="7"/><text class="j" x="70" y="501">get</text><a xlink:href="#instance"><rect class="r" x="131" y="485" width="74" height="24"/><text class="j" x="141" y="501">instance</text></a><a xlink:href="#keyword:instance-field"><rect class="r" x="215" y="485" width="159" height="24"/><text class="j" x="225" y="501">keyword:instance-field</text></a><rect class="l" x="384" y="485" width="25" height="24" rx="7"/><text class="j" x="394" y="501">)</text><rect class="l" x="419" y="485" width="27" height="24" rx="7"/><text class="j" x="429" y="501">»</text><a xlink:href="#any"><rect class="r" x="456" y="485" width="42" height="24"/><text class="j" x="466" y="501">any</text></a><a xlink:href="#vector"><rect class="r" x="131" y="514" width="59" height="24"/><text class="j" x="141" y="530">vector</text></a><a xlink:href="#integer"><rect class="r" x="200" y="514" width="65" height="24"/><text class="j" x="210" y="530">integer</text></a><rect class="l" x="275" y="514" width="25" height="24" rx="7"/><text class="j" x="285" y="530">)</text><rect class="l" x="310" y="514" width="27" height="24" rx="7"/><text class="j" x="320" y="530">»</text><a xlink:href="#value"><rect class="r" x="347" y="514" width="53" height="24"/><text class="j" x="357" y="530">value</text></a><rect class="l" x="25" y="558" width="25" height="24" rx="7"/><text class="j" x="35" y="574">(</text><rect class="l" x="60" y="558" width="56" height="24" rx="7"/><text class="j" x="70" y="574">get-in</text><a xlink:href="#instance:target"><rect class="r" x="146" y="558" width="117" height="24"/><text class="j" x="156" y="574">instance:target</text></a><a xlink:href="#vector:target"><rect class="r" x="146" y="587" width="102" height="24"/><text class="j" x="156" y="603">vector:target</text></a><rect class="l" x="293" y="558" width="25" height="24" rx="7"/><text class="j" x="303" y="574">[</text><a xlink:href="#integer"><rect class="r" x="348" y="558" width="65" height="24"/><text class="j" x="358" y="574">integer</text></a><a xlink:href="#keyword:instance-field"><rect class="r" x="348" y="587" width="159" height="24"/><text class="j" x="358" y="603">keyword:instance-field</text></a><a xlink:href="#integer"><rect class="r" x="597" y="558" width="65" height="24"/><text class="j" x="607" y="574">integer</text></a><a xlink:href="#keyword:instance-field"><rect class="r" x="597" y="587" width="159" height="24"/><text class="j" x="607" y="603">keyword:instance-field</text></a><rect class="l" x="826" y="558" width="25" height="24" rx="7"/><text class="j" x="836" y="574">]</text><rect class="l" x="861" y="558" width="25" height="24" rx="7"/><text class="j" x="871" y="574">)</text><rect class="l" x="896" y="558" width="27" height="24" rx="7"/><text class="j" x="906" y="574">»</text><a xlink:href="#any"><rect class="r" x="933" y="558" width="42" height="24"/><text class="j" x="943" y="574">any</text></a><rect class="l" x="25" y="631" width="25" height="24" rx="7"/><text class="j" x="35" y="647">(</text><rect class="l" x="60" y="631" width="47" height="24" rx="7"/><text class="j" x="70" y="647">map</text><rect class="l" x="137" y="631" width="25" height="24" rx="7"/><text class="j" x="147" y="647">[</text><a xlink:href="#symbol:element"><rect class="r" x="172" y="631" width="118" height="24"/><text class="j" x="182" y="647">symbol:element</text></a><a xlink:href="#set"><rect class="r" x="300" y="631" width="40" height="24"/><text class="j" x="310" y="647">set</text></a><rect class="l" x="350" y="631" width="25" height="24" rx="7"/><text class="j" x="360" y="647">]</text><a xlink:href="#value-expression"><rect class="r" x="385" y="631" width="125" height="24"/><text class="j" x="395" y="647">value-expression</text></a><rect class="l" x="520" y="631" width="25" height="24" rx="7"/><text class="j" x="530" y="647">)</text><rect class="l" x="555" y="631" width="27" height="24" rx="7"/><text class="j" x="565" y="647">»</text><a xlink:href="#set"><rect class="r" x="592" y="631" width="40" height="24"/><text class="j" x="602" y="647">set</text></a><rect class="l" x="137" y="660" width="25" height="24" rx="7"/><text class="j" x="147" y="676">[</text><a xlink:href="#symbol:element"><rect class="r" x="172" y="660" width="118" height="24"/><text class="j" x="182" y="676">symbol:element</text></a><a xlink:href="#vector"><rect class="r" x="300" y="660" width="59" height="24"/><text class="j" x="310" y="676">vector</text></a><rect class="l" x="369" y="660" width="25" height="24" rx="7"/><text class="j" x="379" y="676">]</text><a xlink:href="#value-expression"><rect class="r" x="404" y="660" width="125" height="24"/><text class="j" x="414" y="676">value-expression</text></a><rect class="l" x="539" y="660" width="25" height="24" rx="7"/><text class="j" x="549" y="676">)</text><rect class="l" x="574" y="660" width="27" height="24" rx="7"/><text class="j" x="584" y="676">»</text><a xlink:href="#vector"><rect class="r" x="611" y="660" width="59" height="24"/><text class="j" x="621" y="676">vector</text></a><rect class="l" x="25" y="704" width="25" height="24" rx="7"/><text class="j" x="35" y="720">(</text><rect class="l" x="60" y="704" width="51" height="24" rx="7"/><text class="j" x="70" y="720">not=</text><a xlink:href="#value"><rect class="r" x="121" y="704" width="53" height="24"/><text class="j" x="131" y="720">value</text></a><a xlink:href="#value"><rect class="r" x="204" y="704" width="53" height="24"/><text class="j" x="214" y="720">value</text></a><rect class="l" x="287" y="704" width="25" height="24" rx="7"/><text class="j" x="297" y="720">)</text><rect class="l" x="322" y="704" width="27" height="24" rx="7"/><text class="j" x="332" y="720">»</text><a xlink:href="#boolean"><rect class="r" x="359" y="704" width="71" height="24"/><text class="j" x="369" y="720">boolean</text></a><rect class="l" x="25" y="733" width="25" height="24" rx="7"/><text class="j" x="35" y="749">(</text><rect class="l" x="60" y="733" width="64" height="24" rx="7"/><text class="j" x="70" y="749">reduce</text><rect class="l" x="134" y="733" width="25" height="24" rx="7"/><text class="j" x="144" y="749">[</text><a xlink:href="#symbol:accumulator"><rect class="r" x="169" y="733" width="145" height="24"/><text class="j" x="179" y="749">symbol:accumulator</text></a><a xlink:href="#value:accumulator-init"><rect class="r" x="324" y="733" width="158" height="24"/><text class="j" x="334" y="749">value:accumulator-init</text></a><rect class="l" x="492" y="733" width="25" height="24" rx="7"/><text class="j" x="502" y="749">]</text><rect class="l" x="527" y="733" width="25" height="24" rx="7"/><text class="j" x="537" y="749">[</text><a xlink:href="#symbol:element"><rect class="r" x="562" y="733" width="118" height="24"/><text class="j" x="572" y="749">symbol:element</text></a><a xlink:href="#vector"><rect class="r" x="690" y="733" width="59" height="24"/><text class="j" x="700" y="749">vector</text></a><rect class="l" x="759" y="733" width="25" height="24" rx="7"/><text class="j" x="769" y="749">]</text><a xlink:href="#any-expression"><rect class="r" x="794" y="733" width="114" height="24"/><text class="j" x="804" y="749">any-expression</text></a><rect class="l" x="918" y="733" width="25" height="24" rx="7"/><text class="j" x="928" y="749">)</text><rect class="l" x="953" y="733" width="27" height="24" rx="7"/><text class="j" x="963" y="749">»</text><a xlink:href="#any"><rect class="r" x="990" y="733" width="42" height="24"/><text class="j" x="1000" y="749">any</text></a><rect class="l" x="25" y="762" width="25" height="24" rx="7"/><text class="j" x="35" y="778">(</text><rect class="l" x="60" y="762" width="45" height="24" rx="7"/><text class="j" x="70" y="778">rest</text><a xlink:href="#vector"><rect class="r" x="115" y="762" width="59" height="24"/><text class="j" x="125" y="778">vector</text></a><rect class="l" x="184" y="762" width="25" height="24" rx="7"/><text class="j" x="194" y="778">)</text><rect class="l" x="219" y="762" width="27" height="24" rx="7"/><text class="j" x="229" y="778">»</text><a xlink:href="#vector"><rect class="r" x="256" y="762" width="59" height="24"/><text class="j" x="266" y="778">vector</text></a><rect class="l" x="25" y="791" width="25" height="24" rx="7"/><text class="j" x="35" y="807">(</text><rect class="l" x="60" y="791" width="45" height="24" rx="7"/><text class="j" x="70" y="807">sort</text><a xlink:href="#set"><rect class="r" x="135" y="791" width="40" height="24"/><text class="j" x="145" y="807">set</text></a><a xlink:href="#vector"><rect class="r" x="135" y="820" width="59" height="24"/><text class="j" x="145" y="836">vector</text></a><rect class="l" x="224" y="791" width="25" height="24" rx="7"/><text class="j" x="234" y="807">)</text><rect class="l" x="259" y="791" width="27" height="24" rx="7"/><text class="j" x="269" y="807">»</text><a xlink:href="#vector"><rect class="r" x="296" y="791" width="59" height="24"/><text class="j" x="306" y="807">vector</text></a><rect class="l" x="25" y="849" width="25" height="24" rx="7"/><text class="j" x="35" y="865">(</text><rect class="l" x="60" y="849" width="63" height="24" rx="7"/><text class="j" x="70" y="865">sort-by</text><rect class="l" x="133" y="849" width="25" height="24" rx="7"/><text class="j" x="143" y="865">[</text><a xlink:href="#symbol:element"><rect class="r" x="168" y="849" width="118" height="24"/><text class="j" x="178" y="865">symbol:element</text></a><a xlink:href="#set"><rect class="r" x="316" y="849" width="40" height="24"/><text class="j" x="326" y="865">set</text></a><a xlink:href="#vector"><rect class="r" x="316" y="878" width="59" height="24"/><text class="j" x="326" y="894">vector</text></a><rect class="l" x="405" y="849" width="25" height="24" rx="7"/><text class="j" x="415" y="865">]</text><a xlink:href="#integer-expression"><rect class="r" x="460" y="849" width="137" height="24"/><text class="j" x="470" y="865">integer-expression</text></a><a xlink:href="#fixed-decimal-expression"><rect class="r" x="460" y="878" width="173" height="24"/><text class="j" x="470" y="894">fixed-decimal-expression</text></a><rect class="l" x="663" y="849" width="25" height="24" rx="7"/><text class="j" x="673" y="865">)</text><rect class="l" x="698" y="849" width="27" height="24" rx="7"/><text class="j" x="708" y="865">»</text><a xlink:href="#vector"><rect class="r" x="735" y="849" width="59" height="24"/><text class="j" x="745" y="865">vector</text></a></svg>