<svg version="1.1" xmlns:xlink="http://www.w3.org/1999/xlink" xmlns="http://www.w3.org/2000/svg" width="773" height="530" viewbox="0 0 773 530"><defs><style type="text/css">.c{fill: none; stroke: #888888; stroke-width: 2px;}.i{fill:#000000;font-family:Verdana,Sans-serif;font-size:12px;}.l{fill:#90d9ff;stroke:#222222;}.r{fill:#d3f0ff;stroke:#222222;}</style></defs><path class="c" d="M0 18h25m57 0h10m24 0h10m59 0h10m25 0h10m57 0h10m25 0h10m28 0h10m57 0h341m-753 25q0 5 5 5h5m38 0h10m24 0h10m59 0h10m25 0h30m38 0h39m-92 0q5 0 5 5v20q0 5 5 5h5m57 0h5q5 0 5-5v-20q0-5 5-5m5 0h10m25 0h10m28 0h10m38 0h324q5 0 5-5m-743 90q0 5 5 5h5m38 0h10m24 0h10m45 0h10m25 0h30m-5 0q-5 0-5-5v-20q0-5 5-5h19m24 0h19q5 0 5 5v20q0 5-5 5m-5 0h30m25 0h10m28 0h10m38 0h343q5 0 5-5m-743 60q0 5 5 5h5m57 0h10m24 0h10m45 0h10m25 0h30m-5 0q-5 0-5-5v-20q0-5 5-5h19m24 0h19q5 0 5 5v20q0 5-5 5m-5 0h30m25 0h10m28 0h10m57 0h305q5 0 5-5m-743 30q0 5 5 5h5m47 0h10m25 0h10m62 0h10m31 0h10m38 0h10m25 0h10m134 0h10m28 0h10m38 0h220q5 0 5-5m-743 30q0 5 5 5h5m47 0h10m25 0h10m62 0h10m31 0h10m57 0h10m25 0h10m134 0h10m28 0h10m57 0h182q5 0 5-5m-743 30q0 5 5 5h5m46 0h10m25 0h10m116 0h10m31 0h10m38 0h10m25 0h10m120 0h10m28 0h10m38 0h181q5 0 5-5m-743 30q0 5 5 5h5m46 0h10m25 0h10m116 0h10m31 0h10m57 0h10m25 0h10m120 0h10m28 0h10m57 0h143q5 0 5-5m-743 30q0 5 5 5h5m54 0h10m25 0h30m95 0h10m24 0h20m-164 0q5 0 5 5v8q0 5 5 5h139q5 0 5-5v-8q0-5 5-5m5 0h10m89 0h30m24 0h10m128 0h20m-197 0q5 0 5 5v8q0 5 5 5h172q5 0 5-5v-8q0-5 5-5m5 0h10m25 0h10m28 0h10m57 0h9q5 0 5-5m-743 45q0 5 5 5h5m57 0h10m24 0h10m53 0h10m28 0h10m57 0h469q5 0 5-5m-743 30q0 5 5 5h25m38 0h39m-92 0q5 0 5 5v20q0 5 5 5h5m57 0h5q5 0 5-5v-20q0-5 5-5m5 0h10m24 0h10m53 0h10m28 0h10m57 0h429q5 0 5-5m-748-400q5 0 5 5v455q0 5 5 5h5m58 0h10m25 0h10m116 0h10m31 0h30m38 0h39m-92 0q5 0 5 5v20q0 5 5 5h5m57 0h5q5 0 5-5v-20q0-5 5-5m5 0h10m25 0h30m130 0h56m-201 0q5 0 5 5v20q0 5 5 5h5m166 0h5q5 0 5-5v-20q0-5 5-5m5 0h10m28 0h10m57 0h5q5 0 5-5v-455q0-5 5-5m5 0h5"/><a xlink:href="#vector"><rect class="r" x="25" y="5" width="57" height="25"/><text class="i" x="35" y="22">vector</text></a><rect class="l" x="92" y="5" width="24" height="25" rx="7"/><text class="i" x="102" y="22">.</text><rect class="l" x="126" y="5" width="59" height="25" rx="7"/><text class="i" x="136" y="22">concat</text><rect class="l" x="195" y="5" width="25" height="25" rx="7"/><text class="i" x="205" y="22">(</text><a xlink:href="#vector"><rect class="r" x="230" y="5" width="57" height="25"/><text class="i" x="240" y="22">vector</text></a><rect class="l" x="297" y="5" width="25" height="25" rx="7"/><text class="i" x="307" y="22">)</text><rect class="l" x="332" y="5" width="28" height="25" rx="7"/><text class="i" x="342" y="22">»</text><a xlink:href="#vector"><rect class="r" x="370" y="5" width="57" height="25"/><text class="i" x="380" y="22">vector</text></a><a xlink:href="#set"><rect class="r" x="25" y="35" width="38" height="25"/><text class="i" x="35" y="52">set</text></a><rect class="l" x="73" y="35" width="24" height="25" rx="7"/><text class="i" x="83" y="52">.</text><rect class="l" x="107" y="35" width="59" height="25" rx="7"/><text class="i" x="117" y="52">concat</text><rect class="l" x="176" y="35" width="25" height="25" rx="7"/><text class="i" x="186" y="52">(</text><a xlink:href="#set"><rect class="r" x="231" y="35" width="38" height="25"/><text class="i" x="241" y="52">set</text></a><a xlink:href="#vector"><rect class="r" x="231" y="65" width="57" height="25"/><text class="i" x="241" y="82">vector</text></a><rect class="l" x="318" y="35" width="25" height="25" rx="7"/><text class="i" x="328" y="52">)</text><rect class="l" x="353" y="35" width="28" height="25" rx="7"/><text class="i" x="363" y="52">»</text><a xlink:href="#set"><rect class="r" x="391" y="35" width="38" height="25"/><text class="i" x="401" y="52">set</text></a><a xlink:href="#set"><rect class="r" x="25" y="125" width="38" height="25"/><text class="i" x="35" y="142">set</text></a><rect class="l" x="73" y="125" width="24" height="25" rx="7"/><text class="i" x="83" y="142">.</text><rect class="l" x="107" y="125" width="45" height="25" rx="7"/><text class="i" x="117" y="142">conj</text><rect class="l" x="162" y="125" width="25" height="25" rx="7"/><text class="i" x="172" y="142">(</text><rect class="l" x="231" y="95" width="24" height="25" rx="7"/><text class="i" x="241" y="112">,</text><a xlink:href="#value"><rect class="r" x="217" y="125" width="52" height="25"/><text class="i" x="227" y="142">value</text></a><rect class="l" x="299" y="125" width="25" height="25" rx="7"/><text class="i" x="309" y="142">)</text><rect class="l" x="334" y="125" width="28" height="25" rx="7"/><text class="i" x="344" y="142">»</text><a xlink:href="#set"><rect class="r" x="372" y="125" width="38" height="25"/><text class="i" x="382" y="142">set</text></a><a xlink:href="#vector"><rect class="r" x="25" y="185" width="57" height="25"/><text class="i" x="35" y="202">vector</text></a><rect class="l" x="92" y="185" width="24" height="25" rx="7"/><text class="i" x="102" y="202">.</text><rect class="l" x="126" y="185" width="45" height="25" rx="7"/><text class="i" x="136" y="202">conj</text><rect class="l" x="181" y="185" width="25" height="25" rx="7"/><text class="i" x="191" y="202">(</text><rect class="l" x="250" y="155" width="24" height="25" rx="7"/><text class="i" x="260" y="172">,</text><a xlink:href="#value"><rect class="r" x="236" y="185" width="52" height="25"/><text class="i" x="246" y="202">value</text></a><rect class="l" x="318" y="185" width="25" height="25" rx="7"/><text class="i" x="328" y="202">)</text><rect class="l" x="353" y="185" width="28" height="25" rx="7"/><text class="i" x="363" y="202">»</text><a xlink:href="#vector"><rect class="r" x="391" y="185" width="57" height="25"/><text class="i" x="401" y="202">vector</text></a><rect class="l" x="25" y="215" width="47" height="25" rx="7"/><text class="i" x="35" y="232">filter</text><rect class="l" x="82" y="215" width="25" height="25" rx="7"/><text class="i" x="92" y="232">(</text><a xlink:href="#symbol"><rect class="r" x="117" y="215" width="62" height="25"/><text class="i" x="127" y="232">symbol</text></a><rect class="l" x="189" y="215" width="31" height="25" rx="7"/><text class="i" x="199" y="232">in</text><a xlink:href="#set"><rect class="r" x="230" y="215" width="38" height="25"/><text class="i" x="240" y="232">set</text></a><rect class="l" x="278" y="215" width="25" height="25" rx="7"/><text class="i" x="288" y="232">)</text><a xlink:href="#boolean-expression"><rect class="r" x="313" y="215" width="134" height="25"/><text class="i" x="323" y="232">boolean-expression</text></a><rect class="l" x="457" y="215" width="28" height="25" rx="7"/><text class="i" x="467" y="232">»</text><a xlink:href="#set"><rect class="r" x="495" y="215" width="38" height="25"/><text class="i" x="505" y="232">set</text></a><rect class="l" x="25" y="245" width="47" height="25" rx="7"/><text class="i" x="35" y="262">filter</text><rect class="l" x="82" y="245" width="25" height="25" rx="7"/><text class="i" x="92" y="262">(</text><a xlink:href="#symbol"><rect class="r" x="117" y="245" width="62" height="25"/><text class="i" x="127" y="262">symbol</text></a><rect class="l" x="189" y="245" width="31" height="25" rx="7"/><text class="i" x="199" y="262">in</text><a xlink:href="#vector"><rect class="r" x="230" y="245" width="57" height="25"/><text class="i" x="240" y="262">vector</text></a><rect class="l" x="297" y="245" width="25" height="25" rx="7"/><text class="i" x="307" y="262">)</text><a xlink:href="#boolean-expression"><rect class="r" x="332" y="245" width="134" height="25"/><text class="i" x="342" y="262">boolean-expression</text></a><rect class="l" x="476" y="245" width="28" height="25" rx="7"/><text class="i" x="486" y="262">»</text><a xlink:href="#vector"><rect class="r" x="514" y="245" width="57" height="25"/><text class="i" x="524" y="262">vector</text></a><rect class="l" x="25" y="275" width="46" height="25" rx="7"/><text class="i" x="35" y="292">map</text><rect class="l" x="81" y="275" width="25" height="25" rx="7"/><text class="i" x="91" y="292">(</text><a xlink:href="#symbol:element"><rect class="r" x="116" y="275" width="116" height="25"/><text class="i" x="126" y="292">symbol:element</text></a><rect class="l" x="242" y="275" width="31" height="25" rx="7"/><text class="i" x="252" y="292">in</text><a xlink:href="#set"><rect class="r" x="283" y="275" width="38" height="25"/><text class="i" x="293" y="292">set</text></a><rect class="l" x="331" y="275" width="25" height="25" rx="7"/><text class="i" x="341" y="292">)</text><a xlink:href="#value-expression"><rect class="r" x="366" y="275" width="120" height="25"/><text class="i" x="376" y="292">value-expression</text></a><rect class="l" x="496" y="275" width="28" height="25" rx="7"/><text class="i" x="506" y="292">»</text><a xlink:href="#set"><rect class="r" x="534" y="275" width="38" height="25"/><text class="i" x="544" y="292">set</text></a><rect class="l" x="25" y="305" width="46" height="25" rx="7"/><text class="i" x="35" y="322">map</text><rect class="l" x="81" y="305" width="25" height="25" rx="7"/><text class="i" x="91" y="322">(</text><a xlink:href="#symbol:element"><rect class="r" x="116" y="305" width="116" height="25"/><text class="i" x="126" y="322">symbol:element</text></a><rect class="l" x="242" y="305" width="31" height="25" rx="7"/><text class="i" x="252" y="322">in</text><a xlink:href="#vector"><rect class="r" x="283" y="305" width="57" height="25"/><text class="i" x="293" y="322">vector</text></a><rect class="l" x="350" y="305" width="25" height="25" rx="7"/><text class="i" x="360" y="322">)</text><a xlink:href="#value-expression"><rect class="r" x="385" y="305" width="120" height="25"/><text class="i" x="395" y="322">value-expression</text></a><rect class="l" x="515" y="305" width="28" height="25" rx="7"/><text class="i" x="525" y="322">»</text><a xlink:href="#vector"><rect class="r" x="553" y="305" width="57" height="25"/><text class="i" x="563" y="322">vector</text></a><rect class="l" x="25" y="335" width="54" height="25" rx="7"/><text class="i" x="35" y="352">range</text><rect class="l" x="89" y="335" width="25" height="25" rx="7"/><text class="i" x="99" y="352">(</text><a xlink:href="#integer:start"><rect class="r" x="144" y="335" width="95" height="25"/><text class="i" x="154" y="352">integer:start</text></a><rect class="l" x="249" y="335" width="24" height="25" rx="7"/><text class="i" x="259" y="352">,</text><a xlink:href="#integer:end"><rect class="r" x="303" y="335" width="89" height="25"/><text class="i" x="313" y="352">integer:end</text></a><rect class="l" x="422" y="335" width="24" height="25" rx="7"/><text class="i" x="432" y="352">,</text><a xlink:href="#integer:increment"><rect class="r" x="456" y="335" width="128" height="25"/><text class="i" x="466" y="352">integer:increment</text></a><rect class="l" x="614" y="335" width="25" height="25" rx="7"/><text class="i" x="624" y="352">)</text><rect class="l" x="649" y="335" width="28" height="25" rx="7"/><text class="i" x="659" y="352">»</text><a xlink:href="#vector"><rect class="r" x="687" y="335" width="57" height="25"/><text class="i" x="697" y="352">vector</text></a><a xlink:href="#vector"><rect class="r" x="25" y="380" width="57" height="25"/><text class="i" x="35" y="397">vector</text></a><rect class="l" x="92" y="380" width="24" height="25" rx="7"/><text class="i" x="102" y="397">.</text><rect class="l" x="126" y="380" width="53" height="25" rx="7"/><text class="i" x="136" y="397">rest()</text><rect class="l" x="189" y="380" width="28" height="25" rx="7"/><text class="i" x="199" y="397">»</text><a xlink:href="#vector"><rect class="r" x="227" y="380" width="57" height="25"/><text class="i" x="237" y="397">vector</text></a><a xlink:href="#set"><rect class="r" x="45" y="410" width="38" height="25"/><text class="i" x="55" y="427">set</text></a><a xlink:href="#vector"><rect class="r" x="45" y="440" width="57" height="25"/><text class="i" x="55" y="457">vector</text></a><rect class="l" x="132" y="410" width="24" height="25" rx="7"/><text class="i" x="142" y="427">.</text><rect class="l" x="166" y="410" width="53" height="25" rx="7"/><text class="i" x="176" y="427">sort()</text><rect class="l" x="229" y="410" width="28" height="25" rx="7"/><text class="i" x="239" y="427">»</text><a xlink:href="#vector"><rect class="r" x="267" y="410" width="57" height="25"/><text class="i" x="277" y="427">vector</text></a><rect class="l" x="25" y="470" width="58" height="25" rx="7"/><text class="i" x="35" y="487">sortBy</text><rect class="l" x="93" y="470" width="25" height="25" rx="7"/><text class="i" x="103" y="487">(</text><a xlink:href="#symbol:element"><rect class="r" x="128" y="470" width="116" height="25"/><text class="i" x="138" y="487">symbol:element</text></a><rect class="l" x="254" y="470" width="31" height="25" rx="7"/><text class="i" x="264" y="487">in</text><a xlink:href="#set"><rect class="r" x="315" y="470" width="38" height="25"/><text class="i" x="325" y="487">set</text></a><a xlink:href="#vector"><rect class="r" x="315" y="500" width="57" height="25"/><text class="i" x="325" y="517">vector</text></a><rect class="l" x="402" y="470" width="25" height="25" rx="7"/><text class="i" x="412" y="487">)</text><a xlink:href="#integer-expression"><rect class="r" x="457" y="470" width="130" height="25"/><text class="i" x="467" y="487">integer-expression</text></a><a xlink:href="#fixed-decimal-expression"><rect class="r" x="457" y="500" width="166" height="25"/><text class="i" x="467" y="517">fixed-decimal-expression</text></a><rect class="l" x="653" y="470" width="28" height="25" rx="7"/><text class="i" x="663" y="487">»</text><a xlink:href="#vector"><rect class="r" x="691" y="470" width="57" height="25"/><text class="i" x="701" y="487">vector</text></a></svg>