<svg version="1.1" xmlns:xlink="http://www.w3.org/1999/xlink" xmlns="http://www.w3.org/2000/svg" width="1064" height="935" viewbox="0 0 1064 935"><defs><style type="text/css">.c{fill:none;stroke:#222222;}.j{fill:#000000;font-family:Verdana,Sans-serif;font-size:12px;}.l{fill:#90d9ff;stroke:#222222;}.r{fill:#d3f0ff;stroke:#222222;}</style></defs><path class="c" d="M0 37h25m25 0h10m29 0h10m54 0h30m-5 0q-5 0-5-5v-17q0-5 5-5h64q5 0 5 5v17q0 5-5 5m-5 0h30m25 0h10m28 0h10m71 0h648m-1044 25q0 5 5 5h5m25 0h10m50 0h10m25 0h10m64 0h30m40 0h39m-94 0q5 0 5 5v20q0 5 5 5h5m59 0h5q5 0 5-5v-20q0-5 5-5m5 0h10m25 0h10m145 0h10m25 0h10m28 0h10m71 0h372q5 0 5-5m-1034 60q0 5 5 5h5m25 0h10m61 0h30m59 0h10m59 0h10m25 0h10m28 0h10m59 0h22m-307 0q5 0 5 5v20q0 5 5 5h5m40 0h30m40 0h39m-94 0q5 0 5 5v20q0 5 5 5h5m59 0h5q5 0 5-5v-20q0-5 5-5m5 0h10m25 0h10m28 0h10m40 0h5q5 0 5-5v-20q0-5 5-5m5 0h601q5 0 5-5m-1034 105q0 5 5 5h5m25 0h10m46 0h30m40 0h30m-5 0q-5 0-5-5v-17q0-5 5-5h64q5 0 5 5v17q0 5-5 5m-5 0h30m25 0h10m28 0h10m40 0h58m-340 0q5 0 5 5v35q0 5 5 5h5m59 0h30m-5 0q-5 0-5-5v-17q0-5 5-5h64q5 0 5 5v17q0 5-5 5m-5 0h30m25 0h10m28 0h10m59 0h5q5 0 5-5v-35q0-5 5-5m5 0h583q5 0 5-5m-1034 75q0 5 5 5h5m25 0h10m55 0h30m40 0h39m-94 0q5 0 5 5v20q0 5 5 5h5m59 0h5q5 0 5-5v-20q0-5 5-5m5 0h10m25 0h10m28 0h10m65 0h672q5 0 5-5m-1034 60q0 5 5 5h5m25 0h10m62 0h10m25 0h10m64 0h30m40 0h39m-94 0q5 0 5 5v20q0 5 5 5h5m59 0h5q5 0 5-5v-20q0-5 5-5m5 0h10m25 0h10m145 0h10m25 0h10m28 0h10m71 0h360q5 0 5-5m-1034 60q0 5 5 5h5m25 0h10m48 0h30m25 0h10m120 0h10m40 0h10m25 0h10m145 0h10m25 0h10m28 0h10m40 0h58m-591 0q5 0 5 5v20q0 5 5 5h5m25 0h10m120 0h10m59 0h10m25 0h10m145 0h10m25 0h10m28 0h10m59 0h5q5 0 5-5v-20q0-5 5-5m5 0h330q5 0 5-5m-1034 60q0 5 5 5h5m25 0h10m44 0h10m59 0h10m25 0h10m28 0h10m54 0h734q5 0 5-5m-1034 30q0 5 5 5h5m25 0h10m41 0h30m73 0h10m163 0h10m25 0h10m28 0h10m43 0h20m-407 0q5 0 5 5v20q0 5 5 5h5m59 0h10m65 0h10m25 0h10m28 0h10m54 0h106q5 0 5-5v-20q0-5 5-5m5 0h521q5 0 5-5m-1034 75q0 5 5 5h5m25 0h10m57 0h30m117 0h20m-152 0q5 0 5 5v20q0 5 5 5h5m103 0h19q5 0 5-5v-20q0-5 5-5m5 0h10m25 0h30m65 0h118m-198 0q5 0 5 5v20q0 5 5 5h5m163 0h5q5 0 5-5v-20q0-5 5-5m5 0h50m-5 0q-5 0-5-5v-17q0-5 5-5h213q5 0 5 5v17q0 5-5 5m-208 0h20m65 0h118m-198 0q5 0 5 5v20q0 5 5 5h5m163 0h5q5 0 5-5v-20q0-5 5-5m5 0h40m-278 0q5 0 5 5v38q0 5 5 5h253q5 0 5-5v-38q0-5 5-5m5 0h10m25 0h10m25 0h10m28 0h10m43 0h58q5 0 5-5m-1034 75q0 5 5 5h5m25 0h10m47 0h30m25 0h10m120 0h10m40 0h10m25 0h10m128 0h10m25 0h10m28 0h10m40 0h58m-574 0q5 0 5 5v20q0 5 5 5h5m25 0h10m120 0h10m59 0h10m25 0h10m128 0h10m25 0h10m28 0h10m59 0h5q5 0 5-5v-20q0-5 5-5m5 0h348q5 0 5-5m-1034 75q0 5 5 5h5m25 0h10m50 0h10m54 0h30m-5 0q-5 0-5-5v-17q0-5 5-5h64q5 0 5 5v17q0 5-5 5m-5 0h30m25 0h10m28 0h10m71 0h612q5 0 5-5m-1034 30q0 5 5 5h5m25 0h10m63 0h10m25 0h10m145 0h10m159 0h10m25 0h10m25 0h10m120 0h10m59 0h10m25 0h10m117 0h10m25 0h10m28 0h10m43 0h5q5 0 5-5m-1034 30q0 5 5 5h5m25 0h10m45 0h10m59 0h10m25 0h10m28 0h10m59 0h728q5 0 5-5m-1034 30q0 5 5 5h5m25 0h10m45 0h30m40 0h39m-94 0q5 0 5 5v20q0 5 5 5h5m59 0h5q5 0 5-5v-20q0-5 5-5m5 0h10m25 0h10m28 0h10m59 0h688q5 0 5-5m-1039-790q5 0 5 5v845q0 5 5 5h5m25 0h10m65 0h10m25 0h10m120 0h30m40 0h39m-94 0q5 0 5 5v20q0 5 5 5h5m59 0h5q5 0 5-5v-20q0-5 5-5m5 0h10m25 0h30m139 0h57m-211 0q5 0 5 5v20q0 5 5 5h5m176 0h5q5 0 5-5v-20q0-5 5-5m5 0h10m25 0h10m28 0h10m59 0h242q5 0 5-5v-845q0-5 5-5m5 0h5"/><rect class="l" x="25" y="20" width="25" height="25" rx="7"/><text class="j" x="35" y="37">(</text><rect class="l" x="60" y="20" width="29" height="25" rx="7"/><text class="j" x="70" y="37">=</text><a xlink:href="#value"><rect class="r" x="99" y="20" width="54" height="25"/><text class="j" x="109" y="37">value</text></a><a xlink:href="#value"><rect class="r" x="183" y="20" width="54" height="25"/><text class="j" x="193" y="37">value</text></a><rect class="l" x="267" y="20" width="25" height="25" rx="7"/><text class="j" x="277" y="37">)</text><rect class="l" x="302" y="20" width="28" height="25" rx="7"/><text class="j" x="312" y="37">»</text><a xlink:href="#boolean"><rect class="r" x="340" y="20" width="71" height="25"/><text class="j" x="350" y="37">boolean</text></a><rect class="l" x="25" y="50" width="25" height="25" rx="7"/><text class="j" x="35" y="67">(</text><rect class="l" x="60" y="50" width="50" height="25" rx="7"/><text class="j" x="70" y="67">any?</text><rect class="l" x="120" y="50" width="25" height="25" rx="7"/><text class="j" x="130" y="67">[</text><a xlink:href="#symbol"><rect class="r" x="155" y="50" width="64" height="25"/><text class="j" x="165" y="67">symbol</text></a><a xlink:href="#set"><rect class="r" x="249" y="50" width="40" height="25"/><text class="j" x="259" y="67">set</text></a><a xlink:href="#vector"><rect class="r" x="249" y="80" width="59" height="25"/><text class="j" x="259" y="97">vector</text></a><rect class="l" x="338" y="50" width="25" height="25" rx="7"/><text class="j" x="348" y="67">]</text><a xlink:href="#boolean-expression"><rect class="r" x="373" y="50" width="145" height="25"/><text class="j" x="383" y="67">boolean-expression</text></a><rect class="l" x="528" y="50" width="25" height="25" rx="7"/><text class="j" x="538" y="67">)</text><rect class="l" x="563" y="50" width="28" height="25" rx="7"/><text class="j" x="573" y="67">»</text><a xlink:href="#boolean"><rect class="r" x="601" y="50" width="71" height="25"/><text class="j" x="611" y="67">boolean</text></a><rect class="l" x="25" y="110" width="25" height="25" rx="7"/><text class="j" x="35" y="127">(</text><rect class="l" x="60" y="110" width="61" height="25" rx="7"/><text class="j" x="70" y="127">concat</text><a xlink:href="#vector"><rect class="r" x="151" y="110" width="59" height="25"/><text class="j" x="161" y="127">vector</text></a><a xlink:href="#vector"><rect class="r" x="220" y="110" width="59" height="25"/><text class="j" x="230" y="127">vector</text></a><rect class="l" x="289" y="110" width="25" height="25" rx="7"/><text class="j" x="299" y="127">)</text><rect class="l" x="324" y="110" width="28" height="25" rx="7"/><text class="j" x="334" y="127">»</text><a xlink:href="#vector"><rect class="r" x="362" y="110" width="59" height="25"/><text class="j" x="372" y="127">vector</text></a><a xlink:href="#set"><rect class="r" x="151" y="140" width="40" height="25"/><text class="j" x="161" y="157">set</text></a><a xlink:href="#set"><rect class="r" x="221" y="140" width="40" height="25"/><text class="j" x="231" y="157">set</text></a><a xlink:href="#vector"><rect class="r" x="221" y="170" width="59" height="25"/><text class="j" x="231" y="187">vector</text></a><rect class="l" x="310" y="140" width="25" height="25" rx="7"/><text class="j" x="320" y="157">)</text><rect class="l" x="345" y="140" width="28" height="25" rx="7"/><text class="j" x="355" y="157">»</text><a xlink:href="#set"><rect class="r" x="383" y="140" width="40" height="25"/><text class="j" x="393" y="157">set</text></a><rect class="l" x="25" y="215" width="25" height="25" rx="7"/><text class="j" x="35" y="232">(</text><rect class="l" x="60" y="215" width="46" height="25" rx="7"/><text class="j" x="70" y="232">conj</text><a xlink:href="#set"><rect class="r" x="136" y="215" width="40" height="25"/><text class="j" x="146" y="232">set</text></a><a xlink:href="#value"><rect class="r" x="206" y="215" width="54" height="25"/><text class="j" x="216" y="232">value</text></a><rect class="l" x="290" y="215" width="25" height="25" rx="7"/><text class="j" x="300" y="232">)</text><rect class="l" x="325" y="215" width="28" height="25" rx="7"/><text class="j" x="335" y="232">»</text><a xlink:href="#set"><rect class="r" x="363" y="215" width="40" height="25"/><text class="j" x="373" y="232">set</text></a><a xlink:href="#vector"><rect class="r" x="136" y="260" width="59" height="25"/><text class="j" x="146" y="277">vector</text></a><a xlink:href="#value"><rect class="r" x="225" y="260" width="54" height="25"/><text class="j" x="235" y="277">value</text></a><rect class="l" x="309" y="260" width="25" height="25" rx="7"/><text class="j" x="319" y="277">)</text><rect class="l" x="344" y="260" width="28" height="25" rx="7"/><text class="j" x="354" y="277">»</text><a xlink:href="#vector"><rect class="r" x="382" y="260" width="59" height="25"/><text class="j" x="392" y="277">vector</text></a><rect class="l" x="25" y="290" width="25" height="25" rx="7"/><text class="j" x="35" y="307">(</text><rect class="l" x="60" y="290" width="55" height="25" rx="7"/><text class="j" x="70" y="307">count</text><a xlink:href="#set"><rect class="r" x="145" y="290" width="40" height="25"/><text class="j" x="155" y="307">set</text></a><a xlink:href="#vector"><rect class="r" x="145" y="320" width="59" height="25"/><text class="j" x="155" y="337">vector</text></a><rect class="l" x="234" y="290" width="25" height="25" rx="7"/><text class="j" x="244" y="307">)</text><rect class="l" x="269" y="290" width="28" height="25" rx="7"/><text class="j" x="279" y="307">»</text><a xlink:href="#integer"><rect class="r" x="307" y="290" width="65" height="25"/><text class="j" x="317" y="307">integer</text></a><rect class="l" x="25" y="350" width="25" height="25" rx="7"/><text class="j" x="35" y="367">(</text><rect class="l" x="60" y="350" width="62" height="25" rx="7"/><text class="j" x="70" y="367">every?</text><rect class="l" x="132" y="350" width="25" height="25" rx="7"/><text class="j" x="142" y="367">[</text><a xlink:href="#symbol"><rect class="r" x="167" y="350" width="64" height="25"/><text class="j" x="177" y="367">symbol</text></a><a xlink:href="#set"><rect class="r" x="261" y="350" width="40" height="25"/><text class="j" x="271" y="367">set</text></a><a xlink:href="#vector"><rect class="r" x="261" y="380" width="59" height="25"/><text class="j" x="271" y="397">vector</text></a><rect class="l" x="350" y="350" width="25" height="25" rx="7"/><text class="j" x="360" y="367">]</text><a xlink:href="#boolean-expression"><rect class="r" x="385" y="350" width="145" height="25"/><text class="j" x="395" y="367">boolean-expression</text></a><rect class="l" x="540" y="350" width="25" height="25" rx="7"/><text class="j" x="550" y="367">)</text><rect class="l" x="575" y="350" width="28" height="25" rx="7"/><text class="j" x="585" y="367">»</text><a xlink:href="#boolean"><rect class="r" x="613" y="350" width="71" height="25"/><text class="j" x="623" y="367">boolean</text></a><rect class="l" x="25" y="410" width="25" height="25" rx="7"/><text class="j" x="35" y="427">(</text><rect class="l" x="60" y="410" width="48" height="25" rx="7"/><text class="j" x="70" y="427">filter</text><rect class="l" x="138" y="410" width="25" height="25" rx="7"/><text class="j" x="148" y="427">[</text><a xlink:href="#symbol:element"><rect class="r" x="173" y="410" width="120" height="25"/><text class="j" x="183" y="427">symbol:element</text></a><a xlink:href="#set"><rect class="r" x="303" y="410" width="40" height="25"/><text class="j" x="313" y="427">set</text></a><rect class="l" x="353" y="410" width="25" height="25" rx="7"/><text class="j" x="363" y="427">]</text><a xlink:href="#boolean-expression"><rect class="r" x="388" y="410" width="145" height="25"/><text class="j" x="398" y="427">boolean-expression</text></a><rect class="l" x="543" y="410" width="25" height="25" rx="7"/><text class="j" x="553" y="427">)</text><rect class="l" x="578" y="410" width="28" height="25" rx="7"/><text class="j" x="588" y="427">»</text><a xlink:href="#set"><rect class="r" x="616" y="410" width="40" height="25"/><text class="j" x="626" y="427">set</text></a><rect class="l" x="138" y="440" width="25" height="25" rx="7"/><text class="j" x="148" y="457">[</text><a xlink:href="#symbol:element"><rect class="r" x="173" y="440" width="120" height="25"/><text class="j" x="183" y="457">symbol:element</text></a><a xlink:href="#vector"><rect class="r" x="303" y="440" width="59" height="25"/><text class="j" x="313" y="457">vector</text></a><rect class="l" x="372" y="440" width="25" height="25" rx="7"/><text class="j" x="382" y="457">]</text><a xlink:href="#boolean-expression"><rect class="r" x="407" y="440" width="145" height="25"/><text class="j" x="417" y="457">boolean-expression</text></a><rect class="l" x="562" y="440" width="25" height="25" rx="7"/><text class="j" x="572" y="457">)</text><rect class="l" x="597" y="440" width="28" height="25" rx="7"/><text class="j" x="607" y="457">»</text><a xlink:href="#vector"><rect class="r" x="635" y="440" width="59" height="25"/><text class="j" x="645" y="457">vector</text></a><rect class="l" x="25" y="470" width="25" height="25" rx="7"/><text class="j" x="35" y="487">(</text><rect class="l" x="60" y="470" width="44" height="25" rx="7"/><text class="j" x="70" y="487">first</text><a xlink:href="#vector"><rect class="r" x="114" y="470" width="59" height="25"/><text class="j" x="124" y="487">vector</text></a><rect class="l" x="183" y="470" width="25" height="25" rx="7"/><text class="j" x="193" y="487">)</text><rect class="l" x="218" y="470" width="28" height="25" rx="7"/><text class="j" x="228" y="487">»</text><a xlink:href="#value"><rect class="r" x="256" y="470" width="54" height="25"/><text class="j" x="266" y="487">value</text></a><rect class="l" x="25" y="500" width="25" height="25" rx="7"/><text class="j" x="35" y="517">(</text><rect class="l" x="60" y="500" width="41" height="25" rx="7"/><text class="j" x="70" y="517">get</text><a xlink:href="#instance"><rect class="r" x="131" y="500" width="73" height="25"/><text class="j" x="141" y="517">instance</text></a><a xlink:href="#keyword:instance-field"><rect class="r" x="214" y="500" width="163" height="25"/><text class="j" x="224" y="517">keyword:instance-field</text></a><rect class="l" x="387" y="500" width="25" height="25" rx="7"/><text class="j" x="397" y="517">)</text><rect class="l" x="422" y="500" width="28" height="25" rx="7"/><text class="j" x="432" y="517">»</text><a xlink:href="#any"><rect class="r" x="460" y="500" width="43" height="25"/><text class="j" x="470" y="517">any</text></a><a xlink:href="#vector"><rect class="r" x="131" y="530" width="59" height="25"/><text class="j" x="141" y="547">vector</text></a><a xlink:href="#integer"><rect class="r" x="200" y="530" width="65" height="25"/><text class="j" x="210" y="547">integer</text></a><rect class="l" x="275" y="530" width="25" height="25" rx="7"/><text class="j" x="285" y="547">)</text><rect class="l" x="310" y="530" width="28" height="25" rx="7"/><text class="j" x="320" y="547">»</text><a xlink:href="#value"><rect class="r" x="348" y="530" width="54" height="25"/><text class="j" x="358" y="547">value</text></a><rect class="l" x="25" y="575" width="25" height="25" rx="7"/><text class="j" x="35" y="592">(</text><rect class="l" x="60" y="575" width="57" height="25" rx="7"/><text class="j" x="70" y="592">get-in</text><a xlink:href="#instance:target"><rect class="r" x="147" y="575" width="117" height="25"/><text class="j" x="157" y="592">instance:target</text></a><a xlink:href="#vector:target"><rect class="r" x="147" y="605" width="103" height="25"/><text class="j" x="157" y="622">vector:target</text></a><rect class="l" x="294" y="575" width="25" height="25" rx="7"/><text class="j" x="304" y="592">[</text><a xlink:href="#integer"><rect class="r" x="349" y="575" width="65" height="25"/><text class="j" x="359" y="592">integer</text></a><a xlink:href="#keyword:instance-field"><rect class="r" x="349" y="605" width="163" height="25"/><text class="j" x="359" y="622">keyword:instance-field</text></a><a xlink:href="#integer"><rect class="r" x="602" y="575" width="65" height="25"/><text class="j" x="612" y="592">integer</text></a><a xlink:href="#keyword:instance-field"><rect class="r" x="602" y="605" width="163" height="25"/><text class="j" x="612" y="622">keyword:instance-field</text></a><rect class="l" x="835" y="575" width="25" height="25" rx="7"/><text class="j" x="845" y="592">]</text><rect class="l" x="870" y="575" width="25" height="25" rx="7"/><text class="j" x="880" y="592">)</text><rect class="l" x="905" y="575" width="28" height="25" rx="7"/><text class="j" x="915" y="592">»</text><a xlink:href="#any"><rect class="r" x="943" y="575" width="43" height="25"/><text class="j" x="953" y="592">any</text></a><rect class="l" x="25" y="650" width="25" height="25" rx="7"/><text class="j" x="35" y="667">(</text><rect class="l" x="60" y="650" width="47" height="25" rx="7"/><text class="j" x="70" y="667">map</text><rect class="l" x="137" y="650" width="25" height="25" rx="7"/><text class="j" x="147" y="667">[</text><a xlink:href="#symbol:element"><rect class="r" x="172" y="650" width="120" height="25"/><text class="j" x="182" y="667">symbol:element</text></a><a xlink:href="#set"><rect class="r" x="302" y="650" width="40" height="25"/><text class="j" x="312" y="667">set</text></a><rect class="l" x="352" y="650" width="25" height="25" rx="7"/><text class="j" x="362" y="667">]</text><a xlink:href="#value-expression"><rect class="r" x="387" y="650" width="128" height="25"/><text class="j" x="397" y="667">value-expression</text></a><rect class="l" x="525" y="650" width="25" height="25" rx="7"/><text class="j" x="535" y="667">)</text><rect class="l" x="560" y="650" width="28" height="25" rx="7"/><text class="j" x="570" y="667">»</text><a xlink:href="#set"><rect class="r" x="598" y="650" width="40" height="25"/><text class="j" x="608" y="667">set</text></a><rect class="l" x="137" y="680" width="25" height="25" rx="7"/><text class="j" x="147" y="697">[</text><a xlink:href="#symbol:element"><rect class="r" x="172" y="680" width="120" height="25"/><text class="j" x="182" y="697">symbol:element</text></a><a xlink:href="#vector"><rect class="r" x="302" y="680" width="59" height="25"/><text class="j" x="312" y="697">vector</text></a><rect class="l" x="371" y="680" width="25" height="25" rx="7"/><text class="j" x="381" y="697">]</text><a xlink:href="#value-expression"><rect class="r" x="406" y="680" width="128" height="25"/><text class="j" x="416" y="697">value-expression</text></a><rect class="l" x="544" y="680" width="25" height="25" rx="7"/><text class="j" x="554" y="697">)</text><rect class="l" x="579" y="680" width="28" height="25" rx="7"/><text class="j" x="589" y="697">»</text><a xlink:href="#vector"><rect class="r" x="617" y="680" width="59" height="25"/><text class="j" x="627" y="697">vector</text></a><rect class="l" x="25" y="725" width="25" height="25" rx="7"/><text class="j" x="35" y="742">(</text><rect class="l" x="60" y="725" width="50" height="25" rx="7"/><text class="j" x="70" y="742">not=</text><a xlink:href="#value"><rect class="r" x="120" y="725" width="54" height="25"/><text class="j" x="130" y="742">value</text></a><a xlink:href="#value"><rect class="r" x="204" y="725" width="54" height="25"/><text class="j" x="214" y="742">value</text></a><rect class="l" x="288" y="725" width="25" height="25" rx="7"/><text class="j" x="298" y="742">)</text><rect class="l" x="323" y="725" width="28" height="25" rx="7"/><text class="j" x="333" y="742">»</text><a xlink:href="#boolean"><rect class="r" x="361" y="725" width="71" height="25"/><text class="j" x="371" y="742">boolean</text></a><rect class="l" x="25" y="755" width="25" height="25" rx="7"/><text class="j" x="35" y="772">(</text><rect class="l" x="60" y="755" width="63" height="25" rx="7"/><text class="j" x="70" y="772">reduce</text><rect class="l" x="133" y="755" width="25" height="25" rx="7"/><text class="j" x="143" y="772">[</text><a xlink:href="#symbol:accumulator"><rect class="r" x="168" y="755" width="145" height="25"/><text class="j" x="178" y="772">symbol:accumulator</text></a><a xlink:href="#value:accumulator-init"><rect class="r" x="323" y="755" width="159" height="25"/><text class="j" x="333" y="772">value:accumulator-init</text></a><rect class="l" x="492" y="755" width="25" height="25" rx="7"/><text class="j" x="502" y="772">]</text><rect class="l" x="527" y="755" width="25" height="25" rx="7"/><text class="j" x="537" y="772">[</text><a xlink:href="#symbol:element"><rect class="r" x="562" y="755" width="120" height="25"/><text class="j" x="572" y="772">symbol:element</text></a><a xlink:href="#vector"><rect class="r" x="692" y="755" width="59" height="25"/><text class="j" x="702" y="772">vector</text></a><rect class="l" x="761" y="755" width="25" height="25" rx="7"/><text class="j" x="771" y="772">]</text><a xlink:href="#any-expression"><rect class="r" x="796" y="755" width="117" height="25"/><text class="j" x="806" y="772">any-expression</text></a><rect class="l" x="923" y="755" width="25" height="25" rx="7"/><text class="j" x="933" y="772">)</text><rect class="l" x="958" y="755" width="28" height="25" rx="7"/><text class="j" x="968" y="772">»</text><a xlink:href="#any"><rect class="r" x="996" y="755" width="43" height="25"/><text class="j" x="1006" y="772">any</text></a><rect class="l" x="25" y="785" width="25" height="25" rx="7"/><text class="j" x="35" y="802">(</text><rect class="l" x="60" y="785" width="45" height="25" rx="7"/><text class="j" x="70" y="802">rest</text><a xlink:href="#vector"><rect class="r" x="115" y="785" width="59" height="25"/><text class="j" x="125" y="802">vector</text></a><rect class="l" x="184" y="785" width="25" height="25" rx="7"/><text class="j" x="194" y="802">)</text><rect class="l" x="219" y="785" width="28" height="25" rx="7"/><text class="j" x="229" y="802">»</text><a xlink:href="#vector"><rect class="r" x="257" y="785" width="59" height="25"/><text class="j" x="267" y="802">vector</text></a><rect class="l" x="25" y="815" width="25" height="25" rx="7"/><text class="j" x="35" y="832">(</text><rect class="l" x="60" y="815" width="45" height="25" rx="7"/><text class="j" x="70" y="832">sort</text><a xlink:href="#set"><rect class="r" x="135" y="815" width="40" height="25"/><text class="j" x="145" y="832">set</text></a><a xlink:href="#vector"><rect class="r" x="135" y="845" width="59" height="25"/><text class="j" x="145" y="862">vector</text></a><rect class="l" x="224" y="815" width="25" height="25" rx="7"/><text class="j" x="234" y="832">)</text><rect class="l" x="259" y="815" width="28" height="25" rx="7"/><text class="j" x="269" y="832">»</text><a xlink:href="#vector"><rect class="r" x="297" y="815" width="59" height="25"/><text class="j" x="307" y="832">vector</text></a><rect class="l" x="25" y="875" width="25" height="25" rx="7"/><text class="j" x="35" y="892">(</text><rect class="l" x="60" y="875" width="65" height="25" rx="7"/><text class="j" x="70" y="892">sort-by</text><rect class="l" x="135" y="875" width="25" height="25" rx="7"/><text class="j" x="145" y="892">[</text><a xlink:href="#symbol:element"><rect class="r" x="170" y="875" width="120" height="25"/><text class="j" x="180" y="892">symbol:element</text></a><a xlink:href="#set"><rect class="r" x="320" y="875" width="40" height="25"/><text class="j" x="330" y="892">set</text></a><a xlink:href="#vector"><rect class="r" x="320" y="905" width="59" height="25"/><text class="j" x="330" y="922">vector</text></a><rect class="l" x="409" y="875" width="25" height="25" rx="7"/><text class="j" x="419" y="892">]</text><a xlink:href="#integer-expression"><rect class="r" x="464" y="875" width="139" height="25"/><text class="j" x="474" y="892">integer-expression</text></a><a xlink:href="#fixed-decimal-expression"><rect class="r" x="464" y="905" width="176" height="25"/><text class="j" x="474" y="922">fixed-decimal-expression</text></a><rect class="l" x="670" y="875" width="25" height="25" rx="7"/><text class="j" x="680" y="892">)</text><rect class="l" x="705" y="875" width="28" height="25" rx="7"/><text class="j" x="715" y="892">»</text><a xlink:href="#vector"><rect class="r" x="743" y="875" width="59" height="25"/><text class="j" x="753" y="892">vector</text></a></svg>