<svg version="1.1" xmlns:xlink="http://www.w3.org/1999/xlink" xmlns="http://www.w3.org/2000/svg" width="1015" height="1055" viewbox="0 0 1015 1055"><defs><style type="text/css">.c{fill: none; stroke: #888888; stroke-width: 2px;}.i{fill:#000000;font-family:Verdana,Sans-serif;font-size:12px;}.l{fill:#90d9ff;stroke:#222222;}.r{fill:#d3f0ff;stroke:#222222;}</style></defs><path class="c" d="M0 18h25m52 0h10m35 0h10m52 0h10m28 0h10m66 0h712m-995 25q0 5 5 5h5m52 0h10m40 0h10m52 0h10m28 0h10m66 0h692q5 0 5-5m-985 30q0 5 5 5h5m70 0h10m24 0h10m146 0h10m28 0h10m42 0h620q5 0 5-5m-985 30q0 5 5 5h5m57 0h10m25 0h10m62 0h10m25 0h10m28 0h10m52 0h671q5 0 5-5m-985 45q0 5 5 5h25m111 0h10m24 0h10m146 0h20m-336 0q5 0 5 5v20q0 5 5 5h5m98 0h10m25 0h10m62 0h10m25 0h66q5 0 5-5v-20q0-5 5-5m5 0h50m-5 0q-5 0-5-5v-17q0-5 5-5h230q5 0 5 5v17q0 5-5 5m-225 0h20m24 0h10m146 0h20m-215 0q5 0 5 5v20q0 5 5 5h5m25 0h10m62 0h10m25 0h53q5 0 5-5v-20q0-5 5-5m5 0h40m-295 0q5 0 5 5v38q0 5 5 5h270q5 0 5-5v-38q0-5 5-5m5 0h10m28 0h10m42 0h229q5 0 5-5m-985 75q0 5 5 5h5m49 0h10m25 0h10m62 0h10m31 0h30m38 0h39m-92 0q5 0 5 5v20q0 5 5 5h5m57 0h5q5 0 5-5v-20q0-5 5-5m5 0h10m25 0h10m134 0h10m28 0h10m66 0h373q5 0 5-5m-985 60q0 5 5 5h5m57 0h10m24 0h10m59 0h10m25 0h10m57 0h10m25 0h10m28 0h10m57 0h568q5 0 5-5m-985 30q0 5 5 5h5m38 0h10m24 0h10m59 0h10m25 0h30m38 0h39m-92 0q5 0 5 5v20q0 5 5 5h5m57 0h5q5 0 5-5v-20q0-5 5-5m5 0h10m25 0h10m28 0h10m38 0h566q5 0 5-5m-985 90q0 5 5 5h5m38 0h10m24 0h10m45 0h10m25 0h30m-5 0q-5 0-5-5v-20q0-5 5-5h19m24 0h19q5 0 5 5v20q0 5-5 5m-5 0h30m25 0h10m28 0h10m38 0h585q5 0 5-5m-985 60q0 5 5 5h5m57 0h10m24 0h10m45 0h10m25 0h30m-5 0q-5 0-5-5v-20q0-5 5-5h19m24 0h19q5 0 5 5v20q0 5-5 5m-5 0h30m25 0h10m28 0h10m57 0h547q5 0 5-5m-985 30q0 5 5 5h25m38 0h39m-92 0q5 0 5 5v20q0 5 5 5h5m57 0h5q5 0 5-5v-20q0-5 5-5m5 0h10m24 0h10m64 0h10m28 0h10m62 0h655q5 0 5-5m-985 90q0 5 5 5h5m66 0h10m25 0h10m52 0h10m24 0h30m-5 0q-5 0-5-5v-20q0-5 5-5h19m24 0h19q5 0 5 5v20q0 5-5 5m-5 0h30m25 0h10m28 0h10m66 0h522q5 0 5-5m-985 30q0 5 5 5h5m60 0h10m25 0h10m62 0h10m31 0h30m38 0h39m-92 0q5 0 5 5v20q0 5 5 5h5m57 0h5q5 0 5-5v-20q0-5 5-5m5 0h10m25 0h10m134 0h10m28 0h10m66 0h362q5 0 5-5m-985 60q0 5 5 5h5m47 0h10m25 0h10m62 0h10m31 0h10m38 0h10m25 0h10m134 0h10m28 0h10m38 0h462q5 0 5-5m-985 30q0 5 5 5h5m47 0h10m25 0h10m62 0h10m31 0h10m57 0h10m25 0h10m134 0h10m28 0h10m57 0h424q5 0 5-5m-985 30q0 5 5 5h5m57 0h10m24 0h10m53 0h10m28 0h10m52 0h716q5 0 5-5m-985 30q0 5 5 5h5m46 0h10m25 0h10m116 0h10m31 0h10m38 0h10m25 0h10m120 0h10m28 0h10m38 0h423q5 0 5-5m-985 30q0 5 5 5h5m46 0h10m25 0h10m116 0h10m31 0h10m57 0h10m25 0h10m120 0h10m28 0h10m57 0h385q5 0 5-5m-985 60q0 5 5 5h5m87 0h10m25 0h10m52 0h10m24 0h30m-5 0q-5 0-5-5v-20q0-5 5-5h19m24 0h19q5 0 5 5v20q0 5-5 5m-5 0h30m25 0h10m28 0h10m66 0h501q5 0 5-5m-985 30q0 5 5 5h5m60 0h10m25 0h10m141 0h10m30 0h10m155 0h10m25 0h10m116 0h10m31 0h10m57 0h10m25 0h10m110 0h10m28 0h10m42 0h5q5 0 5-5m-985 30q0 5 5 5h5m57 0h10m24 0h10m53 0h10m28 0h10m57 0h711q5 0 5-5m-985 30q0 5 5 5h25m38 0h39m-92 0q5 0 5 5v20q0 5 5 5h5m57 0h5q5 0 5-5v-20q0-5 5-5m5 0h10m24 0h10m53 0h10m28 0h10m57 0h671q5 0 5-5m-990-925q5 0 5 5v980q0 5 5 5h5m58 0h10m25 0h10m116 0h10m31 0h30m38 0h39m-92 0q5 0 5 5v20q0 5 5 5h5m57 0h5q5 0 5-5v-20q0-5 5-5m5 0h10m25 0h30m130 0h56m-201 0q5 0 5 5v20q0 5 5 5h5m166 0h5q5 0 5-5v-20q0-5 5-5m5 0h10m28 0h10m57 0h247q5 0 5-5v-980q0-5 5-5m5 0h5"/><a xlink:href="#value"><rect class="r" x="25" y="5" width="52" height="25"/><text class="i" x="35" y="22">value</text></a><rect class="l" x="87" y="5" width="35" height="25" rx="7"/><text class="i" x="97" y="22">!=</text><a xlink:href="#value"><rect class="r" x="132" y="5" width="52" height="25"/><text class="i" x="142" y="22">value</text></a><rect class="l" x="194" y="5" width="28" height="25" rx="7"/><text class="i" x="204" y="22">»</text><a xlink:href="#boolean"><rect class="r" x="232" y="5" width="66" height="25"/><text class="i" x="242" y="22">boolean</text></a><a xlink:href="#value"><rect class="r" x="25" y="35" width="52" height="25"/><text class="i" x="35" y="52">value</text></a><rect class="l" x="87" y="35" width="40" height="25" rx="7"/><text class="i" x="97" y="52">==</text><a xlink:href="#value"><rect class="r" x="137" y="35" width="52" height="25"/><text class="i" x="147" y="52">value</text></a><rect class="l" x="199" y="35" width="28" height="25" rx="7"/><text class="i" x="209" y="52">»</text><a xlink:href="#boolean"><rect class="r" x="237" y="35" width="66" height="25"/><text class="i" x="247" y="52">boolean</text></a><a xlink:href="#instance"><rect class="r" x="25" y="65" width="70" height="25"/><text class="i" x="35" y="82">instance</text></a><rect class="l" x="105" y="65" width="24" height="25" rx="7"/><text class="i" x="115" y="82">.</text><a xlink:href="#symbol:instance-field"><rect class="r" x="139" y="65" width="146" height="25"/><text class="i" x="149" y="82">symbol:instance-field</text></a><rect class="l" x="295" y="65" width="28" height="25" rx="7"/><text class="i" x="305" y="82">»</text><a xlink:href="#any"><rect class="r" x="333" y="65" width="42" height="25"/><text class="i" x="343" y="82">any</text></a><a xlink:href="#vector"><rect class="r" x="25" y="95" width="57" height="25"/><text class="i" x="35" y="112">vector</text></a><rect class="l" x="92" y="95" width="25" height="25" rx="7"/><text class="i" x="102" y="112">[</text><a xlink:href="#integer"><rect class="r" x="127" y="95" width="62" height="25"/><text class="i" x="137" y="112">integer</text></a><rect class="l" x="199" y="95" width="25" height="25" rx="7"/><text class="i" x="209" y="112">]</text><rect class="l" x="234" y="95" width="28" height="25" rx="7"/><text class="i" x="244" y="112">»</text><a xlink:href="#value"><rect class="r" x="272" y="95" width="52" height="25"/><text class="i" x="282" y="112">value</text></a><a xlink:href="#instance:target"><rect class="r" x="45" y="140" width="111" height="25"/><text class="i" x="55" y="157">instance:target</text></a><rect class="l" x="166" y="140" width="24" height="25" rx="7"/><text class="i" x="176" y="157">.</text><a xlink:href="#symbol:instance-field"><rect class="r" x="200" y="140" width="146" height="25"/><text class="i" x="210" y="157">symbol:instance-field</text></a><a xlink:href="#vector:target"><rect class="r" x="45" y="170" width="98" height="25"/><text class="i" x="55" y="187">vector:target</text></a><rect class="l" x="153" y="170" width="25" height="25" rx="7"/><text class="i" x="163" y="187">[</text><a xlink:href="#integer"><rect class="r" x="188" y="170" width="62" height="25"/><text class="i" x="198" y="187">integer</text></a><rect class="l" x="260" y="170" width="25" height="25" rx="7"/><text class="i" x="270" y="187">]</text><rect class="l" x="436" y="140" width="24" height="25" rx="7"/><text class="i" x="446" y="157">.</text><a xlink:href="#symbol:instance-field"><rect class="r" x="470" y="140" width="146" height="25"/><text class="i" x="480" y="157">symbol:instance-field</text></a><rect class="l" x="436" y="170" width="25" height="25" rx="7"/><text class="i" x="446" y="187">[</text><a xlink:href="#integer"><rect class="r" x="471" y="170" width="62" height="25"/><text class="i" x="481" y="187">integer</text></a><rect class="l" x="543" y="170" width="25" height="25" rx="7"/><text class="i" x="553" y="187">]</text><rect class="l" x="686" y="140" width="28" height="25" rx="7"/><text class="i" x="696" y="157">»</text><a xlink:href="#any"><rect class="r" x="724" y="140" width="42" height="25"/><text class="i" x="734" y="157">any</text></a><rect class="l" x="25" y="215" width="49" height="25" rx="7"/><text class="i" x="35" y="232">any?</text><rect class="l" x="84" y="215" width="25" height="25" rx="7"/><text class="i" x="94" y="232">(</text><a xlink:href="#symbol"><rect class="r" x="119" y="215" width="62" height="25"/><text class="i" x="129" y="232">symbol</text></a><rect class="l" x="191" y="215" width="31" height="25" rx="7"/><text class="i" x="201" y="232">in</text><a xlink:href="#set"><rect class="r" x="252" y="215" width="38" height="25"/><text class="i" x="262" y="232">set</text></a><a xlink:href="#vector"><rect class="r" x="252" y="245" width="57" height="25"/><text class="i" x="262" y="262">vector</text></a><rect class="l" x="339" y="215" width="25" height="25" rx="7"/><text class="i" x="349" y="232">)</text><a xlink:href="#boolean-expression"><rect class="r" x="374" y="215" width="134" height="25"/><text class="i" x="384" y="232">boolean-expression</text></a><rect class="l" x="518" y="215" width="28" height="25" rx="7"/><text class="i" x="528" y="232">»</text><a xlink:href="#boolean"><rect class="r" x="556" y="215" width="66" height="25"/><text class="i" x="566" y="232">boolean</text></a><a xlink:href="#vector"><rect class="r" x="25" y="275" width="57" height="25"/><text class="i" x="35" y="292">vector</text></a><rect class="l" x="92" y="275" width="24" height="25" rx="7"/><text class="i" x="102" y="292">.</text><rect class="l" x="126" y="275" width="59" height="25" rx="7"/><text class="i" x="136" y="292">concat</text><rect class="l" x="195" y="275" width="25" height="25" rx="7"/><text class="i" x="205" y="292">(</text><a xlink:href="#vector"><rect class="r" x="230" y="275" width="57" height="25"/><text class="i" x="240" y="292">vector</text></a><rect class="l" x="297" y="275" width="25" height="25" rx="7"/><text class="i" x="307" y="292">)</text><rect class="l" x="332" y="275" width="28" height="25" rx="7"/><text class="i" x="342" y="292">»</text><a xlink:href="#vector"><rect class="r" x="370" y="275" width="57" height="25"/><text class="i" x="380" y="292">vector</text></a><a xlink:href="#set"><rect class="r" x="25" y="305" width="38" height="25"/><text class="i" x="35" y="322">set</text></a><rect class="l" x="73" y="305" width="24" height="25" rx="7"/><text class="i" x="83" y="322">.</text><rect class="l" x="107" y="305" width="59" height="25" rx="7"/><text class="i" x="117" y="322">concat</text><rect class="l" x="176" y="305" width="25" height="25" rx="7"/><text class="i" x="186" y="322">(</text><a xlink:href="#set"><rect class="r" x="231" y="305" width="38" height="25"/><text class="i" x="241" y="322">set</text></a><a xlink:href="#vector"><rect class="r" x="231" y="335" width="57" height="25"/><text class="i" x="241" y="352">vector</text></a><rect class="l" x="318" y="305" width="25" height="25" rx="7"/><text class="i" x="328" y="322">)</text><rect class="l" x="353" y="305" width="28" height="25" rx="7"/><text class="i" x="363" y="322">»</text><a xlink:href="#set"><rect class="r" x="391" y="305" width="38" height="25"/><text class="i" x="401" y="322">set</text></a><a xlink:href="#set"><rect class="r" x="25" y="395" width="38" height="25"/><text class="i" x="35" y="412">set</text></a><rect class="l" x="73" y="395" width="24" height="25" rx="7"/><text class="i" x="83" y="412">.</text><rect class="l" x="107" y="395" width="45" height="25" rx="7"/><text class="i" x="117" y="412">conj</text><rect class="l" x="162" y="395" width="25" height="25" rx="7"/><text class="i" x="172" y="412">(</text><rect class="l" x="231" y="365" width="24" height="25" rx="7"/><text class="i" x="241" y="382">,</text><a xlink:href="#value"><rect class="r" x="217" y="395" width="52" height="25"/><text class="i" x="227" y="412">value</text></a><rect class="l" x="299" y="395" width="25" height="25" rx="7"/><text class="i" x="309" y="412">)</text><rect class="l" x="334" y="395" width="28" height="25" rx="7"/><text class="i" x="344" y="412">»</text><a xlink:href="#set"><rect class="r" x="372" y="395" width="38" height="25"/><text class="i" x="382" y="412">set</text></a><a xlink:href="#vector"><rect class="r" x="25" y="455" width="57" height="25"/><text class="i" x="35" y="472">vector</text></a><rect class="l" x="92" y="455" width="24" height="25" rx="7"/><text class="i" x="102" y="472">.</text><rect class="l" x="126" y="455" width="45" height="25" rx="7"/><text class="i" x="136" y="472">conj</text><rect class="l" x="181" y="455" width="25" height="25" rx="7"/><text class="i" x="191" y="472">(</text><rect class="l" x="250" y="425" width="24" height="25" rx="7"/><text class="i" x="260" y="442">,</text><a xlink:href="#value"><rect class="r" x="236" y="455" width="52" height="25"/><text class="i" x="246" y="472">value</text></a><rect class="l" x="318" y="455" width="25" height="25" rx="7"/><text class="i" x="328" y="472">)</text><rect class="l" x="353" y="455" width="28" height="25" rx="7"/><text class="i" x="363" y="472">»</text><a xlink:href="#vector"><rect class="r" x="391" y="455" width="57" height="25"/><text class="i" x="401" y="472">vector</text></a><a xlink:href="#set"><rect class="r" x="45" y="485" width="38" height="25"/><text class="i" x="55" y="502">set</text></a><a xlink:href="#vector"><rect class="r" x="45" y="515" width="57" height="25"/><text class="i" x="55" y="532">vector</text></a><rect class="l" x="132" y="485" width="24" height="25" rx="7"/><text class="i" x="142" y="502">.</text><rect class="l" x="166" y="485" width="64" height="25" rx="7"/><text class="i" x="176" y="502">count()</text><rect class="l" x="240" y="485" width="28" height="25" rx="7"/><text class="i" x="250" y="502">»</text><a xlink:href="#integer"><rect class="r" x="278" y="485" width="62" height="25"/><text class="i" x="288" y="502">integer</text></a><rect class="l" x="25" y="575" width="66" height="25" rx="7"/><text class="i" x="35" y="592">equalTo</text><rect class="l" x="101" y="575" width="25" height="25" rx="7"/><text class="i" x="111" y="592">(</text><a xlink:href="#value"><rect class="r" x="136" y="575" width="52" height="25"/><text class="i" x="146" y="592">value</text></a><rect class="l" x="198" y="575" width="24" height="25" rx="7"/><text class="i" x="208" y="592">,</text><rect class="l" x="266" y="545" width="24" height="25" rx="7"/><text class="i" x="276" y="562">,</text><a xlink:href="#value"><rect class="r" x="252" y="575" width="52" height="25"/><text class="i" x="262" y="592">value</text></a><rect class="l" x="334" y="575" width="25" height="25" rx="7"/><text class="i" x="344" y="592">)</text><rect class="l" x="369" y="575" width="28" height="25" rx="7"/><text class="i" x="379" y="592">»</text><a xlink:href="#boolean"><rect class="r" x="407" y="575" width="66" height="25"/><text class="i" x="417" y="592">boolean</text></a><rect class="l" x="25" y="605" width="60" height="25" rx="7"/><text class="i" x="35" y="622">every?</text><rect class="l" x="95" y="605" width="25" height="25" rx="7"/><text class="i" x="105" y="622">(</text><a xlink:href="#symbol"><rect class="r" x="130" y="605" width="62" height="25"/><text class="i" x="140" y="622">symbol</text></a><rect class="l" x="202" y="605" width="31" height="25" rx="7"/><text class="i" x="212" y="622">in</text><a xlink:href="#set"><rect class="r" x="263" y="605" width="38" height="25"/><text class="i" x="273" y="622">set</text></a><a xlink:href="#vector"><rect class="r" x="263" y="635" width="57" height="25"/><text class="i" x="273" y="652">vector</text></a><rect class="l" x="350" y="605" width="25" height="25" rx="7"/><text class="i" x="360" y="622">)</text><a xlink:href="#boolean-expression"><rect class="r" x="385" y="605" width="134" height="25"/><text class="i" x="395" y="622">boolean-expression</text></a><rect class="l" x="529" y="605" width="28" height="25" rx="7"/><text class="i" x="539" y="622">»</text><a xlink:href="#boolean"><rect class="r" x="567" y="605" width="66" height="25"/><text class="i" x="577" y="622">boolean</text></a><rect class="l" x="25" y="665" width="47" height="25" rx="7"/><text class="i" x="35" y="682">filter</text><rect class="l" x="82" y="665" width="25" height="25" rx="7"/><text class="i" x="92" y="682">(</text><a xlink:href="#symbol"><rect class="r" x="117" y="665" width="62" height="25"/><text class="i" x="127" y="682">symbol</text></a><rect class="l" x="189" y="665" width="31" height="25" rx="7"/><text class="i" x="199" y="682">in</text><a xlink:href="#set"><rect class="r" x="230" y="665" width="38" height="25"/><text class="i" x="240" y="682">set</text></a><rect class="l" x="278" y="665" width="25" height="25" rx="7"/><text class="i" x="288" y="682">)</text><a xlink:href="#boolean-expression"><rect class="r" x="313" y="665" width="134" height="25"/><text class="i" x="323" y="682">boolean-expression</text></a><rect class="l" x="457" y="665" width="28" height="25" rx="7"/><text class="i" x="467" y="682">»</text><a xlink:href="#set"><rect class="r" x="495" y="665" width="38" height="25"/><text class="i" x="505" y="682">set</text></a><rect class="l" x="25" y="695" width="47" height="25" rx="7"/><text class="i" x="35" y="712">filter</text><rect class="l" x="82" y="695" width="25" height="25" rx="7"/><text class="i" x="92" y="712">(</text><a xlink:href="#symbol"><rect class="r" x="117" y="695" width="62" height="25"/><text class="i" x="127" y="712">symbol</text></a><rect class="l" x="189" y="695" width="31" height="25" rx="7"/><text class="i" x="199" y="712">in</text><a xlink:href="#vector"><rect class="r" x="230" y="695" width="57" height="25"/><text class="i" x="240" y="712">vector</text></a><rect class="l" x="297" y="695" width="25" height="25" rx="7"/><text class="i" x="307" y="712">)</text><a xlink:href="#boolean-expression"><rect class="r" x="332" y="695" width="134" height="25"/><text class="i" x="342" y="712">boolean-expression</text></a><rect class="l" x="476" y="695" width="28" height="25" rx="7"/><text class="i" x="486" y="712">»</text><a xlink:href="#vector"><rect class="r" x="514" y="695" width="57" height="25"/><text class="i" x="524" y="712">vector</text></a><a xlink:href="#vector"><rect class="r" x="25" y="725" width="57" height="25"/><text class="i" x="35" y="742">vector</text></a><rect class="l" x="92" y="725" width="24" height="25" rx="7"/><text class="i" x="102" y="742">.</text><rect class="l" x="126" y="725" width="53" height="25" rx="7"/><text class="i" x="136" y="742">first()</text><rect class="l" x="189" y="725" width="28" height="25" rx="7"/><text class="i" x="199" y="742">»</text><a xlink:href="#value"><rect class="r" x="227" y="725" width="52" height="25"/><text class="i" x="237" y="742">value</text></a><rect class="l" x="25" y="755" width="46" height="25" rx="7"/><text class="i" x="35" y="772">map</text><rect class="l" x="81" y="755" width="25" height="25" rx="7"/><text class="i" x="91" y="772">(</text><a xlink:href="#symbol:element"><rect class="r" x="116" y="755" width="116" height="25"/><text class="i" x="126" y="772">symbol:element</text></a><rect class="l" x="242" y="755" width="31" height="25" rx="7"/><text class="i" x="252" y="772">in</text><a xlink:href="#set"><rect class="r" x="283" y="755" width="38" height="25"/><text class="i" x="293" y="772">set</text></a><rect class="l" x="331" y="755" width="25" height="25" rx="7"/><text class="i" x="341" y="772">)</text><a xlink:href="#value-expression"><rect class="r" x="366" y="755" width="120" height="25"/><text class="i" x="376" y="772">value-expression</text></a><rect class="l" x="496" y="755" width="28" height="25" rx="7"/><text class="i" x="506" y="772">»</text><a xlink:href="#set"><rect class="r" x="534" y="755" width="38" height="25"/><text class="i" x="544" y="772">set</text></a><rect class="l" x="25" y="785" width="46" height="25" rx="7"/><text class="i" x="35" y="802">map</text><rect class="l" x="81" y="785" width="25" height="25" rx="7"/><text class="i" x="91" y="802">(</text><a xlink:href="#symbol:element"><rect class="r" x="116" y="785" width="116" height="25"/><text class="i" x="126" y="802">symbol:element</text></a><rect class="l" x="242" y="785" width="31" height="25" rx="7"/><text class="i" x="252" y="802">in</text><a xlink:href="#vector"><rect class="r" x="283" y="785" width="57" height="25"/><text class="i" x="293" y="802">vector</text></a><rect class="l" x="350" y="785" width="25" height="25" rx="7"/><text class="i" x="360" y="802">)</text><a xlink:href="#value-expression"><rect class="r" x="385" y="785" width="120" height="25"/><text class="i" x="395" y="802">value-expression</text></a><rect class="l" x="515" y="785" width="28" height="25" rx="7"/><text class="i" x="525" y="802">»</text><a xlink:href="#vector"><rect class="r" x="553" y="785" width="57" height="25"/><text class="i" x="563" y="802">vector</text></a><rect class="l" x="25" y="845" width="87" height="25" rx="7"/><text class="i" x="35" y="862">notEqualTo</text><rect class="l" x="122" y="845" width="25" height="25" rx="7"/><text class="i" x="132" y="862">(</text><a xlink:href="#value"><rect class="r" x="157" y="845" width="52" height="25"/><text class="i" x="167" y="862">value</text></a><rect class="l" x="219" y="845" width="24" height="25" rx="7"/><text class="i" x="229" y="862">,</text><rect class="l" x="287" y="815" width="24" height="25" rx="7"/><text class="i" x="297" y="832">,</text><a xlink:href="#value"><rect class="r" x="273" y="845" width="52" height="25"/><text class="i" x="283" y="862">value</text></a><rect class="l" x="355" y="845" width="25" height="25" rx="7"/><text class="i" x="365" y="862">)</text><rect class="l" x="390" y="845" width="28" height="25" rx="7"/><text class="i" x="400" y="862">»</text><a xlink:href="#boolean"><rect class="r" x="428" y="845" width="66" height="25"/><text class="i" x="438" y="862">boolean</text></a><rect class="l" x="25" y="875" width="60" height="25" rx="7"/><text class="i" x="35" y="892">reduce</text><rect class="l" x="95" y="875" width="25" height="25" rx="7"/><text class="i" x="105" y="892">(</text><a xlink:href="#symbol:accumulator"><rect class="r" x="130" y="875" width="141" height="25"/><text class="i" x="140" y="892">symbol:accumulator</text></a><rect class="l" x="281" y="875" width="30" height="25" rx="7"/><text class="i" x="291" y="892">=</text><a xlink:href="#value:accumulator-init"><rect class="r" x="321" y="875" width="155" height="25"/><text class="i" x="331" y="892">value:accumulator-init</text></a><rect class="l" x="486" y="875" width="25" height="25" rx="7"/><text class="i" x="496" y="892">;</text><a xlink:href="#symbol:element"><rect class="r" x="521" y="875" width="116" height="25"/><text class="i" x="531" y="892">symbol:element</text></a><rect class="l" x="647" y="875" width="31" height="25" rx="7"/><text class="i" x="657" y="892">in</text><a xlink:href="#vector"><rect class="r" x="688" y="875" width="57" height="25"/><text class="i" x="698" y="892">vector</text></a><rect class="l" x="755" y="875" width="25" height="25" rx="7"/><text class="i" x="765" y="892">)</text><a xlink:href="#any-expression"><rect class="r" x="790" y="875" width="110" height="25"/><text class="i" x="800" y="892">any-expression</text></a><rect class="l" x="910" y="875" width="28" height="25" rx="7"/><text class="i" x="920" y="892">»</text><a xlink:href="#any"><rect class="r" x="948" y="875" width="42" height="25"/><text class="i" x="958" y="892">any</text></a><a xlink:href="#vector"><rect class="r" x="25" y="905" width="57" height="25"/><text class="i" x="35" y="922">vector</text></a><rect class="l" x="92" y="905" width="24" height="25" rx="7"/><text class="i" x="102" y="922">.</text><rect class="l" x="126" y="905" width="53" height="25" rx="7"/><text class="i" x="136" y="922">rest()</text><rect class="l" x="189" y="905" width="28" height="25" rx="7"/><text class="i" x="199" y="922">»</text><a xlink:href="#vector"><rect class="r" x="227" y="905" width="57" height="25"/><text class="i" x="237" y="922">vector</text></a><a xlink:href="#set"><rect class="r" x="45" y="935" width="38" height="25"/><text class="i" x="55" y="952">set</text></a><a xlink:href="#vector"><rect class="r" x="45" y="965" width="57" height="25"/><text class="i" x="55" y="982">vector</text></a><rect class="l" x="132" y="935" width="24" height="25" rx="7"/><text class="i" x="142" y="952">.</text><rect class="l" x="166" y="935" width="53" height="25" rx="7"/><text class="i" x="176" y="952">sort()</text><rect class="l" x="229" y="935" width="28" height="25" rx="7"/><text class="i" x="239" y="952">»</text><a xlink:href="#vector"><rect class="r" x="267" y="935" width="57" height="25"/><text class="i" x="277" y="952">vector</text></a><rect class="l" x="25" y="995" width="58" height="25" rx="7"/><text class="i" x="35" y="1012">sortBy</text><rect class="l" x="93" y="995" width="25" height="25" rx="7"/><text class="i" x="103" y="1012">(</text><a xlink:href="#symbol:element"><rect class="r" x="128" y="995" width="116" height="25"/><text class="i" x="138" y="1012">symbol:element</text></a><rect class="l" x="254" y="995" width="31" height="25" rx="7"/><text class="i" x="264" y="1012">in</text><a xlink:href="#set"><rect class="r" x="315" y="995" width="38" height="25"/><text class="i" x="325" y="1012">set</text></a><a xlink:href="#vector"><rect class="r" x="315" y="1025" width="57" height="25"/><text class="i" x="325" y="1042">vector</text></a><rect class="l" x="402" y="995" width="25" height="25" rx="7"/><text class="i" x="412" y="1012">)</text><a xlink:href="#integer-expression"><rect class="r" x="457" y="995" width="130" height="25"/><text class="i" x="467" y="1012">integer-expression</text></a><a xlink:href="#fixed-decimal-expression"><rect class="r" x="457" y="1025" width="166" height="25"/><text class="i" x="467" y="1042">fixed-decimal-expression</text></a><rect class="l" x="653" y="995" width="28" height="25" rx="7"/><text class="i" x="663" y="1012">»</text><a xlink:href="#vector"><rect class="r" x="691" y="995" width="57" height="25"/><text class="i" x="701" y="1012">vector</text></a></svg>