<!--
RULE = ( ( ( vector '.' 'concat' '('  vector ')' '»' vector ) |
( (set '.' 'concat' '(' (set | vector) ')') '»' set ) )  |
 ( ( set '.' 'conj' '(' value {',' value} ')' '»' set ) |
( vector '.' 'conj' '(' value {',' value} ')' '»' vector ) )  |
 ( ( 'filter' '(' symbol 'in' set ')' boolean-expression '»' set ) |
( 'filter' '(' symbol 'in' vector ')' boolean-expression '»' vector ) )  |
 ( ( 'map' '(' symbol:element 'in' set ')' value-expression '»' set ) |
( 'map' '(' symbol:element 'in' vector ')' value-expression '»' vector ) )  |
 ( ( 'range' '(' [integer:start ','] integer:end [',' integer:increment] ')' '»' vector ) )  |
 ( ( vector '.' 'rest()' '»' vector ) )  |
 ( ( (set | vector) '.' 'sort()' '»' vector ) )  |
 ( ( 'sortBy' '(' symbol:element 'in' (set | vector) ')' (integer-expression | fixed-decimal-expression) '»' vector ) ) );
-->
<svg version="1.1" xmlns:xlink="http://www.w3.org/1999/xlink" xmlns="http://www.w3.org/2000/svg" width="793" height="530" viewbox="0 0 793 530"><defs><style type="text/css">.c{fill: none; stroke: #888888; stroke-width: 2px;}.i{fill:#000000;font-family:Verdana,Sans-serif;font-size:12px;}.l{fill:#90d9ff;stroke:#222222;}.r{fill:#d3f0ff;stroke:#222222;}</style></defs><path class="c" d="M0 18h25m59 0h10m24 0h10m61 0h10m25 0h10m59 0h10m25 0h10m28 0h10m59 0h353m-773 25q0 5 5 5h5m40 0h10m24 0h10m61 0h10m25 0h30m40 0h39m-94 0q5 0 5 5v20q0 5 5 5h5m59 0h5q5 0 5-5v-20q0-5 5-5m5 0h10m25 0h10m28 0h10m40 0h336q5 0 5-5m-763 90q0 5 5 5h5m40 0h10m24 0h10m46 0h10m25 0h30m-5 0q-5 0-5-5v-20q0-5 5-5h20m24 0h20q5 0 5 5v20q0 5-5 5m-5 0h30m25 0h10m28 0h10m40 0h356q5 0 5-5m-763 60q0 5 5 5h5m59 0h10m24 0h10m46 0h10m25 0h30m-5 0q-5 0-5-5v-20q0-5 5-5h20m24 0h20q5 0 5 5v20q0 5-5 5m-5 0h30m25 0h10m28 0h10m59 0h318q5 0 5-5m-763 30q0 5 5 5h5m48 0h10m25 0h10m64 0h10m31 0h10m40 0h10m25 0h10m145 0h10m28 0h10m40 0h222q5 0 5-5m-763 30q0 5 5 5h5m48 0h10m25 0h10m64 0h10m31 0h10m59 0h10m25 0h10m145 0h10m28 0h10m59 0h184q5 0 5-5m-763 30q0 5 5 5h5m47 0h10m25 0h10m120 0h10m31 0h10m40 0h10m25 0h10m128 0h10m28 0h10m40 0h184q5 0 5-5m-763 30q0 5 5 5h5m47 0h10m25 0h10m120 0h10m31 0h10m59 0h10m25 0h10m128 0h10m28 0h10m59 0h146q5 0 5-5m-763 30q0 5 5 5h5m57 0h10m25 0h30m100 0h10m24 0h20m-169 0q5 0 5 5v8q0 5 5 5h144q5 0 5-5v-8q0-5 5-5m5 0h10m94 0h30m24 0h10m132 0h20m-201 0q5 0 5 5v8q0 5 5 5h176q5 0 5-5v-8q0-5 5-5m5 0h10m25 0h10m28 0h10m59 0h10q5 0 5-5m-763 45q0 5 5 5h5m59 0h10m24 0h10m55 0h10m28 0h10m59 0h483q5 0 5-5m-763 30q0 5 5 5h25m40 0h39m-94 0q5 0 5 5v20q0 5 5 5h5m59 0h5q5 0 5-5v-20q0-5 5-5m5 0h10m24 0h10m55 0h10m28 0h10m59 0h443q5 0 5-5m-768-400q5 0 5 5v455q0 5 5 5h5m60 0h10m25 0h10m120 0h10m31 0h30m40 0h39m-94 0q5 0 5 5v20q0 5 5 5h5m59 0h5q5 0 5-5v-20q0-5 5-5m5 0h10m25 0h30m139 0h57m-211 0q5 0 5 5v20q0 5 5 5h5m176 0h5q5 0 5-5v-20q0-5 5-5m5 0h10m28 0h10m59 0h5q5 0 5-5v-455q0-5 5-5m5 0h5"/><a xlink:href="#vector"><rect class="r" x="25" y="5" width="59" height="25"/><text class="i" x="35" y="22">vector</text></a><rect class="l" x="94" y="5" width="24" height="25" rx="7"/><text class="i" x="104" y="22">.</text><rect class="l" x="128" y="5" width="61" height="25" rx="7"/><text class="i" x="138" y="22">concat</text><rect class="l" x="199" y="5" width="25" height="25" rx="7"/><text class="i" x="209" y="22">(</text><a xlink:href="#vector"><rect class="r" x="234" y="5" width="59" height="25"/><text class="i" x="244" y="22">vector</text></a><rect class="l" x="303" y="5" width="25" height="25" rx="7"/><text class="i" x="313" y="22">)</text><rect class="l" x="338" y="5" width="28" height="25" rx="7"/><text class="i" x="348" y="22">»</text><a xlink:href="#vector"><rect class="r" x="376" y="5" width="59" height="25"/><text class="i" x="386" y="22">vector</text></a><a xlink:href="#set"><rect class="r" x="25" y="35" width="40" height="25"/><text class="i" x="35" y="52">set</text></a><rect class="l" x="75" y="35" width="24" height="25" rx="7"/><text class="i" x="85" y="52">.</text><rect class="l" x="109" y="35" width="61" height="25" rx="7"/><text class="i" x="119" y="52">concat</text><rect class="l" x="180" y="35" width="25" height="25" rx="7"/><text class="i" x="190" y="52">(</text><a xlink:href="#set"><rect class="r" x="235" y="35" width="40" height="25"/><text class="i" x="245" y="52">set</text></a><a xlink:href="#vector"><rect class="r" x="235" y="65" width="59" height="25"/><text class="i" x="245" y="82">vector</text></a><rect class="l" x="324" y="35" width="25" height="25" rx="7"/><text class="i" x="334" y="52">)</text><rect class="l" x="359" y="35" width="28" height="25" rx="7"/><text class="i" x="369" y="52">»</text><a xlink:href="#set"><rect class="r" x="397" y="35" width="40" height="25"/><text class="i" x="407" y="52">set</text></a><a xlink:href="#set"><rect class="r" x="25" y="125" width="40" height="25"/><text class="i" x="35" y="142">set</text></a><rect class="l" x="75" y="125" width="24" height="25" rx="7"/><text class="i" x="85" y="142">.</text><rect class="l" x="109" y="125" width="46" height="25" rx="7"/><text class="i" x="119" y="142">conj</text><rect class="l" x="165" y="125" width="25" height="25" rx="7"/><text class="i" x="175" y="142">(</text><rect class="l" x="235" y="95" width="24" height="25" rx="7"/><text class="i" x="245" y="112">,</text><a xlink:href="#value"><rect class="r" x="220" y="125" width="54" height="25"/><text class="i" x="230" y="142">value</text></a><rect class="l" x="304" y="125" width="25" height="25" rx="7"/><text class="i" x="314" y="142">)</text><rect class="l" x="339" y="125" width="28" height="25" rx="7"/><text class="i" x="349" y="142">»</text><a xlink:href="#set"><rect class="r" x="377" y="125" width="40" height="25"/><text class="i" x="387" y="142">set</text></a><a xlink:href="#vector"><rect class="r" x="25" y="185" width="59" height="25"/><text class="i" x="35" y="202">vector</text></a><rect class="l" x="94" y="185" width="24" height="25" rx="7"/><text class="i" x="104" y="202">.</text><rect class="l" x="128" y="185" width="46" height="25" rx="7"/><text class="i" x="138" y="202">conj</text><rect class="l" x="184" y="185" width="25" height="25" rx="7"/><text class="i" x="194" y="202">(</text><rect class="l" x="254" y="155" width="24" height="25" rx="7"/><text class="i" x="264" y="172">,</text><a xlink:href="#value"><rect class="r" x="239" y="185" width="54" height="25"/><text class="i" x="249" y="202">value</text></a><rect class="l" x="323" y="185" width="25" height="25" rx="7"/><text class="i" x="333" y="202">)</text><rect class="l" x="358" y="185" width="28" height="25" rx="7"/><text class="i" x="368" y="202">»</text><a xlink:href="#vector"><rect class="r" x="396" y="185" width="59" height="25"/><text class="i" x="406" y="202">vector</text></a><rect class="l" x="25" y="215" width="48" height="25" rx="7"/><text class="i" x="35" y="232">filter</text><rect class="l" x="83" y="215" width="25" height="25" rx="7"/><text class="i" x="93" y="232">(</text><a xlink:href="#symbol"><rect class="r" x="118" y="215" width="64" height="25"/><text class="i" x="128" y="232">symbol</text></a><rect class="l" x="192" y="215" width="31" height="25" rx="7"/><text class="i" x="202" y="232">in</text><a xlink:href="#set"><rect class="r" x="233" y="215" width="40" height="25"/><text class="i" x="243" y="232">set</text></a><rect class="l" x="283" y="215" width="25" height="25" rx="7"/><text class="i" x="293" y="232">)</text><a xlink:href="#boolean-expression"><rect class="r" x="318" y="215" width="145" height="25"/><text class="i" x="328" y="232">boolean-expression</text></a><rect class="l" x="473" y="215" width="28" height="25" rx="7"/><text class="i" x="483" y="232">»</text><a xlink:href="#set"><rect class="r" x="511" y="215" width="40" height="25"/><text class="i" x="521" y="232">set</text></a><rect class="l" x="25" y="245" width="48" height="25" rx="7"/><text class="i" x="35" y="262">filter</text><rect class="l" x="83" y="245" width="25" height="25" rx="7"/><text class="i" x="93" y="262">(</text><a xlink:href="#symbol"><rect class="r" x="118" y="245" width="64" height="25"/><text class="i" x="128" y="262">symbol</text></a><rect class="l" x="192" y="245" width="31" height="25" rx="7"/><text class="i" x="202" y="262">in</text><a xlink:href="#vector"><rect class="r" x="233" y="245" width="59" height="25"/><text class="i" x="243" y="262">vector</text></a><rect class="l" x="302" y="245" width="25" height="25" rx="7"/><text class="i" x="312" y="262">)</text><a xlink:href="#boolean-expression"><rect class="r" x="337" y="245" width="145" height="25"/><text class="i" x="347" y="262">boolean-expression</text></a><rect class="l" x="492" y="245" width="28" height="25" rx="7"/><text class="i" x="502" y="262">»</text><a xlink:href="#vector"><rect class="r" x="530" y="245" width="59" height="25"/><text class="i" x="540" y="262">vector</text></a><rect class="l" x="25" y="275" width="47" height="25" rx="7"/><text class="i" x="35" y="292">map</text><rect class="l" x="82" y="275" width="25" height="25" rx="7"/><text class="i" x="92" y="292">(</text><a xlink:href="#symbol:element"><rect class="r" x="117" y="275" width="120" height="25"/><text class="i" x="127" y="292">symbol:element</text></a><rect class="l" x="247" y="275" width="31" height="25" rx="7"/><text class="i" x="257" y="292">in</text><a xlink:href="#set"><rect class="r" x="288" y="275" width="40" height="25"/><text class="i" x="298" y="292">set</text></a><rect class="l" x="338" y="275" width="25" height="25" rx="7"/><text class="i" x="348" y="292">)</text><a xlink:href="#value-expression"><rect class="r" x="373" y="275" width="128" height="25"/><text class="i" x="383" y="292">value-expression</text></a><rect class="l" x="511" y="275" width="28" height="25" rx="7"/><text class="i" x="521" y="292">»</text><a xlink:href="#set"><rect class="r" x="549" y="275" width="40" height="25"/><text class="i" x="559" y="292">set</text></a><rect class="l" x="25" y="305" width="47" height="25" rx="7"/><text class="i" x="35" y="322">map</text><rect class="l" x="82" y="305" width="25" height="25" rx="7"/><text class="i" x="92" y="322">(</text><a xlink:href="#symbol:element"><rect class="r" x="117" y="305" width="120" height="25"/><text class="i" x="127" y="322">symbol:element</text></a><rect class="l" x="247" y="305" width="31" height="25" rx="7"/><text class="i" x="257" y="322">in</text><a xlink:href="#vector"><rect class="r" x="288" y="305" width="59" height="25"/><text class="i" x="298" y="322">vector</text></a><rect class="l" x="357" y="305" width="25" height="25" rx="7"/><text class="i" x="367" y="322">)</text><a xlink:href="#value-expression"><rect class="r" x="392" y="305" width="128" height="25"/><text class="i" x="402" y="322">value-expression</text></a><rect class="l" x="530" y="305" width="28" height="25" rx="7"/><text class="i" x="540" y="322">»</text><a xlink:href="#vector"><rect class="r" x="568" y="305" width="59" height="25"/><text class="i" x="578" y="322">vector</text></a><rect class="l" x="25" y="335" width="57" height="25" rx="7"/><text class="i" x="35" y="352">range</text><rect class="l" x="92" y="335" width="25" height="25" rx="7"/><text class="i" x="102" y="352">(</text><a xlink:href="#integer:start"><rect class="r" x="147" y="335" width="100" height="25"/><text class="i" x="157" y="352">integer:start</text></a><rect class="l" x="257" y="335" width="24" height="25" rx="7"/><text class="i" x="267" y="352">,</text><a xlink:href="#integer:end"><rect class="r" x="311" y="335" width="94" height="25"/><text class="i" x="321" y="352">integer:end</text></a><rect class="l" x="435" y="335" width="24" height="25" rx="7"/><text class="i" x="445" y="352">,</text><a xlink:href="#integer:increment"><rect class="r" x="469" y="335" width="132" height="25"/><text class="i" x="479" y="352">integer:increment</text></a><rect class="l" x="631" y="335" width="25" height="25" rx="7"/><text class="i" x="641" y="352">)</text><rect class="l" x="666" y="335" width="28" height="25" rx="7"/><text class="i" x="676" y="352">»</text><a xlink:href="#vector"><rect class="r" x="704" y="335" width="59" height="25"/><text class="i" x="714" y="352">vector</text></a><a xlink:href="#vector"><rect class="r" x="25" y="380" width="59" height="25"/><text class="i" x="35" y="397">vector</text></a><rect class="l" x="94" y="380" width="24" height="25" rx="7"/><text class="i" x="104" y="397">.</text><rect class="l" x="128" y="380" width="55" height="25" rx="7"/><text class="i" x="138" y="397">rest()</text><rect class="l" x="193" y="380" width="28" height="25" rx="7"/><text class="i" x="203" y="397">»</text><a xlink:href="#vector"><rect class="r" x="231" y="380" width="59" height="25"/><text class="i" x="241" y="397">vector</text></a><a xlink:href="#set"><rect class="r" x="45" y="410" width="40" height="25"/><text class="i" x="55" y="427">set</text></a><a xlink:href="#vector"><rect class="r" x="45" y="440" width="59" height="25"/><text class="i" x="55" y="457">vector</text></a><rect class="l" x="134" y="410" width="24" height="25" rx="7"/><text class="i" x="144" y="427">.</text><rect class="l" x="168" y="410" width="55" height="25" rx="7"/><text class="i" x="178" y="427">sort()</text><rect class="l" x="233" y="410" width="28" height="25" rx="7"/><text class="i" x="243" y="427">»</text><a xlink:href="#vector"><rect class="r" x="271" y="410" width="59" height="25"/><text class="i" x="281" y="427">vector</text></a><rect class="l" x="25" y="470" width="60" height="25" rx="7"/><text class="i" x="35" y="487">sortBy</text><rect class="l" x="95" y="470" width="25" height="25" rx="7"/><text class="i" x="105" y="487">(</text><a xlink:href="#symbol:element"><rect class="r" x="130" y="470" width="120" height="25"/><text class="i" x="140" y="487">symbol:element</text></a><rect class="l" x="260" y="470" width="31" height="25" rx="7"/><text class="i" x="270" y="487">in</text><a xlink:href="#set"><rect class="r" x="321" y="470" width="40" height="25"/><text class="i" x="331" y="487">set</text></a><a xlink:href="#vector"><rect class="r" x="321" y="500" width="59" height="25"/><text class="i" x="331" y="517">vector</text></a><rect class="l" x="410" y="470" width="25" height="25" rx="7"/><text class="i" x="420" y="487">)</text><a xlink:href="#integer-expression"><rect class="r" x="465" y="470" width="139" height="25"/><text class="i" x="475" y="487">integer-expression</text></a><a xlink:href="#fixed-decimal-expression"><rect class="r" x="465" y="500" width="176" height="25"/><text class="i" x="475" y="517">fixed-decimal-expression</text></a><rect class="l" x="671" y="470" width="28" height="25" rx="7"/><text class="i" x="681" y="487">»</text><a xlink:href="#vector"><rect class="r" x="709" y="470" width="59" height="25"/><text class="i" x="719" y="487">vector</text></a></svg>