<svg version="1.1" xmlns:xlink="http://www.w3.org/1999/xlink" xmlns="http://www.w3.org/2000/svg" width="819" height="485" viewbox="0 0 819 485"><defs><style type="text/css">.c{fill: none; stroke: #888888; stroke-width: 3pt;}.j{fill:#000000;font-family:Dialog,Sans-serif;font-size:12px;}.l{fill:#90d9ff;stroke:#222222;}.r{fill:#d3f0ff;stroke:#222222;}</style></defs><path class="c" d="M0 21h25m25 0h10m63 0h30m59 0h10m59 0h10m25 0h10m27 0h10m59 0h22m-306 0q5 0 5 5v19q0 5 5 5h5m40 0h30m40 0h39m-94 0q5 0 5 5v19q0 5 5 5h5m59 0h5q5 0 5-5v-19q0-5 5-5m5 0h10m25 0h10m27 0h10m40 0h5q5 0 5-5v-19q0-5 5-5m5 0h370m-799 97q0 5 5 5h5m25 0h10m46 0h30m40 0h30m-5 0q-5 0-5-5v-16q0-5 5-5h63q5 0 5 5v16q0 5-5 5m-5 0h30m25 0h10m27 0h10m40 0h58m-338 0q5 0 5 5v34q0 5 5 5h5m59 0h30m-5 0q-5 0-5-5v-16q0-5 5-5h63q5 0 5 5v16q0 5-5 5m-5 0h30m25 0h10m27 0h10m59 0h5q5 0 5-5v-34q0-5 5-5m5 0h340q5 0 5-5m-789 73q0 5 5 5h5m25 0h10m48 0h30m25 0h10m118 0h10m40 0h10m25 0h10m143 0h10m25 0h10m27 0h10m40 0h58m-586 0q5 0 5 5v19q0 5 5 5h5m25 0h10m118 0h10m59 0h10m25 0h10m143 0h10m25 0h10m27 0h10m59 0h5q5 0 5-5v-19q0-5 5-5m5 0h90q5 0 5-5m-789 58q0 5 5 5h5m25 0h10m47 0h30m25 0h10m118 0h10m40 0h10m25 0h10m125 0h10m25 0h10m27 0h10m40 0h58m-568 0q5 0 5 5v19q0 5 5 5h5m25 0h10m118 0h10m59 0h10m25 0h10m125 0h10m25 0h10m27 0h10m59 0h5q5 0 5-5v-19q0-5 5-5m5 0h109q5 0 5-5m-789 58q0 5 5 5h5m25 0h10m57 0h30m99 0h20m-134 0q5 0 5 5v8q0 5 5 5h109q5 0 5-5v-8q0-5 5-5m5 0h10m93 0h30m132 0h20m-167 0q5 0 5 5v8q0 5 5 5h142q5 0 5-5v-8q0-5 5-5m5 0h10m25 0h10m27 0h10m59 0h107q5 0 5-5m-789 44q0 5 5 5h5m25 0h10m45 0h10m59 0h10m25 0h10m27 0h10m59 0h484q5 0 5-5m-789 29q0 5 5 5h5m25 0h10m45 0h30m40 0h39m-94 0q5 0 5 5v19q0 5 5 5h5m59 0h5q5 0 5-5v-19q0-5 5-5m5 0h10m25 0h10m27 0h10m59 0h444q5 0 5-5m-794-359q5 0 5 5v412q0 5 5 5h5m25 0h10m63 0h10m25 0h10m118 0h30m40 0h39m-94 0q5 0 5 5v19q0 5 5 5h5m59 0h5q5 0 5-5v-19q0-5 5-5m5 0h10m25 0h30m137 0h56m-208 0q5 0 5 5v19q0 5 5 5h5m173 0h5q5 0 5-5v-19q0-5 5-5m5 0h10m25 0h10m27 0h10m59 0h5q5 0 5-5v-412q0-5 5-5m5 0h5"/><rect class="l" x="25" y="5" width="25" height="24" rx="7"/><text class="j" x="35" y="21">(</text><rect class="l" x="60" y="5" width="63" height="24" rx="7"/><text class="j" x="70" y="21">concat</text><a xlink:href="#vector"><rect class="r" x="153" y="5" width="59" height="24"/><text class="j" x="163" y="21">vector</text></a><a xlink:href="#vector"><rect class="r" x="222" y="5" width="59" height="24"/><text class="j" x="232" y="21">vector</text></a><rect class="l" x="291" y="5" width="25" height="24" rx="7"/><text class="j" x="301" y="21">)</text><rect class="l" x="326" y="5" width="27" height="24" rx="7"/><text class="j" x="336" y="21">»</text><a xlink:href="#vector"><rect class="r" x="363" y="5" width="59" height="24"/><text class="j" x="373" y="21">vector</text></a><a xlink:href="#set"><rect class="r" x="153" y="34" width="40" height="24"/><text class="j" x="163" y="50">set</text></a><a xlink:href="#set"><rect class="r" x="223" y="34" width="40" height="24"/><text class="j" x="233" y="50">set</text></a><a xlink:href="#vector"><rect class="r" x="223" y="63" width="59" height="24"/><text class="j" x="233" y="79">vector</text></a><rect class="l" x="312" y="34" width="25" height="24" rx="7"/><text class="j" x="322" y="50">)</text><rect class="l" x="347" y="34" width="27" height="24" rx="7"/><text class="j" x="357" y="50">»</text><a xlink:href="#set"><rect class="r" x="384" y="34" width="40" height="24"/><text class="j" x="394" y="50">set</text></a><rect class="l" x="25" y="107" width="25" height="24" rx="7"/><text class="j" x="35" y="123">(</text><rect class="l" x="60" y="107" width="46" height="24" rx="7"/><text class="j" x="70" y="123">conj</text><a xlink:href="#set"><rect class="r" x="136" y="107" width="40" height="24"/><text class="j" x="146" y="123">set</text></a><a xlink:href="#value"><rect class="r" x="206" y="107" width="53" height="24"/><text class="j" x="216" y="123">value</text></a><rect class="l" x="289" y="107" width="25" height="24" rx="7"/><text class="j" x="299" y="123">)</text><rect class="l" x="324" y="107" width="27" height="24" rx="7"/><text class="j" x="334" y="123">»</text><a xlink:href="#set"><rect class="r" x="361" y="107" width="40" height="24"/><text class="j" x="371" y="123">set</text></a><a xlink:href="#vector"><rect class="r" x="136" y="151" width="59" height="24"/><text class="j" x="146" y="167">vector</text></a><a xlink:href="#value"><rect class="r" x="225" y="151" width="53" height="24"/><text class="j" x="235" y="167">value</text></a><rect class="l" x="308" y="151" width="25" height="24" rx="7"/><text class="j" x="318" y="167">)</text><rect class="l" x="343" y="151" width="27" height="24" rx="7"/><text class="j" x="353" y="167">»</text><a xlink:href="#vector"><rect class="r" x="380" y="151" width="59" height="24"/><text class="j" x="390" y="167">vector</text></a><rect class="l" x="25" y="180" width="25" height="24" rx="7"/><text class="j" x="35" y="196">(</text><rect class="l" x="60" y="180" width="48" height="24" rx="7"/><text class="j" x="70" y="196">filter</text><rect class="l" x="138" y="180" width="25" height="24" rx="7"/><text class="j" x="148" y="196">[</text><a xlink:href="#symbol:element"><rect class="r" x="173" y="180" width="118" height="24"/><text class="j" x="183" y="196">symbol:element</text></a><a xlink:href="#set"><rect class="r" x="301" y="180" width="40" height="24"/><text class="j" x="311" y="196">set</text></a><rect class="l" x="351" y="180" width="25" height="24" rx="7"/><text class="j" x="361" y="196">]</text><a xlink:href="#boolean-expression"><rect class="r" x="386" y="180" width="143" height="24"/><text class="j" x="396" y="196">boolean-expression</text></a><rect class="l" x="539" y="180" width="25" height="24" rx="7"/><text class="j" x="549" y="196">)</text><rect class="l" x="574" y="180" width="27" height="24" rx="7"/><text class="j" x="584" y="196">»</text><a xlink:href="#set"><rect class="r" x="611" y="180" width="40" height="24"/><text class="j" x="621" y="196">set</text></a><rect class="l" x="138" y="209" width="25" height="24" rx="7"/><text class="j" x="148" y="225">[</text><a xlink:href="#symbol:element"><rect class="r" x="173" y="209" width="118" height="24"/><text class="j" x="183" y="225">symbol:element</text></a><a xlink:href="#vector"><rect class="r" x="301" y="209" width="59" height="24"/><text class="j" x="311" y="225">vector</text></a><rect class="l" x="370" y="209" width="25" height="24" rx="7"/><text class="j" x="380" y="225">]</text><a xlink:href="#boolean-expression"><rect class="r" x="405" y="209" width="143" height="24"/><text class="j" x="415" y="225">boolean-expression</text></a><rect class="l" x="558" y="209" width="25" height="24" rx="7"/><text class="j" x="568" y="225">)</text><rect class="l" x="593" y="209" width="27" height="24" rx="7"/><text class="j" x="603" y="225">»</text><a xlink:href="#vector"><rect class="r" x="630" y="209" width="59" height="24"/><text class="j" x="640" y="225">vector</text></a><rect class="l" x="25" y="238" width="25" height="24" rx="7"/><text class="j" x="35" y="254">(</text><rect class="l" x="60" y="238" width="47" height="24" rx="7"/><text class="j" x="70" y="254">map</text><rect class="l" x="137" y="238" width="25" height="24" rx="7"/><text class="j" x="147" y="254">[</text><a xlink:href="#symbol:element"><rect class="r" x="172" y="238" width="118" height="24"/><text class="j" x="182" y="254">symbol:element</text></a><a xlink:href="#set"><rect class="r" x="300" y="238" width="40" height="24"/><text class="j" x="310" y="254">set</text></a><rect class="l" x="350" y="238" width="25" height="24" rx="7"/><text class="j" x="360" y="254">]</text><a xlink:href="#value-expression"><rect class="r" x="385" y="238" width="125" height="24"/><text class="j" x="395" y="254">value-expression</text></a><rect class="l" x="520" y="238" width="25" height="24" rx="7"/><text class="j" x="530" y="254">)</text><rect class="l" x="555" y="238" width="27" height="24" rx="7"/><text class="j" x="565" y="254">»</text><a xlink:href="#set"><rect class="r" x="592" y="238" width="40" height="24"/><text class="j" x="602" y="254">set</text></a><rect class="l" x="137" y="267" width="25" height="24" rx="7"/><text class="j" x="147" y="283">[</text><a xlink:href="#symbol:element"><rect class="r" x="172" y="267" width="118" height="24"/><text class="j" x="182" y="283">symbol:element</text></a><a xlink:href="#vector"><rect class="r" x="300" y="267" width="59" height="24"/><text class="j" x="310" y="283">vector</text></a><rect class="l" x="369" y="267" width="25" height="24" rx="7"/><text class="j" x="379" y="283">]</text><a xlink:href="#value-expression"><rect class="r" x="404" y="267" width="125" height="24"/><text class="j" x="414" y="283">value-expression</text></a><rect class="l" x="539" y="267" width="25" height="24" rx="7"/><text class="j" x="549" y="283">)</text><rect class="l" x="574" y="267" width="27" height="24" rx="7"/><text class="j" x="584" y="283">»</text><a xlink:href="#vector"><rect class="r" x="611" y="267" width="59" height="24"/><text class="j" x="621" y="283">vector</text></a><rect class="l" x="25" y="296" width="25" height="24" rx="7"/><text class="j" x="35" y="312">(</text><rect class="l" x="60" y="296" width="57" height="24" rx="7"/><text class="j" x="70" y="312">range</text><a xlink:href="#integer:start"><rect class="r" x="147" y="296" width="99" height="24"/><text class="j" x="157" y="312">integer:start</text></a><a xlink:href="#integer:end"><rect class="r" x="276" y="296" width="93" height="24"/><text class="j" x="286" y="312">integer:end</text></a><a xlink:href="#integer:increment"><rect class="r" x="399" y="296" width="132" height="24"/><text class="j" x="409" y="312">integer:increment</text></a><rect class="l" x="561" y="296" width="25" height="24" rx="7"/><text class="j" x="571" y="312">)</text><rect class="l" x="596" y="296" width="27" height="24" rx="7"/><text class="j" x="606" y="312">»</text><a xlink:href="#vector"><rect class="r" x="633" y="296" width="59" height="24"/><text class="j" x="643" y="312">vector</text></a><rect class="l" x="25" y="340" width="25" height="24" rx="7"/><text class="j" x="35" y="356">(</text><rect class="l" x="60" y="340" width="45" height="24" rx="7"/><text class="j" x="70" y="356">rest</text><a xlink:href="#vector"><rect class="r" x="115" y="340" width="59" height="24"/><text class="j" x="125" y="356">vector</text></a><rect class="l" x="184" y="340" width="25" height="24" rx="7"/><text class="j" x="194" y="356">)</text><rect class="l" x="219" y="340" width="27" height="24" rx="7"/><text class="j" x="229" y="356">»</text><a xlink:href="#vector"><rect class="r" x="256" y="340" width="59" height="24"/><text class="j" x="266" y="356">vector</text></a><rect class="l" x="25" y="369" width="25" height="24" rx="7"/><text class="j" x="35" y="385">(</text><rect class="l" x="60" y="369" width="45" height="24" rx="7"/><text class="j" x="70" y="385">sort</text><a xlink:href="#set"><rect class="r" x="135" y="369" width="40" height="24"/><text class="j" x="145" y="385">set</text></a><a xlink:href="#vector"><rect class="r" x="135" y="398" width="59" height="24"/><text class="j" x="145" y="414">vector</text></a><rect class="l" x="224" y="369" width="25" height="24" rx="7"/><text class="j" x="234" y="385">)</text><rect class="l" x="259" y="369" width="27" height="24" rx="7"/><text class="j" x="269" y="385">»</text><a xlink:href="#vector"><rect class="r" x="296" y="369" width="59" height="24"/><text class="j" x="306" y="385">vector</text></a><rect class="l" x="25" y="427" width="25" height="24" rx="7"/><text class="j" x="35" y="443">(</text><rect class="l" x="60" y="427" width="63" height="24" rx="7"/><text class="j" x="70" y="443">sort-by</text><rect class="l" x="133" y="427" width="25" height="24" rx="7"/><text class="j" x="143" y="443">[</text><a xlink:href="#symbol:element"><rect class="r" x="168" y="427" width="118" height="24"/><text class="j" x="178" y="443">symbol:element</text></a><a xlink:href="#set"><rect class="r" x="316" y="427" width="40" height="24"/><text class="j" x="326" y="443">set</text></a><a xlink:href="#vector"><rect class="r" x="316" y="456" width="59" height="24"/><text class="j" x="326" y="472">vector</text></a><rect class="l" x="405" y="427" width="25" height="24" rx="7"/><text class="j" x="415" y="443">]</text><a xlink:href="#integer-expression"><rect class="r" x="460" y="427" width="137" height="24"/><text class="j" x="470" y="443">integer-expression</text></a><a xlink:href="#fixed-decimal-expression"><rect class="r" x="460" y="456" width="173" height="24"/><text class="j" x="470" y="472">fixed-decimal-expression</text></a><rect class="l" x="663" y="427" width="25" height="24" rx="7"/><text class="j" x="673" y="443">)</text><rect class="l" x="698" y="427" width="27" height="24" rx="7"/><text class="j" x="708" y="443">»</text><a xlink:href="#vector"><rect class="r" x="735" y="427" width="59" height="24"/><text class="j" x="745" y="443">vector</text></a></svg>