<svg version="1.1" xmlns:xlink="http://www.w3.org/1999/xlink" xmlns="http://www.w3.org/2000/svg" width="511" height="108" viewbox="0 0 511 108"><defs><style type="text/css">.c{fill: none; stroke: #888888; stroke-width: 3pt;}.i{fill:#000000;font-family:Dialog,Sans-serif;font-size:12px;}.r{fill:#d3f0ff;stroke:#222222;}</style></defs><path class="c" d="M0 21h25m152 0h329m-496 0q5 0 5 5v34q0 5 5 5h25m163 0h20m-198 0q5 0 5 5v19q0 5 5 5h5m152 0h16q5 0 5-5v-19q0-5 5-5m5 0h70m-5 0q-5 0-5-5v-16q0-5 5-5h138q5 0 5 5v16q0 5-5 5m-5 0h40m-203 0q5 0 5 5v8q0 5 5 5h178q5 0 5-5v-8q0-5 5-5m5 0h20m-243 0q5 0 5 5v23q0 5 5 5h218q5 0 5-5v-23q0-5 5-5m5 0h5q5 0 5-5v-34q0-5 5-5m5 0h5"/><a xlink:href="#plus-minus-character"><rect class="r" x="25" y="5" width="152" height="24"/><text class="i" x="35" y="21">plus-minus-character</text></a><a xlink:href="#non-numeric-character"><rect class="r" x="45" y="49" width="163" height="24"/><text class="i" x="55" y="65">non-numeric-character</text></a><a xlink:href="#plus-minus-character"><rect class="r" x="45" y="78" width="152" height="24"/><text class="i" x="55" y="94">plus-minus-character</text></a><a xlink:href="#symbol-character"><rect class="r" x="298" y="49" width="128" height="24"/><text class="i" x="308" y="65">symbol-character</text></a></svg>