<svg version="1.1" xmlns:xlink="http://www.w3.org/1999/xlink" xmlns="http://www.w3.org/2000/svg" width="430" height="95" viewbox="0 0 430 95"><defs><style type="text/css">.c{fill: none; stroke: #888888; stroke-width: 2px;}.i{fill:#000000;font-family:Verdana,Sans-serif;font-size:12px;}.r{fill:#d3f0ff;stroke:#222222;}</style></defs><path class="c" d="M0 18h25m152 0h248m-415 0q5 0 5 5v20q0 5 5 5h25m162 0h20m-197 0q5 0 5 5v20q0 5 5 5h5m152 0h15q5 0 5-5v-20q0-5 5-5m5 0h30m128 0h20m-163 0q5 0 5 5v8q0 5 5 5h138q5 0 5-5v-8q0-5 5-5m5 0h5q5 0 5-5v-20q0-5 5-5m5 0h5"/><a xlink:href="#plus-minus-character"><rect class="r" x="25" y="5" width="152" height="25"/><text class="i" x="35" y="22">plus-minus-character</text></a><a xlink:href="#non-numeric-character"><rect class="r" x="45" y="35" width="162" height="25"/><text class="i" x="55" y="52">non-numeric-character</text></a><a xlink:href="#plus-minus-character"><rect class="r" x="45" y="65" width="152" height="25"/><text class="i" x="55" y="82">plus-minus-character</text></a><a xlink:href="#symbol-character"><rect class="r" x="257" y="35" width="128" height="25"/><text class="i" x="267" y="52">symbol-character</text></a></svg>