<svg version="1.1" xmlns:xlink="http://www.w3.org/1999/xlink" xmlns="http://www.w3.org/2000/svg" width="461" height="110" viewbox="0 0 461 110"><defs><style type="text/css">.c{fill: none; stroke: #888888; stroke-width: 2px;}.i{fill:#000000;font-family:Verdana,Sans-serif;font-size:12px;}.r{fill:#d3f0ff;stroke:#222222;}</style></defs><path class="c" d="M0 18h25m147 0h284m-446 0q5 0 5 5v35q0 5 5 5h25m158 0h20m-193 0q5 0 5 5v20q0 5 5 5h5m147 0h16q5 0 5-5v-20q0-5 5-5m5 0h50m-5 0q-5 0-5-5v-17q0-5 5-5h133q5 0 5 5v17q0 5-5 5m-5 0h40m-198 0q5 0 5 5v8q0 5 5 5h173q5 0 5-5v-8q0-5 5-5m5 0h5q5 0 5-5v-35q0-5 5-5m5 0h5"/><a xlink:href="#plus-minus-character"><rect class="r" x="25" y="5" width="147" height="25"/><text class="i" x="35" y="22">plus-minus-character</text></a><a xlink:href="#non-numeric-character"><rect class="r" x="45" y="50" width="158" height="25"/><text class="i" x="55" y="67">non-numeric-character</text></a><a xlink:href="#plus-minus-character"><rect class="r" x="45" y="80" width="147" height="25"/><text class="i" x="55" y="97">plus-minus-character</text></a><a xlink:href="#symbol-character"><rect class="r" x="273" y="50" width="123" height="25"/><text class="i" x="283" y="67">symbol-character</text></a></svg>