<svg version="1.1" xmlns:xlink="http://www.w3.org/1999/xlink" xmlns="http://www.w3.org/2000/svg" width="952" height="1580" viewbox="0 0 952 1580"><defs><style type="text/css">.c{fill: none; stroke: #888888; stroke-width: 3pt;}.j{fill:#000000;font-family:Dialog,Sans-serif;font-size:12px;}.l{fill:#90d9ff;stroke:#222222;}.r{fill:#d3f0ff;stroke:#222222;}</style></defs><path class="c" d="M0 21h25m167 0h30m41 0h20m-71 24q0 5 5 5h5m37 0h9q5 0 5-5m-61 29q0 5 5 5h5m26 0h20q5 0 5-5m-61 29q0 5 5 5h5m25 0h21q5 0 5-5m-61 29q0 5 5 5h5m28 0h18q5 0 5-5m-61 29q0 5 5 5h5m30 0h16q5 0 5-5m-61 29q0 5 5 5h5m30 0h16q5 0 5-5m-61 29q0 5 5 5h5m30 0h16q5 0 5-5m-61 29q0 5 5 5h5m26 0h20q5 0 5-5m-61 29q0 5 5 5h5m24 0h22q5 0 5-5m-66-256q5 0 5 5v280q0 5 5 5h5m26 0h20q5 0 5-5v-280q0-5 5-5m5 0h664m-932 314q0 5 5 5h5m156 0h30m30 0h20m-65 0q5 0 5 5v19q0 5 5 5h5m24 0h11q5 0 5-5v-19q0-5 5-5m5 0h671q5 0 5-5m-922 58q0 5 5 5h5m132 0h30m163 0h20m-193 24q0 5 5 5h5m152 0h16q5 0 5-5m-188-24q5 0 5 5v48q0 5 5 5h5m40 0h128q5 0 5-5v-48q0-5 5-5m5 0h562q5 0 5-5m-922 87q0 5 5 5h5m100 0h30m152 0h329m-496 0q5 0 5 5v34q0 5 5 5h25m163 0h20m-198 0q5 0 5 5v19q0 5 5 5h5m152 0h16q5 0 5-5v-19q0-5 5-5m5 0h70m-5 0q-5 0-5-5v-16q0-5 5-5h138q5 0 5 5v16q0 5-5 5m-5 0h40m-203 0q5 0 5 5v8q0 5 5 5h178q5 0 5-5v-8q0-5 5-5m5 0h20m-243 0q5 0 5 5v23q0 5 5 5h218q5 0 5-5v-23q0-5 5-5m5 0h5q5 0 5-5v-34q0-5 5-5m5 0h296q5 0 5-5m-922 103q0 5 5 5h5m67 0h10m96 0h30m24 0h10m96 0h20m-165 0q5 0 5 5v8q0 5 5 5h140q5 0 5-5v-8q0-5 5-5m5 0h554q5 0 5-5m-922 44q0 5 5 5h5m75 0h10m24 0h10m63 0h725q5 0 5-5m-922 29q0 5 5 5h5m75 0h30m46 0h24m-85 0q5 0 5 5v19q0 5 5 5h5m50 0h5q5 0 5-5v-19q0-5 5-5m5 0h732q5 0 5-5m-922 73q0 5 5 5h5m60 0h10m25 0h50m-5 0q-5 0-5-5v-16q0-5 5-5h484q5 0 5 5v16q0 5-5 5m-479 0h20m48 0h406m-469 0q5 0 5 5v19q0 5 5 5h5m24 0h30m24 0h356m-390 24q0 5 5 5h5m25 0h340q5 0 5-5m-380 29q0 5 5 5h5m25 0h340q5 0 5-5m-380 29q0 5 5 5h5m28 0h337q5 0 5-5m-385-82q5 0 5 5v106q0 5 5 5h5m28 0h10m73 0h10m73 0h10m73 0h10m73 0h5q5 0 5-5v-106q0-5 5-5m5 0h5q5 0 5-5v-19q0-5 5-5m5 0h40m-549 0q5 0 5 5v153q0 5 5 5h524q5 0 5-5v-153q0-5 5-5m5 0h10m25 0h213q5 0 5-5m-922 204q0 5 5 5h5m69 0h30m152 0h20m-187 0q5 0 5 5v8q0 5 5 5h162q5 0 5-5v-8q0-5 5-5m5 0h10m40 0h50m-5 0q-5 0-5-5v-16q0-5 5-5h50q5 0 5 5v16q0 5-5 5m-5 0h40m-115 0q5 0 5 5v8q0 5 5 5h90q5 0 5-5v-8q0-5 5-5m5 0h456q5 0 5-5m-922 59q0 5 5 5h5m105 0h10m30 0h10m28 0h30m91 0h20m-126 0q5 0 5 5v8q0 5 5 5h101q5 0 5-5v-8q0-5 5-5m5 0h10m25 0h30m24 0h20m-59 0q5 0 5 5v8q0 5 5 5h34q5 0 5-5v-8q0-5 5-5m5 0h30m28 0h162m-205 0q5 0 5 5v34q0 5 5 5h5m40 0h50m-5 0q-5 0-5-5v-16q0-5 5-5h50q5 0 5 5v16q0 5-5 5m-5 0h40m-115 0q5 0 5 5v8q0 5 5 5h90q5 0 5-5v-8q0-5 5-5m5 0h5q5 0 5-5v-34q0-5 5-5m5 0h10m24 0h10m40 0h50m-5 0q-5 0-5-5v-16q0-5 5-5h50q5 0 5 5v16q0 5-5 5m-5 0h40m-115 0q5 0 5 5v8q0 5 5 5h90q5 0 5-5v-8q0-5 5-5m5 0h10m25 0h5q5 0 5-5m-922 103q0 5 5 5h5m78 0h10m28 0h10m59 0h10m120 0h50m-5 0q-5 0-5-5v-16q0-5 5-5h144q5 0 5 5v16q0 5-5 5m-68 0h10m53 0h40m-209 0q5 0 5 5v8q0 5 5 5h184q5 0 5-5v-8q0-5 5-5m5 0h10m28 0h330q5 0 5-5m-922 59q0 5 5 5h5m63 0h10m25 0h30m91 0h20m-126 0q5 0 5 5v8q0 5 5 5h101q5 0 5-5v-8q0-5 5-5m5 0h50m-5 0q-5 0-5-5v-16q0-5 5-5h164q5 0 5 5v16q0 5-5 5m-106 0h10m91 0h40m-229 0q5 0 5 5v8q0 5 5 5h204q5 0 5-5v-8q0-5 5-5m5 0h30m53 0h20m-88 0q5 0 5 5v8q0 5 5 5h63q5 0 5-5v-8q0-5 5-5m5 0h30m91 0h20m-126 0q5 0 5 5v8q0 5 5 5h101q5 0 5-5v-8q0-5 5-5m5 0h10m25 0h145q5 0 5-5m-922 59q0 5 5 5h5m44 0h10m30 0h10m28 0h30m91 0h20m-126 0q5 0 5 5v8q0 5 5 5h101q5 0 5-5v-8q0-5 5-5m5 0h50m-5 0q-5 0-5-5v-16q0-5 5-5h204q5 0 5 5v16q0 5-5 5m-146 0h30m91 0h20m-126 0q5 0 5 5v8q0 5 5 5h101q5 0 5-5v-8q0-5 5-5m5 0h40m-269 0q5 0 5 5v23q0 5 5 5h244q5 0 5-5v-23q0-5 5-5m5 0h30m53 0h20m-88 0q5 0 5 5v8q0 5 5 5h63q5 0 5-5v-8q0-5 5-5m5 0h30m91 0h20m-126 0q5 0 5 5v8q0 5 5 5h101q5 0 5-5v-8q0-5 5-5m5 0h10m28 0h78q5 0 5-5m-922 59q0 5 5 5h5m57 0h30m71 0h50m-131 24q0 5 5 5h5m56 0h50q5 0 5-5m-121 29q0 5 5 5h5m65 0h41q5 0 5-5m-121 29q0 5 5 5h5m101 0h5q5 0 5-5m-121 29q0 5 5 5h5m74 0h32q5 0 5-5m-121 29q0 5 5 5h5m59 0h47q5 0 5-5m-126-140q5 0 5 5v164q0 5 5 5h5m40 0h66q5 0 5-5v-164q0-5 5-5m5 0h699q5 0 5-5m-922 203q0 5 5 5h5m60 0h10m56 0h781q5 0 5-5m-922 29q0 5 5 5h5m72 0h10m68 0h757q5 0 5-5m-927-1483q5 0 5 5v1507q0 5 5 5h5m46 0h30m53 0h23m-91 0q5 0 5 5v19q0 5 5 5h5m56 0h5q5 0 5-5v-19q0-5 5-5m5 0h755q5 0 5-5v-1507q0-5 5-5m5 0h5"/><rect class="l" x="25" y="5" width="167" height="24" rx="7"/><text class="j" x="35" y="21">non-numeric-character:</text><rect class="l" x="222" y="5" width="41" height="24" rx="7"/><text class="j" x="232" y="21">A-Z</text><rect class="l" x="222" y="34" width="37" height="24" rx="7"/><text class="j" x="232" y="50">a-z</text><rect class="l" x="222" y="63" width="26" height="24" rx="7"/><text class="j" x="232" y="79">*</text><rect class="l" x="222" y="92" width="25" height="24" rx="7"/><text class="j" x="232" y="108">!</text><rect class="l" x="222" y="121" width="28" height="24" rx="7"/><text class="j" x="232" y="137">$</text><rect class="l" x="222" y="150" width="30" height="24" rx="7"/><text class="j" x="232" y="166">=</text><rect class="l" x="222" y="179" width="30" height="24" rx="7"/><text class="j" x="232" y="195">&lt;</text><rect class="l" x="222" y="208" width="30" height="24" rx="7"/><text class="j" x="232" y="224">&gt;</text><rect class="l" x="222" y="237" width="26" height="24" rx="7"/><text class="j" x="232" y="253">_</text><rect class="l" x="222" y="266" width="24" height="24" rx="7"/><text class="j" x="232" y="282">.</text><rect class="l" x="222" y="295" width="26" height="24" rx="7"/><text class="j" x="232" y="311">?</text><rect class="l" x="25" y="324" width="156" height="24" rx="7"/><text class="j" x="35" y="340">plus-minus-character:</text><rect class="l" x="211" y="324" width="30" height="24" rx="7"/><text class="j" x="221" y="340">+</text><rect class="l" x="211" y="353" width="24" height="24" rx="7"/><text class="j" x="221" y="369">-</text><rect class="l" x="25" y="382" width="132" height="24" rx="7"/><text class="j" x="35" y="398">symbol-character:</text><a xlink:href="#non-numeric-character"><rect class="r" x="187" y="382" width="163" height="24"/><text class="j" x="197" y="398">non-numeric-character</text></a><a xlink:href="#plus-minus-character"><rect class="r" x="187" y="411" width="152" height="24"/><text class="j" x="197" y="427">plus-minus-character</text></a><rect class="l" x="187" y="440" width="40" height="24" rx="7"/><text class="j" x="197" y="456">0-9</text><rect class="l" x="25" y="469" width="100" height="24" rx="7"/><text class="j" x="35" y="485">bare-symbol:</text><a xlink:href="#plus-minus-character"><rect class="r" x="155" y="469" width="152" height="24"/><text class="j" x="165" y="485">plus-minus-character</text></a><a xlink:href="#non-numeric-character"><rect class="r" x="175" y="513" width="163" height="24"/><text class="j" x="185" y="529">non-numeric-character</text></a><a xlink:href="#plus-minus-character"><rect class="r" x="175" y="542" width="152" height="24"/><text class="j" x="185" y="558">plus-minus-character</text></a><a xlink:href="#symbol-character"><rect class="r" x="428" y="513" width="128" height="24"/><text class="j" x="438" y="529">symbol-character</text></a><rect class="l" x="25" y="572" width="67" height="24" rx="7"/><text class="j" x="35" y="588">symbol:</text><a xlink:href="#bare-symbol"><rect class="r" x="102" y="572" width="96" height="24"/><text class="j" x="112" y="588">bare-symbol</text></a><rect class="l" x="228" y="572" width="24" height="24" rx="7"/><text class="j" x="238" y="588">/</text><a xlink:href="#bare-symbol"><rect class="r" x="262" y="572" width="96" height="24"/><text class="j" x="272" y="588">bare-symbol</text></a><rect class="l" x="25" y="616" width="75" height="24" rx="7"/><text class="j" x="35" y="632">keyword:</text><rect class="l" x="110" y="616" width="24" height="24" rx="7"/><text class="j" x="120" y="632">:</text><a xlink:href="#symbol"><rect class="r" x="144" y="616" width="63" height="24"/><text class="j" x="154" y="632">symbol</text></a><rect class="l" x="25" y="645" width="75" height="24" rx="7"/><text class="j" x="35" y="661">boolean:</text><a xlink:href="#true"><rect class="r" x="130" y="645" width="46" height="24"/><text class="j" x="140" y="661">true</text></a><a xlink:href="#false"><rect class="r" x="130" y="674" width="50" height="24"/><text class="j" x="140" y="690">false</text></a><rect class="l" x="25" y="718" width="60" height="24" rx="7"/><text class="j" x="35" y="734">string:</text><rect class="l" x="95" y="718" width="25" height="24" rx="7"/><text class="j" x="105" y="734">&quot;</text><a xlink:href="#char"><rect class="r" x="190" y="718" width="48" height="24"/><text class="j" x="200" y="734">char</text></a><rect class="l" x="190" y="747" width="24" height="24" rx="7"/><text class="j" x="200" y="763">\</text><rect class="l" x="244" y="747" width="24" height="24" rx="7"/><text class="j" x="254" y="763">\</text><rect class="l" x="244" y="776" width="25" height="24" rx="7"/><text class="j" x="254" y="792">&quot;</text><rect class="l" x="244" y="805" width="25" height="24" rx="7"/><text class="j" x="254" y="821">t</text><rect class="l" x="244" y="834" width="28" height="24" rx="7"/><text class="j" x="254" y="850">n</text><rect class="l" x="244" y="863" width="28" height="24" rx="7"/><text class="j" x="254" y="879">u</text><a xlink:href="#hex-digit"><rect class="r" x="282" y="863" width="73" height="24"/><text class="j" x="292" y="879">hex-digit</text></a><a xlink:href="#hex-digit"><rect class="r" x="365" y="863" width="73" height="24"/><text class="j" x="375" y="879">hex-digit</text></a><a xlink:href="#hex-digit"><rect class="r" x="448" y="863" width="73" height="24"/><text class="j" x="458" y="879">hex-digit</text></a><a xlink:href="#hex-digit"><rect class="r" x="531" y="863" width="73" height="24"/><text class="j" x="541" y="879">hex-digit</text></a><rect class="l" x="694" y="718" width="25" height="24" rx="7"/><text class="j" x="704" y="734">&quot;</text><rect class="l" x="25" y="922" width="69" height="24" rx="7"/><text class="j" x="35" y="938">integer:</text><a xlink:href="#plus-minus-character"><rect class="r" x="124" y="922" width="152" height="24"/><text class="j" x="134" y="938">plus-minus-character</text></a><rect class="l" x="306" y="922" width="40" height="24" rx="7"/><text class="j" x="316" y="938">0-9</text><rect class="l" x="396" y="922" width="40" height="24" rx="7"/><text class="j" x="406" y="938">0-9</text><rect class="l" x="25" y="981" width="105" height="24" rx="7"/><text class="j" x="35" y="997">fixed-decimal:</text><rect class="l" x="140" y="981" width="30" height="24" rx="7"/><text class="j" x="150" y="997">#</text><rect class="l" x="180" y="981" width="28" height="24" rx="7"/><text class="j" x="190" y="997">d</text><a xlink:href="#whitespace"><rect class="r" x="238" y="981" width="91" height="24"/><text class="j" x="248" y="997">whitespace</text></a><rect class="l" x="359" y="981" width="25" height="24" rx="7"/><text class="j" x="369" y="997">&quot;</text><rect class="l" x="414" y="981" width="24" height="24" rx="7"/><text class="j" x="424" y="997">-</text><rect class="l" x="488" y="981" width="28" height="24" rx="7"/><text class="j" x="498" y="997">0</text><rect class="l" x="488" y="1025" width="40" height="24" rx="7"/><text class="j" x="498" y="1041">1-9</text><rect class="l" x="578" y="1025" width="40" height="24" rx="7"/><text class="j" x="588" y="1041">0-9</text><rect class="l" x="688" y="981" width="24" height="24" rx="7"/><text class="j" x="698" y="997">.</text><rect class="l" x="722" y="981" width="40" height="24" rx="7"/><text class="j" x="732" y="997">0-9</text><rect class="l" x="812" y="981" width="40" height="24" rx="7"/><text class="j" x="822" y="997">0-9</text><rect class="l" x="902" y="981" width="25" height="24" rx="7"/><text class="j" x="912" y="997">&quot;</text><rect class="l" x="25" y="1084" width="78" height="24" rx="7"/><text class="j" x="35" y="1100">instance:</text><rect class="l" x="113" y="1084" width="28" height="24" rx="7"/><text class="j" x="123" y="1100">{</text><rect class="l" x="151" y="1084" width="59" height="24" rx="7"/><text class="j" x="161" y="1100">:$type</text><a xlink:href="#keyword:spec-id"><rect class="r" x="220" y="1084" width="120" height="24"/><text class="j" x="230" y="1100">keyword:spec-id</text></a><a xlink:href="#keyword"><rect class="r" x="390" y="1084" width="71" height="24"/><text class="j" x="400" y="1100">keyword</text></a><a xlink:href="#value"><rect class="r" x="471" y="1084" width="53" height="24"/><text class="j" x="481" y="1100">value</text></a><rect class="l" x="574" y="1084" width="28" height="24" rx="7"/><text class="j" x="584" y="1100">}</text><rect class="l" x="25" y="1143" width="63" height="24" rx="7"/><text class="j" x="35" y="1159">vector:</text><rect class="l" x="98" y="1143" width="25" height="24" rx="7"/><text class="j" x="108" y="1159">[</text><a xlink:href="#whitespace"><rect class="r" x="153" y="1143" width="91" height="24"/><text class="j" x="163" y="1159">whitespace</text></a><a xlink:href="#value"><rect class="r" x="314" y="1143" width="53" height="24"/><text class="j" x="324" y="1159">value</text></a><a xlink:href="#whitespace"><rect class="r" x="377" y="1143" width="91" height="24"/><text class="j" x="387" y="1159">whitespace</text></a><a xlink:href="#value"><rect class="r" x="538" y="1143" width="53" height="24"/><text class="j" x="548" y="1159">value</text></a><a xlink:href="#whitespace"><rect class="r" x="641" y="1143" width="91" height="24"/><text class="j" x="651" y="1159">whitespace</text></a><rect class="l" x="762" y="1143" width="25" height="24" rx="7"/><text class="j" x="772" y="1159">]</text><rect class="l" x="25" y="1202" width="44" height="24" rx="7"/><text class="j" x="35" y="1218">set:</text><rect class="l" x="79" y="1202" width="30" height="24" rx="7"/><text class="j" x="89" y="1218">#</text><rect class="l" x="119" y="1202" width="28" height="24" rx="7"/><text class="j" x="129" y="1218">{</text><a xlink:href="#whitespace"><rect class="r" x="177" y="1202" width="91" height="24"/><text class="j" x="187" y="1218">whitespace</text></a><a xlink:href="#value"><rect class="r" x="338" y="1202" width="53" height="24"/><text class="j" x="348" y="1218">value</text></a><a xlink:href="#whitespace"><rect class="r" x="421" y="1202" width="91" height="24"/><text class="j" x="431" y="1218">whitespace</text></a><a xlink:href="#value"><rect class="r" x="602" y="1202" width="53" height="24"/><text class="j" x="612" y="1218">value</text></a><a xlink:href="#whitespace"><rect class="r" x="705" y="1202" width="91" height="24"/><text class="j" x="715" y="1218">whitespace</text></a><rect class="l" x="826" y="1202" width="28" height="24" rx="7"/><text class="j" x="836" y="1218">}</text><rect class="l" x="25" y="1261" width="57" height="24" rx="7"/><text class="j" x="35" y="1277">value:</text><a xlink:href="#boolean"><rect class="r" x="112" y="1261" width="71" height="24"/><text class="j" x="122" y="1277">boolean</text></a><a xlink:href="#string"><rect class="r" x="112" y="1290" width="56" height="24"/><text class="j" x="122" y="1306">string</text></a><a xlink:href="#integer"><rect class="r" x="112" y="1319" width="65" height="24"/><text class="j" x="122" y="1335">integer</text></a><a xlink:href="#fixed-decimal"><rect class="r" x="112" y="1348" width="101" height="24"/><text class="j" x="122" y="1364">fixed-decimal</text></a><a xlink:href="#instance"><rect class="r" x="112" y="1377" width="74" height="24"/><text class="j" x="122" y="1393">instance</text></a><a xlink:href="#vector"><rect class="r" x="112" y="1406" width="59" height="24"/><text class="j" x="122" y="1422">vector</text></a><a xlink:href="#set"><rect class="r" x="112" y="1435" width="40" height="24"/><text class="j" x="122" y="1451">set</text></a><rect class="l" x="25" y="1464" width="60" height="24" rx="7"/><text class="j" x="35" y="1480">unset:</text><a xlink:href="#unset"><rect class="r" x="95" y="1464" width="56" height="24"/><text class="j" x="105" y="1480">unset</text></a><rect class="l" x="25" y="1493" width="72" height="24" rx="7"/><text class="j" x="35" y="1509">nothing:</text><a xlink:href="#nothing"><rect class="r" x="107" y="1493" width="68" height="24"/><text class="j" x="117" y="1509">nothing</text></a><rect class="l" x="25" y="1522" width="46" height="24" rx="7"/><text class="j" x="35" y="1538">any:</text><a xlink:href="#value"><rect class="r" x="101" y="1522" width="53" height="24"/><text class="j" x="111" y="1538">value</text></a><a xlink:href="#unset"><rect class="r" x="101" y="1551" width="56" height="24"/><text class="j" x="111" y="1567">unset</text></a></svg>