<svg version="1.1" xmlns:xlink="http://www.w3.org/1999/xlink" xmlns="http://www.w3.org/2000/svg" width="1140" height="1685" viewbox="0 0 1140 1685"><defs><style type="text/css">.c{fill: none; stroke: #888888; stroke-width: 2px;}.j{fill:#000000;font-family:Verdana,Sans-serif;font-size:12px;}.l{fill:#90d9ff;stroke:#222222;}.r{fill:#d3f0ff;stroke:#222222;}</style></defs><path class="c" d="M0 18h25m163 0h30m41 0h20m-71 25q0 5 5 5h5m38 0h8q5 0 5-5m-61 30q0 5 5 5h5m28 0h18q5 0 5-5m-61 30q0 5 5 5h5m25 0h21q5 0 5-5m-61 30q0 5 5 5h5m28 0h18q5 0 5-5m-61 30q0 5 5 5h5m30 0h16q5 0 5-5m-61 30q0 5 5 5h5m30 0h16q5 0 5-5m-61 30q0 5 5 5h5m30 0h16q5 0 5-5m-61 30q0 5 5 5h5m28 0h18q5 0 5-5m-61 30q0 5 5 5h5m24 0h22q5 0 5-5m-66-265q5 0 5 5v290q0 5 5 5h5m27 0h19q5 0 5-5v-290q0-5 5-5m5 0h856m-1120 325q0 5 5 5h5m152 0h30m30 0h20m-65 0q5 0 5 5v20q0 5 5 5h5m25 0h10q5 0 5-5v-20q0-5 5-5m5 0h863q5 0 5-5m-1110 60q0 5 5 5h5m128 0h30m158 0h20m-188 25q0 5 5 5h5m147 0h16q5 0 5-5m-183-25q5 0 5 5v50q0 5 5 5h5m41 0h122q5 0 5-5v-50q0-5 5-5m5 0h759q5 0 5-5m-1110 90q0 5 5 5h5m98 0h30m147 0h284m-446 0q5 0 5 5v35q0 5 5 5h25m158 0h20m-193 0q5 0 5 5v20q0 5 5 5h5m147 0h16q5 0 5-5v-20q0-5 5-5m5 0h50m-5 0q-5 0-5-5v-17q0-5 5-5h133q5 0 5 5v17q0 5-5 5m-5 0h40m-198 0q5 0 5 5v8q0 5 5 5h173q5 0 5-5v-8q0-5 5-5m5 0h5q5 0 5-5v-35q0-5 5-5m5 0h536q5 0 5-5m-1110 105q0 5 5 5h5m67 0h30m93 0h30m25 0h10m93 0h20m-163 0q5 0 5 5v8q0 5 5 5h138q5 0 5-5v-8q0-5 5-5m5 0h86m-372 0q5 0 5 5v35q0 5 5 5h5m23 0h10m93 0h30m25 0h10m93 0h20m-163 0q5 0 5 5v8q0 5 5 5h138q5 0 5-5v-8q0-5 5-5m5 0h10m23 0h5q5 0 5-5v-35q0-5 5-5m5 0h641q5 0 5-5m-1110 90q0 5 5 5h5m71 0h30m45 0h22m-82 0q5 0 5 5v20q0 5 5 5h5m47 0h5q5 0 5-5v-20q0-5 5-5m5 0h927q5 0 5-5m-1110 75q0 5 5 5h5m59 0h10m26 0h50m-5 0q-5 0-5-5v-17q0-5 5-5h481q5 0 5 5v17q0 5-5 5m-476 0h20m46 0h405m-466 0q5 0 5 5v20q0 5 5 5h5m25 0h30m25 0h351m-386 25q0 5 5 5h5m26 0h335q5 0 5-5m-376 30q0 5 5 5h5m25 0h336q5 0 5-5m-376 30q0 5 5 5h5m28 0h333q5 0 5-5m-381-85q5 0 5 5v110q0 5 5 5h5m28 0h10m72 0h10m72 0h10m72 0h10m72 0h5q5 0 5-5v-110q0-5 5-5m5 0h5q5 0 5-5v-20q0-5 5-5m5 0h40m-546 0q5 0 5 5v158q0 5 5 5h521q5 0 5-5v-158q0-5 5-5m5 0h10m26 0h403q5 0 5-5m-1110 210q0 5 5 5h5m67 0h30m147 0h20m-182 0q5 0 5 5v8q0 5 5 5h157q5 0 5-5v-8q0-5 5-5m5 0h10m41 0h50m-5 0q-5 0-5-5v-17q0-5 5-5h51q5 0 5 5v17q0 5-5 5m-5 0h40m-116 0q5 0 5 5v8q0 5 5 5h91q5 0 5-5v-8q0-5 5-5m5 0h649q5 0 5-5m-1110 60q0 5 5 5h5m103 0h10m30 0h10m27 0h30m86 0h20m-121 0q5 0 5 5v8q0 5 5 5h96q5 0 5-5v-8q0-5 5-5m5 0h10m26 0h30m25 0h20m-60 0q5 0 5 5v8q0 5 5 5h35q5 0 5-5v-8q0-5 5-5m5 0h30m28 0h164m-207 0q5 0 5 5v35q0 5 5 5h5m41 0h50m-5 0q-5 0-5-5v-17q0-5 5-5h51q5 0 5 5v17q0 5-5 5m-5 0h40m-116 0q5 0 5 5v8q0 5 5 5h91q5 0 5-5v-8q0-5 5-5m5 0h5q5 0 5-5v-35q0-5 5-5m5 0h10m24 0h10m41 0h50m-5 0q-5 0-5-5v-17q0-5 5-5h51q5 0 5 5v17q0 5-5 5m-5 0h40m-116 0q5 0 5 5v8q0 5 5 5h91q5 0 5-5v-8q0-5 5-5m5 0h10m26 0h194q5 0 5-5m-1110 105q0 5 5 5h5m75 0h10m28 0h10m54 0h10m25 0h10m108 0h50m-5 0q-5 0-5-5v-17q0-5 5-5h203q5 0 5 5v17q0 5-5 5m-174 0h10m62 0h10m25 0h10m52 0h40m-268 0q5 0 5 5v8q0 5 5 5h243q5 0 5-5v-8q0-5 5-5m5 0h10m28 0h444q5 0 5-5m-1110 60q0 5 5 5h5m62 0h10m25 0h30m86 0h20m-121 0q5 0 5 5v8q0 5 5 5h96q5 0 5-5v-8q0-5 5-5m5 0h30m52 0h20m-87 0q5 0 5 5v8q0 5 5 5h62q5 0 5-5v-8q0-5 5-5m5 0h30m86 0h20m-121 0q5 0 5 5v8q0 5 5 5h96q5 0 5-5v-8q0-5 5-5m5 0h50m-5 0q-5 0-5-5v-17q0-5 5-5h368q5 0 5 5v17q0 5-5 5m-339 0h30m86 0h20m-121 0q5 0 5 5v8q0 5 5 5h96q5 0 5-5v-8q0-5 5-5m5 0h10m52 0h30m86 0h20m-121 0q5 0 5 5v8q0 5 5 5h96q5 0 5-5v-8q0-5 5-5m5 0h40m-433 0q5 0 5 5v23q0 5 5 5h408q5 0 5-5v-23q0-5 5-5m5 0h30m86 0h20m-121 0q5 0 5 5v8q0 5 5 5h96q5 0 5-5v-8q0-5 5-5m5 0h10m25 0h5q5 0 5-5m-1110 75q0 5 5 5h5m43 0h10m30 0h10m28 0h30m86 0h20m-121 0q5 0 5 5v8q0 5 5 5h96q5 0 5-5v-8q0-5 5-5m5 0h30m52 0h20m-87 0q5 0 5 5v8q0 5 5 5h62q5 0 5-5v-8q0-5 5-5m5 0h30m86 0h20m-121 0q5 0 5 5v8q0 5 5 5h96q5 0 5-5v-8q0-5 5-5m5 0h50m-5 0q-5 0-5-5v-17q0-5 5-5h368q5 0 5 5v17q0 5-5 5m-339 0h30m86 0h20m-121 0q5 0 5 5v8q0 5 5 5h96q5 0 5-5v-8q0-5 5-5m5 0h10m52 0h30m86 0h20m-121 0q5 0 5 5v8q0 5 5 5h96q5 0 5-5v-8q0-5 5-5m5 0h40m-433 0q5 0 5 5v23q0 5 5 5h408q5 0 5-5v-23q0-5 5-5m5 0h10m28 0h114q5 0 5-5m-1110 60q0 5 5 5h5m57 0h30m66 0h52m-128 25q0 5 5 5h5m54 0h49q5 0 5-5m-118 30q0 5 5 5h5m62 0h41q5 0 5-5m-118 30q0 5 5 5h5m98 0h5q5 0 5-5m-118 30q0 5 5 5h5m70 0h33q5 0 5-5m-118 30q0 5 5 5h5m57 0h46q5 0 5-5m-123-145q5 0 5 5v170q0 5 5 5h5m38 0h65q5 0 5-5v-170q0-5 5-5m5 0h890q5 0 5-5m-1110 210q0 5 5 5h5m59 0h10m54 0h972q5 0 5-5m-1110 30q0 5 5 5h5m71 0h10m66 0h948q5 0 5-5m-1110 30q0 5 5 5h5m47 0h30m52 0h22m-89 0q5 0 5 5v20q0 5 5 5h5m54 0h5q5 0 5-5v-20q0-5 5-5m5 0h944q5 0 5-5m-1115-1585q5 0 5 5v1640q0 5 5 5h5m82 0h10m30 0h10m77 0h886q5 0 5-5v-1640q0-5 5-5m5 0h5"/><rect class="l" x="25" y="5" width="163" height="25" rx="7"/><text class="j" x="35" y="22">non-numeric-character:</text><rect class="l" x="218" y="5" width="41" height="25" rx="7"/><text class="j" x="228" y="22">A-Z</text><rect class="l" x="218" y="35" width="38" height="25" rx="7"/><text class="j" x="228" y="52">a-z</text><rect class="l" x="218" y="65" width="28" height="25" rx="7"/><text class="j" x="228" y="82">*</text><rect class="l" x="218" y="95" width="25" height="25" rx="7"/><text class="j" x="228" y="112">!</text><rect class="l" x="218" y="125" width="28" height="25" rx="7"/><text class="j" x="228" y="142">$</text><rect class="l" x="218" y="155" width="30" height="25" rx="7"/><text class="j" x="228" y="172">=</text><rect class="l" x="218" y="185" width="30" height="25" rx="7"/><text class="j" x="228" y="202">&lt;</text><rect class="l" x="218" y="215" width="30" height="25" rx="7"/><text class="j" x="228" y="232">&gt;</text><rect class="l" x="218" y="245" width="28" height="25" rx="7"/><text class="j" x="228" y="262">_</text><rect class="l" x="218" y="275" width="24" height="25" rx="7"/><text class="j" x="228" y="292">.</text><rect class="l" x="218" y="305" width="27" height="25" rx="7"/><text class="j" x="228" y="322">?</text><rect class="l" x="25" y="335" width="152" height="25" rx="7"/><text class="j" x="35" y="352">plus-minus-character:</text><rect class="l" x="207" y="335" width="30" height="25" rx="7"/><text class="j" x="217" y="352">+</text><rect class="l" x="207" y="365" width="25" height="25" rx="7"/><text class="j" x="217" y="382">-</text><rect class="l" x="25" y="395" width="128" height="25" rx="7"/><text class="j" x="35" y="412">symbol-character:</text><a xlink:href="#non-numeric-character"><rect class="r" x="183" y="395" width="158" height="25"/><text class="j" x="193" y="412">non-numeric-character</text></a><a xlink:href="#plus-minus-character"><rect class="r" x="183" y="425" width="147" height="25"/><text class="j" x="193" y="442">plus-minus-character</text></a><rect class="l" x="183" y="455" width="41" height="25" rx="7"/><text class="j" x="193" y="472">0-9</text><rect class="l" x="25" y="485" width="98" height="25" rx="7"/><text class="j" x="35" y="502">bare-symbol:</text><a xlink:href="#plus-minus-character"><rect class="r" x="153" y="485" width="147" height="25"/><text class="j" x="163" y="502">plus-minus-character</text></a><a xlink:href="#non-numeric-character"><rect class="r" x="173" y="530" width="158" height="25"/><text class="j" x="183" y="547">non-numeric-character</text></a><a xlink:href="#plus-minus-character"><rect class="r" x="173" y="560" width="147" height="25"/><text class="j" x="183" y="577">plus-minus-character</text></a><a xlink:href="#symbol-character"><rect class="r" x="401" y="530" width="123" height="25"/><text class="j" x="411" y="547">symbol-character</text></a><rect class="l" x="25" y="590" width="67" height="25" rx="7"/><text class="j" x="35" y="607">symbol:</text><a xlink:href="#bare-symbol"><rect class="r" x="122" y="590" width="93" height="25"/><text class="j" x="132" y="607">bare-symbol</text></a><rect class="l" x="245" y="590" width="25" height="25" rx="7"/><text class="j" x="255" y="607">/</text><a xlink:href="#bare-symbol"><rect class="r" x="280" y="590" width="93" height="25"/><text class="j" x="290" y="607">bare-symbol</text></a><rect class="l" x="122" y="635" width="23" height="25" rx="7"/><text class="j" x="132" y="652">’</text><a xlink:href="#bare-symbol"><rect class="r" x="155" y="635" width="93" height="25"/><text class="j" x="165" y="652">bare-symbol</text></a><rect class="l" x="278" y="635" width="25" height="25" rx="7"/><text class="j" x="288" y="652">/</text><a xlink:href="#bare-symbol"><rect class="r" x="313" y="635" width="93" height="25"/><text class="j" x="323" y="652">bare-symbol</text></a><rect class="l" x="436" y="635" width="23" height="25" rx="7"/><text class="j" x="446" y="652">’</text><rect class="l" x="25" y="680" width="71" height="25" rx="7"/><text class="j" x="35" y="697">boolean:</text><a xlink:href="#true"><rect class="r" x="126" y="680" width="45" height="25"/><text class="j" x="136" y="697">true</text></a><a xlink:href="#false"><rect class="r" x="126" y="710" width="47" height="25"/><text class="j" x="136" y="727">false</text></a><rect class="l" x="25" y="755" width="59" height="25" rx="7"/><text class="j" x="35" y="772">string:</text><rect class="l" x="94" y="755" width="26" height="25" rx="7"/><text class="j" x="104" y="772">&quot;</text><a xlink:href="#char"><rect class="r" x="190" y="755" width="46" height="25"/><text class="j" x="200" y="772">char</text></a><rect class="l" x="190" y="785" width="25" height="25" rx="7"/><text class="j" x="200" y="802">\</text><rect class="l" x="245" y="785" width="25" height="25" rx="7"/><text class="j" x="255" y="802">\</text><rect class="l" x="245" y="815" width="26" height="25" rx="7"/><text class="j" x="255" y="832">&quot;</text><rect class="l" x="245" y="845" width="25" height="25" rx="7"/><text class="j" x="255" y="862">t</text><rect class="l" x="245" y="875" width="28" height="25" rx="7"/><text class="j" x="255" y="892">n</text><rect class="l" x="245" y="905" width="28" height="25" rx="7"/><text class="j" x="255" y="922">u</text><a xlink:href="#hex-digit"><rect class="r" x="283" y="905" width="72" height="25"/><text class="j" x="293" y="922">hex-digit</text></a><a xlink:href="#hex-digit"><rect class="r" x="365" y="905" width="72" height="25"/><text class="j" x="375" y="922">hex-digit</text></a><a xlink:href="#hex-digit"><rect class="r" x="447" y="905" width="72" height="25"/><text class="j" x="457" y="922">hex-digit</text></a><a xlink:href="#hex-digit"><rect class="r" x="529" y="905" width="72" height="25"/><text class="j" x="539" y="922">hex-digit</text></a><rect class="l" x="691" y="755" width="26" height="25" rx="7"/><text class="j" x="701" y="772">&quot;</text><rect class="l" x="25" y="965" width="67" height="25" rx="7"/><text class="j" x="35" y="982">integer:</text><a xlink:href="#plus-minus-character"><rect class="r" x="122" y="965" width="147" height="25"/><text class="j" x="132" y="982">plus-minus-character</text></a><rect class="l" x="299" y="965" width="41" height="25" rx="7"/><text class="j" x="309" y="982">0-9</text><rect class="l" x="390" y="965" width="41" height="25" rx="7"/><text class="j" x="400" y="982">0-9</text><rect class="l" x="25" y="1025" width="103" height="25" rx="7"/><text class="j" x="35" y="1042">fixed-decimal:</text><rect class="l" x="138" y="1025" width="30" height="25" rx="7"/><text class="j" x="148" y="1042">#</text><rect class="l" x="178" y="1025" width="27" height="25" rx="7"/><text class="j" x="188" y="1042">d</text><a xlink:href="#whitespace"><rect class="r" x="235" y="1025" width="86" height="25"/><text class="j" x="245" y="1042">whitespace</text></a><rect class="l" x="351" y="1025" width="26" height="25" rx="7"/><text class="j" x="361" y="1042">&quot;</text><rect class="l" x="407" y="1025" width="25" height="25" rx="7"/><text class="j" x="417" y="1042">-</text><rect class="l" x="482" y="1025" width="28" height="25" rx="7"/><text class="j" x="492" y="1042">0</text><rect class="l" x="482" y="1070" width="41" height="25" rx="7"/><text class="j" x="492" y="1087">1-9</text><rect class="l" x="573" y="1070" width="41" height="25" rx="7"/><text class="j" x="583" y="1087">0-9</text><rect class="l" x="684" y="1025" width="24" height="25" rx="7"/><text class="j" x="694" y="1042">.</text><rect class="l" x="718" y="1025" width="41" height="25" rx="7"/><text class="j" x="728" y="1042">0-9</text><rect class="l" x="809" y="1025" width="41" height="25" rx="7"/><text class="j" x="819" y="1042">0-9</text><rect class="l" x="900" y="1025" width="26" height="25" rx="7"/><text class="j" x="910" y="1042">&quot;</text><rect class="l" x="25" y="1130" width="75" height="25" rx="7"/><text class="j" x="35" y="1147">instance:</text><rect class="l" x="110" y="1130" width="28" height="25" rx="7"/><text class="j" x="120" y="1147">{</text><rect class="l" x="148" y="1130" width="54" height="25" rx="7"/><text class="j" x="158" y="1147">$type</text><rect class="l" x="212" y="1130" width="25" height="25" rx="7"/><text class="j" x="222" y="1147">:</text><a xlink:href="#symbol:spec-id"><rect class="r" x="247" y="1130" width="108" height="25"/><text class="j" x="257" y="1147">symbol:spec-id</text></a><rect class="l" x="405" y="1130" width="24" height="25" rx="7"/><text class="j" x="415" y="1147">,</text><a xlink:href="#symbol"><rect class="r" x="439" y="1130" width="62" height="25"/><text class="j" x="449" y="1147">symbol</text></a><rect class="l" x="511" y="1130" width="25" height="25" rx="7"/><text class="j" x="521" y="1147">:</text><a xlink:href="#value"><rect class="r" x="546" y="1130" width="52" height="25"/><text class="j" x="556" y="1147">value</text></a><rect class="l" x="648" y="1130" width="28" height="25" rx="7"/><text class="j" x="658" y="1147">}</text><rect class="l" x="25" y="1190" width="62" height="25" rx="7"/><text class="j" x="35" y="1207">vector:</text><rect class="l" x="97" y="1190" width="25" height="25" rx="7"/><text class="j" x="107" y="1207">[</text><a xlink:href="#whitespace"><rect class="r" x="152" y="1190" width="86" height="25"/><text class="j" x="162" y="1207">whitespace</text></a><a xlink:href="#value"><rect class="r" x="288" y="1190" width="52" height="25"/><text class="j" x="298" y="1207">value</text></a><a xlink:href="#whitespace"><rect class="r" x="390" y="1190" width="86" height="25"/><text class="j" x="400" y="1207">whitespace</text></a><rect class="l" x="546" y="1190" width="24" height="25" rx="7"/><text class="j" x="556" y="1207">,</text><a xlink:href="#whitespace"><rect class="r" x="600" y="1190" width="86" height="25"/><text class="j" x="610" y="1207">whitespace</text></a><a xlink:href="#value"><rect class="r" x="716" y="1190" width="52" height="25"/><text class="j" x="726" y="1207">value</text></a><a xlink:href="#whitespace"><rect class="r" x="798" y="1190" width="86" height="25"/><text class="j" x="808" y="1207">whitespace</text></a><a xlink:href="#whitespace"><rect class="r" x="974" y="1190" width="86" height="25"/><text class="j" x="984" y="1207">whitespace</text></a><rect class="l" x="1090" y="1190" width="25" height="25" rx="7"/><text class="j" x="1100" y="1207">]</text><rect class="l" x="25" y="1265" width="43" height="25" rx="7"/><text class="j" x="35" y="1282">set:</text><rect class="l" x="78" y="1265" width="30" height="25" rx="7"/><text class="j" x="88" y="1282">#</text><rect class="l" x="118" y="1265" width="28" height="25" rx="7"/><text class="j" x="128" y="1282">{</text><a xlink:href="#whitespace"><rect class="r" x="176" y="1265" width="86" height="25"/><text class="j" x="186" y="1282">whitespace</text></a><a xlink:href="#value"><rect class="r" x="312" y="1265" width="52" height="25"/><text class="j" x="322" y="1282">value</text></a><a xlink:href="#whitespace"><rect class="r" x="414" y="1265" width="86" height="25"/><text class="j" x="424" y="1282">whitespace</text></a><rect class="l" x="570" y="1265" width="24" height="25" rx="7"/><text class="j" x="580" y="1282">,</text><a xlink:href="#whitespace"><rect class="r" x="624" y="1265" width="86" height="25"/><text class="j" x="634" y="1282">whitespace</text></a><a xlink:href="#value"><rect class="r" x="740" y="1265" width="52" height="25"/><text class="j" x="750" y="1282">value</text></a><a xlink:href="#whitespace"><rect class="r" x="822" y="1265" width="86" height="25"/><text class="j" x="832" y="1282">whitespace</text></a><rect class="l" x="978" y="1265" width="28" height="25" rx="7"/><text class="j" x="988" y="1282">}</text><rect class="l" x="25" y="1325" width="57" height="25" rx="7"/><text class="j" x="35" y="1342">value:</text><a xlink:href="#boolean"><rect class="r" x="112" y="1325" width="66" height="25"/><text class="j" x="122" y="1342">boolean</text></a><a xlink:href="#string"><rect class="r" x="112" y="1355" width="54" height="25"/><text class="j" x="122" y="1372">string</text></a><a xlink:href="#integer"><rect class="r" x="112" y="1385" width="62" height="25"/><text class="j" x="122" y="1402">integer</text></a><a xlink:href="#fixed-decimal"><rect class="r" x="112" y="1415" width="98" height="25"/><text class="j" x="122" y="1432">fixed-decimal</text></a><a xlink:href="#instance"><rect class="r" x="112" y="1445" width="70" height="25"/><text class="j" x="122" y="1462">instance</text></a><a xlink:href="#vector"><rect class="r" x="112" y="1475" width="57" height="25"/><text class="j" x="122" y="1492">vector</text></a><a xlink:href="#set"><rect class="r" x="112" y="1505" width="38" height="25"/><text class="j" x="122" y="1522">set</text></a><rect class="l" x="25" y="1535" width="59" height="25" rx="7"/><text class="j" x="35" y="1552">unset:</text><a xlink:href="#unset"><rect class="r" x="94" y="1535" width="54" height="25"/><text class="j" x="104" y="1552">unset</text></a><rect class="l" x="25" y="1565" width="71" height="25" rx="7"/><text class="j" x="35" y="1582">nothing:</text><a xlink:href="#nothing"><rect class="r" x="106" y="1565" width="66" height="25"/><text class="j" x="116" y="1582">nothing</text></a><rect class="l" x="25" y="1595" width="47" height="25" rx="7"/><text class="j" x="35" y="1612">any:</text><a xlink:href="#value"><rect class="r" x="102" y="1595" width="52" height="25"/><text class="j" x="112" y="1612">value</text></a><a xlink:href="#unset"><rect class="r" x="102" y="1625" width="54" height="25"/><text class="j" x="112" y="1642">unset</text></a><rect class="l" x="25" y="1655" width="82" height="25" rx="7"/><text class="j" x="35" y="1672">comment:</text><rect class="l" x="117" y="1655" width="30" height="25" rx="7"/><text class="j" x="127" y="1672">//</text><a xlink:href="#comment"><rect class="r" x="157" y="1655" width="77" height="25"/><text class="j" x="167" y="1672">comment</text></a></svg>