<svg version="1.1" xmlns:xlink="http://www.w3.org/1999/xlink" xmlns="http://www.w3.org/2000/svg" width="866" height="1085" viewbox="0 0 866 1085"><defs><style type="text/css">.c{fill:none;stroke:#222222;}.j{fill:#000000;font-family:Verdana,Sans-serif;font-size:12px;}.l{fill:#90d9ff;stroke:#222222;}.r{fill:#d3f0ff;stroke:#222222;}</style></defs><path class="c" d="M0 22h25m121 0h30m41 0h20m-71 25q0 5 5 5h5m40 0h6q5 0 5-5m-61 30q0 5 5 5h5m28 0h18q5 0 5-5m-61 30q0 5 5 5h5m25 0h21q5 0 5-5m-61 30q0 5 5 5h5m28 0h18q5 0 5-5m-61 30q0 5 5 5h5m29 0h17q5 0 5-5m-61 30q0 5 5 5h5m29 0h17q5 0 5-5m-61 30q0 5 5 5h5m29 0h17q5 0 5-5m-61 30q0 5 5 5h5m28 0h18q5 0 5-5m-66-235q5 0 5 5v260q0 5 5 5h5m24 0h22q5 0 5-5v-260q0-5 5-5m5 0h624m-846 295q0 5 5 5h5m157 0h30m29 0h20m-64 0q5 0 5 5v20q0 5 5 5h5m25 0h9q5 0 5-5v-20q0-5 5-5m5 0h585q5 0 5-5m-836 60q0 5 5 5h5m133 0h30m116 0h56m-182 25q0 5 5 5h5m152 0h5q5 0 5-5m-177-25q5 0 5 5v50q0 5 5 5h5m41 0h116q5 0 5-5v-50q0-5 5-5m5 0h486q5 0 5-5m-836 90q0 5 5 5h5m114 0h30m152 0h520m-687 0q5 0 5 5v35q0 5 5 5h25m116 0h258m-389 0q5 0 5 5v20q0 5 5 5h5m152 0h30m116 0h56m-187 0q5 0 5 5v20q0 5 5 5h5m152 0h5q5 0 5-5v-20q0-5 5-5m5 0h5q5 0 5-5v-20q0-5 5-5m5 0h70m-5 0q-5 0-5-5v-17q0-5 5-5h138q5 0 5 5v17q0 5-5 5m-5 0h40m-203 0q5 0 5 5v8q0 5 5 5h178q5 0 5-5v-8q0-5 5-5m5 0h20m-243 0q5 0 5 5v23q0 5 5 5h218q5 0 5-5v-23q0-5 5-5m5 0h5q5 0 5-5v-35q0-5 5-5m5 0h5q5 0 5-5m-836 135q0 5 5 5h5m69 0h10m109 0h30m25 0h10m109 0h20m-179 0q5 0 5 5v8q0 5 5 5h154q5 0 5-5v-8q0-5 5-5m5 0h439q5 0 5-5m-836 45q0 5 5 5h5m79 0h10m25 0h10m64 0h633q5 0 5-5m-836 30q0 5 5 5h5m76 0h30m46 0h24m-85 0q5 0 5 5v20q0 5 5 5h5m50 0h5q5 0 5-5v-20q0-5 5-5m5 0h645q5 0 5-5m-836 75q0 5 5 5h5m61 0h10m26 0h50m-5 0q-5 0-5-5v-17q0-5 5-5h57q5 0 5 5v17q0 5-5 5m-5 0h40m-122 0q5 0 5 5v8q0 5 5 5h97q5 0 5-5v-8q0-5 5-5m5 0h10m26 0h551q5 0 5-5m-836 60q0 5 5 5h5m70 0h30m152 0h20m-187 0q5 0 5 5v8q0 5 5 5h162q5 0 5-5v-8q0-5 5-5m5 0h10m41 0h50m-5 0q-5 0-5-5v-17q0-5 5-5h51q5 0 5 5v17q0 5-5 5m-5 0h40m-116 0q5 0 5 5v8q0 5 5 5h91q5 0 5-5v-8q0-5 5-5m5 0h367q5 0 5-5m-836 60q0 5 5 5h5m107 0h10m38 0h10m26 0h30m25 0h20m-60 0q5 0 5 5v8q0 5 5 5h35q5 0 5-5v-8q0-5 5-5m5 0h10m41 0h50m-5 0q-5 0-5-5v-17q0-5 5-5h51q5 0 5 5v17q0 5-5 5m-5 0h40m-116 0q5 0 5 5v8q0 5 5 5h91q5 0 5-5v-8q0-5 5-5m5 0h10m24 0h10m41 0h50m-5 0q-5 0-5-5v-17q0-5 5-5h51q5 0 5 5v17q0 5-5 5m-5 0h40m-116 0q5 0 5 5v8q0 5 5 5h91q5 0 5-5v-8q0-5 5-5m5 0h10m26 0h121q5 0 5-5m-836 60q0 5 5 5h5m78 0h10m28 0h10m61 0h10m124 0h50m-5 0q-5 0-5-5v-17q0-5 5-5h148q5 0 5 5v17q0 5-5 5m-69 0h10m54 0h40m-213 0q5 0 5 5v8q0 5 5 5h188q5 0 5-5v-8q0-5 5-5m5 0h10m28 0h234q5 0 5-5m-836 60q0 5 5 5h5m64 0h10m25 0h50m-5 0q-5 0-5-5v-17q0-5 5-5h64q5 0 5 5v17q0 5-5 5m-5 0h40m-129 0q5 0 5 5v8q0 5 5 5h104q5 0 5-5v-8q0-5 5-5m5 0h10m25 0h543q5 0 5-5m-841-970q5 0 5 5v1025q0 5 5 5h5m45 0h10m30 0h10m28 0h50m-5 0q-5 0-5-5v-17q0-5 5-5h64q5 0 5 5v17q0 5-5 5m-5 0h40m-129 0q5 0 5 5v8q0 5 5 5h104q5 0 5-5v-8q0-5 5-5m5 0h10m28 0h516q5 0 5-5v-1025q0-5 5-5m5 0h5"/><rect class="l" x="25" y="5" width="121" height="25" rx="7"/><text class="j" x="35" y="22">basic-character:</text><rect class="l" x="176" y="5" width="41" height="25" rx="7"/><text class="j" x="186" y="22">A-Z</text><rect class="l" x="176" y="35" width="40" height="25" rx="7"/><text class="j" x="186" y="52">a-z</text><rect class="l" x="176" y="65" width="28" height="25" rx="7"/><text class="j" x="186" y="82">*</text><rect class="l" x="176" y="95" width="25" height="25" rx="7"/><text class="j" x="186" y="112">!</text><rect class="l" x="176" y="125" width="28" height="25" rx="7"/><text class="j" x="186" y="142">$</text><rect class="l" x="176" y="155" width="29" height="25" rx="7"/><text class="j" x="186" y="172">=</text><rect class="l" x="176" y="185" width="29" height="25" rx="7"/><text class="j" x="186" y="202">&lt;</text><rect class="l" x="176" y="215" width="29" height="25" rx="7"/><text class="j" x="186" y="232">&gt;</text><rect class="l" x="176" y="245" width="28" height="25" rx="7"/><text class="j" x="186" y="262">_</text><rect class="l" x="176" y="275" width="24" height="25" rx="7"/><text class="j" x="186" y="292">.</text><rect class="l" x="25" y="305" width="157" height="25" rx="7"/><text class="j" x="35" y="322">plus-minus-character:</text><rect class="l" x="212" y="305" width="29" height="25" rx="7"/><text class="j" x="222" y="322">+</text><rect class="l" x="212" y="335" width="25" height="25" rx="7"/><text class="j" x="222" y="352">-</text><rect class="l" x="25" y="365" width="133" height="25" rx="7"/><text class="j" x="35" y="382">symbol-character:</text><a xlink:href="#basic-character"><rect class="r" x="188" y="365" width="116" height="25"/><text class="j" x="198" y="382">basic-character</text></a><a xlink:href="#plus-minus-character"><rect class="r" x="188" y="395" width="152" height="25"/><text class="j" x="198" y="412">plus-minus-character</text></a><rect class="l" x="188" y="425" width="41" height="25" rx="7"/><text class="j" x="198" y="442">0-9</text><rect class="l" x="25" y="455" width="114" height="25" rx="7"/><text class="j" x="35" y="472">simple-symbol:</text><a xlink:href="#plus-minus-character"><rect class="r" x="169" y="455" width="152" height="25"/><text class="j" x="179" y="472">plus-minus-character</text></a><a xlink:href="#basic-character"><rect class="r" x="189" y="500" width="116" height="25"/><text class="j" x="199" y="517">basic-character</text></a><a xlink:href="#plus-minus-character"><rect class="r" x="189" y="530" width="152" height="25"/><text class="j" x="199" y="547">plus-minus-character</text></a><a xlink:href="#basic-character"><rect class="r" x="371" y="530" width="116" height="25"/><text class="j" x="381" y="547">basic-character</text></a><a xlink:href="#plus-minus-character"><rect class="r" x="371" y="560" width="152" height="25"/><text class="j" x="381" y="577">plus-minus-character</text></a><a xlink:href="#symbol-character"><rect class="r" x="633" y="500" width="128" height="25"/><text class="j" x="643" y="517">symbol-character</text></a><rect class="l" x="25" y="590" width="69" height="25" rx="7"/><text class="j" x="35" y="607">symbol:</text><a xlink:href="#simple-symbol"><rect class="r" x="104" y="590" width="109" height="25"/><text class="j" x="114" y="607">simple-symbol</text></a><rect class="l" x="243" y="590" width="25" height="25" rx="7"/><text class="j" x="253" y="607">/</text><a xlink:href="#simple-symbol"><rect class="r" x="278" y="590" width="109" height="25"/><text class="j" x="288" y="607">simple-symbol</text></a><rect class="l" x="25" y="635" width="79" height="25" rx="7"/><text class="j" x="35" y="652">keyword:</text><rect class="l" x="114" y="635" width="25" height="25" rx="7"/><text class="j" x="124" y="652">:</text><a xlink:href="#symbol"><rect class="r" x="149" y="635" width="64" height="25"/><text class="j" x="159" y="652">symbol</text></a><rect class="l" x="25" y="665" width="76" height="25" rx="7"/><text class="j" x="35" y="682">boolean:</text><a xlink:href="#true"><rect class="r" x="131" y="665" width="46" height="25"/><text class="j" x="141" y="682">true</text></a><a xlink:href="#false"><rect class="r" x="131" y="695" width="50" height="25"/><text class="j" x="141" y="712">false</text></a><rect class="l" x="25" y="740" width="61" height="25" rx="7"/><text class="j" x="35" y="757">string:</text><rect class="l" x="96" y="740" width="26" height="25" rx="7"/><text class="j" x="106" y="757">&quot;</text><a xlink:href="#char"><rect class="r" x="172" y="740" width="47" height="25"/><text class="j" x="182" y="757">char</text></a><rect class="l" x="269" y="740" width="26" height="25" rx="7"/><text class="j" x="279" y="757">&quot;</text><rect class="l" x="25" y="800" width="70" height="25" rx="7"/><text class="j" x="35" y="817">integer:</text><a xlink:href="#plus-minus-character"><rect class="r" x="125" y="800" width="152" height="25"/><text class="j" x="135" y="817">plus-minus-character</text></a><rect class="l" x="307" y="800" width="41" height="25" rx="7"/><text class="j" x="317" y="817">0-9</text><rect class="l" x="398" y="800" width="41" height="25" rx="7"/><text class="j" x="408" y="817">0-9</text><rect class="l" x="25" y="860" width="107" height="25" rx="7"/><text class="j" x="35" y="877">fixed-decimal:</text><rect class="l" x="142" y="860" width="38" height="25" rx="7"/><text class="j" x="152" y="877">#d</text><rect class="l" x="190" y="860" width="26" height="25" rx="7"/><text class="j" x="200" y="877">&quot;</text><rect class="l" x="246" y="860" width="25" height="25" rx="7"/><text class="j" x="256" y="877">-</text><rect class="l" x="301" y="860" width="41" height="25" rx="7"/><text class="j" x="311" y="877">0-9</text><rect class="l" x="392" y="860" width="41" height="25" rx="7"/><text class="j" x="402" y="877">0-9</text><rect class="l" x="483" y="860" width="24" height="25" rx="7"/><text class="j" x="493" y="877">.</text><rect class="l" x="517" y="860" width="41" height="25" rx="7"/><text class="j" x="527" y="877">0-9</text><rect class="l" x="608" y="860" width="41" height="25" rx="7"/><text class="j" x="618" y="877">0-9</text><rect class="l" x="699" y="860" width="26" height="25" rx="7"/><text class="j" x="709" y="877">&quot;</text><rect class="l" x="25" y="920" width="78" height="25" rx="7"/><text class="j" x="35" y="937">instance:</text><rect class="l" x="113" y="920" width="28" height="25" rx="7"/><text class="j" x="123" y="937">{</text><rect class="l" x="151" y="920" width="61" height="25" rx="7"/><text class="j" x="161" y="937">:$type</text><a xlink:href="#keyword:spec-id"><rect class="r" x="222" y="920" width="124" height="25"/><text class="j" x="232" y="937">keyword:spec-id</text></a><a xlink:href="#keyword"><rect class="r" x="396" y="920" width="74" height="25"/><text class="j" x="406" y="937">keyword</text></a><a xlink:href="#value"><rect class="r" x="480" y="920" width="54" height="25"/><text class="j" x="490" y="937">value</text></a><rect class="l" x="584" y="920" width="28" height="25" rx="7"/><text class="j" x="594" y="937">}</text><rect class="l" x="25" y="980" width="64" height="25" rx="7"/><text class="j" x="35" y="997">vector:</text><rect class="l" x="99" y="980" width="25" height="25" rx="7"/><text class="j" x="109" y="997">[</text><a xlink:href="#value"><rect class="r" x="174" y="980" width="54" height="25"/><text class="j" x="184" y="997">value</text></a><rect class="l" x="278" y="980" width="25" height="25" rx="7"/><text class="j" x="288" y="997">]</text><rect class="l" x="25" y="1040" width="45" height="25" rx="7"/><text class="j" x="35" y="1057">set:</text><rect class="l" x="80" y="1040" width="30" height="25" rx="7"/><text class="j" x="90" y="1057">#</text><rect class="l" x="120" y="1040" width="28" height="25" rx="7"/><text class="j" x="130" y="1057">{</text><a xlink:href="#value"><rect class="r" x="198" y="1040" width="54" height="25"/><text class="j" x="208" y="1057">value</text></a><rect class="l" x="302" y="1040" width="28" height="25" rx="7"/><text class="j" x="312" y="1057">}</text></svg>