<svg version="1.1" xmlns:xlink="http://www.w3.org/1999/xlink" xmlns="http://www.w3.org/2000/svg" width="1168" height="1610" viewbox="0 0 1168 1610"><defs><style type="text/css">.c{fill: none; stroke: #888888; stroke-width: 2px;}.j{fill:#000000;font-family:Dialog,Sans-serif;font-size:12px;}.l{fill:#90d9ff;stroke:#222222;}.r{fill:#d3f0ff;stroke:#222222;}</style></defs><path class="c" d="M0 17h25m167 0h30m41 0h20m-71 24q0 5 5 5h5m37 0h9q5 0 5-5m-61 29q0 5 5 5h5m26 0h20q5 0 5-5m-61 29q0 5 5 5h5m25 0h21q5 0 5-5m-61 29q0 5 5 5h5m28 0h18q5 0 5-5m-61 29q0 5 5 5h5m30 0h16q5 0 5-5m-61 29q0 5 5 5h5m30 0h16q5 0 5-5m-61 29q0 5 5 5h5m30 0h16q5 0 5-5m-61 29q0 5 5 5h5m26 0h20q5 0 5-5m-61 29q0 5 5 5h5m24 0h22q5 0 5-5m-66-256q5 0 5 5v280q0 5 5 5h5m26 0h20q5 0 5-5v-280q0-5 5-5m5 0h880m-1148 314q0 5 5 5h5m156 0h30m30 0h20m-65 0q5 0 5 5v19q0 5 5 5h5m24 0h11q5 0 5-5v-19q0-5 5-5m5 0h887q5 0 5-5m-1138 58q0 5 5 5h5m132 0h30m163 0h20m-193 24q0 5 5 5h5m152 0h16q5 0 5-5m-188-24q5 0 5 5v48q0 5 5 5h5m40 0h128q5 0 5-5v-48q0-5 5-5m5 0h778q5 0 5-5m-1138 87q0 5 5 5h5m100 0h30m152 0h329m-496 0q5 0 5 5v34q0 5 5 5h25m163 0h20m-198 0q5 0 5 5v19q0 5 5 5h5m152 0h16q5 0 5-5v-19q0-5 5-5m5 0h70m-5 0q-5 0-5-5v-16q0-5 5-5h138q5 0 5 5v16q0 5-5 5m-5 0h40m-203 0q5 0 5 5v8q0 5 5 5h178q5 0 5-5v-8q0-5 5-5m5 0h20m-243 0q5 0 5 5v23q0 5 5 5h218q5 0 5-5v-23q0-5 5-5m5 0h5q5 0 5-5v-34q0-5 5-5m5 0h512q5 0 5-5m-1138 103q0 5 5 5h5m67 0h30m96 0h30m24 0h10m96 0h20m-165 0q5 0 5 5v8q0 5 5 5h140q5 0 5-5v-8q0-5 5-5m5 0h88m-379 0q5 0 5 5v34q0 5 5 5h5m24 0h10m96 0h30m24 0h10m96 0h20m-165 0q5 0 5 5v8q0 5 5 5h140q5 0 5-5v-8q0-5 5-5m5 0h10m24 0h5q5 0 5-5v-34q0-5 5-5m5 0h662q5 0 5-5m-1138 88q0 5 5 5h5m75 0h30m46 0h24m-85 0q5 0 5 5v19q0 5 5 5h5m50 0h5q5 0 5-5v-19q0-5 5-5m5 0h948q5 0 5-5m-1138 73q0 5 5 5h5m60 0h10m25 0h50m-5 0q-5 0-5-5v-16q0-5 5-5h484q5 0 5 5v16q0 5-5 5m-479 0h20m48 0h406m-469 0q5 0 5 5v19q0 5 5 5h5m24 0h30m24 0h356m-390 24q0 5 5 5h5m25 0h340q5 0 5-5m-380 29q0 5 5 5h5m25 0h340q5 0 5-5m-380 29q0 5 5 5h5m28 0h337q5 0 5-5m-385-82q5 0 5 5v106q0 5 5 5h5m28 0h10m73 0h10m73 0h10m73 0h10m73 0h5q5 0 5-5v-106q0-5 5-5m5 0h5q5 0 5-5v-19q0-5 5-5m5 0h40m-549 0q5 0 5 5v153q0 5 5 5h524q5 0 5-5v-153q0-5 5-5m5 0h10m25 0h429q5 0 5-5m-1138 204q0 5 5 5h5m69 0h30m152 0h20m-187 0q5 0 5 5v8q0 5 5 5h162q5 0 5-5v-8q0-5 5-5m5 0h10m40 0h50m-5 0q-5 0-5-5v-16q0-5 5-5h50q5 0 5 5v16q0 5-5 5m-5 0h40m-115 0q5 0 5 5v8q0 5 5 5h90q5 0 5-5v-8q0-5 5-5m5 0h672q5 0 5-5m-1138 59q0 5 5 5h5m105 0h10m30 0h10m28 0h30m91 0h20m-126 0q5 0 5 5v8q0 5 5 5h101q5 0 5-5v-8q0-5 5-5m5 0h10m25 0h30m24 0h20m-59 0q5 0 5 5v8q0 5 5 5h34q5 0 5-5v-8q0-5 5-5m5 0h30m28 0h162m-205 0q5 0 5 5v34q0 5 5 5h5m40 0h50m-5 0q-5 0-5-5v-16q0-5 5-5h50q5 0 5 5v16q0 5-5 5m-5 0h40m-115 0q5 0 5 5v8q0 5 5 5h90q5 0 5-5v-8q0-5 5-5m5 0h5q5 0 5-5v-34q0-5 5-5m5 0h10m24 0h10m40 0h50m-5 0q-5 0-5-5v-16q0-5 5-5h50q5 0 5 5v16q0 5-5 5m-5 0h40m-115 0q5 0 5 5v8q0 5 5 5h90q5 0 5-5v-8q0-5 5-5m5 0h10m25 0h221q5 0 5-5m-1138 103q0 5 5 5h5m78 0h10m28 0h10m55 0h10m24 0h10m112 0h50m-5 0q-5 0-5-5v-16q0-5 5-5h204q5 0 5 5v16q0 5-5 5m-175 0h10m63 0h10m24 0h10m53 0h40m-269 0q5 0 5 5v8q0 5 5 5h244q5 0 5-5v-8q0-5 5-5m5 0h10m28 0h464q5 0 5-5m-1138 59q0 5 5 5h5m63 0h10m25 0h30m91 0h20m-126 0q5 0 5 5v8q0 5 5 5h101q5 0 5-5v-8q0-5 5-5m5 0h30m53 0h20m-88 0q5 0 5 5v8q0 5 5 5h63q5 0 5-5v-8q0-5 5-5m5 0h30m91 0h20m-126 0q5 0 5 5v8q0 5 5 5h101q5 0 5-5v-8q0-5 5-5m5 0h50m-5 0q-5 0-5-5v-16q0-5 5-5h379q5 0 5 5v16q0 5-5 5m-350 0h30m91 0h20m-126 0q5 0 5 5v8q0 5 5 5h101q5 0 5-5v-8q0-5 5-5m5 0h10m53 0h30m91 0h20m-126 0q5 0 5 5v8q0 5 5 5h101q5 0 5-5v-8q0-5 5-5m5 0h40m-444 0q5 0 5 5v23q0 5 5 5h419q5 0 5-5v-23q0-5 5-5m5 0h30m91 0h20m-126 0q5 0 5 5v8q0 5 5 5h101q5 0 5-5v-8q0-5 5-5m5 0h10m25 0h5q5 0 5-5m-1138 74q0 5 5 5h5m44 0h10m30 0h10m28 0h30m91 0h20m-126 0q5 0 5 5v8q0 5 5 5h101q5 0 5-5v-8q0-5 5-5m5 0h30m53 0h20m-88 0q5 0 5 5v8q0 5 5 5h63q5 0 5-5v-8q0-5 5-5m5 0h30m91 0h20m-126 0q5 0 5 5v8q0 5 5 5h101q5 0 5-5v-8q0-5 5-5m5 0h50m-5 0q-5 0-5-5v-16q0-5 5-5h379q5 0 5 5v16q0 5-5 5m-350 0h30m91 0h20m-126 0q5 0 5 5v8q0 5 5 5h101q5 0 5-5v-8q0-5 5-5m5 0h10m53 0h30m91 0h20m-126 0q5 0 5 5v8q0 5 5 5h101q5 0 5-5v-8q0-5 5-5m5 0h40m-444 0q5 0 5 5v23q0 5 5 5h419q5 0 5-5v-23q0-5 5-5m5 0h10m28 0h119q5 0 5-5m-1138 59q0 5 5 5h5m57 0h30m71 0h50m-131 24q0 5 5 5h5m56 0h50q5 0 5-5m-121 29q0 5 5 5h5m65 0h41q5 0 5-5m-121 29q0 5 5 5h5m101 0h5q5 0 5-5m-121 29q0 5 5 5h5m74 0h32q5 0 5-5m-121 29q0 5 5 5h5m59 0h47q5 0 5-5m-126-140q5 0 5 5v164q0 5 5 5h5m40 0h66q5 0 5-5v-164q0-5 5-5m5 0h915q5 0 5-5m-1138 203q0 5 5 5h5m60 0h10m56 0h997q5 0 5-5m-1138 29q0 5 5 5h5m72 0h10m68 0h973q5 0 5-5m-1143-1513q5 0 5 5v1537q0 5 5 5h5m46 0h30m53 0h23m-91 0q5 0 5 5v19q0 5 5 5h5m56 0h5q5 0 5-5v-19q0-5 5-5m5 0h971q5 0 5-5v-1537q0-5 5-5m5 0h5"/><rect class="l" x="25" y="5" width="167" height="24" rx="7"/><text class="j" x="35" y="21">non-numeric-character:</text><rect class="l" x="222" y="5" width="41" height="24" rx="7"/><text class="j" x="232" y="21">A-Z</text><rect class="l" x="222" y="34" width="37" height="24" rx="7"/><text class="j" x="232" y="50">a-z</text><rect class="l" x="222" y="63" width="26" height="24" rx="7"/><text class="j" x="232" y="79">*</text><rect class="l" x="222" y="92" width="25" height="24" rx="7"/><text class="j" x="232" y="108">!</text><rect class="l" x="222" y="121" width="28" height="24" rx="7"/><text class="j" x="232" y="137">$</text><rect class="l" x="222" y="150" width="30" height="24" rx="7"/><text class="j" x="232" y="166">=</text><rect class="l" x="222" y="179" width="30" height="24" rx="7"/><text class="j" x="232" y="195">&lt;</text><rect class="l" x="222" y="208" width="30" height="24" rx="7"/><text class="j" x="232" y="224">&gt;</text><rect class="l" x="222" y="237" width="26" height="24" rx="7"/><text class="j" x="232" y="253">_</text><rect class="l" x="222" y="266" width="24" height="24" rx="7"/><text class="j" x="232" y="282">.</text><rect class="l" x="222" y="295" width="26" height="24" rx="7"/><text class="j" x="232" y="311">?</text><rect class="l" x="25" y="324" width="156" height="24" rx="7"/><text class="j" x="35" y="340">plus-minus-character:</text><rect class="l" x="211" y="324" width="30" height="24" rx="7"/><text class="j" x="221" y="340">+</text><rect class="l" x="211" y="353" width="24" height="24" rx="7"/><text class="j" x="221" y="369">-</text><rect class="l" x="25" y="382" width="132" height="24" rx="7"/><text class="j" x="35" y="398">symbol-character:</text><a xlink:href="#non-numeric-character"><rect class="r" x="187" y="382" width="163" height="24"/><text class="j" x="197" y="398">non-numeric-character</text></a><a xlink:href="#plus-minus-character"><rect class="r" x="187" y="411" width="152" height="24"/><text class="j" x="197" y="427">plus-minus-character</text></a><rect class="l" x="187" y="440" width="40" height="24" rx="7"/><text class="j" x="197" y="456">0-9</text><rect class="l" x="25" y="469" width="100" height="24" rx="7"/><text class="j" x="35" y="485">bare-symbol:</text><a xlink:href="#plus-minus-character"><rect class="r" x="155" y="469" width="152" height="24"/><text class="j" x="165" y="485">plus-minus-character</text></a><a xlink:href="#non-numeric-character"><rect class="r" x="175" y="513" width="163" height="24"/><text class="j" x="185" y="529">non-numeric-character</text></a><a xlink:href="#plus-minus-character"><rect class="r" x="175" y="542" width="152" height="24"/><text class="j" x="185" y="558">plus-minus-character</text></a><a xlink:href="#symbol-character"><rect class="r" x="428" y="513" width="128" height="24"/><text class="j" x="438" y="529">symbol-character</text></a><rect class="l" x="25" y="572" width="67" height="24" rx="7"/><text class="j" x="35" y="588">symbol:</text><a xlink:href="#bare-symbol"><rect class="r" x="122" y="572" width="96" height="24"/><text class="j" x="132" y="588">bare-symbol</text></a><rect class="l" x="248" y="572" width="24" height="24" rx="7"/><text class="j" x="258" y="588">/</text><a xlink:href="#bare-symbol"><rect class="r" x="282" y="572" width="96" height="24"/><text class="j" x="292" y="588">bare-symbol</text></a><rect class="l" x="122" y="616" width="24" height="24" rx="7"/><text class="j" x="132" y="632">’</text><a xlink:href="#bare-symbol"><rect class="r" x="156" y="616" width="96" height="24"/><text class="j" x="166" y="632">bare-symbol</text></a><rect class="l" x="282" y="616" width="24" height="24" rx="7"/><text class="j" x="292" y="632">/</text><a xlink:href="#bare-symbol"><rect class="r" x="316" y="616" width="96" height="24"/><text class="j" x="326" y="632">bare-symbol</text></a><rect class="l" x="442" y="616" width="24" height="24" rx="7"/><text class="j" x="452" y="632">’</text><rect class="l" x="25" y="660" width="75" height="24" rx="7"/><text class="j" x="35" y="676">boolean:</text><a xlink:href="#true"><rect class="r" x="130" y="660" width="46" height="24"/><text class="j" x="140" y="676">true</text></a><a xlink:href="#false"><rect class="r" x="130" y="689" width="50" height="24"/><text class="j" x="140" y="705">false</text></a><rect class="l" x="25" y="733" width="60" height="24" rx="7"/><text class="j" x="35" y="749">string:</text><rect class="l" x="95" y="733" width="25" height="24" rx="7"/><text class="j" x="105" y="749">&quot;</text><a xlink:href="#char"><rect class="r" x="190" y="733" width="48" height="24"/><text class="j" x="200" y="749">char</text></a><rect class="l" x="190" y="762" width="24" height="24" rx="7"/><text class="j" x="200" y="778">\</text><rect class="l" x="244" y="762" width="24" height="24" rx="7"/><text class="j" x="254" y="778">\</text><rect class="l" x="244" y="791" width="25" height="24" rx="7"/><text class="j" x="254" y="807">&quot;</text><rect class="l" x="244" y="820" width="25" height="24" rx="7"/><text class="j" x="254" y="836">t</text><rect class="l" x="244" y="849" width="28" height="24" rx="7"/><text class="j" x="254" y="865">n</text><rect class="l" x="244" y="878" width="28" height="24" rx="7"/><text class="j" x="254" y="894">u</text><a xlink:href="#hex-digit"><rect class="r" x="282" y="878" width="73" height="24"/><text class="j" x="292" y="894">hex-digit</text></a><a xlink:href="#hex-digit"><rect class="r" x="365" y="878" width="73" height="24"/><text class="j" x="375" y="894">hex-digit</text></a><a xlink:href="#hex-digit"><rect class="r" x="448" y="878" width="73" height="24"/><text class="j" x="458" y="894">hex-digit</text></a><a xlink:href="#hex-digit"><rect class="r" x="531" y="878" width="73" height="24"/><text class="j" x="541" y="894">hex-digit</text></a><rect class="l" x="694" y="733" width="25" height="24" rx="7"/><text class="j" x="704" y="749">&quot;</text><rect class="l" x="25" y="937" width="69" height="24" rx="7"/><text class="j" x="35" y="953">integer:</text><a xlink:href="#plus-minus-character"><rect class="r" x="124" y="937" width="152" height="24"/><text class="j" x="134" y="953">plus-minus-character</text></a><rect class="l" x="306" y="937" width="40" height="24" rx="7"/><text class="j" x="316" y="953">0-9</text><rect class="l" x="396" y="937" width="40" height="24" rx="7"/><text class="j" x="406" y="953">0-9</text><rect class="l" x="25" y="996" width="105" height="24" rx="7"/><text class="j" x="35" y="1012">fixed-decimal:</text><rect class="l" x="140" y="996" width="30" height="24" rx="7"/><text class="j" x="150" y="1012">#</text><rect class="l" x="180" y="996" width="28" height="24" rx="7"/><text class="j" x="190" y="1012">d</text><a xlink:href="#whitespace"><rect class="r" x="238" y="996" width="91" height="24"/><text class="j" x="248" y="1012">whitespace</text></a><rect class="l" x="359" y="996" width="25" height="24" rx="7"/><text class="j" x="369" y="1012">&quot;</text><rect class="l" x="414" y="996" width="24" height="24" rx="7"/><text class="j" x="424" y="1012">-</text><rect class="l" x="488" y="996" width="28" height="24" rx="7"/><text class="j" x="498" y="1012">0</text><rect class="l" x="488" y="1040" width="40" height="24" rx="7"/><text class="j" x="498" y="1056">1-9</text><rect class="l" x="578" y="1040" width="40" height="24" rx="7"/><text class="j" x="588" y="1056">0-9</text><rect class="l" x="688" y="996" width="24" height="24" rx="7"/><text class="j" x="698" y="1012">.</text><rect class="l" x="722" y="996" width="40" height="24" rx="7"/><text class="j" x="732" y="1012">0-9</text><rect class="l" x="812" y="996" width="40" height="24" rx="7"/><text class="j" x="822" y="1012">0-9</text><rect class="l" x="902" y="996" width="25" height="24" rx="7"/><text class="j" x="912" y="1012">&quot;</text><rect class="l" x="25" y="1099" width="78" height="24" rx="7"/><text class="j" x="35" y="1115">instance:</text><rect class="l" x="113" y="1099" width="28" height="24" rx="7"/><text class="j" x="123" y="1115">{</text><rect class="l" x="151" y="1099" width="55" height="24" rx="7"/><text class="j" x="161" y="1115">$type</text><rect class="l" x="216" y="1099" width="24" height="24" rx="7"/><text class="j" x="226" y="1115">:</text><a xlink:href="#symbol:spec-id"><rect class="r" x="250" y="1099" width="112" height="24"/><text class="j" x="260" y="1115">symbol:spec-id</text></a><rect class="l" x="412" y="1099" width="24" height="24" rx="7"/><text class="j" x="422" y="1115">,</text><a xlink:href="#symbol"><rect class="r" x="446" y="1099" width="63" height="24"/><text class="j" x="456" y="1115">symbol</text></a><rect class="l" x="519" y="1099" width="24" height="24" rx="7"/><text class="j" x="529" y="1115">:</text><a xlink:href="#value"><rect class="r" x="553" y="1099" width="53" height="24"/><text class="j" x="563" y="1115">value</text></a><rect class="l" x="656" y="1099" width="28" height="24" rx="7"/><text class="j" x="666" y="1115">}</text><rect class="l" x="25" y="1158" width="63" height="24" rx="7"/><text class="j" x="35" y="1174">vector:</text><rect class="l" x="98" y="1158" width="25" height="24" rx="7"/><text class="j" x="108" y="1174">[</text><a xlink:href="#whitespace"><rect class="r" x="153" y="1158" width="91" height="24"/><text class="j" x="163" y="1174">whitespace</text></a><a xlink:href="#value"><rect class="r" x="294" y="1158" width="53" height="24"/><text class="j" x="304" y="1174">value</text></a><a xlink:href="#whitespace"><rect class="r" x="397" y="1158" width="91" height="24"/><text class="j" x="407" y="1174">whitespace</text></a><rect class="l" x="558" y="1158" width="24" height="24" rx="7"/><text class="j" x="568" y="1174">,</text><a xlink:href="#whitespace"><rect class="r" x="612" y="1158" width="91" height="24"/><text class="j" x="622" y="1174">whitespace</text></a><a xlink:href="#value"><rect class="r" x="733" y="1158" width="53" height="24"/><text class="j" x="743" y="1174">value</text></a><a xlink:href="#whitespace"><rect class="r" x="816" y="1158" width="91" height="24"/><text class="j" x="826" y="1174">whitespace</text></a><a xlink:href="#whitespace"><rect class="r" x="997" y="1158" width="91" height="24"/><text class="j" x="1007" y="1174">whitespace</text></a><rect class="l" x="1118" y="1158" width="25" height="24" rx="7"/><text class="j" x="1128" y="1174">]</text><rect class="l" x="25" y="1232" width="44" height="24" rx="7"/><text class="j" x="35" y="1248">set:</text><rect class="l" x="79" y="1232" width="30" height="24" rx="7"/><text class="j" x="89" y="1248">#</text><rect class="l" x="119" y="1232" width="28" height="24" rx="7"/><text class="j" x="129" y="1248">{</text><a xlink:href="#whitespace"><rect class="r" x="177" y="1232" width="91" height="24"/><text class="j" x="187" y="1248">whitespace</text></a><a xlink:href="#value"><rect class="r" x="318" y="1232" width="53" height="24"/><text class="j" x="328" y="1248">value</text></a><a xlink:href="#whitespace"><rect class="r" x="421" y="1232" width="91" height="24"/><text class="j" x="431" y="1248">whitespace</text></a><rect class="l" x="582" y="1232" width="24" height="24" rx="7"/><text class="j" x="592" y="1248">,</text><a xlink:href="#whitespace"><rect class="r" x="636" y="1232" width="91" height="24"/><text class="j" x="646" y="1248">whitespace</text></a><a xlink:href="#value"><rect class="r" x="757" y="1232" width="53" height="24"/><text class="j" x="767" y="1248">value</text></a><a xlink:href="#whitespace"><rect class="r" x="840" y="1232" width="91" height="24"/><text class="j" x="850" y="1248">whitespace</text></a><rect class="l" x="1001" y="1232" width="28" height="24" rx="7"/><text class="j" x="1011" y="1248">}</text><rect class="l" x="25" y="1291" width="57" height="24" rx="7"/><text class="j" x="35" y="1307">value:</text><a xlink:href="#boolean"><rect class="r" x="112" y="1291" width="71" height="24"/><text class="j" x="122" y="1307">boolean</text></a><a xlink:href="#string"><rect class="r" x="112" y="1320" width="56" height="24"/><text class="j" x="122" y="1336">string</text></a><a xlink:href="#integer"><rect class="r" x="112" y="1349" width="65" height="24"/><text class="j" x="122" y="1365">integer</text></a><a xlink:href="#fixed-decimal"><rect class="r" x="112" y="1378" width="101" height="24"/><text class="j" x="122" y="1394">fixed-decimal</text></a><a xlink:href="#instance"><rect class="r" x="112" y="1407" width="74" height="24"/><text class="j" x="122" y="1423">instance</text></a><a xlink:href="#vector"><rect class="r" x="112" y="1436" width="59" height="24"/><text class="j" x="122" y="1452">vector</text></a><a xlink:href="#set"><rect class="r" x="112" y="1465" width="40" height="24"/><text class="j" x="122" y="1481">set</text></a><rect class="l" x="25" y="1494" width="60" height="24" rx="7"/><text class="j" x="35" y="1510">unset:</text><a xlink:href="#unset"><rect class="r" x="95" y="1494" width="56" height="24"/><text class="j" x="105" y="1510">unset</text></a><rect class="l" x="25" y="1523" width="72" height="24" rx="7"/><text class="j" x="35" y="1539">nothing:</text><a xlink:href="#nothing"><rect class="r" x="107" y="1523" width="68" height="24"/><text class="j" x="117" y="1539">nothing</text></a><rect class="l" x="25" y="1552" width="46" height="24" rx="7"/><text class="j" x="35" y="1568">any:</text><a xlink:href="#value"><rect class="r" x="101" y="1552" width="53" height="24"/><text class="j" x="111" y="1568">value</text></a><a xlink:href="#unset"><rect class="r" x="101" y="1581" width="56" height="24"/><text class="j" x="111" y="1597">unset</text></a></svg>