<svg version="1.1" xmlns:xlink="http://www.w3.org/1999/xlink" xmlns="http://www.w3.org/2000/svg" width="1176" height="1595" viewbox="0 0 1176 1595"><defs><style type="text/css">.c{fill:none;stroke:#222222;}.j{fill:#000000;font-family:Verdana,Sans-serif;font-size:12px;}.l{fill:#90d9ff;stroke:#222222;}.r{fill:#d3f0ff;stroke:#222222;}</style></defs><path class="c" d="M0 22h25m121 0h30m41 0h20m-71 25q0 5 5 5h5m40 0h6q5 0 5-5m-61 30q0 5 5 5h5m28 0h18q5 0 5-5m-61 30q0 5 5 5h5m25 0h21q5 0 5-5m-61 30q0 5 5 5h5m28 0h18q5 0 5-5m-61 30q0 5 5 5h5m29 0h17q5 0 5-5m-61 30q0 5 5 5h5m29 0h17q5 0 5-5m-61 30q0 5 5 5h5m29 0h17q5 0 5-5m-61 30q0 5 5 5h5m28 0h18q5 0 5-5m-61 30q0 5 5 5h5m24 0h22q5 0 5-5m-66-265q5 0 5 5v290q0 5 5 5h5m27 0h19q5 0 5-5v-290q0-5 5-5m5 0h934m-1156 325q0 5 5 5h5m157 0h30m29 0h20m-64 0q5 0 5 5v20q0 5 5 5h5m25 0h9q5 0 5-5v-20q0-5 5-5m5 0h895q5 0 5-5m-1146 60q0 5 5 5h5m133 0h30m116 0h56m-182 25q0 5 5 5h5m152 0h5q5 0 5-5m-177-25q5 0 5 5v50q0 5 5 5h5m41 0h116q5 0 5-5v-50q0-5 5-5m5 0h796q5 0 5-5m-1146 90q0 5 5 5h5m114 0h30m152 0h318m-485 0q5 0 5 5v35q0 5 5 5h25m116 0h56m-187 0q5 0 5 5v20q0 5 5 5h5m152 0h5q5 0 5-5v-20q0-5 5-5m5 0h70m-5 0q-5 0-5-5v-17q0-5 5-5h138q5 0 5 5v17q0 5-5 5m-5 0h40m-203 0q5 0 5 5v8q0 5 5 5h178q5 0 5-5v-8q0-5 5-5m5 0h20m-243 0q5 0 5 5v23q0 5 5 5h218q5 0 5-5v-23q0-5 5-5m5 0h5q5 0 5-5v-35q0-5 5-5m5 0h517q5 0 5-5m-1146 105q0 5 5 5h5m69 0h30m109 0h30m25 0h10m109 0h20m-179 0q5 0 5 5v8q0 5 5 5h154q5 0 5-5v-8q0-5 5-5m5 0h86m-404 0q5 0 5 5v35q0 5 5 5h5m23 0h10m109 0h30m25 0h10m109 0h20m-179 0q5 0 5 5v8q0 5 5 5h154q5 0 5-5v-8q0-5 5-5m5 0h10m23 0h5q5 0 5-5v-35q0-5 5-5m5 0h643q5 0 5-5m-1146 90q0 5 5 5h5m76 0h30m46 0h24m-85 0q5 0 5 5v20q0 5 5 5h5m50 0h5q5 0 5-5v-20q0-5 5-5m5 0h955q5 0 5-5m-1146 75q0 5 5 5h5m61 0h10m26 0h50m-5 0q-5 0-5-5v-17q0-5 5-5h493q5 0 5 5v17q0 5-5 5m-488 0h20m47 0h416m-478 0q5 0 5 5v20q0 5 5 5h5m25 0h30m25 0h363m-398 25q0 5 5 5h5m26 0h347q5 0 5-5m-388 30q0 5 5 5h5m25 0h348q5 0 5-5m-388 30q0 5 5 5h5m28 0h345q5 0 5-5m-393-85q5 0 5 5v110q0 5 5 5h5m28 0h10m75 0h10m75 0h10m75 0h10m75 0h5q5 0 5-5v-110q0-5 5-5m5 0h5q5 0 5-5v-20q0-5 5-5m5 0h40m-558 0q5 0 5 5v158q0 5 5 5h533q5 0 5-5v-158q0-5 5-5m5 0h10m26 0h425q5 0 5-5m-1146 210q0 5 5 5h5m70 0h30m152 0h20m-187 0q5 0 5 5v8q0 5 5 5h162q5 0 5-5v-8q0-5 5-5m5 0h10m41 0h50m-5 0q-5 0-5-5v-17q0-5 5-5h51q5 0 5 5v17q0 5-5 5m-5 0h40m-116 0q5 0 5 5v8q0 5 5 5h91q5 0 5-5v-8q0-5 5-5m5 0h677q5 0 5-5m-1146 60q0 5 5 5h5m107 0h10m30 0h10m28 0h30m92 0h20m-127 0q5 0 5 5v8q0 5 5 5h102q5 0 5-5v-8q0-5 5-5m5 0h10m26 0h30m25 0h20m-60 0q5 0 5 5v8q0 5 5 5h35q5 0 5-5v-8q0-5 5-5m5 0h30m28 0h164m-207 0q5 0 5 5v35q0 5 5 5h5m41 0h50m-5 0q-5 0-5-5v-17q0-5 5-5h51q5 0 5 5v17q0 5-5 5m-5 0h40m-116 0q5 0 5 5v8q0 5 5 5h91q5 0 5-5v-8q0-5 5-5m5 0h5q5 0 5-5v-35q0-5 5-5m5 0h10m24 0h10m41 0h50m-5 0q-5 0-5-5v-17q0-5 5-5h51q5 0 5 5v17q0 5-5 5m-5 0h40m-116 0q5 0 5 5v8q0 5 5 5h91q5 0 5-5v-8q0-5 5-5m5 0h10m26 0h219q5 0 5-5m-1146 105q0 5 5 5h5m78 0h10m28 0h10m56 0h10m25 0h10m114 0h50m-5 0q-5 0-5-5v-17q0-5 5-5h207q5 0 5 5v17q0 5-5 5m-178 0h10m64 0h10m25 0h10m54 0h40m-272 0q5 0 5 5v8q0 5 5 5h247q5 0 5-5v-8q0-5 5-5m5 0h10m28 0h465q5 0 5-5m-1146 60q0 5 5 5h5m64 0h10m25 0h30m92 0h20m-127 0q5 0 5 5v8q0 5 5 5h102q5 0 5-5v-8q0-5 5-5m5 0h30m54 0h20m-89 0q5 0 5 5v8q0 5 5 5h64q5 0 5-5v-8q0-5 5-5m5 0h30m92 0h20m-127 0q5 0 5 5v8q0 5 5 5h102q5 0 5-5v-8q0-5 5-5m5 0h50m-5 0q-5 0-5-5v-17q0-5 5-5h382q5 0 5 5v17q0 5-5 5m-353 0h30m92 0h20m-127 0q5 0 5 5v8q0 5 5 5h102q5 0 5-5v-8q0-5 5-5m5 0h10m54 0h30m92 0h20m-127 0q5 0 5 5v8q0 5 5 5h102q5 0 5-5v-8q0-5 5-5m5 0h40m-447 0q5 0 5 5v23q0 5 5 5h422q5 0 5-5v-23q0-5 5-5m5 0h30m92 0h20m-127 0q5 0 5 5v8q0 5 5 5h102q5 0 5-5v-8q0-5 5-5m5 0h10m25 0h5q5 0 5-5m-1146 75q0 5 5 5h5m45 0h10m30 0h10m28 0h30m92 0h20m-127 0q5 0 5 5v8q0 5 5 5h102q5 0 5-5v-8q0-5 5-5m5 0h30m54 0h20m-89 0q5 0 5 5v8q0 5 5 5h64q5 0 5-5v-8q0-5 5-5m5 0h30m92 0h20m-127 0q5 0 5 5v8q0 5 5 5h102q5 0 5-5v-8q0-5 5-5m5 0h50m-5 0q-5 0-5-5v-17q0-5 5-5h382q5 0 5 5v17q0 5-5 5m-353 0h30m92 0h20m-127 0q5 0 5 5v8q0 5 5 5h102q5 0 5-5v-8q0-5 5-5m5 0h10m54 0h30m92 0h20m-127 0q5 0 5 5v8q0 5 5 5h102q5 0 5-5v-8q0-5 5-5m5 0h40m-447 0q5 0 5 5v23q0 5 5 5h422q5 0 5-5v-23q0-5 5-5m5 0h10m28 0h120q5 0 5-5m-1146 60q0 5 5 5h5m59 0h30m71 0h51m-132 25q0 5 5 5h5m56 0h51q5 0 5-5m-122 30q0 5 5 5h5m65 0h42q5 0 5-5m-122 30q0 5 5 5h5m102 0h5q5 0 5-5m-122 30q0 5 5 5h5m73 0h34q5 0 5-5m-122 30q0 5 5 5h5m59 0h48q5 0 5-5m-127-145q5 0 5 5v170q0 5 5 5h5m40 0h67q5 0 5-5v-170q0-5 5-5m5 0h920q5 0 5-5m-1151-1315q5 0 5 5v1520q0 5 5 5h5m48 0h30m54 0h22m-91 0q5 0 5 5v20q0 5 5 5h5m56 0h5q5 0 5-5v-20q0-5 5-5m5 0h977q5 0 5-5v-1520q0-5 5-5m5 0h5"/><rect class="l" x="25" y="5" width="121" height="25" rx="7"/><text class="j" x="35" y="22">basic-character:</text><rect class="l" x="176" y="5" width="41" height="25" rx="7"/><text class="j" x="186" y="22">A-Z</text><rect class="l" x="176" y="35" width="40" height="25" rx="7"/><text class="j" x="186" y="52">a-z</text><rect class="l" x="176" y="65" width="28" height="25" rx="7"/><text class="j" x="186" y="82">*</text><rect class="l" x="176" y="95" width="25" height="25" rx="7"/><text class="j" x="186" y="112">!</text><rect class="l" x="176" y="125" width="28" height="25" rx="7"/><text class="j" x="186" y="142">$</text><rect class="l" x="176" y="155" width="29" height="25" rx="7"/><text class="j" x="186" y="172">=</text><rect class="l" x="176" y="185" width="29" height="25" rx="7"/><text class="j" x="186" y="202">&lt;</text><rect class="l" x="176" y="215" width="29" height="25" rx="7"/><text class="j" x="186" y="232">&gt;</text><rect class="l" x="176" y="245" width="28" height="25" rx="7"/><text class="j" x="186" y="262">_</text><rect class="l" x="176" y="275" width="24" height="25" rx="7"/><text class="j" x="186" y="292">.</text><rect class="l" x="176" y="305" width="27" height="25" rx="7"/><text class="j" x="186" y="322">?</text><rect class="l" x="25" y="335" width="157" height="25" rx="7"/><text class="j" x="35" y="352">plus-minus-character:</text><rect class="l" x="212" y="335" width="29" height="25" rx="7"/><text class="j" x="222" y="352">+</text><rect class="l" x="212" y="365" width="25" height="25" rx="7"/><text class="j" x="222" y="382">-</text><rect class="l" x="25" y="395" width="133" height="25" rx="7"/><text class="j" x="35" y="412">symbol-character:</text><a xlink:href="#basic-character"><rect class="r" x="188" y="395" width="116" height="25"/><text class="j" x="198" y="412">basic-character</text></a><a xlink:href="#plus-minus-character"><rect class="r" x="188" y="425" width="152" height="25"/><text class="j" x="198" y="442">plus-minus-character</text></a><rect class="l" x="188" y="455" width="41" height="25" rx="7"/><text class="j" x="198" y="472">0-9</text><rect class="l" x="25" y="485" width="114" height="25" rx="7"/><text class="j" x="35" y="502">simple-symbol:</text><a xlink:href="#plus-minus-character"><rect class="r" x="169" y="485" width="152" height="25"/><text class="j" x="179" y="502">plus-minus-character</text></a><a xlink:href="#basic-character"><rect class="r" x="189" y="530" width="116" height="25"/><text class="j" x="199" y="547">basic-character</text></a><a xlink:href="#plus-minus-character"><rect class="r" x="189" y="560" width="152" height="25"/><text class="j" x="199" y="577">plus-minus-character</text></a><a xlink:href="#symbol-character"><rect class="r" x="431" y="530" width="128" height="25"/><text class="j" x="441" y="547">symbol-character</text></a><rect class="l" x="25" y="590" width="69" height="25" rx="7"/><text class="j" x="35" y="607">symbol:</text><a xlink:href="#simple-symbol"><rect class="r" x="124" y="590" width="109" height="25"/><text class="j" x="134" y="607">simple-symbol</text></a><rect class="l" x="263" y="590" width="25" height="25" rx="7"/><text class="j" x="273" y="607">/</text><a xlink:href="#simple-symbol"><rect class="r" x="298" y="590" width="109" height="25"/><text class="j" x="308" y="607">simple-symbol</text></a><rect class="l" x="124" y="635" width="23" height="25" rx="7"/><text class="j" x="134" y="652">’</text><a xlink:href="#simple-symbol"><rect class="r" x="157" y="635" width="109" height="25"/><text class="j" x="167" y="652">simple-symbol</text></a><rect class="l" x="296" y="635" width="25" height="25" rx="7"/><text class="j" x="306" y="652">/</text><a xlink:href="#simple-symbol"><rect class="r" x="331" y="635" width="109" height="25"/><text class="j" x="341" y="652">simple-symbol</text></a><rect class="l" x="470" y="635" width="23" height="25" rx="7"/><text class="j" x="480" y="652">’</text><rect class="l" x="25" y="680" width="76" height="25" rx="7"/><text class="j" x="35" y="697">boolean:</text><a xlink:href="#true"><rect class="r" x="131" y="680" width="46" height="25"/><text class="j" x="141" y="697">true</text></a><a xlink:href="#false"><rect class="r" x="131" y="710" width="50" height="25"/><text class="j" x="141" y="727">false</text></a><rect class="l" x="25" y="755" width="61" height="25" rx="7"/><text class="j" x="35" y="772">string:</text><rect class="l" x="96" y="755" width="26" height="25" rx="7"/><text class="j" x="106" y="772">&quot;</text><a xlink:href="#char"><rect class="r" x="192" y="755" width="47" height="25"/><text class="j" x="202" y="772">char</text></a><rect class="l" x="192" y="785" width="25" height="25" rx="7"/><text class="j" x="202" y="802">\</text><rect class="l" x="247" y="785" width="25" height="25" rx="7"/><text class="j" x="257" y="802">\</text><rect class="l" x="247" y="815" width="26" height="25" rx="7"/><text class="j" x="257" y="832">&quot;</text><rect class="l" x="247" y="845" width="25" height="25" rx="7"/><text class="j" x="257" y="862">t</text><rect class="l" x="247" y="875" width="28" height="25" rx="7"/><text class="j" x="257" y="892">n</text><rect class="l" x="247" y="905" width="28" height="25" rx="7"/><text class="j" x="257" y="922">u</text><a xlink:href="#hex-digit"><rect class="r" x="285" y="905" width="75" height="25"/><text class="j" x="295" y="922">hex-digit</text></a><a xlink:href="#hex-digit"><rect class="r" x="370" y="905" width="75" height="25"/><text class="j" x="380" y="922">hex-digit</text></a><a xlink:href="#hex-digit"><rect class="r" x="455" y="905" width="75" height="25"/><text class="j" x="465" y="922">hex-digit</text></a><a xlink:href="#hex-digit"><rect class="r" x="540" y="905" width="75" height="25"/><text class="j" x="550" y="922">hex-digit</text></a><rect class="l" x="705" y="755" width="26" height="25" rx="7"/><text class="j" x="715" y="772">&quot;</text><rect class="l" x="25" y="965" width="70" height="25" rx="7"/><text class="j" x="35" y="982">integer:</text><a xlink:href="#plus-minus-character"><rect class="r" x="125" y="965" width="152" height="25"/><text class="j" x="135" y="982">plus-minus-character</text></a><rect class="l" x="307" y="965" width="41" height="25" rx="7"/><text class="j" x="317" y="982">0-9</text><rect class="l" x="398" y="965" width="41" height="25" rx="7"/><text class="j" x="408" y="982">0-9</text><rect class="l" x="25" y="1025" width="107" height="25" rx="7"/><text class="j" x="35" y="1042">fixed-decimal:</text><rect class="l" x="142" y="1025" width="30" height="25" rx="7"/><text class="j" x="152" y="1042">#</text><rect class="l" x="182" y="1025" width="28" height="25" rx="7"/><text class="j" x="192" y="1042">d</text><a xlink:href="#whitespace"><rect class="r" x="240" y="1025" width="92" height="25"/><text class="j" x="250" y="1042">whitespace</text></a><rect class="l" x="362" y="1025" width="26" height="25" rx="7"/><text class="j" x="372" y="1042">&quot;</text><rect class="l" x="418" y="1025" width="25" height="25" rx="7"/><text class="j" x="428" y="1042">-</text><rect class="l" x="493" y="1025" width="28" height="25" rx="7"/><text class="j" x="503" y="1042">0</text><rect class="l" x="493" y="1070" width="41" height="25" rx="7"/><text class="j" x="503" y="1087">1-9</text><rect class="l" x="584" y="1070" width="41" height="25" rx="7"/><text class="j" x="594" y="1087">0-9</text><rect class="l" x="695" y="1025" width="24" height="25" rx="7"/><text class="j" x="705" y="1042">.</text><rect class="l" x="729" y="1025" width="41" height="25" rx="7"/><text class="j" x="739" y="1042">0-9</text><rect class="l" x="820" y="1025" width="41" height="25" rx="7"/><text class="j" x="830" y="1042">0-9</text><rect class="l" x="911" y="1025" width="26" height="25" rx="7"/><text class="j" x="921" y="1042">&quot;</text><rect class="l" x="25" y="1130" width="78" height="25" rx="7"/><text class="j" x="35" y="1147">instance:</text><rect class="l" x="113" y="1130" width="28" height="25" rx="7"/><text class="j" x="123" y="1147">{</text><rect class="l" x="151" y="1130" width="56" height="25" rx="7"/><text class="j" x="161" y="1147">$type</text><rect class="l" x="217" y="1130" width="25" height="25" rx="7"/><text class="j" x="227" y="1147">:</text><a xlink:href="#symbol:spec-id"><rect class="r" x="252" y="1130" width="114" height="25"/><text class="j" x="262" y="1147">symbol:spec-id</text></a><rect class="l" x="416" y="1130" width="24" height="25" rx="7"/><text class="j" x="426" y="1147">,</text><a xlink:href="#symbol"><rect class="r" x="450" y="1130" width="64" height="25"/><text class="j" x="460" y="1147">symbol</text></a><rect class="l" x="524" y="1130" width="25" height="25" rx="7"/><text class="j" x="534" y="1147">:</text><a xlink:href="#value"><rect class="r" x="559" y="1130" width="54" height="25"/><text class="j" x="569" y="1147">value</text></a><rect class="l" x="663" y="1130" width="28" height="25" rx="7"/><text class="j" x="673" y="1147">}</text><rect class="l" x="25" y="1190" width="64" height="25" rx="7"/><text class="j" x="35" y="1207">vector:</text><rect class="l" x="99" y="1190" width="25" height="25" rx="7"/><text class="j" x="109" y="1207">[</text><a xlink:href="#whitespace"><rect class="r" x="154" y="1190" width="92" height="25"/><text class="j" x="164" y="1207">whitespace</text></a><a xlink:href="#value"><rect class="r" x="296" y="1190" width="54" height="25"/><text class="j" x="306" y="1207">value</text></a><a xlink:href="#whitespace"><rect class="r" x="400" y="1190" width="92" height="25"/><text class="j" x="410" y="1207">whitespace</text></a><rect class="l" x="562" y="1190" width="24" height="25" rx="7"/><text class="j" x="572" y="1207">,</text><a xlink:href="#whitespace"><rect class="r" x="616" y="1190" width="92" height="25"/><text class="j" x="626" y="1207">whitespace</text></a><a xlink:href="#value"><rect class="r" x="738" y="1190" width="54" height="25"/><text class="j" x="748" y="1207">value</text></a><a xlink:href="#whitespace"><rect class="r" x="822" y="1190" width="92" height="25"/><text class="j" x="832" y="1207">whitespace</text></a><a xlink:href="#whitespace"><rect class="r" x="1004" y="1190" width="92" height="25"/><text class="j" x="1014" y="1207">whitespace</text></a><rect class="l" x="1126" y="1190" width="25" height="25" rx="7"/><text class="j" x="1136" y="1207">]</text><rect class="l" x="25" y="1265" width="45" height="25" rx="7"/><text class="j" x="35" y="1282">set:</text><rect class="l" x="80" y="1265" width="30" height="25" rx="7"/><text class="j" x="90" y="1282">#</text><rect class="l" x="120" y="1265" width="28" height="25" rx="7"/><text class="j" x="130" y="1282">{</text><a xlink:href="#whitespace"><rect class="r" x="178" y="1265" width="92" height="25"/><text class="j" x="188" y="1282">whitespace</text></a><a xlink:href="#value"><rect class="r" x="320" y="1265" width="54" height="25"/><text class="j" x="330" y="1282">value</text></a><a xlink:href="#whitespace"><rect class="r" x="424" y="1265" width="92" height="25"/><text class="j" x="434" y="1282">whitespace</text></a><rect class="l" x="586" y="1265" width="24" height="25" rx="7"/><text class="j" x="596" y="1282">,</text><a xlink:href="#whitespace"><rect class="r" x="640" y="1265" width="92" height="25"/><text class="j" x="650" y="1282">whitespace</text></a><a xlink:href="#value"><rect class="r" x="762" y="1265" width="54" height="25"/><text class="j" x="772" y="1282">value</text></a><a xlink:href="#whitespace"><rect class="r" x="846" y="1265" width="92" height="25"/><text class="j" x="856" y="1282">whitespace</text></a><rect class="l" x="1008" y="1265" width="28" height="25" rx="7"/><text class="j" x="1018" y="1282">}</text><rect class="l" x="25" y="1325" width="59" height="25" rx="7"/><text class="j" x="35" y="1342">value:</text><a xlink:href="#boolean"><rect class="r" x="114" y="1325" width="71" height="25"/><text class="j" x="124" y="1342">boolean</text></a><a xlink:href="#string"><rect class="r" x="114" y="1355" width="56" height="25"/><text class="j" x="124" y="1372">string</text></a><a xlink:href="#integer"><rect class="r" x="114" y="1385" width="65" height="25"/><text class="j" x="124" y="1402">integer</text></a><a xlink:href="#fixed-decimal"><rect class="r" x="114" y="1415" width="102" height="25"/><text class="j" x="124" y="1432">fixed-decimal</text></a><a xlink:href="#instance"><rect class="r" x="114" y="1445" width="73" height="25"/><text class="j" x="124" y="1462">instance</text></a><a xlink:href="#vector"><rect class="r" x="114" y="1475" width="59" height="25"/><text class="j" x="124" y="1492">vector</text></a><a xlink:href="#set"><rect class="r" x="114" y="1505" width="40" height="25"/><text class="j" x="124" y="1522">set</text></a><rect class="l" x="25" y="1535" width="48" height="25" rx="7"/><text class="j" x="35" y="1552">any:</text><a xlink:href="#value"><rect class="r" x="103" y="1535" width="54" height="25"/><text class="j" x="113" y="1552">value</text></a><a xlink:href="#unset"><rect class="r" x="103" y="1565" width="56" height="25"/><text class="j" x="113" y="1582">unset</text></a></svg>