<svg version="1.1" xmlns:xlink="http://www.w3.org/1999/xlink" xmlns="http://www.w3.org/2000/svg" width="91" height="305" viewbox="0 0 91 305"><defs><style type="text/css">.c{fill:none;stroke:#222222;}.j{fill:#000000;font-family:Verdana,Sans-serif;font-size:12px;}.l{fill:#90d9ff;stroke:#222222;}</style></defs><path class="c" d="M0 22h25m41 0h20m-71 25q0 5 5 5h5m40 0h6q5 0 5-5m-61 30q0 5 5 5h5m28 0h18q5 0 5-5m-61 30q0 5 5 5h5m25 0h21q5 0 5-5m-61 30q0 5 5 5h5m28 0h18q5 0 5-5m-61 30q0 5 5 5h5m29 0h17q5 0 5-5m-61 30q0 5 5 5h5m29 0h17q5 0 5-5m-61 30q0 5 5 5h5m29 0h17q5 0 5-5m-61 30q0 5 5 5h5m28 0h18q5 0 5-5m-66-235q5 0 5 5v260q0 5 5 5h5m24 0h22q5 0 5-5v-260q0-5 5-5m5 0h5"/><rect class="l" x="25" y="5" width="41" height="25" rx="7"/><text class="j" x="35" y="22">A-Z</text><rect class="l" x="25" y="35" width="40" height="25" rx="7"/><text class="j" x="35" y="52">a-z</text><rect class="l" x="25" y="65" width="28" height="25" rx="7"/><text class="j" x="35" y="82">*</text><rect class="l" x="25" y="95" width="25" height="25" rx="7"/><text class="j" x="35" y="112">!</text><rect class="l" x="25" y="125" width="28" height="25" rx="7"/><text class="j" x="35" y="142">$</text><rect class="l" x="25" y="155" width="29" height="25" rx="7"/><text class="j" x="35" y="172">=</text><rect class="l" x="25" y="185" width="29" height="25" rx="7"/><text class="j" x="35" y="202">&lt;</text><rect class="l" x="25" y="215" width="29" height="25" rx="7"/><text class="j" x="35" y="232">&gt;</text><rect class="l" x="25" y="245" width="28" height="25" rx="7"/><text class="j" x="35" y="262">_</text><rect class="l" x="25" y="275" width="24" height="25" rx="7"/><text class="j" x="35" y="292">.</text></svg>