<svg version="1.1" xmlns:xlink="http://www.w3.org/1999/xlink" xmlns="http://www.w3.org/2000/svg" width="866" height="1100" viewbox="0 0 866 1100"><defs><style type="text/css">.c{fill:none;stroke:#222222;}.j{fill:#000000;font-family:Verdana,Sans-serif;font-size:12px;}.l{fill:#90d9ff;stroke:#222222;}.r{fill:#d3f0ff;stroke:#222222;}</style></defs><path class="c" d="M0 22h25m121 0h30m41 0h20m-71 25q0 5 5 5h5m40 0h6q5 0 5-5m-61 30q0 5 5 5h5m28 0h18q5 0 5-5m-61 30q0 5 5 5h5m25 0h21q5 0 5-5m-61 30q0 5 5 5h5m28 0h18q5 0 5-5m-61 30q0 5 5 5h5m29 0h17q5 0 5-5m-61 30q0 5 5 5h5m29 0h17q5 0 5-5m-61 30q0 5 5 5h5m29 0h17q5 0 5-5m-61 30q0 5 5 5h5m28 0h18q5 0 5-5m-66-235q5 0 5 5v260q0 5 5 5h5m24 0h22q5 0 5-5v-260q0-5 5-5m5 0h624m-846 295q0 5 5 5h5m157 0h30m29 0h20m-64 0q5 0 5 5v20q0 5 5 5h5m25 0h9q5 0 5-5v-20q0-5 5-5m5 0h585q5 0 5-5m-836 60q0 5 5 5h5m133 0h30m116 0h56m-182 25q0 5 5 5h5m152 0h5q5 0 5-5m-177-25q5 0 5 5v50q0 5 5 5h5m41 0h116q5 0 5-5v-50q0-5 5-5m5 0h486q5 0 5-5m-836 90q0 5 5 5h5m114 0h30m152 0h520m-687 0q5 0 5 5v35q0 5 5 5h25m116 0h258m-389 0q5 0 5 5v20q0 5 5 5h5m152 0h30m116 0h56m-187 0q5 0 5 5v20q0 5 5 5h5m152 0h5q5 0 5-5v-20q0-5 5-5m5 0h5q5 0 5-5v-20q0-5 5-5m5 0h70m-5 0q-5 0-5-5v-17q0-5 5-5h138q5 0 5 5v17q0 5-5 5m-5 0h40m-203 0q5 0 5 5v8q0 5 5 5h178q5 0 5-5v-8q0-5 5-5m5 0h20m-243 0q5 0 5 5v23q0 5 5 5h218q5 0 5-5v-23q0-5 5-5m5 0h5q5 0 5-5v-35q0-5 5-5m5 0h5q5 0 5-5m-836 135q0 5 5 5h5m69 0h30m109 0h30m25 0h10m109 0h20m-179 0q5 0 5 5v8q0 5 5 5h154q5 0 5-5v-8q0-5 5-5m5 0h86m-404 0q5 0 5 5v35q0 5 5 5h5m23 0h10m109 0h30m25 0h10m109 0h20m-179 0q5 0 5 5v8q0 5 5 5h154q5 0 5-5v-8q0-5 5-5m5 0h10m23 0h5q5 0 5-5v-35q0-5 5-5m5 0h333q5 0 5-5m-836 90q0 5 5 5h5m76 0h30m46 0h24m-85 0q5 0 5 5v20q0 5 5 5h5m50 0h5q5 0 5-5v-20q0-5 5-5m5 0h645q5 0 5-5m-836 75q0 5 5 5h5m61 0h10m26 0h50m-5 0q-5 0-5-5v-17q0-5 5-5h57q5 0 5 5v17q0 5-5 5m-5 0h40m-122 0q5 0 5 5v8q0 5 5 5h97q5 0 5-5v-8q0-5 5-5m5 0h10m26 0h551q5 0 5-5m-836 60q0 5 5 5h5m70 0h30m152 0h20m-187 0q5 0 5 5v8q0 5 5 5h162q5 0 5-5v-8q0-5 5-5m5 0h10m41 0h50m-5 0q-5 0-5-5v-17q0-5 5-5h51q5 0 5 5v17q0 5-5 5m-5 0h40m-116 0q5 0 5 5v8q0 5 5 5h91q5 0 5-5v-8q0-5 5-5m5 0h367q5 0 5-5m-836 60q0 5 5 5h5m107 0h10m38 0h10m26 0h30m25 0h20m-60 0q5 0 5 5v8q0 5 5 5h35q5 0 5-5v-8q0-5 5-5m5 0h10m41 0h50m-5 0q-5 0-5-5v-17q0-5 5-5h51q5 0 5 5v17q0 5-5 5m-5 0h40m-116 0q5 0 5 5v8q0 5 5 5h91q5 0 5-5v-8q0-5 5-5m5 0h10m24 0h10m41 0h50m-5 0q-5 0-5-5v-17q0-5 5-5h51q5 0 5 5v17q0 5-5 5m-5 0h40m-116 0q5 0 5 5v8q0 5 5 5h91q5 0 5-5v-8q0-5 5-5m5 0h10m26 0h121q5 0 5-5m-836 60q0 5 5 5h5m78 0h10m28 0h10m56 0h10m25 0h10m114 0h50m-5 0q-5 0-5-5v-17q0-5 5-5h207q5 0 5 5v17q0 5-5 5m-178 0h10m64 0h10m25 0h10m54 0h40m-272 0q5 0 5 5v8q0 5 5 5h247q5 0 5-5v-8q0-5 5-5m5 0h10m28 0h155q5 0 5-5m-836 60q0 5 5 5h5m64 0h10m25 0h30m54 0h20m-89 0q5 0 5 5v8q0 5 5 5h64q5 0 5-5v-8q0-5 5-5m5 0h50m-5 0q-5 0-5-5v-17q0-5 5-5h98q5 0 5 5v17q0 5-5 5m-69 0h10m54 0h40m-163 0q5 0 5 5v8q0 5 5 5h138q5 0 5-5v-8q0-5 5-5m5 0h10m25 0h405q5 0 5-5m-841-985q5 0 5 5v1040q0 5 5 5h5m45 0h10m30 0h10m28 0h30m54 0h20m-89 0q5 0 5 5v8q0 5 5 5h64q5 0 5-5v-8q0-5 5-5m5 0h50m-5 0q-5 0-5-5v-17q0-5 5-5h98q5 0 5 5v17q0 5-5 5m-69 0h10m54 0h40m-163 0q5 0 5 5v8q0 5 5 5h138q5 0 5-5v-8q0-5 5-5m5 0h10m28 0h378q5 0 5-5v-1040q0-5 5-5m5 0h5"/><rect class="l" x="25" y="5" width="121" height="25" rx="7"/><text class="j" x="35" y="22">basic-character:</text><rect class="l" x="176" y="5" width="41" height="25" rx="7"/><text class="j" x="186" y="22">A-Z</text><rect class="l" x="176" y="35" width="40" height="25" rx="7"/><text class="j" x="186" y="52">a-z</text><rect class="l" x="176" y="65" width="28" height="25" rx="7"/><text class="j" x="186" y="82">*</text><rect class="l" x="176" y="95" width="25" height="25" rx="7"/><text class="j" x="186" y="112">!</text><rect class="l" x="176" y="125" width="28" height="25" rx="7"/><text class="j" x="186" y="142">$</text><rect class="l" x="176" y="155" width="29" height="25" rx="7"/><text class="j" x="186" y="172">=</text><rect class="l" x="176" y="185" width="29" height="25" rx="7"/><text class="j" x="186" y="202">&lt;</text><rect class="l" x="176" y="215" width="29" height="25" rx="7"/><text class="j" x="186" y="232">&gt;</text><rect class="l" x="176" y="245" width="28" height="25" rx="7"/><text class="j" x="186" y="262">_</text><rect class="l" x="176" y="275" width="24" height="25" rx="7"/><text class="j" x="186" y="292">.</text><rect class="l" x="25" y="305" width="157" height="25" rx="7"/><text class="j" x="35" y="322">plus-minus-character:</text><rect class="l" x="212" y="305" width="29" height="25" rx="7"/><text class="j" x="222" y="322">+</text><rect class="l" x="212" y="335" width="25" height="25" rx="7"/><text class="j" x="222" y="352">-</text><rect class="l" x="25" y="365" width="133" height="25" rx="7"/><text class="j" x="35" y="382">symbol-character:</text><a xlink:href="#basic-character"><rect class="r" x="188" y="365" width="116" height="25"/><text class="j" x="198" y="382">basic-character</text></a><a xlink:href="#plus-minus-character"><rect class="r" x="188" y="395" width="152" height="25"/><text class="j" x="198" y="412">plus-minus-character</text></a><rect class="l" x="188" y="425" width="41" height="25" rx="7"/><text class="j" x="198" y="442">0-9</text><rect class="l" x="25" y="455" width="114" height="25" rx="7"/><text class="j" x="35" y="472">simple-symbol:</text><a xlink:href="#plus-minus-character"><rect class="r" x="169" y="455" width="152" height="25"/><text class="j" x="179" y="472">plus-minus-character</text></a><a xlink:href="#basic-character"><rect class="r" x="189" y="500" width="116" height="25"/><text class="j" x="199" y="517">basic-character</text></a><a xlink:href="#plus-minus-character"><rect class="r" x="189" y="530" width="152" height="25"/><text class="j" x="199" y="547">plus-minus-character</text></a><a xlink:href="#basic-character"><rect class="r" x="371" y="530" width="116" height="25"/><text class="j" x="381" y="547">basic-character</text></a><a xlink:href="#plus-minus-character"><rect class="r" x="371" y="560" width="152" height="25"/><text class="j" x="381" y="577">plus-minus-character</text></a><a xlink:href="#symbol-character"><rect class="r" x="633" y="500" width="128" height="25"/><text class="j" x="643" y="517">symbol-character</text></a><rect class="l" x="25" y="590" width="69" height="25" rx="7"/><text class="j" x="35" y="607">symbol:</text><a xlink:href="#simple-symbol"><rect class="r" x="124" y="590" width="109" height="25"/><text class="j" x="134" y="607">simple-symbol</text></a><rect class="l" x="263" y="590" width="25" height="25" rx="7"/><text class="j" x="273" y="607">/</text><a xlink:href="#simple-symbol"><rect class="r" x="298" y="590" width="109" height="25"/><text class="j" x="308" y="607">simple-symbol</text></a><rect class="l" x="124" y="635" width="23" height="25" rx="7"/><text class="j" x="134" y="652">’</text><a xlink:href="#simple-symbol"><rect class="r" x="157" y="635" width="109" height="25"/><text class="j" x="167" y="652">simple-symbol</text></a><rect class="l" x="296" y="635" width="25" height="25" rx="7"/><text class="j" x="306" y="652">/</text><a xlink:href="#simple-symbol"><rect class="r" x="331" y="635" width="109" height="25"/><text class="j" x="341" y="652">simple-symbol</text></a><rect class="l" x="470" y="635" width="23" height="25" rx="7"/><text class="j" x="480" y="652">’</text><rect class="l" x="25" y="680" width="76" height="25" rx="7"/><text class="j" x="35" y="697">boolean:</text><a xlink:href="#true"><rect class="r" x="131" y="680" width="46" height="25"/><text class="j" x="141" y="697">true</text></a><a xlink:href="#false"><rect class="r" x="131" y="710" width="50" height="25"/><text class="j" x="141" y="727">false</text></a><rect class="l" x="25" y="755" width="61" height="25" rx="7"/><text class="j" x="35" y="772">string:</text><rect class="l" x="96" y="755" width="26" height="25" rx="7"/><text class="j" x="106" y="772">&quot;</text><a xlink:href="#char"><rect class="r" x="172" y="755" width="47" height="25"/><text class="j" x="182" y="772">char</text></a><rect class="l" x="269" y="755" width="26" height="25" rx="7"/><text class="j" x="279" y="772">&quot;</text><rect class="l" x="25" y="815" width="70" height="25" rx="7"/><text class="j" x="35" y="832">integer:</text><a xlink:href="#plus-minus-character"><rect class="r" x="125" y="815" width="152" height="25"/><text class="j" x="135" y="832">plus-minus-character</text></a><rect class="l" x="307" y="815" width="41" height="25" rx="7"/><text class="j" x="317" y="832">0-9</text><rect class="l" x="398" y="815" width="41" height="25" rx="7"/><text class="j" x="408" y="832">0-9</text><rect class="l" x="25" y="875" width="107" height="25" rx="7"/><text class="j" x="35" y="892">fixed-decimal:</text><rect class="l" x="142" y="875" width="38" height="25" rx="7"/><text class="j" x="152" y="892">#d</text><rect class="l" x="190" y="875" width="26" height="25" rx="7"/><text class="j" x="200" y="892">&quot;</text><rect class="l" x="246" y="875" width="25" height="25" rx="7"/><text class="j" x="256" y="892">-</text><rect class="l" x="301" y="875" width="41" height="25" rx="7"/><text class="j" x="311" y="892">0-9</text><rect class="l" x="392" y="875" width="41" height="25" rx="7"/><text class="j" x="402" y="892">0-9</text><rect class="l" x="483" y="875" width="24" height="25" rx="7"/><text class="j" x="493" y="892">.</text><rect class="l" x="517" y="875" width="41" height="25" rx="7"/><text class="j" x="527" y="892">0-9</text><rect class="l" x="608" y="875" width="41" height="25" rx="7"/><text class="j" x="618" y="892">0-9</text><rect class="l" x="699" y="875" width="26" height="25" rx="7"/><text class="j" x="709" y="892">&quot;</text><rect class="l" x="25" y="935" width="78" height="25" rx="7"/><text class="j" x="35" y="952">instance:</text><rect class="l" x="113" y="935" width="28" height="25" rx="7"/><text class="j" x="123" y="952">{</text><rect class="l" x="151" y="935" width="56" height="25" rx="7"/><text class="j" x="161" y="952">$type</text><rect class="l" x="217" y="935" width="25" height="25" rx="7"/><text class="j" x="227" y="952">:</text><a xlink:href="#symbol:spec-id"><rect class="r" x="252" y="935" width="114" height="25"/><text class="j" x="262" y="952">symbol:spec-id</text></a><rect class="l" x="416" y="935" width="24" height="25" rx="7"/><text class="j" x="426" y="952">,</text><a xlink:href="#symbol"><rect class="r" x="450" y="935" width="64" height="25"/><text class="j" x="460" y="952">symbol</text></a><rect class="l" x="524" y="935" width="25" height="25" rx="7"/><text class="j" x="534" y="952">:</text><a xlink:href="#value"><rect class="r" x="559" y="935" width="54" height="25"/><text class="j" x="569" y="952">value</text></a><rect class="l" x="663" y="935" width="28" height="25" rx="7"/><text class="j" x="673" y="952">}</text><rect class="l" x="25" y="995" width="64" height="25" rx="7"/><text class="j" x="35" y="1012">vector:</text><rect class="l" x="99" y="995" width="25" height="25" rx="7"/><text class="j" x="109" y="1012">[</text><a xlink:href="#value"><rect class="r" x="154" y="995" width="54" height="25"/><text class="j" x="164" y="1012">value</text></a><rect class="l" x="278" y="995" width="24" height="25" rx="7"/><text class="j" x="288" y="1012">,</text><a xlink:href="#value"><rect class="r" x="312" y="995" width="54" height="25"/><text class="j" x="322" y="1012">value</text></a><rect class="l" x="416" y="995" width="25" height="25" rx="7"/><text class="j" x="426" y="1012">]</text><rect class="l" x="25" y="1055" width="45" height="25" rx="7"/><text class="j" x="35" y="1072">set:</text><rect class="l" x="80" y="1055" width="30" height="25" rx="7"/><text class="j" x="90" y="1072">#</text><rect class="l" x="120" y="1055" width="28" height="25" rx="7"/><text class="j" x="130" y="1072">{</text><a xlink:href="#value"><rect class="r" x="178" y="1055" width="54" height="25"/><text class="j" x="188" y="1072">value</text></a><rect class="l" x="302" y="1055" width="24" height="25" rx="7"/><text class="j" x="312" y="1072">,</text><a xlink:href="#value"><rect class="r" x="336" y="1055" width="54" height="25"/><text class="j" x="346" y="1072">value</text></a><rect class="l" x="440" y="1055" width="28" height="25" rx="7"/><text class="j" x="450" y="1072">}</text></svg>