<svg version="1.1" xmlns:xlink="http://www.w3.org/1999/xlink" xmlns="http://www.w3.org/2000/svg" width="798" height="110" viewbox="0 0 798 110"><defs><style type="text/css">.c{fill: none; stroke: #888888; stroke-width: 2px;}.j{fill:#000000;font-family:Verdana,Sans-serif;font-size:12px;}.l{fill:#90d9ff;stroke:#222222;}.r{fill:#d3f0ff;stroke:#222222;}</style></defs><path class="c" d="M0 33h5m30 0h10m27 0h30m86 0h20m-121 0q5 0 5 5v8q0 5 5 5h96q5 0 5-5v-8q0-5 5-5m5 0h10m26 0h30m25 0h20m-60 0q5 0 5 5v8q0 5 5 5h35q5 0 5-5v-8q0-5 5-5m5 0h30m28 0h164m-207 0q5 0 5 5v35q0 5 5 5h5m41 0h50m-5 0q-5 0-5-5v-17q0-5 5-5h51q5 0 5 5v17q0 5-5 5m-5 0h40m-116 0q5 0 5 5v8q0 5 5 5h91q5 0 5-5v-8q0-5 5-5m5 0h5q5 0 5-5v-35q0-5 5-5m5 0h10m24 0h10m41 0h50m-5 0q-5 0-5-5v-17q0-5 5-5h51q5 0 5 5v17q0 5-5 5m-5 0h40m-116 0q5 0 5 5v8q0 5 5 5h91q5 0 5-5v-8q0-5 5-5m5 0h10m26 0h5"/><rect class="l" x="5" y="20" width="30" height="25" rx="7"/><text class="j" x="15" y="37">#</text><rect class="l" x="45" y="20" width="27" height="25" rx="7"/><text class="j" x="55" y="37">d</text><a xlink:href="#whitespace"><rect class="r" x="102" y="20" width="86" height="25"/><text class="j" x="112" y="37">whitespace</text></a><rect class="l" x="218" y="20" width="26" height="25" rx="7"/><text class="j" x="228" y="37">&quot;</text><rect class="l" x="274" y="20" width="25" height="25" rx="7"/><text class="j" x="284" y="37">-</text><rect class="l" x="349" y="20" width="28" height="25" rx="7"/><text class="j" x="359" y="37">0</text><rect class="l" x="349" y="65" width="41" height="25" rx="7"/><text class="j" x="359" y="82">1-9</text><rect class="l" x="440" y="65" width="41" height="25" rx="7"/><text class="j" x="450" y="82">0-9</text><rect class="l" x="551" y="20" width="24" height="25" rx="7"/><text class="j" x="561" y="37">.</text><rect class="l" x="585" y="20" width="41" height="25" rx="7"/><text class="j" x="595" y="37">0-9</text><rect class="l" x="676" y="20" width="41" height="25" rx="7"/><text class="j" x="686" y="37">0-9</text><rect class="l" x="767" y="20" width="26" height="25" rx="7"/><text class="j" x="777" y="37">&quot;</text></svg>