<svg version="1.1" xmlns:xlink="http://www.w3.org/1999/xlink" xmlns="http://www.w3.org/2000/svg" width="805" height="110" viewbox="0 0 805 110"><defs><style type="text/css">.c{fill:none;stroke:#222222;}.j{fill:#000000;font-family:Verdana,Sans-serif;font-size:12px;}.l{fill:#90d9ff;stroke:#222222;}.r{fill:#d3f0ff;stroke:#222222;}</style></defs><path class="c" d="M0 37h5m30 0h10m28 0h30m92 0h20m-127 0q5 0 5 5v8q0 5 5 5h102q5 0 5-5v-8q0-5 5-5m5 0h10m26 0h30m25 0h20m-60 0q5 0 5 5v8q0 5 5 5h35q5 0 5-5v-8q0-5 5-5m5 0h30m28 0h164m-207 0q5 0 5 5v35q0 5 5 5h5m41 0h50m-5 0q-5 0-5-5v-17q0-5 5-5h51q5 0 5 5v17q0 5-5 5m-5 0h40m-116 0q5 0 5 5v8q0 5 5 5h91q5 0 5-5v-8q0-5 5-5m5 0h5q5 0 5-5v-35q0-5 5-5m5 0h10m24 0h10m41 0h50m-5 0q-5 0-5-5v-17q0-5 5-5h51q5 0 5 5v17q0 5-5 5m-5 0h40m-116 0q5 0 5 5v8q0 5 5 5h91q5 0 5-5v-8q0-5 5-5m5 0h10m26 0h5"/><rect class="l" x="5" y="20" width="30" height="25" rx="7"/><text class="j" x="15" y="37">#</text><rect class="l" x="45" y="20" width="28" height="25" rx="7"/><text class="j" x="55" y="37">d</text><a xlink:href="#whitespace"><rect class="r" x="103" y="20" width="92" height="25"/><text class="j" x="113" y="37">whitespace</text></a><rect class="l" x="225" y="20" width="26" height="25" rx="7"/><text class="j" x="235" y="37">&quot;</text><rect class="l" x="281" y="20" width="25" height="25" rx="7"/><text class="j" x="291" y="37">-</text><rect class="l" x="356" y="20" width="28" height="25" rx="7"/><text class="j" x="366" y="37">0</text><rect class="l" x="356" y="65" width="41" height="25" rx="7"/><text class="j" x="366" y="82">1-9</text><rect class="l" x="447" y="65" width="41" height="25" rx="7"/><text class="j" x="457" y="82">0-9</text><rect class="l" x="558" y="20" width="24" height="25" rx="7"/><text class="j" x="568" y="37">.</text><rect class="l" x="592" y="20" width="41" height="25" rx="7"/><text class="j" x="602" y="37">0-9</text><rect class="l" x="683" y="20" width="41" height="25" rx="7"/><text class="j" x="693" y="37">0-9</text><rect class="l" x="774" y="20" width="26" height="25" rx="7"/><text class="j" x="784" y="37">&quot;</text></svg>