<svg version="1.1" xmlns:xlink="http://www.w3.org/1999/xlink" xmlns="http://www.w3.org/2000/svg" width="797" height="108" viewbox="0 0 797 108"><defs><style type="text/css">.c{fill: none; stroke: #888888; stroke-width: 3pt;}.j{fill:#000000;font-family:Dialog,Sans-serif;font-size:12px;}.l{fill:#90d9ff;stroke:#222222;}.r{fill:#d3f0ff;stroke:#222222;}</style></defs><path class="c" d="M0 36h5m30 0h10m28 0h30m91 0h20m-126 0q5 0 5 5v8q0 5 5 5h101q5 0 5-5v-8q0-5 5-5m5 0h10m25 0h30m24 0h20m-59 0q5 0 5 5v8q0 5 5 5h34q5 0 5-5v-8q0-5 5-5m5 0h30m28 0h162m-205 0q5 0 5 5v34q0 5 5 5h5m40 0h50m-5 0q-5 0-5-5v-16q0-5 5-5h50q5 0 5 5v16q0 5-5 5m-5 0h40m-115 0q5 0 5 5v8q0 5 5 5h90q5 0 5-5v-8q0-5 5-5m5 0h5q5 0 5-5v-34q0-5 5-5m5 0h10m24 0h10m40 0h50m-5 0q-5 0-5-5v-16q0-5 5-5h50q5 0 5 5v16q0 5-5 5m-5 0h40m-115 0q5 0 5 5v8q0 5 5 5h90q5 0 5-5v-8q0-5 5-5m5 0h10m25 0h5"/><rect class="l" x="5" y="20" width="30" height="24" rx="7"/><text class="j" x="15" y="36">#</text><rect class="l" x="45" y="20" width="28" height="24" rx="7"/><text class="j" x="55" y="36">d</text><a xlink:href="#whitespace"><rect class="r" x="103" y="20" width="91" height="24"/><text class="j" x="113" y="36">whitespace</text></a><rect class="l" x="224" y="20" width="25" height="24" rx="7"/><text class="j" x="234" y="36">&quot;</text><rect class="l" x="279" y="20" width="24" height="24" rx="7"/><text class="j" x="289" y="36">-</text><rect class="l" x="353" y="20" width="28" height="24" rx="7"/><text class="j" x="363" y="36">0</text><rect class="l" x="353" y="64" width="40" height="24" rx="7"/><text class="j" x="363" y="80">1-9</text><rect class="l" x="443" y="64" width="40" height="24" rx="7"/><text class="j" x="453" y="80">0-9</text><rect class="l" x="553" y="20" width="24" height="24" rx="7"/><text class="j" x="563" y="36">.</text><rect class="l" x="587" y="20" width="40" height="24" rx="7"/><text class="j" x="597" y="36">0-9</text><rect class="l" x="677" y="20" width="40" height="24" rx="7"/><text class="j" x="687" y="36">0-9</text><rect class="l" x="767" y="20" width="25" height="24" rx="7"/><text class="j" x="777" y="36">&quot;</text></svg>