<svg version="1.1" xmlns:xlink="http://www.w3.org/1999/xlink" xmlns="http://www.w3.org/2000/svg" width="593" height="65" viewbox="0 0 593 65"><defs><style type="text/css">.c{fill:none;stroke:#222222;}.j{fill:#000000;font-family:Verdana,Sans-serif;font-size:12px;}.l{fill:#90d9ff;stroke:#222222;}</style></defs><path class="c" d="M0 37h5m38 0h10m26 0h30m25 0h20m-60 0q5 0 5 5v8q0 5 5 5h35q5 0 5-5v-8q0-5 5-5m5 0h10m41 0h50m-5 0q-5 0-5-5v-17q0-5 5-5h51q5 0 5 5v17q0 5-5 5m-5 0h40m-116 0q5 0 5 5v8q0 5 5 5h91q5 0 5-5v-8q0-5 5-5m5 0h10m24 0h10m41 0h50m-5 0q-5 0-5-5v-17q0-5 5-5h51q5 0 5 5v17q0 5-5 5m-5 0h40m-116 0q5 0 5 5v8q0 5 5 5h91q5 0 5-5v-8q0-5 5-5m5 0h10m26 0h5"/><rect class="l" x="5" y="20" width="38" height="25" rx="7"/><text class="j" x="15" y="37">#d</text><rect class="l" x="53" y="20" width="26" height="25" rx="7"/><text class="j" x="63" y="37">&quot;</text><rect class="l" x="109" y="20" width="25" height="25" rx="7"/><text class="j" x="119" y="37">-</text><rect class="l" x="164" y="20" width="41" height="25" rx="7"/><text class="j" x="174" y="37">0-9</text><rect class="l" x="255" y="20" width="41" height="25" rx="7"/><text class="j" x="265" y="37">0-9</text><rect class="l" x="346" y="20" width="24" height="25" rx="7"/><text class="j" x="356" y="37">.</text><rect class="l" x="380" y="20" width="41" height="25" rx="7"/><text class="j" x="390" y="37">0-9</text><rect class="l" x="471" y="20" width="41" height="25" rx="7"/><text class="j" x="481" y="37">0-9</text><rect class="l" x="562" y="20" width="26" height="25" rx="7"/><text class="j" x="572" y="37">&quot;</text></svg>