<svg version="1.1" xmlns:xlink="http://www.w3.org/1999/xlink" xmlns="http://www.w3.org/2000/svg" width="576" height="65" viewbox="0 0 576 65"><defs><style type="text/css">.c{fill: none; stroke: #888888; stroke-width: 2px;}.j{fill:#000000;font-family:Verdana,Sans-serif;font-size:12px;}.l{fill:#90d9ff;stroke:#222222;}.r{fill:#d3f0ff;stroke:#222222;}</style></defs><path class="c" d="M0 33h5m28 0h10m54 0h10m25 0h10m108 0h50m-5 0q-5 0-5-5v-17q0-5 5-5h203q5 0 5 5v17q0 5-5 5m-174 0h10m62 0h10m25 0h10m52 0h40m-268 0q5 0 5 5v8q0 5 5 5h243q5 0 5-5v-8q0-5 5-5m5 0h10m28 0h5"/><rect class="l" x="5" y="20" width="28" height="25" rx="7"/><text class="j" x="15" y="37">{</text><rect class="l" x="43" y="20" width="54" height="25" rx="7"/><text class="j" x="53" y="37">$type</text><rect class="l" x="107" y="20" width="25" height="25" rx="7"/><text class="j" x="117" y="37">:</text><a xlink:href="#symbol:spec-id"><rect class="r" x="142" y="20" width="108" height="25"/><text class="j" x="152" y="37">symbol:spec-id</text></a><rect class="l" x="300" y="20" width="24" height="25" rx="7"/><text class="j" x="310" y="37">,</text><a xlink:href="#symbol"><rect class="r" x="334" y="20" width="62" height="25"/><text class="j" x="344" y="37">symbol</text></a><rect class="l" x="406" y="20" width="25" height="25" rx="7"/><text class="j" x="416" y="37">:</text><a xlink:href="#value"><rect class="r" x="441" y="20" width="52" height="25"/><text class="j" x="451" y="37">value</text></a><rect class="l" x="543" y="20" width="28" height="25" rx="7"/><text class="j" x="553" y="37">}</text></svg>