<svg version="1.1" xmlns:xlink="http://www.w3.org/1999/xlink" xmlns="http://www.w3.org/2000/svg" width="499" height="64" viewbox="0 0 499 64"><defs><style type="text/css">.c{fill: none; stroke: #888888; stroke-width: 3pt;}.j{fill:#000000;font-family:Dialog,Sans-serif;font-size:12px;}.l{fill:#90d9ff;stroke:#222222;}.r{fill:#d3f0ff;stroke:#222222;}</style></defs><path class="c" d="M0 36h5m28 0h10m59 0h10m120 0h50m-5 0q-5 0-5-5v-16q0-5 5-5h144q5 0 5 5v16q0 5-5 5m-68 0h10m53 0h40m-209 0q5 0 5 5v8q0 5 5 5h184q5 0 5-5v-8q0-5 5-5m5 0h10m28 0h5"/><rect class="l" x="5" y="20" width="28" height="24" rx="7"/><text class="j" x="15" y="36">{</text><rect class="l" x="43" y="20" width="59" height="24" rx="7"/><text class="j" x="53" y="36">:$type</text><a xlink:href="#keyword:spec-id"><rect class="r" x="112" y="20" width="120" height="24"/><text class="j" x="122" y="36">keyword:spec-id</text></a><a xlink:href="#keyword"><rect class="r" x="282" y="20" width="71" height="24"/><text class="j" x="292" y="36">keyword</text></a><a xlink:href="#value"><rect class="r" x="363" y="20" width="53" height="24"/><text class="j" x="373" y="36">value</text></a><rect class="l" x="466" y="20" width="28" height="24" rx="7"/><text class="j" x="476" y="36">}</text></svg>