<svg version="1.1" xmlns:xlink="http://www.w3.org/1999/xlink" xmlns="http://www.w3.org/2000/svg" width="581" height="64" viewbox="0 0 581 64"><defs><style type="text/css">.c{fill: none; stroke: #888888; stroke-width: 3pt;}.j{fill:#000000;font-family:Dialog,Sans-serif;font-size:12px;}.l{fill:#90d9ff;stroke:#222222;}.r{fill:#d3f0ff;stroke:#222222;}</style></defs><path class="c" d="M0 36h5m28 0h10m55 0h10m24 0h10m112 0h50m-5 0q-5 0-5-5v-16q0-5 5-5h204q5 0 5 5v16q0 5-5 5m-175 0h10m63 0h10m24 0h10m53 0h40m-269 0q5 0 5 5v8q0 5 5 5h244q5 0 5-5v-8q0-5 5-5m5 0h10m28 0h5"/><rect class="l" x="5" y="20" width="28" height="24" rx="7"/><text class="j" x="15" y="36">{</text><rect class="l" x="43" y="20" width="55" height="24" rx="7"/><text class="j" x="53" y="36">$type</text><rect class="l" x="108" y="20" width="24" height="24" rx="7"/><text class="j" x="118" y="36">:</text><a xlink:href="#symbol:spec-id"><rect class="r" x="142" y="20" width="112" height="24"/><text class="j" x="152" y="36">symbol:spec-id</text></a><rect class="l" x="304" y="20" width="24" height="24" rx="7"/><text class="j" x="314" y="36">,</text><a xlink:href="#symbol"><rect class="r" x="338" y="20" width="63" height="24"/><text class="j" x="348" y="36">symbol</text></a><rect class="l" x="411" y="20" width="24" height="24" rx="7"/><text class="j" x="421" y="36">:</text><a xlink:href="#value"><rect class="r" x="445" y="20" width="53" height="24"/><text class="j" x="455" y="36">value</text></a><rect class="l" x="548" y="20" width="28" height="24" rx="7"/><text class="j" x="558" y="36">}</text></svg>