<!--
RULE = ('{' ':$type' keyword:spec-id {keyword value} '}' );
-->
<svg version="1.1" xmlns:xlink="http://www.w3.org/1999/xlink" xmlns="http://www.w3.org/2000/svg" width="509" height="65" viewbox="0 0 509 65"><defs><style type="text/css">.c{fill: none; stroke: #888888; stroke-width: 2px;}.j{fill:#000000;font-family:Verdana,Sans-serif;font-size:12px;}.l{fill:#90d9ff;stroke:#222222;}.r{fill:#d3f0ff;stroke:#222222;}</style></defs><path class="c" d="M0 33h5m28 0h10m61 0h10m124 0h50m-5 0q-5 0-5-5v-17q0-5 5-5h148q5 0 5 5v17q0 5-5 5m-69 0h10m54 0h40m-213 0q5 0 5 5v8q0 5 5 5h188q5 0 5-5v-8q0-5 5-5m5 0h10m28 0h5"/><rect class="l" x="5" y="20" width="28" height="25" rx="7"/><text class="j" x="15" y="37">{</text><rect class="l" x="43" y="20" width="61" height="25" rx="7"/><text class="j" x="53" y="37">:$type</text><a xlink:href="#keyword:spec-id"><rect class="r" x="114" y="20" width="124" height="25"/><text class="j" x="124" y="37">keyword:spec-id</text></a><a xlink:href="#keyword"><rect class="r" x="288" y="20" width="74" height="25"/><text class="j" x="298" y="37">keyword</text></a><a xlink:href="#value"><rect class="r" x="372" y="20" width="54" height="25"/><text class="j" x="382" y="37">value</text></a><rect class="l" x="476" y="20" width="28" height="25" rx="7"/><text class="j" x="486" y="37">}</text></svg>