<svg version="1.1" xmlns:xlink="http://www.w3.org/1999/xlink" xmlns="http://www.w3.org/2000/svg" width="493" height="65" viewbox="0 0 493 65"><defs><style type="text/css">.c{fill: none; stroke: #888888; stroke-width: 2px;}.j{fill:#000000;font-family:Verdana,Sans-serif;font-size:12px;}.l{fill:#90d9ff;stroke:#222222;}.r{fill:#d3f0ff;stroke:#222222;}</style></defs><path class="c" d="M0 33h5m28 0h10m59 0h10m116 0h50m-5 0q-5 0-5-5v-17q0-5 5-5h142q5 0 5 5v17q0 5-5 5m-67 0h10m52 0h40m-207 0q5 0 5 5v8q0 5 5 5h182q5 0 5-5v-8q0-5 5-5m5 0h10m28 0h5"/><rect class="l" x="5" y="20" width="28" height="25" rx="7"/><text class="j" x="15" y="37">{</text><rect class="l" x="43" y="20" width="59" height="25" rx="7"/><text class="j" x="53" y="37">:$type</text><a xlink:href="#keyword:spec-id"><rect class="r" x="112" y="20" width="116" height="25"/><text class="j" x="122" y="37">keyword:spec-id</text></a><a xlink:href="#keyword"><rect class="r" x="278" y="20" width="70" height="25"/><text class="j" x="288" y="37">keyword</text></a><a xlink:href="#value"><rect class="r" x="358" y="20" width="52" height="25"/><text class="j" x="368" y="37">value</text></a><rect class="l" x="460" y="20" width="28" height="25" rx="7"/><text class="j" x="470" y="37">}</text></svg>