<svg version="1.1" xmlns:xlink="http://www.w3.org/1999/xlink" xmlns="http://www.w3.org/2000/svg" width="384" height="65" viewbox="0 0 384 65"><defs><style type="text/css">.c{fill:none;stroke:#222222;}.i{fill:#000000;font-family:Verdana,Sans-serif;font-size:12px;}.l{fill:#90d9ff;stroke:#222222;}.r{fill:#d3f0ff;stroke:#222222;}</style></defs><path class="c" d="M0 37h25m152 0h20m-187 0q5 0 5 5v8q0 5 5 5h162q5 0 5-5v-8q0-5 5-5m5 0h10m41 0h50m-5 0q-5 0-5-5v-17q0-5 5-5h51q5 0 5 5v17q0 5-5 5m-5 0h40m-116 0q5 0 5 5v8q0 5 5 5h91q5 0 5-5v-8q0-5 5-5m5 0h5"/><a xlink:href="#plus-minus-character"><rect class="r" x="25" y="20" width="152" height="25"/><text class="i" x="35" y="37">plus-minus-character</text></a><rect class="l" x="207" y="20" width="41" height="25" rx="7"/><text class="i" x="217" y="37">0-9</text><rect class="l" x="298" y="20" width="41" height="25" rx="7"/><text class="i" x="308" y="37">0-9</text></svg>