<svg version="1.1" xmlns:xlink="http://www.w3.org/1999/xlink" xmlns="http://www.w3.org/2000/svg" width="91" height="324" viewbox="0 0 91 324"><defs><style type="text/css">.c{fill: none; stroke: #888888; stroke-width: 2px;}.j{fill:#000000;font-family:Dialog,Sans-serif;font-size:12px;}.l{fill:#90d9ff;stroke:#222222;}</style></defs><path class="c" d="M0 17h25m41 0h20m-71 24q0 5 5 5h5m37 0h9q5 0 5-5m-61 29q0 5 5 5h5m26 0h20q5 0 5-5m-61 29q0 5 5 5h5m25 0h21q5 0 5-5m-61 29q0 5 5 5h5m28 0h18q5 0 5-5m-61 29q0 5 5 5h5m30 0h16q5 0 5-5m-61 29q0 5 5 5h5m30 0h16q5 0 5-5m-61 29q0 5 5 5h5m30 0h16q5 0 5-5m-61 29q0 5 5 5h5m26 0h20q5 0 5-5m-61 29q0 5 5 5h5m24 0h22q5 0 5-5m-66-256q5 0 5 5v280q0 5 5 5h5m26 0h20q5 0 5-5v-280q0-5 5-5m5 0h5"/><rect class="l" x="25" y="5" width="41" height="24" rx="7"/><text class="j" x="35" y="21">A-Z</text><rect class="l" x="25" y="34" width="37" height="24" rx="7"/><text class="j" x="35" y="50">a-z</text><rect class="l" x="25" y="63" width="26" height="24" rx="7"/><text class="j" x="35" y="79">*</text><rect class="l" x="25" y="92" width="25" height="24" rx="7"/><text class="j" x="35" y="108">!</text><rect class="l" x="25" y="121" width="28" height="24" rx="7"/><text class="j" x="35" y="137">$</text><rect class="l" x="25" y="150" width="30" height="24" rx="7"/><text class="j" x="35" y="166">=</text><rect class="l" x="25" y="179" width="30" height="24" rx="7"/><text class="j" x="35" y="195">&lt;</text><rect class="l" x="25" y="208" width="30" height="24" rx="7"/><text class="j" x="35" y="224">&gt;</text><rect class="l" x="25" y="237" width="26" height="24" rx="7"/><text class="j" x="35" y="253">_</text><rect class="l" x="25" y="266" width="24" height="24" rx="7"/><text class="j" x="35" y="282">.</text><rect class="l" x="25" y="295" width="26" height="24" rx="7"/><text class="j" x="35" y="311">?</text></svg>