<svg version="1.1" xmlns:xlink="http://www.w3.org/1999/xlink" xmlns="http://www.w3.org/2000/svg" width="398" height="65" viewbox="0 0 398 65"><defs><style type="text/css">.c{fill:none;stroke:#222222;}.j{fill:#000000;font-family:Verdana,Sans-serif;font-size:12px;}.l{fill:#90d9ff;stroke:#222222;}.r{fill:#d3f0ff;stroke:#222222;}</style></defs><path class="c" d="M0 37h5m30 0h10m28 0h30m54 0h20m-89 0q5 0 5 5v8q0 5 5 5h64q5 0 5-5v-8q0-5 5-5m5 0h50m-5 0q-5 0-5-5v-17q0-5 5-5h98q5 0 5 5v17q0 5-5 5m-69 0h10m54 0h40m-163 0q5 0 5 5v8q0 5 5 5h138q5 0 5-5v-8q0-5 5-5m5 0h10m28 0h5"/><rect class="l" x="5" y="20" width="30" height="25" rx="7"/><text class="j" x="15" y="37">#</text><rect class="l" x="45" y="20" width="28" height="25" rx="7"/><text class="j" x="55" y="37">{</text><a xlink:href="#value"><rect class="r" x="103" y="20" width="54" height="25"/><text class="j" x="113" y="37">value</text></a><rect class="l" x="227" y="20" width="24" height="25" rx="7"/><text class="j" x="237" y="37">,</text><a xlink:href="#value"><rect class="r" x="261" y="20" width="54" height="25"/><text class="j" x="271" y="37">value</text></a><rect class="l" x="365" y="20" width="28" height="25" rx="7"/><text class="j" x="375" y="37">}</text></svg>