<svg version="1.1" xmlns:xlink="http://www.w3.org/1999/xlink" xmlns="http://www.w3.org/2000/svg" width="966" height="80" viewbox="0 0 966 80"><defs><style type="text/css">.c{fill:none;stroke:#222222;}.j{fill:#000000;font-family:Verdana,Sans-serif;font-size:12px;}.l{fill:#90d9ff;stroke:#222222;}.r{fill:#d3f0ff;stroke:#222222;}</style></defs><path class="c" d="M0 37h5m30 0h10m28 0h30m92 0h20m-127 0q5 0 5 5v8q0 5 5 5h102q5 0 5-5v-8q0-5 5-5m5 0h30m54 0h20m-89 0q5 0 5 5v8q0 5 5 5h64q5 0 5-5v-8q0-5 5-5m5 0h30m92 0h20m-127 0q5 0 5 5v8q0 5 5 5h102q5 0 5-5v-8q0-5 5-5m5 0h50m-5 0q-5 0-5-5v-17q0-5 5-5h382q5 0 5 5v17q0 5-5 5m-353 0h30m92 0h20m-127 0q5 0 5 5v8q0 5 5 5h102q5 0 5-5v-8q0-5 5-5m5 0h10m54 0h30m92 0h20m-127 0q5 0 5 5v8q0 5 5 5h102q5 0 5-5v-8q0-5 5-5m5 0h40m-447 0q5 0 5 5v23q0 5 5 5h422q5 0 5-5v-23q0-5 5-5m5 0h10m28 0h5"/><rect class="l" x="5" y="20" width="30" height="25" rx="7"/><text class="j" x="15" y="37">#</text><rect class="l" x="45" y="20" width="28" height="25" rx="7"/><text class="j" x="55" y="37">{</text><a xlink:href="#whitespace"><rect class="r" x="103" y="20" width="92" height="25"/><text class="j" x="113" y="37">whitespace</text></a><a xlink:href="#value"><rect class="r" x="245" y="20" width="54" height="25"/><text class="j" x="255" y="37">value</text></a><a xlink:href="#whitespace"><rect class="r" x="349" y="20" width="92" height="25"/><text class="j" x="359" y="37">whitespace</text></a><rect class="l" x="511" y="20" width="24" height="25" rx="7"/><text class="j" x="521" y="37">,</text><a xlink:href="#whitespace"><rect class="r" x="565" y="20" width="92" height="25"/><text class="j" x="575" y="37">whitespace</text></a><a xlink:href="#value"><rect class="r" x="687" y="20" width="54" height="25"/><text class="j" x="697" y="37">value</text></a><a xlink:href="#whitespace"><rect class="r" x="771" y="20" width="92" height="25"/><text class="j" x="781" y="37">whitespace</text></a><rect class="l" x="933" y="20" width="28" height="25" rx="7"/><text class="j" x="943" y="37">}</text></svg>