<svg version="1.1" xmlns:xlink="http://www.w3.org/1999/xlink" xmlns="http://www.w3.org/2000/svg" width="785" height="79" viewbox="0 0 785 79"><defs><style type="text/css">.c{fill: none; stroke: #888888; stroke-width: 3pt;}.j{fill:#000000;font-family:Dialog,Sans-serif;font-size:12px;}.l{fill:#90d9ff;stroke:#222222;}.r{fill:#d3f0ff;stroke:#222222;}</style></defs><path class="c" d="M0 36h5m30 0h10m28 0h30m91 0h20m-126 0q5 0 5 5v8q0 5 5 5h101q5 0 5-5v-8q0-5 5-5m5 0h50m-5 0q-5 0-5-5v-16q0-5 5-5h204q5 0 5 5v16q0 5-5 5m-146 0h30m91 0h20m-126 0q5 0 5 5v8q0 5 5 5h101q5 0 5-5v-8q0-5 5-5m5 0h40m-269 0q5 0 5 5v23q0 5 5 5h244q5 0 5-5v-23q0-5 5-5m5 0h30m53 0h20m-88 0q5 0 5 5v8q0 5 5 5h63q5 0 5-5v-8q0-5 5-5m5 0h30m91 0h20m-126 0q5 0 5 5v8q0 5 5 5h101q5 0 5-5v-8q0-5 5-5m5 0h10m28 0h5"/><rect class="l" x="5" y="20" width="30" height="24" rx="7"/><text class="j" x="15" y="36">#</text><rect class="l" x="45" y="20" width="28" height="24" rx="7"/><text class="j" x="55" y="36">{</text><a xlink:href="#whitespace"><rect class="r" x="103" y="20" width="91" height="24"/><text class="j" x="113" y="36">whitespace</text></a><a xlink:href="#value"><rect class="r" x="264" y="20" width="53" height="24"/><text class="j" x="274" y="36">value</text></a><a xlink:href="#whitespace"><rect class="r" x="347" y="20" width="91" height="24"/><text class="j" x="357" y="36">whitespace</text></a><a xlink:href="#value"><rect class="r" x="528" y="20" width="53" height="24"/><text class="j" x="538" y="36">value</text></a><a xlink:href="#whitespace"><rect class="r" x="631" y="20" width="91" height="24"/><text class="j" x="641" y="36">whitespace</text></a><rect class="l" x="752" y="20" width="28" height="24" rx="7"/><text class="j" x="762" y="36">}</text></svg>