<svg version="1.1" xmlns:xlink="http://www.w3.org/1999/xlink" xmlns="http://www.w3.org/2000/svg" width="768" height="80" viewbox="0 0 768 80"><defs><style type="text/css">.c{fill: none; stroke: #888888; stroke-width: 2px;}.j{fill:#000000;font-family:Verdana,Sans-serif;font-size:12px;}.l{fill:#90d9ff;stroke:#222222;}.r{fill:#d3f0ff;stroke:#222222;}</style></defs><path class="c" d="M0 33h5m30 0h10m28 0h30m86 0h20m-121 0q5 0 5 5v8q0 5 5 5h96q5 0 5-5v-8q0-5 5-5m5 0h50m-5 0q-5 0-5-5v-17q0-5 5-5h198q5 0 5 5v17q0 5-5 5m-141 0h30m86 0h20m-121 0q5 0 5 5v8q0 5 5 5h96q5 0 5-5v-8q0-5 5-5m5 0h40m-263 0q5 0 5 5v23q0 5 5 5h238q5 0 5-5v-23q0-5 5-5m5 0h30m52 0h20m-87 0q5 0 5 5v8q0 5 5 5h62q5 0 5-5v-8q0-5 5-5m5 0h30m86 0h20m-121 0q5 0 5 5v8q0 5 5 5h96q5 0 5-5v-8q0-5 5-5m5 0h10m28 0h5"/><rect class="l" x="5" y="20" width="30" height="25" rx="7"/><text class="j" x="15" y="37">#</text><rect class="l" x="45" y="20" width="28" height="25" rx="7"/><text class="j" x="55" y="37">{</text><a xlink:href="#whitespace"><rect class="r" x="103" y="20" width="86" height="25"/><text class="j" x="113" y="37">whitespace</text></a><a xlink:href="#value"><rect class="r" x="259" y="20" width="52" height="25"/><text class="j" x="269" y="37">value</text></a><a xlink:href="#whitespace"><rect class="r" x="341" y="20" width="86" height="25"/><text class="j" x="351" y="37">whitespace</text></a><a xlink:href="#value"><rect class="r" x="517" y="20" width="52" height="25"/><text class="j" x="527" y="37">value</text></a><a xlink:href="#whitespace"><rect class="r" x="619" y="20" width="86" height="25"/><text class="j" x="629" y="37">whitespace</text></a><rect class="l" x="735" y="20" width="28" height="25" rx="7"/><text class="j" x="745" y="37">}</text></svg>