<svg version="1.1" xmlns:xlink="http://www.w3.org/1999/xlink" xmlns="http://www.w3.org/2000/svg" width="702" height="140" viewbox="0 0 702 140"><defs><style type="text/css">.c{fill:none;stroke:#222222;}.i{fill:#000000;font-family:Verdana,Sans-serif;font-size:12px;}.r{fill:#d3f0ff;stroke:#222222;}</style></defs><path class="c" d="M0 22h25m152 0h520m-687 0q5 0 5 5v35q0 5 5 5h25m116 0h258m-389 0q5 0 5 5v20q0 5 5 5h5m152 0h30m116 0h56m-187 0q5 0 5 5v20q0 5 5 5h5m152 0h5q5 0 5-5v-20q0-5 5-5m5 0h5q5 0 5-5v-20q0-5 5-5m5 0h70m-5 0q-5 0-5-5v-17q0-5 5-5h138q5 0 5 5v17q0 5-5 5m-5 0h40m-203 0q5 0 5 5v8q0 5 5 5h178q5 0 5-5v-8q0-5 5-5m5 0h20m-243 0q5 0 5 5v23q0 5 5 5h218q5 0 5-5v-23q0-5 5-5m5 0h5q5 0 5-5v-35q0-5 5-5m5 0h5"/><a xlink:href="#plus-minus-character"><rect class="r" x="25" y="5" width="152" height="25"/><text class="i" x="35" y="22">plus-minus-character</text></a><a xlink:href="#basic-character"><rect class="r" x="45" y="50" width="116" height="25"/><text class="i" x="55" y="67">basic-character</text></a><a xlink:href="#plus-minus-character"><rect class="r" x="45" y="80" width="152" height="25"/><text class="i" x="55" y="97">plus-minus-character</text></a><a xlink:href="#basic-character"><rect class="r" x="227" y="80" width="116" height="25"/><text class="i" x="237" y="97">basic-character</text></a><a xlink:href="#plus-minus-character"><rect class="r" x="227" y="110" width="152" height="25"/><text class="i" x="237" y="127">plus-minus-character</text></a><a xlink:href="#symbol-character"><rect class="r" x="489" y="50" width="128" height="25"/><text class="i" x="499" y="67">symbol-character</text></a></svg>