<!--
RULE = ( '"' {char | '\' ('\' | '"' | 't' | 'n' | ('u' hex-digit hex-digit hex-digit hex-digit))} '"');
-->
<svg version="1.1" xmlns:xlink="http://www.w3.org/1999/xlink" xmlns="http://www.w3.org/2000/svg" width="645" height="215" viewbox="0 0 645 215"><defs><style type="text/css">.c{fill: none; stroke: #888888; stroke-width: 2px;}.j{fill:#000000;font-family:Verdana,Sans-serif;font-size:12px;}.l{fill:#90d9ff;stroke:#222222;}.r{fill:#d3f0ff;stroke:#222222;}</style></defs><path class="c" d="M0 33h5m26 0h50m-5 0q-5 0-5-5v-17q0-5 5-5h493q5 0 5 5v17q0 5-5 5m-488 0h20m47 0h416m-478 0q5 0 5 5v20q0 5 5 5h5m25 0h30m25 0h363m-398 25q0 5 5 5h5m26 0h347q5 0 5-5m-388 30q0 5 5 5h5m25 0h348q5 0 5-5m-388 30q0 5 5 5h5m28 0h345q5 0 5-5m-393-85q5 0 5 5v110q0 5 5 5h5m28 0h10m75 0h10m75 0h10m75 0h10m75 0h5q5 0 5-5v-110q0-5 5-5m5 0h5q5 0 5-5v-20q0-5 5-5m5 0h40m-558 0q5 0 5 5v158q0 5 5 5h533q5 0 5-5v-158q0-5 5-5m5 0h10m26 0h5"/><rect class="l" x="5" y="20" width="26" height="25" rx="7"/><text class="j" x="15" y="37">&quot;</text><a xlink:href="#char"><rect class="r" x="101" y="20" width="47" height="25"/><text class="j" x="111" y="37">char</text></a><rect class="l" x="101" y="50" width="25" height="25" rx="7"/><text class="j" x="111" y="67">\</text><rect class="l" x="156" y="50" width="25" height="25" rx="7"/><text class="j" x="166" y="67">\</text><rect class="l" x="156" y="80" width="26" height="25" rx="7"/><text class="j" x="166" y="97">&quot;</text><rect class="l" x="156" y="110" width="25" height="25" rx="7"/><text class="j" x="166" y="127">t</text><rect class="l" x="156" y="140" width="28" height="25" rx="7"/><text class="j" x="166" y="157">n</text><rect class="l" x="156" y="170" width="28" height="25" rx="7"/><text class="j" x="166" y="187">u</text><a xlink:href="#hex-digit"><rect class="r" x="194" y="170" width="75" height="25"/><text class="j" x="204" y="187">hex-digit</text></a><a xlink:href="#hex-digit"><rect class="r" x="279" y="170" width="75" height="25"/><text class="j" x="289" y="187">hex-digit</text></a><a xlink:href="#hex-digit"><rect class="r" x="364" y="170" width="75" height="25"/><text class="j" x="374" y="187">hex-digit</text></a><a xlink:href="#hex-digit"><rect class="r" x="449" y="170" width="75" height="25"/><text class="j" x="459" y="187">hex-digit</text></a><rect class="l" x="614" y="20" width="26" height="25" rx="7"/><text class="j" x="624" y="37">&quot;</text></svg>