<svg version="1.1" xmlns:xlink="http://www.w3.org/1999/xlink" xmlns="http://www.w3.org/2000/svg" width="634" height="209" viewbox="0 0 634 209"><defs><style type="text/css">.c{fill: none; stroke: #888888; stroke-width: 3pt;}.j{fill:#000000;font-family:Dialog,Sans-serif;font-size:12px;}.l{fill:#90d9ff;stroke:#222222;}.r{fill:#d3f0ff;stroke:#222222;}</style></defs><path class="c" d="M0 36h5m25 0h50m-5 0q-5 0-5-5v-16q0-5 5-5h484q5 0 5 5v16q0 5-5 5m-479 0h20m48 0h406m-469 0q5 0 5 5v19q0 5 5 5h5m24 0h30m24 0h356m-390 24q0 5 5 5h5m25 0h340q5 0 5-5m-380 29q0 5 5 5h5m25 0h340q5 0 5-5m-380 29q0 5 5 5h5m28 0h337q5 0 5-5m-385-82q5 0 5 5v106q0 5 5 5h5m28 0h10m73 0h10m73 0h10m73 0h10m73 0h5q5 0 5-5v-106q0-5 5-5m5 0h5q5 0 5-5v-19q0-5 5-5m5 0h40m-549 0q5 0 5 5v153q0 5 5 5h524q5 0 5-5v-153q0-5 5-5m5 0h10m25 0h5"/><rect class="l" x="5" y="20" width="25" height="24" rx="7"/><text class="j" x="15" y="36">&quot;</text><a xlink:href="#char"><rect class="r" x="100" y="20" width="48" height="24"/><text class="j" x="110" y="36">char</text></a><rect class="l" x="100" y="49" width="24" height="24" rx="7"/><text class="j" x="110" y="65">\</text><rect class="l" x="154" y="49" width="24" height="24" rx="7"/><text class="j" x="164" y="65">\</text><rect class="l" x="154" y="78" width="25" height="24" rx="7"/><text class="j" x="164" y="94">&quot;</text><rect class="l" x="154" y="107" width="25" height="24" rx="7"/><text class="j" x="164" y="123">t</text><rect class="l" x="154" y="136" width="28" height="24" rx="7"/><text class="j" x="164" y="152">n</text><rect class="l" x="154" y="165" width="28" height="24" rx="7"/><text class="j" x="164" y="181">u</text><a xlink:href="#hex-digit"><rect class="r" x="192" y="165" width="73" height="24"/><text class="j" x="202" y="181">hex-digit</text></a><a xlink:href="#hex-digit"><rect class="r" x="275" y="165" width="73" height="24"/><text class="j" x="285" y="181">hex-digit</text></a><a xlink:href="#hex-digit"><rect class="r" x="358" y="165" width="73" height="24"/><text class="j" x="368" y="181">hex-digit</text></a><a xlink:href="#hex-digit"><rect class="r" x="441" y="165" width="73" height="24"/><text class="j" x="451" y="181">hex-digit</text></a><rect class="l" x="604" y="20" width="25" height="24" rx="7"/><text class="j" x="614" y="36">&quot;</text></svg>