<svg version="1.1" xmlns:xlink="http://www.w3.org/1999/xlink" xmlns="http://www.w3.org/2000/svg" width="633" height="215" viewbox="0 0 633 215"><defs><style type="text/css">.c{fill: none; stroke: #888888; stroke-width: 2px;}.j{fill:#000000;font-family:Verdana,Sans-serif;font-size:12px;}.l{fill:#90d9ff;stroke:#222222;}.r{fill:#d3f0ff;stroke:#222222;}</style></defs><path class="c" d="M0 33h5m26 0h50m-5 0q-5 0-5-5v-17q0-5 5-5h481q5 0 5 5v17q0 5-5 5m-476 0h20m46 0h405m-466 0q5 0 5 5v20q0 5 5 5h5m25 0h30m25 0h351m-386 25q0 5 5 5h5m26 0h335q5 0 5-5m-376 30q0 5 5 5h5m25 0h336q5 0 5-5m-376 30q0 5 5 5h5m28 0h333q5 0 5-5m-381-85q5 0 5 5v110q0 5 5 5h5m28 0h10m72 0h10m72 0h10m72 0h10m72 0h5q5 0 5-5v-110q0-5 5-5m5 0h5q5 0 5-5v-20q0-5 5-5m5 0h40m-546 0q5 0 5 5v158q0 5 5 5h521q5 0 5-5v-158q0-5 5-5m5 0h10m26 0h5"/><rect class="l" x="5" y="20" width="26" height="25" rx="7"/><text class="j" x="15" y="37">&quot;</text><a xlink:href="#char"><rect class="r" x="101" y="20" width="46" height="25"/><text class="j" x="111" y="37">char</text></a><rect class="l" x="101" y="50" width="25" height="25" rx="7"/><text class="j" x="111" y="67">\</text><rect class="l" x="156" y="50" width="25" height="25" rx="7"/><text class="j" x="166" y="67">\</text><rect class="l" x="156" y="80" width="26" height="25" rx="7"/><text class="j" x="166" y="97">&quot;</text><rect class="l" x="156" y="110" width="25" height="25" rx="7"/><text class="j" x="166" y="127">t</text><rect class="l" x="156" y="140" width="28" height="25" rx="7"/><text class="j" x="166" y="157">n</text><rect class="l" x="156" y="170" width="28" height="25" rx="7"/><text class="j" x="166" y="187">u</text><a xlink:href="#hex-digit"><rect class="r" x="194" y="170" width="72" height="25"/><text class="j" x="204" y="187">hex-digit</text></a><a xlink:href="#hex-digit"><rect class="r" x="276" y="170" width="72" height="25"/><text class="j" x="286" y="187">hex-digit</text></a><a xlink:href="#hex-digit"><rect class="r" x="358" y="170" width="72" height="25"/><text class="j" x="368" y="187">hex-digit</text></a><a xlink:href="#hex-digit"><rect class="r" x="440" y="170" width="72" height="25"/><text class="j" x="450" y="187">hex-digit</text></a><rect class="l" x="602" y="20" width="26" height="25" rx="7"/><text class="j" x="612" y="37">&quot;</text></svg>