<svg version="1.1" xmlns:xlink="http://www.w3.org/1999/xlink" xmlns="http://www.w3.org/2000/svg" width="209" height="65" viewbox="0 0 209 65"><defs><style type="text/css">.c{fill:none;stroke:#222222;}.j{fill:#000000;font-family:Verdana,Sans-serif;font-size:12px;}.l{fill:#90d9ff;stroke:#222222;}.r{fill:#d3f0ff;stroke:#222222;}</style></defs><path class="c" d="M0 37h5m26 0h50m-5 0q-5 0-5-5v-17q0-5 5-5h57q5 0 5 5v17q0 5-5 5m-5 0h40m-122 0q5 0 5 5v8q0 5 5 5h97q5 0 5-5v-8q0-5 5-5m5 0h10m26 0h5"/><rect class="l" x="5" y="20" width="26" height="25" rx="7"/><text class="j" x="15" y="37">&quot;</text><a xlink:href="#char"><rect class="r" x="81" y="20" width="47" height="25"/><text class="j" x="91" y="37">char</text></a><rect class="l" x="178" y="20" width="26" height="25" rx="7"/><text class="j" x="188" y="37">&quot;</text></svg>