<svg version="1.1" xmlns:xlink="http://www.w3.org/1999/xlink" xmlns="http://www.w3.org/2000/svg" width="394" height="93" viewbox="0 0 394 93"><defs><style type="text/css">.c{fill: none; stroke: #888888; stroke-width: 3pt;}.i{fill:#000000;font-family:Dialog,Sans-serif;font-size:12px;}.l{fill:#90d9ff;stroke:#222222;}.r{fill:#d3f0ff;stroke:#222222;}</style></defs><path class="c" d="M0 21h25m96 0h30m24 0h10m96 0h20m-165 0q5 0 5 5v8q0 5 5 5h140q5 0 5-5v-8q0-5 5-5m5 0h88m-379 0q5 0 5 5v34q0 5 5 5h5m24 0h10m96 0h30m24 0h10m96 0h20m-165 0q5 0 5 5v8q0 5 5 5h140q5 0 5-5v-8q0-5 5-5m5 0h10m24 0h5q5 0 5-5v-34q0-5 5-5m5 0h5"/><a xlink:href="#bare-symbol"><rect class="r" x="25" y="5" width="96" height="24"/><text class="i" x="35" y="21">bare-symbol</text></a><rect class="l" x="151" y="5" width="24" height="24" rx="7"/><text class="i" x="161" y="21">/</text><a xlink:href="#bare-symbol"><rect class="r" x="185" y="5" width="96" height="24"/><text class="i" x="195" y="21">bare-symbol</text></a><rect class="l" x="25" y="49" width="24" height="24" rx="7"/><text class="i" x="35" y="65">’</text><a xlink:href="#bare-symbol"><rect class="r" x="59" y="49" width="96" height="24"/><text class="i" x="69" y="65">bare-symbol</text></a><rect class="l" x="185" y="49" width="24" height="24" rx="7"/><text class="i" x="195" y="65">/</text><a xlink:href="#bare-symbol"><rect class="r" x="219" y="49" width="96" height="24"/><text class="i" x="229" y="65">bare-symbol</text></a><rect class="l" x="345" y="49" width="24" height="24" rx="7"/><text class="i" x="355" y="65">’</text></svg>