<svg version="1.1" xmlns:xlink="http://www.w3.org/1999/xlink" xmlns="http://www.w3.org/2000/svg" width="674" height="680" viewbox="0 0 674 680"><defs><style type="text/css">.c{fill:none;stroke:#222222;}.j{fill:#000000;font-family:Verdana,Sans-serif;font-size:12px;}.l{fill:#90d9ff;stroke:#222222;}.r{fill:#d3f0ff;stroke:#222222;}</style></defs><path class="c" d="M0 22h25m167 0h30m41 0h20m-71 25q0 5 5 5h5m40 0h6q5 0 5-5m-61 30q0 5 5 5h5m28 0h18q5 0 5-5m-61 30q0 5 5 5h5m25 0h21q5 0 5-5m-61 30q0 5 5 5h5m28 0h18q5 0 5-5m-61 30q0 5 5 5h5m29 0h17q5 0 5-5m-61 30q0 5 5 5h5m29 0h17q5 0 5-5m-61 30q0 5 5 5h5m29 0h17q5 0 5-5m-61 30q0 5 5 5h5m28 0h18q5 0 5-5m-61 30q0 5 5 5h5m24 0h22q5 0 5-5m-66-265q5 0 5 5v290q0 5 5 5h5m27 0h19q5 0 5-5v-290q0-5 5-5m5 0h386m-654 325q0 5 5 5h5m157 0h30m29 0h20m-64 0q5 0 5 5v20q0 5 5 5h5m25 0h9q5 0 5-5v-20q0-5 5-5m5 0h393q5 0 5-5m-644 60q0 5 5 5h5m133 0h30m162 0h20m-192 25q0 5 5 5h5m152 0h15q5 0 5-5m-187-25q5 0 5 5v50q0 5 5 5h5m41 0h126q5 0 5-5v-50q0-5 5-5m5 0h284q5 0 5-5m-644 90q0 5 5 5h5m114 0h30m152 0h328m-495 0q5 0 5 5v35q0 5 5 5h25m162 0h20m-197 0q5 0 5 5v20q0 5 5 5h5m152 0h15q5 0 5-5v-20q0-5 5-5m5 0h70m-5 0q-5 0-5-5v-17q0-5 5-5h138q5 0 5 5v17q0 5-5 5m-5 0h40m-203 0q5 0 5 5v8q0 5 5 5h178q5 0 5-5v-8q0-5 5-5m5 0h20m-243 0q5 0 5 5v23q0 5 5 5h218q5 0 5-5v-23q0-5 5-5m5 0h5q5 0 5-5v-35q0-5 5-5m5 0h5q5 0 5-5m-649-475q5 0 5 5v575q0 5 5 5h5m69 0h30m109 0h30m25 0h10m109 0h20m-179 0q5 0 5 5v8q0 5 5 5h154q5 0 5-5v-8q0-5 5-5m5 0h86m-404 0q5 0 5 5v35q0 5 5 5h5m23 0h10m109 0h30m25 0h10m109 0h20m-179 0q5 0 5 5v8q0 5 5 5h154q5 0 5-5v-8q0-5 5-5m5 0h10m23 0h5q5 0 5-5v-35q0-5 5-5m5 0h141q5 0 5-5v-575q0-5 5-5m5 0h5"/><rect class="l" x="25" y="5" width="167" height="25" rx="7"/><text class="j" x="35" y="22">non-numeric-character:</text><rect class="l" x="222" y="5" width="41" height="25" rx="7"/><text class="j" x="232" y="22">A-Z</text><rect class="l" x="222" y="35" width="40" height="25" rx="7"/><text class="j" x="232" y="52">a-z</text><rect class="l" x="222" y="65" width="28" height="25" rx="7"/><text class="j" x="232" y="82">*</text><rect class="l" x="222" y="95" width="25" height="25" rx="7"/><text class="j" x="232" y="112">!</text><rect class="l" x="222" y="125" width="28" height="25" rx="7"/><text class="j" x="232" y="142">$</text><rect class="l" x="222" y="155" width="29" height="25" rx="7"/><text class="j" x="232" y="172">=</text><rect class="l" x="222" y="185" width="29" height="25" rx="7"/><text class="j" x="232" y="202">&lt;</text><rect class="l" x="222" y="215" width="29" height="25" rx="7"/><text class="j" x="232" y="232">&gt;</text><rect class="l" x="222" y="245" width="28" height="25" rx="7"/><text class="j" x="232" y="262">_</text><rect class="l" x="222" y="275" width="24" height="25" rx="7"/><text class="j" x="232" y="292">.</text><rect class="l" x="222" y="305" width="27" height="25" rx="7"/><text class="j" x="232" y="322">?</text><rect class="l" x="25" y="335" width="157" height="25" rx="7"/><text class="j" x="35" y="352">plus-minus-character:</text><rect class="l" x="212" y="335" width="29" height="25" rx="7"/><text class="j" x="222" y="352">+</text><rect class="l" x="212" y="365" width="25" height="25" rx="7"/><text class="j" x="222" y="382">-</text><rect class="l" x="25" y="395" width="133" height="25" rx="7"/><text class="j" x="35" y="412">symbol-character:</text><a xlink:href="#non-numeric-character"><rect class="r" x="188" y="395" width="162" height="25"/><text class="j" x="198" y="412">non-numeric-character</text></a><a xlink:href="#plus-minus-character"><rect class="r" x="188" y="425" width="152" height="25"/><text class="j" x="198" y="442">plus-minus-character</text></a><rect class="l" x="188" y="455" width="41" height="25" rx="7"/><text class="j" x="198" y="472">0-9</text><rect class="l" x="25" y="485" width="114" height="25" rx="7"/><text class="j" x="35" y="502">simple-symbol:</text><a xlink:href="#plus-minus-character"><rect class="r" x="169" y="485" width="152" height="25"/><text class="j" x="179" y="502">plus-minus-character</text></a><a xlink:href="#non-numeric-character"><rect class="r" x="189" y="530" width="162" height="25"/><text class="j" x="199" y="547">non-numeric-character</text></a><a xlink:href="#plus-minus-character"><rect class="r" x="189" y="560" width="152" height="25"/><text class="j" x="199" y="577">plus-minus-character</text></a><a xlink:href="#symbol-character"><rect class="r" x="441" y="530" width="128" height="25"/><text class="j" x="451" y="547">symbol-character</text></a><rect class="l" x="25" y="590" width="69" height="25" rx="7"/><text class="j" x="35" y="607">symbol:</text><a xlink:href="#simple-symbol"><rect class="r" x="124" y="590" width="109" height="25"/><text class="j" x="134" y="607">simple-symbol</text></a><rect class="l" x="263" y="590" width="25" height="25" rx="7"/><text class="j" x="273" y="607">/</text><a xlink:href="#simple-symbol"><rect class="r" x="298" y="590" width="109" height="25"/><text class="j" x="308" y="607">simple-symbol</text></a><rect class="l" x="124" y="635" width="23" height="25" rx="7"/><text class="j" x="134" y="652">’</text><a xlink:href="#simple-symbol"><rect class="r" x="157" y="635" width="109" height="25"/><text class="j" x="167" y="652">simple-symbol</text></a><rect class="l" x="296" y="635" width="25" height="25" rx="7"/><text class="j" x="306" y="652">/</text><a xlink:href="#simple-symbol"><rect class="r" x="331" y="635" width="109" height="25"/><text class="j" x="341" y="652">simple-symbol</text></a><rect class="l" x="470" y="635" width="23" height="25" rx="7"/><text class="j" x="480" y="652">’</text></svg>