<svg version="1.1" xmlns:xlink="http://www.w3.org/1999/xlink" xmlns="http://www.w3.org/2000/svg" width="212" height="95" viewbox="0 0 212 95"><defs><style type="text/css">.c{fill:none;stroke:#222222;}.i{fill:#000000;font-family:Verdana,Sans-serif;font-size:12px;}.l{fill:#90d9ff;stroke:#222222;}.r{fill:#d3f0ff;stroke:#222222;}</style></defs><path class="c" d="M0 22h25m162 0h20m-192 25q0 5 5 5h5m152 0h15q5 0 5-5m-187-25q5 0 5 5v50q0 5 5 5h5m41 0h126q5 0 5-5v-50q0-5 5-5m5 0h5"/><a xlink:href="#non-numeric-character"><rect class="r" x="25" y="5" width="162" height="25"/><text class="i" x="35" y="22">non-numeric-character</text></a><a xlink:href="#plus-minus-character"><rect class="r" x="25" y="35" width="152" height="25"/><text class="i" x="35" y="52">plus-minus-character</text></a><rect class="l" x="25" y="65" width="41" height="25" rx="7"/><text class="i" x="35" y="82">0-9</text></svg>