<svg version="1.1" xmlns:xlink="http://www.w3.org/1999/xlink" xmlns="http://www.w3.org/2000/svg" width="213" height="92" viewbox="0 0 213 92"><defs><style type="text/css">.c{fill: none; stroke: #888888; stroke-width: 3pt;}.i{fill:#000000;font-family:Dialog,Sans-serif;font-size:12px;}.l{fill:#90d9ff;stroke:#222222;}.r{fill:#d3f0ff;stroke:#222222;}</style></defs><path class="c" d="M0 21h25m163 0h20m-193 24q0 5 5 5h5m152 0h16q5 0 5-5m-188-24q5 0 5 5v48q0 5 5 5h5m40 0h128q5 0 5-5v-48q0-5 5-5m5 0h5"/><a xlink:href="#non-numeric-character"><rect class="r" x="25" y="5" width="163" height="24"/><text class="i" x="35" y="21">non-numeric-character</text></a><a xlink:href="#plus-minus-character"><rect class="r" x="25" y="34" width="152" height="24"/><text class="i" x="35" y="50">plus-minus-character</text></a><rect class="l" x="25" y="63" width="40" height="24" rx="7"/><text class="i" x="35" y="79">0-9</text></svg>