<svg version="1.1" xmlns:xlink="http://www.w3.org/1999/xlink" xmlns="http://www.w3.org/2000/svg" width="387" height="95" viewbox="0 0 387 95"><defs><style type="text/css">.c{fill: none; stroke: #888888; stroke-width: 2px;}.i{fill:#000000;font-family:Verdana,Sans-serif;font-size:12px;}.l{fill:#90d9ff;stroke:#222222;}.r{fill:#d3f0ff;stroke:#222222;}</style></defs><path class="c" d="M0 18h25m93 0h30m25 0h10m93 0h20m-163 0q5 0 5 5v8q0 5 5 5h138q5 0 5-5v-8q0-5 5-5m5 0h86m-372 0q5 0 5 5v35q0 5 5 5h5m23 0h10m93 0h30m25 0h10m93 0h20m-163 0q5 0 5 5v8q0 5 5 5h138q5 0 5-5v-8q0-5 5-5m5 0h10m23 0h5q5 0 5-5v-35q0-5 5-5m5 0h5"/><a xlink:href="#bare-symbol"><rect class="r" x="25" y="5" width="93" height="25"/><text class="i" x="35" y="22">bare-symbol</text></a><rect class="l" x="148" y="5" width="25" height="25" rx="7"/><text class="i" x="158" y="22">/</text><a xlink:href="#bare-symbol"><rect class="r" x="183" y="5" width="93" height="25"/><text class="i" x="193" y="22">bare-symbol</text></a><rect class="l" x="25" y="50" width="23" height="25" rx="7"/><text class="i" x="35" y="67">’</text><a xlink:href="#bare-symbol"><rect class="r" x="58" y="50" width="93" height="25"/><text class="i" x="68" y="67">bare-symbol</text></a><rect class="l" x="181" y="50" width="25" height="25" rx="7"/><text class="i" x="191" y="67">/</text><a xlink:href="#bare-symbol"><rect class="r" x="216" y="50" width="93" height="25"/><text class="i" x="226" y="67">bare-symbol</text></a><rect class="l" x="339" y="50" width="23" height="25" rx="7"/><text class="i" x="349" y="67">’</text></svg>