<svg version="1.1" xmlns:xlink="http://www.w3.org/1999/xlink" xmlns="http://www.w3.org/2000/svg" width="419" height="95" viewbox="0 0 419 95"><defs><style type="text/css">.c{fill:none;stroke:#222222;}.i{fill:#000000;font-family:Verdana,Sans-serif;font-size:12px;}.l{fill:#90d9ff;stroke:#222222;}.r{fill:#d3f0ff;stroke:#222222;}</style></defs><path class="c" d="M0 22h25m109 0h30m25 0h10m109 0h20m-179 0q5 0 5 5v8q0 5 5 5h154q5 0 5-5v-8q0-5 5-5m5 0h86m-404 0q5 0 5 5v35q0 5 5 5h5m23 0h10m109 0h30m25 0h10m109 0h20m-179 0q5 0 5 5v8q0 5 5 5h154q5 0 5-5v-8q0-5 5-5m5 0h10m23 0h5q5 0 5-5v-35q0-5 5-5m5 0h5"/><a xlink:href="#simple-symbol"><rect class="r" x="25" y="5" width="109" height="25"/><text class="i" x="35" y="22">simple-symbol</text></a><rect class="l" x="164" y="5" width="25" height="25" rx="7"/><text class="i" x="174" y="22">/</text><a xlink:href="#simple-symbol"><rect class="r" x="199" y="5" width="109" height="25"/><text class="i" x="209" y="22">simple-symbol</text></a><rect class="l" x="25" y="50" width="23" height="25" rx="7"/><text class="i" x="35" y="67">’</text><a xlink:href="#simple-symbol"><rect class="r" x="58" y="50" width="109" height="25"/><text class="i" x="68" y="67">simple-symbol</text></a><rect class="l" x="197" y="50" width="25" height="25" rx="7"/><text class="i" x="207" y="67">/</text><a xlink:href="#simple-symbol"><rect class="r" x="232" y="50" width="109" height="25"/><text class="i" x="242" y="67">simple-symbol</text></a><rect class="l" x="371" y="50" width="23" height="25" rx="7"/><text class="i" x="381" y="67">’</text></svg>