<svg version="1.1" xmlns:xlink="http://www.w3.org/1999/xlink" xmlns="http://www.w3.org/2000/svg" width="148" height="215" viewbox="0 0 148 215"><defs><style type="text/css">.c{fill: none; stroke: #888888; stroke-width: 2px;}.i{fill:#000000;font-family:Verdana,Sans-serif;font-size:12px;}.r{fill:#d3f0ff;stroke:#222222;}</style></defs><path class="c" d="M0 18h25m66 0h52m-128 25q0 5 5 5h5m54 0h49q5 0 5-5m-118 30q0 5 5 5h5m62 0h41q5 0 5-5m-118 30q0 5 5 5h5m98 0h5q5 0 5-5m-118 30q0 5 5 5h5m70 0h33q5 0 5-5m-118 30q0 5 5 5h5m57 0h46q5 0 5-5m-123-145q5 0 5 5v170q0 5 5 5h5m38 0h65q5 0 5-5v-170q0-5 5-5m5 0h5"/><a xlink:href="#boolean"><rect class="r" x="25" y="5" width="66" height="25"/><text class="i" x="35" y="22">boolean</text></a><a xlink:href="#string"><rect class="r" x="25" y="35" width="54" height="25"/><text class="i" x="35" y="52">string</text></a><a xlink:href="#integer"><rect class="r" x="25" y="65" width="62" height="25"/><text class="i" x="35" y="82">integer</text></a><a xlink:href="#fixed-decimal"><rect class="r" x="25" y="95" width="98" height="25"/><text class="i" x="35" y="112">fixed-decimal</text></a><a xlink:href="#instance"><rect class="r" x="25" y="125" width="70" height="25"/><text class="i" x="35" y="142">instance</text></a><a xlink:href="#vector"><rect class="r" x="25" y="155" width="57" height="25"/><text class="i" x="35" y="172">vector</text></a><a xlink:href="#set"><rect class="r" x="25" y="185" width="38" height="25"/><text class="i" x="35" y="202">set</text></a></svg>