<svg version="1.1" xmlns:xlink="http://www.w3.org/1999/xlink" xmlns="http://www.w3.org/2000/svg" width="151" height="208" viewbox="0 0 151 208"><defs><style type="text/css">.c{fill: none; stroke: #888888; stroke-width: 3pt;}.i{fill:#000000;font-family:Dialog,Sans-serif;font-size:12px;}.r{fill:#d3f0ff;stroke:#222222;}</style></defs><path class="c" d="M0 21h25m71 0h50m-131 24q0 5 5 5h5m56 0h50q5 0 5-5m-121 29q0 5 5 5h5m65 0h41q5 0 5-5m-121 29q0 5 5 5h5m101 0h5q5 0 5-5m-121 29q0 5 5 5h5m74 0h32q5 0 5-5m-121 29q0 5 5 5h5m59 0h47q5 0 5-5m-126-140q5 0 5 5v164q0 5 5 5h5m40 0h66q5 0 5-5v-164q0-5 5-5m5 0h5"/><a xlink:href="#boolean"><rect class="r" x="25" y="5" width="71" height="24"/><text class="i" x="35" y="21">boolean</text></a><a xlink:href="#string"><rect class="r" x="25" y="34" width="56" height="24"/><text class="i" x="35" y="50">string</text></a><a xlink:href="#integer"><rect class="r" x="25" y="63" width="65" height="24"/><text class="i" x="35" y="79">integer</text></a><a xlink:href="#fixed-decimal"><rect class="r" x="25" y="92" width="101" height="24"/><text class="i" x="35" y="108">fixed-decimal</text></a><a xlink:href="#instance"><rect class="r" x="25" y="121" width="74" height="24"/><text class="i" x="35" y="137">instance</text></a><a xlink:href="#vector"><rect class="r" x="25" y="150" width="59" height="24"/><text class="i" x="35" y="166">vector</text></a><a xlink:href="#set"><rect class="r" x="25" y="179" width="40" height="24"/><text class="i" x="35" y="195">set</text></a></svg>