<svg version="1.1" xmlns:xlink="http://www.w3.org/1999/xlink" xmlns="http://www.w3.org/2000/svg" width="152" height="215" viewbox="0 0 152 215"><defs><style type="text/css">.c{fill:none;stroke:#222222;}.i{fill:#000000;font-family:Verdana,Sans-serif;font-size:12px;}.r{fill:#d3f0ff;stroke:#222222;}</style></defs><path class="c" d="M0 22h25m71 0h51m-132 25q0 5 5 5h5m56 0h51q5 0 5-5m-122 30q0 5 5 5h5m65 0h42q5 0 5-5m-122 30q0 5 5 5h5m102 0h5q5 0 5-5m-122 30q0 5 5 5h5m73 0h34q5 0 5-5m-122 30q0 5 5 5h5m59 0h48q5 0 5-5m-127-145q5 0 5 5v170q0 5 5 5h5m40 0h67q5 0 5-5v-170q0-5 5-5m5 0h5"/><a xlink:href="#boolean"><rect class="r" x="25" y="5" width="71" height="25"/><text class="i" x="35" y="22">boolean</text></a><a xlink:href="#string"><rect class="r" x="25" y="35" width="56" height="25"/><text class="i" x="35" y="52">string</text></a><a xlink:href="#integer"><rect class="r" x="25" y="65" width="65" height="25"/><text class="i" x="35" y="82">integer</text></a><a xlink:href="#fixed-decimal"><rect class="r" x="25" y="95" width="102" height="25"/><text class="i" x="35" y="112">fixed-decimal</text></a><a xlink:href="#instance"><rect class="r" x="25" y="125" width="73" height="25"/><text class="i" x="35" y="142">instance</text></a><a xlink:href="#vector"><rect class="r" x="25" y="155" width="59" height="25"/><text class="i" x="35" y="172">vector</text></a><a xlink:href="#set"><rect class="r" x="25" y="185" width="40" height="25"/><text class="i" x="35" y="202">set</text></a></svg>