<svg version="1.1" xmlns:xlink="http://www.w3.org/1999/xlink" xmlns="http://www.w3.org/2000/svg" width="699" height="64" viewbox="0 0 699 64"><defs><style type="text/css">.c{fill: none; stroke: #888888; stroke-width: 2px;}.j{fill:#000000;font-family:Dialog,Sans-serif;font-size:12px;}.l{fill:#90d9ff;stroke:#222222;}.r{fill:#d3f0ff;stroke:#222222;}</style></defs><path class="c" d="M0 32h5m25 0h30m91 0h20m-126 0q5 0 5 5v8q0 5 5 5h101q5 0 5-5v-8q0-5 5-5m5 0h50m-5 0q-5 0-5-5v-16q0-5 5-5h164q5 0 5 5v16q0 5-5 5m-106 0h10m91 0h40m-229 0q5 0 5 5v8q0 5 5 5h204q5 0 5-5v-8q0-5 5-5m5 0h30m53 0h20m-88 0q5 0 5 5v8q0 5 5 5h63q5 0 5-5v-8q0-5 5-5m5 0h30m91 0h20m-126 0q5 0 5 5v8q0 5 5 5h101q5 0 5-5v-8q0-5 5-5m5 0h10m25 0h5"/><rect class="l" x="5" y="20" width="25" height="24" rx="7"/><text class="j" x="15" y="36">[</text><a xlink:href="#whitespace"><rect class="r" x="60" y="20" width="91" height="24"/><text class="j" x="70" y="36">whitespace</text></a><a xlink:href="#value"><rect class="r" x="221" y="20" width="53" height="24"/><text class="j" x="231" y="36">value</text></a><a xlink:href="#whitespace"><rect class="r" x="284" y="20" width="91" height="24"/><text class="j" x="294" y="36">whitespace</text></a><a xlink:href="#value"><rect class="r" x="445" y="20" width="53" height="24"/><text class="j" x="455" y="36">value</text></a><a xlink:href="#whitespace"><rect class="r" x="548" y="20" width="91" height="24"/><text class="j" x="558" y="36">whitespace</text></a><rect class="l" x="669" y="20" width="25" height="24" rx="7"/><text class="j" x="679" y="36">]</text></svg>