<svg version="1.1" xmlns:xlink="http://www.w3.org/1999/xlink" xmlns="http://www.w3.org/2000/svg" width="352" height="65" viewbox="0 0 352 65"><defs><style type="text/css">.c{fill:none;stroke:#222222;}.j{fill:#000000;font-family:Verdana,Sans-serif;font-size:12px;}.l{fill:#90d9ff;stroke:#222222;}.r{fill:#d3f0ff;stroke:#222222;}</style></defs><path class="c" d="M0 37h5m25 0h30m54 0h20m-89 0q5 0 5 5v8q0 5 5 5h64q5 0 5-5v-8q0-5 5-5m5 0h50m-5 0q-5 0-5-5v-17q0-5 5-5h98q5 0 5 5v17q0 5-5 5m-69 0h10m54 0h40m-163 0q5 0 5 5v8q0 5 5 5h138q5 0 5-5v-8q0-5 5-5m5 0h10m25 0h5"/><rect class="l" x="5" y="20" width="25" height="25" rx="7"/><text class="j" x="15" y="37">[</text><a xlink:href="#value"><rect class="r" x="60" y="20" width="54" height="25"/><text class="j" x="70" y="37">value</text></a><rect class="l" x="184" y="20" width="24" height="25" rx="7"/><text class="j" x="194" y="37">,</text><a xlink:href="#value"><rect class="r" x="218" y="20" width="54" height="25"/><text class="j" x="228" y="37">value</text></a><rect class="l" x="322" y="20" width="25" height="25" rx="7"/><text class="j" x="332" y="37">]</text></svg>