<svg version="1.1" xmlns:xlink="http://www.w3.org/1999/xlink" xmlns="http://www.w3.org/2000/svg" width="1055" height="79" viewbox="0 0 1055 79"><defs><style type="text/css">.c{fill: none; stroke: #888888; stroke-width: 2px;}.j{fill:#000000;font-family:Dialog,Sans-serif;font-size:12px;}.l{fill:#90d9ff;stroke:#222222;}.r{fill:#d3f0ff;stroke:#222222;}</style></defs><path class="c" d="M0 32h5m25 0h30m91 0h20m-126 0q5 0 5 5v8q0 5 5 5h101q5 0 5-5v-8q0-5 5-5m5 0h30m53 0h20m-88 0q5 0 5 5v8q0 5 5 5h63q5 0 5-5v-8q0-5 5-5m5 0h30m91 0h20m-126 0q5 0 5 5v8q0 5 5 5h101q5 0 5-5v-8q0-5 5-5m5 0h50m-5 0q-5 0-5-5v-16q0-5 5-5h379q5 0 5 5v16q0 5-5 5m-350 0h30m91 0h20m-126 0q5 0 5 5v8q0 5 5 5h101q5 0 5-5v-8q0-5 5-5m5 0h10m53 0h30m91 0h20m-126 0q5 0 5 5v8q0 5 5 5h101q5 0 5-5v-8q0-5 5-5m5 0h40m-444 0q5 0 5 5v23q0 5 5 5h419q5 0 5-5v-23q0-5 5-5m5 0h30m91 0h20m-126 0q5 0 5 5v8q0 5 5 5h101q5 0 5-5v-8q0-5 5-5m5 0h10m25 0h5"/><rect class="l" x="5" y="20" width="25" height="24" rx="7"/><text class="j" x="15" y="36">[</text><a xlink:href="#whitespace"><rect class="r" x="60" y="20" width="91" height="24"/><text class="j" x="70" y="36">whitespace</text></a><a xlink:href="#value"><rect class="r" x="201" y="20" width="53" height="24"/><text class="j" x="211" y="36">value</text></a><a xlink:href="#whitespace"><rect class="r" x="304" y="20" width="91" height="24"/><text class="j" x="314" y="36">whitespace</text></a><rect class="l" x="465" y="20" width="24" height="24" rx="7"/><text class="j" x="475" y="36">,</text><a xlink:href="#whitespace"><rect class="r" x="519" y="20" width="91" height="24"/><text class="j" x="529" y="36">whitespace</text></a><a xlink:href="#value"><rect class="r" x="640" y="20" width="53" height="24"/><text class="j" x="650" y="36">value</text></a><a xlink:href="#whitespace"><rect class="r" x="723" y="20" width="91" height="24"/><text class="j" x="733" y="36">whitespace</text></a><a xlink:href="#whitespace"><rect class="r" x="904" y="20" width="91" height="24"/><text class="j" x="914" y="36">whitespace</text></a><rect class="l" x="1025" y="20" width="25" height="24" rx="7"/><text class="j" x="1035" y="36">]</text></svg>