<svg version="1.1" xmlns:xlink="http://www.w3.org/1999/xlink" xmlns="http://www.w3.org/2000/svg" width="682" height="65" viewbox="0 0 682 65"><defs><style type="text/css">.c{fill: none; stroke: #888888; stroke-width: 2px;}.j{fill:#000000;font-family:Verdana,Sans-serif;font-size:12px;}.l{fill:#90d9ff;stroke:#222222;}.r{fill:#d3f0ff;stroke:#222222;}</style></defs><path class="c" d="M0 33h5m25 0h30m86 0h20m-121 0q5 0 5 5v8q0 5 5 5h96q5 0 5-5v-8q0-5 5-5m5 0h50m-5 0q-5 0-5-5v-17q0-5 5-5h158q5 0 5 5v17q0 5-5 5m-101 0h10m86 0h40m-223 0q5 0 5 5v8q0 5 5 5h198q5 0 5-5v-8q0-5 5-5m5 0h30m52 0h20m-87 0q5 0 5 5v8q0 5 5 5h62q5 0 5-5v-8q0-5 5-5m5 0h30m86 0h20m-121 0q5 0 5 5v8q0 5 5 5h96q5 0 5-5v-8q0-5 5-5m5 0h10m25 0h5"/><rect class="l" x="5" y="20" width="25" height="25" rx="7"/><text class="j" x="15" y="37">[</text><a xlink:href="#whitespace"><rect class="r" x="60" y="20" width="86" height="25"/><text class="j" x="70" y="37">whitespace</text></a><a xlink:href="#value"><rect class="r" x="216" y="20" width="52" height="25"/><text class="j" x="226" y="37">value</text></a><a xlink:href="#whitespace"><rect class="r" x="278" y="20" width="86" height="25"/><text class="j" x="288" y="37">whitespace</text></a><a xlink:href="#value"><rect class="r" x="434" y="20" width="52" height="25"/><text class="j" x="444" y="37">value</text></a><a xlink:href="#whitespace"><rect class="r" x="536" y="20" width="86" height="25"/><text class="j" x="546" y="37">whitespace</text></a><rect class="l" x="652" y="20" width="25" height="25" rx="7"/><text class="j" x="662" y="37">]</text></svg>