<!--
RULE = ('[' [whitespace] [value] [whitespace] {',' [whitespace] value [whitespace]} [whitespace]']');
-->
<svg version="1.1" xmlns:xlink="http://www.w3.org/1999/xlink" xmlns="http://www.w3.org/2000/svg" width="1062" height="80" viewbox="0 0 1062 80"><defs><style type="text/css">.c{fill: none; stroke: #888888; stroke-width: 2px;}.j{fill:#000000;font-family:Verdana,Sans-serif;font-size:12px;}.l{fill:#90d9ff;stroke:#222222;}.r{fill:#d3f0ff;stroke:#222222;}</style></defs><path class="c" d="M0 33h5m25 0h30m92 0h20m-127 0q5 0 5 5v8q0 5 5 5h102q5 0 5-5v-8q0-5 5-5m5 0h30m54 0h20m-89 0q5 0 5 5v8q0 5 5 5h64q5 0 5-5v-8q0-5 5-5m5 0h30m92 0h20m-127 0q5 0 5 5v8q0 5 5 5h102q5 0 5-5v-8q0-5 5-5m5 0h50m-5 0q-5 0-5-5v-17q0-5 5-5h382q5 0 5 5v17q0 5-5 5m-353 0h30m92 0h20m-127 0q5 0 5 5v8q0 5 5 5h102q5 0 5-5v-8q0-5 5-5m5 0h10m54 0h30m92 0h20m-127 0q5 0 5 5v8q0 5 5 5h102q5 0 5-5v-8q0-5 5-5m5 0h40m-447 0q5 0 5 5v23q0 5 5 5h422q5 0 5-5v-23q0-5 5-5m5 0h30m92 0h20m-127 0q5 0 5 5v8q0 5 5 5h102q5 0 5-5v-8q0-5 5-5m5 0h10m25 0h5"/><rect class="l" x="5" y="20" width="25" height="25" rx="7"/><text class="j" x="15" y="37">[</text><a xlink:href="#whitespace"><rect class="r" x="60" y="20" width="92" height="25"/><text class="j" x="70" y="37">whitespace</text></a><a xlink:href="#value"><rect class="r" x="202" y="20" width="54" height="25"/><text class="j" x="212" y="37">value</text></a><a xlink:href="#whitespace"><rect class="r" x="306" y="20" width="92" height="25"/><text class="j" x="316" y="37">whitespace</text></a><rect class="l" x="468" y="20" width="24" height="25" rx="7"/><text class="j" x="478" y="37">,</text><a xlink:href="#whitespace"><rect class="r" x="522" y="20" width="92" height="25"/><text class="j" x="532" y="37">whitespace</text></a><a xlink:href="#value"><rect class="r" x="644" y="20" width="54" height="25"/><text class="j" x="654" y="37">value</text></a><a xlink:href="#whitespace"><rect class="r" x="728" y="20" width="92" height="25"/><text class="j" x="738" y="37">whitespace</text></a><a xlink:href="#whitespace"><rect class="r" x="910" y="20" width="92" height="25"/><text class="j" x="920" y="37">whitespace</text></a><rect class="l" x="1032" y="20" width="25" height="25" rx="7"/><text class="j" x="1042" y="37">]</text></svg>